<?xml version="1.0" encoding="utf-8"?>
<!-- Generator: Adobe Illustrator 21.0.2, SVG Export Plug-In . SVG Version: 6.00 Build 0)  -->
<svg version="1.1" id="Layer_1" xmlns="http://www.w3.org/2000/svg" xmlns:xlink="http://www.w3.org/1999/xlink" x="0px" y="0px"
	 viewBox="0 0 1133.9 164" style="enable-background:new 0 0 1133.9 164;" xml:space="preserve">
<style type="text/css">
	.st0{fill:#4C4346;}
	.st1{fill:#433E40;}
	.st2{fill:#322828;}
	.st3{fill:#281E20;}
	.st4{fill:#262220;}
	.st5{fill:#171515;}
	.st6{fill:#897D7F;}
	.st7{fill:#8C8382;}
	.st8{fill:#766E71;}
	.st9{fill:#8B8386;}
	.st10{fill:#6D6769;}
	.st11{fill:#1D191B;}
</style>
<g>
	<g>
		<path class="st0" d="M16.3,76.3c1.5,6.8,3.1,13.5,4.6,20.3l3.7,2.2l-1.2,8.4c0.7,2.9,1.4,5.8,2.2,8.7c1,3.9,2.1,7.9,3.1,11.8
			l8.4,2.5v10.9c0,0,14.3,15.2,20.5,15.2c2.2-2.1,4.3-4.2,6.5-6.2c8.8-0.1,17.5-0.2,26.3-0.3c15.1-4.6,30.7-9.8,46.8-15.7
			c22.1-8.1,42.7-16.5,61.8-25.1c7.5-1.7,15.1-3.4,22.6-5.2c18.8-4.4,37.3-9,55.6-13.7c12.1,0,25.5-0.6,39.8-2.2
			c9-1,17.6-2.3,25.6-3.8c6.2-0.8,15.8-2.3,27.3-4.8c19.8-4.4,21.9-6.8,33.9-9c13.2-2.4,25.4-1.4,49.8,0.7c9.3,0.8,22,2.1,37.2,4.5
			c14.3,0.1,29.6,0.7,45.8,2.1c13.6,1.2,26.5,2.8,38.6,4.6c0,0,15.7,5.2,40.6-0.5c78.5-1.4,158.7-2,240.4-1.6
			c85.9,0.4,170,1.9,252.3,4.4c8.1-0.6,13.9-2.8,14.1-5c0.1-2.2-5.7-5.1-14.2-6.5c0,0-278.6-26.8-350.3-26.4c0,0,0-7-18.5-4.9
			L530.2,30.6c0,0-23.9-21-42.4-13.2c0,0-51.5-6.6-66.8-3.7c-0.8-0.7-2-1.7-3.7-2.6c-6.2-3.5-14.8-4.2-22-0.6
			c-5,2.5-7.9,6.3-9.4,8.6c-8.7-2-20.3-3.7-33.9-3c-21.9,1.1-38.9,7.8-49,12.8c-36.5,4.3-73,8.6-109.5,12.9
			c-24.2,2.1-52,6.6-82,15.2c-12.3,3.6-23.9,7.5-34.6,11.6c-4.8-0.4-13-0.3-21.8,3.6c-3.5,1.5-6.4,3.3-8.7,5
			C36.3,76.7,26.3,76.5,16.3,76.3z"/>
	</g>
	<g>
		<path class="st1" d="M1122.5,79c-0.1,2.2-6,4.4-14.1,5c-82.3-2.4-166.4-3.9-252.3-4.4c-81.7-0.4-161.9,0.2-240.4,1.6
			c-24.8,5.7-40.6,0.5-40.6,0.5c-12.1-1.9-25-3.5-38.6-4.6c-16.2-1.4-31.6-2-45.8-2.1c-9.2-1.4-17.5-2.5-24.7-3.3
			c0,0,98.1,0,104.3-7.8s29.6,0,29.6,0s15.6,3.1,23.4-3.5c7.8-6.6,26.8-5.5,26.8-5.5s40.2-4.6,45.8-0.1s4,12.5,19.3,13.5
			s32.1-4.5,34.3-10.1s33.5,0,33.5,0L1122.5,79z"/>
	</g>
	<g>
		<path class="st2" d="M385.5,18.8c-3.5-1.4-6.5-1.7-12.6-2.5c-7.8-1-14.8-0.9-21.3-0.5c-14.6,0.9-29.6,1.7-42.4,10.3
			c-22.7,15-15.5,38.4-31.6,44.3c-23.3,8.5-63.7-31.3-63.7-31.3c-6.9,0.8-13.9,1.6-20.8,2.5c-24.2,2.1-52,6.6-82,15.2
			c-12.3,3.6-23.9,7.5-34.6,11.6c-4.8-0.4-13-0.3-21.8,3.6c-3.5,1.5-6.4,3.3-8.7,5c-10-0.2-20-0.4-30-0.7c1.5,6.8,3.1,13.5,4.6,20.3
			l3.7,2.2l-1.2,8.4c0.7,2.9,1.4,5.8,2.2,8.7c1,3.9,2.1,7.9,3.1,11.8l8.4,2.5v10.9c0,0,14.3,15.2,20.5,15.2c2.2-2.1,4.3-4.2,6.5-6.2
			c8.8-0.1,17.5-0.2,26.3-0.3c15.1-4.6,30.7-9.8,46.8-15.7c22.1-8.1,42.7-16.5,61.8-25.1c7.5-1.7,15.1-3.4,22.6-5.2
			c18.8-4.4,37.3-9,55.6-13.7c12.1,0,25.5-0.6,39.8-2.2c9-1,17.6-2.3,25.6-3.8c6.2-0.8,15.8-2.3,27.3-4.8c7.8-1.7,11.7-2.6,13.5-3.4
			c10.8-4.8,25.3-18.3,22.7-34.2C403.6,29.5,392.9,21.7,385.5,18.8z"/>
	</g>
	<g>
		<path class="st3" d="M25.6,116.6c1,3.9,2.1,7.9,3.1,11.8l8.4,2.5v10.8c0,0,2.6,2.8,6.2,6c0,0,43.3-12.1,47.1,2.7
			c13.1-4,26.6-8.5,40.4-13.4c0,0,22.2-22.7,19.8-42.9c0,0-34.7-33.7-62.4,11.6C88.2,105.7,66,121.9,25.6,116.6z"/>
	</g>
	<g>
		<path class="st4" d="M213,37.3c-5.3-12.7,47.3,40.5,63.7,31.3c6.4-3.6,4.9-13,18.6-30.3c3.8-4.8,7.3-8.4,9.8-10.7
			c-1.1,2.2-8.4,18.1-0.6,35.8c7.9,17.8,24.7,23,27.1,23.7c-12.1,0.1-24.2,0.3-36.5,0.6c-6.4,0.1-12.7,0.3-19.1,0.5
			c-18.2,4.7-36.7,9.2-55.6,13.7C220.4,101.8,234.9,89.6,213,37.3z"/>
	</g>
	<g>
		<g>
			<path class="st5" d="M33.4,80.5c-0.9,24.4,6.5,55.7,29.8,67.8c2.1,1.1,4-2.1,1.9-3.2C43,133.6,36.3,103.6,37.2,80.5
				C37.3,78.1,33.5,78.1,33.4,80.5L33.4,80.5z"/>
		</g>
	</g>
	<ellipse transform="matrix(0.9673 -0.2535 0.2535 0.9673 -24.6688 18.098)" class="st6" cx="57.9" cy="104.8" rx="4.6" ry="21.1"/>
	<g>
		<g>
			<path class="st5" d="M115.1,115.8c1.7-4.2,6.1-9.8,9.7-13.6c11.3-11.9,26.1-20,41.3-25.7c13.9-5.2,28.5-8.4,43.1-10.4
				c1.6-0.2,0.9-2.6-0.7-2.4c-33.1,4.6-73.6,16.1-93,46.2c-1.1,1.7-2.2,3.5-2.9,5.3C112.1,116.7,114.5,117.3,115.1,115.8
				L115.1,115.8z"/>
		</g>
	</g>
	<g>
		<g>
			<path class="st5" d="M86.9,63.6c-14.2,2.9-32.2,12.9-26.1,30c0.5,1.5,3,0.9,2.4-0.7C57.6,77.2,74.8,68.6,87.6,66
				C89.2,65.7,88.5,63.3,86.9,63.6L86.9,63.6z"/>
		</g>
	</g>
	<g>
		<g>
			<path class="st5" d="M162.1,100.7c10.5-7.1,21.5-13.6,32.6-19.6c18.3-9.9,38.8-20.7,59.9-22.5c1.6-0.1,1.6-2.6,0-2.5
				c-20.8,1.7-40.9,12-59,21.7C183.7,84.2,172,91,160.8,98.6C159.5,99.4,160.7,101.6,162.1,100.7L162.1,100.7z"/>
		</g>
	</g>
	<g>
		<g>
			<path class="st5" d="M170.8,103.7c13.6-3.4,27-7.5,40.2-12.1c20.9-7.2,42.9-15.4,60.4-29.2c1.3-1-0.5-2.8-1.8-1.8
				c-17.8,14-40.4,22.2-61.6,29.4c-12.5,4.2-25.1,8.1-37.9,11.3C168.5,101.7,169.2,104.1,170.8,103.7L170.8,103.7z"/>
		</g>
	</g>
	<g>
		<g>
			<path class="st5" d="M312.7,43.3c7.8-13.1,23.9-18.6,38.4-16.2c1.6,0.3,2.3-2.1,0.7-2.4c-15.6-2.6-32.8,3.2-41.2,17.3
				C309.7,43.4,311.9,44.7,312.7,43.3L312.7,43.3z"/>
		</g>
	</g>
	<g>
		<g>
			<path class="st5" d="M335.9,77.4c19.9-12.9,47.6-23.9,71.4-17.4c2.3,0.6,3.3-3,1-3.6c-24.7-6.8-53.5,4.3-74.3,17.8
				C332,75.5,333.9,78.7,335.9,77.4L335.9,77.4z"/>
		</g>
	</g>
	<g>
		<g>
			<path class="st5" d="M343.4,53.9c16.7,6.7,36.3,1.1,49.3-10.4c1.2-1.1-0.6-2.8-1.8-1.8c-12.4,10.9-31,16.1-46.9,9.7
				C342.5,50.9,341.9,53.3,343.4,53.9L343.4,53.9z"/>
		</g>
	</g>
	<g>
		<g>
			<path class="st5" d="M469.5,44.1c1.3-13.4,11.5-24.1,24.6-26.6c2.4-0.5,1.4-4.1-1-3.6c-14.8,2.8-25.9,15.3-27.3,30.2
				C465.5,46.5,469.2,46.5,469.5,44.1L469.5,44.1z"/>
		</g>
	</g>
	<g>
		<g>
			<path class="st5" d="M383.8,18.9c4.6,17.5,22.4,28.7,39,32.3c2.4,0.5,3.4-3.1,1-3.6c-15.3-3.3-32.1-13.4-36.4-29.7
				C386.8,15.6,383.2,16.6,383.8,18.9L383.8,18.9z"/>
		</g>
	</g>
	<g>
		<g>
			<path class="st5" d="M508.2,69.9c16.6,1,33.6-6.9,43.3-20.2c0.9-1.3-1.2-2.6-2.2-1.3c-9.2,12.6-25.5,19.9-41.2,19
				C506.6,67.3,506.6,69.8,508.2,69.9L508.2,69.9z"/>
		</g>
	</g>
	<g>
		<g>
			<path class="st5" d="M558.6,55.6c6.8,2.7,14.5,3.7,21.7,4.5c19.7,2.1,39.5,0,58.7-4.5c1.6-0.4,0.9-2.8-0.7-2.4
				c-19,4.5-38.6,6.5-58.1,4.4c-7-0.8-14.4-1.9-21-4.4C557.8,52.6,557.1,55,558.6,55.6L558.6,55.6z"/>
		</g>
	</g>
	<g>
		<g>
			<path class="st5" d="M551.5,65.4c8.2,3.2,17.3,4.7,26.1,5.7c21.6,2.6,43.6,0.3,64.4-5.7c1.5-0.4,0.9-2.9-0.7-2.4
				c-20.7,6-42.4,8.2-63.8,5.7c-8.5-1-17.4-2.5-25.4-5.7C550.6,62.4,550,64.9,551.5,65.4L551.5,65.4z"/>
		</g>
	</g>
	<g>
		<g>
			<path class="st5" d="M757,78.5c6.7-9.9,16-17.5,26.9-22.2c1.5-0.6,0.2-2.8-1.3-2.2C771.2,59,761.7,67,754.8,77.2
				C753.9,78.5,756.1,79.8,757,78.5L757,78.5z"/>
		</g>
	</g>
	<g>
		<g>
			<path class="st5" d="M754.5,65.9c6.5-12.5,20-19.6,34-18c1.6,0.2,1.6-2.3,0-2.5c-14.9-1.7-29.3,6-36.2,19.2
				C751.6,66,753.8,67.3,754.5,65.9L754.5,65.9z"/>
		</g>
	</g>
	<g>
		<g>
			<path class="st5" d="M872.7,67.2c54.5,3.6,109,7.1,163.5,10.7c1.6,0.1,1.6-2.4,0-2.5c-54.5-3.6-109-7.1-163.5-10.7
				C871.1,64.6,871.1,67.1,872.7,67.2L872.7,67.2z"/>
		</g>
	</g>
	<g>
		<g>
			<path class="st6" d="M71.4,99.2c33.3-12.7,68.2-24.3,103.5-29.9c10.3-1.7,21.5-3.2,31.9-0.9c1.6,0.3,2.2-2.1,0.7-2.4
				c-8.6-1.9-17.6-1.2-26.2-0.1c-11.6,1.4-23,3.9-34.3,6.8c-21.2,5.3-42.1,12-62.8,19.3c-4.5,1.6-8.9,3.2-13.3,4.9
				C69.2,97.3,69.9,99.8,71.4,99.2L71.4,99.2z"/>
		</g>
	</g>
	<ellipse class="st7" cx="323.4" cy="47.1" rx="11.5" ry="9"/>
	<g>
		<g>
			<path class="st6" d="M62,91.7c7,5.8,10.4,14.7,8.8,23.7c-0.3,1.6,2.1,2.2,2.4,0.7c1.8-9.8-1.7-19.8-9.4-26.1
				C62.6,89,60.8,90.7,62,91.7L62,91.7z"/>
		</g>
	</g>
	<g>
		<g>
			<path class="st6" d="M356.9,29.3c11.8-8.3,27.4-8.5,39.1,0c1.3,0.9,2.6-1.2,1.3-2.2c-12.3-9-29.2-8.8-41.6,0
				C354.3,28,355.6,30.2,356.9,29.3L356.9,29.3z"/>
		</g>
	</g>
	<g>
		<g>
			<path class="st8" d="M411.2,26.1c9.6,1,19.5,1.1,29.1,0.7C453,26.2,468.9,25,478.8,16c1.2-1.1-0.6-2.9-1.8-1.8
				c-10.1,9.2-27.2,9.8-40,10.2c-8.6,0.3-17.3,0.1-25.8-0.8C409.6,23.4,409.7,26,411.2,26.1L411.2,26.1z"/>
		</g>
	</g>
	<g>
		<g>
			<path class="st9" d="M480.9,44.1c5.9,4.9,13.2,8.7,20.6,10.6c5.7,1.5,11.9,1.9,17.6,0.3c3.3-0.9,5.9-2.7,8.9-4.2
				c3.7-1.9-2.1-0.9,0.1-0.8c0.6,0,1.7,0.8,2.3,1.1c2.3,0.8,4.8,1.3,7.2,1.7c13.1,2.3,26.5,2.8,39.7,3.3c1.6,0.1,1.6-2.4,0-2.5
				c-13.5-0.5-27.3-0.8-40.6-3.5c-1.9-0.4-6.4-1.2-7.2-2.2c-0.3-0.4-1.1-0.5-1.5-0.2c-14,10.5-32.8,4.9-45.3-5.4
				C481.4,41.3,479.6,43,480.9,44.1L480.9,44.1z"/>
		</g>
	</g>
	<g>
		<g>
			<path class="st10" d="M561.1,38.8c39.1,4.6,78.4,8.3,117.8,9.4c11.8,0.3,23.6,0.5,35.3-0.7c1.6-0.2,1.6-2.7,0-2.5
				c-23,2.4-46.7,0.5-69.8-1.1s-46.1-3.7-69.2-6.1c-4.7-0.5-9.4-1-14.2-1.6C559.5,36.1,559.5,38.6,561.1,38.8L561.1,38.8z"/>
		</g>
	</g>
	<g>
		<g>
			<path class="st9" d="M744,73.2c5.1-7.8,17.5-10,25.8-10.6c1.6-0.1,1.6-2.6,0-2.5c-9.4,0.7-22.4,3.2-27.9,11.9
				C741,73.3,743.2,74.5,744,73.2L744,73.2z"/>
		</g>
	</g>
	<g>
		<g>
			<path class="st9" d="M472.6,50.1c0.2-17.8,17-29.4,33.9-24.9c4,1.1,7.5,3,10.5,5.7c2.7,2.4,4.8,4.9,8.3,6.1c2.3,0.8,4.7,0.9,7,1
				c5.2,0.3,10.3,0.9,15.4,2c1.6,0.3,2.2-2.1,0.7-2.4c-5.1-1-10.3-1.7-15.5-2c-4.9-0.3-8.5-0.9-12.2-4.5c-6.5-6.1-13.7-9.6-22.9-9.5
				c-15.5,0.2-27.5,13.3-27.7,28.5C470.1,51.7,472.6,51.7,472.6,50.1L472.6,50.1z"/>
		</g>
	</g>
	<g>
		<g>
			<path class="st11" d="M14.5,76.8c1.4,6.2,2.1,13.4,4.4,19.3c1,2.5,2.4,2.9,4.8,4.3c-0.3-0.7-0.6-1.4-0.9-2.1
				c-0.4,2.6-1,5.2-1.1,7.8c-0.2,4.3,1.8,9.1,2.9,13.3c0.9,3.3,0.9,8.6,4,10.3c2.3,1.2,5.5,1.6,8,2.4c-0.5-0.6-0.9-1.2-1.4-1.8
				c0,3.2-0.4,6.6,0,9.7c0.3,2.3,1,3,2.7,4.7c3,3,6.1,5.8,9.4,8.4c2.4,1.9,6.9,5.7,10.3,5.2c2.2-0.4,3.5-3,5.2-4.3
				c3.6-2.8,7.8-2,12.2-2.1c4.4,0,8.8,0,13.1-0.1c4.2-0.1,8.2-1.8,12.2-3.1c16.6-5.3,33-11,49.2-17.2c15.2-5.8,30.2-12,45.1-18.5
				c8-3.5,16.9-4.9,25.4-6.9c9-2.1,18-4.3,27-6.5c8.2-2,16.4-4.1,24.6-6.1c8.1-2.1,16.4-1.5,24.7-2c16.2-0.9,32-3.3,47.9-5.7
				c13.7-2.1,27.4-4.5,40.7-8.4c9-2.6,17.6-5.5,27-6.3c12.5-1,25.1,0.4,37.5,1.4c6.6,0.6,13.1,1.2,19.7,1.9c8.4,1,16.9,2.9,25.4,3
				c27.9,0.3,56.5,2,83.9,7.5c11.2,2.2,22.5,1.3,33.7-0.5c8.9-1.5,18.1-1.1,27.1-1.2c9.3-0.1,18.5-0.3,27.8-0.4
				c143.6-1.9,287.3-0.8,430.9,3.3c3.7,0.1,28.8,1.9,26.4-7.5c-1.4-5.3-12.1-6.8-16.3-7.4c-5.6-0.7-11.2-1.1-16.8-1.6
				c-30.4-2.9-60.8-5.6-91.3-8.3c-75.1-6.6-150.5-14-225.9-16.2c-5.3-0.2-10.6-0.3-15.9-0.2c0.6,0.6,1.2,1.2,1.9,1.9
				c-0.3-9.2-16.4-6.8-21.7-6.9c-7.1-0.1-14.2-0.8-21.2-1.1c-30-1.6-59.9-3.2-89.9-4.8c-27.8-1.5-55.5-2.9-83.3-4.4
				c-3.4-0.2-6.8-0.4-10.2-0.5c-0.8,0-1.8-0.3-2.6-0.1c-1.2,0.2-1-0.6,0.3,0.4c-5.3-4.1-10.7-8-16.8-10.8c-4.2-1.9-8.6-3.5-13.2-4.2
				c-4.9-0.7-8.6,0.6-13.3,1.2c-5.2,0.6-11.5-1.1-16.8-1.7c-10.4-1.1-20.9-2-31.4-2.4c-4.5-0.2-9-0.3-13.5,0
				c-1.3,0.1-4.1,0.9-5.3,0.5c-0.7-0.2-4.3-3.1-5.9-3.7c-11.5-4.6-24.2-0.1-30.9,10.1c0.7-0.3,1.4-0.6,2.1-0.9
				c-22.1-5-45.2-4.2-66.8,2.8c-3.8,1.2-7.5,2.6-11.1,4.2c-1.8,0.8-3.6,1.9-5.5,2.5c-3.4,1.1-7.4,1.1-11,1.5
				c-14.6,1.7-29.2,3.4-43.8,5.2C196.4,39.8,144.8,44,94.9,60.4c-6.4,2.1-13.7,6.1-20.4,6.4c-5.6,0.3-10.9,0.5-16.3,2.3
				c-2.6,0.9-5.1,1.9-7.5,3.2c-4,2.2-6,3.1-10.9,3c-7.9-0.2-15.7-0.3-23.6-0.5c-2.4-0.1-2.4,3.7,0,3.8c6.4,0.1,12.9,0.3,19.3,0.4
				c3,0.1,7.7,1,10.7,0.2c1.8-0.5,3.2-1.9,4.8-2.8c5.4-3.2,11.6-5.2,17.8-5.7c2.3-0.2,4.5,0,6.7-0.1c2.5-0.1,4.6-1.2,7-2
				c24.4-8.9,49.6-15.7,75.2-20.1c25.5-4.4,51.4-6.5,77.1-9.5c13.9-1.6,27.7-3.3,41.6-4.9c6.6-0.8,13.1-1.5,19.7-2.3
				c5.1-0.6,8.2-1.5,12.8-3.5c24-10.5,50.8-12.9,76.2-7.1c0.9,0.2,1.6-0.1,2.1-0.9c4.1-6.2,10.7-10,18.3-10c3.7,0,7.4,0.9,10.6,2.7
				c1.9,1.1,3,2.7,5.1,2.8c2.8,0.2,6-0.6,8.9-0.7c4.4-0.1,8.8,0.1,13.3,0.3c8.9,0.5,17.8,1.2,26.6,2.1c5.4,0.5,11.2,1.9,16.6,1.9
				c2.5,0,4.8-1.2,7.4-1.5c5.2-0.6,10.4,0.7,15.2,2.5c7.2,2.8,12.6,7.7,19.1,11.5c3.1,1.8,7.8,1.2,11.3,1.3
				c54.3,2.9,108.6,5.8,163,8.7c10.4,0.6,20.7,1.1,31.1,1.7c5.6,0.3,22.2-1.6,22.3,3.4c0,1,0.8,1.9,1.9,1.9
				c29.1-0.1,58.3,2.1,87.3,4.1c39.5,2.7,79,5.9,118.5,9.2c34.4,2.9,68.9,6,103.3,9.2c10.4,1,20.8,1.9,31.3,2.9
				c6.5,0.6,14,0.7,19.9,3.9c4.1,2.2-0.5,3.1-3.1,3.7c-4.4,1.1-8.6,0.9-13,0.8c-8.5-0.2-16.9-0.5-25.4-0.7
				c-17-0.5-34.1-0.9-51.2-1.2c-34.6-0.7-69.1-1.3-103.7-1.7c-70.6-0.8-141.3-0.9-212-0.2c-17.2,0.2-34.4,0.4-51.5,0.6
				c-16.3,0.2-33.2-0.7-49.3,2c-10.6,1.8-21.5,2-32-0.4c-11.8-2.7-24.2-3.6-36.2-4.7c-16.1-1.5-32.1-1.7-48.2-2.4
				c-7.3-0.3-14.5-1.9-21.8-2.8c-7.1-0.8-14.3-1.5-21.5-2.1c-12-1-24.2-2.3-36.3-1.5c-8.6,0.6-16.7,2.7-24.8,5.2
				c-12.6,3.9-25.5,6.7-38.5,8.7c-15.1,2.4-30.2,4.9-45.5,6.1c-7.8,0.6-15.7,0.9-23.5,1c-7.6,0.1-15.1,2.9-22.5,4.7
				c-16.5,4.1-33,8.1-49.6,11.9c-3.5,0.8-7.3,1.4-10.7,2.5c-3.6,1.2-7.1,3.2-10.6,4.7c-7.8,3.4-15.6,6.6-23.5,9.8
				c-15.6,6.2-31.3,12.1-47.2,17.5c-7.7,2.6-15.3,5.4-23.1,7.5c-8.7,2.3-18.4,1.1-27.4,1.4c-3.4,0.1-3.6,0.6-6.1,3.1
				c-2.6,2.5-3.1,3.6-6.3,1.8c-4.2-2.3-7.8-5.8-11.2-9.1c-1-1-2.2-2.7-3.4-3.4c-0.2-0.1-0.6-0.5-0.7-0.7c1.2,1.7,0.2,1.2,0.5,0.1
				c0.8-2.7,0-6.9,0-9.7c0-0.8-0.6-1.6-1.4-1.8c-2-0.6-4.2-1-6.2-1.8c-0.3-0.1-1.3-0.2-1.6-0.5c-0.6-0.6,0.4-0.3,0.2-0.8
				c-1.2-2.5-1.6-6.2-2.3-8.8c-0.9-3.4-2.3-7-2.2-10.4c0.1-2.2,0.7-4.5,1-6.6c0.1-0.8-0.1-1.7-0.9-2.1c-0.8-0.5-2.1-0.9-2.8-1.6
				c-0.9-1-0.9-2.9-1.3-4.5c-1.2-5.1-2.3-10.1-3.5-15.2C17.6,73.4,14,74.4,14.5,76.8z"/>
		</g>
	</g>
</g>
</svg>
