<?xml version="1.0" encoding="utf-8"?>
<!-- Generator: Adobe Illustrator 21.0.2, SVG Export Plug-In . SVG Version: 6.00 Build 0)  -->
<svg version="1.1" id="Layer_1" xmlns="http://www.w3.org/2000/svg" xmlns:xlink="http://www.w3.org/1999/xlink" x="0px" y="0px"
	 viewBox="0 0 1133.9 102.5" style="enable-background:new 0 0 1133.9 102.5;" xml:space="preserve">
<style type="text/css">
	.st0{fill:#392D2A;}
	.st1{fill:#271F1A;}
	.st2{fill:#E6E7E8;}
	.st3{fill:#1D1715;}
	.st4{fill:#1D191B;}
</style>
<g>
	<path class="st0" d="M13,50.1l106.7,5.3l346,12.5l284.9,3.5c2.1,6,5.1,9.8,8.4,9.7c3.3,0,6.2-3.7,8.2-9.5l31.1,0.3
		c2.1,5.6,5,9,8.2,9c3.1,0,6-3.4,8-8.9l258.8,2.6c2.4,0.1,4.8,0.2,7.1,0.1c9.2-0.4,16.5-2.9,24.5-5.6c10.9-3.7,24.1-8.2,24.1-13.7
		c-0.1-5.8-14.8-10.3-26.6-13.8c-8.8-2.7-15-4.5-22.8-4.9c-0.9,0-1.9,0-2.8,0l-261.4-3.9c-2.1-7.2-5.4-11.8-9.1-11.8
		c-3.6,0-6.8,4.5-8.9,11.5l-29.8-0.4c-2.1-6.7-5.3-10.9-8.8-10.9s-6.6,4.2-8.6,10.7L464.7,30l-346-2.5l-94.1-2.9
		c0,0-16.1,0.1-17,10.9C6.7,46.2,13,50.1,13,50.1z"/>
	<path class="st1" d="M7.6,35.3C6.8,46.1,13,50,13,50l106.7,5.3l346,12.5l284.9,3.5c2.1,6,5.1,9.8,8.4,9.7c3.3,0,6.2-3.7,8.2-9.5
		l31.1,0.3c2.1,5.6,5,9,8.2,9c3.1,0,6-3.4,8-8.9l258.8,2.6c2.4,0.1,4.8,0.2,7.1,0.1c9.2-0.4,16.5-2.9,24.5-5.6
		c4.1-1.4,8.5-3.1,12.6-4.6c12.6-4.6,11.4-9.1,11.4-9.1L7.6,35.3z"/>
	<g>
		<g>
			<path class="st2" d="M1090.6,47.7c-9.5-0.1-19.1-0.2-28.6-0.3c-25.7-0.3-51.4-0.6-77.2-0.9c-38.3-0.4-76.6-0.9-114.9-1.3
				c-46.4-0.5-92.8-1-139.2-1.6c-51.2-0.6-102.3-1.1-153.5-1.7c-51.3-0.6-102.6-1.2-153.9-1.7c-48.2-0.5-96.3-1.1-144.5-1.6
				c-40.4-0.5-80.8-0.9-121.3-1.4c-29.3-0.3-58.5-0.7-87.8-1c-13.8-0.2-27.6-0.5-41.3-0.5c-0.6,0-1.2,0-1.8,0c-2.4,0-2.4,3.7,0,3.8
				c9.5,0.1,19.1,0.2,28.6,0.3c25.7,0.3,51.4,0.6,77.2,0.9c38.3,0.4,76.6,0.9,114.9,1.3c46.4,0.5,92.8,1,139.2,1.6
				c51.2,0.6,102.3,1.1,153.5,1.7c51.3,0.6,102.6,1.2,153.9,1.7c48.2,0.5,96.3,1.1,144.5,1.6c40.4,0.5,80.8,0.9,121.3,1.4
				c29.3,0.3,58.5,0.7,87.8,1c13.8,0.2,27.6,0.5,41.3,0.5c0.6,0,1.2,0,1.8,0C1093.1,51.5,1093.1,47.7,1090.6,47.7L1090.6,47.7z"/>
		</g>
	</g>
	<path class="st3" d="M796.5,31.1c6.9,1.6,10.2,12.4,10.4,20.1c0,1.7,0.2,14.6-8.1,18.6c-1.3,0.6-2.6,0.9-3.5,1
		c1.3,5.5,4.7,9.3,8.2,9.5c4,0.2,6.9-4.7,9-8.2c4.5-7.5,4.6-14.7,4.7-19.9c0-4.2,0-11.8-4-20.4c-2.2-4.6-5.5-11.7-10-11.5
		c-3.6,0.1-6.9,4.7-8.5,10.7C795.1,30.9,795.8,30.9,796.5,31.1z"/>
	<path class="st3" d="M748.8,30.3c6.9,1.6,10.2,12.4,10.4,20.1c0,1.7,0.2,14.6-8.1,18.6c-1.3,0.6-2.6,0.9-3.5,1
		c1.3,5.5,4.7,9.3,8.2,9.5c4,0.2,6.9-4.7,9-8.2c4.5-7.5,4.6-14.7,4.7-19.9c0-4.2,0-11.8-4-20.4c-2.2-4.6-5.5-11.7-10-11.5
		c-3.6,0.1-6.9,4.7-8.5,10.7C747.4,30.1,748.1,30.2,748.8,30.3z"/>
	<g>
		<g>
			<path class="st4" d="M21.3,51.5c54.8,3.1,109.4,6,164.2,8.1c61.6,2.3,123.1,4.7,184.7,7c32,1.2,64,3,96,3.6
				c45.7,0.9,91.3,1.2,137,1.8c48.1,0.6,96.3,1.3,144.4,1.9c0.8,0,1.7,0,2.5,0c-0.6-0.5-1.2-0.9-1.8-1.4c1.6,4.4,4.4,11.7,10.2,11.6
				c5.7,0,8.5-7,10.1-11.4c-0.6,0.5-1.2,0.9-1.8,1.4c10.4,0.1,20.7,0.2,31.1,0.3c-0.6-0.5-1.2-0.9-1.8-1.4c1.6,4.2,4.4,10.9,10,10.9
				c5.5,0,8.2-6.5,9.8-10.7c-0.6,0.5-1.2,0.9-1.8,1.4c35.5,0.4,71,0.8,106.6,1.2c47.4,0.5,94.8,1,142.2,1.6c3.3,0,6.6,0,9.9,0.1
				c10,0.3,19-1.3,28.5-4.6c8.4-2.9,19.8-5.6,26.3-12c13.2-13-25.3-22-31.8-24c-7.8-2.3-15.4-3.1-23.5-3.2
				c-43.6-0.7-87.1-1.4-130.7-2.1c-26.5-0.4-53-0.9-79.5-1.3c-9.6-0.2-19.2-0.3-28.8-0.5c-5.4-0.1-11-0.7-16.3-0.3
				c-0.7,0.1-1.5,0-2.2,0c0.6,0.5,1.2,0.9,1.8,1.4c-1.5-5-4.3-13.9-10.9-13.8c-6.4,0-9.2,8.6-10.7,13.5c0.6-0.5,1.2-0.9,1.8-1.4
				c-9.9-0.2-19.9-0.3-29.8-0.5c0.6,0.5,1.2,0.9,1.8,1.4c-1.5-4.8-4.4-12.9-10.6-12.8c-6.2,0-8.9,8-10.4,12.7
				c0.6-0.5,1.2-0.9,1.8-1.4c-50.2-0.4-100.4-0.7-150.6-1.1c-45.3-0.3-90.5-0.7-135.8-1c-50.1-0.4-100.2-0.8-150.3-1.2
				c-60.7-0.5-121.5-1-182.2-1.5c-13.7-0.1-27.4-0.6-41-1c-17.1-0.6-34.2-1.1-51.4-1.7C26.9,20.7,9.4,17.5,5.5,32
				C2.8,42.4,11.6,50.8,21.3,51.5c2.4,0.2,2.4-3.6,0-3.8C12.6,47,5.1,37.8,10.9,29.6c3.3-4.8,8.5-5.5,13.8-5.1
				c4.3,0.3,8.6,0.3,12.8,0.4c16.7,0.5,33.4,1.1,50.1,1.6c13.8,0.4,27.6,1,41.4,1.1c58,0.5,116,0.9,173.9,1.4
				c52.5,0.4,105.1,0.8,157.6,1.3c39.1,0.3,78.3,0.6,117.4,0.9c56.2,0.4,112.3,0.8,168.5,1.3c1.1,0,2.2,0,3.2,0
				c0.9,0,1.6-0.6,1.8-1.4c0.9-2.7,2.9-9.9,6.8-9.9c3.9,0,6.1,7.4,7,10.1c0.3,0.8,1,1.4,1.8,1.4c9.9,0.2,19.9,0.3,29.8,0.5
				c0.8,0,1.6-0.6,1.8-1.4c0.8-2.8,2.9-10.7,7.1-10.8c4.4,0,6.4,8.2,7.3,11.1c0.2,0.8,1,1.4,1.8,1.4c33.6,0.5,67.1,1.1,100.7,1.6
				c48.1,0.8,96.2,1.5,144.3,2.3c4.9,0.1,9.8,0.2,14.8,0.2c13,0.2,25.4,4.3,37.6,8.7c4.1,1.5,10.6,3.4,13.4,7.1
				c3.5,4.7-5.6,8.3-8.9,9.8c-11,4.9-23.6,9.8-35.7,10.7c-4.8,0.3-9.7,0-14.5-0.1c-43.8-0.5-87.6-1-131.4-1.4
				c-39.7-0.4-79.3-1.2-119-1.3c-0.7,0-1.3,0-2,0c-0.9,0-1.5,0.6-1.8,1.4c-0.9,2.3-2.8,7.9-6.2,7.9s-5.4-5.8-6.4-8.1
				c-0.3-0.8-0.9-1.4-1.8-1.4c-10.4-0.1-20.7-0.2-31.1-0.3c-0.9,0-1.5,0.6-1.8,1.4c-0.9,2.4-2.9,8.7-6.4,8.7c-3.6,0-5.7-6.4-6.6-8.9
				c-0.3-0.8-0.9-1.4-1.8-1.4c-41.2-0.5-82.3-1.1-123.5-1.6c-51.7-0.7-103.4-1.4-155-2.1c-27-0.4-54-1.9-80.9-2.9
				c-61.8-2.4-123.6-4.7-185.4-7.1c-45.8-1.7-91.5-3.6-137.3-6.2c-15.6-0.9-31.2-1.8-46.8-2.7C18.9,47.6,18.9,51.4,21.3,51.5z"/>
		</g>
	</g>
</g>
</svg>
