<?xml version="1.0" encoding="utf-8"?>
<!-- Generator: Adobe Illustrator 21.0.2, SVG Export Plug-In . SVG Version: 6.00 Build 0)  -->
<svg version="1.1" id="Layer_1" xmlns="http://www.w3.org/2000/svg" xmlns:xlink="http://www.w3.org/1999/xlink" x="0px" y="0px"
	 viewBox="0 0 1133.9 110.8" style="enable-background:new 0 0 1133.9 110.8;" xml:space="preserve">
<style type="text/css">
	.st0{fill:#1D191B;}
	.st1{fill:#BCBBC3;}
	.st2{fill:#5C5555;}
	.st3{fill:#E6E4EA;}
	.st4{fill:#D0CECE;}
	.st5{fill:#E2E2E2;}
</style>
<g>
	
		<ellipse transform="matrix(1 -4.811605e-03 4.811605e-03 1 -8.104570e-02 1.1127)" class="st0" cx="231.2" cy="17.4" rx="2.1" ry="2.1"/>
	
		<ellipse transform="matrix(1 -4.811605e-03 4.811605e-03 1 -9.176239e-02 1.0583)" class="st0" cx="219.9" cy="19.6" rx="2.1" ry="2.1"/>
	
		<ellipse transform="matrix(1 -4.811605e-03 4.811605e-03 1 -9.237897e-02 1.002)" class="st0" cx="208.2" cy="19.7" rx="2.1" ry="2.1"/>
	<ellipse transform="matrix(1 -4.811605e-03 4.811605e-03 1 -0.1026 0.9506)" class="st0" cx="197.5" cy="21.8" rx="2.1" ry="2.1"/>
	<ellipse transform="matrix(1 -4.811605e-03 4.811605e-03 1 -0.1082 0.4078)" class="st0" cx="84.7" cy="22.7" rx="2.1" ry="2.1"/>
	<path class="st1" d="M1112.2,48.9L1011,47.4c-4.7-4-11.9-6.4-19.9-6.4c-7.5,0-14.2,2.3-18.9,5.9l-155.9-2.3
		c-5.2-8.6-17.4-14.5-31.5-14.4c-13.4,0.1-25,5.5-30.5,13.4l-74.5-1.1l-68.8-2c-5.1-8.5-16.2-14.3-29-14.3
		c-11.8,0.1-22.1,5.1-27.5,12.6L422,35c-6.3-9.2-18.9-15.3-33.3-15.2c-13.2,0.1-24.8,5.4-31.4,13.4l-112.5-3.3
		c-3.5-8.3-11.8-14.1-21.4-14.1l-18.9,0.1c-8.8,0-16.4,5.1-20.2,12.3l0,0l-69.7,0.3c-5.7-6.6-14.7-10.7-24.7-10.7
		c-12,0-22.4,6.2-27.7,15.2l0,0l-27-9.2v0.1c-2-1.2-4.3-1.9-6.8-1.9c-7.5,0-13.6,6.4-13.5,14.1c0,6,3.7,11,8.8,13
		c-5.1,2-8.7,7.1-8.6,13.1c0,7.8,6.2,14.1,13.7,14c3.3,0,6.3-1.2,8.7-3.3l24.9-13l0,0c5.3,9,15.8,15,27.8,15
		c10.3,0,19.5-4.6,25.1-11.6l67.1,0.4c2.5,9.9,11.7,17.3,22.4,17.3l18.9-0.1c10.5-0.1,19.4-7.2,22-16.8l111.6,0.7
		c6.7,8,18.4,13.2,31.6,13.1c12.9-0.1,24.2-5.1,30.9-12.7l135.7,0.7c5.7,6.8,15.6,11.1,26.7,11.1c10.8-0.1,20.3-4.3,26-10.8L756,67
		c6,6.8,16.8,11.2,29.1,11.2c11.9-0.1,22.3-4.3,28.3-10.8L968.7,68c4.4,5.4,12.8,8.9,22.4,8.9c9.3,0,17.4-3.5,22-8.7l101.8,0.6
		c0,0,11.1-1.7,10.7-10.5C1125.4,49.5,1112.2,48.9,1112.2,48.9z"/>
	<path class="st2" d="M1124.3,53.9c-3.5-4.7-12-5-12-5L1011,47.3c-4.7-4-11.9-6.4-19.9-6.4c-7.5,0-14.2,2.3-18.9,5.9l-155.9-2.3
		c-5.2-8.6-17.4-14.5-31.5-14.4c-13.4,0.1-25,5.5-30.5,13.4l-74.5-1.1l-68.8-2c-5.1-8.5-16.2-14.3-29-14.3
		c-11.8,0.1-22.1,5.1-27.5,12.6L422,34.9c-6.3-9.2-18.9-15.3-33.3-15.2c-13.2,0.1-24.8,5.4-31.4,13.4l-112.5-3.3
		c-3.5-8.3-11.8-14.1-21.4-14.1l-18.9,0.1c-8.8,0-16.4,5.1-20.2,12.3l0,0l-69.7,0.3c-5.7-6.6-14.7-10.7-24.7-10.7
		c-12,0.1-22.4,6.2-27.6,15.2l0,0l-27-9.2v0.1c-2-1.2-4.3-1.9-6.8-1.9C21,21.9,14.9,28.3,15,36c1.1,4.3,3.3,9.8,8.2,12.4
		c5.8,3.1,10.7-0.7,23.7-3.9c15.6-4,29.2-3.8,41.2-3.8c6.4,0.1,5.4,0.4,16.1,0.8c18.9,0.8,23.2-0.1,49.6-0.2
		c29.1-0.1,28.4,1.1,37.6-0.3c6.4-0.9,12.8-2.4,22.4-2.1c10.1,0.3,17.5,2.2,20.3,2.9c14.8,3.6,22,1.5,74.9,2.9
		c43,1.2,45.7,2.8,56.1,0.3c3.2-0.7,11.9-3.1,23.6-2.5c10,0.5,17.3,2.7,19.7,3.4c15.8,4.5,29,2.3,79.4,3.3c45.8,0.9,63,3.4,77-0.5
		c1.9-0.5,8.5-2.4,17.3-2.4c10.2,0.1,17.6,2.7,18.5,2.9C611.6,52.6,754.9,54.7,1124.3,53.9z"/>
	<g>
		<g>
			<path class="st3" d="M1029.6,56.1c24.6,0.4,49.2,0.7,73.8,1c1.6,0,1.6-2.5,0-2.5c-24.6-0.4-49.2-0.7-73.8-1
				C1028,53.5,1028,56,1029.6,56.1L1029.6,56.1z"/>
		</g>
	</g>
	<g>
		<g>
			<path class="st3" d="M819.1,57.8c43.9,0.3,87.7,0.5,131.6,0.8c1.6,0,1.6-2.5,0-2.5c-43.9-0.3-87.7-0.5-131.6-0.8
				C817.5,55.4,817.5,57.9,819.1,57.8L819.1,57.8z"/>
		</g>
	</g>
	<g>
		<g>
			<path class="st3" d="M665.5,57.2c24.6,0.4,49.2,0.7,73.8,1c1.6,0,1.6-2.5,0-2.5c-24.6-0.4-49.2-0.7-73.8-1
				C663.9,54.6,663.9,57.1,665.5,57.2L665.5,57.2z"/>
		</g>
	</g>
	<g>
		<g>
			<path class="st3" d="M426.9,43.8c24.6,0.4,49.2,0.7,73.8,1c1.6,0,1.6-2.5,0-2.5c-24.6-0.4-49.2-0.7-73.8-1
				C425.3,41.3,425.3,43.8,426.9,43.8L426.9,43.8z"/>
		</g>
	</g>
	<g>
		<g>
			<path class="st3" d="M463.9,51.6c24.6,0.4,49.2,0.7,73.8,1c1.6,0,1.6-2.5,0-2.5c-24.6-0.4-49.2-0.7-73.8-1
				C462.3,49.1,462.3,51.6,463.9,51.6L463.9,51.6z"/>
		</g>
	</g>
	<g>
		<g>
			<path class="st3" d="M290.8,50.3c16.4,0.4,32.9,0.7,49.3,1.2c1.6,0,1.6-2.5,0-2.5c-16.4-0.4-32.9-0.7-49.3-1.2
				C289.2,47.8,289.2,50.3,290.8,50.3L290.8,50.3z"/>
		</g>
	</g>
	<path class="st2" d="M1016,47.3c-4.8-2.4-13.4-5.8-24.9-6.3c-11.4-0.4-20.3,2.3-25.2,4.2c0.8,1.4,8.5,12.9,23.1,14.2
		C1005.3,60.9,1015.3,48.1,1016,47.3z"/>
	<path class="st4" d="M958,64.1l-0.1,4.4h11.5c1.8,1.7,10,9.2,22.4,8.9c7.6-0.1,13.2-3.2,15.9-4.8c1.7-2.2,3.5-4.3,5.2-6.5
		c-6.8,0.6-14.2,1-22.1,0.8C978.5,66.8,967.5,65.6,958,64.1z"/>
	<path class="st2" d="M812.8,66.4c0,0,8-7.5,2.9-22.5c-5.1-15.1-31.5-14.4-31.5-14.4s-23.4-1.4-30.5,13.4c0,0,35.1,12,38.5,34.3
		C792.3,77.3,808.9,73.7,812.8,66.4z"/>
	<path class="st2" d="M606.8,65.3c0,0,8-7.5,2.9-22.5c-5.1-15.1-31.5-14.4-31.5-14.4c1.5,0.5,13.4,4.3,17.9,16.2
		c4,10.8,0.1,23.7-9.9,31.6C586.2,76.2,602.9,72.6,606.8,65.3z"/>
	<path class="st2" d="M117.5,58.1c1.9-3.7,3.8-9.1,2.8-15.2c-1.8-12.2-13.9-22.5-30.3-25.2c1.6,1.1,14.9,10.4,15.9,27.7
		c1,15.6-8.7,25.8-10.3,27.4c2.8-0.6,6.8-1.8,11.1-4.6C112.3,65,115.7,60.7,117.5,58.1z"/>
	
		<ellipse transform="matrix(1 -4.811605e-03 4.811605e-03 1 -0.2893 4.7441)" class="st5" cx="985.8" cy="62.5" rx="10.4" ry="10.4"/>
	<ellipse transform="matrix(1 -4.811605e-03 4.811605e-03 1 -0.2918 3.7298)" class="st5" cx="775" cy="62.5" rx="6.1" ry="6.1"/>
	
		<ellipse transform="matrix(1 -4.811605e-03 4.811605e-03 1 -0.2498 2.7745)" class="st5" cx="576.5" cy="53.3" rx="14.3" ry="14.3"/>
	<ellipse transform="matrix(1 -4.811605e-03 4.811605e-03 1 -0.2855 1.9162)" class="st5" cx="398.1" cy="60.3" rx="8.2" ry="8.2"/>
	
		<ellipse transform="matrix(1 -4.811605e-03 4.811605e-03 1 -0.2722 1.0602)" class="st5" cx="220.2" cy="57.1" rx="14.1" ry="14.1"/>
	<ellipse transform="matrix(1 -4.811605e-03 4.811605e-03 1 -0.255 0.4014)" class="st5" cx="83.3" cy="53.2" rx="12.6" ry="11.6"/>
	
		<ellipse transform="matrix(1 -4.811605e-03 4.811605e-03 1 -0.2525 4.8566)" class="st0" cx="1009.2" cy="54.9" rx="2.1" ry="2.1"/>
	
		<ellipse transform="matrix(1 -4.811605e-03 4.811605e-03 1 -0.2425 4.8128)" class="st0" cx="1000.1" cy="52.8" rx="2.1" ry="2.1"/>
	<ellipse transform="matrix(1 -4.811605e-03 4.811605e-03 1 -0.205 4.8026)" class="st0" cx="998" cy="45" rx="2.1" ry="2.1"/>
	<ellipse transform="matrix(1 -4.811605e-03 4.811605e-03 1 -0.2676 4.7902)" class="st0" cx="995.4" cy="58" rx="2.1" ry="2.1"/>
	<ellipse transform="matrix(1 -4.811605e-03 4.811605e-03 1 -0.2532 4.7522)" class="st0" cx="987.5" cy="55" rx="2.1" ry="2.1"/>
	<ellipse transform="matrix(1 -4.811605e-03 4.811605e-03 1 -0.2262 4.7704)" class="st0" cx="991.3" cy="49.4" rx="2.1" ry="2.1"/>
	<ellipse transform="matrix(1 -4.811605e-03 4.811605e-03 1 -0.2051 4.7434)" class="st0" cx="985.7" cy="45" rx="2.1" ry="2.1"/>
	<ellipse transform="matrix(1 -4.811605e-03 4.811605e-03 1 -0.2499 4.7161)" class="st0" cx="980" cy="54.3" rx="2.1" ry="2.1"/>
	<ellipse transform="matrix(1 -4.811605e-03 4.811605e-03 1 -0.2163 4.7068)" class="st0" cx="978.1" cy="47.3" rx="2.1" ry="2.1"/>
	<ellipse transform="matrix(1 -4.811605e-03 4.811605e-03 1 -0.2399 4.6722)" class="st0" cx="970.9" cy="52.2" rx="2.1" ry="2.1"/>
	<ellipse transform="matrix(1 -4.811605e-03 4.811605e-03 1 -0.2828 4.834)" class="st0" cx="1004.5" cy="61.2" rx="2.1" ry="2.1"/>
	<ellipse transform="matrix(1 -4.811605e-03 4.811605e-03 1 -0.24 4.6357)" class="st0" cx="963.3" cy="52.2" rx="2.1" ry="2.1"/>
	<ellipse transform="matrix(1 -4.811605e-03 4.811605e-03 1 -0.3257 4.824)" class="st0" cx="1002.4" cy="70.1" rx="2.1" ry="2.1"/>
	<ellipse transform="matrix(1 -4.811605e-03 4.811605e-03 1 -0.1529 3.8334)" class="st0" cx="796.6" cy="33.7" rx="2.1" ry="2.1"/>
	<ellipse transform="matrix(1 -4.811605e-03 4.811605e-03 1 -0.1732 3.8017)" class="st0" cx="790" cy="37.9" rx="2.1" ry="2.1"/>
	<ellipse transform="matrix(1 -4.811605e-03 4.811605e-03 1 -0.1964 3.7671)" class="st0" cx="782.8" cy="42.7" rx="2.1" ry="2.1"/>
	<ellipse transform="matrix(1 -4.811605e-03 4.811605e-03 1 -0.2039 3.8335)" class="st0" cx="796.6" cy="44.3" rx="2.1" ry="2.1"/>
	<ellipse transform="matrix(1 -4.811605e-03 4.811605e-03 1 -0.2076 3.6954)" class="st0" cx="767.9" cy="45" rx="2.1" ry="2.1"/>
	<ellipse transform="matrix(1 -4.811605e-03 4.811605e-03 1 -0.2793 3.7062)" class="st0" cx="770.1" cy="59.9" rx="2.1" ry="2.1"/>
	<ellipse transform="matrix(1 -4.811605e-03 4.811605e-03 1 -0.2895 3.6638)" class="st0" cx="761.3" cy="62" rx="2.1" ry="2.1"/>
	<ellipse transform="matrix(1 -4.811605e-03 4.811605e-03 1 -0.2491 3.6738)" class="st0" cx="763.4" cy="53.6" rx="2.1" ry="2.1"/>
	<ellipse transform="matrix(1 -4.811605e-03 4.811605e-03 1 -0.2276 3.8018)" class="st0" cx="790" cy="49.2" rx="2.1" ry="2.1"/>
	<ellipse transform="matrix(1 -4.811605e-03 4.811605e-03 1 -0.2378 3.7585)" class="st0" cx="781" cy="51.3" rx="2.1" ry="2.1"/>
	<ellipse transform="matrix(1 -4.811605e-03 4.811605e-03 1 -0.2269 3.8754)" class="st0" cx="805.3" cy="49.1" rx="2.1" ry="2.1"/>
	<ellipse transform="matrix(1 -4.811605e-03 4.811605e-03 1 -0.2506 3.8442)" class="st0" cx="798.8" cy="54" rx="2.1" ry="2.1"/>
	<ellipse transform="matrix(1 -4.811605e-03 4.811605e-03 1 -0.268 3.8024)" class="st0" cx="790.1" cy="57.6" rx="2.1" ry="2.1"/>
	<ellipse transform="matrix(1 -4.811605e-03 4.811605e-03 1 -0.2806 3.7576)" class="st0" cx="780.8" cy="60.2" rx="2.1" ry="2.1"/>
	<ellipse transform="matrix(1 -4.811605e-03 4.811605e-03 1 -0.3172 3.737)" class="st0" cx="776.5" cy="67.8" rx="2.1" ry="2.1"/>
	<ellipse transform="matrix(1 -4.811605e-03 4.811605e-03 1 -0.3103 3.813)" class="st0" cx="792.3" cy="66.4" rx="2.1" ry="2.1"/>
	<ellipse transform="matrix(1 -4.811605e-03 4.811605e-03 1 -0.334 3.7698)" class="st0" cx="783.3" cy="71.3" rx="2.1" ry="2.1"/>
	<ellipse transform="matrix(1 -4.811605e-03 4.811605e-03 1 -0.2154 3.6531)" class="st0" cx="759.1" cy="46.6" rx="2.1" ry="2.1"/>
	<ellipse transform="matrix(1 -4.811605e-03 4.811605e-03 1 -0.2497 3.6113)" class="st0" cx="750.4" cy="53.7" rx="2.1" ry="2.1"/>
	<ellipse transform="matrix(1 -4.811605e-03 4.811605e-03 1 -0.1586 2.8864)" class="st0" cx="599.8" cy="34.4" rx="2.1" ry="2.1"/>
	<ellipse transform="matrix(1 -4.811605e-03 4.811605e-03 1 -0.1909 2.8533)" class="st0" cx="592.9" cy="41.1" rx="2.1" ry="2.1"/>
	<ellipse transform="matrix(1 -4.811605e-03 4.811605e-03 1 -0.1493 2.7478)" class="st0" cx="571" cy="32.4" rx="2.1" ry="2.1"/>
	<ellipse transform="matrix(1 -4.811605e-03 4.811605e-03 1 -0.1809 2.8013)" class="st0" cx="582.1" cy="39" rx="2.1" ry="2.1"/>
	<ellipse transform="matrix(1 -4.811605e-03 4.811605e-03 1 -0.1907 2.9183)" class="st0" cx="606.4" cy="41.1" rx="2.1" ry="2.1"/>
	<ellipse transform="matrix(1 -4.811605e-03 4.811605e-03 1 -0.2226 2.8866)" class="st0" cx="599.8" cy="47.7" rx="2.1" ry="2.1"/>
	<ellipse transform="matrix(1 -4.811605e-03 4.811605e-03 1 -0.276 2.8973)" class="st0" cx="602" cy="58.8" rx="2.1" ry="2.1"/>
	<ellipse transform="matrix(1 -4.811605e-03 4.811605e-03 1 -0.266 2.854)" class="st0" cx="593" cy="56.7" rx="2.1" ry="2.1"/>
	<ellipse transform="matrix(1 -4.811605e-03 4.811605e-03 1 -0.2198 2.8332)" class="st0" cx="588.7" cy="47.1" rx="2.1" ry="2.1"/>
	<ellipse transform="matrix(1 -4.811605e-03 4.811605e-03 1 -0.2233 2.7807)" class="st0" cx="577.8" cy="47.8" rx="2.1" ry="2.1"/>
	<ellipse transform="matrix(1 -4.811605e-03 4.811605e-03 1 -0.2133 2.7379)" class="st0" cx="568.9" cy="45.7" rx="2.1" ry="2.1"/>
	<ellipse transform="matrix(1 -4.811605e-03 4.811605e-03 1 -0.1806 2.7157)" class="st0" cx="564.3" cy="38.9" rx="2.1" ry="2.1"/>
	<ellipse transform="matrix(1 -4.811605e-03 4.811605e-03 1 -0.1491 2.8219)" class="st0" cx="586.4" cy="32.4" rx="2.1" ry="2.1"/>
	<ellipse transform="matrix(1 -4.811605e-03 4.811605e-03 1 -0.2767 2.802)" class="st0" cx="582.2" cy="58.9" rx="2.1" ry="2.1"/>
	<ellipse transform="matrix(1 -4.811605e-03 4.811605e-03 1 -0.2667 2.7491)" class="st0" cx="571.2" cy="56.8" rx="2.1" ry="2.1"/>
	<ellipse transform="matrix(1 -4.811605e-03 4.811605e-03 1 -0.224 2.6951)" class="st0" cx="560" cy="47.9" rx="2.1" ry="2.1"/>
	<ellipse transform="matrix(1 -4.811605e-03 4.811605e-03 1 -0.261 2.7062)" class="st0" cx="562.3" cy="55.6" rx="2.1" ry="2.1"/>
	<ellipse transform="matrix(1 -4.811605e-03 4.811605e-03 1 -0.3179 2.8767)" class="st0" cx="597.7" cy="67.5" rx="2.1" ry="2.1"/>
	<ellipse transform="matrix(1 -4.811605e-03 4.811605e-03 1 -0.3083 2.8339)" class="st0" cx="588.8" cy="65.5" rx="2.1" ry="2.1"/>
	<ellipse transform="matrix(1 -4.811605e-03 4.811605e-03 1 -0.3085 2.7814)" class="st0" cx="577.9" cy="65.5" rx="2.1" ry="2.1"/>
	<ellipse transform="matrix(1 -4.811605e-03 4.811605e-03 1 -0.3086 2.7386)" class="st0" cx="569" cy="65.5" rx="2.1" ry="2.1"/>
	<ellipse transform="matrix(1 -4.811605e-03 4.811605e-03 1 -0.3392 2.8022)" class="st0" cx="582.2" cy="71.9" rx="2.1" ry="2.1"/>
	<ellipse transform="matrix(1 -4.811605e-03 4.811605e-03 1 -0.3393 2.7594)" class="st0" cx="573.3" cy="71.9" rx="2.1" ry="2.1"/>
	<ellipse transform="matrix(1 -4.811605e-03 4.811605e-03 1 -0.1262 1.9591)" class="st0" cx="407.1" cy="27.2" rx="2.1" ry="2.1"/>
	<ellipse transform="matrix(1 -4.811605e-03 4.811605e-03 1 -0.1686 1.939)" class="st0" cx="402.9" cy="36" rx="2.1" ry="2.1"/>
	<ellipse transform="matrix(1 -4.811605e-03 4.811605e-03 1 -0.1268 1.9077)" class="st0" cx="396.4" cy="27.3" rx="2.1" ry="2.1"/>
	<ellipse transform="matrix(1 -4.811605e-03 4.811605e-03 1 -0.2523 1.9354)" class="st0" cx="402.1" cy="53.4" rx="3.4" ry="3.4"/>
	<ellipse transform="matrix(1 -4.811605e-03 4.811605e-03 1 -0.2013 1.9083)" class="st0" cx="396.5" cy="42.8" rx="2.1" ry="2.1"/>
	<ellipse transform="matrix(1 -4.811605e-03 4.811605e-03 1 -0.1692 1.8765)" class="st0" cx="389.9" cy="36.1" rx="2.1" ry="2.1"/>
	<ellipse transform="matrix(1 -4.811605e-03 4.811605e-03 1 -0.137 1.8418)" class="st0" cx="382.7" cy="29.4" rx="2.1" ry="2.1"/>
	<ellipse transform="matrix(1 -4.811605e-03 4.811605e-03 1 -0.1174 1.8128)" class="st0" cx="376.7" cy="25.3" rx="2.1" ry="2.1"/>
	<ellipse transform="matrix(1 -4.811605e-03 4.811605e-03 1 -0.1276 1.7575)" class="st0" cx="365.2" cy="27.4" rx="2.1" ry="2.1"/>
	<ellipse transform="matrix(1 -4.811605e-03 4.811605e-03 1 -0.1598 1.7822)" class="st0" cx="370.3" cy="34.1" rx="2.1" ry="2.1"/>
	<ellipse transform="matrix(1 -4.811605e-03 4.811605e-03 1 -0.1799 1.8236)" class="st0" cx="378.9" cy="38.3" rx="2.1" ry="2.1"/>
	<ellipse transform="matrix(1 -4.811605e-03 4.811605e-03 1 -0.2222 1.8559)" class="st0" cx="385.6" cy="47.1" rx="2.1" ry="2.1"/>
	<ellipse transform="matrix(1 -4.811605e-03 4.811605e-03 1 -0.2567 1.8897)" class="st0" cx="392.6" cy="54.3" rx="2.7" ry="2.7"/>
	<ellipse transform="matrix(1 -4.811605e-03 4.811605e-03 1 -0.2909 1.9047)" class="st0" cx="395.7" cy="61.4" rx="3.4" ry="3.4"/>
	<ellipse transform="matrix(1 -4.811605e-03 4.811605e-03 1 -0.3269 1.9298)" class="st0" cx="400.9" cy="68.9" rx="2.1" ry="2.1"/>
	<ellipse transform="matrix(1 -4.811605e-03 4.811605e-03 1 -0.1705 1.7273)" class="st0" cx="358.9" cy="36.3" rx="2.1" ry="2.1"/>
	
		<ellipse transform="matrix(0.9973 -7.287516e-02 7.287516e-02 0.9973 -2.1488 27.0989)" class="st0" cx="370.3" cy="43" rx="2.1" ry="2.1"/>
	<ellipse transform="matrix(1 -4.811605e-03 4.811605e-03 1 -0.2123 1.7375)" class="st0" cx="361" cy="45" rx="2.1" ry="2.1"/>
	<ellipse transform="matrix(1 -4.811605e-03 4.811605e-03 1 -0.243 1.8136)" class="st0" cx="376.8" cy="51.4" rx="2.1" ry="2.1"/>
	<ellipse transform="matrix(1 -4.811605e-03 4.811605e-03 1 -0.2872 1.8431)" class="st0" cx="382.9" cy="60.6" rx="2.1" ry="2.1"/>
	<ellipse transform="matrix(1 -4.811605e-03 4.811605e-03 1 -0.3213 1.8672)" class="st0" cx="387.9" cy="67.7" rx="2.1" ry="2.1"/>
	<ellipse transform="matrix(1 -4.811605e-03 4.811605e-03 1 -0.2652 1.7694)" class="st0" cx="367.6" cy="56" rx="2.1" ry="2.1"/>
	<ellipse transform="matrix(1 -4.811605e-03 4.811605e-03 1 -0.2658 1.728)" class="st0" cx="359" cy="56.1" rx="2.1" ry="2.1"/>
	<ellipse transform="matrix(1 -4.811605e-03 4.811605e-03 1 -0.2978 1.8037)" class="st0" cx="374.7" cy="62.8" rx="2.1" ry="2.1"/>
	<ellipse transform="matrix(1 -4.811605e-03 4.811605e-03 1 -0.3382 1.8244)" class="st0" cx="379" cy="71.2" rx="2.1" ry="2.1"/>
	<ellipse transform="matrix(1 -4.811605e-03 4.811605e-03 1 -0.3277 1.7729)" class="st0" cx="368.3" cy="69" rx="2.1" ry="2.1"/>
	<ellipse transform="matrix(1 -4.811605e-03 4.811605e-03 1 -0.298 1.7382)" class="st0" cx="361.1" cy="62.8" rx="2.1" ry="2.1"/>
	<ellipse transform="matrix(1 -4.811605e-03 4.811605e-03 1 -0.2946 1.9504)" class="st0" cx="405.2" cy="62.2" rx="2.1" ry="2.1"/>
	<ellipse transform="matrix(1 -4.811605e-03 4.811605e-03 1 -0.2661 1.9917)" class="st0" cx="413.8" cy="56.3" rx="3.7" ry="3.7"/>
	<ellipse transform="matrix(1 -4.811605e-03 4.811605e-03 1 -0.2007 1.9834)" class="st0" cx="412.1" cy="42.7" rx="2.1" ry="2.1"/>
	<ellipse transform="matrix(1 -4.811605e-03 4.811605e-03 1 -0.2364 1.3238)" class="st0" cx="275" cy="49.8" rx="2.1" ry="2.1"/>
	<ellipse transform="matrix(1 -4.811605e-03 4.811605e-03 1 -0.1956 1.3102)" class="st0" cx="272.2" cy="41.3" rx="2.1" ry="2.1"/>
	<ellipse transform="matrix(1 -4.811605e-03 4.811605e-03 1 -0.1547 1.3096)" class="st0" cx="272.1" cy="32.8" rx="2.1" ry="2.1"/>
	<ellipse transform="matrix(1 -4.811605e-03 4.811605e-03 1 -0.1695 1.3544)" class="st0" cx="281.4" cy="35.9" rx="2.1" ry="2.1"/>
	<ellipse transform="matrix(1 -4.811605e-03 4.811605e-03 1 -0.2793 1.2907)" class="st0" cx="268.1" cy="58.7" rx="2.1" ry="2.1"/>
	<ellipse transform="matrix(1 -4.811605e-03 4.811605e-03 1 -0.2264 1.2795)" class="st0" cx="265.8" cy="47.7" rx="2.1" ry="2.1"/>
	<ellipse transform="matrix(1 -4.811605e-03 4.811605e-03 1 -0.1735 1.2693)" class="st0" cx="263.7" cy="36.7" rx="2.1" ry="2.1"/>
	<ellipse transform="matrix(1 -4.811605e-03 4.811605e-03 1 -0.1554 1.2163)" class="st0" cx="252.7" cy="32.9" rx="2.1" ry="2.1"/>
	<ellipse transform="matrix(1 -4.811605e-03 4.811605e-03 1 -0.1915 1.2169)" class="st0" cx="252.8" cy="40.4" rx="2.1" ry="2.1"/>
	<ellipse transform="matrix(1 -4.811605e-03 4.811605e-03 1 -0.2693 1.2493)" class="st0" cx="259.5" cy="56.6" rx="2.1" ry="2.1"/>
	<ellipse transform="matrix(1 -4.811605e-03 4.811605e-03 1 -0.2333 1.217)" class="st0" cx="252.8" cy="49.1" rx="2.1" ry="2.1"/>
	
		<ellipse transform="matrix(4.582981e-02 -0.9989 0.9989 4.582981e-02 180.3678 310.854)" class="st0" cx="252.9" cy="61" rx="2.1" ry="2.1"/>
	<ellipse transform="matrix(1 -4.811605e-03 4.811605e-03 1 -0.1425 1.1628)" class="st0" cx="241.6" cy="30.2" rx="2.1" ry="2.1"/>
	<ellipse transform="matrix(1 -4.811605e-03 4.811605e-03 1 -0.1277 1.1185)" class="st0" cx="232.4" cy="27.1" rx="2.1" ry="2.1"/>
	<ellipse transform="matrix(1 -4.811605e-03 4.811605e-03 1 -0.1743 1.1393)" class="st0" cx="236.7" cy="36.8" rx="2.1" ry="2.1"/>
	<ellipse transform="matrix(1 -4.811605e-03 4.811605e-03 1 -0.207 1.1736)" class="st0" cx="243.8" cy="43.6" rx="2.1" ry="2.1"/>
	<ellipse transform="matrix(1 -4.811605e-03 4.811605e-03 1 -0.2493 1.1737)" class="st0" cx="243.8" cy="52.4" rx="2.1" ry="2.1"/>
	<ellipse transform="matrix(1 -4.811605e-03 4.811605e-03 1 -0.2907 1.1536)" class="st0" cx="239.6" cy="61" rx="2.1" ry="2.1"/>
	<ellipse transform="matrix(1 -4.811605e-03 4.811605e-03 1 -0.3014 1.1012)" class="st0" cx="228.7" cy="63.2" rx="2.1" ry="2.1"/>
	<ellipse transform="matrix(1 -4.811605e-03 4.811605e-03 1 -0.335 1.1436)" class="st0" cx="237.5" cy="70.2" rx="2.1" ry="2.1"/>
	<ellipse transform="matrix(1 -4.811605e-03 4.811605e-03 1 -0.2605 1.1294)" class="st0" cx="234.6" cy="54.7" rx="2.1" ry="2.1"/>
	<ellipse transform="matrix(1 -4.811605e-03 4.811605e-03 1 -0.2076 1.1106)" class="st0" cx="230.7" cy="43.7" rx="2.1" ry="2.1"/>
	
		<ellipse transform="matrix(1 -4.811605e-03 4.811605e-03 1 -9.941967e-02 1.0757)" class="st0" cx="223.5" cy="21.2" rx="2.1" ry="2.1"/>
	<ellipse transform="matrix(1 -4.811605e-03 4.811605e-03 1 -0.1716 1.0609)" class="st0" cx="220.4" cy="36.2" rx="3.2" ry="3.2"/>
	<ellipse transform="matrix(1 -4.811605e-03 4.811605e-03 1 -0.25 1.0765)" class="st0" cx="223.6" cy="52.5" rx="2.1" ry="2.1"/>
	<ellipse transform="matrix(1 -4.811605e-03 4.811605e-03 1 -0.1318 1.031)" class="st0" cx="214.2" cy="27.9" rx="3.1" ry="3.1"/>
	<ellipse transform="matrix(1 -4.811605e-03 4.811605e-03 1 -0.1401 0.9786)" class="st0" cx="203.3" cy="29.6" rx="3.5" ry="3.5"/>
	<ellipse transform="matrix(1 -4.811605e-03 4.811605e-03 1 -0.1886 1.0095)" class="st0" cx="209.7" cy="39.7" rx="3.3" ry="3.3"/>
	<ellipse transform="matrix(1 -4.811605e-03 4.811605e-03 1 -0.3487 1.0474)" class="st0" cx="217.5" cy="73" rx="2.1" ry="2.1"/>
	<ellipse transform="matrix(1 -4.811605e-03 4.811605e-03 1 -0.2977 1.0396)" class="st0" cx="215.9" cy="62.4" rx="2.1" ry="2.1"/>
	<ellipse transform="matrix(0.3246 -0.9458 0.9458 0.3246 93.6672 232.9301)" class="st0" cx="209.9" cy="50.9" rx="3.3" ry="3.3"/>
	<ellipse transform="matrix(1 -4.811605e-03 4.811605e-03 1 -0.3262 1.0045)" class="st0" cx="208.6" cy="68.3" rx="2.1" ry="2.1"/>
	<ellipse transform="matrix(1 -4.811605e-03 4.811605e-03 1 -0.3365 0.9492)" class="st0" cx="197.1" cy="70.4" rx="2.1" ry="2.1"/>
	<ellipse transform="matrix(1 -4.811605e-03 4.811605e-03 1 -0.313 0.9063)" class="st0" cx="188.2" cy="65.5" rx="2.1" ry="2.1"/>
	<ellipse transform="matrix(1 -4.811605e-03 4.811605e-03 1 -0.22 0.9672)" class="st0" cx="200.9" cy="46.2" rx="3.2" ry="3.2"/>
	<ellipse transform="matrix(1 -4.811605e-03 4.811605e-03 1 -0.26 0.9177)" class="st0" cx="190.6" cy="54.5" rx="2.1" ry="2.1"/>
	<ellipse transform="matrix(1 -4.811605e-03 4.811605e-03 1 -0.1796 0.9435)" class="st0" cx="196" cy="37.8" rx="3.2" ry="3.2"/>
	<ellipse transform="matrix(1 -4.811605e-03 4.811605e-03 1 -0.134 0.9068)" class="st0" cx="188.4" cy="28.3" rx="2.1" ry="2.1"/>
	<ellipse transform="matrix(1 -4.811605e-03 4.811605e-03 1 -0.2086 0.8873)" class="st0" cx="184.3" cy="43.8" rx="2.1" ry="2.1"/>
	<ellipse transform="matrix(1 -4.811605e-03 4.811605e-03 1 -0.2759 0.3216)" class="st0" cx="66.7" cy="57.5" rx="2.1" ry="2.1"/>
	<ellipse transform="matrix(1 -4.811605e-03 4.811605e-03 1 -0.1498 0.3203)" class="st0" cx="66.5" cy="31.3" rx="2.1" ry="2.1"/>
	<ellipse transform="matrix(1 -4.811605e-03 4.811605e-03 1 -0.1285 0.3747)" class="st0" cx="77.8" cy="26.9" rx="2.1" ry="2.1"/>
	<ellipse transform="matrix(1 -4.811605e-03 4.811605e-03 1 -0.1154 0.4381)" class="st0" cx="91" cy="24.2" rx="2.1" ry="2.1"/>
	<ellipse transform="matrix(1 -4.811605e-03 4.811605e-03 1 -0.2335 0.3412)" class="st0" cx="70.8" cy="48.7" rx="2.1" ry="2.1"/>
	<ellipse transform="matrix(1 -4.811605e-03 4.811605e-03 1 -0.1805 0.3546)" class="st0" cx="73.6" cy="37.7" rx="2.1" ry="2.1"/>
	<ellipse transform="matrix(1 -4.811605e-03 4.811605e-03 1 -0.1359 0.5017)" class="st0" cx="104.2" cy="28.5" rx="2.1" ry="2.1"/>
	<ellipse transform="matrix(1 -4.811605e-03 4.811605e-03 1 -0.1052 0.4809)" class="st0" cx="99.9" cy="22.1" rx="2.1" ry="2.1"/>
	<ellipse transform="matrix(1 -4.811605e-03 4.811605e-03 1 -0.1593 0.4055)" class="st0" cx="84.2" cy="33.3" rx="2.1" ry="2.1"/>
	<ellipse transform="matrix(1 -4.811605e-03 4.811605e-03 1 -0.1586 0.4609)" class="st0" cx="95.7" cy="33.2" rx="2.1" ry="2.1"/>
	<ellipse transform="matrix(1 -4.811605e-03 4.811605e-03 1 -0.1943 0.4451)" class="st0" cx="92.4" cy="40.6" rx="2.9" ry="2.9"/>
	<ellipse transform="matrix(1 -4.811605e-03 4.811605e-03 1 -0.2185 0.3989)" class="st0" cx="82.8" cy="45.6" rx="3.2" ry="3.2"/>
	<ellipse transform="matrix(1 -4.811605e-03 4.811605e-03 1 -0.2705 0.3808)" class="st0" cx="79" cy="56.4" rx="3.2" ry="3.2"/>
	<ellipse transform="matrix(1 -4.811605e-03 4.811605e-03 1 -0.3186 0.3761)" class="st0" cx="78" cy="66.4" rx="2.1" ry="2.1"/>
	<ellipse transform="matrix(1 -4.811605e-03 4.811605e-03 1 -0.2704 0.4246)" class="st0" cx="88.1" cy="56.4" rx="3.2" ry="3.2"/>
	<ellipse transform="matrix(1 -4.811605e-03 4.811605e-03 1 -0.3185 0.4295)" class="st0" cx="89.1" cy="66.4" rx="2.1" ry="2.1"/>
	<ellipse transform="matrix(1 -4.811605e-03 4.811605e-03 1 -0.238 0.4543)" class="st0" cx="94.3" cy="49.7" rx="3.2" ry="3.2"/>
	<ellipse transform="matrix(1 -4.811605e-03 4.811605e-03 1 -0.2847 0.4722)" class="st0" cx="98" cy="59.4" rx="2.1" ry="2.1"/>
	<ellipse transform="matrix(1 -4.811605e-03 4.811605e-03 1 -0.328 0.4824)" class="st0" cx="100.1" cy="68.4" rx="2.1" ry="2.1"/>
	<ellipse transform="matrix(1 -4.811605e-03 4.811605e-03 1 -0.1686 0.5258)" class="st0" cx="109.2" cy="35.3" rx="2.1" ry="2.1"/>
	<ellipse transform="matrix(1 -4.811605e-03 4.811605e-03 1 -0.2124 0.5024)" class="st0" cx="104.3" cy="44.4" rx="2.1" ry="2.1"/>
	<ellipse transform="matrix(1 -4.811605e-03 4.811605e-03 1 -0.2533 0.5025)" class="st0" cx="104.3" cy="52.9" rx="2.1" ry="2.1"/>
	<ellipse transform="matrix(1 -4.811605e-03 4.811605e-03 1 -0.2971 0.5237)" class="st0" cx="108.7" cy="62" rx="2.1" ry="2.1"/>
	<ellipse transform="matrix(1 -4.811605e-03 4.811605e-03 1 -0.2426 0.5462)" class="st0" cx="113.4" cy="50.7" rx="2.1" ry="2.1"/>
	<ellipse transform="matrix(1 -4.811605e-03 4.811605e-03 1 -0.1998 0.5567)" class="st0" cx="115.6" cy="41.8" rx="2.1" ry="2.1"/>
	<ellipse transform="matrix(1 -4.811605e-03 4.811605e-03 1 -0.168 0.5768)" class="st0" cx="119.8" cy="35.2" rx="2.1" ry="2.1"/>
	<ellipse transform="matrix(1 -4.811605e-03 4.811605e-03 1 -0.1997 0.5976)" class="st0" cx="124.1" cy="41.8" rx="2.1" ry="2.1"/>
	<ellipse transform="matrix(1 -4.811605e-03 4.811605e-03 1 -0.2526 0.6184)" class="st0" cx="128.4" cy="52.8" rx="2.1" ry="2.1"/>
	<ellipse transform="matrix(1 -4.811605e-03 4.811605e-03 1 -0.2111 0.6385)" class="st0" cx="132.6" cy="44.2" rx="2.1" ry="2.1"/>
	<ellipse transform="matrix(1 -4.811605e-03 4.811605e-03 1 -0.177 0.8328)" class="st0" cx="173" cy="37.2" rx="2.1" ry="2.1"/>
	<ellipse transform="matrix(1 -4.811605e-03 4.811605e-03 1 -0.1564 0.7996)" class="st0" cx="166.1" cy="32.9" rx="2.1" ry="2.1"/>
	<ellipse transform="matrix(1 -4.811605e-03 4.811605e-03 1 -0.2417 3.7162)" class="st0" cx="772.2" cy="52.1" rx="2.1" ry="2.1"/>
	<ellipse transform="matrix(1 -4.811605e-03 4.811605e-03 1 -0.3279 3.6962)" class="st0" cx="768" cy="70" rx="2.1" ry="2.1"/>
	<ellipse transform="matrix(1 -4.811605e-03 4.811605e-03 1 -0.2925 3.622)" class="st0" cx="752.6" cy="62.6" rx="2.1" ry="2.1"/>
	<ellipse transform="matrix(1 -4.811605e-03 4.811605e-03 1 -0.2578 3.6431)" class="st0" cx="757" cy="55.4" rx="2.1" ry="2.1"/>
	<ellipse transform="matrix(1 -4.811605e-03 4.811605e-03 1 -0.1692 3.869)" class="st0" cx="804" cy="37.1" rx="2.1" ry="2.1"/>
	<ellipse transform="matrix(1 -4.811605e-03 4.811605e-03 1 -0.1956 3.9018)" class="st0" cx="810.8" cy="42.6" rx="2.1" ry="2.1"/>
	<ellipse transform="matrix(1 -4.811605e-03 4.811605e-03 1 -0.2815 0.9731)" class="st0" cx="202.1" cy="59" rx="2.1" ry="2.1"/>
	<path class="st0" d="M61.7,32.4c-10.7-3.2-21.4-6.6-32-9.8c-1.4-0.2-5.1-0.6-8.9,1.5c-6.8,3.7-7.2,11.8-7.2,12.3
		c-0.2,6,3.4,11.7,9.1,14.5c5.5-0.9,11.4-1.9,17.5-2.6c6.5-0.7,12.7-1.3,18.6-1.6c0.8-1.5,1.7-3.6,2.3-6
		C61.8,37.3,61.9,34.4,61.7,32.4z M53.4,42.2c-6.9,0-13.8,0.1-20.7,0.1c-4.7-0.5-7.8-3.1-7.9-5.5c0-1.6,1.3-3.2,2.5-4
		c2.7-1.7,5.5-0.4,12.3,1.5c10.4,2.9,15.1,3.3,15.3,5.4C55,40.4,54.8,41.2,53.4,42.2z"/>
	<ellipse transform="matrix(1 -4.811605e-03 4.811605e-03 1 -0.2018 0.3104)" class="st0" cx="64.4" cy="42.1" rx="2.1" ry="2.1"/>
	<path class="st0" d="M16.9,56.8c-0.4,0.6-2.2,3.6-1.3,7.4c0.6,2.5,2,4.1,2.7,4.7c1.7-0.3,3.7-0.9,6-2c4.7-2.3,7.5-5.6,9-7.6
		c-1.5,0.4-14.5,3.7-16.4,0C16.6,58.7,16.5,57.9,16.9,56.8z"/>
	<path class="st0" d="M21.9,72.7c0.3,0.7,1.1,1.9,2.5,2.8c2.6,1.7,5.4,1.1,6.2,0.9c1.5-0.3,4.1-1,5.3-3.3c1.1-2.2,0.5-5.2-1.4-7.4
		c-0.2,0.5-0.7,1.2-1.2,2c0,0-1,1.2-2.5,2.2C27.7,72.1,22.2,72.6,21.9,72.7z"/>
	<g>
		<g>
			<path class="st1" d="M29.9,40.5c7,0.3,14.1,0.6,21.1,0.9c0.8,0,0.8-1.2,0-1.2c-7-0.3-14.1-0.6-21.1-0.9
				C29.1,39.2,29.1,40.5,29.9,40.5L29.9,40.5z"/>
		</g>
	</g>
	<g>
		<g>
			<path class="st5" d="M25.4,54.9c10.6-1.1,21.3-2.1,31.9-3.2c1.6-0.1,1.6-2.6,0-2.5c-10.6,1.1-21.3,2.1-31.9,3.2
				C23.8,52.6,23.8,55.1,25.4,54.9L25.4,54.9z"/>
		</g>
	</g>
	<g>
		<g>
			<path class="st5" d="M24.1,69.4c5.2,1.9,10.5-5.5,12.8-8.9c0.4-0.7-0.6-1.3-1.1-0.6c-1.9,2.9-6.8,9.9-11.4,8.3
				C23.7,67.9,23.4,69.2,24.1,69.4L24.1,69.4z"/>
		</g>
	</g>
	<g>
		<g>
			<path class="st0" d="M1111.6,46.3c-32.7-0.4-65.4-1-98.1-1.4c-1.8,0-2.5-0.3-3.4-0.7c-7.2-3.5-13.2-6.2-21.5-5.7
				c-3.9,0.2-7.8,1-11.5,2.5c-1.9,0.8-4.1,2.7-5.7,3.3c-0.9,0.3-2.5,0-3.4-0.1c-15.6-0.2-31.1-0.5-46.7-0.7c-22-0.3-44-0.7-66-1
				c-8.5-0.2-17.1-0.2-25.6-0.4c-3.9-0.1-9.5,0.8-13.3-0.2c-0.2-0.1-0.6,0.1-0.7,0c1.6,0.9-0.2-1.7-0.6-2.1c-1.4-1.6-2.9-3-4.6-4.3
				c-5.5-4.2-12.2-6.5-19.1-7.5c-8.4-1.2-17.3-0.2-25.2,3c-2.9,1.2-5.6,2.7-8.1,4.6c-1.3,1-2.6,2.1-3.7,3.3c-0.3,0.4-2.4,2.7-0.9,2
				c-1.3,0.6-4.2-0.1-5.5-0.1c-4.2-0.1-8.4-0.2-12.6-0.1c-10.9-0.1-21.7-0.3-32.6-0.4c-11.6-0.1-23.1-0.3-34.7-0.6
				c-10.6-0.3-21.1-0.6-31.7-0.9c-8-0.3-16.5,0.3-24.5-0.7c-0.3,0-1.3,0.1-1.6-0.1c1.3,0.9-0.4-1.9-0.8-2.4
				c-1.4-1.7-3.1-3.2-4.9-4.6c-5.7-4.3-12.6-6.6-19.7-7.2c-8.1-0.7-16.5,1-23.6,5.2c-3.2,1.9-5.3,4.4-8.1,6.7
				c-0.7,0.6,0.9,0.2-0.4,0.6c-1.4,0.4-3.8-0.1-5.2-0.2c-3.2-0.1-6.4-0.2-9.7-0.3c-9.3-0.3-18.6-0.5-27.9-0.8
				c-21.5-0.6-43-1.3-64.5-1.9c-6.8-0.2-13.6-0.4-20.4-0.6c-1,0-3,0.3-3.9-0.1c1.2,0.5-1.3-2.6-2-3.3c-2.5-2.6-5.5-4.8-8.7-6.6
				c-13.7-7.5-31.8-7.3-45.5,0.3c-3.1,1.7-5.9,3.9-8.5,6.4c-1.4,1.4,0.5,0.7-1,1.1c-1.7,0.5-4.3-0.1-6.1-0.2
				c-19.2-0.5-38.4-1.1-57.6-1.6c-10.2-0.3-20.4-0.6-30.6-0.9c-3.5-0.1-7-0.2-10.5-0.3c-1.7-0.1-4.5,0.4-6.1-0.2
				c-1.8-0.7,1,1,0.2-0.5c-1.6-3-3.6-5.7-6.3-7.9c-4.7-3.9-10.3-5.8-16.3-5.8c-8.6-0.2-19.4-1.4-27.6,1.8c-2.9,1.2-5.6,2.8-7.9,5
				c-1.1,1-2.4,2.3-3.2,3.6c-0.2,0.4-1.2,2.4-0.3,1.9c-1.1,0.7-4.5,0-5.8,0c-9.8,0-19.7,0.1-29.5,0.1c-9.6,0-19.2,0.1-28.7,0.1
				c-1.5,0-4.2,0.5-5.6,0c0.3,0.1-2.2-2.9-2.6-3.2c-1.1-0.9-2.3-1.8-3.6-2.6c-3.4-2-7.2-3.5-11-4.2c-14.2-2.8-28.9,3-36.5,15.5
				c1.2,0.3,2.3,0.6,3.5,0.9l0,0c0-0.9-0.6-1.5-1.4-1.8c-9-3.1-18-6.1-27-9.2c-1.2-0.4-2.4,0.7-2.4,1.8c0,0,0,0,0,0.1
				c0.9-0.5,1.9-1.1,2.8-1.6c-8-4.1-17.8-1.4-21.7,7.1C10,36.4,13.9,45.9,22,49.6c0-1.1,0-2.2,0-3.2c-8.1,3.7-11.8,13.4-8.1,21.5
				c3.5,7.7,12.7,11.3,20.3,7.6c9.6-4.5,18.9-10.3,28.2-15.1c0.6-0.3,0.9-1,0.9-1.6l0,0c-1.2,0.3-2.3,0.6-3.5,0.9
				C66.5,71.2,79,77.1,91.8,76c6.6-0.5,12.9-2.8,18.2-6.8c1-0.7,2-1.5,2.9-2.4c0.4-0.3,1.8-2.5,1.5-2.4c0.4-0.2,1.2,0.1,1.6,0
				c6.4-1.1,14,0,20.5,0.1c9.3,0.1,18.6,0.1,27.9,0.2c5.7,0.1,11.4,0,17.1,0.1c-0.6-0.5-1.2-0.9-1.8-1.4c2.3,8,8.1,14.6,16.1,17.3
				c5.6,2,11.8,1.3,17.6,1.3c5.5,0,11.4,0.4,16.7-1.2c8.2-2.5,14.1-9.1,16.6-17.1c-0.6,0.5-1.2,0.9-1.8,1.4
				c29.6,0.2,59.1,0.3,88.7,0.5c6.3,0.1,12.7,0,19,0.1c0.8,0,3-0.4,3.7,0c0.2,0.1,2.2,2.9,3.2,3.7c2.6,2.1,5.5,3.9,8.6,5.3
				c12.5,5.6,27.7,5.6,40.2-0.3c2.8-1.3,5.4-2.9,7.8-4.8c0.9-0.7,3.1-3.4,3.2-3.5c0.7-0.3,2.5,0,3.3,0c33,0.1,65.9,0.4,98.9,0.5
				c7.4,0.1,14.8,0.1,22.2,0.1c2.8,0,8.1-1,10.8,0c0.8,0.3-0.4,0.1,0.6,1.1c2.4,2.3,5,4.2,7.9,5.7c6.2,3.2,13.3,4.6,20.3,4.2
				c7-0.3,14-2.4,19.8-6.4c2.2-1.5,3.6-3.8,5.3-4.3c3.1-1,8.3,0.1,11.4,0c7.3,0.1,14.6,0.1,22,0.1c19.1,0.1,38.1,0.2,57.2,0.3
				c15.7,0.1,31.4,0.1,47,0.3c2.4,0,6.9-0.8,9.1,0.1c-0.2-0.1,1.6,2.2,2.2,2.6c2.6,2.1,5.5,3.8,8.6,5.1c6.9,2.9,14.6,3.9,22,3.3
				c6.7-0.5,13.5-2.4,19.3-5.9c1.1-0.7,2.3-1.4,3.3-2.2c0,0,2.9-2.7,2.1-2.5c0.2-0.1,0.5,0.1,0.6,0c2.9-0.9,7.5,0.1,10.5,0
				c15.9,0.1,31.9,0.1,47.8,0.3c19.4,0.1,38.7,0.2,58.1,0.3c12,0,24.2-0.5,36.2,0.2c0.6,0,1.6-0.2,2.1,0c-0.6-0.3,1.5,2.2,1.8,2.5
				c0.9,0.7,1.9,1.4,2.9,2c3,1.8,6.4,3,9.8,3.7c7,1.5,14.5,0.9,21.1-1.7c2.5-1,4.8-2.2,6.9-3.8c1-0.8,1.8-2.2,2.2-2.3
				c1.1-0.4,3.4,0,4.6,0c3,0,5.9,0.1,8.9,0.1c8.5,0.1,17,0.1,25.5,0.2c17.6,0.1,35.3,0.2,52.9,0.3c3.2,0,6.7,0.4,10,0
				c6.7-0.9,13.5-6.7,11.9-14C1125.5,49.3,1117.6,46.7,1111.6,46.3c-2.4-0.1-2.4,3.6,0,3.8c3.2,0.2,7.2,1.1,9.6,3.4
				c5.5,5.2-0.5,10.8-5.6,12.4c-1.8,0.5-0.8,0.3-2.5,0.3c-1.8,0-3.6,0-5.4-0.1c-16.4-0.1-32.8-0.1-49.2-0.3
				c-14.5-0.1-28.9-0.2-43.4-0.3c-0.7,0-1.8-0.2-2.5,0c-2.1,0.6-3.5,2.8-5.3,4c-3.5,2.3-7.5,3.6-11.5,4.3
				c-8.5,1.3-18.3-0.4-24.7-6.4c-1.4-1.3-1.9-1.8-3.5-2.1c-3.3-0.6-7.1-0.1-10.5,0c-6.5-0.1-13.1,0-19.6-0.1
				c-18.2-0.1-36.4-0.2-54.6-0.3c-16.8-0.1-33.6-0.2-50.4-0.3c-5.1-0.1-10.2-0.1-15.3-0.1c-3.8,0-4.4-0.2-7.6,2.5
				c-12.4,10.7-33.8,11.1-47.3,2.2c-2.4-1.6-4.2-4.5-7-5.1c-1-0.2-2.2,0-3.2,0c-12.9,0-25.7-0.2-38.6-0.2
				c-32.8-0.1-65.7-0.4-98.5-0.5c-2.1,0-5.1-0.6-7.1-0.1c-1.9,0.5-3.1,2.4-4.6,3.6c-3.5,2.8-7.7,4.8-12,6c-8.6,2.2-18.1,1.5-26-2.6
				c-3.2-1.7-5.5-4-8.2-6.2c-0.8-0.6-1-0.8-1.9-1.1c-0.8-0.2-2,0-2.8,0c-5-0.1-10.1-0.1-15.1-0.1c-34-0.2-68-0.4-102-0.6
				c-4.6,0-9.2-0.2-13.8,0c-0.6,0-1.4-0.2-1.9,0c-1.9,0.5-3,2.4-4.5,3.6c-3.4,2.9-7.4,5-11.5,6.6c-7.8,2.8-16.4,3.3-24.5,1.6
				c-8.5-1.8-13.8-5.8-20.3-11.1c-2.3-1.8-5.6-1.2-8.5-1.2c-32.1-0.1-64.3-0.4-96.4-0.5c-2.8,0-5.7-0.1-8.5-0.1
				c-0.9,0-1.6,0.6-1.8,1.4C241,71.2,234,77.5,225,78.2c-3.6,0.3-7.4,0.1-11,0.2c-3.7,0-7.4,0.2-11,0c-9.2-0.7-16.4-7.2-19-15.8
				c-0.2-0.8-1-1.4-1.8-1.4c-17.2-0.1-34.3-0.2-51.5-0.3c-4,0-7.9-0.1-11.9,0c-1.6,0-3.4-0.3-4.9,0.4c-1.2,0.6-2.5,2.7-3.5,3.6
				c-1.9,1.7-4.1,3.1-6.4,4.3c-4.9,2.4-10.4,3.6-15.8,3.3c-10-0.5-19.1-5.5-24.5-14c-1-1.6-3.5-1-3.5,0.9c0-3.2,1.6-1.3,0.2-1.2
				c-0.6,0-1.5,0.8-2,1c-1.8,1-3.7,1.9-5.5,2.9c-4.3,2.2-8.7,4.5-13,6.8c-4.4,2.3-8.7,5.8-13.9,4.8C14,71.2,14.3,55,24.4,50.2
				c1.2-0.6,1.2-2.7,0-3.2c-14.7-6.8-5.3-29.6,9.7-22c1.2,0.6,2.8-0.1,2.8-1.6c0,0,0,0,0-0.1c-0.8,0.6-1.6,1.2-2.4,1.8
				c9,3.1,18,6.1,27,9.2c-0.5-0.6-0.9-1.2-1.4-1.8l0,0c0,1.9,2.5,2.5,3.5,0.9c8.6-13.9,27.6-18.2,41.8-10.2c3.1,1.8,5.8,5.9,9.2,6.7
				c1.6,0.3,3.6,0,5.2,0c16.5-0.1,33-0.2,49.5-0.2c4.9,0,9.7-0.1,14.6-0.1c0.7,0,1.3-0.4,1.6-0.9c6.6-11.5,17.6-11.4,29.1-11.4
				c3.3,0,6.6-0.2,9.9,0.1c8.2,0.6,14.7,5.8,18.2,13.2c0.3,0.6,1,0.9,1.6,0.9c27.3,0.8,54.6,1.5,81.9,2.4c7,0.2,14,0.4,21.1,0.6
				c2.8,0.1,6.8,1,9.5,0.3c1.2-0.3,1.4-0.8,2.4-1.7c2.8-2.6,5.6-5,9-6.8c7.2-3.8,15.7-5.4,23.8-4.8c7.7,0.6,15.3,3,21.5,7.6
				c2.8,2.1,5.1,6.7,8.3,7.6c2.5,0.7,6,0.2,8.5,0.3c6.5,0.2,13,0.3,19.5,0.6c17.6,0.5,35.3,1,52.9,1.5c14.7,0.4,29.3,0.9,44,1.3
				c2.1,0.1,5.4,0.8,7.5,0.3c1.6-0.4,2.1-1.6,3.2-2.8c2.7-2.9,6.1-5.1,9.7-6.7c7.6-3.3,16.5-4,24.5-1.8c3.5,0.9,6.8,2.4,9.8,4.4
				c1.5,1,3,2.2,4.3,3.6c1.2,1.2,2.1,3.4,3.4,4.4c1.2,0.8,2.1,0.8,3.5,0.8c6.5,0.3,12.9,0.3,19.4,0.6c15.3,0.4,30.5,1,45.8,1.3
				c24.7,0.7,49.7,1.6,74.5,1.1c1.6,0,2,0,3.3-0.9c2.7-2,4.5-4.9,7.6-6.8c3.3-2,6.9-3.4,10.6-4.4c7.8-1.9,16.4-1.8,24.1,0.6
				c3.3,1,6.6,2.5,9.5,4.5c1.4,1,2.8,2.1,4,3.3c1.1,1.1,1.9,3.1,3.2,4c1.6,1.2,4,0.8,6,0.8c5.1,0.1,10.2,0.2,15.2,0.2
				c34.1,0.5,68.2,1,102.2,1.5c10.7,0.1,21.3,0.5,32,0.4c0.6,0,1.3,0.2,1.8,0c1.8-0.4,3.2-1.8,4.8-2.6c4-2,8.6-3,13.1-3.2
				c3.9-0.1,7.9,0.4,11.6,1.6c3.1,1.1,6,4,9,4.8c0.8,0.2,1.7,0.1,2.4,0.1c30.2,0.7,60.3,0.9,90.5,1.4c2.9,0.1,5.7,0.1,8.6,0.2
				C1114,50.1,1114,46.4,1111.6,46.3z"/>
		</g>
	</g>
</g>
</svg>
