<?xml version="1.0" encoding="utf-8"?>
<!-- Generator: Adobe Illustrator 21.0.2, SVG Export Plug-In . SVG Version: 6.00 Build 0)  -->
<svg version="1.1" id="Layer_1" xmlns="http://www.w3.org/2000/svg" xmlns:xlink="http://www.w3.org/1999/xlink" x="0px" y="0px"
	 viewBox="0 0 1133.9 114.6" style="enable-background:new 0 0 1133.9 114.6;" xml:space="preserve">
<style type="text/css">
	.st0{fill:#593425;}
	.st1{fill:#444135;}
	.st2{fill:#4F4F49;}
	.st3{fill:#392115;}
	.st4{fill:#947C79;}
	.st5{fill:#9A8580;}
	.st6{fill:#A2A1A1;}
	.st7{fill:#92918F;}
	.st8{fill:#333028;}
	.st9{fill:#32322C;}
	.st10{fill:#1E1E1A;}
	.st11{fill:#5F5E58;}
	.st12{fill:#838F89;}
	.st13{fill:#1D191B;}
</style>
<g>
	<g>
		<path class="st0" d="M1112.4,45.2l-708.5-3c-1.8-3-5-5.1-8.8-5.1c-3.7,0-7,2-8.7,5l-68.8-0.3c-2.9,0-5.8-0.1-8.7-0.1
			c-1.7-7.3-4.7-12.2-8.1-12.2s-6.3,4.8-8.1,12c-6.3-0.1-12.4-0.2-18.5-0.3c-2.1-7.9-5.9-13.2-10.3-13.2c-4.3,0-8,5.1-10.1,12.7
			c-5.2-0.1-10.3-0.3-15.3-0.4c-2.1-8.7-6-14.6-10.3-14.6s-8,5.5-10.2,13.9c-5.1-0.2-10.1-0.4-15-0.6c-2-8.5-5.4-14.1-9.3-14.1
			c-3.8,0-7.1,5.3-9.1,13.3c-5.3-0.2-10.4-0.5-15.5-0.7c-2.2-8.4-5.8-13.9-10-13.9c-4,0-7.5,5.1-9.7,12.9
			c-5.4-0.3-10.7-0.6-15.8-0.9c-2.2-8.1-5.7-13.3-9.6-13.3c-3.7,0-7.1,4.7-9.3,12c-5-0.3-9.8-0.7-14.5-1c-2.2-6.8-5.4-11-8.9-11
			c-3.3,0-6.3,3.7-8.5,9.6c-6.1-0.5-11.8-1-17-1.5c-2.2-7.1-5.3-11.5-8.8-11.5c-3.2,0-6.1,3.7-8.2,9.9c-8.2-0.8-14.5-1.5-18.9-2.1
			c-2-4.9-4.6-7.8-7.4-7.8c-6.7,0-12.1,16.5-12.1,36.9s5.4,36.9,12.1,36.9c2.8,0,5.3-2.9,7.4-7.7c5-0.7,11.4-1.3,19-1.9
			c2.1,6,5,9.6,8.1,9.6c3.3,0,6.4-4.1,8.5-10.8c5.5-0.4,11.4-0.7,17.6-1c2.1,5.3,4.9,8.5,8,8.5c3.2,0,6.2-3.5,8.3-9.3
			c5.1-0.2,10.4-0.5,15.7-0.7c2.2,6.2,5.2,10,8.6,10c3.5,0,6.6-4.1,8.8-10.7c5.8-0.2,11.7-0.4,17.6-0.6c2.2,6.1,5.3,9.9,8.7,9.9
			c3.5,0,6.7-4.1,8.9-10.5c5.9-0.2,11.7-0.4,17.5-0.5c2,5.9,4.9,9.7,8.1,9.7c3.3,0,6.2-3.9,8.2-10.1c5.9-0.2,11.7-0.3,17.4-0.5
			c2.2,6,5.4,9.8,8.9,9.8c3.6,0,6.9-4,9.1-10.2c6.3-0.1,12.3-0.3,18.1-0.4c2.2,5.2,5.3,8.4,8.6,8.4c3.5,0,6.6-3.4,8.8-8.7
			c7.8-0.2,14.8-0.3,20.8-0.4c1.8,5.6,4.4,9.2,7.3,9.2s5.6-3.7,7.4-9.4c6.1-0.1,9.5-0.2,9.5-0.2l794.9-5.9c6.3,0,11.5-5.1,11.5-11.5
			C1123.9,50.3,1118.8,45.2,1112.4,45.2z"/>
	</g>
	<g>
		<path class="st1" d="M434.6,42.5l-30.9-0.1c-1.8-3-5.1-5.1-8.9-5.1s-7,2-8.8,5L316.4,42c-3,0-5.9-0.1-8.8-0.1
			c5.4,17.5-0.8,32.4-0.8,32.4c6.1-0.1,9.6-0.2,9.6-0.2l119.1-0.9l0.6-30.7L434.6,42.5z"/>
	</g>
	<g>
		<path class="st2" d="M308.3,41.8c-1.7-7.3-4.7-12.2-8.1-12.2s-6.3,4.8-8.1,12c-6.3-0.1-12.4-0.2-18.5-0.3
			c-2.1-7.9-5.9-13.2-10.3-13.2c-4.3,0-8,5.1-10.1,12.7c-5.2-0.1-10.3-0.3-15.3-0.4c-2.1-8.7-6-14.6-10.3-14.6s-8,5.5-10.2,13.9
			c-5.1-0.2-10.1-0.4-15-0.6c-2-8.5-5.4-14.1-9.3-14.1c-3.8,0-7.1,5.3-9.1,13.3c-5.3-0.2-10.4-0.5-15.5-0.7
			c-2.2-8.4-5.8-13.9-10-13.9c-4,0-7.5,5.1-9.7,12.9c-5.4-0.3-10.7-0.6-15.8-0.9c-2.2-8.1-5.7-13.3-9.6-13.3c-3.7,0-7.1,4.7-9.3,12
			c-5-0.3-9.8-0.7-14.5-1c-2.2-6.8-5.4-11-8.9-11c-3.3,0-6.3,3.7-8.5,9.6c-6.1-0.5-11.8-1-17-1.5C63,23.4,59.9,19,56.4,19
			c-3.2,0-6.1,3.7-8.2,9.9c-8.2-0.8-14.5-1.5-18.9-2.1c-2-4.9-4.6-7.8-7.4-7.8C15.2,19,9.8,35.5,9.8,55.9s5.4,36.9,12.1,36.9
			c2.8,0,5.3-2.9,7.4-7.7c5-0.7,11.4-1.3,19-1.9c2.1,6,5,9.6,8.1,9.6c3.3,0,6.4-4.1,8.5-10.8c5.5-0.4,11.4-0.7,17.6-1
			c2.1,5.3,4.9,8.5,8,8.5c3.2,0,6.2-3.5,8.3-9.3c5.1-0.2,10.4-0.5,15.7-0.7c2.2,6.2,5.2,10,8.6,10c3.5,0,6.6-4.1,8.8-10.7
			c5.8-0.2,11.7-0.4,17.6-0.6c2.2,6.1,5.3,9.9,8.7,9.9c3.5,0,6.7-4.1,8.9-10.5c5.9-0.2,11.7-0.4,17.5-0.5c2,5.9,4.9,9.7,8.1,9.7
			c3.3,0,6.2-3.9,8.2-10.1c5.9-0.2,11.7-0.3,17.4-0.5c2.2,6,5.4,9.8,8.9,9.8c3.6,0,6.9-4,9.1-10.2c6.3-0.1,12.3-0.3,18.1-0.4
			c2.2,5.2,5.3,8.4,8.6,8.4c3.5,0,6.6-3.4,8.8-8.7c7.8-0.2,14.8-0.3,20.8-0.4c1.8,5.6,4.4,9.2,7.3,9.2s5.6-3.7,7.4-9.4
			C307.5,74.1,315.7,57.6,308.3,41.8z"/>
	</g>
	<g>
		<path class="st3" d="M1112.6,68.9l-677,5c0,0,24.7-13.6,87.5-10.7c0,0,24.4,2.7,29.5-0.4c5.1-3.1,9.2-6.9,14.6-6.9
			c5.4,0,4.2,4.4,7.7,4.8c3.5,0.3,32.9-1.9,39.9,0.3s20,6.3,25,3.9c5.1-2.3,13.6-4.6,20.3-4.9c6.7-0.3,20.6-1.9,30.4-1.3
			c9.8,0.6,36.1-1.3,46.6,0.3s63.4-1.3,83.7,1s79.6-2.2,89.1,1s78.6-2.9,87.8,0C1006.9,63.9,1101.3,56.3,1112.6,68.9z"/>
	</g>
	<g>
		<g>
			<path class="st4" d="M1002.1,54.1c26.6,0,53.2,0,79.8,0c1.6,0,1.6-2.5,0-2.5c-26.6,0-53.2,0-79.8,0
				C1000.5,51.6,1000.5,54.1,1002.1,54.1L1002.1,54.1z"/>
		</g>
	</g>
	<g>
		<g>
			<path class="st5" d="M450.9,52c38.8,0,77.6,0,116.4,0c5.5,0,11,0,16.5,0c1.6,0,1.6-2.5,0-2.5c-38.8,0-77.6,0-116.4,0
				c-5.5,0-11,0-16.5,0C449.3,49.5,449.3,52,450.9,52L450.9,52z"/>
		</g>
	</g>
	<g>
		<g>
			<path class="st6" d="M320.9,49.7c17.7,0,35.3,0,53,0c1.6,0,1.6-2.5,0-2.5c-17.7,0-35.3,0-53,0C319.2,47.2,319.2,49.7,320.9,49.7
				L320.9,49.7z"/>
		</g>
	</g>
	<g>
		<g>
			<path class="st7" d="M399,59.1c7.6,0,15.2,0,22.8,0c1.6,0,1.6-2.5,0-2.5c-7.6,0-15.2,0-22.8,0C397.4,56.6,397.4,59.1,399,59.1
				L399,59.1z"/>
		</g>
	</g>
	<g>
		<g>
			<path class="st8" d="M320.9,67.6c32.6,0,65.3,0,97.9,0c4.6,0,9.3,0,13.9,0c1.6,0,1.6-2.5,0-2.5c-32.6,0-65.3,0-97.9,0
				c-4.6,0-9.3,0-13.9,0C319.2,65.1,319.2,67.6,320.9,67.6L320.9,67.6z"/>
		</g>
	</g>
	<path class="st9" d="M29.3,84.3c-2,4.8-4.6,7.7-7.4,7.7C15.2,92,9.8,75.5,9.8,55.1s5.4-36.9,12.1-36.9c2.8,0,5.4,2.9,7.4,7.8
		c-2.6,5-7.3,15.5-7.2,29.5C22.2,69.1,26.7,79.3,29.3,84.3z"/>
	<path class="st9" d="M65.3,29.6c-2.2-7.1-5.3-11.5-8.8-11.5c-3.2,0-6.1,3.7-8.2,9.9c-2.7,4.8-6.7,13.6-7.1,25.1
		c-0.5,13.5,4.2,23.1,7.2,29.3c4.6,9.4,7.4,9.6,8.1,9.6c3.3,0,6.4-4.1,8.5-10.8c-1.8-2.1-11.1-13.4-9.6-29.5
		C56.7,40,62.9,32.3,65.3,29.6z"/>
	<path class="st9" d="M99.7,32.4c-2.2-6.8-5.4-11-8.9-11c-3.3,0-6.3,3.7-8.5,9.6c-2.5,5.1-5.7,13.4-5.9,23.9c0,2.1,0,13.4,6.3,25.2
		c2.3,4.3,4.6,8.5,8,8.5c3.2,0,6.2-3.5,8.3-9.3c-1.8-2.3-8.4-10.9-8.2-23.7C91.1,43,97.8,34.7,99.7,32.4z"/>
	<path class="st9" d="M133,34.7c-2.2-8.1-5.7-13.3-9.6-13.3c-3.7,0-7.1,4.7-9.3,12c-2.2,4.5-5.3,12.6-5.1,23.1
		c0.2,10.9,3.9,18.5,5.8,22.1c2.6,5.2,5,10,8.6,10c3.5,0,6.6-4.1,8.8-10.7c-1.5-1.6-8.4-9.4-8.4-21.4
		C123.9,44.1,131.5,36.2,133,34.7z"/>
	<path class="st9" d="M168.5,36.7c-2.2-8.4-5.8-13.9-10-13.9c-4,0-7.5,5.1-9.7,12.9c-3.3,8.4-3.9,15.6-3.9,20
		c0,11.1,3.4,18.8,4.8,21.7c2.4,4.9,4.9,9.9,8.7,9.9c3.5,0,6.7-4.1,8.9-10.5c-1.6-2.2-7.1-10.2-6.3-21.5
		C161.7,45.5,166.6,39,168.5,36.7z"/>
	<path class="st9" d="M203.8,38.3c-2-8.5-5.4-14.1-9.3-14.1c-3.8,0-7.1,5.3-9.1,13.3c-1.7,3.9-4,10.3-4,18.4
		c0,9.8,3.3,16.8,5.1,20.3c2.5,5.1,4.7,9.7,8.1,9.7c3.3,0,6.2-3.9,8.2-10.1c-1.3-1.5-7.2-8.3-7-18.7C196,46.3,202.5,39.6,203.8,38.3
		z"/>
	<path class="st9" d="M238.1,74.8c-2.2,6.3-5.5,10.2-9.1,10.2c-3.7,0-6.1-4.6-8.9-9.8c-1.6-2.9-4.9-9.2-5.1-18.3
		c-0.2-8.3,2.2-14.8,3.8-18.2c-0.7-7.9,5-13.9,10.2-13.9c4.4,0,8.2,5.8,10.3,14.6c-1.2,0.9-8,6.4-8.9,16.1
		C229.5,66.8,237.2,74,238.1,74.8z"/>
	<path class="st9" d="M274.2,41.2c1.4-7.6-4.1-13.8-9.4-13.9c-5-0.1-10.6,5.3-10.1,12.7c-1.8,7-2.1,12.8-2,16.8
		c0.1,5.6,0.2,11.5,3.5,17.6c1.8,3.4,4.5,8.4,8.6,8.4c3.5,0,6.6-3.4,8.8-8.7c-0.9-0.9-8.1-8.2-6.8-18.9
		C267.7,47.3,272.8,42.5,274.2,41.2z"/>
	<path class="st9" d="M292.9,73.6c2.6,5.3,4.5,9.2,7.3,9.2c2.9,0,5.6-3.7,7.4-9.4c-1.5-2.5-5.3-9.3-4.9-18.7
		c0.4-7.9,3.6-13.5,5.2-16c-0.2-1.4-0.9-4-3-6.5c-1-1.2-2.7-3.3-4.7-3.3c-3.4,0-6.3,4.8-8.1,12c-1.6,2.9-4,8.4-4,15.5
		C288.1,63.7,290.5,68.8,292.9,73.6z"/>
	<g>
		<g>
			<path class="st10" d="M31,84.4c-6-11.9-11.3-28.2-6.4-41.2c0.6-1.5-1.9-2.2-2.4-0.7c-5.1,13.7,0.4,30.6,6.7,43.1
				C29.6,87.1,31.7,85.9,31,84.4L31,84.4z"/>
		</g>
	</g>
	<g>
		<g>
			<path class="st10" d="M66.5,81.1c-10.9-8.6-10.7-25.8-7.8-37.8c0.4-1.6-2-2.2-2.4-0.7c-3,12.8-3.1,31.1,8.5,40.3
				C66,83.8,67.8,82,66.5,81.1L66.5,81.1z"/>
		</g>
	</g>
	<g>
		<g>
			<path class="st10" d="M100.5,79.2c-7.5-9.6-11.1-23.9-6-35.7c0.6-1.5-1.5-2.7-2.2-1.3c-5.6,12.9-2.1,27.9,6.4,38.7
				C99.7,82.3,101.5,80.5,100.5,79.2L100.5,79.2z"/>
		</g>
	</g>
	<g>
		<g>
			<path class="st10" d="M133.7,77.8c-4.6-5.9-8.1-13.7-8.6-21.3c-0.1-1.6-2.6-1.6-2.5,0c0.6,8.3,4.2,16.5,9.3,23
				C132.9,80.9,134.6,79.1,133.7,77.8L133.7,77.8z"/>
		</g>
	</g>
	<g>
		<g>
			<path class="st10" d="M168.9,76.6c-7.2-8.1-8-20.2-4.7-30c0.5-1.5-1.9-2.2-2.4-0.7c-3.6,10.7-2.5,23.7,5.3,32.4
				C168.2,79.6,170,77.8,168.9,76.6L168.9,76.6z"/>
		</g>
	</g>
	<g>
		<g>
			<path class="st10" d="M202.9,75.9c-5.9-9.5-8.8-22.7-1.7-32.4c1-1.3-1.2-2.5-2.2-1.3c-7.6,10.3-4.7,24.6,1.7,34.9
				C201.6,78.5,203.8,77.3,202.9,75.9L202.9,75.9z"/>
		</g>
	</g>
	<g>
		<g>
			<path class="st10" d="M238.2,75c-4.3-6.8-10-18.4-4.7-25.9c0.9-1.3-1.2-2.6-2.2-1.3c-5.8,8.4,0,20.9,4.7,28.5
				C236.9,77.6,239.1,76.3,238.2,75L238.2,75z"/>
		</g>
	</g>
	<g>
		<g>
			<path class="st10" d="M273.8,74.2c-7.4-10-8.9-23.5,1.3-32.1c1.2-1-0.5-2.8-1.8-1.8c-11,9.3-9.8,24.2-1.7,35.1
				C272.6,76.7,274.7,75.5,273.8,74.2L273.8,74.2z"/>
		</g>
	</g>
	<g>
		<g>
			<path class="st10" d="M309.2,73.5c-6.8-10.3-6.6-23.8-0.2-34.2c0.8-1.4-1.3-2.6-2.2-1.3c-6.8,11.1-7,25.7,0.2,36.7
				C307.9,76.1,310.1,74.9,309.2,73.5L309.2,73.5z"/>
		</g>
	</g>
	<g>
		<g>
			<path class="st11" d="M48,27.8c-6.7,8.1-8.6,19.9-8,30c0.1,1.6,2.6,1.6,2.5,0c-0.5-9.4,1-20.7,7.3-28.2
				C50.8,28.4,49,26.6,48,27.8L48,27.8z"/>
		</g>
	</g>
	<g>
		<g>
			<path class="st11" d="M81.7,31.2c-6.7,9.4-9,22.1-5.8,33.1c0.5,1.5,2.9,0.9,2.4-0.7c-3.1-10.5-0.9-22.3,5.5-31.2
				C84.8,31.1,82.7,29.9,81.7,31.2L81.7,31.2z"/>
		</g>
	</g>
	<g>
		<g>
			<path class="st11" d="M109.4,42.9c-2.9,8-2.9,17.2,0,25.1c0.6,1.5,3,0.8,2.4-0.7c-2.8-7.6-2.7-16.2,0-23.8
				C112.3,42.1,109.9,41.4,109.4,42.9L109.4,42.9z"/>
		</g>
	</g>
	<g>
		<g>
			<path class="st11" d="M148.3,35.8c-4.6,9.9-5.7,21.6-3.2,32.2c0.4,1.6,2.8,0.9,2.4-0.7c-2.4-9.8-1.3-21,3-30.2
				C151.2,35.6,149,34.4,148.3,35.8L148.3,35.8z"/>
		</g>
	</g>
	<g>
		<g>
			<path class="st11" d="M181.2,46c-1,4.5-1,9.2-1.1,13.8c0,1.6,2.5,1.6,2.5,0c0.1-4.3,0.1-8.9,1-13.1C184,45,181.6,44.4,181.2,46
				L181.2,46z"/>
		</g>
	</g>
	<g>
		<g>
			<path class="st11" d="M216.8,39c-2.4,5.6-3.8,11.9-3.1,18c0.2,1.6,2.7,1.6,2.5,0c-0.6-5.6,0.5-11.6,2.8-16.8
				C219.6,38.8,217.5,37.5,216.8,39L216.8,39z"/>
		</g>
	</g>
	<g>
		<g>
			<path class="st11" d="M251.9,48.1c-1.1,6.1-0.9,12.5,0.3,18.6c0.3,1.6,2.7,0.9,2.4-0.7c-1.1-5.6-1.2-11.6-0.3-17.3
				C254.6,47.2,252.2,46.5,251.9,48.1L251.9,48.1z"/>
		</g>
	</g>
	<g>
		<g>
			<path class="st11" d="M291.8,40.7c-5.4,5.8-6.9,14.3-4.4,21.7c0.5,1.5,2.9,0.9,2.4-0.7c-2.2-6.5-1-14.1,3.8-19.2
				C294.7,41.3,292.9,39.5,291.8,40.7L291.8,40.7z"/>
		</g>
	</g>
	<circle class="st12" cx="25.7" cy="36.4" r="3.9"/>
	<circle class="st12" cx="62.3" cy="47.9" r="3.9"/>
	<circle class="st12" cx="109.5" cy="38.7" r="3.9"/>
	<circle class="st12" cx="181.4" cy="43.3" r="3.9"/>
	<circle class="st12" cx="249.5" cy="62.5" r="3.9"/>
	<g>
		<g>
			<path class="st13" d="M1112.4,43.3c-109.1-0.4-218.1-0.9-327.2-1.3c-108.7-0.4-217.4-0.9-326.1-1.3c-15.2-0.1-30.4-0.1-45.6-0.2
				c-2.2,0-6.4,0.7-8.1-0.3c-1.9-1.1-3-3-5.2-3.9c-3.3-1.4-7.5-1.5-10.8-0.1c-2,0.8-2.9,2.3-4.6,3.3c-1.9,1.2-5.7,0.5-8.3,0.5
				c-7.3,0-14.6,0-21.8,0c-15.3,0-30.5,0.1-45.8-0.1c0.6,0.5,1.2,0.9,1.8,1.4c-1.2-4.7-3.6-13.6-9.9-13.6c-6.2,0-8.6,8.7-9.9,13.3
				c0.6-0.5,1.2-0.9,1.8-1.4c-6.2-0.1-12.3-0.2-18.5-0.3c0.6,0.5,1.2,0.9,1.8,1.4c-1.6-5.5-4.7-14-11.6-14.5
				c-7.3-0.5-10.7,8.5-12.4,14c0.6-0.5,1.2-0.9,1.8-1.4c-5.1-0.1-10.2-0.3-15.3-0.4c0.6,0.5,1.2,0.9,1.8,1.4
				c-1.5-5.6-4.5-15.4-11.7-15.9c-7.5-0.5-10.9,9.6-12.5,15.2c0.6-0.5,1.2-0.9,1.8-1.4c-5-0.2-10-0.4-15-0.6
				c0.6,0.5,1.2,0.9,1.8,1.4c-1.3-5.2-3.9-15-10.7-15.4c-7.1-0.5-10,9.5-11.4,14.6c0.6-0.5,1.2-0.9,1.8-1.4
				c-5.2-0.2-10.3-0.5-15.5-0.7c0.6,0.5,1.2,0.9,1.8,1.4c-1.5-5.4-4.4-14.8-11.3-15.3c-7.1-0.5-10.3,8.9-11.9,14.2
				c0.6-0.5,1.2-0.9,1.8-1.4c-5.3-0.3-10.5-0.6-15.8-0.9c0.6,0.5,1.2,0.9,1.8,1.4c-1.5-5.2-4.3-14.2-11-14.6
				c-6.8-0.5-9.9,8.3-11.5,13.4c0.6-0.5,1.2-0.9,1.8-1.4c-4.8-0.3-9.6-0.7-14.5-1c0.6,0.5,1.2,0.9,1.8,1.4
				c-1.6-4.7-4.4-11.9-10.3-12.3c-5.9-0.4-9,6.4-10.8,10.9c0.6-0.5,1.2-0.9,1.8-1.4c-5.7-0.5-11.3-1-17-1.5c0.6,0.5,1.2,0.9,1.8,1.4
				c-1.6-4.7-4.2-12.4-10.1-12.8c-5.9-0.4-8.8,6.7-10.5,11.2c0.6-0.5,1.2-0.9,1.8-1.4c-4.4-0.4-8.8-0.9-13.1-1.4
				c-1.1-0.1-3.7,0.1-4.6-0.5c-0.8-0.6-1.6-3.3-2.3-4.2c-2.5-3.2-6.2-4.9-9.9-2.6c-3.8,2.4-5.7,7.6-7,11.7c-2.5,8-3.3,16.6-3.4,24.9
				c-0.1,8.5,0.6,17.3,2.9,25.5c1.3,4.5,3,10,7,12.9c3.1,2.3,6.6,1.5,9.3-1.1c1.2-1.2,1.7-3.2,2.9-4.3c1.2-1.1,1.9-1.1,3.6-1.3
				c4.9-0.6,9.8-1,14.6-1.4c-0.6-0.5-1.2-0.9-1.8-1.4c1.7,4.4,4.6,11.4,10.4,11c5.7-0.4,8.3-7.6,9.9-12.1c-0.6,0.5-1.2,0.9-1.8,1.4
				c2.9-0.2,5.7-0.4,8.6-0.5c2-0.1,5.9-1.1,7.6-0.1c2.8,1.6,3.3,5.9,6.8,7.4c6.7,2.9,10.8-5.1,12.9-10.1c-0.6,0.5-1.2,0.9-1.8,1.4
				c5.2-0.2,10.5-0.5,15.7-0.7c-0.6-0.5-1.2-0.9-1.8-1.4c1.8,4.6,4.8,11.8,10.9,11.3c5.8-0.4,8.5-7.4,10.2-12
				c-0.6,0.5-1.2,0.9-1.8,1.4c5.9-0.2,11.7-0.4,17.6-0.6c-0.6-0.5-1.2-0.9-1.8-1.4c1.8,4.5,4.7,11.3,10.5,11.3c6,0,9-7.3,10.7-11.9
				c-0.6,0.5-1.2,0.9-1.8,1.4c5.8-0.2,11.7-0.4,17.5-0.5c-0.6-0.5-1.2-0.9-1.8-1.4c1.6,4.3,4.3,11.1,9.9,11.1c5.7,0,8.5-7.1,10-11.5
				c-0.6,0.5-1.2,0.9-1.8,1.4c5.8-0.2,11.6-0.3,17.4-0.5c-0.6-0.5-1.2-0.9-1.8-1.4c1.8,4.6,4.9,11.2,10.7,11.2
				c6,0,9.1-6.9,10.9-11.6c-0.6,0.5-1.2,0.9-1.8,1.4c3.7-0.1,7.5-0.2,11.2-0.3c1.2,0,3.8-0.6,4.9-0.1c1.5,0.7,1.9,2.2,2.8,3.5
				c2.1,2.9,5.2,5.3,8.9,4.7c1.3-0.2,2.4-0.7,3.5-1.5c2.4-1.6,3-4.8,5-6.3c2.2-1.7,6.6-0.9,9.2-1c3.6-0.1,7.1-0.1,10.7-0.2
				c-0.6-0.5-1.2-0.9-1.8-1.4c1.4,4,3.8,10.5,9.1,10.5c5.3,0,7.8-6.7,9.2-10.8c-0.6,0.5-1.2,0.9-1.8,1.4c9.6-0.2,19.3-0.2,28.9-0.3
				c20-0.1,39.9-0.3,59.9-0.4c29.9-0.2,59.8-0.4,89.7-0.7c36.6-0.3,73.2-0.5,109.8-0.8c39.9-0.3,79.8-0.6,119.7-0.9
				c40.1-0.3,80.1-0.6,120.2-0.9c36.5-0.3,72.9-0.5,109.4-0.8c29.7-0.2,59.4-0.4,89.2-0.7c19.6-0.1,39.2-0.3,58.9-0.4
				c8.7-0.1,23.9,2.4,29.6-5.8C1129.7,55.3,1122.8,44,1112.4,43.3c-2.4-0.1-2.4,3.6,0,3.8c12.6,0.8,12.2,18.5-0.3,19.2
				c-0.9,0.1-1.9,0-2.8,0c-4.6,0-9.2,0.1-13.8,0.1c-18.5,0.1-37,0.3-55.5,0.4c-28.5,0.2-57,0.4-85.6,0.6
				c-35.1,0.3-70.3,0.5-105.4,0.8c-38.9,0.3-77.8,0.6-116.7,0.9c-39.4,0.3-78.7,0.6-118.1,0.9c-36.5,0.3-73,0.5-109.5,0.8
				c-30.8,0.2-61.6,0.5-92.4,0.7c-21.7,0.2-43.4,0.3-65.1,0.5c-9.6,0.1-19.3,0.1-28.9,0.2c-3.3,0-6.7,0.1-10,0.2
				c-0.9,0-1.5,0.6-1.8,1.4c-0.7,2.1-2.5,8.1-5.5,8s-4.7-5.5-5.5-7.7c-0.3-0.8-0.9-1.4-1.8-1.4c-6.9,0.1-13.9,0.3-20.8,0.4
				c-0.6,0-1.4,0.3-1.6,0.9c-1.2,2.7-3.4,7.8-7.2,7.8c-3.7,0-5.7-4.7-7-7.4c-0.3-0.6-1-0.9-1.6-0.9c-6,0.1-12.1,0.3-18.1,0.4
				c-0.9,0-1.5,0.6-1.8,1.4c-1.1,2.8-3.3,8.9-7.3,8.9c-3.8,0-6-5.6-7.1-8.4c-0.3-0.8-0.9-1.4-1.8-1.4c-5.8,0.1-11.6,0.3-17.4,0.5
				c-0.9,0-1.5,0.6-1.8,1.4c-0.8,2.3-2.9,8.8-6.4,8.8c-3.4,0-5.4-6-6.3-8.3c-0.3-0.8-0.9-1.4-1.8-1.4c-5.8,0.2-11.7,0.3-17.5,0.5
				c-0.9,0-1.5,0.6-1.8,1.4c-1,2.7-3.3,9.2-7.1,9.2c-3.7,0-5.9-5.9-6.9-8.6c-0.3-0.8-0.9-1.4-1.8-1.4c-5.9,0.2-11.7,0.4-17.6,0.6
				c-0.9,0-1.5,0.6-1.8,1.4c-1,2.7-2.8,8.3-6.1,9c-4.2,0.9-6.5-5.2-7.7-8.3c-0.3-0.8-0.9-1.4-1.8-1.4c-5.2,0.2-10.5,0.5-15.7,0.7
				c-0.9,0-1.5,0.6-1.8,1.4c-1.3,3.1-3.7,9-7.8,7.3c-2.7-1.1-4-4.4-5.1-6.9c-0.2-0.6-1-1-1.6-0.9c-5.9,0.3-11.7,0.7-17.6,1
				c-0.9,0.1-1.5,0.6-1.8,1.4c-1,2.8-2.5,7.9-5.7,8.9c-4,1.3-6.3-4.8-7.4-7.7c-0.3-0.7-0.9-1.4-1.8-1.4c-3.5,0.3-7,0.6-10.5,0.9
				c-2.5,0.3-6.2,0-8.5,1c-3.4,1.5-4.4,10-9.4,6.8c-3.9-2.5-5.3-9.8-6.2-13.8c-1.6-7-2.1-14.2-2-21.4c0.1-7,0.7-14.1,2.4-20.9
				c0.9-3.5,2.5-10.9,6.3-12.6c4.5-2,5.1,4.1,7.3,6.3c0.9,0.9,1.4,0.8,2.8,1.1c5.8,1,11.9,1.3,17.8,1.9c0.9,0.1,1.5-0.7,1.8-1.4
				c1.1-2.9,3.5-9.6,7.5-7.9c3.3,1.4,4.8,6.6,5.8,9.6c0.3,0.9,0.9,1.3,1.8,1.4c5.7,0.5,11.3,1,17,1.5c0.9,0.1,1.5-0.6,1.8-1.4
				c1.2-3.1,3.6-9.2,7.8-7.7c3.4,1.2,4.9,6.1,6,9.1c0.3,0.8,0.9,1.3,1.8,1.4c4.8,0.4,9.6,0.7,14.5,1c0.8,0.1,1.6-0.6,1.8-1.4
				c1.1-3.2,3.5-11.6,8.3-10.4c4.2,1,6,8.2,7,11.6c0.2,0.8,1,1.3,1.8,1.4c5.3,0.3,10.5,0.6,15.8,0.9c0.8,0,1.6-0.6,1.8-1.4
				c1.1-3.6,3.6-12.5,8.8-11.2c4.4,1.1,6.2,8.6,7.2,12.3c0.2,0.8,1,1.3,1.8,1.4c5.2,0.3,10.3,0.5,15.5,0.7c0.8,0,1.6-0.6,1.8-1.4
				c0.9-3.3,3.3-13.3,8.4-11.4c4.2,1.5,5.5,8.5,6.4,12.2c0.2,0.8,1,1.3,1.8,1.4c5,0.2,10,0.4,15,0.6c0.8,0,1.6-0.6,1.8-1.4
				c1.1-3.8,3.7-13.5,9.3-12.2c4.7,1.1,6.6,9,7.6,12.9c0.2,0.8,1,1.4,1.8,1.4c5.1,0.2,10.2,0.3,15.3,0.4c0.8,0,1.6-0.6,1.8-1.4
				c1.2-3.8,3.9-12.3,9.3-11c4.5,1,6.4,7.8,7.5,11.5c0.2,0.8,1,1.4,1.8,1.4c6.2,0.1,12.3,0.2,18.5,0.3c0.8,0,1.6-0.6,1.8-1.4
				c0.7-2.7,2.4-10.6,6.3-10.6c3.8,0,5.6,8.2,6.3,10.8c0.2,0.8,1,1.4,1.8,1.4c13.1,0.2,26.2,0.1,39.3,0.1c6.6,0,13.1,0,19.7,0
				c2.9,0,5.8,0,8.7,0c2.3,0,7,0.8,9.2-0.1c1.2-0.5,1.9-1.9,2.9-2.7c2.4-1.9,5.5-2.4,8.4-1.8c3.7,0.8,3.5,2.9,6.2,4.4
				c1.7,1,3.8,0.6,5.8,0.6c13.4,0.1,26.7,0.1,40.1,0.2c53.8,0.2,107.6,0.4,161.4,0.6c107.2,0.4,214.4,0.9,321.6,1.3
				c60.1,0.2,120.2,0.5,180.3,0.7C1114.8,47.1,1114.9,43.3,1112.4,43.3z"/>
		</g>
	</g>
</g>
</svg>
