<?xml version="1.0" encoding="utf-8"?>
<!-- Generator: Adobe Illustrator 21.0.2, SVG Export Plug-In . SVG Version: 6.00 Build 0)  -->
<svg version="1.1" id="Layer_1" xmlns="http://www.w3.org/2000/svg" xmlns:xlink="http://www.w3.org/1999/xlink" x="0px" y="0px"
	 viewBox="0 0 1133.9 94.3" style="enable-background:new 0 0 1133.9 94.3;" xml:space="preserve">
<style type="text/css">
	.st0{fill:#6C3923;}
	.st1{fill:#321A0E;}
	.st2{fill:#846357;}
	.st3{fill:#342315;}
	.st4{fill:#53331F;}
	.st5{fill:#AB8374;}
	.st6{fill:#322B1D;}
	.st7{fill:#EED1CC;}
	.st8{fill:#9E806A;}
	.st9{fill:#A16A5B;}
	.st10{fill:#442211;}
	.st11{fill:#98918C;}
	.st12{fill:#A48579;}
	.st13{fill:#201710;}
	.st14{fill:#A68679;}
	.st15{fill:#886F6B;}
	.st16{fill:#8B8070;}
	.st17{fill:#987466;}
	.st18{fill:#9F7D70;}
	.st19{fill:#1D191B;}
</style>
<g>
	<path class="st0" d="M1126.2,24.9c-1.1,6.3-4,18.4-13,30.4c-7.3,9.7-15.6,15.5-20.9,18.5c0,0-30.5,6.6-57.9-9.1
		c0,0-20.2-7.1-28.4-0.5c0,0-14.9,10.7-32.6,0.5c0,0-13.7-5.6-24.6-4.1c0,0-21,7.1-31.7-0.5c0,0-21.3-2.5-24.9,1
		c0,0-32.6,9.6-38.6,4.1c-94.9-1.7-189.8-3.4-284.7-5.1L22.2,60.6C22.2,60.6,7,59.8,7,50c0-9.7,12.7-11.3,12.7-11.3l546.9-7.1
		c91.1-1.4,182.3-2.7,273.4-4.1c0,0,7.1-7.6,29.4-7.6s67,0,67,0c5-0.8,11-1.4,17.8-1.3c5.7,0.1,10.8,0.6,15.2,1.3l55.3,1
		c2.9-0.8,6.9-1.7,11.7-1.8c5.5-0.1,10,0.8,13.2,1.8C1049.7,21,1129.7,13.8,1126.2,24.9z"/>
	<path class="st1" d="M1115.3,20.5c-17.4-4.3-71.2,0.5-71.2,0.5c-3.2-0.9-7.7-1.8-13.2-1.8c-4.8,0.1-8.8,0.9-11.7,1.8l-55.3-1
		c-4.4-0.7-9.5-1.2-15.2-1.3c-6.8-0.1-12.8,0.5-17.8,1.3c0,0-44.7,0-67,0c0.3,0.7,0.7,1.8,1.1,3.1c3.9,11.4,3.8,16.8,6.7,17.7
		c1.2,0.3,2.3-0.2,4.4-1.4c4.2-2.3,4.4-5,7.2-6.8c3.5-2.3,5.8,0.9,13.5,0c7.7-0.9,8.2-2.7,13.9-2.9c7.4-0.2,8.6,2.7,14.7,2.9
		c8.7,0.2,10.3-5.6,19.1-8c11.8-3.2,15,5.6,32.2,6c12.4,0.3,12.3-4.2,26.7-4.4c14.3-0.2,13.8,4.3,28.2,4.1
		c15.4-0.1,18.2-5.3,30.3-2.5c6.1,1.4,8.8,3.5,14.7,2.8c6.5-0.8,9.2-4,15.1-6.8C1096.7,21.5,1104.3,19.3,1115.3,20.5z"/>
	<path class="st2" d="M863.9,66.9c10.8-1.5,22.8-5.1,22.8-5.1c3.6-3.6,24.9-1,24.9-1c10.7,7.6,31.7,0.5,31.7,0.5
		c10.8-1.5,24.6,4.1,24.6,4.1c17.7,10.2,32.6-0.5,32.6-0.5c8.1-6.6,28.4,0.5,28.4,0.5c27.4,15.7,57.9,9.1,57.9,9.1
		c-11.1-4.6-18.4-10.2-23.1-14.6c-6.8-6.3-8.8-10.7-16.3-14c-2.8-1.2-9.9-4.3-17.9-2.4c-6.1,1.5-7.3,4.5-12.3,4.3
		c-5.4-0.2-6.4-3.9-11.9-5.9c-8.2-2.9-11.5,3.3-24.1,3.9c-12.3,0.6-13-5.2-24-3.5c-8.3,1.3-9.5,4.8-18.7,5.5
		c-5.3,0.4-9.2-0.4-15.9-1.9c-13.6-3-17.9-7-24.3-4.4c-2.2,0.9-2.8,1.9-6.9,3.5c-5,2-8.9,2.5-10.2,2.8
		C876.6,48.7,870.6,52.8,863.9,66.9z"/>
	<g>
		<g>
			<path class="st3" d="M1109.2,19.6c-16.1,13.6-29.2,33.4-23.7,55.2c0.6-0.5,1.2-0.9,1.8-1.4c-19.7-10.9-33.2-30.4-36.5-52.8
				c-0.1-0.8-1.2-1.1-1.8-0.7c-12.9,6.7-22.4,17.3-27.1,31.1c-0.7,2.1-1.2,4.3-1.7,6.4c-0.2,0.6-0.3,1.9-0.7,2.4
				c-1.5,1.7-1.8,0.5-2.7-0.7c-3.3-4.4-4.6-9.4-6.7-14.3c-1.3-3.2-3.1-5.8-5.1-8.5c-3.4-4.5-5-10.2-5.6-15.7c-0.1-0.8-1-1.7-1.9-1.1
				c-12.7,9.2-24.9,20.2-34,33.1c-1.5,2.1-4.4,9.1-7.4,7.1c-1.2-0.8-2-2.7-2.6-3.9c-2-3.7-3.6-7.8-5.1-11.7
				c-2.4-6.5-4.1-13.3-6.8-19.7c-1-2.4-2.4-5-5.1-5.6c-3.7-0.8-7.2,2.7-9.8,4.7c-5.5,4.2-11,8.4-16.9,12.1
				c-11.3,7.2-20.9,16.6-29.4,26.9c-1,1.2,0.7,3,1.8,1.8c7.9-9.6,16.9-18.9,27.5-25.5c4.9-3.1,9.6-6.4,14.2-9.9
				c2.7-2,9.9-9.9,13.6-6.7c4,3.4,13.2,50.2,23.4,38.7c2-2.3,3.5-5.1,5.3-7.6c3.2-4.4,6.7-8.5,10.5-12.3c6.9-7,14.2-13.4,22.1-19.2
				c-0.6-0.4-1.3-0.7-1.9-1.1c0.5,4.8,1.7,9.6,4,13.9c2.4,4.5,5.8,8,7.7,13c1.3,3.5,5.5,18.5,11.3,16c2.6-1.1,2.9-6,3.5-8.3
				c1-3.7,2.4-7.2,4.2-10.6c5.3-10.1,12.6-17.2,22.8-22.5c-0.6-0.2-1.2-0.5-1.8-0.7c3.4,22.9,17.4,43,37.6,54.3
				c1,0.5,2.1-0.3,1.8-1.4c-5.3-20.9,7.7-39.8,23-52.8C1112.2,20.3,1110.4,18.6,1109.2,19.6L1109.2,19.6z"/>
		</g>
	</g>
	<path class="st4" d="M19.6,38.8l546.9-7.1c-15.3,5-35.6,9.7-59.7,10c-9.7,0.1-18.7-0.5-26.7-1.5c-3.9-0.9-10.8-2.3-19.3-2.6
		c-18.6-0.7-24.5,4.1-44.5,3.5c-10.2-0.3-10-1.6-22.1-2c-13.3-0.5-24.2,0.7-31.4,1.8c-9,0.4-22.8,1.2-39.7,2.7
		c-27.9,2.4-32,4-47.7,4c-12.4,0-26.3,0.1-44.3-3.2c-11.6-2.1-18.2-4.4-30-4.2c-10.8,0.2-19.6,2.4-25.5,4.2
		c-4.5,0.9-11.2,2-19.5,2.3c-13.2,0.5-22.8-1.4-28.3-2.3c-17.7-2.9-23.5-0.5-48.9-0.8C64.8,43.4,44.6,42.5,19.6,38.8z"/>
	<path class="st5" d="M1089.9,74.5c5.3-3.1,13.6-8.8,20.9-18.5c9-12,12-24.1,13-30.4c0.6-2-1.4-3.4-5.3-4.3
		C1118.6,21.2,1086.1,49.3,1089.9,74.5z"/>
	<path class="st6" d="M868.3,66.2c-7,1-13.4,1.2-15.8-1c-45.9-0.8-91.9-1.6-137.8-2.5l1-33.3c41-0.6,82.1-1.2,123.1-1.8
		c0,0,7.1-7.6,29.4-7.6c0,0,7.6,6.5,7.2,23.5C875.1,60.4,868.3,66.2,868.3,66.2z"/>
	<g>
		<g>
			<path class="st7" d="M1116.8,19.9c-12.7,10.8-23.1,26.5-26.6,42.8c-0.3,1.6,2.1,2.2,2.4,0.7c3.4-16,13.5-31.2,25.9-41.7
				C1119.8,20.7,1118,18.9,1116.8,19.9L1116.8,19.9z"/>
		</g>
	</g>
	<g>
		<g>
			<path class="st8" d="M646.8,48.2c-25.5,0-51,0-76.5,0c-3.7,0-7.5,0-11.2,0c-1.6,0-1.6,2.5,0,2.5c25.5,0,51,0,76.5,0
				c3.7,0,7.5,0,11.2,0C648.4,50.7,648.4,48.2,646.8,48.2L646.8,48.2z"/>
		</g>
	</g>
	<g>
		<g>
			<path class="st9" d="M229.7,50.1c-21.6,0-43.2,0-64.8,0c-34.3,0-68.5,0-102.8,0c-7.9,0-15.9,0-23.8,0c-1.6,0-1.6,2.5,0,2.5
				c21.6,0,43.2,0,64.8,0c34.3,0,68.5,0,102.8,0c7.9,0,15.9,0,23.8,0C231.3,52.6,231.3,50.1,229.7,50.1L229.7,50.1z"/>
		</g>
	</g>
	<g>
		<g>
			<path class="st10" d="M706.9,37.2c-28.2,0-56.4,0-84.5,0c-1.6,0-1.6,2.5,0,2.5c28.2,0,56.4,0,84.5,0
				C708.5,39.7,708.5,37.2,706.9,37.2L706.9,37.2z"/>
		</g>
	</g>
	<g>
		<g>
			<path class="st11" d="M860.4,55.6c-16.1,0-32.1,0-48.2,0c-1.6,0-1.6,2.5,0,2.5c16.1,0,32.1,0,48.2,0
				C862,58.1,862,55.6,860.4,55.6L860.4,55.6z"/>
		</g>
	</g>
	<circle class="st12" cx="714.7" cy="53.1" r="5.5"/>
	<g>
		<g>
			<path class="st13" d="M849.1,34.9c-34.9,0-69.8,0-104.6,0c-5,0-10.1,0-15.1,0c-1.6,0-1.6,2.5,0,2.5c34.9,0,69.8,0,104.6,0
				c5,0,10.1,0,15.1,0C850.7,37.4,850.7,34.9,849.1,34.9L849.1,34.9z"/>
		</g>
	</g>
	<g>
		<g>
			<path class="st14" d="M1080.9,63.5c-5.8-4.2-10.7-9.5-14.4-15.6c-0.8-1.4-3-0.1-2.2,1.3c4,6.5,9.2,12.1,15.3,16.5
				C1081,66.6,1082.2,64.4,1080.9,63.5L1080.9,63.5z"/>
		</g>
	</g>
	<g>
		<g>
			<path class="st15" d="M1045.8,27.4c-5.6,4.9-10.4,10.6-14.2,17c-0.8,1.4,1.3,2.6,2.2,1.3c3.7-6.2,8.4-11.7,13.8-16.5
				C1048.7,28.1,1047,26.3,1045.8,27.4L1045.8,27.4z"/>
		</g>
	</g>
	<g>
		<g>
			<path class="st16" d="M1016.9,52.1c-0.3-8.1-3.5-15.6-9.2-21.4c-1.1-1.1-2.9,0.6-1.8,1.8c5.3,5.3,8.2,12.2,8.4,19.6
				C1014.4,53.7,1016.9,53.7,1016.9,52.1L1016.9,52.1z"/>
		</g>
	</g>
	<g>
		<g>
			<path class="st17" d="M957,54.2c-2.8-9-5.7-18-8.5-27.1c-0.5-1.5-2.9-0.9-2.4,0.7c2.8,9,5.7,18,8.5,27.1
				C955.1,56.4,957.5,55.8,957,54.2L957,54.2z"/>
		</g>
	</g>
	<g>
		<g>
			<path class="st18" d="M928.3,27.7c-11.1,8.7-22.3,17.4-33.4,26.1c-1.3,1,0.5,2.7,1.8,1.8c11.1-8.7,22.3-17.4,33.4-26.1
				C931.4,28.5,929.6,26.7,928.3,27.7L928.3,27.7z"/>
		</g>
	</g>
	<path class="st13" d="M839.9,27.1c0-1.9,5.4-3.4,14.4-5.7c9-2.4,11.6-2.8,14-1.4c1.3,0.8,2.1,2.2,3.9,4.9c2.6,4.1,3.6,7.7,4,10.5
		c0.3,1.9,0.4,2.8,0,3.5c-1.8,3.1-10.8,1.8-17-0.7c-5.8-2.2-5.2-3.8-13.9-7.9C841.7,28.7,839.9,28.2,839.9,27.1z"/>
	<g>
		<g>
			<path class="st19" d="M1124.2,24.4c-2.9,16.1-11.1,30.8-23.8,41.3c-3.2,2.6-6.7,5.7-10.8,6.6c-4.6,1-9.6,1-14.2,1
				c-7.8-0.1-15.7-1.1-23.2-3.2c-6.6-1.8-12.3-5.4-18.6-7.6c-8.9-3.2-20.3-4.9-28.8,0.1c-3.6,2.2-7.4,3.7-11.7,4.3
				c-7.8,1.1-13.6-1.7-20.7-4.5c-5.7-2.2-12-3.6-18-3.9c-4.4-0.2-7.6,0.8-11.7,1.7c-6.4,1.4-13.6,2.4-19.9,0.5c-2.1-0.6-3.9-2-6-2.6
				c-1.3-0.4-2.8-0.3-4.2-0.4c-5-0.4-10.2-0.8-15.2-0.2c-2.7,0.3-5.4,1.5-6.8,2c-8.5,3.1-18.7,5-27.6,5.4c-5.1,0.3-9.1-1.7-14.1-1.8
				c-10.4-0.2-20.8-0.4-31.1-0.6c-41.5-0.7-83-1.5-124.6-2.2c-44.5-0.8-89.1-2.3-133.6-2.2c-21.3,0-42.7,0-64,0.1
				c-35.2,0-70.4,0.1-105.6,0.1c-41,0-82.1,0.1-123.1,0.1c-39.3,0-78.6,0.1-117.8,0.1c-29.9,0-59.8,0.1-89.7,0.1
				c-12.4,0-24.9,0.3-37.4,0c-6.8-0.1-14.2-6-9.8-13.4c1.6-2.7,4.5-4.3,7.5-4.7c1.3-0.2,2.8,0,4.1-0.1c6.9-0.1,13.7-0.2,20.6-0.3
				c27-0.4,54.1-0.7,81.1-1.1c38-0.5,76-1,114-1.5c41.5-0.5,83-1.1,124.5-1.6c36.9-0.5,73.7-1,110.6-1.4c24.7-0.3,49.5-0.6,74.2-1
				c31-0.4,62-0.9,93-1.3c41.5-0.6,83-1.2,124.5-1.8c20.7-0.3,41.5-0.6,62.2-0.9c4.4-0.1,9.4,0.9,13.2-1.4c3.6-2.2,7.1-3.7,11.2-4.7
				c13.4-3.2,28.3-1.7,42-1.7c11.9,0,23.7,0,35.6,0c11.2,0,22.1-1.9,33.4-0.7c6.7,0.7,13.3,0.9,20.1,1c9.8,0.2,19.6,0.4,29.5,0.5
				c3.2,0.1,6.3,0.2,9.5,0.2c4.1-0.1,8-1.5,12.2-1.7c5.1-0.2,9.9,1.5,14.8,1.7c2,0.1,4.2-0.3,6.2-0.5c8.4-0.6,16.9-1.1,25.3-1.4
				C1084.7,20.8,1125.3,20.2,1124.2,24.4c-0.6,2.3,3,3.3,3.6,1c3.7-14.5-69.5-5.8-78.3-6.3c-3-0.2-6.2-1.4-9.3-1.6
				c-3.9-0.3-7.9,0-11.8,0.7c-3,0.6-4.9,0.9-7.9,0.9c-9.3-0.2-18.6-0.3-28-0.5c-7.5-0.1-15.1,0-22.6-0.4c-6.3-0.4-12.5-1.4-18.9-1.3
				c-5.3,0.1-10.6,1.1-15.9,1.3c-23.9,1-48-1.4-71.8,0.2c-6.1,0.4-12.3,1.4-17.9,3.8c-2.3,1-4.5,3.2-6.8,4c-1.6,0.6-6.6-0.2-8.9-0.2
				c-5.6,0.1-11.1,0.2-16.7,0.2c-10.7,0.2-21.5,0.3-32.2,0.5c-71.8,1.1-143.7,2.2-215.5,3.2c-15.4,0.2-30.8,0.4-46.2,0.6
				c-32.5,0.4-65,0.8-97.5,1.3c-41.2,0.5-82.4,1.1-123.7,1.6c-41.4,0.5-82.8,1.1-124.1,1.6c-33.5,0.4-67.1,0.9-100.6,1.3
				c-17.1,0.2-34.3,0.4-51.4,0.7c-0.9,0-1.9,0-2.8,0.1C6.5,38.7,3.3,55.3,14.5,61.2c4.2,2.2,10.3,1.4,15,1.4c21.2,0,42.4,0,63.5-0.1
				c35.7,0,71.4-0.1,107-0.1c42.1,0,84.3-0.1,126.4-0.1c40.1,0,80.2-0.1,120.3-0.1c29.6,0,59.2-0.1,88.8-0.1
				c14.7,0,29.5-0.1,44.2,0.2c85.3,1.5,170.5,3,255.8,4.6c4.8,0.1,9.7,0.4,14.5,0.3c2.5-0.1,3.4,0.7,5.7,1.3c4.3,1.1,9,0.4,13.3-0.2
				c7.7-1.1,16.2-2.4,23.5-5.2c6.8-2.6,17.9-3.1,24.5-0.5c10.8,4.2,20.1,2.7,31.2,0.2c6.5-1.5,13.8,0.3,20.1,2.3
				c5.8,1.8,10.7,5,16.9,5.7c5.8,0.7,11.7-0.2,17-2.5c3.8-1.7,6.8-4.3,11-4.8c5.9-0.7,12,0.7,17.6,2.3c5.5,1.6,10.4,4.9,15.9,6.8
				c12.8,4.3,26.8,5.6,40.2,4c8.6-1,15-6.6,21-12.6c10.4-10.5,17.2-24,19.7-38.4C1128.2,23,1124.6,22,1124.2,24.4z"/>
		</g>
	</g>
	<g>
		<g>
			<path class="st15" d="M990.4,32.1c-9,7.2-18.5,15.5-24.3,25.6c-0.8,1.4,1.4,2.7,2.2,1.3c5.7-9.9,15.1-18,24-25.1
				C993.5,32.9,991.7,31.1,990.4,32.1L990.4,32.1z"/>
		</g>
	</g>
</g>
</svg>
