<?xml version="1.0" encoding="utf-8"?>
<!-- Generator: Adobe Illustrator 21.0.2, SVG Export Plug-In . SVG Version: 6.00 Build 0)  -->
<svg version="1.1" id="Layer_1" xmlns="http://www.w3.org/2000/svg" xmlns:xlink="http://www.w3.org/1999/xlink" x="0px" y="0px"
	 viewBox="0 0 1133.9 91.3" style="enable-background:new 0 0 1133.9 91.3;" xml:space="preserve">
<style type="text/css">
	.st0{fill:#545250;}
	.st1{fill:#252420;}
	.st2{fill:#B5B2B1;}
	.st3{fill:#797574;}
	.st4{fill:#D1CFCD;}
	.st5{fill:#1B1A17;}
	.st6{fill:none;stroke:#252420;stroke-width:0.25;stroke-miterlimit:10;}
	.st7{fill:#1D191B;}
</style>
<g>
	<path class="st0" d="M23.1,49.6L747.8,64l6.7,5.6L860,69.8v-0.1c2.1,0.7,4.5,1.1,6.9,1.1c6.5,0,12.2-2.7,15.3-6.7h1.4
		c3.4,5.6,10.6,9.5,19,9.5c4.8,0,9.1-1.3,12.7-3.4c4.6,3.4,12.6,5.7,21.8,5.7c12.4,0,22.7-4.2,25.3-9.7h1.2
		c2.3,5.6,11.6,9.7,22.7,9.7c10.1,0,18.6-3.4,21.9-8.2c3.5,4.9,10.4,8.2,18.3,8.2c7.6,0,14.2-3.1,17.8-7.6l0,0
		c8-1.3,21.8,0.9,28.8,2.2c1.4,0.3,2.8,0.6,4.2,0.8l0,0l0,0c3.3,0.5,6.7,0.8,10.3,0.8c21.8,0,39.5-10.6,39.5-23.7
		c0-13.1-17.7-23.7-39.5-23.7c-1.8,0-3.6,0.1-5.4,0.2l0,0l0,0c-2.6,0.2-5.2,0.6-7.6,1.1c-6.7,0.6-13.1,0.4-16.2,0.2
		c-3.3-3.1-8.4-5.1-14.2-5.1c-5.5,0-10.4,1.8-13.7,4.7h-2.4c-3.7-2.8-9.2-4.6-15.4-4.6c-5.8,0-11,1.6-14.7,4.1
		c-4.1-3.4-11-5.7-18.8-5.7c-7.6,0-14.3,2.1-18.4,5.4h-2.2c-4.8-3.2-12.5-5.4-21.2-5.4c-8.3,0-15.7,1.9-20.5,4.9h-0.8
		c-3.3-3.8-8.1-6.3-13.5-6.3c-5.2,0-10,2.3-13.2,6h-2c-3.8-3.6-9.7-5.9-16.4-5.9c-6.5,0-12.3,2.2-16.1,5.5l-97.7-1.2l-7.8,4L23,19.5
		c-9.4,0-17.1,6.7-17.1,15C6,42.8,13.7,49.6,23.1,49.6z"/>
	<path class="st1" d="M1127.1,48.4c2.1,3.1-2.5,10.3-6.5,14.3c-9.6,9.6-24.5,9.5-33,9.4c-4.3,0-7.9-0.5-10.3-0.8l0,0l0,0
		c-1.4-0.2-2.9-0.5-4.2-0.8c-7-1.3-20.8-3.5-28.8-2.2l0,0c-3.6,4.5-10.2,7.6-17.8,7.6c-7.9,0-14.8-3.3-18.3-8.2
		c-3.2,4.8-11.8,8.2-21.9,8.2c-11.1,0-20.4-4.2-22.7-9.7h-1.2c-2.6,5.6-12.9,9.7-25.3,9.7c-9.2,0-17.2-2.3-21.8-5.7
		c-3.5,2.1-7.9,3.4-12.7,3.4c-8.4,0-15.6-3.9-19-9.5h-1.4c-3.1,4-8.8,6.7-15.3,6.7c-2.5,0-4.8-0.4-6.9-1.1v0.1l-105.5-0.2l-6.7-5.6
		L23.2,49.6c-9.4,0-17.1-6.7-17.1-15c0,0,610.2,15.4,750.6,11.7c4.6-0.9,9.1-1.9,13.7-2.8c5.1,3,10.3,5.9,15.4,8.9
		c2-1.7,4-3.5,5.9-5.2c3.2-2.6,6.4-5.2,9.6-7.8c4.4,2.7,8.9,5.5,13.3,8.2c5.7,3.2,11.3,6.5,17,9.7c5.4-4.5,10.7-9.1,16.1-13.6
		c3.4,2.5,6.7,5,10.1,7.5l9.5-8.6l6.3,12.7l3-16.6c0,0,30.7,28.6,30.4,3c11.2,12.1,26.2,15.1,34.9,9.3c1.5-1,5.8-4.3,7.7-12.2
		c14.1,14.9,30.4,18.7,37.9,12.8c1.3-1,4.7-4.2,5.3-12.5c0,0,39.3,25.6,35.7,6c0,0,32.2,11.6,32.5,0.3c9,4.2,21.4,8.2,35.8,7.2
		C1112.7,51.3,1124.4,44.4,1127.1,48.4z"/>
	<g>
		<g>
			<path class="st2" d="M17,33.8c95.2,1.2,190.3,2.5,285.5,3.7c94.8,1.2,189.6,2.5,284.5,3.7c53.6,0.7,107.1,1.4,160.7,2.1
				c3.2,0,3.2-5,0-5c-95.2-1.2-190.3-2.5-285.5-3.7c-94.8-1.2-189.6-2.5-284.5-3.7C124.1,30.2,70.6,29.5,17,28.8
				C13.8,28.7,13.8,33.7,17,33.8L17,33.8z"/>
		</g>
	</g>
	<path class="st3" d="M1082.2,35.9c18.3,0,33.2,3.6,33.2,8s-14.9,8-33.2,8"/>
	
		<ellipse transform="matrix(0.9812 -0.1932 0.1932 0.9812 12.351 207.7778)" class="st3" cx="1071.5" cy="40.6" rx="4.8" ry="11.3"/>
	
		<ellipse transform="matrix(0.8406 -0.5417 0.5417 0.8406 146.3042 573.5932)" class="st3" cx="1047.6" cy="38.2" rx="6" ry="11.3"/>
	
		<ellipse transform="matrix(0.7341 -0.6791 0.6791 0.7341 247.0786 707.6124)" class="st3" cx="1027" cy="38.3" rx="4.8" ry="14.8"/>
	
		<ellipse transform="matrix(0.6308 -0.7759 0.7759 0.6308 338.5537 792.7889)" class="st3" cx="1002.4" cy="40.6" rx="5.9" ry="18"/>
	
		<ellipse transform="matrix(0.5671 -0.8236 0.8236 0.5671 384.9855 810.7016)" class="st3" cx="963.8" cy="39.1" rx="5.8" ry="18.8"/>
	
		<ellipse transform="matrix(0.6308 -0.7759 0.7759 0.6308 310.5087 732.371)" class="st3" cx="924.9" cy="39.9" rx="4.8" ry="18.7"/>
	<ellipse transform="matrix(0.679 -0.7341 0.7341 0.679 256.4164 667.5389)" class="st3" cx="891.6" cy="40.5" rx="4.8" ry="17.1"/>
	<ellipse class="st3" cx="872.7" cy="44.1" rx="3.4" ry="14.8"/>
	<circle class="st4" cx="1086.3" cy="47.5" r="4.5"/>
	<circle class="st4" cx="1021.1" cy="31.9" r="4.5"/>
	<circle class="st4" cx="1043.8" cy="37.5" r="4.5"/>
	
		<ellipse transform="matrix(4.610286e-02 -0.9989 0.9989 4.610286e-02 983.7248 1105.1575)" class="st4" cx="1070.5" cy="37.5" rx="4.5" ry="4.5"/>
	<circle class="st4" cx="978.1" cy="31.9" r="4.5"/>
	<circle class="st4" cx="1010" cy="44.2" r="4.5"/>
	<circle class="st4" cx="939.5" cy="31.6" r="4.5"/>
	<circle class="st4" cx="903" cy="31.6" r="4.5"/>
	<circle class="st4" cx="873.8" cy="33.4" r="4.5"/>
	<g>
		<g>
			<path class="st5" d="M857.1,56.1c-14.1-9.6-28.2-19.3-42.3-28.9c-0.7-0.5-1.3,0.6-0.6,1.1c14.1,9.6,28.2,19.3,42.3,28.9
				C857.2,57.7,857.8,56.6,857.1,56.1L857.1,56.1z"/>
		</g>
	</g>
	<g>
		<g>
			<path class="st5" d="M845.1,65.8c-22-13.7-44.1-27.5-66.1-41.2c-0.7-0.4-1.3,0.7-0.6,1.1c22,13.7,44.1,27.5,66.1,41.2
				C845.2,67.3,845.8,66.2,845.1,65.8L845.1,65.8z"/>
		</g>
	</g>
	<g>
		<g>
			<path class="st5" d="M813.9,67c-16.5-9-33-18.1-49.5-27.1c-0.7-0.4-1.3,0.7-0.6,1.1c16.5,9,33,18.1,49.5,27.1
				C813.9,68.5,814.6,67.4,813.9,67L813.9,67z"/>
		</g>
	</g>
	<g>
		<g>
			<path class="st5" d="M864.5,27.3c-14.6,12.9-29.1,25.7-43.7,38.6c-0.6,0.5,0.3,1.4,0.9,0.9c14.6-12.9,29.1-25.7,43.7-38.6
				C866,27.7,865.1,26.8,864.5,27.3L864.5,27.3z"/>
		</g>
	</g>
	<path class="st6" d="M793.4,66.3"/>
	<g>
		<g>
			<path class="st5" d="M838.2,25.9c-15.4,13.6-30.7,27.2-46.1,40.9c-0.6,0.5,0.3,1.4,0.9,0.9c15.4-13.6,30.7-27.2,46.1-40.9
				C839.7,26.2,838.8,25.3,838.2,25.9L838.2,25.9z"/>
		</g>
	</g>
	<g>
		<g>
			<path class="st5" d="M814.8,25.9c-15.9,13.9-31.9,27.9-47.8,41.8c-0.6,0.5,0.3,1.4,0.9,0.9c15.9-13.9,31.9-27.9,47.8-41.8
				C816.3,26.2,815.4,25.3,814.8,25.9L814.8,25.9z"/>
		</g>
	</g>
	<g>
		<g>
			<path class="st5" d="M776.7,37.7c-5.9,5.2-11.9,10.5-17.8,15.7c-0.6,0.5,0.3,1.4,0.9,0.9c5.9-5.2,11.9-10.5,17.8-15.7
				C778.2,38,777.4,37.1,776.7,37.7L776.7,37.7z"/>
		</g>
	</g>
	<g>
		<g>
			<path class="st3" d="M842.3,51.1c-2.2,1.8-4.3,3.7-6.5,5.5c-0.9,0.7,0.4,2,1.2,1.2c2.2-1.8,4.3-3.7,6.5-5.5
				C844.4,51.6,843.1,50.4,842.3,51.1L842.3,51.1z"/>
		</g>
	</g>
	<g>
		<g>
			<path class="st3" d="M856.8,50.5c-2.4-1.6-4.9-3.1-7.3-4.7c0.1,0.5,0.1,0.9,0.2,1.4c2.2-1.7,4.3-3.4,6.5-5.1
				c0.9-0.7-0.4-1.9-1.2-1.2c-2.2,1.7-4.3,3.4-6.5,5.1c-0.5,0.4-0.2,1.1,0.2,1.4c2.4,1.6,4.9,3.1,7.3,4.7
				C856.8,52.6,857.7,51.1,856.8,50.5L856.8,50.5z"/>
		</g>
	</g>
	<g>
		<g>
			<path class="st3" d="M813.9,51.4c-2.5,2.2-5.1,4.3-7.6,6.5c-0.9,0.7,0.4,2,1.2,1.2c2.5-2.2,5.1-4.3,7.6-6.5
				C816,51.9,814.7,50.6,813.9,51.4L813.9,51.4z"/>
		</g>
	</g>
	<g>
		<g>
			<path class="st3" d="M801.3,42.1c-3.1,2.9-6.2,5.8-9.3,8.7c-0.8,0.8,0.4,2,1.2,1.2c3.1-2.9,6.2-5.8,9.3-8.7
				C803.4,42.5,802.1,41.3,801.3,42.1L801.3,42.1z"/>
		</g>
	</g>
	<g>
		<g>
			<path class="st3" d="M770.5,46.8c-3,2.9-6.1,5.7-9.1,8.6c-0.8,0.8,0.4,2,1.2,1.2c3-2.9,6.1-5.7,9.1-8.6
				C772.6,47.3,771.4,46,770.5,46.8L770.5,46.8z"/>
		</g>
	</g>
	<g>
		<g>
			<path class="st3" d="M765.8,43.4c-2.7-1.4-5.3-2.9-8-4.3c-1-0.5-1.9,1-0.9,1.5c2.7,1.4,5.3,2.9,8,4.3
				C765.9,45.5,766.8,44,765.8,43.4L765.8,43.4z"/>
		</g>
	</g>
	<g>
		<g>
			<path class="st3" d="M836.8,45.9c-2.9-2.1-5.8-4.2-8.7-6.2c-0.3-0.2-0.8-0.1-1.1,0.1c-2.3,2.3-4.7,4.5-7,6.8
				c-0.8,0.8,0.4,2,1.2,1.2c2.3-2.3,4.7-4.5,7-6.8c-0.4,0-0.7,0.1-1.1,0.1c2.9,2.1,5.8,4.2,8.7,6.2
				C836.9,48.1,837.8,46.6,836.8,45.9L836.8,45.9z"/>
		</g>
	</g>
	<g>
		<g>
			<path class="st3" d="M821.6,36.1c-2.8,2.2-5.6,4.5-8.4,6.7c-0.9,0.7,0.4,1.9,1.2,1.2c2.8-2.2,5.6-4.5,8.4-6.7
				C823.7,36.6,822.5,35.4,821.6,36.1L821.6,36.1z"/>
		</g>
	</g>
	<g>
		<g>
			<path class="st3" d="M843.5,42.2c-3.3-2.4-6.6-4.7-10-7.1c-0.9-0.7-1.8,0.9-0.9,1.5c3.3,2.4,6.6,4.7,10,7.1
				C843.5,44.3,844.4,42.8,843.5,42.2L843.5,42.2z"/>
		</g>
	</g>
	<g>
		<g>
			<path class="st3" d="M827.9,31.8c-3-2.1-5.9-4.2-8.9-6.3c-0.9-0.7-1.8,0.9-0.9,1.5c3,2.1,5.9,4.2,8.9,6.3
				C828,34,828.9,32.5,827.9,31.8L827.9,31.8z"/>
		</g>
	</g>
	<g>
		<g>
			<path class="st3" d="M801.3,34.1c-5.4-3.2-10.9-6.3-16.3-9.5c-1-0.6-1.9,0.9-0.9,1.5c5.4,3.2,10.9,6.3,16.3,9.5
				C801.4,36.2,802.3,34.7,801.3,34.1L801.3,34.1z"/>
		</g>
	</g>
	<g>
		<g>
			<path class="st3" d="M775.8,33c-2.3,2.3-4.5,4.7-6.8,7c-0.8,0.8,0.5,2,1.2,1.2c2.3-2.3,4.5-4.7,6.8-7
				C777.8,33.4,776.6,32.1,775.8,33L775.8,33z"/>
		</g>
	</g>
	<g>
		<g>
			<path class="st7" d="M23.1,51.4c8.6,0.2,17.2,0.3,25.8,0.5c23,0.5,46.1,0.9,69.1,1.4c33.2,0.7,66.4,1.3,99.6,2
				c39,0.8,78,1.5,117,2.3c40.9,0.8,81.8,1.6,122.7,2.4c38.4,0.8,76.8,1.5,115.3,2.3c31.7,0.6,63.4,1.3,95.1,1.9
				c20.8,0.4,41.6,0.8,62.3,1.2c4.9,0.1,9.9,0.2,14.8,0.3c0.9,0,1.9,0,2.8,0.1h0.1c-1-0.2-1.3-0.8-0.5,0.1c0.8,0.9,2.1,1.7,3,2.5
				c1.5,1.3,2.7,2.6,4.7,3c4.2,0.8,9.4,0,13.7,0c8.8,0,17.7,0,26.5,0c18.3,0,36.6,0.1,54.9,0.1c3.3,0,6.7,0,10,0
				c1,0,1.9-0.9,1.9-1.9v-0.1c-0.8,0.6-1.6,1.2-2.4,1.8c7.1,2,14.9,1.4,20.9-3.2c0.6-0.4,2.7-2.2,2.3-2.2c0.4,0,2.8,3.2,3.3,3.6
				c2.2,1.9,4.9,3.3,7.6,4.3c4.1,1.4,8.6,1.8,12.9,1.2c3.4-0.5,6.9-2.8,9.9-1.9c3.1,0.9,5.9,2.6,9.1,3.3c4.4,1,8.9,1.4,13.4,1.2
				c7.1-0.3,14.9-1.6,20.8-5.9c0.9-0.7,2.4-1.6,2.9-2.6c0.9-1.9,0.8-0.4-0.2-1.1c0.9,0.6,1.7,2.3,2.5,3.1c1.1,1,2.4,1.9,3.7,2.6
				c11.7,6.5,32.4,6.3,41.1-5.2c-1,0.1-2,0.3-2.9,0.4c7.7,9.9,23.5,11.4,33.9,4.9c1.6-1,3.4-3.4,4.1-3.8c2.5-1.4,9-0.3,11.8-0.1
				c6.8,0.5,13.6,1.6,20.3,3.1c1.3,0.3,2.3-0.6,2.4-1.8l0,0c-0.8,0.6-1.6,1.2-2.4,1.8c15.9,2.3,37.1,0.3,47.9-13.3
				c9.1-11.4,1.8-24.2-9.5-30.4c-7.8-4.3-16.9-6.2-25.7-6.5c-3.9-0.1-7.8,0.2-11.6,0.7c-5,0.7-13.8,2.6-18.7,0.6
				c-3.8-1.5-6.3-3.8-10.6-4.5c-4.4-0.7-9.1-0.3-13.2,1.3c-2,0.8-4.7,3.5-6.8,3c-1-0.2-2.7-1.7-3.7-2.2c-2.6-1.1-5.2-1.8-8-2.2
				c-4.2-0.5-8.6-0.3-12.8,0.9c-1.5,0.4-3.5,1.8-5,2c-1.9,0.3-3.3-1.1-5.2-1.9c-8.3-3.6-18.6-3.8-27.1-0.8c-2.9,1-5.4,3.7-8.3,2.8
				c-4.4-1.2-8.1-3.5-12.8-4.2c-4.8-0.8-9.7-0.8-14.5-0.3c-4.8,0.6-8.7,2.4-13.2,3.7c-2.2,0.6-1,0.6-3.2-1.3
				c-1.4-1.2-3.1-2.1-4.8-2.8c-4-1.6-8.6-1.8-12.8-0.6c-1.7,0.5-3.4,1.3-4.9,2.2c-0.6,0.4-2.9,2.8-3.3,2.9c-1.1,0.3-2.6-1.5-3.4-2
				c-1.7-1.1-3.5-1.9-5.4-2.5c-4.2-1.4-8.7-1.7-13.1-1.1c-4.8,0.6-7.8,2.7-12,4.7c-0.6,0.3,0,0.3-1.1,0.6c-1.1,0.2-2.4,0-3.5,0
				c-22.3-0.3-44.7-0.5-67-0.8c-8.1-0.1-16.4-0.6-24.5-0.3c-2.4,0.1-3.7,0.8-6,2c-1.2,0.6-2.5,1.5-3.8,2c-0.7,0.2-0.5,0.2,0.3,0
				c-0.1,0-0.2,0-0.3,0c-4.5,0.5-9.4-0.1-14-0.1c-11-0.1-21.9-0.2-32.9-0.3c-36.1-0.4-72.2-0.7-108.2-1.1
				c-47.9-0.5-95.8-0.9-143.6-1.4c-51.6-0.5-103.1-1-154.7-1.5c-46.6-0.5-93.1-0.9-139.7-1.4c-33-0.3-66-0.6-99-1
				c-8.9-0.1-17.8-0.2-26.8-0.3c-7.6-0.1-15.1-0.5-21.2,5.4c-4.8,4.6-6.4,11.8-3.6,17.9C8.8,47.9,15.9,51.1,23.1,51.4
				c2.4,0.1,2.4-3.6,0-3.8C12.8,47.2,2.5,36.4,10.8,26.7c3.2-3.7,7.7-5.2,12.4-5.4c1,0,2.1,0,3.1,0c5.9,0.1,11.7,0.1,17.6,0.2
				c24.2,0.2,48.5,0.5,72.7,0.7c36.6,0.4,73.2,0.7,109.8,1.1c43.2,0.4,86.3,0.8,129.5,1.3c44.6,0.4,89.2,0.9,133.8,1.3
				c40.1,0.4,80.3,0.8,120.4,1.2c30.5,0.3,61,0.6,91.5,0.9c15.1,0.1,30.3,0.3,45.4,0.4c0.7,0,1.6,0.2,2.3,0c3.1-0.6,5.6-3.3,8.6-4.2
				c-1.8,0.5,2,0.2,2.8,0.2c18.8,0.2,37.6,0.4,56.4,0.7c9.4,0.1,18.7,0.2,28.1,0.3c2.6,0,5.3,0.1,7.9,0.1c2.7,0,3.3-1,5.9-2.5
				c4.9-2.9,11.1-3.6,16.7-2.6c2.2,0.4,4.4,1.2,6.5,2.2c1.6,0.8,2.9,2.5,4.5,3.1c1.3,0.5,2.8,0.2,4-0.4c2.2-1.1,3.6-3.2,6.1-4.2
				c3.1-1.2,6.4-1.5,9.7-0.7c2.8,0.7,5,2.1,7.2,4c1.1,0.9,1.2,1.6,2.5,1.8c2.5,0.3,5.4-2.2,7.7-2.9c9.5-3,21.1-2.9,30.3,1.2
				c2.1,1,4.2,2.8,6.7,2.2c2.8-0.7,5.5-3.1,8.4-4c9-2.8,20.2-1.9,27.8,4c0.5,0.4,1.4,0.3,1.9,0c4.7-3,10.1-4.1,15.6-3.8
				c2.1,0.1,4.3,0.5,6.3,1.1c2.3,0.7,4.2,2.4,6.3,3.2c1.1,0.4,2.7,0.5,3.8,0.2c1.5-0.4,2.8-2,4.2-2.7c2.8-1.3,5.9-2,9-1.9
				c2.3,0,4.6,0.3,6.7,1c2.7,0.9,4.1,2.8,6.5,3.8s6.1,0.4,8.6,0.4c9.1-0.1,17.8-2.3,27-1.5c11.9,1,36.7,8.7,31.5,25.5
				c-5.4,17.3-32.4,19.3-46.8,17.2c-1.3-0.2-2.3,0.5-2.4,1.8l0,0c0.8-0.6,1.6-1.2,2.4-1.8c-5.1-1.1-10.3-2-15.4-2.6
				c-5.4-0.7-11.9-1.8-17.3-0.6c-2,0.4-2.1,0.8-3.7,2.3c-2.8,2.6-6.3,4.2-10,4.9c-8,1.6-16.8-0.7-22-7.2c-0.8-1.1-2.3-0.5-2.9,0.4
				c-7.8,10.3-35.2,11-41.3-1.5c-0.3-0.6-1-0.9-1.6-0.9c-0.4,0-0.8,0-1.2,0c-0.6,0-1.3,0.4-1.6,0.9c-3.6,6.7-14,8.4-20.8,8.7
				c-8.1,0.4-16.9-0.7-23.7-5.4c-0.6-0.4-1.3-0.3-1.9,0c-5.8,3.2-12.6,4-18.9,2c-2.9-0.9-5.7-2.4-7.9-4.5c-1.1-1.1-1.8-3.1-3.3-3.8
				c-2.5-1.2-3.8,1.1-5.4,2.4c-5,4.4-12.2,4.8-18.4,3.1c-1.2-0.3-2.4,0.6-2.4,1.8v0.1c0.6-0.6,1.2-1.2,1.9-1.9
				c-30.6-0.1-61.2-0.1-91.8-0.2c-4.4,0-8.9,0.2-13.3,0c-0.1,0,1.1,1.2,0-0.3c-1.2-1.5-3.5-3.3-5.2-4.3c-0.7-0.5-1.2-0.8-2-1
				c-2.7-0.6-6.1-0.1-8.9-0.2c-17.5-0.3-35-0.7-52.5-1c-29.3-0.6-58.6-1.2-87.9-1.7c-37.2-0.7-74.3-1.5-111.5-2.2
				c-40.7-0.8-81.4-1.6-122.1-2.4c-40-0.8-79.9-1.6-119.9-2.4c-35-0.7-70.1-1.4-105.1-2.1c-25.8-0.5-51.6-1-77.3-1.5
				c-12.5-0.2-25.1-0.9-37.6-0.7c-0.6,0-1.1,0-1.7,0C20.7,47.6,20.7,51.4,23.1,51.4z"/>
		</g>
	</g>
</g>
</svg>
