<?xml version="1.0" encoding="utf-8"?>
<!-- Generator: Adobe Illustrator 21.0.2, SVG Export Plug-In . SVG Version: 6.00 Build 0)  -->
<svg version="1.1" id="Layer_1" xmlns="http://www.w3.org/2000/svg" xmlns:xlink="http://www.w3.org/1999/xlink" x="0px" y="0px"
	 viewBox="0 0 1133.9 114.2" style="enable-background:new 0 0 1133.9 114.2;" xml:space="preserve">
<style type="text/css">
	.st0{fill:#49323A;}
	.st1{fill:#28181D;}
	.st2{fill:#261D22;}
	.st3{fill:#231218;}
	.st4{fill:#1E0F12;}
	.st5{fill:#2C242D;}
	.st6{fill:#211A22;}
	.st7{fill:#2E2536;}
	.st8{fill:#352939;}
	.st9{fill:#2C1E28;}
	.st10{fill:#251822;}
	.st11{fill:#201418;}
	.st12{fill:#291C20;}
	.st13{fill:#1A1416;}
	.st14{fill:#745F6C;}
	.st15{fill:#837F85;}
	.st16{fill:#746168;}
	.st17{fill:#81797C;}
	.st18{fill:#908083;}
	.st19{fill:#815A6D;}
	.st20{fill:#654E5B;}
	.st21{fill:#927B82;}
	.st22{fill:#C4A9B6;}
	.st23{fill:#725962;}
	.st24{fill:#836A78;}
	.st25{fill:#908C93;}
	.st26{fill:#978B91;}
	.st27{fill:#907B88;}
	.st28{fill:#9A8B90;}
	.st29{fill:#8E7E83;}
	.st30{fill:#928896;}
	.st31{fill:#877C84;}
	.st32{fill:#1D191B;}
</style>
<g>
	<path class="st0" d="M1118.7,22.7c0,0,24.3,40.2-5.8,65.5c-2.7,2-5.4,4-8.1,6.1c0,0-9.7,6.6-28.8-12.7c0,0-1.3-2.2-15.7-2.8
		L885.6,81c-2.9,2-6.4,4.1-10.4,6c-8.9,4.2-17.2,5.7-23.3,6.3c-2.9,0.4-7.4,0.7-12.5-0.9c-11-3.3-16.3-12.3-17.5-14.7l-187.1-2.2
		c0,0-55.2-5-74.9-2.8c0,0-18.7,3.9-32.4-1.1l-282.9-2.2c0,0-50.6,2.8-68.3-3.9L17.2,61.1c0,0-11.6,0.6-11.6-13.8
		c0,0-0.6-12.1,9.9-12.1C56,36,96.6,36.8,137.1,37.6c4.9,1,10.2,1.8,15.7,2.4c15.5,1.7,29.6,1.4,41.6,0.1l213-0.6
		c3-0.9,7.9-1.9,13.9-1.5c5.4,0.4,9.7,1.9,12.5,3.1l98.5,0.6c3.1-1.2,8.3-2.7,14.8-2.5c5.6,0.1,10.1,1.4,13.1,2.5l40.7,1.7
		c0,0,42.6-6.1,84.2-5.5l135.1,1.7c0,0,6.1-12.1,24.2-6.1c1.8,0.7,4.2,1.5,7.1,1.7c5.4,0.5,9.7-1,11.9-1.9c3.3-1.4,7.8-2.8,13.1-3.4
		c11.4-1.2,20.5,2.1,25.1,4.1l159.1,5c0,0,10.2-11.6,22.2-8.8c1.2,0.2,3.9,0.6,7-0.5c3.8-1.4,5.7-4.1,6.4-5
		c5.1-7.2,12.7-10,17.7-7.6C1114.8,17.7,1117.1,19,1118.7,22.7z"/>
	<path class="st1" d="M1127.6,43c1,4.4,3.5,17.4-2.8,29.8c-3.7,7.3-9.4,12.8-11.1,14c-2.7,2-5.4,4-8.1,6.1c-1.8,0.5-4.6,1-8,0.8
		c-5-0.4-8.5-2.3-10.4-3.4c-5.5-3.1-8.8-7.4-10.4-10c-0.9-3.4-0.4-4.6,0.3-5.2c0.9-0.8,2-0.1,6.7,0.4c3,0.4,4.6,0.4,6.1,0.2
		c2.2-0.2,3.9-0.4,4.4-1.4c0.7-1.5-1.8-3.1-1.1-5.3c0.4-1.3,1.5-1.9,1.9-2.1c2-1,3.3,0.4,5-0.3c2-0.9,3.2-4.6,2.1-6.5
		c-0.9-1.6-2.6-0.9-5.9-3c-1.5-0.9-3.9-2.9-3.5-3.9c0.1-0.2,0.5-0.8,4.9-0.7c3,0.1,4.2,0.3,6.8,0.6c3.2,0.3,5.5,0.2,9.1,0.1
		c3-0.1,4.5-0.1,5.4-0.6c1.5-0.7,2.2-1.6,5.2-5.2C1125.7,45.3,1127,43.7,1127.6,43z"/>
	<path class="st1" d="M1068.5,34.2c-0.1-0.9,7.3-3.7,15.6-3.4c2.5,0.1,4.4,0.4,7-0.5c3.1-1.1,4.6-3.2,6.4-5
		c3.5-3.6,11.3-9.8,16.5-8.2c0.7,0.2,4.6,1.6,6.5,10.2c3.1,2.6,4.6,5.4,3.8,6.7c-0.9,1.4-4.7,1.3-7.2-0.4c-3.3-2.3-2.9-6.4-4.8-6.7
		c-1.9-0.3-2.3,3.7-6.8,6.2c-1,0.6-3.5,2-6.8,1.9c-2.6-0.1-3.5-1.2-5.5-0.6c-2.2,0.6-3.4,2.5-3.7,2.9c-1.7,2.7-0.4,4.9-2,6.1
		c-1.2,0.9-3.4,0.8-4.4-0.2c-1.6-1.6,0.3-4.3-1.2-6.1c-0.8-0.9-1.9-0.8-4.7-1.1C1076.4,35.9,1068.6,35.1,1068.5,34.2z"/>
	<path class="st2" d="M919.6,35.2c6.8,0.2,13.6,0.4,20.4,0.6c6.3,0.2,12.6,0.4,19,0.6c15.7,0.5,15.7,0.5,15.7,0.5
		c12.6,0,18.1-1.3,18.7,0.6c0.5,1.5-2.6,4.3-5.3,5.7c-4.8,2.4-8,0.6-14.3,1.4c-6.2,0.7-10.6,3.4-13.4,5.1
		c-2.8,1.7-9.1,5.5-13.2,12.7c-2.6,4.6-2.2,7-5.8,10.6c-3.5,3.6-7.1,4.4-7.9,4.6c-1.6,0.4-4.6,1-7.4-0.5c-3.1-1.7-4.2-5-5.3-8.6
		c-1.3-4.2-1.4-7.7-1.4-10.9c0-5.8,0.9-7.3,0.9-13C920.3,40.7,919.9,37.3,919.6,35.2z"/>
	<path class="st3" d="M856.5,35.8c1.9-0.5,4.7-1.1,8.1-2c8.6-2.1,10.9-3.1,13.1-3.4c8.4-0.9,15.6,0.6,20.6,2.4
		c-2.4,0.6-6,1.9-9.7,4.5c-1.9,1.3-4.5,3.2-6.7,6.5c-2.4,3.5-2.9,6.8-3.7,10.9c-1,5.6-1.5,8.5,0,11.3c1.1,2.1,2.1,1.8,4.9,5.6
		c2.2,3,3.5,4.7,3,6.5c-0.2,0.8-0.8,1.5-5.6,3.9c-3,1.5-4.8,2.4-8.1,3.7c-4.6,1.8-7,2.7-9.3,2.3c-0.9-0.1-4.2-0.6-5.8-3.2
		c-2.5-4,1-9.5,1.4-10.2c2-3.1,3.5-2.5,4.9-5.3c1.7-3.3-0.1-4.8,1.2-9.5c0.8-2.8,1.5-2.5,3.7-7.4s3.4-7.6,2.3-9.5
		c-1-1.6-2.8-1.3-6.7-2.8C860.7,38.9,858.1,37.1,856.5,35.8z"/>
	<path class="st4" d="M817.8,40.1c1.2,0,2.4,0,3.6,0c0,0,5.2-10.4,20.5-7.1c0.8,4.3,0.3,7.6-0.3,9.9c-0.8,3.2-1.9,4.2-1.9,6.9
		c0.1,4.1,2.6,7.2,3,7.6c3.1,3.7,6.2,2.8,7.4,5.8c1,2.5-1,3.4-0.5,7.4c0.6,3.9,2.8,4.6,2.3,7.2s-3.3,2.5-4.2,5.3
		c-0.9,3.1,1.7,5.1,0.7,6.7c-1.1,1.8-6,1.6-10-0.1c-5.2-2.3-15.6-6-15.5-11.7c0-0.8,0.6-2,1.7-4.4c2.2-4.8,3.6-5.1,4.4-7.9
		c0.6-1.9,1.9-6.4,0-11.1c-1.5-3.6-4.3-5.7-5.6-6.7c-3.8-2.9-7.3-3.4-7.4-5.3C816.1,41.6,817.1,40.7,817.8,40.1z"/>
	<path class="st5" d="M744.7,39.2c0.2-0.6,1.4,0,17.2,0.2c5.1,0.1,10.1,0.1,15.2,0.2c5.4,0.1,10.9,0.1,16.3,0.2
		c6.7,0.1,11.3-0.9,11.6,0.1c0.2,0.8-2.2,1.5-4.5,3.9c-3.4,3.6-3.2,7.1-4.4,8.9C790.5,61.3,743.6,42.8,744.7,39.2z"/>
	<path class="st6" d="M554.5,40.7c1.3,0.3,2.7,0.7,4.2,1.2c0.4,0.2,0.9,0.3,1.3,0.5l29.1,1.2c-1.3,1.5-8.8,10.4-17.5,11.3
		c-1.5,0.2-4.1,0.5-6.8-0.9c-1-0.5-2.3-1.4-5-5C558.2,47,556.3,44.2,554.5,40.7z"/>
	<path class="st7" d="M433.6,41.8c1-2.5,7.6-0.6,23.3,0.1c0,0,0,0,25.8,0.1c22.9,0.1,22.9,0.1,22.9,0.1c15.1-0.3,19.5-1.3,19.9,0.1
		c0.7,2.2-8.1,9.1-16.6,8.4c-2.6-0.2-6.9-1.3-10.4-2.4c-4.2-1.3-6.3-2.5-8.6-1.5c-2.1,0.9-1.6,2.4-4.2,4.2c-3.7,2.6-8.3,1.9-8.9,1.8
		c-2.9-0.5-3-1.7-6.2-2.7c-3.9-1.1-7.3-0.4-9.2,0c-6.4,1.4-7,4.4-11.6,4.5c-3.3,0-5.7-1.5-8-3C438.1,49.3,432.5,44.3,433.6,41.8z"/>
	<path class="st8" d="M194.1,40.7c10,0,19.9-0.1,29.9-0.1c6.9,0,13.9,0,20.8-0.1c15,0,22.6-0.1,22.6-0.1c15.7-0.6,22-2.2,22.9-0.1
		c0.7,1.9-3,5.8-7.1,7c-3.7,1-4.6-0.9-11.3-1.2c-3.2-0.1-7.7-0.2-12.2,2.1c-3,1.6-2.6,2.5-5,3.3c-4.2,1.3-8.6-0.6-11.6-1.8
		c-4.1-1.7-4.8-3-6.8-2.7c-2.9,0.5-3,3.4-5.9,4.2c-3,0.7-4.1-2-9.2-3.3c-3.3-0.8-3.4,0.2-10.4,0c-5.2-0.2-7.8-0.3-10.7-1.8
		C197,44.7,195.2,42.3,194.1,40.7z"/>
	<path class="st9" d="M219.7,68c-1,1.6-3.4,1.5-9.9,1.4c-13.3-0.1-10.7,0.4-14.7,0.1c-5-0.4-11.6-1.3-19.1-3.5
		c-8.8-0.2-17.6-0.5-26.5-0.7c-12.2-0.3-24.4-0.7-36.5-1c-1.3,0-15.4-0.4-43.6-1.2c-21.7-0.6-32.6-1-33.3-3.9
		c-0.7-2.8,5.2-7,10.3-8.8c4.1-1.4,6.3-1,16.9,0.3c0,0,8.6,0.7,20.5,1.2c8.3,0.3,12.5,0.5,15.4,0c6.8-1.1,8.5-2.8,14-2.4
		c4.3,0.3,3.9,1.5,10.7,2.7c5.1,0.9,8.8,1.5,12.8,0c3.6-1.3,3.2-2.8,6.2-3.6c4.4-1.2,6.8,1.4,13.1,3c1.5,0.4,1.6,0.3,14.6,0.6
		c9.9,0.2,14.9,0.4,16.3,0.6c7.8,1.2,9.4,3.1,14.3,2.1c4.1-0.9,5.2-2.7,8.3-2.1c3.7,0.7,6,4.1,7.4,6.2
		C218.2,60.9,221.3,65.5,219.7,68z"/>
	<path class="st10" d="M666.5,73.8c-1.5,2.8-7,2.5-10.7,2.4c-4.9-0.2-12-0.4-21.4-0.3c-15.1-1-30.3-2-45.4-3
		c0.7-2.5,2.4-7.2,6.5-11.6c1.7-1.8,4.6-4.8,9.2-6.2c4.8-1.5,9-0.4,17.5,1.8c7,1.8,8,2.9,12.5,3c4.3,0,4.6-1,9.5-0.9
		c4.7,0.1,9,1.2,11.3,1.8c4.3,1.1,5,1.8,7.7,1.8c3.7,0,5.9-1.2,6.5-0.3c0.7,1.1-2.3,3-3,7.4C666.5,72.1,667.1,72.7,666.5,73.8z"/>
	<path class="st11" d="M918,81c0,0-6.4,0.1-6.5,0.1c-7.2,0.1-7.2,0.1-7.2,0.1c-6.4,0.1-6.2,0-7.4,0.1c-3.2,0.3-4.2,0.8-4.6,0.3
		c-0.7-1,1.6-3,3.9-8.3c1.2-2.7,0.9-2.8,2.3-6c2-4.5,3-6.7,4.9-7.4c2.3-0.8,5.4,0.4,6.9,2.3c1.9,2.4,0.3,4.2,2.1,6.9
		c1.8,2.8,4.3,2.2,5.8,4.6C918.9,74.9,919.5,77.1,918,81z"/>
	<path class="st12" d="M1045.6,79.4c-5.2,0.1-10.3,0.1-15.5,0.2c-21.5,0.3-21.5,0.3-21.5,0.3c-7.3,0.1-14.7,0-22,0.3
		c-7.9,0.3-12.7,0.7-13.3-1c-0.4-1.3,2.4-2.7,7.5-8.8c4.1-4.9,4.4-6.7,4.4-7.9c0-3.6-2.9-5.4-2.1-6.7c0.8-1.3,3.9,0.2,10.4,0.5
		c3.9,0.1,3.9-0.4,8.3-0.2c4.1,0.1,9.3,0.4,10.2,2.8c0.5,1.3-0.7,2.3,0,3.2c1.1,1.4,4.4-0.3,5.6,1.2c1,1.2-0.7,2.9,0,4.2
		c1.2,2.2,6.8-0.9,13.9,0.7c5.2,1.2,8.5,4.2,9.5,5.1C1043.4,75.5,1044.8,77.8,1045.6,79.4z"/>
	<g>
		<g>
			<path class="st13" d="M1099.9,49.7c1.2,4.4,1.5,9.3,0.9,13.8c-1.7,11-10.2,16-20.8,16.5c-1.6,0.1-1.6,2.6,0,2.5
				c10.6-0.6,20.1-5.3,22.7-16.2c1.3-5.5,1.1-11.8-0.4-17.2C1101.8,47.5,1099.4,48.2,1099.9,49.7L1099.9,49.7z"/>
		</g>
	</g>
	<g>
		<g>
			<path class="st13" d="M818.6,43.8c3.2,2.9,6,6.4,8,10.2c5,9.5,1.4,17.5-7.7,22.6c-1.4,0.8-0.1,2.9,1.3,2.2
				c8.6-4.8,13.8-12.5,10.3-22.4c-1.9-5.4-5.7-10.5-10-14.4C819.2,41,817.4,42.7,818.6,43.8L818.6,43.8z"/>
		</g>
	</g>
	<g>
		<g>
			<path class="st13" d="M885.3,35.8c-13.6,4.8-15.1,24.4-14.2,36c0.1,1.6,2.6,1.6,2.5,0c-0.7-10.3,0.2-29.3,12.4-33.6
				C887.5,37.7,886.8,35.3,885.3,35.8L885.3,35.8z"/>
		</g>
	</g>
	<g>
		<g>
			<path class="st13" d="M976.4,79c11.8-1.4,22.6-9.1,30.2-17.8c1-1.2-0.7-3-1.8-1.8c-7,8.1-17.4,15.7-28.4,17
				C974.8,76.7,974.8,79.2,976.4,79L976.4,79z"/>
		</g>
	</g>
	<g>
		<g>
			<path class="st13" d="M973.4,41.8c-6.4,3.3-12.6,7.4-18.3,11.8c-7.7,6-16.3,13.7-18.1,23.8c-0.3,1.6,2.1,2.2,2.4,0.7
				c1.9-10.4,11.6-18.4,19.7-24.3c4.9-3.6,10.1-7,15.5-9.8C976.1,43.3,974.9,41.1,973.4,41.8L973.4,41.8z"/>
		</g>
	</g>
	<g>
		<g>
			<path class="st13" d="M739.9,71.2c-5.1-8.7-10.2-17.3-15.3-26c-0.8-1.4-3-0.1-2.2,1.3c5.1,8.7,10.2,17.3,15.3,26
				C738.6,73.9,740.8,72.6,739.9,71.2L739.9,71.2z"/>
		</g>
	</g>
	<g>
		<g>
			<path class="st13" d="M721.6,71c-8.7-8.7-17.5-17.3-26.2-26c-1.1-1.1-2.9,0.6-1.8,1.8c8.7,8.7,17.5,17.3,26.2,26
				C721,73.9,722.8,72.1,721.6,71L721.6,71z"/>
		</g>
	</g>
	<g>
		<g>
			<path class="st13" d="M689.6,68.6c-7-7.9-13.9-15.7-20.9-23.6c-1.1-1.2-2.8,0.6-1.8,1.8c7,7.9,13.9,15.7,20.9,23.6
				C688.9,71.6,690.7,69.8,689.6,68.6L689.6,68.6z"/>
		</g>
	</g>
	<g>
		<g>
			<path class="st13" d="M665.6,71.2c-6.3-9.6-12.6-19.3-18.9-28.9c-0.9-1.3-3-0.1-2.2,1.3c6.3,9.6,12.6,19.3,18.9,28.9
				C664.3,73.8,666.5,72.6,665.6,71.2L665.6,71.2z"/>
		</g>
	</g>
	<g>
		<g>
			<path class="st13" d="M529.1,48.2c-26,0-52.1,0-78.1,0c-3.8,0-7.5,0-11.3,0c-1.6,0-1.6,2.5,0,2.5c26,0,52.1,0,78.1,0
				c3.8,0,7.5,0,11.3,0C530.7,50.7,530.7,48.2,529.1,48.2L529.1,48.2z"/>
		</g>
	</g>
	<g>
		<g>
			<path class="st13" d="M403.6,44.6c-22.7,0-45.5,0-68.2,0c-36,0-72.1,0-108.1,0c-8.3,0-16.7,0-25,0c-1.6,0-1.6,2.5,0,2.5
				c22.7,0,45.5,0,68.2,0c36,0,72.1,0,108.1,0c8.3,0,16.7,0,25,0C405.2,47.1,405.2,44.6,403.6,44.6L403.6,44.6z"/>
		</g>
	</g>
	<g>
		<g>
			<path class="st13" d="M113.6,56.4c-26.7-1.2-53.4-2.4-80.2-3.5c-1.6-0.1-1.6,2.4,0,2.5c26.7,1.2,53.4,2.4,80.2,3.5
				C115.2,59,115.2,56.5,113.6,56.4L113.6,56.4z"/>
		</g>
	</g>
	<circle class="st14" cx="1115.1" cy="51.4" r="3.8"/>
	<circle class="st15" cx="1124" cy="47.6" r="3.8"/>
	<circle class="st16" cx="1099.5" cy="82.3" r="3.8"/>
	<circle class="st17" cx="1117.5" cy="63.6" r="3.8"/>
	<circle class="st18" cx="1067.9" cy="73.8" r="3.8"/>
	<circle class="st19" cx="1105.7" cy="43.9" r="3.8"/>
	<circle class="st20" cx="1111.4" cy="25.7" r="3.8"/>
	<g>
		<g>
			<path class="st21" d="M1092.9,56.4c-38.9-0.8-77.9-2-116.8-2.4c-10-0.1-19.4,4.4-23.7,13.8c-0.7,1.5,1.5,2.7,2.2,1.3
				c7.6-17,30.1-12.4,45-12.1c24.8,0.5,49.7,1,74.5,1.5c6.3,0.1,12.6,0.3,18.8,0.4C1094.6,58.9,1094.6,56.4,1092.9,56.4L1092.9,56.4
				z"/>
		</g>
	</g>
	<circle class="st22" cx="1070.8" cy="59.8" r="6.1"/>
	<circle class="st22" cx="1079.1" cy="58" r="3.8"/>
	<circle class="st22" cx="1084.7" cy="57.1" r="2.9"/>
	<circle class="st22" cx="1013.4" cy="52.3" r="2.9"/>
	<circle class="st23" cx="970.7" cy="74.5" r="2.9"/>
	<circle class="st24" cx="966.4" cy="65.5" r="2.9"/>
	<circle class="st25" cx="939.2" cy="53.2" r="2.9"/>
	<circle class="st26" cx="905.3" cy="41.5" r="2.9"/>
	<circle class="st27" cx="894" cy="50.3" r="2.9"/>
	<g>
		<g>
			<path class="st28" d="M887.2,46.2c-7.9,3.2-8.3,15.5-8.1,22.3c0.1,1.6,2.6,1.6,2.5,0c-0.2-5.5-0.1-11.6,2.9-16.4
				c0.7-1.1,1.4-2,2.4-2.9c0.2-0.2,1.4-0.9,1-0.7C889.3,48,888.7,45.6,887.2,46.2L887.2,46.2z"/>
		</g>
	</g>
	<circle class="st29" cx="867.2" cy="50.3" r="2.1"/>
	<circle class="st29" cx="837.7" cy="82.4" r="2.1"/>
	<circle class="st29" cx="852.9" cy="80.3" r="2.1"/>
	<circle class="st29" cx="848.8" cy="48.2" r="2.1"/>
	<circle class="st29" cx="860" cy="64.5" r="2.1"/>
	<circle class="st29" cx="864.2" cy="70.6" r="2.1"/>
	<circle class="st29" cx="853.6" cy="58" r="2.1"/>
	<circle class="st29" cx="837.7" cy="66.6" r="2.1"/>
	<g>
		<g>
			<path class="st21" d="M825.7,58.8c-27.3,0-54.6,0-82,0c-18.9,0-37.9,0-56.8,0c-9.2,0-18.9,1-28,0c-6.1-0.7-15.5-3.5-22.7-4.5
				c-13.9-1.9-29.1-2.7-42.5,2.4c-1.5,0.6-0.8,3,0.7,2.4c12.7-4.9,27-4.2,40.2-2.5c8,1,15.8,3.5,23.7,4.6c7.6,1.1,16.1,0.1,23.7,0.1
				c37.6,0,75.1,0,112.7,0c10.3,0,20.6,0,30.9,0C827.3,61.3,827.3,58.8,825.7,58.8L825.7,58.8z"/>
		</g>
	</g>
	<circle class="st29" cx="752.4" cy="56.3" r="3.8"/>
	<circle class="st29" cx="714.9" cy="70.2" r="3.8"/>
	<circle class="st29" cx="678.1" cy="70.2" r="3.8"/>
	<g>
		<g>
			<path class="st21" d="M734.4,64.1c-3.9-5.4-7.9-10.9-11.8-16.3c-0.9-1.3-3.1,0-2.2,1.3c3.9,5.4,7.9,10.9,11.8,16.3
				C733.2,66.7,735.4,65.4,734.4,64.1L734.4,64.1z"/>
		</g>
	</g>
	<g>
		<g>
			<path class="st21" d="M717.9,59.2c-3.6-4.5-7.3-9-10.9-13.5c-1-1.3-2.8,0.5-1.8,1.8c3.6,4.5,7.3,9,10.9,13.5
				C717.1,62.2,718.9,60.4,717.9,59.2L717.9,59.2z"/>
		</g>
	</g>
	<g>
		<g>
			<path class="st21" d="M700.7,59.5c-2.6-3.9-5.2-7.8-7.8-11.7c-0.9-1.3-3.1-0.1-2.2,1.3c2.6,3.9,5.2,7.8,7.8,11.7
				C699.4,62,701.6,60.8,700.7,59.5L700.7,59.5z"/>
		</g>
	</g>
	<g>
		<g>
			<path class="st21" d="M685.4,59.5c-2.7-4.9-5.3-9.8-8-14.8c-0.8-1.4-2.9-0.2-2.2,1.3c2.7,4.9,5.3,9.8,8,14.8
				C684,62.1,686.2,60.9,685.4,59.5L685.4,59.5z"/>
		</g>
	</g>
	<g>
		<g>
			<path class="st21" d="M675.4,59.5c-2.3-3.3-4.6-6.7-6.9-10c-0.9-1.3-3.1-0.1-2.2,1.3c2.3,3.3,4.6,6.7,6.9,10
				C674.2,62,676.4,60.8,675.4,59.5L675.4,59.5z"/>
		</g>
	</g>
	<circle class="st29" cx="645.8" cy="54.2" r="3.8"/>
	<circle class="st29" cx="619.2" cy="50.5" r="3.8"/>
	<circle class="st22" cx="593" cy="58" r="3.8"/>
	
		<ellipse transform="matrix(0.9988 -4.810917e-02 4.810917e-02 0.9988 -1.7399 28.7062)" class="st29" cx="595.5" cy="50.5" rx="3.8" ry="3.8"/>
	<circle class="st29" cx="582.3" cy="55.1" r="2.1"/>
	<circle class="st29" cx="566.2" cy="59.7" r="2.1"/>
	
		<ellipse transform="matrix(0.9988 -4.810917e-02 4.810917e-02 0.9988 -1.7842 26.8637)" class="st22" cx="557.2" cy="50.5" rx="2.7" ry="2.7"/>
	<g>
		<g>
			<path class="st21" d="M558.8,72.2c1.5-1.8,1.3-4.4,0.7-6.5c-2.4-7.8-11.1-13.3-17.4-17.4c-1.2-0.8-2.5,1-1.5,2
				c5,4.9,7.6,12.2,3.5,18.4c-0.9,1.3,1.3,2.6,2.2,1.3c4.7-7.2,1.9-15.7-3.9-21.4c-0.5,0.7-1,1.3-1.5,2c5.7,3.7,13.6,8.6,16.1,15.4
				c0.4,1.1,0.7,2.3,0.5,3.5c-0.1,0.4-0.7,1.4-0.3,1C556,71.7,557.8,73.4,558.8,72.2L558.8,72.2z"/>
		</g>
	</g>
	<circle class="st22" cx="543.1" cy="55.9" r="3.8"/>
	
		<ellipse transform="matrix(0.9988 -4.810917e-02 4.810917e-02 0.9988 -2.3917 25.8242)" class="st29" cx="535.3" cy="62.6" rx="2.7" ry="2.7"/>
	<g>
		<g>
			<path class="st21" d="M522.5,46.7c-1.3,10.9-22.2,8-30,8c-15.6,0-31.3,0-46.9,0c-8.5,0-16.3-1.4-21.3-9.5c-0.8-1.4-3-0.1-2.2,1.3
				c8.7,14.2,27.2,10.7,41.3,10.7c15.5,0,31.1,0.4,46.7,0c6.4-0.2,14.1-3.2,14.9-10.5C525.2,45.1,522.7,45.1,522.5,46.7L522.5,46.7z
				"/>
		</g>
	</g>
	<g>
		<g>
			<path class="st21" d="M407.1,53.2c-12.7-0.7-25.5-1.3-38.2-2c-1.6-0.1-1.6,2.4,0,2.5c12.7,0.7,25.5,1.3,38.2,2
				C408.7,55.8,408.7,53.3,407.1,53.2L407.1,53.2z"/>
		</g>
	</g>
	<g>
		<g>
			<path class="st21" d="M368.9,56.9c-11-0.8-22.1-1.6-33.1-2.4c-5.7-0.4-11.5-0.8-17.2-1.2c-5.5-0.4-8.4-1.4-10-7.9
				c-0.4-1.6-2.8-0.9-2.4,0.7c1.5,6.1,5.1,9.4,10.2,9.5c4.9,0.2,9.8,0.7,14.7,1c12.6,0.9,25.2,1.8,37.8,2.7
				C370.5,59.5,370.5,57,368.9,56.9L368.9,56.9z"/>
		</g>
	</g>
	<g>
		<g>
			<path class="st30" d="M289.4,52.2c-6.6-0.5-13.2-1-19.8-1.4c-1.6-0.1-1.6,2.4,0,2.5c6.6,0.5,13.2,1,19.8,1.4
				C291,54.8,291,52.3,289.4,52.2L289.4,52.2z"/>
		</g>
	</g>
	<g>
		<g>
			<path class="st31" d="M216.1,51.5c-20.4-1.5-40.9-2.8-61.3-4c-33.2-2-66.4-4.1-99.6-4.6c-5.8-0.1-11.6-0.2-17.4,0.1
				c-2.6,0.1-6.1-0.1-8.5,1.2c-1.4,0.8-0.1,2.9,1.3,2.2c1.8-1,5.2-0.8,7.3-0.9c4.9-0.2,9.9-0.2,14.9-0.1C67.9,45.6,83,46.2,98,46.9
				c32.1,1.5,64.2,3.5,96.3,5.6c7.3,0.5,14.6,1,21.9,1.5C217.7,54.1,217.7,51.6,216.1,51.5L216.1,51.5z"/>
		</g>
	</g>
	<g>
		<g>
			<path class="st21" d="M262.9,52.9c-3.1,0-6.1,0-9.2,0c-0.4,0-0.9,0.2-1.1,0.6c-2,4.4-6.2,8.3-11.1,8.7c-5.5,0.5-11-2.8-10.7-8.8
				c0-0.7-0.6-1.2-1.2-1.2c-2.1,0-4.3,0-6.4,0c-1.6,0-1.6,2.5,0,2.5c2.1,0,4.3,0,6.4,0c-0.4-0.4-0.8-0.8-1.2-1.2
				c-0.5,9,9.5,13.3,17.1,10.4c3.1-1.2,8-4.7,8.9-8.2c0.3-1.1,0.7-0.5-0.5-0.3c0.9-0.2,2.1,0,3,0c2,0,4,0,6,0
				C264.5,55.4,264.5,52.9,262.9,52.9L262.9,52.9z"/>
		</g>
	</g>
	
		<ellipse transform="matrix(0.9988 -4.810917e-02 4.810917e-02 0.9988 -2.2764 12.2185)" class="st22" cx="252.7" cy="53.4" rx="2.7" ry="2.7"/>
	
		<ellipse transform="matrix(0.9988 -4.810917e-02 4.810917e-02 0.9988 -2.6588 11.1302)" class="st22" cx="229.9" cy="60.8" rx="2.7" ry="2.7"/>
	
		<ellipse transform="matrix(0.9988 -4.810917e-02 4.810917e-02 0.9988 -2.2654 11.2748)" class="st22" cx="233.1" cy="52.7" rx="2.7" ry="2.7"/>
	<g>
		<g>
			<path class="st32" d="M1117.1,23.7c5.5,9.2,8.9,20.7,9,31.4c0.1,10-3.1,19.6-9.8,27.2c-3.3,3.8-8,8.3-12.6,10.4
				c-1,0.5-2,0.7-3.1,0.8c-8.6,0.6-16.6-7-22.4-12.3c-3.1-2.8-6.7-3.3-10.8-3.7c-6-0.7-11.9-0.4-17.8-0.4
				c-49.5,0.6-98.9,1.2-148.4,1.9c-4.8,0.1-11.2-1-15.9,0.2c-2.1,0.6-4.3,2.6-6.2,3.7c-3.5,2-7.2,3.6-11,5c-5.8,2-11.9,3.3-18,3.8
				c-11.3,0.8-21.2-5.1-26.7-14.8c-0.3-0.6-1-0.9-1.6-0.9c-51.3-0.6-102.6-1.2-153.9-1.8c-16.2-0.2-32.2-0.4-48.3-1.6
				c-18.7-1.4-37.7-3.1-56.4-1.8c-7.7,0.5-15.1,2.1-23,1.6c-4.9-0.3-9.4-2.1-14.2-2.4c-17.8-1.2-36-0.3-53.8-0.4
				c-32.1-0.3-64.3-0.5-96.4-0.8c-30.7-0.2-61.4-0.5-92.2-0.7c-13.2-0.1-26.4-0.6-39.6-0.3c-15.5,0.3-30.9,1-46.4-0.2
				c-9.6-0.7-18.5-3.6-28-3.9c-28.6-0.8-57.2-1.6-85.8-2.4c-22.2-0.6-44.5-0.3-66.7-1.8c-6.6-0.5-9.8-5.4-9.8-11.9
				c0-2.3,0.3-4.8,1.6-6.7c3.7-6.2,15.9-3.3,22-3.2c17.7,0.4,35.4,0.7,53.1,1.1c16.9,0.3,34,0,50.8,1c7.4,0.4,14.7,2.2,22.2,2.8
				c7.8,0.7,15.7,0.9,23.5,0.7c5.2-0.2,10.3-0.8,15.5-0.9c7.6-0.2,15.3,0,22.9-0.1c30.8-0.1,61.6-0.2,92.4-0.2
				c27.9-0.1,55.8-0.1,83.7-0.2c5.7,0,10.9,0.1,16.4-1c7.3-1.4,13.7,0.1,20.7,2.1c1.4,0.4,1.9,0.5,3.2,0.5c4.5,0.3,9.1,0.1,13.6,0.1
				c16.3,0.1,32.6,0.2,48.9,0.3c11.1,0.1,22.6,1.1,33.7,0.2c1.6-0.1,3-0.7,4.6-1.2c7.7-2.1,14.8-1.3,22.4,0.7c4.7,1.2,10.1,0.8,15,1
				c10.7,0.4,21.7,1.8,32.4,0.5c64.1-8,129.4-4.2,193.8-3.5c6.8,0.1,13.7,0.2,20.5,0.3c0.6,0,1.3-0.4,1.6-0.9
				c6.5-12.5,21.8-3.4,31.7-3.3c9.1,0.1,17-5.2,26.2-5.6c4.9-0.2,9.8,0.4,14.5,1.7c2.5,0.7,5,2.1,7.5,2.6c3.3,0.6,7,0.2,10.4,0.3
				c8.5,0.3,16.9,0.5,25.4,0.8c39.7,1.2,79.5,2.5,119.2,3.7c1.2,0,2.8,0.4,4,0.1c1.1-0.3,1.2-0.6,2.1-1.3c2.6-2,4.8-4.2,7.8-5.7
				c8.1-4.1,17.1,1.1,24.4-5c3.2-2.7,5-6.5,8.6-8.7C1108.9,17.1,1114.1,17.8,1117.1,23.7c1.1,2.1,4.4,0.2,3.2-1.9
				c-2.7-5.2-7.3-8.1-13.3-6.8c-3.1,0.7-5.9,2.3-8.3,4.3c-3,2.6-4.8,6.6-8.4,8.4c-4.5,2.3-8.9,0.1-13.6,0.6
				c-3.3,0.4-6.5,1.6-9.4,3.3c-2.3,1.3-4.5,2.9-6.4,4.7c-0.5,0.5-1,0.9-1.4,1.4c-0.6,0.6,1.5-0.4,0.9-0.3c-4,0.4-8.3-0.3-12.3-0.4
				c-8.9-0.3-17.7-0.6-26.6-0.8c-23.6-0.7-47.2-1.5-70.8-2.2c-15.7-0.5-31.6-0.2-47.2-1.5c-1.9-0.2-2.1-0.2-3.9-1
				c-7.9-3.3-17.2-4.1-25.6-2.8c-9.7,1.5-17.3,6.9-27.4,4c-6.7-2-13.3-3.7-20-0.7c-2.1,0.9-7.2,3.7-7.7,6.4c-0.2,1.2,1.1-0.2,1-0.4
				c-0.3-0.2-1.6,0-2,0c-6.5-0.1-13-0.2-19.5-0.2c-37.7-0.5-75.4-0.9-113.1-1.4c-18.5-0.2-37,0.7-55.5,2.3
				c-7.2,0.6-14.3,1.4-21.4,2.2c-1.9,0.2-3.9,0.5-5.8,0.7c-0.6,0.1-2.6,0.2-1.9,0.2c-9.2,0.3-18.6-0.8-27.8-1.1
				c-4-0.2-8.2,0.1-12.1-0.5c-2.4-0.4-4.8-1.5-7.4-1.9c-4.3-0.8-8.8-0.8-13.1-0.2c-3.5,0.5-6.5,1.9-9.9,2.1c-3,0.2-6,0-9-0.1
				C511,40,500.6,40,490.2,39.9c-11.7-0.1-23.4-0.1-35.1-0.2c-6.7,0-14,0.8-20.6-0.1c-1.1-0.1-1.5-0.5-2.7-0.9
				c-4.3-1.6-8.9-2.3-13.5-2.3c-4,0-7.7,1.1-11.7,1.6c-3.7,0.4-7.7,0-11.4,0c-18.3,0-36.6,0.1-54.9,0.1
				c-43.2,0.1-86.5,0.2-129.7,0.3c-15.5,0-31.1,1.6-46.6,0.8c-11.3-0.6-22.4-3.2-33.7-3.4c-12.2-0.2-24.3-0.5-36.5-0.7
				c-24-0.5-47.9-1-71.9-1.4c-6.6-0.1-13.4-0.8-16.8,6C3.4,43,3.2,47,3.7,50.7c1,7.4,6,12.1,13.4,12.5c13.1,0.7,26.3,0.7,39.4,1.1
				c23.4,0.6,46.9,1.3,70.3,1.9c15.7,0.4,31.6,0.2,47.2,1.3c1.8,0.1,2.9,0.5,4.8,1c5.7,1.5,11.6,2.1,17.4,2.6
				c13.3,1.1,26.7,1,40,0.6c6.9-0.2,13.8-0.3,20.7-0.2c38.8,0.3,77.7,0.6,116.5,0.9c42.8,0.3,85.5,0.7,128.3,1
				c8.1,0.1,17.2-1,25.2,0.2c2,0.3,4,1.2,6,1.6c4.4,0.8,8.9,1,13.3,0.9c4.8-0.1,9.3-0.9,14-1.5c12.9-1.5,26.5-0.3,39.4,0.4
				c13.3,0.7,26.5,2.4,39.8,2.5c16.5,0.2,33.1,0.4,49.6,0.6c41.6,0.5,83.1,1,124.7,1.5c2,0,4,0.2,6,0.1c0.5,0,0.9,0,1.4,0
				c0.1,0,0.2,0,0.3,0c-2.1-0.5-1.1-0.8-0.7,0.5c1.5,4.9,8.6,9.9,12.8,12c7.2,3.7,14.9,3.6,22.7,2.4c9.1-1.4,18-4.6,25.9-9.3
				c2.7-1.6,2.5-2.1,5-2.4c5.3-0.7,11.1-0.1,16.5-0.2c43.5-0.5,87.1-1.1,130.6-1.6c11.8-0.1,26.5-2.2,38.1,1.1
				c0.9,0.2,2.3,0.9,1.8,0.6c3.7,2.6,6.6,6.3,10.4,8.9c4.3,2.9,9.5,5.6,14.8,5.6c2.1,0,4.2-0.3,6-1.3c6.9-3.7,13.6-10.2,17.7-16.8
				c10.8-17.1,6.9-40.6-3.1-57.3C1119.1,19.7,1115.9,21.6,1117.1,23.7z"/>
		</g>
	</g>
</g>
</svg>
