<?xml version="1.0" encoding="utf-8"?>
<!-- Generator: Adobe Illustrator 21.0.2, SVG Export Plug-In . SVG Version: 6.00 Build 0)  -->
<svg version="1.1" id="Layer_1" xmlns="http://www.w3.org/2000/svg" xmlns:xlink="http://www.w3.org/1999/xlink" x="0px" y="0px"
	 viewBox="0 0 1133.9 96.9" style="enable-background:new 0 0 1133.9 96.9;" xml:space="preserve">
<style type="text/css">
	.st0{fill:#DEBD63;}
	.st1{fill:#A78538;}
	.st2{fill:#F4D58C;}
	.st3{fill:#FDE8A9;}
	.st4{fill:#68471B;}
	.st5{fill:#C5AB64;}
	.st6{fill:#F0CC8C;}
	.st7{fill:#CFB670;}
	.st8{fill:#D6BC84;}
	.st9{fill:#FFEABA;}
	.st10{fill:#CFAB60;}
	.st11{fill:#A69040;}
	.st12{fill:#FCE1A6;}
	.st13{fill:#F8DFA6;}
	.st14{fill:#E9CC83;}
	.st15{fill:#EFD79A;}
	.st16{fill:#C4AF76;}
	.st17{fill:#FFE198;}
	.st18{fill:#1D191B;}
</style>
<g>
	<g>
		<path class="st0" d="M21.2,72.9C21.2,72.9,4,69,5.8,44s13.3-23.3,13.3-23.3s10-2.1,14,2.3l6.4,0.3c0,0,7.4-4.1,17.8,0.6l54.3,1.6
			c0,0,22.8-8,30.4,0.8h15.6c0,0,9.3-5.8,15.8,0.3H187c0,0,17.9-10.6,26.5,0l69.2-0.7c0,0,25.3-13,31.9-0.3h22.3
			c0,0,21.1-11.2,32.7-0.3l72.7,0.3c0,0,14.2-6.5,22.7,0.3l13,0.3c0,0,37.8-12.6,44.9,2.7l87.9,0.7c0,0,19.4-10.6,28.9,0l5,0.7
			l467.2,11c0,0,14.8-1.9,14.8,10.9s-14.8,10.5-14.8,10.5l-419.6,7.5c0,0-16.6,6-24.9,0.8l-76.5-1.1c0,0-17.9,11.3-24.8,0.8
			l-121.2,0.8c0,0-16.3,8.3-22.6,0l-86.9,0.8c0,0-14.3,8.7-18.8,0l-50.9,0.8c0,0-14.8,9.4-20.2-1.1L90.2,70.1c0,0-8.6,5.7-16,0.4
			l-34.9-0.8C39.3,69.5,39.9,75.5,21.2,72.9z"/>
	</g>
	<path class="st1" d="M7.7,36.5c-0.4,2.2-0.7,4.6-0.9,7.4l1120.9,8.3c0-12.8-14.8-10.9-14.8-10.9L645.7,30.4l-5-0.7
		c-9.6-10.6-28.9,0-28.9,0L523.9,29c-7.2-15.3-44.9-2.7-44.9-2.7L466,26c-8.5-6.8-22.7-0.3-22.7-0.3l-72.7-0.3
		c-11.6-10.9-32.7,0.3-32.7,0.3h-22.4c-6.6-12.6-31.9,0.3-31.9,0.3l-69.2,0.7c-8.6-10.6-26.5,0-26.5,0h-13.6
		c-6.5-6.1-15.8-0.3-15.8-0.3h-15.6c-7.5-8.9-30.4-0.8-30.4-0.8L58.2,24c-10.4-4.7-17.8-0.6-17.8-0.6L34,23.1c-4-4.4-14-2.3-14-2.3
		S10.9,19.3,7.7,36.5"/>
	<g>
		<g>
			<path class="st2" d="M1093.1,51.2c-78.3,0.1-156.5,0.1-234.8,0.2c-1.6,0-1.6,2.5,0,2.5c78.3-0.1,156.5-0.1,234.8-0.2
				C1094.7,53.7,1094.7,51.2,1093.1,51.2L1093.1,51.2z"/>
		</g>
	</g>
	<path class="st1" d="M6.1,43.4h26.8c0,0-3.2,22.9,7.9,25.7c0,0-4.6,7.1-21.7,1.9C19.2,71,2.4,57.3,6.1,43.4z"/>
	<g>
		<g>
			<path class="st3" d="M35.1,47.2c6.9,0.1,13.8,0.1,20.8,0.2c18.7,0.1,37.4,0.3,56.2,0.4c27.8,0.2,55.6,0.4,83.4,0.6
				c33.8,0.3,67.5,0.5,101.3,0.8c37,0.3,74,0.6,110.9,0.9c37.5,0.3,75,0.6,112.5,0.9c34.8,0.3,69.6,0.5,104.4,0.8
				c29.6,0.2,59.1,0.5,88.7,0.7c21.2,0.2,42.3,0.3,63.5,0.5c10,0.1,20.2,0.6,30.2,0.2c0.4,0,0.9,0,1.3,0c2.4,0,2.4-3.7,0-3.8
				c-6.9-0.1-13.8-0.1-20.8-0.2c-18.7-0.1-37.4-0.3-56.2-0.4c-27.8-0.2-55.6-0.4-83.4-0.6c-33.8-0.3-67.5-0.5-101.3-0.8
				c-37-0.3-74-0.6-110.9-0.9c-37.5-0.3-75-0.6-112.5-0.9c-34.8-0.3-69.6-0.5-104.4-0.8c-29.6-0.2-59.1-0.5-88.7-0.7
				c-21.2-0.2-42.3-0.3-63.5-0.5c-10-0.1-20.2-0.6-30.2-0.2c-0.4,0-0.9,0-1.3,0C32.7,43.4,32.7,47.1,35.1,47.2L35.1,47.2z"/>
		</g>
	</g>
	<g>
		<g>
			<path class="st4" d="M27.9,70.9c-8.5-3.3-9.3-19.4-9.1-27c0.2-7,2.6-21.2,12.4-21.1c1.6,0,1.6-2.5,0-2.5
				C20.5,20.2,16.9,34,16.4,42.2c-0.6,9.1,0.1,26.9,10.8,31.1C28.7,73.9,29.4,71.5,27.9,70.9L27.9,70.9z"/>
		</g>
	</g>
	<g>
		<g>
			<path class="st4" d="M41.9,71.3c-16.3-14.1-11.2-39.9,9.5-46.4c1.5-0.5,0.9-2.9-0.7-2.4c-22.3,7-28.4,35.2-10.6,50.6
				C41.3,74.1,43.1,72.3,41.9,71.3L41.9,71.3z"/>
		</g>
	</g>
	<g>
		<g>
			<path class="st4" d="M79.7,70.3c8-16.9,19.4-31.8,33.6-44c1.2-1.1-0.6-2.8-1.8-1.8c-14.4,12.3-25.9,27.4-34,44.6
				C76.9,70.5,79.1,71.8,79.7,70.3L79.7,70.3z"/>
		</g>
	</g>
	<g>
		<g>
			<path class="st4" d="M87.8,72c9.5-19.1,23.3-35.4,40.7-47.6c1.3-0.9,0.1-3.1-1.3-2.2c-17.8,12.5-32,29-41.6,48.5
				C84.9,72.2,87.1,73.5,87.8,72L87.8,72z"/>
		</g>
	</g>
	<g>
		<g>
			<path class="st4" d="M101.3,63.4c3.9-5.5,8.1-10.7,12.4-15.8c6.9-7.9,14.6-16.6,24.2-21.1c1.5-0.7,0.2-2.8-1.3-2.2
				c-9.8,4.6-17.7,13.4-24.7,21.5c-4.5,5.2-8.8,10.6-12.8,16.3C98.2,63.5,100.4,64.7,101.3,63.4L101.3,63.4z"/>
		</g>
	</g>
	<g>
		<g>
			<path class="st4" d="M168.1,25.4c7.4,3.5-5.4,10.7-8.5,12.3c-1.4,0.7-0.2,2.9,1.3,2.2c4.8-2.4,18.7-11.7,8.5-16.6
				C167.9,22.6,166.6,24.7,168.1,25.4L168.1,25.4z"/>
		</g>
	</g>
	<g>
		<g>
			<path class="st4" d="M183.6,62.7c0.4-9.6,3.5-20.5,9.9-27.9c2.6-3,5.8-5.4,9.4-6.9c1.9-0.8,4-1.4,6.1-1.5
				c2.4-0.2,4.1,0.9,6.4,1.4c5.4,1.2,10.8-1.8,15.9,1c8.3,4.6,9,14.5,4.3,21.9c-0.9,1.4,1.3,2.6,2.2,1.3c6.2-9.8,3-25.3-10.2-27
				c-3.9-0.5-7.5,1.3-11.5,0.4c-2.7-0.6-4.4-1.8-7.3-1.5c-4.5,0.6-8.8,2.1-12.4,4.8c-10.2,7.4-14.8,21.7-15.3,33.9
				C181,64.3,183.5,64.3,183.6,62.7L183.6,62.7z"/>
		</g>
	</g>
	<g>
		<g>
			<path class="st4" d="M249.5,73.4c4.3-27.4,25.3-47.2,52.3-52c1.6-0.3,0.9-2.7-0.7-2.4c-27.8,4.9-49.7,25.6-54.1,53.7
				C246.8,74.3,249.2,75,249.5,73.4L249.5,73.4z"/>
		</g>
	</g>
	<g>
		<g>
			<path class="st4" d="M270.3,71.9c2-12,8.5-22.7,18.4-29.8c1.3-0.9,0.1-3.1-1.3-2.2c-10.5,7.5-17.5,18.6-19.6,31.3
				C267.6,72.8,270,73.5,270.3,71.9L270.3,71.9z"/>
		</g>
	</g>
	<g>
		<g>
			<path class="st4" d="M297,61.1c4-12.7,10.9-24.1,20.3-33.6c1.1-1.1-0.6-2.9-1.8-1.8c-9.6,9.8-16.7,21.6-20.9,34.7
				C294.1,62,296.5,62.6,297,61.1L297,61.1z"/>
		</g>
	</g>
	<g>
		<g>
			<path class="st4" d="M325.3,68.3c0.4-21,13.8-39.4,33.9-45.7c1.5-0.5,0.9-2.9-0.7-2.4c-21.2,6.7-35.3,26-35.7,48.2
				C322.8,69.9,325.3,69.9,325.3,68.3L325.3,68.3z"/>
		</g>
	</g>
	<g>
		<g>
			<path class="st4" d="M362.5,70.6c-6.8-6.9-5.2-18.4,3.1-23.2c1.4-0.8,0.1-3-1.3-2.2c-9.7,5.7-11.5,19.1-3.6,27.1
				C361.8,73.5,363.6,71.8,362.5,70.6L362.5,70.6z"/>
		</g>
	</g>
	<g>
		<g>
			<path class="st4" d="M374.9,71.2c8.4-6.8,10.5-21.1-2.5-23.7c-1.6-0.3-2.2,2.1-0.7,2.4c11.3,2.3,8.3,13.9,1.4,19.5
				C371.9,70.4,373.7,72.2,374.9,71.2L374.9,71.2z"/>
		</g>
	</g>
	<g>
		<g>
			<path class="st4" d="M356.1,35.7c5.9-6.6,17.6-8.4,25.8-9.2c9.6-0.9,19.7-0.8,29.4-0.8c11.2-0.1,20.4,3.3,26.5,13.2
				c0.8,1.4,3,0.1,2.2-1.3c-4.9-7.9-12.1-13-21.4-14.1c-5.5-0.7-11.1-0.2-16.6,0c-6.2,0.2-12.3-0.1-18.5,0.4
				c-9.3,0.7-22.4,2.7-29.1,10.1C353.2,35.1,355,36.9,356.1,35.7L356.1,35.7z"/>
		</g>
	</g>
	<g>
		<g>
			<path class="st4" d="M422.7,72.4c19.4-4.2,36.1-21.7,47.2-36.9c1-1.3-1.2-2.5-2.2-1.3C456.9,48.9,440.8,65.9,422,70
				C420.5,70.3,421.2,72.7,422.7,72.4L422.7,72.4z"/>
		</g>
	</g>
	<g>
		<g>
			<path class="st4" d="M444.8,73c10.6-6.1,19.7-14.1,27.3-23.7c7.9-9.9,16.9-18.2,27.5-25c1.3-0.9,0.1-3-1.3-2.2
				c-9.9,6.4-18.9,14-26.3,23.2c-8.2,10.2-17.1,18.9-28.5,25.5C442.1,71.6,443.4,73.8,444.8,73L444.8,73z"/>
		</g>
	</g>
	<g>
		<g>
			<path class="st4" d="M439.2,27c3.4-0.9,7.6-0.4,10.3,2.1c4.4,4.1,3.4,10.8,0.3,15.3c-0.9,1.3,1.3,2.6,2.2,1.3
				c3.6-5.2,4.4-12.6,0-17.6c-3.3-3.7-8.7-4.7-13.4-3.5C437,25,437.6,27.4,439.2,27L439.2,27z"/>
		</g>
	</g>
	<g>
		<g>
			<path class="st4" d="M673.1,72.6c10.3-5.7,20.6-13.9,26.4-24.3c0.8-1.4-1.4-2.7-2.2-1.3c-5.6,10.1-15.5,17.9-25.5,23.4
				C670.5,71.2,671.7,73.3,673.1,72.6L673.1,72.6z"/>
		</g>
	</g>
	<g>
		<g>
			<path class="st4" d="M632.3,68.4c-10.9,1.1-21.5-3.4-28.1-12.2c-0.5-0.7-1.7-0.9-2.2,0c-2.6,4.7-5.9,8.8-9.9,12.4
				c-1.2,1.1,0.6,2.8,1.8,1.8c4.2-3.7,7.6-8,10.3-12.9c-0.7,0-1.4,0-2.2,0c7.1,9.5,18.4,14.6,30.2,13.4
				C633.9,70.7,633.9,68.2,632.3,68.4L632.3,68.4z"/>
		</g>
	</g>
	<g>
		<g>
			<path class="st4" d="M568.3,71.3C580.2,53,597,38.6,616.8,29.6c1.5-0.7,0.2-2.8-1.3-2.2c-20.2,9.2-37.3,23.9-49.4,42.6
				C565.3,71.4,567.4,72.6,568.3,71.3L568.3,71.3z"/>
		</g>
	</g>
	<g>
		<g>
			<path class="st4" d="M467.2,71.6c7.3-8.9,15-17.5,23.5-25.3c7.2-6.6,14.6-10.9,24.5-11.5c1.6-0.1,1.6-2.6,0-2.5
				c-8.8,0.5-16.2,3.7-23,9.3c-9.9,8.2-18.6,18.2-26.8,28.2C464.4,71.1,466.2,72.8,467.2,71.6L467.2,71.6z"/>
		</g>
	</g>
	<g>
		<g>
			<path class="st4" d="M500.5,54.9c14.6-6.2,31.7-2.9,43,8.3c1.1,1.1,2.9-0.6,1.8-1.8c-12.2-12-30.3-15.3-46-8.7
				C497.8,53.4,499,55.5,500.5,54.9L500.5,54.9z"/>
		</g>
	</g>
	<g>
		<g>
			<path class="st4" d="M546.8,32.2c0.5,6.1-2,12.6-8.5,14.1c-1.6,0.4-0.9,2.8,0.7,2.4c7.5-1.7,11-9.3,10.3-16.6
				C549.1,30.6,546.6,30.6,546.8,32.2L546.8,32.2z"/>
		</g>
	</g>
	<g>
		<g>
			<path class="st4" d="M489.2,65.8c10.2-7.9,23.9-7.9,34.1,0c1.3,1,2.5-1.2,1.3-2.2c-10.8-8.3-25.7-8.4-36.6,0
				C486.7,64.6,487.9,66.8,489.2,65.8L489.2,65.8z"/>
		</g>
	</g>
	<g>
		<g>
			<path class="st5" d="M16.8,61.2c-3.2-9.4-3.2-19.4,0.1-28.8c0.5-1.5-1.9-2.2-2.4-0.7c-3.4,9.8-3.4,20.3-0.1,30.1
				C14.9,63.3,17.3,62.7,16.8,61.2L16.8,61.2z"/>
		</g>
	</g>
	<g>
		<g>
			<path class="st6" d="M32.3,64.6c-7.7-14.9-1.8-33,12.9-40.9c1.4-0.8,0.2-2.9-1.3-2.2c-15.9,8.6-22,28.3-13.8,44.4
				C30.9,67.3,33,66,32.3,64.6L32.3,64.6z"/>
		</g>
	</g>
	<g>
		<g>
			<path class="st7" d="M88.4,61.3c7.6-14.1,18.1-26.2,31-35.7c1.3-0.9,0-3.1-1.3-2.2C104.9,33.1,94,45.5,86.2,60
				C85.5,61.4,87.6,62.7,88.4,61.3L88.4,61.3z"/>
		</g>
	</g>
	<g>
		<g>
			<path class="st2" d="M179.4,64.6c-2.4-18,8-35.5,25-41.8c1.5-0.5,0.9-3-0.7-2.4c-18.1,6.6-29.4,25-26.9,44.2
				C177.1,66.2,179.6,66.2,179.4,64.6L179.4,64.6z"/>
		</g>
	</g>
	<g>
		<g>
			<path class="st8" d="M161.7,23.4c-8,4.6-11.7,14.4-8.4,23.2c0.6,1.5,3,0.8,2.4-0.7c-2.8-7.7,0.2-16.3,7.3-20.3
				C164.4,24.7,163.1,22.6,161.7,23.4L161.7,23.4z"/>
		</g>
	</g>
	<g>
		<g>
			<path class="st2" d="M99.5,58.7c6.4-10.6,14.4-20,24-27.9c1.2-1-0.5-2.8-1.8-1.8c-9.7,8-17.9,17.6-24.4,28.4
				C96.6,58.8,98.7,60.1,99.5,58.7L99.5,58.7z"/>
		</g>
	</g>
	<g>
		<g>
			<path class="st9" d="M229.2,32.4c5.9,7,4.6,16.5-1.6,22.8c-1.1,1.1,0.6,2.9,1.8,1.8c7.3-7.3,8.4-18.3,1.6-26.3
				C229.9,29.4,228.2,31.2,229.2,32.4L229.2,32.4z"/>
		</g>
	</g>
	<g>
		<g>
			<path class="st10" d="M257.4,58.8c4-11.8,12.4-21.1,23.8-26.2c1.5-0.7,0.2-2.8-1.3-2.2c-12,5.3-20.7,15.3-24.9,27.7
				C254.5,59.7,256.9,60.3,257.4,58.8L257.4,58.8z"/>
		</g>
	</g>
	<g>
		<g>
			<path class="st2" d="M265.5,72c3.8-19.1,17.1-34.8,35.4-41.5c1.5-0.5,0.9-3-0.7-2.4C281,35.1,267,51.4,263,71.4
				C262.8,72.9,265.2,73.6,265.5,72L265.5,72z"/>
		</g>
	</g>
	<g>
		<g>
			<path class="st11" d="M322.1,72.1c-0.6-20.9,9.6-40.5,29.2-49.1c1.5-0.6,0.2-2.8-1.3-2.2c-20.4,8.9-31.1,29.5-30.5,51.2
				C319.7,73.7,322.2,73.7,322.1,72.1L322.1,72.1z"/>
		</g>
	</g>
	<g>
		<g>
			<path class="st12" d="M369.7,69.9c3.3-3,7.5-8.4,6.9-13.1c-0.6-4.2-5.1-5.7-8.7-5.9c-1.6-0.1-1.6,2.4,0,2.5s4.3,0.3,5.3,1.9
				c1.5,2.1,0.5,4.5-0.4,6.5c-1.2,2.4-2.8,4.5-4.8,6.4C366.8,69.2,368.5,71,369.7,69.9L369.7,69.9z"/>
		</g>
	</g>
	<g>
		<g>
			<path class="st13" d="M439.3,50c8.9-3.1,15-13,7.1-20.7c-1.1-1.1-2.9,0.6-1.8,1.8c6.5,6.4,1.1,14.1-6,16.6
				C437.1,48.1,437.8,50.5,439.3,50L439.3,50z"/>
		</g>
	</g>
	<g>
		<g>
			<path class="st14" d="M433.8,74.3c11-5.6,20.6-12.8,28.5-22.3s16.8-18.2,26.6-25.6c1.3-1,0-3.1-1.3-2.2
				c-9.5,7.1-18,15.4-25.7,24.3c-8.5,9.9-17.7,17.7-29.4,23.6C431.1,72.8,432.4,75,433.8,74.3L433.8,74.3z"/>
		</g>
	</g>
	<g>
		<g>
			<path class="st15" d="M497.5,50.7c11.3-4.8,23.9-4.8,35.2-0.4c1.5,0.6,2.1-1.8,0.7-2.4c-12.1-4.7-25.3-4.4-37.2,0.6
				C494.8,49.2,496,51.3,497.5,50.7L497.5,50.7z"/>
		</g>
	</g>
	<g>
		<g>
			<path class="st16" d="M579.2,64.7c14.8-17.8,32.7-31.8,55.7-36.8c1.6-0.3,0.9-2.7-0.7-2.4c-23.3,5-41.7,19.3-56.8,37.4
				C576.4,64.2,578.2,66,579.2,64.7L579.2,64.7z"/>
		</g>
	</g>
	<g>
		<g>
			<path class="st17" d="M686.9,72.7c4.2-3.1,8.3-6.5,12.1-10c4.2-4,10.2-9.4,10.6-15.7c0.1-1.6-2.4-1.6-2.5,0
				c-0.4,6-7.3,11.6-11.5,15.4c-3.2,2.9-6.5,5.7-10,8.2C684.3,71.4,685.6,73.6,686.9,72.7L686.9,72.7z"/>
		</g>
	</g>
	<g>
		<g>
			<path class="st18" d="M22.7,71.1c-9.9-2.4-14-13.8-14.2-22.8C8.3,40,9.4,24.1,20,22.5c1.8-0.3,3.6-0.5,5.5-0.5
				c3.5,0.1,5.6,2,8.7,2.8c4.7,1.1,7.9-0.9,12.4-1.3c4.9-0.4,9.1,2.1,13.8,2.3c4.5,0.1,9,0.3,13.5,0.4c11.1,0.3,22.2,0.6,33.3,1
				c7.2,0.2,13.4-2.6,20.7-3.1c3.5-0.2,7.4-0.3,10.6,1.3c2.1,1,2.9,2.4,5.2,2.8c4.2,0.6,10.4,0.7,14.5,0c1.3-0.2,2.2-0.8,3.4-1.3
				c1.8-0.7,3.7-1.2,5.6-1.1c2.9,0.1,4.4,2.3,7,2.8c3.7,0.7,9.3,0.5,13,0c3.4-0.5,6.6-2.8,10-3.7c3.8-1,8.4-1.7,12,0.1
				c2.1,1,3.2,3.1,5.3,3.6s5.1-0.1,7.3-0.1c5.2-0.1,10.4-0.1,15.6-0.2c11.6-0.1,23.1-0.2,34.7-0.3c5,0,10,0.6,14.6-1.4
				c5.4-2.4,11.6-4.6,17.6-4.6c3.8,0,6.5,0.9,9,3.7c1.3,1.3,1.2,1.6,3,1.8c5,0.7,10.6,0,15.6,0c2.9,0,5.2,0.2,7.8-0.8
				c5.9-2.3,11.9-4.6,18.3-4.3c2,0.1,4.1,0.4,6,1.1c2,0.8,3.5,2.6,5.4,3.4c0.7,0.3,1.2,0.2,2,0.3c8.3,0.8,17.1,0.1,25.4,0.1
				c11.5,0.1,23,0.1,34.5,0.2c5.8,0,10.5,0.3,16-1.3c3.7-1.1,7.8-1.8,11.6-1.1c3,0.5,5.1,2.5,7.9,2.9c3.7,0.5,8.8,0.9,12.6,0.2
				c9.2-1.5,17.6-4.9,27.2-4.8c5.8,0,12.6,1,15.6,6.7c0.3,0.6,1,0.9,1.6,0.9c13,0.1,26,0.2,38.9,0.3c15.8,0.1,31.8,1.1,47.5,0.4
				c5.5-0.3,10.4-4,16.1-4.6c3.5-0.4,7.2-0.1,10.2,1.7c2.4,1.5,2.8,2.6,5.5,3c1.2,0.2,2.5,0.4,3.8,0.5c4.3,0.3,8.7,0.2,13,0.3
				c24.4,0.6,48.8,1.1,73.2,1.7c37.2,0.9,74.3,1.7,111.5,2.6c40.1,0.9,80.1,1.9,120.2,2.8c33.1,0.8,66.2,1.5,99.3,2.3
				c16.2,0.4,32.5,1.1,48.8,1.1c1.7,0,3.3-0.2,5,0c6.1,0.6,10.5,5.2,8.8,11.7c-1.3,5-6.2,6.2-10.7,6.1c-2.7,0-7.1-0.1-10.7,0
				c-23.9,0.4-47.7,0.9-71.6,1.3c-37.7,0.7-75.5,1.4-113.2,2c-39.4,0.7-78.7,1.4-118.1,2.1c-28.7,0.5-57.5,1-86.2,1.5
				c-6.6,0.1-13.1,0.2-19.7,0.4c-1.2,0-2.1,0.1-3.3,0.4c-5.4,1.2-10.5,3-16.3,2.5c-3.1-0.2-5.6-1.8-8.5-2.1
				c-6.3-0.7-13-0.2-19.3-0.3c-9.8-0.1-19.5-0.3-29.3-0.4c-7.6-0.1-15.2-0.2-22.9-0.3c-5-0.1-7.2,1.9-12,3.7
				c-2.5,0.9-5.2,1.6-7.9,1.5c-1.5-0.1-3.1-0.3-4.4-1c-1.4-0.8-2.1-2.6-3.4-3.2c-0.8-0.4-1.8-0.2-2.7-0.2
				c-5.2-0.1-10.5,0.1-15.8,0.1c-18.8,0.1-37.6,0.2-56.4,0.4c-14.8,0.1-29.6,0.2-44.4,0.3c-4,0-6.7,1.7-10.6,2.8
				c-2.9,0.8-6.1,1.3-9,0.6c-2.5-0.6-3.6-2.8-5.8-3.4c-1-0.3-2.6,0-3.7,0c-17.1,0.1-34.2,0.3-51.4,0.4c-8.2,0.1-16.3,0.1-24.5,0.2
				c-3.6,0-6.6-0.4-9.8,1.1c-2.1,1-4.1,1.9-6.3,2.4c-1.2,0.3-2.6,0.5-3.9,0.4c-2.6-0.3-3.1-2.1-4.8-3.3c-1.3-0.9-3-0.5-4.5-0.5
				c-8.7,0.1-17.4,0.3-26.1,0.4c-6.8,0.1-14.4-0.8-21.1,0.3c-1.8,0.3-3.3,1.4-5,2.1c-2.3,1-4.8,1.8-7.3,1.8c-1.9,0-3.4-0.5-4.9-1.7
				c-1.1-0.9-1.5-2.5-2.7-3.1c-1.8-0.9-5.3-0.2-7.2-0.2c-6.2-0.1-12.5-0.2-18.7-0.2c-18.6-0.2-37.3-0.5-55.9-0.7
				c-18.2-0.2-36.3-0.4-54.5-0.7c-5.4-0.1-10.8-0.1-16.2-0.2c-1.1,0-2.3-0.2-3.3,0c-2.1,0.3-3.9,1.7-6,2.2
				c-4.7,1.1-8.1-1.8-12.6-1.9c-3.9-0.1-7.8-0.2-11.7-0.3c-6.9-0.1-13.9-0.3-20.8-0.4c-1,0-1.9,0.9-1.9,1.9
				c0.2,3.3-14.2,1.8-16.3,1.5c-2.4-0.3-2.4,3.4,0,3.8c3.7,0.5,20.5,2.8,20.1-5.2c-0.6,0.6-1.2,1.2-1.9,1.9
				c10.3,0.2,20.6,0.4,30.9,0.7c5,0.1,8.7,3,14,2.1c1.7-0.3,3.6-0.8,5.2-1.6c0.6-0.3,2.7-1.1,0.9-0.7c0.4-0.1,0.8,0,1.1,0
				c18.1,0,36.3,0.4,54.4,0.7c25.4,0.3,50.9,0.6,76.3,0.9c7.1,0.1,14.3-0.2,21.4,0.3c0.5,0,1.3-0.2,1.8,0c0.1,0,0.2,0,0.3,0
				c-1.8-0.9,0.9,2.4,1.4,2.7c4.8,3.8,11.4,2.2,16.4-0.1c0.9-0.4,1.8-1,2.8-1.4c1.3-0.6-0.7,0-0.1-0.1c1.2-0.2,2.6,0,3.9-0.1
				c5.5-0.1,11-0.2,16.4-0.2c6.5-0.1,13.1-0.2,19.6-0.3c2.7,0,8.1-1.2,10.7-0.2c-1.3-0.5-0.3,0.7,0.2,1.3c0.8,1,2.4,1.7,3.5,2.1
				c2.8,0.9,5.8,0.4,8.6-0.4c2.5-0.7,4.6-1.9,7-2.9c1.1-0.5-1.1-0.2,0.9-0.1c8.8,0.1,17.7-0.2,26.5-0.2c13.2-0.1,26.4-0.2,39.7-0.3
				c4.7,0,9.4-0.1,14.1-0.1c1.3,0,2.8-0.2,4.1,0c2.3,0.4,0-0.3,1.8,1.1c5,3.8,12,2.7,17.6,0.9c1.8-0.6,3.6-1.7,5.5-2.2
				c-1.3,0.4-0.6,0.2,0.2,0.2c7.5-0.2,15-0.1,22.4-0.1c25.3-0.2,50.6-0.3,75.9-0.5c4.7,0,9.4-0.1,14-0.1c2.1,0,5-0.6,7,0
				c1.2,0.3-0.7-0.8,0.9,1.3c1.6,2,4.9,2.9,7.4,3.1c6.1,0.5,12-2.1,17.2-4.9c1.8-1-0.8-0.2,0.6-0.3c1.2-0.1,2.5,0,3.8,0.1
				c4.9,0.1,9.7,0.1,14.6,0.2c13,0.2,26,0.4,38.9,0.6c4.8,0.1,9.6,0.1,14.4,0.2c1.1,0,2.3-0.2,3.4,0c1.7,0.3,3.1,1.3,5,1.7
				c6.6,1.4,13.5-0.3,19.9-2.1c1.5-0.4,0.2-0.2,1.7-0.4c9-0.8,18.3-0.3,27.3-0.5c18.8-0.3,37.5-0.7,56.3-1
				c52.2-0.9,104.4-1.9,156.6-2.8c46.4-0.8,92.7-1.7,139.1-2.5c11.8-0.2,23.5-0.4,35.3-0.6c1.1,0,2.2-0.1,3.3-0.1
				c1.4,0,0.1,0,1.6,0.1c4.3,0.1,8.9-0.3,12.3-3.3c4.2-3.8,4.8-11,2.1-15.9c-4.4-7.6-15.1-6.1-22.7-6.3c-12.7-0.3-25.3-0.6-38-0.9
				c-45.8-1.1-91.6-2.1-137.4-3.2C877.3,34.3,824,33,770.8,31.8c-36.8-0.9-73.6-1.7-110.4-2.6c-3.7-0.1-7.5-0.2-11.2-0.3
				c-3.6-0.1-5.8,0-8.9-2.3c-5.8-4.3-13.9-3.5-20.4-1.6c-2.4,0.7-5,1.6-7.2,2.8c-2,1.1,0.5,0.3-0.9,0.3c-8.4,0.5-17-0.1-25.3-0.2
				c-13.2-0.1-26.3-0.2-39.5-0.3c-5.2,0-10.5-0.1-15.7-0.1c-1.8,0-4.9,0.6-6.6-0.1c2.4,0.9-1.6-3.2-2.5-3.8
				c-2.2-1.6-4.8-2.5-7.4-3.1c-6.5-1.4-13.3-0.7-19.7,0.4c-5,0.8-9.7,2.2-14.6,3.4c-2.7,0.7-7.5,0.2-11.3,0.1
				c-2.8-0.1-4.3-1.8-7.1-2.5c-3.8-1-7.9-0.8-11.7,0c-2.4,0.5-4.5,1.5-6.8,2.1c-1.3,0.4,0.9-0.1,0.2,0c-0.4,0-0.8,0-1.2,0
				c-10.1-0.4-20.4-0.1-30.5-0.1c-11.7-0.1-23.3-0.1-35-0.2c-1.4,0-3.1,0.3-4.4,0c-1.9-0.4-0.7,0.1-2.6-1.5
				c-5.4-4.4-14.3-3.7-20.6-2.2c-2.9,0.7-5.8,1.6-8.6,2.8c-0.8,0.3-1.6,0.7-2.4,1.1c-1.5,0.6,0,0.1-0.2,0.2c-5.5,0.8-11.6,0-17.2,0
				c-1.1,0-2.1,0-3.2,0c-0.9,0-1.6-0.4-1.1,0c0.8,0.6-1.4-2.2-1.8-2.6c-1-0.8-2.1-1.4-3.4-1.9c-5.7-2.2-12.4-0.7-18.1,1
				c-2.5,0.8-5,1.7-7.4,2.8c-0.7,0.3-1.5,0.7-2.2,1c-1.3,0.5,0.6,0,0.1,0c-2.8,0.4-5.9,0.1-8.8,0.1c-12.7,0.1-25.5,0.3-38.2,0.4
				c-5.3,0.1-10.6,0.1-15.9,0.2c-1.4,0-3.2,0.3-4.6,0c-2.2-0.4-0.4,0.5-2.3-1.5c-4.7-4.9-14-3.3-19.5-1.4c-2.2,0.8-4.2,1.8-6.3,2.7
				c-1.5,0.6,0.3,0.1-0.3,0.2c-1.2,0.2-2.5,0-3.8,0c-2.6,0-5.9,0.6-8.5,0c-2.1-0.5-4.3-2.6-7.2-2.8c-3-0.2-6,0.5-8.7,1.8
				c-0.9,0.4-2.2,0.8-1.1,0.6c-1.2,0.2-2.6,0-3.8,0c-3,0-5.9,0-8.9,0c-3.2,0-2-0.7-5.1-2.3c-5.9-3-13.4-2-19.6-0.8
				c-3.2,0.6-7.5,2.2-9.4,2.2c-4.2,0.2-8.5-0.2-12.7-0.4c-12.2-0.4-24.4-0.7-36.6-1.1c-4.9-0.1-9.2-2.4-14.1-2.4
				c-5.9,0-8.4,3.2-13.4,1.3c-1.2-0.4-3.7-2.2-5.9-2.6c-3-0.5-5.9,0-8.9,0.3c0.8-0.1-1,0-1.3,0c-1.5,0.3-2.8,0.7-4,1.5
				C4.3,27.1,3.8,47.5,6.9,58.1c2.1,7.3,7.8,14.8,15.5,16.6C24.1,75.3,25.1,71.6,22.7,71.1z"/>
		</g>
	</g>
</g>
</svg>
