<?xml version="1.0" encoding="utf-8"?>
<!-- Generator: Adobe Illustrator 21.0.2, SVG Export Plug-In . SVG Version: 6.00 Build 0)  -->
<svg version="1.1" id="Layer_1" xmlns="http://www.w3.org/2000/svg" xmlns:xlink="http://www.w3.org/1999/xlink" x="0px" y="0px"
	 viewBox="0 0 1133.9 142" style="enable-background:new 0 0 1133.9 142;" xml:space="preserve">
<style type="text/css">
	.st0{fill:#D88B49;}
	.st1{fill:#B37340;}
	.st2{fill:#985A33;}
	.st3{fill:#764D2B;}
	.st4{fill:#5C3917;}
	.st5{fill:#E1A579;}
	.st6{fill:#1D191B;}
	.st7{fill:#734626;}
	.st8{fill:#C57C2D;}
	.st9{fill:#6F3B1E;}
	.st10{fill:#C37748;}
	.st11{fill:#BA712C;}
</style>
<g>
	<path class="st0" d="M8.1,60.8c3.5,3.3,8.8,7.8,15.9,11.9C40.6,82.4,57.8,85,66.1,84.8c25.2-0.7,24.4-34.9,60.8-54.6
		c0,0,9.6-5.2,26.2-9.6c61.4-16.2,220.5,16.2,232.5,18.6c0,0,608,56.2,716.2,55c0,0,26.9-0.2,25.7,14.6c-1.1,14.8-25.7,9.9-25.7,9.9
		S404,89.2,380.6,80.1c0,0-123.2-18.1-132.1-19.4c-6.5-2-16.5-4.5-28.8-5.7c-15.1-1.4-48.9-4.4-73.2,14.5
		c-5.9,4.6-6.3,0.8-24.5,26.3c-4.3,6-11.7,14.7-23.3,22c-18.2,11.4-36.1,12.6-44.3,12.6C54.3,130.6-6.3,127.1,8.1,60.8z"/>
	<path class="st1" d="M53.2,130.5c0,0-60.6-3.6-46.2-69.9c3.5,3.3,8.8,7.8,15.9,11.9C39.5,82.2,56.7,84.8,65,84.6
		c25.2-0.7,24.4-34.9,60.8-54.6c0.5-0.3,3.3-1.7,6.9-3.1c15.3-6.4,43.8-13.8,87.1-1.1c-20-3-35.9-0.5-45.5,1.8c0,0-30.1,7.2-58,31.9
		c-5,4.4-7.5,6.7-10.8,10.5c-7.9,9-8.9,13.8-20.6,20c-15.1,8-26.1,6.6-31.7,16.1C48.6,113.9,50.8,123.8,53.2,130.5z"/>
	<path class="st2" d="M119.9,33.6c15.9-6.6,41.2-15.1,73-17.5c21.9-1.7,38.7,0.2,91.9,8.6c26.7,4.2,59.8,9.6,97.7,16.3
		C488.3,51.5,594.1,60.8,700,69c129.4,10,259,18.3,388.7,24.9c8.8-1.5,15.8-0.5,20.1,0.4c5,1.1,9.5,2.2,12.6,6.2
		c2.2,2.9,2.7,6,2.9,8c-35.9-2.5-91.7-6.2-160.3-10.2c-134.2-7.8-168.9-8.1-289-15.6c-85-5.3-138.2-8.6-212.8-16
		C367,57.3,319.4,52.6,297.1,47.4c-26.1-6.1-64-16.5-117.4-17.2C154.6,30,133.8,31.9,119.9,33.6z"/>
	<path class="st3" d="M33.3,99.9C19,96.7,7.8,81.3,7.6,62c3.5,3.3,8.8,7.8,15.9,11.9C45.1,86.6,64.6,81.1,65.6,86
		S49.5,103.6,33.3,99.9z"/>
	<g>
		<g>
			<path class="st4" d="M381.7,53.9c0-3.1-0.1-6.3-0.1-9.4c-0.4,0.4-0.8,0.8-1.2,1.2c98.3,9.5,196.7,18.8,295.1,27.7
				c84.2,7.6,168.4,14.4,252.7,19.8c59.4,3.8,118.9,7,178.4,9.6c1.6,0.1,1.6-2.4,0-2.5c-96.3-4.2-192.4-10-288.5-17.3
				C726.5,75.9,635,67.3,543.4,58.8c-54.3-5.1-108.7-10.2-163-15.5c-0.7-0.1-1.3,0.6-1.2,1.2c0,3.1,0.1,6.3,0.1,9.4
				C379.2,55.5,381.7,55.5,381.7,53.9L381.7,53.9z"/>
		</g>
	</g>
	<g>
		<g>
			<path class="st5" d="M1110.1,109.4c-91.8-4.8-183.7-10.2-275.4-16.2c-91.8-6-183.6-12.6-275.3-19.7c-51.7-4-103.4-8.3-155.1-12.7
				c-1.6-0.1-1.6,2.4,0,2.5C496,71.1,587.8,78.4,679.6,85c91.7,6.6,183.5,12.7,275.3,18.2c51.7,3.1,103.4,6,155.1,8.7
				C1111.7,112,1111.7,109.5,1110.1,109.4L1110.1,109.4z"/>
		</g>
	</g>
	<g>
		<g>
			<path class="st5" d="M43.9,114.5c17.1,1.4,37.4-3.6,47.4-18.4c0.9-1.3-1.3-2.6-2.2-1.3c-9.6,14-29.1,18.5-45.3,17.2
				C42.3,111.9,42.3,114.4,43.9,114.5L43.9,114.5z"/>
		</g>
	</g>
	<g>
		<g>
			<path class="st5" d="M107.5,76.2c9.5-18.5,26.5-31.9,46.7-36.9c1.6-0.4,0.9-2.8-0.7-2.4C132.8,42.1,115.1,56,105.3,75
				C104.6,76.4,106.8,77.7,107.5,76.2L107.5,76.2z"/>
		</g>
	</g>
	<g>
		<g>
			<path class="st5" d="M380.9,59.8c-28.7-4.7-57.4-9.4-86.1-14.1c-1.6-0.3-2.3,2.2-0.7,2.4c28.7,4.7,57.4,9.4,86.1,14.1
				C381.8,62.5,382.5,60.1,380.9,59.8L380.9,59.8z"/>
		</g>
	</g>
	<g>
		<g>
			<path class="st6" d="M5.8,62.2c13.3,12.3,30,20.8,47.9,23.7c11,1.8,21.1,1.1,29.3-7.2c9.1-9.3,14.7-21.5,23.6-31.1
				c9.7-10.5,21.4-17.1,34.8-21.7c24.8-8.5,51.2-8.5,77.1-7.3c29.1,1.3,58.1,4.7,87,8.9c21.9,3.2,43.8,6.9,65.6,11.1
				c5.4,1,10.8,2.4,16.2,2.9c19.5,1.8,39.1,3.6,58.6,5.3c38.5,3.5,77,6.9,115.5,10.3c49.3,4.3,98.6,8.6,148,12.7
				c51.4,4.3,102.7,8.5,154.1,12.4c45.4,3.5,90.8,6.8,136.2,9.7c30.6,1.9,61.3,3.9,92,4.3c4.6,0.1,9.3-0.2,14,0.3
				c5,0.5,10.7,1.5,14.9,4.4c5.3,3.8,5.5,11.5-0.5,14.8c-7,3.8-15.2,1.4-22.7,1.1c-18.3-0.8-36.6-1.6-54.8-2.4
				c-35.1-1.5-70.2-3.1-105.3-4.7c-45-2-90.1-4.1-135.1-6.2c-48.2-2.3-96.4-4.6-144.6-7c-44.2-2.2-88.4-4.5-132.6-7
				c-33.1-1.9-66.2-3.8-99.3-6.3c-15.1-1.1-30.4-1.7-45.3-4.7c-12.5-2.5-25.4-3.8-38-5.6c-23.3-3.4-46.5-6.8-69.8-10.2
				c-7.3-1.1-14.6-2.1-21.9-3.2c-3.7-0.5-7.3-1.7-10.9-2.6c-8.1-2-16.2-3.1-24.5-3.8c-14.6-1.2-29.4-1.2-43.7,2.3
				c-12,3-21.8,9.1-31.9,15.9c-9.1,6.1-15,16.8-21.4,25.3c-12.2,16.3-30.2,27.3-50.2,31c-13.5,2.5-25.8,0.9-37.9-5.8
				C7.9,109.4,4.2,84.7,9,61.4c0.5-2.4-3.1-3.4-3.6-1c-4.8,22.8-2.1,47.4,18.2,61.7c8.7,6.1,20.4,10.5,31.1,10.5
				c17.3,0,34.9-6,48.8-16.2c13.5-9.9,21-23.8,31.8-36.1c5-5.7,12.5-10.5,19-14.2c15.5-8.7,33.7-10.6,51.2-9.9
				c7.6,0.3,15.3,0.9,22.9,2.2c6.6,1.1,12.9,3.2,19.4,4.5c6.1,1.2,12.4,1.8,18.5,2.7c23.2,3.4,46.5,6.8,69.7,10.2
				c18.9,2.8,37.8,6.4,56.7,8.4c24.6,2.7,49.4,4.1,74.2,5.6c39.8,2.5,79.6,4.7,119.4,6.8c47.4,2.5,94.8,4.9,142.2,7.2
				c48,2.3,95.9,4.6,143.9,6.8c41.5,1.9,83,3.8,124.4,5.6c27.5,1.2,55.1,2.4,82.6,3.6c6.3,0.3,12.5,0.5,18.8,0.8
				c0.9,0,1.8,0,2.6,0.1c-1-0.1,1.5,0.2,1.9,0.3c2.1,0.3,4.2,0.5,6.3,0.5c4.7,0,9.8-0.5,13.8-3c8.8-5.5,6.4-17.3-1.9-21.8
				c-6.4-3.5-14.1-4.2-21.3-4.2c-11.7,0-23.4-0.3-35.1-0.8c-37.6-1.5-75.1-4.1-112.6-6.7c-49.4-3.4-98.7-7.3-148-11.2
				c-52.1-4.2-104.2-8.5-156.2-13c-46.5-4-93-8-139.5-12.2c-31.9-2.8-63.8-5.7-95.6-8.6c-12.8-1.2-25.3-2.1-37-4.4
				c-49.1-9.6-99-17.5-149-20.4c-24.4-1.4-50.3-2.5-74.2,3.5c-12.8,3.2-25.6,7.8-36.4,15.6C104,43,96,54.7,87.7,66.7
				c-7,10.2-14.3,17.2-27.4,16.2C41.1,81.4,22.5,72.6,8.5,59.5C6.7,57.9,4,60.6,5.8,62.2z"/>
		</g>
	</g>
	<g>
		<g>
			<path class="st7" d="M14.5,76.1c3.6,6,9.4,11,15.5,14.4c14.2,7.9,30.4,6,44.8-0.2c1.5-0.6,0.2-2.8-1.3-2.2
				c-14.2,6.1-30.2,7.7-43.8-0.6c-5-3.1-10-7.5-13.1-12.6C15.8,73.5,13.7,74.8,14.5,76.1L14.5,76.1z"/>
		</g>
	</g>
	<g>
		<g>
			<path class="st8" d="M111.9,91.2c9.6-19.1,26.6-33.3,47.2-39.2c1.5-0.4,0.9-2.9-0.7-2.4c-21.2,6.1-38.8,20.6-48.7,40.3
				C109,91.4,111.2,92.6,111.9,91.2L111.9,91.2z"/>
		</g>
	</g>
	<g>
		<g>
			<path class="st9" d="M220.7,23.7c48.1,4,96,10.6,143.4,19.7c1.6,0.3,2.2-2.1,0.7-2.4c-47.6-9.2-95.7-15.8-144-19.8
				C219,21.1,219.1,23.6,220.7,23.7L220.7,23.7z"/>
		</g>
	</g>
	<g>
		<g>
			<path class="st10" d="M192.3,44.3c22.7-1.2,45.4,2.1,66.8,9.7c1.5,0.5,2.2-1.9,0.7-2.4c-21.7-7.7-44.5-11-67.5-9.8
				C190.7,41.8,190.7,44.3,192.3,44.3L192.3,44.3z"/>
		</g>
	</g>
	<g>
		<g>
			<path class="st11" d="M358.3,70.9c31.9,3.3,63.9,6.1,95.8,8.6c1.6,0.1,1.6-2.4,0-2.5c-32-2.5-63.9-5.3-95.8-8.6
				C356.7,68.2,356.7,70.7,358.3,70.9L358.3,70.9z"/>
		</g>
	</g>
</g>
</svg>
