<?xml version="1.0" encoding="utf-8"?>
<!-- Generator: Adobe Illustrator 21.0.2, SVG Export Plug-In . SVG Version: 6.00 Build 0)  -->
<svg version="1.1" id="Layer_1" xmlns="http://www.w3.org/2000/svg" xmlns:xlink="http://www.w3.org/1999/xlink" x="0px" y="0px"
	 viewBox="0 0 1133.9 97.9" style="enable-background:new 0 0 1133.9 97.9;" xml:space="preserve">
<style type="text/css">
	.st0{fill:#83432F;}
	.st1{fill:none;stroke:#BCBBC3;stroke-miterlimit:10;}
	.st2{fill:#4C2A22;}
	.st3{fill:#CA927F;}
	.st4{fill:#1D191B;}
</style>
<g>
	<path class="st0" d="M1109.7,39.9l-642-2.6c-4.4-3.6-10.7-5.8-17.8-5.8c-7.6,0-14.3,2.6-18.7,6.6H299.4c-3.4-1.7-7.5-2.7-11.9-2.7
		c-2.4,0-4.8,0.3-6.9,0.9l0,0c-7.8-0.9-15.6-1.8-23.4-2.7l0,0c-7.7-5.2-19.4-8.5-32.4-8.5l0,0c-5.8-0.1-15.6-0.3-27.7-0.3
		c-50.9,0.1-73,3.7-114.7,4c-12.7,0.1-32.2-0.1-56.6-1.6l-2.4,4.5c0,0-9.3,2.7-14.2,7.6c0,0,7.5,5.5,13.6,6.9c0,0-11.4,4.1-13.6,6.9
		c0,0,7.3,3.8,13.6,4l1.5,3.3c12.4-1.2,31.8-2.5,55.5-1.4c28.2,1.4,42.6,5.2,73.5,8.9c16,1.9,39.4,4.1,68.8,4.7
		c0.9,0,1.8,0.1,2.8,0.1l0,0l0,0l0,0c12.3,0,23.4-3,31.1-7.7l0,0l24.7-1.2l0,0c2.2,0.5,4.5,0.9,6.9,0.9c5.3,0,10.2-1.4,13.8-3.8
		l131.2,0.2c4.4,3.4,10.5,5.5,17.4,5.5c6.3,0,12.1-1.8,16.4-4.8l643.4-4.4c6.7,0,12.2-3.9,12.2-8.6S1116.5,39.9,1109.7,39.9z"/>
	<path class="st1" d="M8.7,64.9"/>
	<path class="st2" d="M1121.4,45.9c-0.3-0.8-1-2-2.5-3.2c-3.2-2.5-7.7-2.5-8.6-2.5l-642-2.6c-1.4-1.1-3.9-2.9-7.9-4.2
		c-1.5-0.5-6.3-1.9-12.4-1.5c-9.5,0.7-15,5.5-16.2,6.5H299.9c-3.4-1.7-7.5-2.7-11.9-2.7c-2.4,0-4.8,0.3-6.9,0.9l0,0
		c-7.8-0.9-15.6-1.8-23.4-2.7l0,0c-7.7-5.2-19.4-8.5-32.4-8.5c-5.8-0.1-15.6-0.3-27.7-0.3c-50.9,0.1-73,3.7-114.7,4
		c-12.7,0.1-32.2-0.1-56.6-1.6L23.9,32c-1.6,0.5-3.4,1.2-5.2,2c-2.4,1-4.5,2.1-6.3,3.1c5.9,0.3,14.4,0.6,24.5,0.8
		c16.1,0.4,27.9,0.3,46.7,0.2c19.2-0.1,28.9-0.2,36.3-0.5c17.4-0.8,18.2-1.8,38.1-2.9c21.5-1.2,35.7-1.1,40.7-1
		c17.5,0.2,26.3,0.3,33.7,2.1c6.5,1.6,12.6,3.9,26.6,7c8,1.8,10.9,2.1,14.3,2c5.5-0.2,8.2-1.4,14.1-0.8c3.8,0.4,3.7,1,8.2,1.7
		c5.4,0.9,8.8,0.5,15.7,0.4c5.4-0.1,10.8,0.1,16.2,0.1c12.7,0,11.3,0.1,32.3,0.1c34.5,0.1,43.1-0.3,52.2,0c0.4,0,3.6,0.1,7.9,0
		c5.6-0.1,8.4-0.2,11.3-0.7c4.6-0.9,4.3-1.8,9.5-2.8c4.2-0.8,7.6-0.9,9-0.9c4,0,7,0.6,8.9,0.9c4.2,0.8,5,1.4,9.7,2.3
		c2.5,0.5,4.5,0.7,5.8,0.8c4.5,0.5,10,0.6,21.4,0.4c14.2-0.2,28.4,0.4,42.6,0.1c42.5-0.9,85-0.3,127.5-0.6c46.7-0.3,70-0.5,74.5-0.5
		c43-0.1,62.7,0.2,111.8,0.5c34.7,0.2,69.4,0.3,138.8,0.3C1021.4,45.9,1066.3,45.9,1121.4,45.9z"/>
	<g>
		<g>
			<path class="st2" d="M31.1,55.4c30.6-2,61.1-0.7,91.5,2.4c24.3,2.5,48.5,5.8,72.8,8.3c16.5,1.7,33.1,0.7,49.2-3.3
				c1.6-0.4,0.9-2.8-0.7-2.4c-15,3.7-30.4,4.8-45.7,3.4c-8.1-0.7-16.2-1.9-24.3-2.9c-30.7-3.7-61.5-7.7-92.4-8.8
				c-16.8-0.6-33.7-0.4-50.5,0.7C29.5,53,29.5,55.5,31.1,55.4L31.1,55.4z"/>
		</g>
	</g>
	<g>
		<g>
			<path class="st2" d="M251.9,67.3c3.8-11.9,5.2-26.3-0.1-37.9c-0.7-1.5-2.8-0.2-2.2,1.3c5.1,10.9,3.5,24.8-0.1,36
				C249,68.1,251.4,68.8,251.9,67.3L251.9,67.3z"/>
		</g>
	</g>
	<g>
		<g>
			<path class="st2" d="M272.1,63.1c-5.6-8.3-7.2-19.5-0.2-27.4c1.1-1.2-0.7-3-1.8-1.8c-7.7,8.8-6.4,21.2-0.2,30.5
				C270.9,65.7,273,64.4,272.1,63.1L272.1,63.1z"/>
		</g>
	</g>
	<g>
		<g>
			<path class="st2" d="M300.7,61.1c6.8-5.9,4.6-15.5,0.2-21.9c-0.9-1.3-3.1-0.1-2.2,1.3c3.8,5.6,6.1,13.8,0.2,18.9
				C297.7,60.4,299.5,62.1,300.7,61.1L300.7,61.1z"/>
		</g>
	</g>
	<g>
		<g>
			<path class="st2" d="M432.1,58.2c-3.3-5.6-4.9-13.4-0.2-18.6c1.1-1.2-0.7-3-1.8-1.8c-5.5,6.1-4.1,15-0.2,21.7
				C430.7,60.8,432.9,59.6,432.1,58.2L432.1,58.2z"/>
		</g>
	</g>
	<g>
		<g>
			<path class="st3" d="M1109.3,49.8c-90.7,0.5-181.3,0.9-272,1.4c-90.3,0.5-180.6,0.9-271,1.4c-25.3,0.1-50.7,0.3-76,0.4
				c-6.3,0-12.7,0.1-19,0.1c-3.5,0-5.7-0.2-8.6,1.4c-8,4.1-19,3.7-26-2.4c-1.2-1.1-3,0.7-1.8,1.8c4.4,3.9,10.3,5.7,16.1,5.8
				c6.7,0.1,12-4,18.3-4c23-0.1,46-0.2,69-0.3c46-0.2,92-0.5,138-0.7c92.3-0.5,184.6-0.9,277-1.4c52-0.3,104-0.5,156-0.8
				C1110.9,52.3,1110.9,49.8,1109.3,49.8L1109.3,49.8z"/>
		</g>
	</g>
	<g>
		<g>
			<path class="st3" d="M417.1,52.5c-32.4,0-64.8,0-97.2,0c-5.6,0-12.4-1-17.7,0.6c-6.6,2.1-13.2,3.3-20.2,2.8
				c-3.2-0.2-6.3-0.8-9.4-1.6c-1.3-0.4-2.9-1.2-4.2-1.4c-3-0.4-6.8,0.6-9.9,1c-3.9,0.4-7.8,1.1-11.7,1.7c-41.8,6.1-82.4-3.3-123.9-7
				c-27.1-2.4-54.4-2.7-81.5-1.3c-1.6,0.1-1.6,2.6,0,2.5c25.8-1.4,51.7-1.1,77.5,1c18.3,1.5,36.4,4.4,54.6,6.6
				c20.5,2.4,40.9,4.1,61.5,2.2c7.2-0.7,14.4-2,21.6-2.9c3.6-0.4,8.1-1.6,11.8-1c2,0.3,4,1.3,6,1.7c6,1.3,12.2,1.6,18.2,0.8
				c5.3-0.7,10.2-3,15.5-3.1c36.3-1,72.8,0,109.1,0C418.7,55,418.7,52.5,417.1,52.5L417.1,52.5z"/>
		</g>
	</g>
	<g>
		<g>
			<path class="st4" d="M1109.4,37.7c-8.8,0-17.7-0.1-26.5-0.1c-23.2-0.1-46.5-0.2-69.7-0.3c-33-0.1-65.9-0.3-98.9-0.4
				c-38.3-0.2-76.5-0.3-114.8-0.5c-38.5-0.2-77.1-0.3-115.6-0.5c-34.5-0.1-69-0.3-103.4-0.4c-25.4-0.1-50.9-0.2-76.3-0.3
				c-8,0-15.9-0.1-23.9-0.1c-3.6,0-8.3,0.7-11.9,0c-3.2-0.7-5.7-3.4-9.3-4.4c-6.9-2.1-14.7-1.8-21.4,0.8c-2.6,1-5.6,3.9-7.4,4.4
				c-3.2,0.9-8.1,0-11.4,0c-7.5,0-15,0-22.4,0c-19,0-38.1,0-57.1,0c-12.7,0-25.7,0.7-38.4,0c-1.1-0.1-1.6-0.2-2.5-0.4
				c-6.6-1.6-11.9-2.9-18.8-1.3c0.8,0.6,1.6,1.2,2.4,1.8l0,0c0-1.1-0.9-1.8-1.9-1.9c-7.8-0.9-15.6-1.8-23.4-2.7
				c-1-0.1-1.8,1-1.9,1.9l0,0c0.9-0.5,1.9-1.1,2.8-1.6c-12.6-8.1-27.1-8.7-41.7-8.9c-17.2-0.3-34.4-0.1-51.6,0.5
				c-28.3,1-56.5,3.3-84.8,3.4c-18.1,0.1-36.1-0.5-54.2-1.6c-0.6,0-1.3,0.4-1.6,0.9c-0.7,1.3-1.3,3.1-2.3,4.3c1.2-1.4-0.8,0-2.1,0.5
				c-4.4,1.7-8.5,3.9-12,7c-1,0.9-0.5,2.3,0.4,2.9c4.2,3,9,5.7,14,7c0-1.2,0-2.4,0-3.6C17,45.8,11,47.7,7.4,51.4
				c-0.8,0.8-0.7,2.4,0.4,2.9c2.5,1.2,5.1,2.3,7.7,3.1c1.5,0.4,3.9,0.3,5.2,1.1c-0.3-0.1,0.2,0.2,0.7,0.9c0.3,0.5,0.5,1.2,0.8,1.7
				c0.2,0.5,1,1,1.6,0.9c31.1-3,62.2-2.1,93.1,2.5c29.5,4.3,58.9,7.9,88.8,9.2c17.4,0.7,35.1,1.7,50.7-7.4c-0.9-0.5-1.9-1.1-2.8-1.6
				l0,0c0,1,0.9,1.9,1.9,1.9c8.2-0.4,16.4-0.8,24.7-1.2c1,0,1.9-0.8,1.9-1.9l0,0c-0.8,0.6-1.6,1.2-2.4,1.8c6.9,1.5,13.5,1,20-1.9
				c1.8-0.8,1.5-0.8,3.4-1c5-0.4,10.2,0,15.3,0c18.4,0,36.9,0.1,55.3,0.1c16.7,0,33.4,0.1,50.2,0.1c2.9,0,6.3-0.4,8.5,0.7
				c6.6,3.1,12.4,5.4,19.9,4.7c3.4-0.3,6.7-1,9.8-2.4c1.2-0.5,2.7-1.9,3.8-2.3c2.3-0.8,6.1,0,8.5-0.1c7.2,0,14.4-0.1,21.6-0.1
				c25-0.2,50-0.3,75-0.5c34.9-0.2,69.8-0.5,104.7-0.7c39.9-0.3,79.8-0.5,119.6-0.8c39.4-0.3,78.8-0.5,118.1-0.8
				c34-0.2,67.9-0.5,101.9-0.7c23.4-0.2,46.9-0.3,70.3-0.5c6.2,0,12.4-0.1,18.6-0.1c5.4,0,11,0.2,15.5-3.5c3.2-2.7,4.6-6.9,2.6-10.8
				C1120.1,39.6,1114.4,37.9,1109.4,37.7c-2.4-0.1-2.4,3.6,0,3.8c4.3,0.2,11.4,2.4,10,7.9c-1.1,4.1-6.2,5.4-10,5.5
				c-0.2,0-0.4,0-0.5,0c-1.2,0-2.4,0-3.6,0c-5.7,0-11.4,0.1-17,0.1c-22,0.2-43.9,0.3-65.9,0.5c-32.5,0.2-64.9,0.4-97.4,0.7
				c-38,0.3-75.9,0.5-113.9,0.8c-39.1,0.3-78.1,0.5-117.2,0.8c-35.2,0.2-70.5,0.5-105.7,0.7c-26.6,0.2-53.1,0.4-79.7,0.5
				c-13.4,0.1-26.8,0.1-40.3,0.3c-0.7,0-1.5-0.1-2.2,0c-1.1,0.2-2,0.9-3,1.5c-4.1,2.2-8.8,3.3-13.4,3.3s-9.2-1-13.2-3.2
				c-1.5-0.8-2.7-2-4.3-2.4c-2.8-0.6-6.5,0-9.3,0c-7.1,0-14.1,0-21.2,0c-32.6-0.1-65.3-0.1-97.9-0.2c-0.8,0-1.8-0.2-2.6,0
				c-1.8,0.4-3.4,1.7-5.1,2.3c-4.9,1.8-10.1,1.8-15.2,0.7c-1.2-0.3-2.4,0.5-2.4,1.8l0,0c0.6-0.6,1.2-1.2,1.9-1.9
				c-8.2,0.4-16.4,0.8-24.7,1.2c0.6,0.6,1.2,1.2,1.9,1.9l0,0c0-1.4-1.6-2.3-2.8-1.6c-14.9,8.8-32.1,7.6-48.8,6.9
				c-15.3-0.6-30.6-1.8-45.9-3.4c-30.9-3.3-61.2-9.5-92.3-10c-9.2-0.2-18.5,0-27.7,0.5c-3.7,0.2-7.3,0.5-11,0.8
				c-0.5,0-4.8,0.3-3.5,1c-0.6-0.3-1.1-2.4-1.3-3c-0.3-0.6-1-0.9-1.6-0.9c-4.4-0.3-8.7-1.7-12.6-3.7c0.1,1,0.3,2,0.4,2.9
				c3.1-3.2,8.6-4.9,12.7-6.4c1.7-0.6,1.9-3.1,0-3.6C18.4,42.5,14,40,10,37.1c0.1,1,0.3,2,0.4,2.9c3-2.7,6.6-4.6,10.3-6
				c1.3-0.5,3-0.8,4.1-1.8c0.5-0.5,0.8-1.4,1.1-2c0.1-0.2,0.7-1.6,1-1.8c1.5-1.1-1.5,0.5,1.1,0.2c5.2-0.7,11.3,0.6,16.6,0.8
				c16.3,0.7,32.7,0.8,49.1,0.5c33.7-0.8,67.4-3.6,101.2-3.8c20-0.1,43.8-2.8,61.4,8.5c1.3,0.8,2.7-0.3,2.8-1.6l0,0
				c-0.6,0.6-1.2,1.2-1.9,1.9c7.8,0.9,15.6,1.8,23.4,2.7c-0.6-0.6-1.2-1.2-1.9-1.9l0,0c0,1.3,1.2,2.1,2.4,1.8
				c4.6-1,9.4-1.1,13.9,0.3c1.5,0.5,2.9,1.3,4.5,1.6c1,0.2,2.1,0,3.1,0c5.3,0,10.5,0,15.8,0c17.9,0,35.7,0,53.6,0
				c16.3,0,32.7,0,49,0c3.1,0,7,0.7,10.1,0c0.5-0.1,0.9-0.2,1.3-0.4c1.5-0.6,2.8-2.2,4.2-3c2.1-1.1,4.3-1.9,6.6-2.5
				c4.7-1.1,9.8-1,14.4,0.3c3.6,1,6.5,3.8,9.8,4.8c2,0.6,4.9,0.1,6.9,0.1c6.4,0,12.7,0.1,19.1,0.1c22.9,0.1,45.8,0.2,68.8,0.3
				c32.7,0.1,65.3,0.3,98,0.4c38,0.2,76,0.3,114,0.5c38.4,0.2,76.8,0.3,115.2,0.5c34.4,0.1,68.8,0.3,103.2,0.4
				c25.8,0.1,51.6,0.2,77.4,0.3c12.6,0.1,25.4,0.5,38,0.2c0.5,0,1.1,0,1.6,0C1111.8,41.4,1111.8,37.7,1109.4,37.7z"/>
		</g>
	</g>
</g>
</svg>
