<?xml version="1.0" encoding="utf-8"?>
<!-- Generator: Adobe Illustrator 21.0.2, SVG Export Plug-In . SVG Version: 6.00 Build 0)  -->
<svg version="1.1" id="Layer_1" xmlns="http://www.w3.org/2000/svg" xmlns:xlink="http://www.w3.org/1999/xlink" x="0px" y="0px"
	 viewBox="0 0 1133.9 137.4" style="enable-background:new 0 0 1133.9 137.4;" xml:space="preserve">
<style type="text/css">
	.st0{fill:#A8673C;}
	.st1{fill:#895231;}
	.st2{fill:#5C3528;}
	.st3{fill:#DFB590;}
	.st4{fill:#F7E7CF;}
	.st5{fill:#70412A;}
	.st6{fill:#1D191B;}
</style>
<g>
	<g>
		<path class="st0" d="M1114.6,46.3c0,0,12,12.9,10.7,25.1S1112,92.9,1112,92.9c-4.5,4.3-10.8,9.5-19.1,14
			c-13.2,7.2-25.4,9.6-33.4,10.5c-5,0-11.3-0.5-18.4-2.5c-15-4.3-24.8-13-29.6-18L976,86.5c0,0-4.4-2.9-9.1,0.3l-212-1.2l-19.6,1
			L326.4,82c-31.5-1.1-63-2.3-94.6-3.4L26.2,71.5c0,0-19.8-1.2-19.1-11.8c0.8-10.5,19.2-9,19.2-9l209.4,3.4h99.1l398.9-3.8l20.7-0.4
			c0,0,32.8,3,39.2,3s33.9-3,33.9-3s13.2,2.6,15.1,3c1.9,0.4,41.8,1.2,60.6-6.6l32.8,7.3l23.4-9.4l13.9,1.9l36.9-7.2
			c3.4-3.3,22.1-20.7,50.8-20C1093.2,19.9,1112.1,43.1,1114.6,46.3z"/>
	</g>
	<path class="st1" d="M7.1,59.7c1.3-1.7,4.5-5.3,9.8-7.4c3.9-1.6,7.4-1.7,9.4-1.6c69.8,1.1,139.6,2.3,209.4,3.4h99.1l398.9-3.8
		l20.7-0.4c0,0,32.8,3,39.2,3s33.9-3,33.9-3s13.2,2.6,15.1,3c1.9,0.4,41.8,1.2,60.6-6.6l32.8,7.3l23.4-9.4l13.9,1.9l36.9-7.2
		c3.4-3.3,22.1-20.7,50.8-20c32.4,0.9,51.2,24.1,53.8,27.3c2.8,3.5,11.1,13.8,10.7,25.1c-0.3,8.2-5.1,16.5-8.3,16.2
		c-2.8-0.3-2-7-8.3-14.3c-4.2-4.9-9.3-7.2-10.8-7.9c-9.3-4.2-14.2-0.8-18.2-5.1c-2.9-3.1-1-5.5-4.2-12.2c-0.9-2-3.4-6.9-7.9-10.3
		c-6.2-4.5-13.4-3.9-21.5-3.3c-6.5,0.5-14.4,1.2-21.5,6.2c-2.3,1.6-4.7,3.8-9.3,5.5c-4.1,1.5-7.5,1.7-9.1,1.8
		c-18.4,1.1-27.6,1.7-29.7,2.4c-12.5,4.1-10.2,13.2-24,17.3c-2.6,0.8-11,3-20.1,0c-6.8-2.2-7.3-5.2-14.8-9.1
		c-9.4-4.9-18.3-5.4-23.3-5.7c-11.6-0.6-11.5,2.6-28.3,3.8c-14.3,1-15.3-1.3-25.2,0.9c-8.1,1.8-10,3.9-18.7,5.4
		c-7.9,1.3-14,0.9-18.7,0.5c-15.8-1.3-23.6-1.9-42.7-4.2c-16.4-1.9-24-0.1-50.7,2.1c-22.2,1.8-42.7,2.2-83.7,3.1
		c-25.7,0.5-47.1,0.3-90,0c-33.2-0.3-37.6-0.6-63-0.5c-23.8,0-27.6,0.3-61.3,0.5c-25.8,0.1-46.3,0.1-58,0
		c-26.2-0.1-32.3-0.3-62.6-0.6c-38.2-0.4-68.9-0.4-88.4-0.5c-59.3-0.1-59.4,0.3-79.6-0.3c-23.7-0.8-33.3-1.7-63-2.5
		C37.8,59.9,19.2,59.7,7.1,59.7z"/>
	<g>
		<g>
			<path class="st1" d="M1105.9,98.6c-13-12.2-29.8-23.6-48.5-20.4c-9.9,1.7-19.3,6.5-27.7,11.8c-4.2,2.6-9.7,7.1-13.1,9.2
				c-1.4,0.9-0.1,3,1.3,2.2c3.6-2.3,6.9-5.2,10.5-7.6c7.9-5.2,16.5-9.8,25.7-12.3c19.2-5.1,36.5,6.2,50,18.9
				C1105.3,101.5,1107,99.7,1105.9,98.6L1105.9,98.6z"/>
		</g>
	</g>
	<g>
		<g>
			<path class="st1" d="M1090.2,108.2c-3.1-6.7-8.3-12.4-15.3-15.3c-6.9-2.9-14.7-2.6-22-2.1c-11.6,0.8-26.8,5.2-23,20
				c0.4,1.6,2.8,0.9,2.4-0.7c-3.7-14.2,13-16.5,23.2-17c5.8-0.3,11.8-0.4,17.3,1.6c7,2.6,12.2,8.1,15.3,14.8
				C1088.7,111,1090.9,109.7,1090.2,108.2L1090.2,108.2z"/>
		</g>
	</g>
	<g>
		<g>
			<path class="st1" d="M1116.1,88.6c-17.1-17.1-40.4-29.2-65.6-23.4c-18.8,4.3-35.2,14.9-51.5,24.4c-1.4,0.8-0.1,2.9,1.3,2.1
				c14.8-8.6,29.4-18,46-22.9c8-2.4,16-3.1,23.9-2.3c3.9,0.4,12.1,1.4,20.6,6.2c6.3,3.5,20.3,13.4,22.8,16.7
				c0.2,0.2,0.9,1.3,1.6,1.2C1115.9,90.4,1116.3,88.8,1116.1,88.6z"/>
		</g>
	</g>
	<g>
		<g>
			<path class="st1" d="M1123.7,78.7c-13.6-15.6-32.7-25.3-53.4-26.6c-24.7-1.5-47.9,9.9-67,24.7c-3.5,2.8-7,5.7-10.3,8.7
				c-0.9,0.8-3.3,3.3-3.5,3.4c-1.3,0.9-0.1,3.1,1.3,2.2c4.8-3.3,8.8-8.2,13.4-11.9c11.6-9.1,24.7-16.9,38.9-21.3
				c28.7-8.8,59.2-0.1,78.8,22.5C1123,81.7,1124.7,79.9,1123.7,78.7L1123.7,78.7z"/>
		</g>
	</g>
	<g>
		<g>
			<path class="st2" d="M758,86.1c-4.4-11-5-24.7,1.6-35c0.9-1.4-1.3-2.6-2.2-1.3c-6.9,10.8-6.4,25.3-1.8,36.9
				C756.2,88.2,758.6,87.6,758,86.1L758,86.1z"/>
		</g>
	</g>
	<g>
		<g>
			<path class="st2" d="M738.9,86.1c-4.4-11-5-24.7,1.6-35c0.9-1.4-1.3-2.6-2.2-1.3c-6.9,10.8-6.4,25.3-1.8,36.9
				C737,88.2,739.5,87.6,738.9,86.1L738.9,86.1z"/>
		</g>
	</g>
	<g>
		<g>
			<path class="st3" d="M852.5,70.4c-3.7,0-7.4-0.2-11,0c-0.5,0-1.1,0.1-1.6,0c0.9,0.2,0.1-0.1-0.3-0.3c-2.1-0.8-4.2-1.8-6.4-2.5
				c-8.1-2.4-17.4-2.1-25.8-2.7c-4.8-0.4-9.6-0.7-14.4-1.1c-2-0.2-4.2-0.6-6.2-0.4c-3,0.4-6.2,1.8-9.1,2.7
				c-4.2,1.2-8.4,2.5-12.6,3.7c-2,0.6-4.2,0.6-7,0.5c-5.7-0.1-11.4-0.1-17.1-0.2c-21.4-0.3-42.9-0.5-64.3-0.8
				c-31.6-0.4-63.3-0.8-94.9-1.1c-37.8-0.5-75.6-0.9-113.4-1.4c-40.4-0.5-80.9-1-121.3-1.5c-39.1-0.5-78.1-0.9-117.2-1.4
				c-33.9-0.4-67.7-0.8-101.6-1.2c-24.8-0.3-49.6-0.6-74.4-0.9c-11.9-0.1-23.8-0.6-35.7-0.4c-0.5,0-1.1,0-1.6,0
				c-1.6,0-1.6,2.5,0,2.5c8.2,0.1,16.4,0.2,24.6,0.3c22,0.3,44.1,0.5,66.1,0.8c31.9,0.4,63.8,0.8,95.6,1.2
				c38.1,0.5,76.3,0.9,114.4,1.4c40.3,0.5,80.6,1,120.9,1.5C477.1,69.6,516,70,555,70.5c33.5,0.4,67.1,0.8,100.6,1.2
				c24.2,0.3,48.5,0.6,72.7,0.9c11.2,0.1,22.7,0.9,33.9,0.4c8.5-0.4,16.5-5.7,24.9-6.9c0.8-0.1,4.2,0.3,5.8,0.4
				c4.8,0.4,9.6,0.7,14.4,1.1c8.8,0.7,18.6,0.3,26.9,3.2c2.8,1,4.6,2.3,7.5,2.3c3.6,0,7.1,0,10.7,0
				C854.1,72.9,854.1,70.4,852.5,70.4L852.5,70.4z"/>
		</g>
	</g>
	<circle class="st3" cx="1042.5" cy="80.7" r="9.4"/>
	<circle class="st4" cx="1042.5" cy="80.7" r="6.3"/>
	<g>
		<g>
			<path class="st4" d="M995.3,67c-12.4,0.9-24.9,0.9-37.3,0c-1.6-0.1-1.6,2.4,0,2.5c12.4,0.9,24.9,0.9,37.3,0
				C996.9,69.4,996.9,66.9,995.3,67L995.3,67z"/>
		</g>
	</g>
	<g>
		<g>
			<path class="st4" d="M921.9,70.1c-3.9,1-7.8,2-11.7,3.1c-1.6,0.4-0.9,2.8,0.7,2.4c3.9-1,7.8-2,11.7-3.1
				C924.1,72.1,923.4,69.7,921.9,70.1L921.9,70.1z"/>
		</g>
	</g>
	<path class="st5" d="M1118.4,86.6c0,0,7-6.5,7-16s-10.5-23.1-10.5-23.1s-28.6-26.8-46.8-28.2c-18.2-1.4-34.1,1.8-34.1,1.8
		s41.4,3.2,45.7,15c4.3,11.8,19.3,27.7,19.3,27.7l15.9,6.8C1114.9,70.7,1122.3,76.2,1118.4,86.6z"/>
	<path class="st5" d="M1011.3,97c0,0-7.3-17.3-5.8-28.7c0.1-0.6,0.3-2.1-0.3-2.4c-1.9-0.9-10.3,12.2-17.5,24.1
		C995.6,92.3,1003.4,94.7,1011.3,97z"/>
	<path class="st5" d="M1010,39c0,0-4.3,2.9-4.5,14.9S999.6,41,999.6,41L1010,39z"/>
	<path class="st5" d="M836.4,86.1c0,0,6.4-8.1,14.1-10.1c0,0-4.4,10,0,10.1C854.8,86.2,836.4,86.1,836.4,86.1z"/>
	<path class="st5" d="M887.6,86.3c0,0,4.5-4.2,13.7-8.1c0,0,2.7,8.2,13.7,8.2C926.1,86.6,887.6,86.3,887.6,86.3z"/>
	<path class="st5" d="M962.6,86.8h-22.4c0,0,6.6-6.1,1.3-10.8L962.6,86.8z"/>
	<path class="st5" d="M917,50.5c0,0,11,13.3,4.7,18c0,0,22.8-7.5,23.8-18.6l-9.7,3.8L917,50.5z"/>
	<path class="st5" d="M827.3,49.9c0,0-22.4,10.8-33.1,11.3c-10.7,0.6-26.4-10.1-26.4-10.1l25.6,1.8L827.3,49.9z"/>
	<path class="st5" d="M858.1,53.9c0,0-14.7,6.9-14.4,13.3S835,51.4,835,51.4l7.3,1.5L858.1,53.9z"/>
	<g>
		<g>
			<path class="st3" d="M995.3,70.5c-20.1,1.2-40.7,1.9-60.7-0.6c-2.7-0.3-5.4-0.7-8.1-1.4c-1.6-0.4-3.5-1.3-5.2-1.3
				c-2.9,0.1-6.4,2-9.2,2.8c-5.2,1.6-10.3,3.1-15.5,4.7c-1.8,0.5-3.6,1.1-5.4,1.6c-0.9,0.3-2.6,0.4-1.6,0.6c-4.1-0.6-8.8-3.5-12.7-5
				c-4-1.6-8-3.2-12-4.7c-1.5-0.6-2.1,1.8-0.7,2.4c7.8,3.1,15.5,6.5,23.4,9.2c2,0.7,2.7,0.4,4.8-0.2c4.8-1.5,9.6-2.9,14.4-4.4
				c4.4-1.3,9-3.2,13.5-4.1c3.1-0.6,6.6,1.1,9.9,1.6c12.7,2,25.7,2.1,38.5,2c8.8-0.1,17.6-0.3,26.4-0.8
				C996.9,72.9,996.9,70.4,995.3,70.5L995.3,70.5z"/>
		</g>
	</g>
	<g>
		<g>
			<path class="st6" d="M1113.3,47.7c4.2,4.6,8,10.6,9.5,16.7c2.4,9.6-2.8,18.4-9.5,24.9c-12.9,12.6-28.8,21.6-46.6,25.2
				c-19.3,3.9-38.7-4.3-52.7-17.5c-2.4-2.2-4.9-2.6-8.1-3.6c-5.7-1.7-11.3-3.3-17-5c-4-1.2-8.1-2.2-12.1-3.6c-0.6-0.2-2.3-1-3.7-1.2
				c-2.7-0.4-4.2,0.9-6.4,1.3c-3.1,0.5-6.8,0-9.9-0.1c-18.5-0.1-37.1-0.2-55.6-0.3c-44.3-0.2-88.5-0.5-132.8-0.7
				c-16.3-0.1-32.5,0.9-48.9,0.7c-35.9-0.4-71.8-0.8-107.7-1.2c-49.6-0.6-99.2-1.1-148.8-1.7c-38.3-0.4-76.5-0.9-114.8-1.3
				c-39.5-0.4-79-2.4-118.5-3.7c-38.5-1.3-77-2.7-115.5-4c-21.8-0.7-43.5-1.5-65.3-2.2c-9.2-0.3-19.1,0.4-28.2-1.6
				c-5-1.1-15.7-4.8-11-11.9c3-4.5,10.6-4.5,15.4-4.4c2.5,0,5.1,0.1,7.6,0.2c17.3,0.3,34.7,0.6,52,0.8c44.9,0.7,89.9,1.5,134.8,2.2
				c29.5,0.5,59.1,0.3,88.6,0.3c19,0,38-0.1,56.9-0.3c41-0.4,81.9-0.8,122.9-1.2c48.9-0.5,97.7-0.9,146.6-1.4
				c31-0.3,62-0.6,92.9-0.9c8.9-0.1,17.8-0.8,26.7-0.4c10.5,0.4,21,1.9,31.5,2.6c10.9,0.7,21.8-0.6,32.7-1.7c3.4-0.3,7.5-1,9.8-0.7
				c4.8,0.7,9.4,2.2,14.2,2.8c11.2,1.3,23.3,0.1,34.4-1.1c7.4-0.8,15-1.8,22.1-4c1.8-0.6,2.9-1.4,4.5-1.3c2,0,4.3,0.9,6.2,1.4
				c5.8,1.3,11.6,2.6,17.3,3.9c2.7,0.6,6.4,2.2,9.2,1.8c3.8-0.5,8.2-3.3,11.7-4.7c2.5-1,5.1-2.1,7.6-3.1c0.7-0.3,5.1-1.8,3.2-1.6
				c4.4-0.3,9.1,1.7,13.6,1.8c2.6,0.1,5.1-0.7,7.7-1.2c5.8-1.1,11.6-2.3,17.4-3.4c4-0.8,8.8-1,12.6-2.4c2.6-1,4.7-3.6,6.9-5.3
				c5.8-4.4,12.2-8,19.1-10.5C1063.6,14.8,1095.2,24.7,1113.3,47.7c1.5,1.9,4.1-0.8,2.7-2.7c-17.3-22-47.2-32.7-74.4-25.7
				c-7.5,1.9-14.7,5.1-21.3,9.3c-3.9,2.5-7.2,6-11.1,8.5c-0.9,0.6,0.8-0.2-0.1,0.1c-0.4,0.2-1.1,0.2-1.5,0.3
				c-2.3,0.4-4.5,0.9-6.7,1.3c-5.9,1.1-11.8,2.3-17.7,3.4c-2.4,0.5-4.8,0.9-7.2,1.4c-0.6,0.1-3.7,0.7-2.9,0.6c1,0-1.1-0.2-1.5-0.3
				c-1.5-0.2-3-0.4-4.4-0.6c-2.4-0.3-5-1.1-7.4-1c-3.2,0.1-6.7,2.3-9.7,3.5c-4.7,1.9-9.4,4.2-14.2,5.7c-1.2,0.4,0.8,0.2,0.3,0.2
				s-1.1-0.2-1.6-0.4c-2.3-0.6-4.6-1-6.9-1.5c-5.9-1.3-11.8-2.6-17.7-4c-3.6-0.8-6-1.8-9.5-0.6c-7.5,2.7-15.6,3.8-23.4,4.6
				c-10.9,1.1-24,2.4-34.5,1.1c-4.9-0.6-9.7-2.6-14.6-2.9c-3.4-0.2-7.1,0.6-10.5,0.9c-11.3,1.2-22.3,2.3-33.7,1.4
				c-9.9-0.7-19.8-2.1-29.6-2.5c-9.2-0.3-18.4,0.4-27.6,0.4c-12.4,0.1-24.8,0.2-37.3,0.4c-44.7,0.4-89.3,0.8-134,1.3
				c-48.4,0.5-96.8,0.9-145.3,1.4c-24.9,0.2-49.9,0.6-74.8,0.7c-33,0.2-66,0.2-99,0c-31.9-0.2-63.9-1-95.8-1.5
				c-37.7-0.6-75.5-0.9-113.3-1.8c-6-0.1-12.9-0.2-18,3.6C5.4,55,3.9,60,5.9,64.2c2.2,4.5,7.5,6.6,12.1,7.8c9.3,2.4,19.7,1.7,29.2,2
				c46.6,1.6,93.2,3.2,139.8,4.8s93.2,4,139.7,5c24.8,0.5,49.6,0.6,74.3,0.8c48.2,0.5,96.4,1.1,144.6,1.6c45.7,0.5,91.3,1,137,1.5
				c21.3,0.2,42.6,1.1,63.8,0c31.9-1.6,64-0.1,95.9,0.1c40.4,0.2,80.7,0.4,121.1,0.7c1,0,2.1,0.1,3.2,0c3.2-0.3,4.9-1.6,8.1-0.6
				c0.8,0.3,1.7,0.6,2.5,0.9c10.1,3.1,20.3,6,30.5,9c4.2,1.2,6.3,4.5,9.9,7.3c7.4,5.7,15.8,9.9,24.8,12.1
				c18.2,4.6,36.9-0.5,52.9-9.7c11.1-6.4,24.3-16.3,29.5-28.4c5.3-12.1-0.7-25-9.1-34.2C1114.3,43.2,1111.6,45.9,1113.3,47.7z"/>
		</g>
	</g>
</g>
</svg>
