<?xml version="1.0" encoding="utf-8"?>
<!-- Generator: Adobe Illustrator 21.0.2, SVG Export Plug-In . SVG Version: 6.00 Build 0)  -->
<svg version="1.1" id="Layer_1" xmlns="http://www.w3.org/2000/svg" xmlns:xlink="http://www.w3.org/1999/xlink" x="0px" y="0px"
	 viewBox="0 0 1133.9 119" style="enable-background:new 0 0 1133.9 119;" xml:space="preserve">
<style type="text/css">
	.st0{fill:#6E5D5D;}
	.st1{fill:#351F18;}
	.st2{fill:none;stroke:#404041;stroke-width:0.5;stroke-miterlimit:10;}
	.st3{fill:#201D1A;}
	.st4{fill:#171514;}
	.st5{fill:#A6A8AB;}
	.st6{fill:#231410;}
	.st7{fill:#918686;}
	.st8{fill:#1D191B;}
</style>
<g>
</g>
<g>
</g>
<g>
</g>
<g>
	<g>
		<g>
			<circle class="st0" cx="264" cy="67.5" r="3.2"/>
		</g>
	</g>
	<path class="st1" d="M442.3,53.6L261,49.9l0,0c-2.7-6.1-7.4-10.1-12.6-10.1c-5.2,0-9.9,4-12.6,10c-3-6.1-8.1-10-13.9-10
		c-6.5,0-12.2,5-15,12.4H195c-11.7-16.1-24-23.3-32.4-26.6c-3.2-1.7-6.7-2.6-10.4-2.6c-0.1,0-0.2,0-0.2,0l0,0c-3.8,0-7.4,1-10.7,2.7
		c-8.4,3.3-20.7,10.5-32.4,26.6H96.8v-0.8c0-3.2-2.6-5.7-5.7-5.7H76.4h-0.1c-0.1,0-0.1,0-0.2,0c-3.4,0-6.5,2.6-8.4,6.6h-6.9v3
		c0-4.8-3.3-8.7-7.3-8.7h-7.3c-2.4,2.9-4.9,5.8-7.3,8.7c-2.9-2.9-5.8-5.8-8.7-8.7h-8.7c-4.8,0-8.7,3.9-8.7,8.7v15.7
		c0,4.8,3.9,8.7,8.7,8.7h8.7c2.9-2.9,5.8-5.8,8.7-8.7c2.4,2.9,4.9,5.8,7.3,8.7h7.3c4,0,7.3-3.9,7.3-8.7v2.4h8.4
		c1.8,2.5,4.2,4.1,6.9,4.1c0.1,0,0.1,0,0.2,0h0.1H91c3.2,0,5.7-2.6,5.7-5.7v0.3h12.2c0,0,25.7,24.5,43.1,23.8c0.1,0,0.2,0,0.2,0
		c17.4,0.4,42.8-23.8,42.8-23.8l0,0h11.4c2.6,8,8.5,13.7,15.4,13.7c5.8,0,10.9-4,13.9-10c2.7,6.1,7.4,10,12.6,10
		c5.7,0,10.6-4.7,13.2-11.6l179.9,6.1L442.3,53.6z"/>
	<path class="st2" d="M6.6,100.5"/>
	<path class="st3" d="M449,54.2c-0.9-6.1-2.3-10.1-4-10.1c-2.7,0-4.8,10.4-4.8,23.2c0,0.2,0,0.4,0,0.6c0,0.1,0,0.2,0,0.3
		c0,0.3,0,0.7,0,1.1c0.2,11.9,2.3,21.2,4.8,21.2c1.4,0,2.7-3,3.6-7.7c0.3-0.7,0.6-1.5,0.9-2.5c224.7,1.6,449.5,3.2,674.2,4.8V73.7
		C898.8,67.1,673.9,60.6,449,54.2z"/>
	<g>
		<g>
			<path class="st4" d="M450.3,75.7c0-5.4,0-10.9,0-16.3c0-1.6-2.5-1.6-2.5,0c0,5.4,0,10.9,0,16.3C447.8,77.3,450.3,77.3,450.3,75.7
				L450.3,75.7z"/>
		</g>
	</g>
	<g>
		<g>
			<path class="st5" d="M1106.2,78c-23.3-0.3-46.6-0.5-70-0.8c-54.9-0.6-109.8-1.2-164.7-1.8c-64.7-0.7-129.4-1.4-194-2.1
				c-52.9-0.6-105.8-1.1-158.6-1.7c-14.9-0.2-29.8-0.3-44.6-0.5c-3.5,0-7-0.1-10.5-0.1c-5.3,0-10.2,2.6-15.4,3.4
				c-1.7,0.3-5.3,0.8-7.2,0.1c0.5,0.2-2.1-1.8-2.7-2.2c-1.1-0.8-2.1-1.6-3.2-2.3c-1.3-1-2.5,1.2-1.3,2.2c1.9,1.4,4.1,3.8,6.3,4.7
				c1.9,0.8,5.6,0.4,7.6,0.2c4.6-0.5,10.4-3.1,14.1-3.5c1.7-0.2,3.6,0,5.4,0.1c12.3,0.1,24.6,0.3,36.8,0.4
				c49.6,0.5,99.3,1.1,148.9,1.6c64.7,0.7,129.3,1.4,194,2.1c57.6,0.6,115.1,1.2,172.7,1.9c19.2,0.2,38.4,0.4,57.6,0.6
				c9,0.1,18.4,1,27.4,0.3c0.4,0,0.8,0,1.2,0C1107.8,80.5,1107.8,78,1106.2,78L1106.2,78z"/>
		</g>
	</g>
	<g>
		<g>
			<path class="st0" d="M428.1,69.9c-44.9-1.1-89.7-2.2-134.6-3.3c-6.4-0.2-12.8-0.3-19.2-0.5c-1.6,0-1.6,2.5,0,2.5
				c44.9,1.1,89.7,2.2,134.6,3.3c6.4,0.2,12.8,0.3,19.2,0.5C429.7,72.4,429.7,69.9,428.1,69.9L428.1,69.9z"/>
		</g>
	</g>
	<g>
		<g>
			<path class="st6" d="M262,68.7c0-4.1,0-8.2,0-12.2c0-1.6-2.5-1.6-2.5,0c0,4.1,0,8.2,0,12.2C259.5,70.3,262,70.3,262,68.7
				L262,68.7z"/>
		</g>
	</g>
	<g>
		<g>
			<path class="st6" d="M235.8,70.5c0-4.7,0-9.3,0-14c0-1.6-2.5-1.6-2.5,0c0,4.7,0,9.3,0,14C233.3,72.1,235.8,72.1,235.8,70.5
				L235.8,70.5z"/>
		</g>
	</g>
	<g>
		<g>
			<path class="st6" d="M207.7,66.9c0-3.4,0-6.8,0-10.2c0-1.6-2.5-1.6-2.5,0c0,3.4,0,6.8,0,10.2C205.2,68.5,207.7,68.5,207.7,66.9
				L207.7,66.9z"/>
		</g>
	</g>
	<g>
		<g>
			<path class="st6" d="M191.9,66.9c0-3.4,0-6.8,0-10.2c0-1.6-2.5-1.6-2.5,0c0,3.4,0,6.8,0,10.2C189.4,68.5,191.9,68.5,191.9,66.9
				L191.9,66.9z"/>
		</g>
	</g>
	<g>
		<g>
			<path class="st6" d="M59.9,68.3c0-3.4,0-6.9,0-10.3c0-1.6-2.5-1.6-2.5,0c0,3.4,0,6.9,0,10.3C57.4,69.9,59.9,69.9,59.9,68.3
				L59.9,68.3z"/>
		</g>
	</g>
	<g>
		<g>
			<path class="st6" d="M68.2,68.2c0-3.4,0-6.8,0-10.2c0-1.6-2.5-1.6-2.5,0c0,3.4,0,6.8,0,10.2C65.7,69.8,68.2,69.8,68.2,68.2
				L68.2,68.2z"/>
		</g>
	</g>
	<g>
		<g>
			<path class="st6" d="M109.4,67.3c0-3.4,0-6.8,0-10.2c0-1.6-2.5-1.6-2.5,0c0,3.4,0,6.8,0,10.2C106.9,68.9,109.4,68.9,109.4,67.3
				L109.4,67.3z"/>
		</g>
	</g>
	<g>
		<g>
			<path class="st6" d="M121.2,73.6c0-9,0-17.9,0-26.9c0-1.6-2.5-1.6-2.5,0c0,9,0,17.9,0,26.9C118.7,75.2,121.2,75.2,121.2,73.6
				L121.2,73.6z"/>
		</g>
	</g>
	<g>
		<g>
			<path class="st6" d="M39.2,65.8c0-1.7,0-3.5,0-5.2c0-1.6-2.5-1.6-2.5,0c0,1.7,0,3.5,0,5.2C36.7,67.4,39.2,67.4,39.2,65.8
				L39.2,65.8z"/>
		</g>
	</g>
	<circle class="st7" cx="154.8" cy="78" r="6.4"/>
	<circle class="st0" cx="174.4" cy="72.6" r="4.3"/>
	<circle class="st0" cx="264" cy="67.5" r="3.2"/>
	<circle class="st7" cx="244.3" cy="71.7" r="4"/>
	<circle class="st0" cx="222" cy="72.6" r="3.2"/>
	<circle class="st0" cx="215.7" cy="67.5" r="3.2"/>
	<circle class="st0" cx="135.2" cy="68.3" r="4.3"/>
	<circle class="st0" cx="54.3" cy="72.2" r="3"/>
	<circle class="st7" cx="28.3" cy="71.5" r="3.2"/>
	<circle class="st0" cx="74.3" cy="71.5" r="3.2"/>
	<g>
		<g>
			<g>
				<circle class="st7" cx="88.5" cy="69.8" r="4.1"/>
			</g>
		</g>
	</g>
	<circle class="st0" cx="102.6" cy="64.9" r="2.3"/>
	<g>
		<g>
			<path class="st8" d="M450.7,54.2c-0.2-3.3-0.7-11.6-5.5-12s-6.4,7.7-7,10.9c0.6-0.5,1.2-0.9,1.8-1.4
				c-60.1-1.2-120.1-2.4-180.2-3.6c-1,0-1.9,0.9-1.9,1.9l0,0c1.2-0.3,2.3-0.6,3.5-0.9c-2.8-5.6-7.5-11-14.2-11s-11.4,5.4-14.2,11
				c1.1,0,2.2,0,3.2,0c-3.5-6.4-9.5-11.7-17.2-10.9c-7.5,0.8-12.4,7.1-15.1,13.7c0.6-0.5,1.2-0.9,1.8-1.4c-3.2,0-7.8,0.9-10.9,0
				c-1.5-0.4,0-0.2-0.6-0.8c-1.5-1.4-2.7-3.5-4.1-5.1c-2.5-2.9-5.2-5.7-8.1-8.2c-8.5-7.5-19.7-14.4-31.2-15.2
				c-1-0.1-1.9,0.9-1.9,1.9l0,0c0.6-0.6,1.2-1.2,1.9-1.9c-11.7,0.5-23.4,8.1-31.8,15.7c-2.9,2.6-5.6,5.4-8.1,8.4
				c-1.4,1.7-2.8,4.7-4.1,5.1c-3.2,0.9-7.8,0-11.2,0c0.6,0.6,1.2,1.2,1.9,1.9c0.7-11-15.6-8.9-22.5-8.4c-3.1,0.2-5.6,1.5-7.7,3.8
				c-1.4,1.6-2,3.1-4.6,2.7c-2.1-0.4-3.5-2.3-5.1-3.5c-1.4-1.1-3-2.5-4.8-2.9c-2-0.5-6.9-0.4-8.7,0.3c-3.2,1.2-6.1,7.4-8,10.1
				c1-0.1,2-0.3,2.9-0.4c-3.2-3.2-6.7-9-11.4-9.3c-3.3-0.2-7.4-0.5-10.6,0.5c-8.2,2.7-7.3,11.1-7.3,17.9C9.7,70,8.9,78.3,17,81
				c3.1,1,7,0.6,10.1,0.5c5.1-0.1,8.5-5.9,11.9-9.3c-1-0.1-2-0.3-2.9-0.4c1.8,2.4,3.5,4.7,5.3,7.1c0.7,1,1.5,2.6,2.7,3.1
				c1.7,0.8,5.1,0.1,7,0.1c2.3,0,3.2-0.3,5.1-1.7c3.3-2.4,5.3-6.8,10.1-5.4c3.4,1,4.9,3.8,8.9,4.1c7.1,0.4,21.3,2.6,22.4-7.3
				c-0.6,0.6-1.2,1.2-1.9,1.9c3.9,0,7.8,0.1,11.7,0c1.3,0-1.5-1-0.6-0.3c0.4,0.3,0.9,0.7,1.2,1.1c1.3,1.3,2.8,2.4,4.2,3.6
				c9,7.5,19.3,15.2,30.7,18.3c19.3,5.3,39.2-10.9,52.3-23.3c-1.1-0.4-2.1-0.9-3.2-1.3l0,0c0,1,0.9,1.9,1.9,1.9c3.8,0,7.6,0,11.4,0
				c-0.6-0.5-1.2-0.9-1.8-1.4c2.5,7,7.4,13.9,15.4,14.9c7.8,1,13.9-4.4,17.4-10.8c-1.1,0-2.2,0-3.2,0c3,6.1,8.4,11.8,15.8,10.9
				c6.9-0.8,11.1-7,13.5-12.9c-0.6,0.5-1.2,0.9-1.8,1.4c59.8,2,119.6,4,179.3,6.1c-0.6-0.6-1.2-1.2-1.9-1.9
				c0.4,3.3,1.4,12.1,6.5,12.1c5,0,5.9-8.7,6.3-12c-0.6,0.6-1.2,1.2-1.9,1.9c87.5,0.6,175.1,1.2,262.6,1.9
				c87.5,0.6,175.1,1.2,262.6,1.9c49.5,0.3,99,0.7,148.5,1c1,0,1.9-0.9,1.9-1.9c0-3.8,0-7.6,0-11.4c0-1-0.9-1.8-1.9-1.9
				c-87.5-2.5-175.1-5-262.6-7.6c-87.5-2.5-175.1-5-262.6-7.6c-49.5-1.4-99-2.8-148.5-4.3c-2.4-0.1-2.4,3.7,0,3.8
				c87.5,2.5,175.1,5,262.6,7.6c87.5,2.6,175.1,5,262.6,7.6c49.5,1.4,99,2.8,148.5,4.3c-0.6-0.6-1.2-1.2-1.9-1.9c0,3.8,0,7.6,0,11.4
				c0.6-0.6,1.2-1.2,1.9-1.9c-87.5-0.6-175.1-1.2-262.6-1.9c-87.5-0.6-175.1-1.2-262.6-1.9c-49.5-0.3-99-0.7-148.5-1
				c-1.1,0-1.8,0.9-1.9,1.9c-0.2,1.5-0.4,6.9-2.6,6.9s-2.5-5.6-2.7-7c-0.1-1-0.8-1.8-1.9-1.9c-59.8-2-119.6-4-179.3-6.1
				c-0.9,0-1.5,0.6-1.8,1.4c-1.9,4.5-5.1,9.5-10.4,10.1c-5.9,0.7-9.7-4.3-12-9c-0.6-1.3-2.6-1.2-3.2,0c-2.9,5.3-7.9,10.3-14.5,8.9
				c-5.9-1.3-9.5-6.8-11.4-12.1c-0.3-0.8-0.9-1.4-1.8-1.4c-3.8,0-7.6,0-11.4,0c0.6,0.6,1.2,1.2,1.9,1.9l0,0c0-1.7-2-2.4-3.2-1.3
				c-13.9,13.2-33.9,29-53.9,20.5c-10.2-4.3-19.4-11.4-27.6-18.7c-1.6-1.4-2.2-2.1-4.3-2.4c-3.6-0.4-7.5,0-11.2,0
				c-1.1,0-1.8,0.9-1.9,1.9c-0.5,4.9-7.4,3.6-10.6,3.6c-2.6,0-5.6,0.4-8.2,0c-4.7-0.8-4.5-4-8.7-4.1c-2.1,0-4.9-0.5-6.7,0.5
				c-1.2,0.7-2.2,2.7-3.4,3.8c-2.4,2.1-4.2,2.8-7.3,2.7c-4.9-0.1-6.9-4.8-9.6-8.5c-0.7-1-2-1.3-2.9-0.4c-2.4,2.4-5.9,7.4-8.8,8.2
				c-1.9,0.5-5.2,0.2-7.2,0c-8.2-0.9-7-8.7-7-14.7s-1.2-13.8,7-14.7c2-0.2,5.3-0.5,7.2,0c2.9,0.7,6.3,5.7,8.8,8.2
				c0.9,0.9,2.2,0.6,2.9-0.4c1.6-2.2,3-5,5-6.9c2.4-2.2,7.1-2,9.9-0.4c2.1,1.2,3.7,3.9,5.8,4.9c1.8,0.8,4.7,0.3,6.6,0.3
				c0.6,0,1.3-0.4,1.6-0.9c3.3-6.2,7.4-5.6,13.3-5.6c3.8,0,12.6-1.6,12.3,4.7c-0.1,1,0.9,1.9,1.9,1.9c3.5,0,7,0.1,10.5,0
				c4.9-0.2,6.8-5.6,9.9-9c8.5-9.2,21.7-19.7,34.8-20.2c1,0,1.9-0.8,1.9-1.9l0,0c-0.6,0.6-1.2,1.2-1.9,1.9
				c13,0.9,25.6,10.4,34.2,19.5c3.3,3.6,5.4,9.5,10.5,9.7c3.4,0.2,6.8,0,10.2,0c0.9,0,1.5-0.6,1.8-1.4c2.1-5.1,6.1-10.4,12-10.9
				c6.2-0.6,10.7,3.9,13.4,9c0.6,1.2,2.6,1.3,3.2,0c2.1-4.3,5.6-9.1,11-9.1s8.9,4.8,11,9.1c0.8,1.7,3.5,0.8,3.5-0.9l0,0
				c-0.6,0.6-1.2,1.2-1.9,1.9c60.1,1.2,120.1,2.4,180.2,3.6c0.8,0,1.7-0.6,1.8-1.4c0.2-1.2,0.9-6.7,2.2-7c2.9-0.6,2.8,5.8,2.9,7.2
				C447,56.6,450.8,56.6,450.7,54.2z"/>
		</g>
	</g>
</g>
</svg>
