<?xml version="1.0" encoding="utf-8"?>
<!-- Generator: Adobe Illustrator 21.0.2, SVG Export Plug-In . SVG Version: 6.00 Build 0)  -->
<svg version="1.1" id="Layer_1" xmlns="http://www.w3.org/2000/svg" xmlns:xlink="http://www.w3.org/1999/xlink" x="0px" y="0px"
	 viewBox="0 0 1133.9 108.6" style="enable-background:new 0 0 1133.9 108.6;" xml:space="preserve">
<style type="text/css">
	.st0{fill:#55505D;}
	.st1{fill:#27262D;}
	.st2{fill:#727373;}
	.st3{fill:#706E7C;}
	.st4{fill:#AAAAB2;}
	.st5{fill:#585858;}
	.st6{fill:#53514C;}
	.st7{fill:#63625A;}
	.st8{fill:#5A5854;}
	.st9{fill:#9E9E9E;}
	.st10{fill:#26251D;}
	.st11{fill:#636060;}
	.st12{fill:#7C7A77;}
	.st13{fill:#1D191B;}
</style>
<g>
	<g>
		<path class="st0" d="M30.1,55.1c0,0,138,2.5,161.6,7.2c5,1,17.4,1.5,34.3,2.4c35.3,1.8,63.8,1.2,81.7,0.4
			c23.3-0.3,46.8-0.4,70.6-0.3c6.4,0,12.8,0.1,19.2,0.1c3.6,0.6,9.2,1.3,16,1.7c18.5,1.1,28.6-1.5,41.8-2.2
			c16.5-0.9,18.4,2.1,42.5,4.1c12.5,1.1,30.6,1.9,53,0.1c5.3,0.6,13.4,1.3,23.3,1.3c23.7,0.1,28.1-3.7,48.6-3.3
			c14,0.3,14.6,2.1,36,3.1c10.6,0.5,19.4,0.4,25.2,0.3c0,0,50.2,3.5,58.1,0.7c7.9-2.7,95-2,102.4,1.1c100.9,9.8,139.6,10.9,155.9,10
			c4.2-0.2,19.1-1.3,38.4,1.9c11.9,2,21.1,4.8,26.2,6.5c4.8,1.6,10,2.5,15.5,2.5c24.1,0,43.6-17,43.6-38s-19.5-38-43.6-38
			c-6.7,0-13,1.3-18.7,3.7c-9.8,3-32.1,8.3-58.2,4c0,0-62.5-0.5-88.7,7.4c0,0-17.3,2.6-43.6,2.6s-77.7,0.5-102.9-0.5
			c-25.2-1.1-63-1.6-89.8,1.1c-26.8,2.6-39.9,0.5-39.9,0.5s-56.7-4.2-75.1-1.1c-18.4,3.2-67.2,1.6-67.2,1.6
			c-24.9,1.1-49.7,2.1-74.6,3.2c-37.5,0.2-74.9,0.4-112.4,0.5c-21.9,0.4-44.4,0.4-67.2,0c-7.9-0.1-15.8-0.3-23.6-0.5
			c-20.4,1.1-37.2,1.2-49.4,1.1c-16.3-0.2-31.5-0.8-49.9-1.6c-15-0.7-12.6-1.2-20.5-1c-20,0.5-68.7,0-68.7,0
			c-11.7,0-21.2,3.9-21.2,8.7C8.9,51.1,18.4,55.1,30.1,55.1z"/>
	</g>
	<path class="st1" d="M895.3,75.4c-8.6-0.8-13.1-1.1-23.5-2.1c-8.3-0.8-17.1-1.6-26.5-2.5c-7.4-3-94.5-3.8-102.4-1.1
		c-7.9,2.7-58.1-0.7-58.1-0.7c-5.8,0.1-14.5,0.2-25.2-0.3c-21.4-1-22-2.8-36-3.1c-20.5-0.4-24.8,3.4-48.6,3.3
		c-9.9,0-18-0.8-23.3-1.3c-22.4,1.7-40.5,0.9-53-0.1c-24.1-2.1-26.1-5.1-42.5-4.1c-13.1,0.8-23.2,3.3-41.8,2.2
		c-6.8-0.4-12.4-1.1-16-1.7c-6.4,0-12.8-0.1-19.2-0.1c-23.7-0.1-47.2,0-70.6,0.3c-17.9,0.7-46.4,1.3-81.7-0.4
		c-17-0.8-29.3-1.4-34.3-2.4C169,56.6,31,54.1,31,54.1c-2.3,0.3-8.5,0.9-15-2.6c-4.1-2.2-6.7-5.1-8-6.9c4.5-1.2,9.9-2.2,16-2.5
		c14.6-0.8,26.5,2.6,34.1,5.6c9.6,1.9,17.5,2.1,23,1.9c8.5-0.3,14-1.7,25.6-1.7c5.1,0,9.2,0.3,12,0.5c6,1.1,12.8,2,20.2,2.4
		c13.1,0.7,24.7-0.2,34.2-1.7c8.9-1.6,20.3-2.7,33.3-1.9c19.2,1.1,34.7,5.8,45.3,10.1c3.8,0.9,8.1,1.6,12.8,2.1
		c11.1,1,20.7-0.3,27.9-2c6.3-1.9,13.1-3.8,20.2-5.4c11.6-2.7,22.6-4.5,32.7-5.7c2.2-0.2,5-0.3,8,0.2c8.3,1.3,13.9,5.8,16.6,8.2
		c1.3,0.9,3.1,2,5.6,2.7c4.7,1.4,8.8,0.5,10.6,0c2.3-1.9,5.1-3.9,8.6-5.6c8.2-4.2,15.9-5,20.8-5.2c3.6-0.4,8.1-0.5,13.3,0.1
		c7,0.8,12.7,2.7,16.7,4.5c3.1,0.8,6.9,1.6,11.2,1.9c6.6,0.5,12.2-0.3,16.4-1.1c4.9-1.2,10.2-2.4,16-3.2c9.1-1.4,17.4-1.8,24.7-1.8
		c4.5,0.1,10.7,0.7,17.8,2.3c11.8,2.7,16.3,6.1,26.9,7.7c4.5,0.7,10.6,1.2,18.1,0.4c4.9-0.8,11-1.4,18.1-1.2c7,0.2,13,1.2,17.8,2.4
		c5.7,0.9,12.2,1.7,19.4,1.9c7.7,0.2,14.7-0.2,20.7-0.8c0,0,33.2-8.4,47-5.7c4.6,0.8,10.1,1.4,16.4,1.4c8.2,0,15.2-1.1,20.7-2.4
		c5.3-1.2,4.7-1.3,15.3-3.8c8.3-1.9,12.5-2.9,17-3.4c8.2-0.9,12.3-1.4,16.7,0.2c5.4,1.9,6.7,4.3,11.8,5.5c2.3,0.6,5.8,0.7,10.5-1.7
		c2.9-0.4,6.9-0.8,11.7-1.1c7.1-0.4,13.7-0.7,21,0.6c10.6,1.8,9.4,4.7,19.5,6.3c7.7,1.2,10-0.2,19.5,1c6,0.8,10.7,2.1,13.7,3
		c12-0.2,21.7,4.5,24.4,11.9c0.6,1.5,1,3.7,0.6,6.5C913.3,77.3,905.2,76.4,895.3,75.4z"/>
	<path class="st2" d="M894,76.3c64.3,5.5,92.4,6.1,105.7,5.4c4.2-0.2,19.1-1.3,38.4,1.9c11.9,2,21.1,4.8,26.2,6.5
		c4.8,1.6,10,2.5,15.5,2.5c24.1,0,43.6-17,43.6-38s-19.5-38-43.6-38c-6.7,0-13,1.3-18.7,3.7c-9.8,3-32.1,8.3-58.2,4
		c0,0-62.5-0.5-88.7,7.4c0,0-7.5,1.1-20.2,1.9c0,0,14.3,12.6,19.5,21.1C913.5,54.6,913.9,64.1,894,76.3z"/>
	<g>
		<g>
			<path class="st3" d="M908.7,59.3c-7.8,0.1-15.8-0.2-23.3-2.3c-4.6-1.3-8.9-3.7-13.4-5.5c-13.2-5.2-27.3-7.1-41.5-5.4
				c-8.8,1.1-16.2,3.2-24.6-1.4c-5.1-2.8-10.3-5.5-16.1-6.7c-6.9-1.5-14-0.5-20.5,2.1c-2.3,0.9-4.5,1.9-6.6,3.1c-2.7,1.6-4.9,4-8,5
				c-5.8,1.8-12.8,0.8-18.8,1.6c-6,0.9-11.3,4.1-17.5,4.4c-4.7,0.2-9.4-1.1-14-1.6c-6.8-0.8-13.7-0.9-20.5-0.5
				c-5.8,0.4-11.2-1.6-15.6-5.4c-4.9-4.2-8.8-8.2-15.1-10.2c-14.2-4.4-28.4-0.1-40,8.3c-7.8,5.7-17,11.1-26.8,11.6
				c-9,0.5-18.7-2.2-27.1-5.3c-10.4-3.8-20-10.1-30.8-12.8c-7-1.7-14.4-2.3-21.5-0.8c-6.7,1.3-10.6,4.8-16.3,7.9
				c-6.9,3.8-15.2,6.1-23,6.5c-6.8,0.4-13.6-1.4-20.2-2.7c-9.9-2-20.1-6-30.3-5.4c-11.3,0.6-22.3,3.8-33.4,5.5
				c-11.9,1.9-22.3-5.2-34.2-4.7c-14.1,0.5-28.2,5.3-41.8,8.5c-13.3,3.1-27.5,6.9-41.3,5.9c-6.5-0.5-12.2-2.2-18.1-5
				c-5.8-2.8-12.2-4.4-18.5-5.5c-14.7-2.5-30.6-3.3-45.6-2.8c-13.2,0.4-25.7,5.2-38.9,5.4c-8.9,0.2-17.7-1.3-26.3-3.7
				c-1.6-0.4-2.2,2-0.7,2.4c13.9,3.9,28.4,5.2,42.5,1.9c7.1-1.6,14.1-3.1,21.5-3.5c8-0.4,16.1,0.2,24.1,0.6
				c14.5,0.8,29.2,1.6,42.4,8.2c11.2,5.5,24,5.1,36,3.2c14.1-2.3,27.9-5.8,41.8-9.1c7.2-1.7,14.6-3.6,22-4
				c6.6-0.4,12.5,1.1,18.6,3.2c9.3,3.1,17.2,1.2,26.4-0.5c11.5-2.1,23.4-5,35-2.3c12.4,2.9,25.8,7.6,38.7,7
				c6.1-0.3,12.2-1.8,17.8-3.9c6.2-2.4,11.1-6.9,17.2-9.2c12.3-4.6,26.8-1.8,38.1,4.3c13.2,7.1,29.8,13.5,45,13.2
				c8.6-0.2,16.2-3.9,23.4-8.3c6.5-3.9,11.8-8.9,19.1-11.3c8.7-2.8,18.8-3.1,27.2,0.6c6.3,2.7,10,8.6,15.9,11.8
				c3.8,2.1,8.1,3.1,12.5,2.9c7-0.4,13.9-0.3,20.8,0.5c4.6,0.5,9.3,1.8,14,1.6c5.9-0.2,10.8-2.9,16.3-4.2c6.1-1.3,12.4-0.5,18.4-1.5
				c5.5-0.9,9.3-5.2,14.2-7.5c7.9-3.6,16.5-4.9,24.9-2.3c5.8,1.8,10.5,5.3,16.1,7.5c6.9,2.8,13.7,1.2,20.7,0.1
				c6-0.9,12.2-0.9,18.3-0.5c9.6,0.7,18.4,3.2,27.2,7c4,1.7,7.8,3.6,12,4.6c7.2,1.7,14.6,2,22,1.9C910.4,61.8,910.4,59.3,908.7,59.3
				L908.7,59.3z"/>
		</g>
	</g>
	<g>
		<g>
			<path class="st4" d="M900.5,56.9c-6.7-0.2-13.5-1.4-19.7-4.2c-4.6-2-9-4.2-13.9-5.7c-11.1-3.3-23-4.2-34.6-3.3
				c-1.6,0.1-1.6,2.6,0,2.5c12.6-0.9,25.5,0.2,37.4,4.4c4.7,1.7,9,4.2,13.7,5.9c5.5,1.9,11.3,2.8,17.1,3
				C902.2,59.5,902.2,57,900.5,56.9L900.5,56.9z"/>
		</g>
	</g>
	<g>
		<g>
			<path class="st4" d="M803.4,45.3c-8.6-4-19-6.3-28.5-5c-4.2,0.6-7.9,2.3-11,5.2c-5.3,4.9-10.7,6.8-18,6.1c-1.6-0.2-1.6,2.3,0,2.5
				c4.3,0.4,8.5,0.2,12.5-1.5c4.3-1.8,6.5-5.5,10.4-7.7c9.5-5.4,24.1-1.7,33.3,2.6C803.6,48.1,804.8,45.9,803.4,45.3L803.4,45.3z"/>
		</g>
	</g>
	<g>
		<g>
			<path class="st4" d="M691.6,49.5c-9.2,1.8-17.6-0.9-24.5-7.1c-1.2-1.1-3,0.7-1.8,1.8c7.6,6.9,16.9,9.8,27,7.8
				C693.9,51.6,693.2,49.2,691.6,49.5L691.6,49.5z"/>
		</g>
	</g>
	<g>
		<g>
			<path class="st4" d="M635.3,37.6c-14.6,1.8-24,13.1-37,18.7c-1.5,0.6-0.2,2.8,1.3,2.2c5.9-2.6,11.4-5.7,16.5-9.7
				c5.8-4.5,11.8-7.8,19.2-8.7C636.8,39.9,636.8,37.4,635.3,37.6L635.3,37.6z"/>
		</g>
	</g>
	<g>
		<g>
			<path class="st4" d="M577.2,54.6c-13.2-0.7-24.6-8.8-36.7-13.3c-1.5-0.6-2.2,1.9-0.7,2.4c12.4,4.6,23.8,12.7,37.4,13.4
				C578.8,57.1,578.8,54.6,577.2,54.6L577.2,54.6z"/>
		</g>
	</g>
	<g>
		<g>
			<path class="st4" d="M494.4,40.5c-6.3,6.1-14.6,9.3-23.4,9.1c-1.6,0-1.6,2.5,0,2.5c9.4,0.2,18.3-3.2,25.1-9.8
				C497.3,41.1,495.6,39.4,494.4,40.5L494.4,40.5z"/>
		</g>
	</g>
	<path class="st5" d="M987.3,80.2c-16.6-0.2-44.3-1.6-91.8-5.6c3-1.4,7.8-4.1,12.1-9.2c2.7-3.2,4.4-6.4,5.5-8.9
		c25.5-0.8,51-1.6,76.5-2.3C988.9,62.8,988.1,71.5,987.3,80.2z"/>
	<g>
		<path class="st6" d="M1006.8,26c-3.8-0.2-7.8-0.7-11.9-1.3c0,0-15-0.1-33.4,0.7c0,0,26.3,18.7,25.3,25.7c0,0,2.4,5.3-21,31
			c12.2,0.4,20.4,0.4,25.9,0.1c1.6-0.1,4.7-0.3,8.9-0.3"/>
	</g>
	<path class="st7" d="M974.4,81.9c12.2,0.4,20.4,0.4,25.9,0.1c4.2-0.2,19.1-1.3,38.4,1.9c11.9,2,21.1,4.8,26.2,6.5
		c4.8,1.6,10,2.5,15.5,2.5c24.1,0,43.6-17,43.6-38s-19.5-38-43.6-38c-6.7,0-13,1.3-18.7,3.7c-9.8,3-32.1,8.3-58.2,4
		c0,0-15-0.1-33.4,0.7c0,0,26.3,18.7,25.3,25.7C995.3,51,997.7,56.3,974.4,81.9z"/>
	<path class="st8" d="M1057.3,55.5c0.1-5.4-1.8-6.4-2.2-16.8c-0.3-8.2-0.5-12.3,1.5-15.7c5-8,20.2-7.9,28.7-6.2
		c14.2,2.8,38.1,15,38.1,38.1c0,22.4-22.6,37-38.1,38.1c-3.8,0.3-9.4-0.7-20.5-2.8c-12.8-2.3-19.3-3.6-20.6-6.8
		C1041.5,76.7,1056.9,70.6,1057.3,55.5z"/>
	<g>
		<g>
			<path class="st9" d="M984.2,51.5c-22.2,0.7-44.3,1.4-66.5,2.1c-1.6,0.1-1.6,2.6,0,2.5c22.2-0.7,44.3-1.4,66.5-2.1
				C985.8,54,985.8,51.5,984.2,51.5L984.2,51.5z"/>
		</g>
	</g>
	<g>
		<g>
			<path class="st5" d="M949.2,45.9c-10.5,0.3-21,0.7-31.5,1c-1.6,0.1-1.6,2.6,0,2.5c10.5-0.3,21-0.7,31.5-1
				C950.8,48.3,950.8,45.8,949.2,45.9L949.2,45.9z"/>
		</g>
	</g>
	<circle class="st10" cx="988" cy="74" r="2.1"/>
	<circle class="st10" cx="1109.8" cy="73" r="2.1"/>
	<circle class="st10" cx="1087.3" cy="78.7" r="2.1"/>
	<ellipse class="st11" cx="1104" cy="45.2" rx="11" ry="15"/>
	<circle class="st12" cx="1083" cy="42.3" r="13.6"/>
	<path class="st12" d="M1009.4,57.7c3.2,0,6.2-1.3,8.4-3.4c1.7,0.9,3.7,1.5,5.8,1.5c2,0,3.8-0.5,5.4-1.3c1.4,5.1,6.1,8.8,11.6,8.8
		c6.7,0,12-5.4,12-12s-5.4-12-12-12c-2,0-3.8,0.5-5.4,1.3c-1.4-5.1-6.1-8.8-11.6-8.8c-3.2,0-6.2,1.3-8.4,3.4
		c-1.7-0.9-3.7-1.5-5.8-1.5c-6.7,0-12,5.4-12,12S1002.7,57.7,1009.4,57.7z"/>
	<circle class="st10" cx="997.3" cy="59.2" r="2.1"/>
	<circle class="st10" cx="1112" cy="65.7" r="2.1"/>
	<circle class="st10" cx="996.1" cy="34.6" r="2.1"/>
	<circle class="st10" cx="998.9" cy="68.3" r="2.1"/>
	<circle class="st10" cx="1005.7" cy="75.2" r="2.1"/>
	<circle class="st10" cx="1116.7" cy="70" r="2.1"/>
	<circle class="st10" cx="996.1" cy="77.3" r="2.1"/>
	<circle class="st10" cx="1014.5" cy="74" r="2.1"/>
	<circle class="st10" cx="1014.5" cy="65.7" r="2.1"/>
	<circle class="st10" cx="1007" cy="59.2" r="2.1"/>
	<circle class="st10" cx="1018.7" cy="55.6" r="2.1"/>
	<circle class="st10" cx="1002.8" cy="50.4" r="2.1"/>
	<circle class="st10" cx="1023" cy="73" r="2.1"/>
	<circle class="st10" cx="1029.7" cy="77.3" r="2.1"/>
	<circle class="st10" cx="1031.8" cy="41.4" r="2.1"/>
	<circle class="st10" cx="1058.8" cy="34.6" r="2.1"/>
	<circle class="st10" cx="1042.8" cy="78.7" r="2.1"/>
	<circle class="st10" cx="1043.2" cy="63.5" r="2.1"/>
	<circle class="st10" cx="1056.6" cy="59.2" r="2.1"/>
	<circle class="st10" cx="1054.2" cy="68.3" r="2.1"/>
	<circle class="st10" cx="1054.2" cy="81.6" r="2.1"/>
	<circle class="st10" cx="1060.9" cy="76.5" r="2.1"/>
	<circle class="st10" cx="1067.6" cy="83.7" r="2.1"/>
	<circle class="st10" cx="1076.5" cy="77.3" r="2.1"/>
	<circle class="st10" cx="1072.2" cy="70" r="2.1"/>
	<circle class="st10" cx="1076.5" cy="65.7" r="2.1"/>
	<circle class="st10" cx="1067.6" cy="54.5" r="2.1"/>
	<circle class="st10" cx="1083" cy="74.4" r="2.1"/>
	<circle class="st10" cx="1076.5" cy="85.9" r="2.1"/>
	<circle class="st10" cx="1094.5" cy="78.7" r="2.1"/>
	<circle class="st10" cx="1087.3" cy="85.9" r="2.1"/>
	<circle class="st10" cx="1081.4" cy="56.7" r="2.1"/>
	<circle class="st10" cx="1072.2" cy="48.3" r="2.1"/>
	<circle class="st10" cx="1096.6" cy="72.2" r="2.1"/>
	<circle class="st10" cx="1087.8" cy="68.3" r="2.1"/>
	<circle class="st10" cx="1096.6" cy="83.7" r="2.1"/>
	<circle class="st10" cx="1105.5" cy="77.3" r="2.1"/>
	<circle class="st10" cx="1103.4" cy="67.8" r="2.1"/>
	<circle class="st10" cx="1094.5" cy="61.4" r="2.1"/>
	<circle class="st10" cx="1098.7" cy="56.7" r="2.1"/>
	<circle class="st10" cx="1105.5" cy="59.2" r="2.1"/>
	<circle class="st10" cx="1116.7" cy="56.7" r="2.1"/>
	<circle class="st10" cx="1118.9" cy="59.2" r="2.1"/>
	<circle class="st10" cx="1107.7" cy="38.9" r="2.1"/>
	<circle class="st10" cx="1089.9" cy="36.7" r="2.1"/>
	<circle class="st10" cx="1078.9" cy="28.1" r="2.1"/>
	<circle class="st10" cx="1062.9" cy="26" r="2.1"/>
	<g>
		<g>
			<path class="st13" d="M30.1,56.9c21,0.4,42,0.9,63,1.5c30.2,0.9,60.8,1.3,90.8,4.6c40.8,4.4,81.7,5.2,122.7,3.9
				c15-0.5,30.1-0.3,45.1-0.3c15.3,0,31.2-1.2,46.5,0.2c12.4,1.2,24.3,2.3,36.8,1.3c9.7-0.8,19.4-2.5,29.2-2
				c8.1,0.4,16.1,2.3,24.1,3.3c11.6,1.4,23.3,2.1,35,2.1c6.4,0,12.8-0.1,19.2-0.5c6.3-0.3,12.1-0.1,18.4,0.3
				c12,0.8,23.9,0.6,35.8-0.9c9.8-1.3,19.5-2.3,29.4-1.8c7.8,0.4,15.5,1.8,23.3,2.4c15.7,1.2,31.5,0.8,47.2,1.6
				c8.4,0.5,16.9,0.8,25.4,1c6.1,0.1,12.7,0.5,18.8-0.7c9.9-1.8,19.9-1.9,29.9-2c16.4-0.2,32.9,0,49.3,0.6
				c13.3,0.5,26.2,2.3,39.5,3.5c38.6,3.6,77.4,7.3,116.2,8.6c7.9,0.3,15.8,0.4,23.6,0.1c21.1-1,41.9,0.9,62.1,7.3
				c20.1,6.4,43.2,3.6,56.8-14.1c11.9-15.5,9.3-37-5-50c-7.4-6.7-17-10.7-26.9-11.8c-11.5-1.3-21.1,2.7-32,5.3
				c-11.7,2.8-23.8,4-35.9,3.5c-6.5-0.3-12.9-1.5-19.4-1.5c-16.6,0.1-33.3,0.6-49.9,2c-8.8,0.7-17.7,1.7-26.4,3.4
				c-5.4,1.1-10.2,2.3-15.7,2.9c-21.5,2.2-43.1,1.7-64.7,1.8c-22.3,0.1-44.6,0.2-66.8-0.4c-23.7-0.6-47.3-1.5-70.9-0.8
				c-21.1,0.7-42.4,4.5-63.5,2.4c-8.5-0.8-17.4-1.3-26.1-1.7c-16.6-0.8-33.8-2.1-50.3,0.2c-17.2,2.4-34.7,2.3-52.1,2.1
				c-18.6-0.2-37,0.6-55.6,1.3c-61.9,2.6-124.1,2.4-186.1,2.3c-16,0-31.9-0.3-47.9-0.7c-13.5-0.3-27,0.9-40.5,1
				c-24.8,0.2-49.8-0.4-74.5-2.4c-15.4-1.3-31.3,0-46.8-0.1c-8.1,0-16.2-0.1-24.3-0.2c-6-0.1-11.9-0.2-17.8,1.2
				c-4.8,1.2-13.9,4.8-11.4,11.4C10.3,56.1,23.5,56.8,30.1,56.9c2.4,0,2.4-3.7,0-3.8c-5.2-0.1-13.8-0.4-17.8-4.4
				c-5.6-5.7,8.7-8.6,12.2-9c4.9-0.6,10-0.3,14.9-0.2c17.4,0.1,34.8,0.3,52.2,0c18.5-0.2,36.9,1.4,55.4,2
				c11.8,0.4,23.6,0.6,35.3,0.5c13.5-0.1,27-1.3,40.5-1c60.4,1.6,120.9,0.2,181.3,0c30-0.1,60-1.9,90-3.1
				c13.2-0.5,26.5,0.4,39.7,0.2c15.2-0.2,30.1-2.7,45.3-3c16.7-0.3,33.5,0.5,50.1,1.5c8.5,0.5,14.4,1.4,23.4,1.4
				c11.7,0.1,23.2-1.3,34.9-2.1c12.4-0.9,24.9-1.1,37.4-1.2c21.9-0.1,43.7,1.1,65.6,1.4c21.7,0.3,43.5,0.1,65.2,0
				c19.1-0.1,38.5,0.4,57.4-2.4c5.5-0.8,10.9-2.5,16.4-3.3c9.7-1.5,19.5-2.3,29.2-3c14.2-0.9,28.6-1.7,42.8-1.3
				c8.9,0.2,17.5,1.8,26.5,1.5c10.3-0.4,20.5-1.9,30.5-4.6c4.9-1.3,9.5-3.3,14.6-4.1c6.8-1.1,13.8-0.6,20.4,1.3
				c10.5,3.3,20.2,10.3,25.2,20.4c11.2,22.7-7.4,45.5-29.9,49.6c-12.4,2.2-23.1-2-34.8-5c-12.4-3.2-25.1-5-37.9-5.4
				c-9.3-0.3-18.5,0.5-27.8,0.5c-29.9-0.1-59.8-2.8-89.5-5.3c-33.6-2.8-66.8-7.1-100.6-7.6c-14.8-0.2-29.7-0.3-44.6,0.4
				c-9.2,0.4-18,2.3-27.2,2.2c-13.7,0-27.3-1-41-1.7c-8.2-0.4-16.4,0-24.6-0.3c-9.4-0.4-18.6-1.5-27.9-2.5
				c-19.1-2.1-37.6,2.6-56.6,2.7c-6.2,0-12.5-0.2-18.7-0.7c-6.5-0.5-12.7-0.2-19.2,0.1c-11.6,0.5-23.2,0.3-34.7-0.4
				c-18.3-1.2-35.8-5.8-54.2-4.1c-10.9,1-21.7,2.3-32.8,1.9c-6.1-0.2-12-1.2-18-1.7c-6.7-0.6-13.6-0.2-20.3-0.3
				c-52.9-0.2-105.8,2.1-158.7-0.5c-13.6-0.7-26.8-2.4-40.3-3.6c-13.7-1.2-27.4-1.9-41.2-2.5c-30.5-1.3-60.9-2.2-91.4-2.8
				c-5.5-0.1-11.1-0.2-16.6-0.3C27.7,53.1,27.7,56.9,30.1,56.9z"/>
		</g>
	</g>
</g>
</svg>
