<?xml version="1.0" encoding="utf-8"?>
<!-- Generator: Adobe Illustrator 21.0.2, SVG Export Plug-In . SVG Version: 6.00 Build 0)  -->
<svg version="1.1" id="Layer_1" xmlns="http://www.w3.org/2000/svg" xmlns:xlink="http://www.w3.org/1999/xlink" x="0px" y="0px"
	 viewBox="0 0 1133.9 125.8" style="enable-background:new 0 0 1133.9 125.8;" xml:space="preserve">
<style type="text/css">
	.st0{fill:#403539;}
	.st1{fill:#6C6266;}
	.st2{fill:#231E20;}
	.st3{fill:#1D191B;}
</style>
<g>
	<g>
		<path class="st0" d="M1115.7,55.7l-772.2-17C238.2,39.3,132.9,40,27.6,40.6C17.2,40.9,8.8,49.6,9,60l0.2,13.2
			c0.2,10.5,8.9,18.9,19.3,18.6l314.5-6l773.7-5.5c0,0,6.9,1.4,6.8-11.3C1123.6,56.4,1115.7,55.7,1115.7,55.7z"/>
	</g>
	<g>
		<g>
			<path class="st1" d="M22.6,64.8c85.2-0.1,170.3-0.3,255.6-0.4c24-0.1,47.9,0,71.9-0.1c3.2,0,3.1-5-0.1-5
				c-85.2,0.1-170.3,0.3-255.6,0.4c-24,0.1-47.9,0-71.9,0.1C19.3,59.9,19.4,64.9,22.6,64.8L22.6,64.8z"/>
		</g>
	</g>
	<g>
		<g>
			<path class="st1" d="M1082.9,61.3c-90.2-1-180.4-1.8-270.6-2.8c-90.2-1-180.4-1.8-270.6-2.8c-50.6-0.5-101.2-1-151.8-1.5
				c-3.2,0-3.1,5,0.1,5c90.2,1,180.4,1.8,270.6,2.8c90.2,1,180.4,1.8,270.6,2.8c50.6,0.5,101.2,1,151.8,1.5
				C1086.3,66.3,1086.1,61.3,1082.9,61.3L1082.9,61.3z"/>
		</g>
	</g>
	<g>
		<g>
			<path class="st2" d="M13.7,74c9.7,0,19.5,0,29.2,0c26.2,0.1,52.5,0.1,78.7,0.1c39,0.1,78.1,0.1,117.1,0.1
				c47.3,0.1,94.6,0.2,141.9,0.1c52.2,0.1,104.4,0.1,156.5,0.2c52.3,0.1,104.6,0.1,156.9,0.2c49.1,0,98.2,0.1,147.3,0.2
				c41.2,0,82.4,0.1,123.7,0.2c29.8,0,59.7,0.1,89.5,0.1c14,0,28.1,0.3,42.1,0c0.6,0,1.2,0,1.8,0c3.2,0,3.1-5-0.1-5
				c-9.7,0-19.5,0-29.2,0c-26.2-0.1-52.5-0.1-78.7-0.1c-39-0.1-78.1-0.1-117.1-0.1c-47.3-0.1-94.6-0.2-141.9-0.1
				c-52.2-0.1-104.4-0.1-156.5-0.2c-52.3-0.1-104.6-0.1-156.9-0.2c-49.1,0-98.2-0.1-147.3-0.2c-41.2,0-82.4-0.1-123.7-0.2
				c-29.8,0-59.7-0.1-89.5-0.1c-14,0-28.1-0.3-42.1,0c-0.6,0-1.2,0-1.8,0C10.4,68.9,10.5,73.9,13.7,74L13.7,74z"/>
		</g>
	</g>
	<g>
		<g>
			<g>
				<path class="st3" d="M41.3,56.6c-0.1,4.1-2.3,9-7.1,9c-4.6,0.1-7.3-4.6-7.4-8.7s2.5-9,7.1-9C38.7,47.8,41,52.5,41.3,56.6
					c0,0.8,1.3,0.8,1.2,0c-0.3-4.8-3.2-10-8.6-10c-5.3,0.1-8.4,5.5-8.3,10.3c0.1,4.6,3.2,9.7,8.2,9.9c5.6,0.3,8.6-5.3,8.8-10.3
					C42.6,55.7,41.4,55.7,41.3,56.6z"/>
			</g>
		</g>
		<g>
			
				<ellipse transform="matrix(0.9998 -1.922704e-02 1.922704e-02 0.9998 -1.0654 0.9396)" class="st3" cx="48.3" cy="55.9" rx="1.4" ry="1.4"/>
			<g>
				<path class="st3" d="M49.1,55.9c-0.1,1.1-1.7,1-1.6,0C47.5,54.9,49.1,54.8,49.1,55.9c0,0.8,1.3,0.8,1.2,0
					c-0.1-1.1-0.9-2.1-2.1-2c-1.1,0-2.1,0.9-2,2.1c0,1.1,0.9,2,2,2.1c1.2,0.1,2.1-0.9,2.1-2.2C50.4,55.1,49.2,55.1,49.1,55.9z"/>
			</g>
		</g>
		<g>
			<g>
				<path class="st3" d="M69,61.8c-5.3,5.8-12.3,0.6-12.4-6c-0.2-6.7,6.7-12.2,12.3-6.5c0.5,0.6,1.4-0.3,0.9-0.9
					c-6.3-6.4-14.5-0.5-14.3,7.4s8.6,13.5,14.6,6.9C70.4,62,69.4,61.1,69,61.8L69,61.8z"/>
			</g>
		</g>
		<g>
			
				<ellipse transform="matrix(0.9998 -1.922704e-02 1.922704e-02 0.9998 -1.0495 1.4578)" class="st3" cx="75.3" cy="55.3" rx="1.4" ry="1.4"/>
			<g>
				<path class="st3" d="M76.1,55.4c-0.1,1.1-1.7,1-1.6,0C74.5,54.3,76,54.3,76.1,55.4c0,0.8,1.3,0.8,1.2,0c-0.1-1.1-0.9-2.1-2.1-2
					c-1.1,0-2.1,0.9-2,2.1c0,1.1,0.9,2,2,2.1c1.2,0.1,2.1-0.9,2.1-2.2C77.4,54.6,76.1,54.6,76.1,55.4z"/>
			</g>
		</g>
		<g>
			<g>
				<path class="st3" d="M95.2,56.4c-0.1,4.1-2.3,9-7.1,9c-4.6,0.1-7.3-4.6-7.4-8.7s2.5-9,7.1-9C92.5,47.6,94.9,52.4,95.2,56.4
					c0,0.8,1.3,0.8,1.2,0c-0.3-4.8-3.2-10-8.6-10c-5.3,0.1-8.4,5.5-8.3,10.3c0.1,4.6,3.2,9.7,8.2,9.9c5.6,0.3,8.6-5.3,8.8-10.3
					C96.5,55.6,95.2,55.6,95.2,56.4z"/>
			</g>
		</g>
		<g>
			<g>
				<path class="st3" d="M103.1,64.8c0.2-6,0.2-12,0.4-18.1c0-0.8-1.2-0.8-1.2,0c-0.2,6-0.2,12-0.4,18.1
					C101.9,65.7,103.2,65.6,103.1,64.8L103.1,64.8z"/>
			</g>
		</g>
		<g>
			<g>
				<path class="st3" d="M113.2,65.1c0.2-6,0.2-12,0.4-18.1c0-0.8-1.2-0.8-1.2,0c-0.2,6-0.2,12-0.4,18.1
					C112,65.9,113.2,65.9,113.2,65.1L113.2,65.1z"/>
			</g>
		</g>
		<g>
			<g>
				<path class="st3" d="M102.8,57c3.5-0.1,6.9-0.2,10.4-0.2c0.8,0,0.8-1.2,0-1.2c-3.5,0.1-6.9,0.2-10.4,0.2
					C101.9,55.7,102,57,102.8,57L102.8,57z"/>
			</g>
		</g>
		<g>
			<g>
				<path class="st3" d="M130.9,49.1c-3.5-3.5-8.7-3.8-12,0.3c-3.2,4-3.2,10.3,0.1,14.2c2.8,3.3,7.6,3.9,10.9,1
					c2.4-2.1,1.3-5.9,1.2-8.8c0-0.8-1.2-0.8-1.2,0c0,1.6,0.1,3.1,0.1,4.7c0,0.6,0.2,1.8,0.1,2.3c-0.8,2-4.6,2.7-6.5,2.3
					c-11.8-3-3.2-24.9,6.4-15.1C130.6,50.6,131.4,49.7,130.9,49.1L130.9,49.1z"/>
			</g>
		</g>
		<g>
			
				<ellipse transform="matrix(0.9998 -1.922704e-02 1.922704e-02 0.9998 -1.0534 2.6379)" class="st3" cx="136.7" cy="56.1" rx="1.4" ry="1.4"/>
			<g>
				<path class="st3" d="M137.4,56.1c-0.1,1.1-1.7,1-1.6,0C135.7,55.1,137.3,55,137.4,56.1c0,0.8,1.3,0.8,1.2,0
					c-0.1-1.1-0.9-2.1-2.1-2c-1.1,0-2.1,0.9-2,2.1c0,1.1,0.9,2,2,2.1c1.2,0.1,2.1-0.9,2.1-2.2C138.7,55.3,137.4,55.3,137.4,56.1z"/>
			</g>
		</g>
		<g>
			<g>
				<path class="st3" d="M155.9,56.4c0.8,0,0.8-1.2,0-1.2C155,55.1,155.1,56.4,155.9,56.4L155.9,56.4z"/>
			</g>
		</g>
		<g>
			<g>
				<path class="st3" d="M147.8,45.8c-8.2,0.7-10.6,11.7-5.7,17.4c6.2,7,14.1,0,14.3-7.4c0-0.3-0.3-0.6-0.6-0.6
					c-3,0.1-6.1,0.1-9.1,0.2c-0.3,0-0.6,0.3-0.6,0.6c0,1.5,0.1,2.9,0.1,4.4c0,0.8,1.2,0.8,1.2,0c0-1.1,0.2-2.5-0.1-3.5
					c-0.3-1,0.2-0.4-0.4-0.2c0.3-0.1,0.8-0.1,1.1,0c1.3,0.3,6.8-1.1,7.6-0.2c0.6,0.7-2,5.4-3,6.4c-2.5,2.5-6.3,2.6-8.9,0.2
					c-5-4.6-3.4-15.2,4.1-15.9C148.6,47,148.6,45.7,147.8,45.8L147.8,45.8z"/>
			</g>
		</g>
		<g>
			<g>
				<path class="st3" d="M161.8,64.5c0.2-6,0.2-12,0.4-18.1c0-0.8-1.2-0.8-1.2,0c-0.2,6-0.2,12-0.4,18.1
					C160.6,65.3,161.9,65.3,161.8,64.5L161.8,64.5z"/>
			</g>
		</g>
		<g>
			<g>
				<path class="st3" d="M171.9,64.7c0.2-6,0.2-12,0.4-18.1c0-0.8-1.2-0.8-1.2,0c-0.2,6-0.2,12-0.4,18.1
					C170.7,65.5,171.9,65.5,171.9,64.7L171.9,64.7z"/>
			</g>
		</g>
		<g>
			<g>
				<path class="st3" d="M161.5,56.5c3.5-0.1,6.9-0.2,10.4-0.2c0.8,0,0.8-1.2,0-1.2c-3.5,0.1-6.9,0.2-10.4,0.2
					C160.6,55.3,160.7,56.5,161.5,56.5L161.5,56.5z"/>
			</g>
		</g>
		<g>
			<g>
				<path class="st3" d="M178.8,63.4c-0.1-3.7-0.2-7.5-0.3-11.2c0-0.9,0.3-3-0.1-3.9c-0.4-0.9,0.3,0.1-0.5,0c0.2,0,0.5-0.1,0.7,0
					c2.1,0.7,5.5-0.1,7.7-0.2c1.2,0,2.4-0.1,3.5-0.1c0.3,0,0.8,0.1,1.1,0c0.5-0.3-0.3-0.4-0.3-0.5c-0.1,2.2,0.1,4.5,0.2,6.7
					c0,0.8,0,1.5,0.1,2.3c0,0.6,0.1,1.2,0,1.8c-0.1,0.8,0.6-0.4,0.1-0.1c-2.4,2.1-7.7,1.8-10.4,1.7c-0.8,0-0.8,1.2,0,1.2
					c2.5,0,10.5,0.4,11.5-2.8c0.5-1.3-0.1-3.4-0.1-4.8c0-2.1-0.1-4.2-0.1-6.3c0-0.3-0.3-0.6-0.6-0.6c-4.5,0.1-9,0.2-13.4,0.2
					c-0.3,0-0.6,0.3-0.6,0.6c0.1,5.2,0.2,10.4,0.3,15.6C177.5,64.3,178.8,64.3,178.8,63.4L178.8,63.4z"/>
			</g>
		</g>
		<g>
			<g>
				<path class="st3" d="M208.2,45.1c-3.6,4.4-7.1,8.7-10.7,13.1c-0.3,0.3-0.2,0.8,0.1,1c3.1,1.9,6.2,3.9,9.3,5.8
					c0.7,0.4,1.3-0.6,0.6-1.1c-3.1-1.9-6.2-3.9-9.3-5.8c0,0.3,0.1,0.7,0.1,1c3.6-4.4,7.1-8.7,10.7-13.1
					C209.7,45.3,208.8,44.4,208.2,45.1L208.2,45.1z"/>
			</g>
		</g>
		<g>
			<g>
				<path class="st3" d="M234,46c-2.7,0.1-5.5,0.1-8.2,0.2c-0.2,0-0.5,0.1-0.5,0.3c-0.6,1.5-1.2,2.9-1.8,4.4c-0.4,0.8-0.6,2.3-1.2,3
					c-0.7,0.8,0.8-0.2-0.4,0.2c-2.7,1.1-7.7,0.2-10.6,0.3c-0.3,0-0.6,0.3-0.6,0.6c0,1.2,0.1,2.3,0.1,3.5c0,0.3,0.3,0.6,0.6,0.6
					c3.2-0.1,6.5,0,9.7-0.2c2.5-0.2,2.8,2.5,4.2,5.3c0.1,0.2,0.3,0.3,0.5,0.3c2.6-0.1,6.4,0.6,8.9-0.2c1.9-0.6,3.3-2.6,4.8-4
					s2.9-2.4,3.4-4.3c0.6-2.8-0.2-6.6-0.2-9.5c0-0.8-1.2-0.8-1.2,0c0.1,2.7,1.1,7.2,0.2,9.7c-0.4,1.2-4.2,4.4-5.9,5.9
					c-1.7,1.5-4.6,1-7.7,1.1c-2.5,0.1-1.6,0.4-2.5-0.8c-0.9-1.3-1.6-3.1-2.3-4.4c-0.1-0.2-0.3-0.3-0.5-0.3c-2.2,0.1-4.5,0.1-6.7,0.2
					c-1.2,0-2.5,0.2-3.6,0.1c-1.7-0.2-0.3,0.8-0.5-0.7c-0.1-0.3-0.1-1.7,0-1.9c0,0.1-0.8,0.7-0.2,0.4c0.8-0.4,2.9-0.1,3.7-0.1
					c2.4-0.1,4.8-0.1,7.1-0.2c0.2,0,0.5-0.1,0.5-0.3c0.8-1.7,2.1-7,3.1-7.7c0.8-0.6,6.2,0,7.9-0.1C234.9,47.3,234.8,46,234,46
					L234,46z"/>
			</g>
		</g>
		<g>
			<g>
				<path class="st3" d="M248.9,46.4c0.1,5.6,0.3,11.2,0.3,16.8c0,0.8,1.2,0.8,1.2,0c-0.1-5.6-0.3-11.2-0.3-16.8
					C250.2,45.6,248.9,45.6,248.9,46.4L248.9,46.4z"/>
			</g>
		</g>
		<g>
			<g>
				<path class="st3" d="M264.1,45.7c-2.9,3.3-5.7,6.6-8.7,9.9c-0.2,0.3-0.2,0.6,0,0.9c2,2.4,3.9,4.8,5.9,7.2
					c0.5,0.6,1.4-0.3,0.9-0.9c-1.2-1.6-2.5-3-3.8-4.6c-0.6-0.8-1.3-1.6-2-2.4c0.4,0.6-0.6,0.7,0.5,0c1.7-1.1,3.2-3.7,4.6-5.2
					c1.2-1.3,2.3-2.7,3.5-4C265.5,45.9,264.6,45.1,264.1,45.7L264.1,45.7z"/>
			</g>
		</g>
		<g>
			<g>
				<path class="st3" d="M269.6,46.6c9.6,0.5,9.9,16.9,0.3,17.7c-0.8,0.1-0.8,1.3,0,1.2c11.2-1,10.7-19.7-0.4-20.2
					C268.7,45.3,268.8,46.6,269.6,46.6L269.6,46.6z"/>
			</g>
		</g>
		<g>
			<g>
				<path class="st3" d="M281.7,45.8c0.1,6.3,0.2,12.7,0.3,19c0,0.8,1.2,0.8,1.2,0c-0.1-6.3-0.2-12.7-0.3-19
					C283,45,281.7,45,281.7,45.8L281.7,45.8z"/>
			</g>
		</g>
		<g>
			<g>
				<path class="st3" d="M291.9,45.6c0.2,6.6,0.2,13.3,0.4,19.9c0,0.8,1.2,0.8,1.2,0c-0.2-6.6-0.2-13.3-0.4-19.9
					C293.1,44.8,291.9,44.8,291.9,45.6L291.9,45.6z"/>
			</g>
		</g>
		<g>
			<g>
				<path class="st3" d="M282.7,58.9c3.4-0.1,6.8-0.2,10.2-0.2c0.8,0,0.8-1.2,0-1.2c-3.4,0.1-6.8,0.2-10.2,0.2
					C281.8,57.6,281.9,58.9,282.7,58.9L282.7,58.9z"/>
			</g>
		</g>
		<g>
			<g>
				<path class="st3" d="M304.8,48.6c-1.1,1.3-2.2,2.7-3.3,4c-0.9,1-2.4,2.3-2.9,3.6c-0.6,1.2,0,3.3-0.1,4.7c0,1.6,0.1,3.1,0.1,4.7
					c0,0.8,1.2,0.8,1.2,0c0-1.5-0.1-2.9-0.1-4.4c0-0.9,0-1.7-0.1-2.6c0-0.5,0.1-2.2-0.1-1.7c0.6-1.3,2.3-2.8,3.2-3.9
					c1-1.1,1.9-2.3,2.9-3.5C306.2,48.8,305.3,48,304.8,48.6L304.8,48.6z"/>
			</g>
		</g>
		<g>
			<g>
				<path class="st3" d="M312.7,61.2c2-3.5,4.1-7.2,6.1-10.7c0.2-0.4-0.1-0.9-0.5-0.9c-2.1,0-4.2,0.1-6.3,0.1c-0.8,0-0.8,1.2,0,1.2
					c2.1,0,4.2-0.1,6.3-0.1c-0.2-0.3-0.4-0.6-0.5-0.9c-2,3.5-4.1,7.2-6.1,10.7C311.2,61.2,312.3,61.8,312.7,61.2L312.7,61.2z"/>
			</g>
		</g>
	</g>
	<g>
		<g>
			<path class="st3" d="M425.6,54.7c-0.6,16.6-34.2,17.3-34.5,0.6C390.7,38.7,424.3,38.1,425.6,54.7c0.1,1.6,2.6,1.5,2.5-0.1
				c-1.5-19.8-39.9-19.2-39.5,0.7c0.3,19.9,38.8,19.1,39.5-0.7C428.2,53.1,425.7,53.1,425.6,54.7z"/>
		</g>
	</g>
	<g>
		<g>
			<path class="st3" d="M392,85.9c4.3-13.5,28.8-14,33.8-0.9c0.5,1.5,3,0.8,2.4-0.8c-5.9-15.5-33.6-14.9-38.6,1
				C389,86.8,391.5,87.4,392,85.9L392,85.9z"/>
		</g>
	</g>
	<g>
		<g>
			<path class="st3" d="M482.3,58.8c-0.6,16.6-34.2,17.3-34.5,0.6C447.5,42.8,481.1,42.2,482.3,58.8c0.1,1.6,2.6,1.5,2.5-0.1
				c-1.5-19.8-39.9-19.2-39.5,0.7c0.3,19.9,38.8,19.1,39.5-0.7C484.9,57.1,482.4,57.2,482.3,58.8z"/>
		</g>
	</g>
	<g>
		<g>
			<path class="st3" d="M448.3,84.5c0.6-16.7,33.3-17.3,34.5-0.6c0.1,1.6,2.6,1.5,2.5-0.1c-1.5-19.9-38.8-19.2-39.5,0.7
				C445.7,86.2,448.2,86.1,448.3,84.5L448.3,84.5z"/>
		</g>
	</g>
	<g>
		<g>
			<path class="st3" d="M427.7,84.3c-1.1-18,35.2-18.5,34.4-0.4c-0.1,1.6,2.4,1.5,2.5-0.1c0.9-21.3-40.8-20.7-39.4,0.5
				C425.2,85.9,427.7,85.9,427.7,84.3L427.7,84.3z"/>
		</g>
	</g>
	<g>
		<g>
			<path class="st3" d="M530.2,43.6c-0.6,16.7-33.3,17.3-34.5,0.6c-0.1-1.6-2.6-1.5-2.5,0.1c1.5,19.9,38.8,19.2,39.5-0.7
				C532.7,42,530.2,42,530.2,43.6L530.2,43.6z"/>
		</g>
	</g>
	<g>
		<g>
			<path class="st3" d="M505.4,85.4c-12.4-9.7,0.4-21.2,11.8-21.4c11.4-0.2,24.7,10.7,12.6,20.9c-1.3,1,0.6,2.8,1.8,1.8
				c5.1-4.3,7.4-11.1,3.5-17c-3.8-5.8-11.3-8.2-18-8.1c-6.5,0.2-13.6,2.7-17.4,8.3c-4.1,6.2-1.6,13,3.9,17.3
				C505,88.3,506.7,86.4,505.4,85.4L505.4,85.4z"/>
		</g>
	</g>
	<g>
		<g>
			<path class="st3" d="M533.7,85.5c3.9-14.1,29.9-14.5,34.1-0.5c0.4,1.5,2.8,0.8,2.4-0.8c-5-16.5-34.4-15.9-38.9,0.6
				C530.9,86.4,533.3,87,533.7,85.5L533.7,85.5z"/>
		</g>
	</g>
	<g>
		<g>
			<path class="st3" d="M587.2,57.3c-0.6,16.6-34.2,17.3-34.5,0.6C552.4,41.2,586,40.6,587.2,57.3c0.1,1.6,2.6,1.5,2.5-0.1
				c-1.5-19.8-39.9-19.2-39.5,0.7c0.3,19.9,38.8,19.1,39.5-0.7C589.8,55.5,587.3,55.6,587.2,57.3z"/>
		</g>
	</g>
	<g>
		<g>
			<path class="st3" d="M578.7,47.9c8.4-3,26.7-1.4,25.6,11.4c-1,11.7-17.5,13.2-25.9,10.1c-1.5-0.6-2.1,1.8-0.6,2.4
				c10,3.7,28.7,0.7,29.1-13c0.4-14.2-18.8-17-28.8-13.3C576.5,46.1,577.2,48.4,578.7,47.9L578.7,47.9z"/>
		</g>
	</g>
	<g>
		<g>
			<path class="st3" d="M610.8,55.2c10.5-5.2,21-2,31,2.4c9,4,18.2,7.8,27.3,11.5c10.5,4.4,25.5,8.3,34.7-0.4
				c1.2-1.1-0.7-2.8-1.8-1.8c-11,10.4-29.1,1.1-40.3-3.6c-16.2-6.7-34.6-19-52.2-10.3C608,53.8,609.4,56,610.8,55.2L610.8,55.2z"/>
		</g>
	</g>
	<g>
		<g>
			<path class="st3" d="M606.7,83.5c3.9-14.1,29.9-14.5,34.1-0.5c0.4,1.5,2.8,0.8,2.4-0.8c-5-16.5-34.4-15.9-38.9,0.6
				C603.9,84.4,606.4,85,606.7,83.5L606.7,83.5z"/>
		</g>
	</g>
	<g>
		<g>
			<path class="st3" d="M657.8,49.2c5.2,16.3,34.6,15.7,38.9-0.9c0.4-1.6-2.1-2.2-2.4-0.6c-3.7,14.2-29.7,14.7-34.1,0.8
				C659.7,47,657.3,47.6,657.8,49.2L657.8,49.2z"/>
		</g>
	</g>
	<g>
		<g>
			<path class="st3" d="M696.4,83.3c2.2-2,3.7-4.4,4.3-7.3c0.4-1.6-2.1-2.2-2.4-0.6c-0.5,2.4-1.9,4.4-3.8,6.2
				C693.4,82.7,695.3,84.5,696.4,83.3L696.4,83.3z"/>
		</g>
	</g>
	<g>
		<g>
			<path class="st3" d="M661.9,77c0.8,2.6,2.2,4.7,4.2,6.6c1.2,1.1,2.9-0.7,1.8-1.8c-1.6-1.6-2.9-3.3-3.5-5.5
				C663.8,74.7,661.4,75.5,661.9,77L661.9,77z"/>
		</g>
	</g>
	<g>
		<g>
			<path class="st3" d="M728.9,62.6c-0.3,10.6-16.3,11-16.5,0.3C712.1,52.3,728.1,52,728.9,62.6c0.1,1.6,2.6,1.5,2.5-0.1
				c-0.4-5.8-4.9-10.7-11-10.5c-5.8,0.1-10.7,5.2-10.5,11c0.1,5.7,4.7,10.4,10.5,10.6c6.3,0.2,10.9-4.9,11-11
				C731.4,60.9,728.9,61,728.9,62.6z"/>
		</g>
	</g>
	<g>
		<g>
			<path class="st3" d="M738.4,59.3c6-5,15.7,3.1,21.4,6c6.8,3.4,13.7,6.8,20.5,10c8.2,3.8,18.9,6.5,22-4.9c0.5-1.5-2-2.2-2.4-0.6
				c-3.8,13.5-21.1,2.1-28.3-1.4c-6.5-3.1-13.1-6.2-19.1-10c-5.1-3.1-10.5-5.3-15.7-0.9C735.4,58.7,737.2,60.4,738.4,59.3
				L738.4,59.3z"/>
		</g>
	</g>
	<g>
		<g>
			<path class="st3" d="M738.1,81.8c2.5-8.2,17.3-8.4,20-0.3c0.5,1.5,2.9,0.8,2.4-0.8c-3.4-10.5-21.6-10.2-24.8,0.4
				C735.2,82.8,737.7,83.4,738.1,81.8L738.1,81.8z"/>
		</g>
	</g>
	<g>
		<g>
			<path class="st3" d="M784.1,52.4c4,11.4,24,11,27.2-0.6c0.5-1.5-2-2.2-2.4-0.6c-2.6,9.3-19.3,9.7-22.4,0.5
				C786.1,50.2,783.6,51,784.1,52.4L784.1,52.4z"/>
		</g>
	</g>
	<g>
		<g>
			<path class="st3" d="M831.7,67c-0.4,12.1-18.6,12.5-18.9,0.3C812.6,55.3,830.8,55,831.7,67c0.1,1.6,2.6,1.5,2.5-0.1
				c-0.5-6.5-5.4-11.9-12.2-11.7c-6.5,0.2-11.9,5.7-11.7,12.2c0.1,6.3,5.3,11.5,11.6,11.7c7,0.2,12.1-5.4,12.3-12.2
				C834.3,65.4,831.8,65.4,831.7,67z"/>
		</g>
	</g>
	<g>
		
			<ellipse transform="matrix(0.9998 -1.922704e-02 1.922704e-02 0.9998 -0.9343 7.8377)" class="st3" cx="407.1" cy="52.5" rx="4" ry="4"/>
	</g>
	<g>
		
			<ellipse transform="matrix(0.9998 -1.922704e-02 1.922704e-02 0.9998 -1.3486 9.963)" class="st3" cx="517.5" cy="75.1" rx="4" ry="4"/>
	</g>
	<g>
		
			<ellipse transform="matrix(0.9998 -1.922704e-02 1.922704e-02 0.9998 -1.0837 11.9982)" class="st3" cx="623.4" cy="62.4" rx="4" ry="4"/>
	</g>
	<g>
		
			<ellipse transform="matrix(0.9998 -1.922704e-02 1.922704e-02 0.9998 -1.0732 13.8675)" class="st3" cx="720.6" cy="62.7" rx="3.1" ry="3.1"/>
	</g>
	<g>
		
			<ellipse transform="matrix(0.9998 -1.922704e-02 1.922704e-02 0.9998 -1.1413 15.822)" class="st3" cx="822.3" cy="67.3" rx="3.1" ry="3.1"/>
	</g>
	<g>
		<g>
			<path class="st3" d="M827,53.6c11.7,6.7,23.4,13.4,35.1,20.1c7.3,4.1,22.7,13.4,26,0.2c0.4-1.6-2.1-2.2-2.4-0.6
				c-3,12.1-21.6-1.4-27.4-4.7c-10-5.8-20-11.4-30-17.2C826.8,50.6,825.6,52.9,827,53.6L827,53.6z"/>
		</g>
	</g>
	<g>
		
			<ellipse transform="matrix(0.9998 -1.922704e-02 1.922704e-02 0.9998 -1.2661 16.3276)" class="st3" cx="848.5" cy="74" rx="3.1" ry="3.1"/>
	</g>
	<g>
		<g>
			<path class="st3" d="M876.3,55.9c5.1,15.9,33.7,15.3,37.9-0.9c0.4-1.6-2.1-2.2-2.4-0.6c-3.6,13.8-28.8,14.3-33,0.8
				C878.3,53.6,875.9,54.4,876.3,55.9L876.3,55.9z"/>
		</g>
	</g>
	<g>
		<g>
			<path class="st3" d="M900,81.8c3.1-6,13.7-6.6,19.4-6.7c5.3,0,15.1,0.4,17.9,6.1c0.7,1.4,2.9,0.1,2.2-1.4
				c-3.4-6.4-13.9-7.3-20.2-7.2c-6.7,0-18.1,1-21.6,7.9C897.1,82.1,899.3,83.3,900,81.8L900,81.8z"/>
		</g>
	</g>
	<g>
		<g>
			<path class="st3" d="M925.8,56.3c12.4,8.5,28.7,8.8,41.4,0.9c1.4-0.8,0-3-1.4-2.2c-12,7.5-27.3,7-38.9-1
				C925.7,53.2,924.4,55.4,925.8,56.3L925.8,56.3z"/>
		</g>
	</g>
	<g>
		<g>
			<path class="st3" d="M941.1,71.9c11.2,0.7,22.4,1.5,33.7,2.2c6.5,0.4,20.6,3.6,18.2-7.6c-0.3-1.6-2.7-0.8-2.4,0.8
				c1.1,5.5-3.4,5.2-7,5c-5.2-0.4-10.3-0.7-15.5-1c-9-0.6-18-1.2-27-1.8C939.5,69.4,939.5,71.9,941.1,71.9L941.1,71.9z"/>
		</g>
	</g>
	<g>
		<g>
			<path class="st3" d="M1030.8,68.4c-0.3,11.1-17.2,11.6-17.4,0.3C1013.1,57.5,1029.9,57.3,1030.8,68.4c0.1,1.6,2.6,1.5,2.5-0.1
				c-0.4-6.1-5.1-11.1-11.5-10.9c-6.1,0.1-11.1,5.4-10.9,11.5c0.1,5.9,5,10.8,10.9,10.9c6.6,0.1,11.3-5.1,11.5-11.4
				C1033.3,66.8,1030.8,66.8,1030.8,68.4z"/>
		</g>
	</g>
	<g>
		<g>
			<path class="st3" d="M1059.6,70.6c-0.2,6.6-10.1,6.8-10.2,0.1C1049.4,64.3,1059.2,64.2,1059.6,70.6c0.1,1.6,2.6,1.5,2.5-0.1
				c-0.3-4.1-3.5-7.5-7.8-7.4c-4.1,0.1-7.5,3.6-7.4,7.8c0.1,4,3.4,7.3,7.4,7.4c4.4,0.1,7.6-3.5,7.8-7.8
				C1062.2,69,1059.7,69,1059.6,70.6z"/>
		</g>
	</g>
	<g>
		<g>
			<path class="st3" d="M1065.6,81.7c0.7-11.7,24.7-12.2,25.8-0.5c0.1,1.6,2.6,1.5,2.5-0.1c-1.5-15-29.9-14.4-30.8,0.6
				C1063,83.4,1065.5,83.3,1065.6,81.7L1065.6,81.7z"/>
		</g>
	</g>
	<g>
		
			<ellipse transform="matrix(0.9998 -1.922704e-02 1.922704e-02 0.9998 -1.1281 19.6638)" class="st3" cx="1022.1" cy="68.5" rx="3.1" ry="3.1"/>
	</g>
	<g>
		
			<ellipse transform="matrix(0.9998 -1.922704e-02 1.922704e-02 0.9998 -1.2673 19.284)" class="st3" cx="1002.2" cy="75.5" rx="3.1" ry="3.1"/>
	</g>
	<g>
		
			<ellipse transform="matrix(4.962552e-02 -0.9988 0.9988 4.962552e-02 971.2437 1150.7626)" class="st3" cx="1090.3" cy="65" rx="3.1" ry="3.1"/>
	</g>
	<g>
		<g>
			<path class="st3" d="M1115.7,55.1c-12-0.2-23.9-0.5-35.9-0.8c-31.2-0.7-62.4-1.3-93.7-2.1c-43.8-1-87.8-1.9-131.6-2.9
				c-49.4-1.1-98.9-2.2-148.3-3.3c-48.3-1.1-96.8-2.1-145.1-3.2c-40.7-0.9-81.4-1.8-122.1-2.7c-26-0.6-52-1.2-78.1-1.8
				c-36.9-0.8-73.9-0.1-110.8,0.2c-50,0.3-100.1,0.6-150.1,0.8c-12.6,0.1-25.2,0.2-37.8,0.2c-5.9,0-11.9,0.1-17.8,0.1
				c-6.2,0-12.8-0.5-19,0.3C18.6,41,12.5,45.4,9.4,51.6c-2.6,5.2-2.1,10.8-2.1,16.4C7.4,73.5,7.1,79,10,84.2
				c3.5,6.3,10,10.4,17.2,10.8c2.3,0.1,4.7,0,7-0.1c13.1-0.2,26.2-0.5,39.2-0.7c46.2-0.9,92.5-1.8,138.7-2.7
				c39.2-0.7,78.5-1.6,117.7-2.3c9-0.2,18.1-0.3,27.1-0.3c24.4-0.2,48.7-0.4,73.1-0.5c39.7-0.2,79.3-0.6,119-0.8
				c48.1-0.3,96.3-0.7,144.4-1c49.6-0.4,99.2-0.7,148.8-1c44.5-0.4,89.1-0.6,133.6-1c32.8-0.3,65.6-0.5,98.4-0.7
				c14.1-0.1,28.2-0.3,42.3-0.3c0.9,0-0.6,0.2,0.8,0.1c3.4-0.3,5.7-2,7-5.2c3-7,1.6-22-8.2-23.2c-2.4-0.2-3.3,3.4-0.9,3.6
				c8.5,1,9.4,20.4,1.6,21c-0.9,0-1.8,0-2.8,0.1c-6.1,0-12.3,0.1-18.4,0.1c-26.6,0.2-53.3,0.4-79.9,0.6
				c-40.4,0.3-80.8,0.6-121.3,0.9c-47.8,0.3-95.5,0.7-143.3,1c-48.7,0.4-97.4,0.7-146.1,1.1c-43.2,0.3-86.4,0.6-129.5,1
				c-31.2,0.2-62.5,0.5-93.7,0.7c-12.8,0.1-25.7,0.1-38.5,0.3c-22,0.3-44,0.8-66,1.3c-47.3,0.9-94.5,1.8-141.8,2.8
				c-33.8,0.7-67.7,1.3-101.5,2c-1.8,0-3.6,0.2-5.4,0.1C18.3,91.4,11.4,83.8,11,73.8c-0.1-4.9-0.7-10.2-0.1-15
				c0.8-5.1,3.8-9.6,8.2-12.3c5.2-3.1,11.4-2.4,17.2-2.4c12.2-0.1,24.5-0.2,36.7-0.3c24.8-0.2,49.7-0.3,74.5-0.5
				c49.3-0.3,98.6-0.6,147.9-0.9c17.3-0.1,34.7-0.6,52-0.2c18.6,0.4,37.2,0.8,55.9,1.2c35.2,0.8,70.5,1.5,105.8,2.3
				c45.4,1,90.8,2,136.2,3c49.1,1,98.2,2.2,147.3,3.2c46.3,1,92.7,2,139,3c37.1,0.8,74.2,1.6,111.3,2.5c21.4,0.5,42.8,1,64.3,1.4
				c2.8,0,5.6,0.2,8.4,0.2C1118.2,59,1118.1,55.2,1115.7,55.1z"/>
		</g>
	</g>
</g>
</svg>
