<?xml version="1.0" encoding="utf-8"?>
<!-- Generator: Adobe Illustrator 21.0.2, SVG Export Plug-In . SVG Version: 6.00 Build 0)  -->
<svg version="1.1" id="Layer_1" xmlns="http://www.w3.org/2000/svg" xmlns:xlink="http://www.w3.org/1999/xlink" x="0px" y="0px"
	 viewBox="0 0 1133.9 125.8" style="enable-background:new 0 0 1133.9 125.8;" xml:space="preserve">
<style type="text/css">
	.st0{fill:#403539;}
	.st1{fill:#6C6266;}
	.st2{fill:#231E20;}
	.st3{fill:#1D191B;}
</style>
<g>
	<g>
		<path class="st0" d="M1115.7,68.7L344.1,33.5c-105.3-1.9-210.6-3.7-315.8-5.6c-10.5,0-19.1,8.5-19.1,18.9L9.1,60
			c0,10.5,8.5,19.1,18.9,19.1l314.6,1.4l773.6,12.8c0,0,6.9,1.6,7.1-11.1C1123.6,69.6,1115.7,68.7,1115.7,68.7z"/>
	</g>
	<g>
		<g>
			<path class="st1" d="M22.7,52c85.2,1.9,170.3,3.7,255.5,5.6c24,0.5,47.9,1.1,71.9,1.6c3.2,0.1,3.2-4.9,0-5
				c-85.2-1.9-170.3-3.7-255.5-5.6c-24-0.5-47.9-1.1-71.9-1.6C19.5,47,19.5,52,22.7,52L22.7,52z"/>
		</g>
	</g>
	<g>
		<g>
			<path class="st1" d="M1082.8,73.5c-90.2-3.1-180.3-6.1-270.5-9.2c-90.2-3.1-180.3-6.1-270.5-9.2c-50.6-1.7-101.1-3.4-151.7-5.1
				c-3.2-0.1-3.2,4.9,0,5c90.2,3.1,180.3,6.1,270.5,9.2c90.2,3.1,180.3,6.1,270.5,9.2c50.6,1.7,101.1,3.4,151.7,5.1
				C1086,78.6,1086,73.6,1082.8,73.5L1082.8,73.5z"/>
		</g>
	</g>
	<g>
		<g>
			<path class="st2" d="M13.6,60.9c9.7,0.2,19.5,0.5,29.2,0.7c26.2,0.7,52.5,1.3,78.7,2c39,1,78.1,1.9,117.1,2.9
				c47.3,1.2,94.6,2.4,141.9,3.5c52.2,1.3,104.4,2.6,156.5,3.9c52.3,1.3,104.6,2.6,156.9,3.9c49.1,1.2,98.2,2.4,147.3,3.7
				c41.2,1,82.4,2,123.7,3.1c29.8,0.7,59.7,1.5,89.5,2.2c14,0.3,28.1,1,42.1,1c0.6,0,1.2,0,1.8,0c3.2,0.1,3.2-4.9,0-5
				c-9.7-0.2-19.5-0.5-29.2-0.7c-26.2-0.7-52.5-1.3-78.7-2c-39-1-78.1-1.9-117.1-2.9c-47.3-1.2-94.6-2.4-141.9-3.5
				c-52.2-1.3-104.4-2.6-156.5-3.9c-52.3-1.3-104.6-2.6-156.9-3.9c-49.1-1.2-98.2-2.4-147.3-3.7c-41.2-1-82.4-2-123.7-3.1
				c-29.8-0.7-59.7-1.5-89.5-2.2c-14-0.3-28.1-1-42.1-1c-0.6,0-1.2,0-1.8,0C10.4,55.8,10.4,60.8,13.6,60.9L13.6,60.9z"/>
		</g>
	</g>
	<g>
		<g>
			<g>
				<path class="st3" d="M41.6,44.2c-0.2,4.1-2.5,8.9-7.3,8.8c-4.6,0-7.2-4.8-7.2-8.9c0-4.1,2.7-8.9,7.3-8.8
					C39.2,35.3,41.4,40.1,41.6,44.2c0,0.8,1.3,0.8,1.2,0c-0.2-4.8-3-10.1-8.4-10.2c-5.3,0-8.5,5.3-8.5,10.1c0,4.6,3,9.8,8,10.1
					c5.6,0.4,8.7-5.1,9-10.1C42.9,43.3,41.7,43.3,41.6,44.2z"/>
			</g>
		</g>
		<g>
			
				<ellipse transform="matrix(4.403410e-03 -1 1 4.403410e-03 4.8054 92.0455)" class="st3" cx="48.6" cy="43.6" rx="1.4" ry="1.4"/>
			<g>
				<path class="st3" d="M49.4,43.7c-0.1,1.1-1.7,1-1.6,0C47.8,42.6,49.4,42.6,49.4,43.7c0,0.8,1.3,0.8,1.2,0
					c-0.1-1.1-0.9-2.1-2.1-2.1c-1.1,0-2.1,0.9-2.1,2.1c0,1.1,0.9,2,2,2.1c1.2,0.1,2.1-0.9,2.2-2.1C50.7,42.9,49.5,42.9,49.4,43.7z"
					/>
			</g>
		</g>
		<g>
			<g>
				<path class="st3" d="M69.1,50c-5.4,5.7-12.3,0.3-12.3-6.3c0-6.7,7-12,12.4-6.2c0.5,0.6,1.4-0.3,0.9-0.9
					c-6.1-6.5-14.5-0.8-14.5,7.1c0,7.9,8.3,13.7,14.4,7.2C70.5,50.3,69.6,49.4,69.1,50L69.1,50z"/>
			</g>
		</g>
		<g>
			
				<ellipse transform="matrix(4.403410e-03 -1 1 4.403410e-03 31.5494 119.1153)" class="st3" cx="75.6" cy="43.7" rx="1.4" ry="1.4"/>
			<g>
				<path class="st3" d="M76.4,43.8c-0.1,1.1-1.7,1-1.6,0C74.8,42.7,76.3,42.7,76.4,43.8c0,0.8,1.3,0.8,1.2,0
					c-0.1-1.1-0.9-2.1-2.1-2.1c-1.1,0-2.1,0.9-2.1,2.1c0,1.1,0.9,2,2,2.1c1.2,0.1,2.1-0.9,2.2-2.1C77.7,43,76.4,43,76.4,43.8z"/>
			</g>
		</g>
		<g>
			<g>
				<path class="st3" d="M95.5,45.3c-0.2,4.1-2.5,8.9-7.3,8.8c-4.6,0-7.2-4.8-7.2-8.9c0-4.1,2.7-8.9,7.3-8.8
					C93,36.4,95.3,41.3,95.5,45.3c0,0.8,1.3,0.8,1.2,0c-0.2-4.8-3-10.1-8.4-10.2c-5.3,0-8.5,5.3-8.5,10.1c0,4.6,3,9.8,8,10.1
					c5.6,0.4,8.7-5.1,9-10.1C96.8,44.5,95.5,44.5,95.5,45.3z"/>
			</g>
		</g>
		<g>
			<g>
				<path class="st3" d="M103.2,53.9c0.3-6,0.5-12,0.8-18.1c0-0.8-1.2-0.8-1.2,0c-0.3,6-0.5,12-0.8,18.1
					C101.9,54.7,103.2,54.7,103.2,53.9L103.2,53.9z"/>
			</g>
		</g>
		<g>
			<g>
				<path class="st3" d="M113.2,54.4c0.3-6,0.5-12,0.8-18.1c0-0.8-1.2-0.8-1.2,0c-0.3,6-0.5,12-0.8,18.1
					C112,55.2,113.2,55.2,113.2,54.4L113.2,54.4z"/>
			</g>
		</g>
		<g>
			<g>
				<path class="st3" d="M103,46c3.5,0,6.9,0,10.4,0c0.8,0,0.8-1.2,0-1.2c-3.5,0-6.9,0-10.4,0C102.2,44.7,102.2,46,103,46L103,46z"
					/>
			</g>
		</g>
		<g>
			<g>
				<path class="st3" d="M131.3,38.8c-3.4-3.6-8.6-4-12,0c-3.3,3.9-3.4,10.2-0.2,14.2c2.7,3.4,7.5,4.1,10.9,1.3
					c2.4-2,1.4-5.9,1.4-8.8c0-0.8-1.2-0.8-1.2,0c0,1.6,0,3.1,0,4.7c0,0.6,0.2,1.8,0,2.3c-0.8,2-4.7,2.6-6.6,2.1
					c-11.7-3.3-2.6-25,6.8-14.9C131,40.3,131.8,39.4,131.3,38.8L131.3,38.8z"/>
			</g>
		</g>
		<g>
			
				<ellipse transform="matrix(4.403410e-03 -1 1 4.403410e-03 90.3125 182.6473)" class="st3" cx="136.9" cy="46" rx="1.4" ry="1.4"/>
			<g>
				<path class="st3" d="M137.7,46c-0.1,1.1-1.7,1-1.6,0C136,44.9,137.6,44.9,137.7,46c0,0.8,1.3,0.8,1.2,0
					c-0.1-1.1-0.9-2.1-2.1-2.1c-1.1,0-2.1,0.9-2.1,2.1c0,1.1,0.9,2,2,2.1c1.2,0.1,2.1-0.9,2.2-2.1C139,45.2,137.7,45.2,137.7,46z"/>
			</g>
		</g>
		<g>
			<g>
				<path class="st3" d="M156.1,46.7c0.8,0,0.8-1.2,0-1.2C155.3,45.4,155.3,46.7,156.1,46.7L156.1,46.7z"/>
			</g>
		</g>
		<g>
			<g>
				<path class="st3" d="M148.3,35.9c-8.2,0.5-10.9,11.4-6.1,17.3c6,7.1,14.1,0.3,14.5-7.1c0-0.3-0.3-0.6-0.6-0.6c-3,0-6.1,0-9.1,0
					c-0.3,0-0.6,0.3-0.6,0.6c0,1.5,0,2.9,0,4.4c0,0.8,1.2,0.8,1.2,0c0-1.1,0.3-2.5,0-3.5s0.2-0.4-0.4-0.2c0.3-0.1,0.8-0.1,1.1,0
					c1.3,0.3,6.8-0.9,7.6,0c0.6,0.7-2.1,5.4-3.1,6.3c-2.6,2.4-6.4,2.4-8.9,0c-4.9-4.7-3-15.3,4.5-15.8
					C149.1,37.1,149.1,35.8,148.3,35.9L148.3,35.9z"/>
			</g>
		</g>
		<g>
			<g>
				<path class="st3" d="M161.9,54.9c0.3-6,0.5-12,0.8-18.1c0-0.8-1.2-0.8-1.2,0c-0.3,6-0.5,12-0.8,18.1
					C160.6,55.7,161.9,55.7,161.9,54.9L161.9,54.9z"/>
			</g>
		</g>
		<g>
			<g>
				<path class="st3" d="M171.9,55.4c0.3-6,0.5-12,0.8-18.1c0-0.8-1.2-0.8-1.2,0c-0.3,6-0.5,12-0.8,18.1
					C170.7,56.2,171.9,56.2,171.9,55.4L171.9,55.4z"/>
			</g>
		</g>
		<g>
			<g>
				<path class="st3" d="M161.7,46.9c3.5,0,6.9,0,10.4,0c0.8,0,0.8-1.2,0-1.2c-3.5,0-6.9,0-10.4,0C160.9,45.7,160.9,46.9,161.7,46.9
					L161.7,46.9z"/>
			</g>
		</g>
		<g>
			<g>
				<path class="st3" d="M178.9,54.2c0-3.7,0-7.5,0-11.2c0-0.9,0.4-3,0-3.9s0.3,0.1-0.5,0c0.2,0,0.5-0.1,0.7,0c2.1,0.7,5.5,0,7.7,0
					c1.2,0,2.4,0,3.5,0c0.3,0,0.8,0.1,1.1,0c0.5-0.3-0.3-0.4-0.3-0.5c-0.2,2.2,0,4.5,0,6.7c0,0.8,0,1.5,0,2.3c0,0.6,0.1,1.2,0,1.8
					c-0.1,0.8,0.6-0.4,0.1-0.1c-2.4,2-7.7,1.6-10.4,1.5c-0.8,0-0.8,1.2,0,1.2c2.5,0.1,10.5,0.6,11.6-2.5c0.5-1.3,0-3.4,0-4.8
					c0-2.1,0-4.2,0-6.3c0-0.3-0.3-0.6-0.6-0.6c-4.5,0-9,0-13.4-0.1c-0.3,0-0.6,0.3-0.6,0.6c0,5.2,0,10.4-0.1,15.6
					C177.6,55.1,178.9,55.1,178.9,54.2L178.9,54.2z"/>
			</g>
		</g>
		<g>
			<g>
				<path class="st3" d="M208.7,36.6c-3.7,4.3-7.3,8.5-11,12.8c-0.3,0.3-0.2,0.8,0.1,1c3.1,2,6.1,4,9.2,6c0.7,0.4,1.3-0.6,0.6-1.1
					c-3.1-2-6.1-4-9.2-6c0,0.3,0.1,0.7,0.1,1c3.7-4.3,7.3-8.5,11-12.8C210.2,36.9,209.3,36,208.7,36.6L208.7,36.6z"/>
			</g>
		</g>
		<g>
			<g>
				<path class="st3" d="M234.5,38.2c-2.7,0-5.5,0-8.2,0c-0.2,0-0.5,0.1-0.5,0.3c-0.6,1.5-1.3,2.9-1.9,4.4c-0.4,0.8-0.7,2.3-1.3,3
					c-0.7,0.8,0.8-0.2-0.4,0.2c-2.7,1-7.7,0-10.6,0c-0.3,0-0.6,0.3-0.6,0.6c0,1.2,0,2.3,0,3.5c0,0.3,0.3,0.6,0.6,0.6
					c3.2,0,6.5,0.2,9.7,0c2.5-0.1,2.7,2.6,4.1,5.4c0.1,0.2,0.3,0.3,0.5,0.3c2.6,0,6.4,0.8,8.9,0c1.9-0.6,3.4-2.5,4.9-3.9
					s3-2.3,3.5-4.2c0.7-2.8,0-6.6,0-9.5c0-0.8-1.2-0.8-1.2,0c0,2.7,0.9,7.2,0,9.7c-0.4,1.2-4.3,4.3-6,5.8s-4.6,0.9-7.7,0.9
					c-2.5,0-1.6,0.4-2.5-0.9c-0.9-1.3-1.5-3.1-2.2-4.5c-0.1-0.2-0.3-0.3-0.5-0.3c-2.2,0-4.5,0-6.7,0c-1.2,0-2.5,0.1-3.6,0
					c-1.7-0.2-0.3,0.8-0.5-0.7c-0.1-0.3-0.1-1.7,0-1.9c0,0.1-0.8,0.7-0.2,0.4c0.8-0.4,2.9,0,3.7,0c2.4,0,4.8,0,7.1,0
					c0.2,0,0.5-0.1,0.5-0.3c0.8-1.7,2.3-6.9,3.3-7.6c0.8-0.6,6.2,0.1,7.9,0.1C235.3,39.5,235.3,38.2,234.5,38.2L234.5,38.2z"/>
			</g>
		</g>
		<g>
			<g>
				<path class="st3" d="M249.4,38.9c0,5.6,0,11.2-0.1,16.8c0,0.8,1.2,0.8,1.2,0c0-5.6,0-11.2,0.1-16.8
					C250.7,38.1,249.4,38.1,249.4,38.9L249.4,38.9z"/>
			</g>
		</g>
		<g>
			<g>
				<path class="st3" d="M264.6,38.6c-3,3.2-5.9,6.5-8.9,9.7c-0.2,0.3-0.2,0.6,0,0.9c1.9,2.4,3.8,4.9,5.7,7.3
					c0.5,0.6,1.4-0.3,0.9-0.9c-1.2-1.6-2.4-3.1-3.7-4.7c-0.6-0.8-1.3-1.6-1.9-2.4c0.4,0.6-0.6,0.7,0.5,0c1.7-1.1,3.3-3.6,4.7-5.1
					c1.2-1.3,2.4-2.6,3.6-3.9C266,38.8,265.1,38,264.6,38.6L264.6,38.6z"/>
			</g>
		</g>
		<g>
			<g>
				<path class="st3" d="M270,39.6c9.6,0.7,9.5,17.1-0.1,17.7c-0.8,0.1-0.8,1.3,0,1.2c11.2-0.7,11.2-19.4,0.1-20.2
					C269.2,38.3,269.2,39.6,270,39.6L270,39.6z"/>
			</g>
		</g>
		<g>
			<g>
				<path class="st3" d="M282.2,39.1c0,6.3-0.1,12.7-0.1,19c0,0.8,1.2,0.8,1.2,0c0-6.3,0.1-12.7,0.1-19
					C283.5,38.3,282.2,38.3,282.2,39.1L282.2,39.1z"/>
			</g>
		</g>
		<g>
			<g>
				<path class="st3" d="M292.4,39.1c0,6.6-0.1,13.3-0.1,19.9c0,0.8,1.2,0.8,1.2,0c0-6.6,0.1-13.3,0.1-19.9
					C293.6,38.3,292.4,38.3,292.4,39.1L292.4,39.1z"/>
			</g>
		</g>
		<g>
			<g>
				<path class="st3" d="M282.8,52.2c3.4,0,6.8,0,10.2,0c0.8,0,0.8-1.2,0-1.2c-3.4,0-6.8,0-10.2,0C282,50.9,282,52.2,282.8,52.2
					L282.8,52.2z"/>
			</g>
		</g>
		<g>
			<g>
				<path class="st3" d="M305.2,42.4c-1.1,1.3-2.3,2.6-3.4,3.9c-0.9,1-2.5,2.2-3,3.5c-0.6,1.2-0.1,3.3-0.2,4.7c0,1.6,0,3.1,0,4.7
					c0,0.8,1.2,0.8,1.2,0c0-1.5,0-2.9,0-4.4c0-0.9,0-1.7,0-2.6c0-0.5,0.2-2.2-0.1-1.7c0.6-1.3,2.4-2.7,3.3-3.8c1-1.1,2-2.3,3-3.4
					C306.6,42.7,305.7,41.8,305.2,42.4L305.2,42.4z"/>
			</g>
		</g>
		<g>
			<g>
				<path class="st3" d="M312.8,55.2c2.1-3.5,4.3-7.1,6.4-10.6c0.2-0.4-0.1-0.9-0.5-0.9c-2.1,0-4.2,0-6.3,0c-0.8,0-0.8,1.2,0,1.2
					c2.1,0,4.2,0,6.3,0c-0.2-0.3-0.4-0.6-0.5-0.9c-2.1,3.5-4.3,7.1-6.4,10.6C311.3,55.2,312.4,55.8,312.8,55.2L312.8,55.2z"/>
			</g>
		</g>
	</g>
	<g>
		<g>
			<path class="st3" d="M425.8,51.4c-1,16.6-34.6,16.5-34.5-0.2C391.3,34.6,424.9,34.8,425.8,51.4c0.1,1.6,2.6,1.6,2.5,0
				c-1-19.8-39.4-20.1-39.5-0.2c-0.2,19.9,38.3,20,39.5,0.2C428.4,49.8,425.9,49.8,425.8,51.4z"/>
		</g>
	</g>
	<g>
		<g>
			<path class="st3" d="M391.5,81.8c4.6-13.4,29.1-13.3,33.8-0.1c0.5,1.5,3,0.9,2.4-0.7c-5.5-15.6-33.2-15.7-38.6,0.1
				C388.5,82.6,390.9,83.3,391.5,81.8L391.5,81.8z"/>
		</g>
	</g>
	<g>
		<g>
			<path class="st3" d="M482.4,56.8c-1,16.6-34.6,16.5-34.5-0.2C448,40,481.6,40.2,482.4,56.8c0.1,1.6,2.6,1.6,2.5,0
				c-1-19.8-39.4-20.1-39.5-0.2c-0.2,19.9,38.3,20,39.5,0.2C485,55.2,482.5,55.2,482.4,56.8z"/>
		</g>
	</g>
	<g>
		<g>
			<path class="st3" d="M447.8,81.7c1-16.7,33.7-16.5,34.5,0.2c0.1,1.6,2.6,1.6,2.5,0c-1-19.9-38.3-20.1-39.5-0.2
				C445.2,83.3,447.7,83.3,447.8,81.7L447.8,81.7z"/>
		</g>
	</g>
	<g>
		<g>
			<path class="st3" d="M427.2,81c-0.7-18,35.6-17.7,34.4,0.4c-0.1,1.6,2.4,1.6,2.5,0c1.4-21.3-40.3-21.7-39.4-0.4
				C424.7,82.6,427.2,82.6,427.2,81L427.2,81z"/>
		</g>
	</g>
	<g>
		<g>
			<path class="st3" d="M530.6,42.8c-1,16.7-33.7,16.5-34.5-0.2c-0.1-1.6-2.6-1.6-2.5,0c1,19.9,38.3,20.1,39.5,0.2
				C533.2,41.2,530.7,41.2,530.6,42.8L530.6,42.8z"/>
		</g>
	</g>
	<g>
		<g>
			<path class="st3" d="M504.9,84c-12.2-10,0.9-21.2,12.3-21.1c11.4,0.1,24.4,11.3,12.1,21.2c-1.3,1,0.5,2.8,1.8,1.8
				c5.2-4.2,7.7-10.9,3.9-16.9c-3.7-5.9-11.1-8.5-17.8-8.5c-6.5,0-13.7,2.4-17.6,7.9c-4.2,6.1-1.9,13,3.5,17.4
				C504.4,86.8,506.1,85,504.9,84L504.9,84z"/>
		</g>
	</g>
	<g>
		<g>
			<path class="st3" d="M533.2,84.7c4.2-14,30.2-13.8,34.1,0.3c0.4,1.5,2.8,0.9,2.4-0.7c-4.6-16.6-34-16.7-38.9-0.3
				C530.3,85.6,532.7,86.2,533.2,84.7L533.2,84.7z"/>
		</g>
	</g>
	<g>
		<g>
			<path class="st3" d="M587.3,57.8c-1,16.6-34.6,16.5-34.5-0.2C552.9,40.9,586.5,41.1,587.3,57.8c0.1,1.6,2.6,1.6,2.5,0
				c-1-19.8-39.4-20.1-39.5-0.2c-0.2,19.9,38.3,20,39.5,0.2C589.9,56.1,587.4,56.1,587.3,57.8z"/>
		</g>
	</g>
	<g>
		<g>
			<path class="st3" d="M579,48.2c8.5-2.8,26.7-0.8,25.3,12c-1.3,11.7-17.8,12.8-26.1,9.5c-1.5-0.6-2.1,1.8-0.7,2.4
				c9.9,3.9,28.7,1.4,29.4-12.3c0.7-14.2-18.4-17.4-28.5-14C576.9,46.3,577.5,48.7,579,48.2L579,48.2z"/>
		</g>
	</g>
	<g>
		<g>
			<path class="st3" d="M610.9,56.3c10.6-5,21-1.5,30.9,3.1c8.9,4.2,18,8.2,27,12.1c10.4,4.6,25.3,8.9,34.7,0.4
				c1.2-1.1-0.6-2.8-1.8-1.8c-11.2,10.1-29.1,0.4-40.2-4.6c-16-7.1-34.1-19.8-51.9-11.5C608.2,54.8,609.5,57,610.9,56.3L610.9,56.3z
				"/>
		</g>
	</g>
	<g>
		<g>
			<path class="st3" d="M606.2,84.4c4.2-14,30.2-13.8,34.1,0.3c0.4,1.5,2.8,0.9,2.4-0.7c-4.6-16.6-34-16.7-38.9-0.3
				C603.4,85.3,605.8,85.9,606.2,84.4L606.2,84.4z"/>
		</g>
	</g>
	<g>
		<g>
			<path class="st3" d="M658.1,51.4c4.8,16.4,34.2,16.5,38.9,0c0.4-1.6-2-2.2-2.4-0.7c-4,14.1-30,14-34.1,0
				C660,49.2,657.6,49.8,658.1,51.4L658.1,51.4z"/>
		</g>
	</g>
	<g>
		<g>
			<path class="st3" d="M695.9,86.4c2.2-1.9,3.8-4.3,4.5-7.2c0.4-1.6-2-2.2-2.4-0.7c-0.6,2.4-2,4.4-3.9,6.1
				C692.9,85.7,694.7,87.5,695.9,86.4L695.9,86.4z"/>
		</g>
	</g>
	<g>
		<g>
			<path class="st3" d="M661.5,79.3c0.7,2.6,2.1,4.8,4,6.7c1.2,1.1,2.9-0.6,1.8-1.8c-1.6-1.6-2.8-3.4-3.4-5.6
				C663.5,77,661.1,77.7,661.5,79.3L661.5,79.3z"/>
		</g>
	</g>
	<g>
		<g>
			<path class="st3" d="M728.8,66.4c-0.6,10.6-16.6,10.6-16.5-0.1C712.3,55.7,728.3,55.8,728.8,66.4c0.1,1.6,2.6,1.6,2.5,0
				c-0.3-5.8-4.6-10.8-10.7-10.8c-5.8,0-10.8,4.9-10.8,10.7c0,5.7,4.5,10.5,10.2,10.8c6.3,0.3,11-4.6,11.3-10.7
				C731.4,64.8,728.9,64.8,728.8,66.4z"/>
		</g>
	</g>
	<g>
		<g>
			<path class="st3" d="M738.4,63.4c6.1-4.9,15.6,3.5,21.3,6.5c6.7,3.6,13.5,7.1,20.3,10.5c8.1,4,18.7,6.9,22.1-4.4
				c0.5-1.5-1.9-2.2-2.4-0.7c-4.1,13.4-21.1,1.6-28.3-2.1c-6.4-3.3-12.9-6.5-18.9-10.4c-5-3.2-10.4-5.5-15.7-1.3
				C735.4,62.7,737.2,64.4,738.4,63.4L738.4,63.4z"/>
		</g>
	</g>
	<g>
		<g>
			<path class="st3" d="M737.6,85.9c2.7-8.1,17.5-8,20,0.2c0.5,1.5,2.9,0.9,2.4-0.7c-3.2-10.6-21.4-10.7-24.8-0.2
				C734.7,86.8,737.1,87.4,737.6,85.9L737.6,85.9z"/>
		</g>
	</g>
	<g>
		<g>
			<path class="st3" d="M784.3,57.6c3.7,11.5,23.7,11.6,27.2,0c0.5-1.5-1.9-2.2-2.4-0.7c-2.8,9.2-19.5,9.2-22.4,0
				C786.3,55.4,783.8,56.1,784.3,57.6L784.3,57.6z"/>
		</g>
	</g>
	<g>
		<g>
			<path class="st3" d="M831.5,73.3c-0.7,12.1-18.9,12.1-18.9-0.1C812.7,61.1,830.9,61.3,831.5,73.3c0.1,1.6,2.6,1.6,2.5,0
				c-0.3-6.5-5.1-12-11.9-12c-6.5,0-12,5.4-12,11.9c0,6.3,5,11.6,11.3,12c7,0.4,12.2-5.1,12.6-11.9
				C834.1,71.7,831.6,71.7,831.5,73.3z"/>
		</g>
	</g>
	<g>
		<ellipse transform="matrix(4.403410e-03 -1 1 4.403410e-03 356.9063 455.933)" class="st3" cx="407.4" cy="48.7" rx="4" ry="4"/>
	</g>
	<g>
		<ellipse transform="matrix(4.403410e-03 -1 1 4.403410e-03 440.8772 590.73)" class="st3" cx="517.1" cy="74" rx="4" ry="4"/>
	</g>
	<g>
		<ellipse transform="matrix(4.403410e-03 -1 1 4.403410e-03 556.9554 686.8275)" class="st3" cx="623.4" cy="63.7" rx="4" ry="4"/>
	</g>
	<g>
		
			<ellipse transform="matrix(4.403410e-03 -1 1 4.403410e-03 651.0095 786.6)" class="st3" cx="720.5" cy="66.4" rx="3.1" ry="3.1"/>
	</g>
	<g>
		
			<ellipse transform="matrix(4.403410e-03 -1 1 4.403410e-03 745.1405 894.9897)" class="st3" cx="822" cy="73.3" rx="3.1" ry="3.1"/>
	</g>
	<g>
		<g>
			<path class="st3" d="M827.1,59.8c11.5,7,23.1,13.9,34.6,20.9c7.2,4.3,22.4,13.9,26,0.8c0.4-1.6-2-2.2-2.4-0.7
				c-3.3,12-21.6-1.9-27.3-5.3c-9.9-6-19.7-11.9-29.6-17.9C827,56.8,825.7,59,827.1,59.8L827.1,59.8z"/>
		</g>
	</g>
	<g>
		
			<ellipse transform="matrix(4.403410e-03 -1 1 4.403410e-03 763.6854 928.5184)" class="st3" cx="848.2" cy="80.7" rx="3.1" ry="3.1"/>
	</g>
	<g>
		<g>
			<path class="st3" d="M876.4,63.2c4.7,16,33.3,16.1,37.9,0c0.4-1.6-2-2.2-2.4-0.7c-3.9,13.7-29.1,13.6-33,0
				C878.4,61,876,61.7,876.4,63.2L876.4,63.2z"/>
		</g>
	</g>
	<g>
		<g>
			<path class="st3" d="M899.4,89.7c3.2-5.9,13.9-6.3,19.6-6.2c5.3,0.1,15.1,0.8,17.8,6.5c0.7,1.4,2.9,0.2,2.2-1.3
				c-3.2-6.5-13.7-7.6-20-7.7c-6.7-0.2-18.1,0.6-21.8,7.4C896.5,89.9,898.7,91.2,899.4,89.7L899.4,89.7z"/>
		</g>
	</g>
	<g>
		<g>
			<path class="st3" d="M925.8,64.8c12.2,8.8,28.5,9.5,41.4,1.9c1.4-0.8,0.1-3-1.3-2.2c-12.2,7.2-27.5,6.4-38.9-1.9
				C925.8,61.7,924.5,63.9,925.8,64.8L925.8,64.8z"/>
		</g>
	</g>
	<g>
		<g>
			<path class="st3" d="M940.8,80.8c11.2,1,22.4,2,33.6,3c6.5,0.6,20.5,4.1,18.4-7.2c-0.3-1.6-2.7-0.9-2.4,0.7
				c1,5.5-3.5,5.1-7.1,4.8c-5.2-0.5-10.3-0.9-15.5-1.4c-9-0.8-18-1.6-27-2.4C939.2,78.2,939.2,80.7,940.8,80.8L940.8,80.8z"/>
		</g>
	</g>
	<g>
		<g>
			<path class="st3" d="M1030.5,79.4c-0.6,11.1-17.5,11.2-17.4-0.1C1013.1,68.1,1029.9,68.3,1030.5,79.4c0.1,1.6,2.6,1.6,2.5,0
				c-0.3-6.1-4.8-11.2-11.2-11.2c-6.1,0-11.2,5.1-11.2,11.2c0,5.9,4.7,10.9,10.6,11.2c6.6,0.3,11.4-4.8,11.8-11.1
				C1033.1,77.8,1030.6,77.8,1030.5,79.4z"/>
		</g>
	</g>
	<g>
		<g>
			<path class="st3" d="M1059.3,82.3c-0.4,6.6-10.3,6.6-10.2-0.1C1049.2,75.7,1059,75.8,1059.3,82.3c0.1,1.6,2.6,1.6,2.5,0
				c-0.2-4.1-3.3-7.6-7.6-7.6c-4.1,0-7.6,3.4-7.6,7.6c0,4,3.2,7.4,7.2,7.6c4.4,0.2,7.7-3.3,8-7.6
				C1061.9,80.7,1059.4,80.7,1059.3,82.3z"/>
		</g>
	</g>
	<g>
		<g>
			<path class="st3" d="M1065,93.5c1-11.7,25-11.6,25.8,0.1c0.1,1.6,2.6,1.6,2.5,0c-1.1-15-29.6-15.1-30.8-0.1
				C1062.4,95.1,1064.9,95.1,1065,93.5L1065,93.5z"/>
		</g>
	</g>
	<g>
		
			<ellipse transform="matrix(4.403410e-03 -1 1 4.403410e-03 937.9763 1100.7194)" class="st3" cx="1021.8" cy="79.3" rx="3.1" ry="3.1"/>
	</g>
	<g>
		
			<ellipse transform="matrix(4.403410e-03 -1 1 4.403410e-03 911.5777 1087.2692)" class="st3" cx="1001.8" cy="85.8" rx="3.1" ry="3.1"/>
	</g>
	<g>
		
			<ellipse transform="matrix(7.321075e-02 -0.9973 0.9973 7.321075e-02 933.0824 1158.9027)" class="st3" cx="1090.1" cy="77.4" rx="3.1" ry="3.1"/>
	</g>
	<g>
		<g>
			<path class="st3" d="M1115.7,68.1c-12-0.5-23.9-1.1-35.9-1.6c-31.2-1.4-62.4-2.8-93.6-4.3c-43.8-2-87.7-4-131.5-6
				c-49.4-2.3-98.8-4.5-148.2-6.8c-48.3-2.2-96.7-4.4-145-6.6c-40.7-1.9-81.3-3.7-122-5.6c-26-1.2-52-2.4-78-3.6
				c-36.9-1.7-73.9-1.8-110.8-2.4c-50-0.9-100.1-1.8-150.1-2.7c-12.6-0.2-25.2-0.4-37.8-0.7c-5.9-0.1-11.9-0.2-17.8-0.3
				c-6.2-0.1-12.8-0.8-19-0.1c-6.8,0.7-13,4.9-16.2,11c-2.7,5.1-2.4,10.7-2.5,16.3c0,5.6-0.4,11.1,2.3,16.3
				c3.3,6.4,9.8,10.6,16.9,11.2c2.3,0.2,4.7,0.1,7,0.1c13.1,0.1,26.2,0.1,39.2,0.2c46.2,0.2,92.5,0.4,138.7,0.6
				c39.2,0.2,78.5,0.3,117.7,0.5c9,0,18.1,0.1,27.1,0.3c24.4,0.4,48.7,0.8,73.1,1.2c39.7,0.7,79.3,1.3,119,2
				c48.1,0.8,96.3,1.6,144.4,2.4c49.6,0.8,99.2,1.6,148.8,2.5c44.5,0.7,89.1,1.5,133.6,2.2c32.8,0.5,65.6,1.1,98.4,1.6
				c14.1,0.2,28.2,0.4,42.3,0.7c0.9,0-0.6,0.2,0.8,0.1c3.4-0.2,5.7-1.9,7.1-5c3.2-6.9,2.1-22-7.6-23.4c-2.4-0.3-3.4,3.3-1,3.6
				c8.5,1.2,8.9,20.6,1.1,21c-0.9,0-1.8,0-2.8,0c-6.1-0.1-12.3-0.2-18.4-0.3c-26.6-0.4-53.3-0.9-79.9-1.3
				c-40.4-0.7-80.8-1.3-121.3-2c-47.8-0.8-95.5-1.6-143.3-2.4c-48.7-0.8-97.4-1.6-146.1-2.4c-43.2-0.7-86.4-1.4-129.5-2.1
				c-31.2-0.5-62.5-1-93.7-1.5c-12.8-0.2-25.7-0.5-38.5-0.6c-22-0.2-44-0.2-66-0.3c-47.3-0.2-94.5-0.4-141.8-0.6
				c-33.8-0.1-67.7-0.3-101.5-0.4c-1.8,0-3.6,0.1-5.4,0c-10.2-0.5-17-8.2-17.1-18.2c0-4.9-0.5-10.2,0.3-15c0.9-5.1,4-9.5,8.5-12.1
				c5.3-3,11.5-2.1,17.3-2c12.2,0.2,24.5,0.4,36.7,0.6c24.8,0.4,49.7,0.9,74.5,1.3c49.3,0.9,98.6,1.7,147.9,2.6
				c17.3,0.3,34.7,0.2,52,1c18.6,0.8,37.2,1.7,55.9,2.5c35.2,1.6,70.4,3.2,105.7,4.8c45.4,2.1,90.7,4.1,136.1,6.2
				c49.1,2.2,98.1,4.5,147.2,6.7c46.3,2.1,92.6,4.2,138.9,6.3c37.1,1.7,74.1,3.4,111.2,5.1c21.4,1,42.8,2,64.2,2.9
				c2.8,0.1,5.6,0.3,8.4,0.4C1118.1,72,1118.1,68.2,1115.7,68.1z"/>
		</g>
	</g>
</g>
</svg>
