<?xml version="1.0" encoding="utf-8"?>
<!-- Generator: Adobe Illustrator 21.0.2, SVG Export Plug-In . SVG Version: 6.00 Build 0)  -->
<svg version="1.1" id="Layer_1" xmlns="http://www.w3.org/2000/svg" xmlns:xlink="http://www.w3.org/1999/xlink" x="0px" y="0px"
	 viewBox="0 0 1133.9 124.4" style="enable-background:new 0 0 1133.9 124.4;" xml:space="preserve">
<style type="text/css">
	.st0{fill:#383838;}
	.st1{fill:#353032;}
	.st2{fill:#2E2E2E;}
	.st3{fill:#292929;}
	.st4{fill:#252525;}
	.st5{fill:#221D1E;}
	.st6{fill:#D2D2D1;}
	.st7{fill:none;}
	.st8{fill:#888888;}
	.st9{fill:#757171;}
	.st10{fill:#BAB3B5;}
	.st11{fill:#1C181A;}
</style>
<g>
	<g>
		<path class="st0" d="M1094.6,74.1l32.2-5c0-6.3-0.1-12.6-0.2-18.9c-9.2-1.9-18.5-3.8-27.7-5.7l-7.3-1.8c0,0-1.7-12.3-11.4-6.4
			c0,0-59.1-6.5-112.6,0.6c0,0-5.5-8.2-10.2,0.1c0,0-125.8-3.4-149.8,5.3L14.8,42.4c0,0-9.2,2-9.4,12.8
			C5.2,65.9,18.1,68.2,18.1,68.2l786.6,6c0,0-0.7,10.5,149.5,8.2c0,0,3.8,9.2,10.8,0.6c0,0,65.4,9.4,114.3-2c0,0,6.9,12.1,11.6-5
			L1094.6,74.1z"/>
	</g>
	<g>
		<path class="st1" d="M900.2,82.9c-0.2-0.7-0.3-1.5-0.3-2.4c-0.1-4.7,3.6-8.5,8.3-8.6c4.7-0.1,8.5,3.6,8.6,8.3
			c0,0.9-0.2,1.8-0.4,2.6"/>
	</g>
	<path class="st2" d="M1098.9,44.6c9.2,1.9,18.5,3.8,27.7,5.7c0,6.3,0.1,12.6,0.2,18.9l-27.9,4.3L1098.9,44.6z"/>
	<path class="st3" d="M7.3,46.1c2.7-3.4,6.4-4.1,6.4-4.1l792.6,0c1.3-0.4,2.9-0.9,4.8-1.3l0.1,7.3L7.3,46.1z"/>
	<path class="st4" d="M5.7,57.5c1.6,8.7,12.5,10.7,12.5,10.7l786.5,6c0,0-0.1,1.5,7.7,3.3l-0.2-8.5l-0.6-8.9"/>
	<path class="st5" d="M804.7,74.2c0,0-0.3,2.2,10.6,3.8c0,0,4.8-22.5-0.7-37.4c-0.8,0.1-1.6,0.2-2.3,0.3c-2.8,0.5-5.5,0.9-8.1,1.4
		c1.5,1.7,5.5,6.3,6.3,13.6C811.5,65.9,805.8,72.9,804.7,74.2z"/>
	<g>
		<g>
			<path class="st6" d="M806.3,57.4c-14.8-0.1-29.6-0.2-44.4-0.3c-35.7-0.2-71.4-0.5-107.1-0.8c-43-0.3-86-0.6-129.1-0.9
				c-37.2-0.3-74.4-0.5-111.6-0.8c-12.3-0.1-24.6-0.1-36.8-0.2c-5.6,0-12-1-17.6-0.2c-0.2,0-0.5,0-0.7,0c-1.6,0-1.6,2.5,0,2.5
				c14.8,0.1,29.6,0.2,44.4,0.3c35.7,0.2,71.4,0.5,107.1,0.8c43,0.3,86,0.6,129.1,0.9c37.2,0.3,74.4,0.5,111.6,0.8
				c12.3,0.1,24.6,0.1,36.8,0.2c5.6,0,12,1,17.6,0.2c0.2,0,0.5,0,0.7,0C808,59.9,807.9,57.4,806.3,57.4L806.3,57.4z"/>
		</g>
	</g>
	<g>
		<line class="st7" x1="12.6" y1="52.5" x2="139.8" y2="55"/>
		<g>
			<path class="st8" d="M12.6,53.7c37.1,0.7,74.2,1.5,111.5,2.2c5.2,0.1,10.5,0.2,15.7,0.3c1.6,0.1,1.6-2.4,0-2.5
				c-37.1-0.7-74.2-1.5-111.5-2.2c-5.2-0.1-10.5-0.2-15.7-0.3C11,51.2,11,53.7,12.6,53.7L12.6,53.7z"/>
		</g>
	</g>
	<g>
		
			<ellipse transform="matrix(0.9999 -1.421922e-02 1.421922e-02 0.9999 -0.6504 15.5558)" class="st9" cx="1093.6" cy="53.5" rx="1.8" ry="1.8"/>
	</g>
	<g>
		
			<ellipse transform="matrix(0.9999 -1.421922e-02 1.421922e-02 0.9999 -0.9501 14.9952)" class="st9" cx="1054" cy="74.3" rx="2.4" ry="2.4"/>
	</g>
	<g>
		
			<ellipse transform="matrix(0.9999 -1.421922e-02 1.421922e-02 0.9999 -0.8627 15.3354)" class="st9" cx="1078" cy="68.3" rx="2.4" ry="2.4"/>
	</g>
	<g>
		
			<ellipse transform="matrix(0.9999 -1.421922e-02 1.421922e-02 0.9999 -0.6381 15.3311)" class="st9" cx="1077.8" cy="52.5" rx="2.4" ry="2.4"/>
	</g>
	<g>
		<path class="st9" d="M1072,35.9c0.4,0.7,0.6,1.4,0.6,2.2c0,2.5-1.9,4.5-4.4,4.6c-2.5,0-4.5-1.9-4.6-4.4c0-1.1,0.4-2.1,1-2.9"/>
	</g>
	<g>
		
			<ellipse transform="matrix(0.9999 -1.421922e-02 1.421922e-02 0.9999 -1.0093 14.7402)" class="st9" cx="1036.1" cy="78.3" rx="2.4" ry="2.4"/>
	</g>
	<g>
		
			<ellipse transform="matrix(0.9999 -1.421922e-02 1.421922e-02 0.9999 -0.9677 14.283)" class="st9" cx="1003.9" cy="75.2" rx="2.4" ry="2.4"/>
	</g>
	<g>
		
			<ellipse transform="matrix(0.9999 -1.421922e-02 1.421922e-02 0.9999 -0.9758 14.0058)" class="st9" cx="984.5" cy="75.6" rx="2.4" ry="2.4"/>
	</g>
	<g>
		
			<ellipse transform="matrix(0.9999 -1.421922e-02 1.421922e-02 0.9999 -0.4407 14.1158)" class="st9" cx="992.5" cy="38" rx="2.4" ry="2.4"/>
	</g>
	<g>
		
			<ellipse transform="matrix(0.9999 -1.421922e-02 1.421922e-02 0.9999 -0.6974 13.8858)" class="st9" cx="976.2" cy="56" rx="3.9" ry="3.9"/>
	</g>
	<g>
		
			<ellipse transform="matrix(0.9999 -1.421922e-02 1.421922e-02 0.9999 -0.5522 13.9933)" class="st9" cx="983.8" cy="45.8" rx="2.4" ry="2.4"/>
	</g>
	<g>
		
			<ellipse transform="matrix(0.9999 -1.421922e-02 1.421922e-02 0.9999 -0.4311 14.4982)" class="st9" cx="1019.4" cy="37.6" rx="2.8" ry="2.8"/>
	</g>
	<g>
		
			<ellipse transform="matrix(0.9999 -1.421922e-02 1.421922e-02 0.9999 -0.7799 15.1599)" class="st9" cx="1065.7" cy="62.4" rx="3.6" ry="3.6"/>
	</g>
	<g>
		
			<ellipse transform="matrix(0.9999 -1.421922e-02 1.421922e-02 0.9999 -0.6428 14.8771)" class="st9" cx="1045.9" cy="52.6" rx="4.8" ry="4.8"/>
	</g>
	<g>
		
			<ellipse transform="matrix(0.9999 -1.421922e-02 1.421922e-02 0.9999 -0.8404 14.7813)" class="st9" cx="1039.1" cy="66.5" rx="4.8" ry="4.8"/>
	</g>
	<g>
		
			<ellipse transform="matrix(0.9999 -1.421922e-02 1.421922e-02 0.9999 -0.6379 14.6283)" class="st9" cx="1028.4" cy="52.2" rx="4.8" ry="4.8"/>
	</g>
	<g>
		
			<ellipse transform="matrix(0.9999 -1.421922e-02 1.421922e-02 0.9999 -0.8466 14.5468)" class="st9" cx="1022.6" cy="66.8" rx="4.8" ry="4.8"/>
	</g>
	<g>
		
			<ellipse transform="matrix(0.9999 -1.421922e-02 1.421922e-02 0.9999 -0.7398 14.3981)" class="st9" cx="1012.2" cy="59.2" rx="4.8" ry="4.8"/>
	</g>
	<g>
		
			<ellipse transform="matrix(0.9999 -1.421922e-02 1.421922e-02 0.9999 -0.7556 14.1624)" class="st9" cx="995.6" cy="60.2" rx="5.8" ry="5.8"/>
	</g>
	<g>
		
			<ellipse transform="matrix(0.9999 -1.421922e-02 1.421922e-02 0.9999 -0.7388 15.1261)" class="st10" cx="1063.4" cy="59.5" rx="2.4" ry="2.4"/>
	</g>
	<g>
		
			<ellipse transform="matrix(0.9999 -1.421922e-02 1.421922e-02 0.9999 -0.6613 14.9726)" class="st10" cx="1052.6" cy="54" rx="3.3" ry="3.3"/>
	</g>
	<g>
		
			<ellipse transform="matrix(0.9999 -1.421922e-02 1.421922e-02 0.9999 -0.7321 14.0598)" class="st10" cx="988.4" cy="58.5" rx="4.7" ry="4.7"/>
	</g>
	<g>
		
			<ellipse transform="matrix(0.9999 -1.421922e-02 1.421922e-02 0.9999 -0.6777 14.3773)" class="st10" cx="1010.7" cy="54.8" rx="2.4" ry="2.4"/>
	</g>
	<g>
		
			<ellipse transform="matrix(0.9999 -1.421922e-02 1.421922e-02 0.9999 -0.7577 14.7333)" class="st10" cx="1035.7" cy="60.7" rx="2.4" ry="2.4"/>
	</g>
	<g>
		
			<ellipse transform="matrix(0.9999 -1.421922e-02 1.421922e-02 0.9999 -0.761 14.5626)" class="st10" cx="1023.7" cy="60.8" rx="2.4" ry="2.4"/>
	</g>
	<g>
		
			<ellipse transform="matrix(0.9999 -1.421922e-02 1.421922e-02 0.9999 -0.8245 14.2177)" class="st10" cx="999.4" cy="65.1" rx="2.4" ry="2.4"/>
	</g>
	<g>
		
			<ellipse transform="matrix(0.9999 -1.421922e-02 1.421922e-02 0.9999 -1.0408 15.0578)" class="st11" cx="1058.4" cy="80.7" rx="2.8" ry="2.8"/>
	</g>
	<g>
		
			<ellipse transform="matrix(0.9999 -1.421922e-02 1.421922e-02 0.9999 -0.5006 15.1296)" class="st11" cx="1063.7" cy="42.8" rx="2.8" ry="2.8"/>
	</g>
	<g>
		
			<ellipse transform="matrix(0.9999 -1.421922e-02 1.421922e-02 0.9999 -0.622 15.121)" class="st11" cx="1063.1" cy="51.3" rx="2.8" ry="2.8"/>
	</g>
	<g>
		
			<ellipse transform="matrix(0.9999 -1.421922e-02 1.421922e-02 0.9999 -0.5343 15.3406)" class="st11" cx="1078.5" cy="45.2" rx="2.8" ry="2.8"/>
	</g>
	<path class="st5" d="M1090.8,75.9c0,0-3.7,16.9-11.6,5c0,0-0.8-39.9,1-44.5c0,0,9-6.3,11.4,6.4C1091.6,42.8,1092,75.8,1090.8,75.9z
		"/>
	<g>
		
			<ellipse transform="matrix(0.9999 -1.421922e-02 1.421922e-02 0.9999 -0.5546 14.5787)" class="st11" cx="1025" cy="46.3" rx="2.8" ry="2.8"/>
	</g>
	<g>
		
			<ellipse transform="matrix(0.9999 -1.421922e-02 1.421922e-02 0.9999 -0.4346 14.3717)" class="st11" cx="1010.5" cy="37.7" rx="2.8" ry="2.8"/>
	</g>
	<g>
		
			<ellipse transform="matrix(0.9999 -1.421922e-02 1.421922e-02 0.9999 -0.5619 14.4232)" class="st11" cx="1014" cy="46.7" rx="2.8" ry="2.8"/>
	</g>
	<g>
		
			<ellipse transform="matrix(0.9999 -1.421922e-02 1.421922e-02 0.9999 -0.6169 14.3278)" class="st11" cx="1007.3" cy="50.5" rx="2.8" ry="2.8"/>
	</g>
	<g>
		
			<ellipse transform="matrix(0.9999 -1.421922e-02 1.421922e-02 0.9999 -0.95 14.2135)" class="st11" cx="999.1" cy="73.9" rx="2.8" ry="2.8"/>
	</g>
	<g>
		
			<ellipse transform="matrix(0.9999 -1.421922e-02 1.421922e-02 0.9999 -0.9575 14.8946)" class="st11" cx="1047" cy="74.8" rx="2.8" ry="2.8"/>
	</g>
	<g>
		
			<ellipse transform="matrix(0.9999 -1.421922e-02 1.421922e-02 0.9999 -0.8882 15.0657)" class="st11" cx="1059" cy="70" rx="2.8" ry="2.8"/>
	</g>
	<g>
		
			<ellipse transform="matrix(0.9999 -1.421922e-02 1.421922e-02 0.9999 -0.9033 14.0252)" class="st11" cx="985.9" cy="70.5" rx="2.8" ry="2.8"/>
	</g>
	<g>
		
			<ellipse transform="matrix(0.9999 -1.421922e-02 1.421922e-02 0.9999 -0.5496 13.8987)" class="st11" cx="977.1" cy="45.6" rx="2.8" ry="2.8"/>
	</g>
	<g>
		
			<ellipse transform="matrix(0.9999 -1.421922e-02 1.421922e-02 0.9999 -0.8459 13.8672)" class="st11" cx="974.8" cy="66.4" rx="2.8" ry="2.8"/>
	</g>
	<g>
		
			<ellipse transform="matrix(0.9999 -1.421922e-02 1.421922e-02 0.9999 -1.0327 13.8333)" class="st11" cx="972.3" cy="79.5" rx="2.8" ry="2.8"/>
	</g>
	<g>
		
			<ellipse transform="matrix(0.9999 -1.421922e-02 1.421922e-02 0.9999 -0.8829 15.5859)" class="st11" cx="1095.6" cy="69.9" rx="2.8" ry="2.8"/>
	</g>
	<g>
		<g>
			<path class="st5" d="M1097.7,53.7c0.1,5.4,0.2,10.7,0.3,16.1c0,1.6,2.5,1.6,2.5,0c-0.1-5.4-0.2-10.7-0.3-16.1
				C1100.2,52.1,1097.7,52.1,1097.7,53.7L1097.7,53.7z"/>
		</g>
	</g>
	<g>
		<path class="st1" d="M1011.1,86.7c-0.4-0.9-0.6-1.9-0.7-3c-0.1-4.2,3.4-7.8,7.6-7.8c4.2-0.1,7.8,3.4,7.8,7.6
			c0,1.2-0.3,2.3-0.7,3.3"/>
	</g>
	<g>
		
			<ellipse transform="matrix(0.9999 -1.421922e-02 1.421922e-02 0.9999 -0.9568 15.2357)" class="st1" cx="1071" cy="74.9" rx="4.8" ry="4.8"/>
	</g>
	<g>
		
			<ellipse transform="matrix(0.9999 -1.421922e-02 1.421922e-02 0.9999 -0.4745 14.7379)" class="st1" cx="1036.2" cy="40.7" rx="6.2" ry="6.2"/>
	</g>
	<g>
		
			<ellipse transform="matrix(0.9999 -1.421922e-02 1.421922e-02 0.9999 -0.4692 14.9502)" class="st1" cx="1051.1" cy="40.5" rx="4.8" ry="4.8"/>
	</g>
	<g>
		
			<ellipse transform="matrix(0.9999 -1.421922e-02 1.421922e-02 0.9999 -0.533 14.2249)" class="st1" cx="1000.1" cy="44.6" rx="3.9" ry="3.9"/>
	</g>
	<g>
		
			<ellipse transform="matrix(0.9999 -1.421922e-02 1.421922e-02 0.9999 -1.0441 14.1351)" class="st1" cx="993.5" cy="80.5" rx="4.1" ry="4.1"/>
	</g>
	<g>
		
			<ellipse transform="matrix(0.9999 -1.421922e-02 1.421922e-02 0.9999 -0.9426 13.3393)" class="st11" cx="937.6" cy="73" rx="2.8" ry="2.8"/>
	</g>
	<g>
		
			<ellipse transform="matrix(0.9999 -1.421922e-02 1.421922e-02 0.9999 -1.0128 13.3169)" class="st11" cx="936" cy="77.9" rx="2.8" ry="2.8"/>
	</g>
	<g>
		
			<ellipse transform="matrix(0.9999 -1.421922e-02 1.421922e-02 0.9999 -0.9359 13.2347)" class="st11" cx="930.2" cy="72.4" rx="2.8" ry="2.8"/>
	</g>
	<g>
		
			<ellipse transform="matrix(0.9999 -1.421922e-02 1.421922e-02 0.9999 -0.9208 13.0547)" class="st11" cx="917.6" cy="71.3" rx="2.8" ry="2.8"/>
	</g>
	<g>
		
			<ellipse transform="matrix(0.9999 -1.421922e-02 1.421922e-02 0.9999 -0.9817 12.978)" class="st11" cx="912.2" cy="75.5" rx="2.8" ry="2.8"/>
	</g>
	<g>
		
			<ellipse transform="matrix(0.9999 -1.421922e-02 1.421922e-02 0.9999 -0.9463 12.8708)" class="st11" cx="904.6" cy="73" rx="2.8" ry="2.8"/>
	</g>
	<g>
		
			<ellipse transform="matrix(0.9999 -1.421922e-02 1.421922e-02 0.9999 -1.0332 12.8458)" class="st11" cx="902.9" cy="79.1" rx="2.8" ry="2.8"/>
	</g>
	<g>
		
			<ellipse transform="matrix(0.9999 -1.421922e-02 1.421922e-02 0.9999 -1.0209 12.5979)" class="st11" cx="885.4" cy="78.1" rx="2.8" ry="2.8"/>
	</g>
	<g>
		
			<ellipse transform="matrix(0.9999 -1.421922e-02 1.421922e-02 0.9999 -0.9257 12.4275)" class="st11" cx="873.5" cy="71.3" rx="2.8" ry="2.8"/>
	</g>
	<g>
		
			<ellipse transform="matrix(0.9999 -1.421922e-02 1.421922e-02 0.9999 -1.0278 12.3506)" class="st11" cx="868" cy="78.5" rx="2.8" ry="2.8"/>
	</g>
	<g>
		
			<ellipse transform="matrix(0.9999 -1.421922e-02 1.421922e-02 0.9999 -1.0026 12.2218)" class="st11" cx="859" cy="76.6" rx="2.8" ry="2.8"/>
	</g>
	<g>
		
			<ellipse transform="matrix(0.9999 -1.421922e-02 1.421922e-02 0.9999 -0.8565 12.0823)" class="st11" cx="849.2" cy="66.3" rx="2.8" ry="2.8"/>
	</g>
	<g>
		
			<ellipse transform="matrix(0.9999 -1.421922e-02 1.421922e-02 0.9999 -0.9694 11.9226)" class="st11" cx="838" cy="74.1" rx="2.8" ry="2.8"/>
	</g>
	<g>
		
			<ellipse transform="matrix(0.9999 -1.421922e-02 1.421922e-02 0.9999 -0.935 11.7685)" class="st11" cx="827.1" cy="71.6" rx="2.8" ry="2.8"/>
	</g>
	<g>
		
			<ellipse transform="matrix(0.9999 -1.421922e-02 1.421922e-02 0.9999 -0.5887 12.5859)" class="st11" cx="884.8" cy="47.7" rx="2.8" ry="2.8"/>
	</g>
	<g>
		
			<ellipse transform="matrix(0.9999 -1.421922e-02 1.421922e-02 0.9999 -0.5967 13.1875)" class="st11" cx="927.1" cy="48.6" rx="2.8" ry="2.8"/>
	</g>
	<g>
		
			<ellipse transform="matrix(0.9999 -1.421922e-02 1.421922e-02 0.9999 -0.6024 12.06)" class="st11" cx="847.8" cy="48.4" rx="2.8" ry="2.8"/>
	</g>
	<g>
		
			<ellipse transform="matrix(0.9999 -1.421922e-02 1.421922e-02 0.9999 -0.5622 13.0305)" class="st11" cx="916.1" cy="46" rx="2.8" ry="2.8"/>
	</g>
	<g>
		
			<ellipse transform="matrix(0.9999 -1.421922e-02 1.421922e-02 0.9999 -0.9896 13.4889)" class="st1" cx="948.1" cy="76.3" rx="5.2" ry="5.2"/>
	</g>
	<g>
		
			<ellipse transform="matrix(0.9999 -1.421922e-02 1.421922e-02 0.9999 -0.5753 13.4436)" class="st1" cx="945.1" cy="47.2" rx="6.9" ry="6.9"/>
	</g>
	<g>
		
			<ellipse transform="matrix(0.9999 -1.421922e-02 1.421922e-02 0.9999 -0.5155 12.945)" class="st1" cx="910.1" cy="42.7" rx="5.2" ry="5.2"/>
	</g>
	<g>
		
			<ellipse transform="matrix(0.9999 -1.421922e-02 1.421922e-02 0.9999 -0.5749 12.4918)" class="st1" cx="878.2" cy="46.7" rx="5.2" ry="5.2"/>
	</g>
	<g>
		
			<ellipse transform="matrix(0.9999 -1.421922e-02 1.421922e-02 0.9999 -0.4981 12.657)" class="st1" cx="889.8" cy="41.4" rx="5.2" ry="5.2"/>
	</g>
	<g>
		
			<ellipse transform="matrix(0.9999 -1.421922e-02 1.421922e-02 0.9999 -0.6526 12.3408)" class="st1" cx="867.5" cy="52.1" rx="5.2" ry="5.2"/>
	</g>
	<g>
		
			<ellipse transform="matrix(0.9999 -1.421922e-02 1.421922e-02 0.9999 -0.5339 12.1916)" class="st1" cx="857.1" cy="43.6" rx="5.2" ry="5.2"/>
	</g>
	<g>
		
			<ellipse transform="matrix(0.9999 -1.421922e-02 1.421922e-02 0.9999 -0.5428 11.9432)" class="st1" cx="839.6" cy="44.1" rx="5.2" ry="5.2"/>
	</g>
	<g>
		
			<ellipse transform="matrix(0.9999 -1.421922e-02 1.421922e-02 0.9999 -0.5913 11.7788)" class="st1" cx="828" cy="47.5" rx="7.9" ry="7.9"/>
	</g>
	<g>
		
			<ellipse transform="matrix(0.9999 -1.421922e-02 1.421922e-02 0.9999 -0.9229 12.012)" class="st1" cx="844.3" cy="70.9" rx="5.2" ry="5.2"/>
	</g>
	<g>
		
			<ellipse transform="matrix(0.9999 -1.421922e-02 1.421922e-02 0.9999 -0.9842 12.1299)" class="st1" cx="852.5" cy="75.3" rx="5.2" ry="5.2"/>
	</g>
	<g>
		
			<ellipse transform="matrix(0.9999 -1.421922e-02 1.421922e-02 0.9999 -1.0042 12.5027)" class="st1" cx="878.7" cy="76.9" rx="5.2" ry="5.2"/>
	</g>
	<g>
		
			<ellipse transform="matrix(0.9999 -1.421922e-02 1.421922e-02 0.9999 -0.6891 12.9615)" class="st9" cx="911.2" cy="54.9" rx="5.1" ry="5.1"/>
	</g>
	<g>
		
			<ellipse transform="matrix(0.9999 -1.421922e-02 1.421922e-02 0.9999 -0.6921 11.9463)" class="st9" cx="839.8" cy="54.6" rx="5.8" ry="5.8"/>
	</g>
	<g>
		
			<ellipse transform="matrix(0.9999 -1.421922e-02 1.421922e-02 0.9999 -0.702 12.1411)" class="st9" cx="853.5" cy="55.4" rx="4.4" ry="4.4"/>
	</g>
	<g>
		
			<ellipse transform="matrix(0.9999 -1.421922e-02 1.421922e-02 0.9999 -0.9081 12.2747)" class="st9" cx="862.7" cy="70" rx="4.5" ry="4.5"/>
	</g>
	<g>
		
			<ellipse transform="matrix(0.9999 -1.421922e-02 1.421922e-02 0.9999 -0.6727 12.429)" class="st9" cx="873.7" cy="53.5" rx="3.4" ry="3.4"/>
	</g>
	<g>
		
			<ellipse transform="matrix(0.9999 -1.421922e-02 1.421922e-02 0.9999 -0.7921 12.6232)" class="st9" cx="887.3" cy="62" rx="4.4" ry="4.4"/>
	</g>
	<g>
		
			<ellipse transform="matrix(0.9999 -1.421922e-02 1.421922e-02 0.9999 -0.6028 12.7499)" class="st9" cx="896.3" cy="48.8" rx="5.8" ry="5.8"/>
	</g>
	<g>
		
			<ellipse transform="matrix(0.9999 -1.421922e-02 1.421922e-02 0.9999 -0.912 12.791)" class="st9" cx="899.1" cy="70.5" rx="4.4" ry="4.4"/>
	</g>
	<g>
		
			<ellipse transform="matrix(0.9999 -1.421922e-02 1.421922e-02 0.9999 -0.8431 13.1341)" class="st9" cx="923.2" cy="65.9" rx="5.8" ry="5.8"/>
	</g>
	<g>
		
			<ellipse transform="matrix(0.9999 -1.421922e-02 1.421922e-02 0.9999 -0.6338 13.2679)" class="st9" cx="932.7" cy="51.2" rx="4.1" ry="4.1"/>
	</g>
	<g>
		
			<ellipse transform="matrix(0.9999 -1.421922e-02 1.421922e-02 0.9999 -0.8094 13.4722)" class="st9" cx="947" cy="63.7" rx="4.9" ry="4.9"/>
	</g>
	<g>
		
			<ellipse transform="matrix(0.9999 -1.421922e-02 1.421922e-02 0.9999 -0.7842 13.3739)" class="st10" cx="940.1" cy="61.8" rx="4.7" ry="4.7"/>
	</g>
	<g>
		
			<ellipse transform="matrix(0.9999 -1.421922e-02 1.421922e-02 0.9999 -0.6653 13.5654)" class="st10" cx="953.6" cy="53.6" rx="4.7" ry="4.7"/>
	</g>
	<path class="st5" d="M964.9,83c0,0-6,8.7-10.8-0.6c0,0-3.9-27.6,3.2-45.3c0,0,4.1-8.1,10.2-0.1C967.6,37,973,62.8,964.9,83z"/>
	<g>
		
			<ellipse transform="matrix(0.9999 -1.421922e-02 1.421922e-02 0.9999 -0.6433 13.085)" class="st10" cx="919.9" cy="51.8" rx="2.9" ry="2.9"/>
	</g>
	<g>
		
			<ellipse transform="matrix(0.9999 -1.421922e-02 1.421922e-02 0.9999 -0.8054 12.7973)" class="st10" cx="899.6" cy="63" rx="3.7" ry="3.7"/>
	</g>
	<g>
		
			<ellipse transform="matrix(0.9999 -1.421922e-02 1.421922e-02 0.9999 -0.7117 12.569)" class="st10" cx="883.5" cy="56.3" rx="3.2" ry="3.2"/>
	</g>
	<g>
		
			<ellipse transform="matrix(0.9999 -1.421922e-02 1.421922e-02 0.9999 -0.7289 13.2016)" class="st10" cx="928" cy="57.9" rx="3.2" ry="3.2"/>
	</g>
	<g>
		
			<ellipse transform="matrix(0.9999 -1.421922e-02 1.421922e-02 0.9999 -0.8061 12.404)" class="st10" cx="871.9" cy="62.9" rx="3.2" ry="3.2"/>
	</g>
	<g>
		
			<ellipse transform="matrix(0.9999 -1.421922e-02 1.421922e-02 0.9999 -0.6907 12.2527)" class="st10" cx="861.3" cy="54.7" rx="3.2" ry="3.2"/>
	</g>
	<g>
		
			<ellipse transform="matrix(0.9999 -1.421922e-02 1.421922e-02 0.9999 -0.8303 12.0241)" class="st10" cx="845.2" cy="64.4" rx="3.2" ry="3.2"/>
	</g>
	<g>
		
			<ellipse transform="matrix(0.9737 -0.2278 0.2278 0.9737 6.5734 192.6402)" class="st10" cx="837.9" cy="67.8" rx="3.2" ry="3.2"/>
	</g>
	<g>
		<g>
			<path class="st6" d="M839.9,61.1c-6.7-0.3-13.5-0.4-20.2-0.7c-1.6-0.1-1.6,2.4,0,2.5c6.7,0.3,13.5,0.4,20.2,0.7
				C841.5,63.7,841.5,61.2,839.9,61.1L839.9,61.1z"/>
		</g>
	</g>
	<g>
		<g>
			<path class="st11" d="M1095.2,76c10.8-1.7,21.4-3.3,32.2-5c0.8-0.1,1.4-1.1,1.4-1.8c0-6.3-0.1-12.6-0.2-18.9
				c0-0.8-0.6-1.6-1.4-1.8c-11.7-2.4-23.5-4.7-35-7.4c0.5,0.6,0.9,1.2,1.4,1.8c-0.3-2.6-1.3-5.4-3.1-7.3c-1.2-1.3-2.7-2.1-4.5-2.4
				c-2.4-0.3-3.8,1.2-5.8,1.5c-1.9,0.3-4.7-0.4-6.5-0.6c-5.4-0.5-10.8-0.8-16.3-1.1c-17.5-1-35-1.2-52.5-0.6
				c-10.1,0.4-20.2,1-30.2,2.2c-1,0.1-2.1,0.1-3,0.4c2.9-0.7-4.2,0.9-2.5,1.2c-0.4-0.1-0.8-1.2-1.1-1.4c-1.6-1.3-3.1-2.7-5.3-2.9
				c-2.5-0.2-3.9,1.2-5.7,2.7c-0.9,0.8,0.8,0.6-0.3,0.9c-1.4,0.4-3.7-0.1-5.1-0.1c-7.7-0.2-15.3-0.3-23-0.4
				c-23.6-0.3-47.3-0.3-70.9,0.5c-10.7,0.4-21.3,0.9-32,2c-6.2,0.6-12.6,2.4-18.4,3.2c-2.6,0.3-5.5,0-8,0c-18.3,0-36.6,0-54.9,0
				c-31.7,0-63.3,0-95,0c-40.4,0-80.8,0-121.2,0c-44.5,0-89,0-133.4,0c-43.7,0-87.5,0-131.2,0c-38.7,0-77.5,0-116.2,0
				c-28.9,0-57.8,0-86.8,0c-14.4,0-28.8,0-43.3,0c-8.1,0-14,7.1-13.7,15.4c0.4,8.6,8.7,14.1,16.7,14.3c14.1,0.2,28.2,0.2,42.4,0.3
				c28.8,0.3,57.5,0.4,86.3,0.7c38.7,0.3,77.4,0.6,116.1,0.8c43.7,0.3,87.5,0.7,131.2,1c44.4,0.4,88.9,0.6,133.3,1
				c40.3,0.3,80.5,0.6,120.8,0.9c31.4,0.2,62.7,0.4,94.1,0.7c17.7,0.2,35.5,0.2,53.2,0.4c2.3,0.1,4.6,0,6.9,0.1
				c-0.6-0.6-1.2-1.2-1.9-1.9c-0.1,3.4,7.1,4.6,9.2,5c19.9,4.4,41.1,4.3,61.3,4.9c26.9,0.7,53.9,0.5,80.9,0.1
				c-0.6-0.5-1.2-0.9-1.8-1.4c1,2.5,3,4.9,5.9,5.5c1.8,0.4,4.3-0.3,5.6-1.7c1.4-1.5,0.2-1.5,1.6-1.8c2-0.5,5.7,0.7,7.8,1
				c4.9,0.5,9.7,1,14.6,1.3c30.5,2.3,62,2.4,92-4.4c-0.7-0.3-1.4-0.6-2.1-0.9c1.4,2.6,4.2,5.3,7.4,5c2.3-0.2,4-2.1,5-3.9
				c0.9-1.4,1.1-4.5,2-5.6c0.6-0.8,2.6-1.2,3.6-1.8c2.2-1,0.2-4.2-2-3.2c-1.1,0.5-2.9,1.1-3.8,1.9c-2.1,1.9-1.4,5.5-3.5,7.5
				c-2.4,2.2-4.1,0.6-5.5-1.8c-0.4-0.8-1.3-1-2.1-0.9c-27.3,6.2-55.9,6.4-83.7,4.8c-8.6-0.5-17.1-1.3-25.6-2.3
				c-1.2-0.2-2.7-0.6-3.9-0.5c-1.7,0.2-1.7,0.8-3.1,2c-2.9,2.4-5.2,1.5-6.3-1.3c-0.3-0.8-0.9-1.4-1.8-1.4
				c-37.9,0.6-76.1,1.1-113.9-1.6c-10.3-0.7-23.6-1-32.8-4.9c-1.7-0.8-0.8-1-0.8,0.2c0.1-1-0.9-1.8-1.9-1.9c-8.5,0-17-0.1-25.4-0.2
				c-22.8-0.2-45.6-0.4-68.4-0.5c-33-0.3-66.1-0.5-99.1-0.8c-39.6-0.3-79.3-0.6-118.9-0.9c-42.2-0.3-84.3-0.6-126.5-0.9
				c-40.8-0.3-81.5-0.6-122.3-0.9c-35.4-0.2-70.8-0.6-106.3-0.8c-26.1-0.2-52.1-0.4-78.2-0.5c-13-0.1-26-0.2-39-0.3
				c-0.7,0-1.5,0-2.2-0.1c0.8,0.1-0.2-0.1-0.6-0.2c-1.9-0.5-3.7-1.3-5.3-2.3C6,59.4,6,49.4,13,45.3c2.3-1.3,4.1-1.1,7.6-1
				c15.3,0,30.6,0,45.9,0c27.8,0,55.6,0,83.5,0c36.3,0,72.6,0,108.8,0c41.2,0,82.4,0,123.6,0c42.1,0,84.2,0,126.3,0
				c39.1,0,78.2,0,117.3,0c32.2,0,64.4,0,96.7,0c21.4,0,42.8,0,64.2,0c5.5,0,11.1,0,16.6,0c3.7,0,6.1-0.6,9.8-1.4
				c18.6-3.9,38.5-3.7,57.5-4.2c21.5-0.5,42.9-0.4,64.4-0.1c6.2,0.1,12.4,0.2,18.7,0.4c1.1,0,2.5,0.3,3.6,0.1
				c0.5-0.1,0.9-0.2,1.3-0.4c2.4-0.8,3.4-3.6,6-2.2c0.6,0.3,1.1,1.1,1.5,1.7c0.3,0.5,1,1,1.6,0.9c29.2-3.7,58.9-4,88.4-2.3
				c7.5,0.4,15,1.4,22.5,1.7c2.3,0.1,3-1,5.5-1.3c3.8-0.5,5.4,3.6,5.7,5.9c0.1,0.8,0.5,1.6,1.4,1.8c11.7,2.8,23.4,5,35,7.4
				c-0.5-0.6-0.9-1.2-1.4-1.8c0,6.3,0.1,12.6,0.2,18.9c0.5-0.6,0.9-1.2,1.4-1.8c-10.8,1.7-21.4,3.3-32.2,5
				C1091.8,72.7,1092.8,76.3,1095.2,76z"/>
		</g>
	</g>
</g>
</svg>
