<?xml version="1.0" encoding="utf-8"?>
<!-- Generator: Adobe Illustrator 21.0.2, SVG Export Plug-In . SVG Version: 6.00 Build 0)  -->
<svg version="1.1" id="Layer_1" xmlns="http://www.w3.org/2000/svg" xmlns:xlink="http://www.w3.org/1999/xlink" x="0px" y="0px"
	 viewBox="0 0 1133.9 137.4" style="enable-background:new 0 0 1133.9 137.4;" xml:space="preserve">
<style type="text/css">
	.st0{fill:#D17628;}
	.st1{fill:#AC5A30;}
	.st2{fill:#89361D;}
	.st3{fill:#994722;}
	.st4{fill:#85321B;}
	.st5{fill:#87291B;}
	.st6{fill:#B16031;}
	.st7{fill:#9B3320;}
	.st8{fill:#B25C2D;}
	.st9{fill:#9A3920;}
	.st10{fill:#B96C30;}
	.st11{fill:#B04725;}
	.st12{fill:#B26A3B;}
	.st13{fill:#B84B26;}
	.st14{fill:#B5713F;}
	.st15{fill:#AB4525;}
	.st16{fill:#A64724;}
	.st17{fill:#B86F3D;}
	.st18{fill:#B45527;}
	.st19{fill:#CD5E27;}
	.st20{fill:#D76927;}
	.st21{fill:#C86028;}
	.st22{fill:#CA6828;}
	.st23{fill:#D86D27;}
	.st24{fill:#D16B28;}
	.st25{fill:#BD5C27;}
	.st26{fill:#C75F28;}
	.st27{fill:#BC5B27;}
	.st28{fill:#B05F2E;}
	.st29{fill:#BB5727;}
	.st30{fill:#C7732C;}
	.st31{fill:#BC5827;}
	.st32{fill:#B67147;}
	.st33{fill:#F4AF72;}
	.st34{fill:#B85F28;}
	.st35{fill:#8F3B1E;}
	.st36{fill:#934F2C;}
	.st37{fill:#AD5E32;}
	.st38{fill:#B2693F;}
	.st39{fill:#853D1D;}
	.st40{fill:#7D3119;}
	.st41{fill:#5E200B;}
	.st42{fill:#501B0A;}
	.st43{fill:#3E160B;}
	.st44{fill:#43190D;}
	.st45{fill:#772D16;}
	.st46{fill:#9C4B23;}
	.st47{fill:#6C2411;}
	.st48{fill:#87321B;}
	.st49{fill:#DBA384;}
	.st50{fill:#FAB684;}
	.st51{fill:#1D191B;}
</style>
<g>
	<g>
		<path class="st0" d="M1122.8,64v6.1c0,0,0.6,3.1-6.7,3.3c-7.3,0.3-367.4-4.7-367.4-4.7c-60.2-0.9-121.5-1.1-184-0.6
			c-66.3,0.5-131.4,1.9-195,3.9c-2.3,0.1-34.3,2.5-98.2,7.2c0,0-9,0.7-32.6,2.8c-21.5,1.9-30,2.9-40.4,4.6
			c-13.5,2.2-21.9,4.4-30.4,7.6c-5.7,2.1-10.3,4.2-13.5,5.8c-1.7,0.3-4.3,0.5-7.2-0.4c-2.6-0.8-4.4-2.1-5.6-3.1
			c-1.7-1.3-3.3-2.9-4.7-5c-4-2.2-10.3-5.1-18.5-6.5c-6.6-1.1-15.1-2.6-23.6,1.2c-13.5,6-17.6,21.4-18.3,24.1c0,0-0.9,19.9-36,13.4
			c0,0-42.5-45.2-33.9-64.8c0,0-3-13.4,37.5-36.9c1.2-0.8,2.7-1.7,4.4-2.4c6.6-2.5,12.8-0.6,15.2,0.3c0,0,7.6,5.6,13.6,15.1
			c0,0,10.9,15.4,34,11.1l16.9-4.4c0,0,0.2-14.9,16.5-20.7c0,0,5.8-2,21.1,8c0,0,140.5,9.6,194.6,12.9l390.9,5.6L913.9,51l158,6.9
			l47.2,3.1C1119,61.1,1122.8,61.1,1122.8,64z"/>
	</g>
	<g>
		<path class="st1" d="M137,92.2c1.4,2.1,3.1,3.8,4.7,5c1.2,1,3,2.3,5.6,3.1c3,0.9,5.6,0.7,7.2,0.4c3.2-1.6,7.8-3.7,13.5-5.8
			c8.5-3.2,17-5.3,30.4-7.6c5-0.8,9.5-1.5,15.2-2.1l3.7-28.8L136.8,54C137,54,122.3,67.7,137,92.2z"/>
	</g>
	<g>
		<path class="st2" d="M129.8,41.8c0,0-1.2-14.9,15-20.7c0,0,5.8-2,21.1,8c0,0,18.5,1.3,44.7,3c2.2,8.1,4.5,16.2,6.7,24.3
			c-26.8-0.8-53.6-1.6-80.5-2.4C134.6,50,132.2,45.9,129.8,41.8z"/>
	</g>
	<g>
		<path class="st3" d="M40.7,123.7c0,0-42.5-45.2-33.9-64.8c0,0-3-13.4,37.5-36.9c1.2-0.8,2.7-1.7,4.4-2.4
			c6.6-2.5,12.8-0.6,15.2,0.3c0,0,7.6,5.6,13.6,15.1c0,0,10.9,15.4,34,11.1c6.1-1.5,12.2-3,18.4-4.4c2.4,4.1,4.8,8.2,7.2,12.2
			c-5.3,2-12.3,4.2-20.6,5.8c-16.2,3.2-21.7,1.1-37.1,5.1c-10.6,2.7-17.3,6.2-20,7.6c-4.4,2.2-9.2,5.7-17.7,13.1
			c-3.8,3.3-6.2,6.8-7.6,11.3C30,109.1,38.8,121.2,40.7,123.7z"/>
	</g>
	<g>
		<path class="st4" d="M17.4,41.2c5.6-5.3,14-11.7,26.8-19.2c1.2-0.8,2.7-1.7,4.4-2.4c6.6-2.5,12.8-0.6,15.2,0.3
			c0,0,7.6,5.6,13.6,15.1c0,0,10.9,15.4,34,11.1C111.5,46.2,55.8,67.6,17.4,41.2z"/>
	</g>
	<polygon class="st5" points="209.8,32.4 216.5,53.9 235.5,53.9 230.8,33.8 	"/>
	<polygon class="st6" points="212.8,84.8 216.5,53.9 235.5,53.9 229.8,83.1 	"/>
	<polygon class="st7" points="253.1,35.3 251.6,52.3 270.6,53.9 272.5,36.6 	"/>
	<polygon class="st8" points="270.5,79.6 265.6,53.5 251.6,52.3 254.1,80.9 	"/>
	<polygon class="st9" points="292.7,37.9 292.7,50.8 305.4,50.8 305.4,38.7 	"/>
	<polygon class="st10" points="308.6,76.8 303.3,55.8 287.1,53.9 291.4,78 	"/>
	<polygon class="st11" points="323.4,39.9 323.4,50.8 335.6,52.3 339.6,40.9 	"/>
	<polygon class="st6" points="336.9,74.7 331.5,56.4 317.6,56.4 321.9,75.8 	"/>
	<polygon class="st12" points="352.4,73.5 354.9,56.4 374.5,56.4 373.3,72.2 	"/>
	<path class="st13" d="M356.7,42l-1.5,10.3h19.3c0.6-3.3,1.3-6.6,1.9-9.9c-5.6-0.1-11.2-0.2-16.8-0.2L356.7,42z"/>
	<polygon class="st14" points="409.3,71.2 406.2,57.7 390.3,57.7 388.1,71.8 	"/>
	<polygon class="st15" points="406.2,42.8 405.4,52.3 392.6,52.3 388.1,42.6 	"/>
	<path class="st16" d="M420.9,43.1c-0.4,2.7-0.8,5.3-1.3,8h17.7l0.8-7.8C432.4,43.2,426.7,43.1,420.9,43.1z"/>
	<polygon class="st17" points="422.3,70.7 419,56.4 433.4,56.4 436.7,70.3 	"/>
	<g>
		<g>
			<path class="st18" d="M1096.5,66c-41.1-1-82.1-2-123.2-3c-5.9-0.1-11.8-0.3-17.7-0.4c-1.6,0-1.6,2.5,0,2.5c41.1,1,82.1,2,123.2,3
				c5.9,0.1,11.8,0.3,17.7,0.4C1098.1,68.5,1098.1,66,1096.5,66L1096.5,66z"/>
		</g>
	</g>
	<polygon class="st19" points="919.9,71.4 927.5,51.9 905.5,51.1 903.4,71.1 	"/>
	<path class="st20" d="M876.3,70.8c3.1-4.1,6.2-8.1,9.2-12.2v-7.9l-21.3-0.5l3.7,5.9L859,70.4C864.8,70.6,870.5,70.7,876.3,70.8z"/>
	<polygon class="st21" points="816.3,69.9 820.5,60.5 832,55.9 830.1,49.5 811.2,49.1 812.7,57 798.8,69.7 	"/>
	<path class="st22" d="M693.6,68.8c0,0,5.5-13.5-0.8-21.8l-20-0.3c0,0,5.2,15.7,0,21.6L693.6,68.8z"/>
	<path class="st23" d="M776.7,69.3c0,0,5.5-12.9-0.8-20.8l-20-0.3c0,0,5.2,15,0,20.6L776.7,69.3z"/>
	<path class="st24" d="M732.3,68.9c0,0,5.5-13.3-0.8-21.4l-20-0.3c0,0,5.2,15.5,0,21.2L732.3,68.9z"/>
	<path class="st25" d="M634.1,46.1h15.5c0,0,4.8,14.3,1.6,22.1h-19.1C632,68.2,638.5,52.5,634.1,46.1z"/>
	<path class="st26" d="M617.4,68.2c0,0,3.1-20.7,0-22.3l-16-0.2c0,0-2.5,17.3-1.1,22.5H617.4z"/>
	<path class="st27" d="M578.7,68.3c0,0,5.2-17.6,0-23l-16.8-0.2c0,0-2.7,18.6,0,23.4L578.7,68.3z"/>
	<path class="st28" d="M537.8,68.5c0,0,6-17.7-1.5-23.7l-17.4-0.2c0,0-2.9,20.1,0,24.5L537.8,68.5z"/>
	<polygon class="st29" points="505.3,44.5 506.2,52.1 489,52.1 488.2,44 	"/>
	<polygon class="st30" points="502.6,68.9 503.9,60.3 488.2,60.3 488.7,68.9 	"/>
	<polygon class="st31" points="477,43.9 477.9,52.1 460.4,52.3 457.6,43.6 	"/>
	<polygon class="st32" points="473,69.7 475.2,60.3 456.9,58.6 457.6,69.7 	"/>
	<g>
		<g>
			<path class="st33" d="M548.4,54.7c17.5-0.1,35-0.1,52.5-0.1c42.3-0.1,84.5,0,126.8,0.1c51.6,0.2,103.2,0.4,154.7,1
				c45.5,0.5,91,1.1,136.5,2.6c15.6,0.5,31.3,1.1,46.9,2.1c8,0.5,17,0.5,24.8,2.8c0.7,0.2,1.6,0.5,1.6,0.6c1.2,1,3-0.8,1.8-1.8
				c-4.1-3.3-12.8-2.9-17.6-3.3c-13.6-1.2-27.3-1.8-40.9-2.4c-43.6-1.7-87.3-2.4-130.9-3c-52-0.7-104-1-155.9-1.2
				c-44.8-0.2-89.6-0.2-134.4-0.2c-14.7,0-29.3,0-44,0.1c-6.7,0-14.2-0.9-20.8,0.1c-0.3,0-0.6,0-0.9,0
				C546.8,52.2,546.8,54.7,548.4,54.7L548.4,54.7z"/>
		</g>
	</g>
	<g>
		<g>
			<path class="st34" d="M518.1,52.2c-40.2,0.3-80.3,0.6-120.5,0.9c-6,0-11.9,0.1-17.9,0.1c-1.6,0-1.6,2.5,0,2.5
				c40.3-0.1,80.7-0.6,121-0.9c5.8,0,11.6-0.1,17.3-0.1C519.7,54.7,519.7,52.2,518.1,52.2L518.1,52.2z"/>
		</g>
	</g>
	<g>
		<g>
			<path class="st35" d="M196.9,46.5c6.6,0.9,13.1,1.8,19.7,2.7c1.6,0.2,2.3-2.2,0.7-2.4c-6.6-0.9-13.1-1.8-19.7-2.7
				C195.9,43.9,195.3,46.3,196.9,46.5L196.9,46.5z"/>
		</g>
	</g>
	<g>
		<g>
			<path class="st36" d="M174.2,86.5c12.4-9.1,24.9-18.2,37.3-27.3c1.3-0.9,0-3.1-1.3-2.2c-12.4,9.1-24.9,18.2-37.3,27.3
				C171.7,85.2,172.9,87.4,174.2,86.5L174.2,86.5z"/>
		</g>
	</g>
	<g>
		<g>
			<path class="st37" d="M163.5,85.5c12.2-9.1,24.4-18.2,36.7-27.3c1.3-0.9,0-3.1-1.3-2.2c-12.2,9.1-24.4,18.2-36.7,27.3
				C160.9,84.3,162.2,86.5,163.5,85.5L163.5,85.5z"/>
		</g>
	</g>
	<g>
		<g>
			<path class="st38" d="M195.5,82.6c2.4-3.4,4.9-6.8,7.3-10.2c0.9-1.3-1.2-2.6-2.2-1.3c-2.4,3.4-4.9,6.8-7.3,10.2
				C192.4,82.6,194.6,83.9,195.5,82.6L195.5,82.6z"/>
		</g>
	</g>
	<g>
		<g>
			<path class="st39" d="M149,82.8c7.5-6.7,15-13.4,22.4-20.2c1.2-1.1-0.6-2.8-1.8-1.8c-7.5,6.7-15,13.4-22.4,20.2
				C146.1,82.1,147.9,83.9,149,82.8L149,82.8z"/>
		</g>
	</g>
	<g>
		<g>
			<path class="st40" d="M140.9,74.7c1-2.6,1.9-5.1,2.9-7.7c1.1-2.8,3.1-6.2,3.5-9.1c0.2-1.7-0.8-3.1-1.6-4.7
				c-1.4-2.9-2.8-5.7-4.2-8.6c-0.7-1.4-2.9-0.2-2.2,1.3c1.3,2.6,2.5,5.1,3.8,7.7c0.6,1.2,1.4,2.4,1.8,3.7c0.3,1.1,0.1-0.5,0.1-0.3
				c-0.1,0.3-0.2,0.8-0.4,1c-2.8,4.6-4.2,10.9-6.1,16C137.9,75.6,140.3,76.2,140.9,74.7L140.9,74.7z"/>
		</g>
	</g>
	<g>
		<g>
			<path class="st41" d="M133.2,49.3c-34,1.8-68.2,3.6-102.3,3.2c-6-0.1-13.9,0.7-19.6-1.5c-1.5-0.6-2.1,1.8-0.7,2.4
				c4.7,1.8,10.8,1.4,15.7,1.5c9.8,0.2,19.7,0.1,29.5-0.1c21.1-0.4,42.2-1.3,63.2-2.3c4.7-0.2,9.5-0.5,14.2-0.7
				C134.8,51.7,134.8,49.2,133.2,49.3L133.2,49.3z"/>
		</g>
	</g>
	<g>
		<g>
			<path class="st42" d="M85.4,39.1c-7.9,0.2-15.8,0.2-23.7,0.1c-11.8-0.2-24.5-0.1-36-3.4c-1.5-0.4-2.2,2-0.7,2.4
				c11.3,3.2,23.8,3.2,35.5,3.4c8.3,0.2,16.6,0.2,24.8,0C87,41.6,87,39.1,85.4,39.1L85.4,39.1z"/>
		</g>
	</g>
	<g>
		<g>
			<path class="st43" d="M77.6,30.8c-5.9,0.3-11.9,0.4-17.8,0.3c-4.5,0-9-0.2-13.5-0.6c-3.2-0.3-8.1-0.4-10.7-2.5
				c-1.2-1-3,0.8-1.8,1.8c5.5,4.5,16.2,3.7,22.8,3.8c7,0.2,14,0.1,20.9-0.3C79.2,33.2,79.2,30.7,77.6,30.8L77.6,30.8z"/>
		</g>
	</g>
	<g>
		<g>
			<path class="st44" d="M69.5,22.7c-4.7-0.6-10.9-1.4-14.7-4.4c-1.2-1-3,0.8-1.8,1.8c4.4,3.6,11,4.5,16.5,5.2
				C71.1,25.4,71.1,22.9,69.5,22.7L69.5,22.7z"/>
		</g>
	</g>
	<g>
		<g>
			<path class="st45" d="M7,63c19.2,3.8,39.7,5,59,2.4c6.9-0.9,13.4-2.5,20.3-3.2c8.8-0.9,17.5-1.7,26.3-2.2
				c4.7-0.3,9.5-0.6,14.2-0.6c1.5,0,6.4-0.6,7.5,0.8c1,1.3,2.7-0.5,1.8-1.8c-2.4-3.1-11.8-1.5-15-1.4c-9.3,0.3-18.5,1.1-27.7,2
				c-5.2,0.5-10.6,0.7-15.8,1.6c-7.1,1.2-14,2.8-21.2,3.3c-7,0.4-14,0.4-21,0c-9.3-0.5-18.7-1.4-27.8-3.2C6,60.3,5.4,62.7,7,63L7,63
				z"/>
		</g>
	</g>
	<g>
		<g>
			<path class="st46" d="M27.2,103.6c15.4-6.5,38.6-11.7,54.1-1.7c1.4,0.9,2.6-1.3,1.3-2.2c-16.3-10.5-39.9-5.4-56.7,1.7
				C24.5,102.1,25.7,104.3,27.2,103.6L27.2,103.6z"/>
		</g>
	</g>
	<g>
		<g>
			<path class="st47" d="M95,84.7c-4.8-7.1-9.5-14.3-14.1-21.5C75.3,54.4,68,45.1,64.4,35.3c-0.5-1.5-3-0.9-2.4,0.7
				c3.5,9.5,10.2,18.4,15.7,26.9c5,7.8,10,15.5,15.2,23.1C93.7,87.3,95.9,86.1,95,84.7L95,84.7z"/>
		</g>
	</g>
	<g>
		<g>
			<path class="st48" d="M94.1,45.5c-7,2.6-14.1,8-15.7,15.6c-0.3,1.6,2.1,2.2,2.4,0.7c1.3-6.7,7.7-11.6,13.9-13.9
				C96.2,47.3,95.6,44.9,94.1,45.5L94.1,45.5z"/>
		</g>
	</g>
	<g>
		<g>
			<path class="st49" d="M108.7,63c6.9-1.8,17.1-4.5,23.9-1.3c1.4,0.7,2.7-1.5,1.3-2.2c-7.5-3.6-18.1-1-25.8,1
				C106.5,61,107.2,63.4,108.7,63L108.7,63z"/>
		</g>
	</g>
	<g>
		<g>
			<path class="st50" d="M129.1,41c1,2.2,2.1,4.5,3.2,6.6c1.1,2.2,3.5,4.4,4.4,6.5c-0.6-1.5-0.5-0.7-1,0.7c-0.6,1.5-1.2,3-1.7,4.5
				c-1.1,3-2.4,6.1-2.6,9.3c-0.1,1.6,2.4,1.6,2.5,0c0.3-5.1,3.1-10.4,5-15.1c0.2-0.5-0.1-1.2-0.6-1.4c-3.4-2-5.5-9-7-12.5
				C130.6,38.3,128.4,39.5,129.1,41L129.1,41z"/>
		</g>
	</g>
	<g>
		<g>
			<path class="st51" d="M1120.9,64c0,5,1.3,7.3-4.9,7.6c-0.6,0-1.1,0-1.7,0c-2.9,0.1-5.7,0-8.6-0.1c-11.9-0.1-23.7-0.3-35.6-0.4
				c-38.6-0.5-77.2-1-115.8-1.5c-42.1-0.6-84.2-1.1-126.3-1.7c-25.1-0.3-50.3-0.7-75.4-1c-64.1-0.9-128.3-1.1-192.4-0.6
				c-42.9,0.4-85.8,1.1-128.6,2.1c-24.9,0.6-49.8,0.8-74.7,2.6c-28.5,2.1-57,4.2-85.5,6.3c-23.3,1.8-46.7,3.3-69.8,6.9
				c-15.3,2.4-30.2,5.9-44.3,12.4c-4.8,2.2-9,2.2-13.6-1c-3.3-2.3-4.9-5.5-8.6-7.3c-7.1-3.4-14.6-5.3-22.4-6.2
				c-14.8-1.7-27.5,4.5-34.3,17.8c-2.3,4.6-2.8,9.4-4.7,13.6c-4.1,9-15.9,9.9-24.4,9.3c-4.8-0.3-6.8,0.1-9.8-3.2
				c-2.5-2.8-5-5.8-7.4-8.7C25,102.2,18,92.8,12.8,82.5c-2.4-4.7-4.5-9.7-5.2-14.9c-0.3-2.1-0.2-4.2,0.3-6.3C8,60.8,8.7,58,8.6,58.8
				c0.8-4.4,2.5-7.8,5.5-11.4c3.9-4.7,8.7-8.7,13.6-12.4c3.3-2.5,6.8-4.8,10.3-7c5-3.2,10.3-7.3,16.4-7.7
				c12.1-0.7,16,10.1,23.2,17.8c7.1,7.5,17.7,11.1,27.8,10.6c8-0.3,15.8-3.2,23.5-5.2c0.8-0.2,1.4-1,1.4-1.8c0.2-8,7.7-18.5,16-19
				s13.9,7.7,21.6,8.3c16.4,1.2,32.8,2.2,49.2,3.3c27.2,1.8,54.4,3.7,81.6,5.4c20.7,1.4,41.4,3.2,62.2,4c20.1,0.7,40.3,0.6,60.4,0.9
				c41.8,0.6,83.5,1.2,125.3,1.8c43.2,0.6,86.3,1.2,129.5,1.9c24.3,0.3,48.6,0.7,73,1c24,0.3,48,1,72,1.5c31,0.7,62,1,92.9,2
				c33.6,1.1,67.3,3,100.9,4.4c28.7,1.3,57.4,2.5,86.1,4.4c4.6,0.3,9.2,0.6,13.7,0.9c1.6,0.1,5.9-0.3,6.3,1.9c0.5,2.4,4.1,1.4,3.6-1
				c-1.2-6-11.6-4.7-16.1-5c-10.5-0.7-21.1-1.4-31.6-2.1c-8.9-0.6-17.8-0.9-26.7-1.3c-41-1.8-82-3.6-123.1-5.4
				c-23.6-1-47.2-1.3-70.9-1.8c-34.8-0.7-69.6-1.6-104.4-2.2c-17.4-0.3-34.7-0.5-52.1-0.8c-41.2-0.6-82.4-1.2-123.7-1.8
				c-44.6-0.6-89.1-1.3-133.7-1.9c-26.1-0.4-52.2-0.8-78.3-1.1c-12.8-0.2-25.6-1.4-38.4-2.2c-28-1.8-56.1-3.7-84.1-5.6
				c-21.7-1.5-43.4-2.9-65.1-4.4c-3.9-0.3-8.1,0-11.4-1.6c-9.2-4.4-16.6-10.3-26.3-4.5c-6.9,4.1-12.1,11.8-12.3,19.9
				c0.5-0.6,0.9-1.2,1.4-1.8c-9.1,2.4-18.4,5.9-28,4.9c-11.5-1.1-17.9-7.3-24.3-15.6c-2.9-3.7-6.6-8.5-10.8-10.9
				c-5.1-2.9-12.9-2.2-18,0c-7.9,3.5-15.6,9.2-22.5,14.4c-4.8,3.6-9.4,7.6-13.2,12.2c-7.4,9-9.1,20-5.3,30.8
				c3.8,10.7,10.4,20.5,17.1,29.5c4.7,6.3,9.6,13.8,15.6,18.9c2.9,2.5,7.8,2.3,11.6,2.5c5.6,0.3,11.5,0,16.7-2.2
				c5.5-2.3,9.9-6.6,11.4-12.4c1.9-7.4,5.1-15.3,11.6-20.7c8.6-7.1,19.8-6.5,30.1-4.3c4.3,0.9,8.6,2.3,12.6,4.2
				c3.4,1.6,5.2,4.5,8.2,6.8c5.1,4,11.3,5.1,17.1,2.3c7.5-3.5,15.3-6.4,23.3-8.4c13.8-3.5,28.1-5.3,42.2-6.7
				c28.7-2.8,57.5-4.9,86.2-7.1c19.6-1.5,39.3-3.2,58.9-4.3c38.6-2.2,77.5-2.2,116.1-2.9c87.3-1.6,174.6-1.7,262-0.5
				c19,0.3,38,0.5,57,0.8c41.1,0.6,82.2,1.1,123.2,1.7c42.1,0.6,84.3,1.1,126.4,1.7c20.8,0.3,41.9,1.5,62.6,0.7
				c2.8-0.1,6.9-0.5,8.3-3.3c1.1-2.2,0.4-5.6,0.4-8C1124.7,61.6,1120.9,61.6,1120.9,64z"/>
		</g>
	</g>
</g>
</svg>
