<?xml version="1.0" encoding="utf-8"?>
<!-- Generator: Adobe Illustrator 21.0.2, SVG Export Plug-In . SVG Version: 6.00 Build 0)  -->
<svg version="1.1" id="Layer_1" xmlns="http://www.w3.org/2000/svg" xmlns:xlink="http://www.w3.org/1999/xlink" x="0px" y="0px"
	 viewBox="0 0 1133.9 116.9" style="enable-background:new 0 0 1133.9 116.9;" xml:space="preserve">
<style type="text/css">
	.st0{fill:#35140E;}
	.st1{fill:#1B110A;}
	.st2{fill:#AD314C;}
	.st3{fill:#855C4C;}
	.st4{fill:#85655D;}
	.st5{fill:#865E61;}
	.st6{fill:#6D5657;}
	.st7{fill:#A27B7E;}
	.st8{fill:#B59894;}
	.st9{fill:#8C6A65;}
	.st10{fill:#8F675D;}
	.st11{fill:#9E7975;}
	.st12{fill:#725857;}
	.st13{fill:#928885;}
	.st14{fill:#96786B;}
	.st15{fill:#7A797D;}
	.st16{fill:#C2BCBC;}
	.st17{fill:#9E8E8B;}
	.st18{fill:#A69191;}
	.st19{fill:#96858B;}
	.st20{fill:#989591;}
	.st21{fill:#655349;}
	.st22{fill:#786C6E;}
	.st23{fill:#6A5F60;}
	.st24{fill:#7F5E55;}
	.st25{fill:#806656;}
	.st26{fill:#7C5147;}
	.st27{fill:#6D5848;}
	.st28{fill:#756663;}
	.st29{fill:#C2A19D;}
	.st30{fill:#C09FAF;}
	.st31{fill:#D2D2D2;}
	.st32{fill:#1D191B;}
	.st33{fill:#C2A8B2;}
</style>
<g>
	<path class="st0" d="M987.1,86.7c11.2,0,20.8-6.6,25.2-16h28.2c4.6,12,15.2,20.4,27.6,20.4c9.3,0,17.6-4.7,23.1-12.1
		c0.4,0,0.8,0.1,1.3,0.1c14.3,0,25.9-9.8,25.9-21.9s-11.6-21.9-25.9-21.9c-0.6,0-1.2,0-1.7,0.1c-5.5-7-13.6-11.4-22.6-11.4
		c-12.5,0-23.2,8.5-27.7,20.6H1011c-4.9-8.1-13.7-13.5-23.9-13.5c-10.7,0-19.9,6-24.6,14.8H936c-1.6-7.4-4.6-12.4-8.1-12.4
		c-2.3,0-4.4,2.1-6,5.6c-1.6-3.5-3.7-5.6-6-5.6c-2.7,0-5.1,3-6.8,7.7c-1.7-4.6-4.1-7.5-6.8-7.5c-2.3,0-4.4,2.1-6,5.6
		c-1.6-3.5-3.7-5.6-6-5.6c-2.8,0-5.2,3.1-7,8.1c-1.7-4.4-4-7.1-6.6-7.1c-2.3,0-4.4,2.1-6,5.6c-1.6-3.5-3.7-5.6-6-5.6
		c-2.7,0-5.1,3-6.8,7.7c-1.7-4.6-4.1-7.5-6.8-7.5c-2.3,0-4.4,2.1-6,5.6c-1.6-3.5-3.7-5.6-6-5.6c-2.6,0-5,2.8-6.7,7.3
		c-1.7-4.9-4.2-7.9-6.9-7.9c-2.3,0-4.4,2.1-6,5.6c-1.6-3.5-3.7-5.6-6-5.6c-2.7,0-5.1,3-6.8,7.7c-1.7-4.6-4.1-7.5-6.8-7.5
		c-2.3,0-4.4,2.1-6,5.6c-1.6-3.5-3.7-5.6-6-5.6c-2.8,0-5.2,3.1-7,8.1c-1.7-4.4-4-7.1-6.6-7.1c-3.1,0-5.8,3.9-7.5,10h-26.9
		c-4.1-6.1-11-10.1-18.8-10.1c-9.9,0-18.3,6.4-21.4,15.2h-15.8l-19.1-15.1c-0.1,2.1-0.2,6.2-0.2,11.1c-6.8-8-20.2-13.5-35.8-13.5
		c-14.8,0-27.7,5-34.7,12.4c0-5.8-0.1-10-0.1-10l-18.5,14.1v0.7h-18c-1.6-6.3-5.1-10.7-9.2-10.7c-4,0-7.4,4.2-9.1,10.3
		c-1.7-6.1-5.1-10.3-9.1-10.3c-4.1,0-7.5,4.4-9.2,10.7H492c-1.7-12.1-7.8-21.1-15.1-21.1c-6.2,0-11.6,6.6-14.1,16.1H445
		c-2.5-4.7-6.3-7.7-10.6-7.7c-5.7,0-10.6,5.4-12.5,12.9c-2-7.4-6.8-12.6-12.5-12.6c-5.1,0-9.6,4.3-11.9,10.6
		c-2.3-6.3-6.7-10.6-11.9-10.6c-4.3,0-8.2,3.1-10.7,7.9c-2.5-4.9-6.4-8.1-10.7-8.1c-5.7,0-10.6,5.4-12.5,12.9
		c-2-7.4-6.8-12.6-12.5-12.6c-5.1,0-9.6,4.3-11.9,10.6C325,42.3,320.6,38,315.4,38c-4.8,0-9,3.8-11.4,9.6c-2.3-5.5-6.3-9.1-11-9.1
		c-5.5,0-10.2,5.1-12.1,12.4c-2-7.1-6.6-12.1-12-12.1c-4.9,0-9.2,4.1-11.4,10.2c-2.2-6.1-6.5-10.2-11.4-10.2s-9.2,4.1-11.4,10.2
		c-2.1-5-5.7-8.4-9.9-8.4c-4.9,0-9.2,4.6-10.9,11.2c-1.8-6.4-5.9-10.9-10.8-10.9c-4.4,0-8.3,3.7-10.3,9.2c-2-5.5-5.8-9.2-10.3-9.2
		c-4.3,0-8.1,3.6-10.2,8.9c-1.8-4.3-4.9-7.2-8.5-7.2c-3.8,0-7.1,3.2-8.8,7.9c-1.7-4.7-5-7.9-8.8-7.9c-4.2,0-7.8,3.9-9.3,9.5h-24.8
		c-1.7-8-6.8-13.8-12.7-13.8c-5.8,0-10.7,5.5-12.6,13.3H53c-1.8-7.7-6.8-13.3-12.6-13.3c-3.9,0-7.4,2.5-9.9,6.5
		c-1.1-0.3-2.3-0.5-3.5-0.5c-7.4,0-13.4,6-13.4,13.4s6,13.4,13.4,13.4c1,0,2-0.1,3-0.3c2.4,4.5,6.2,7.5,10.4,7.5
		c6.1,0,11.2-6.1,12.8-14.4h33.9c1.6,8.3,6.7,14.4,12.8,14.4c5.9,0,11-5.8,12.7-13.8h25.1c1.6,5,5,8.4,8.9,8.4
		c3.8,0,7.1-3.2,8.8-7.9c1.7,4.7,5,7.9,8.8,7.9c3.4,0,6.4-2.5,8.2-6.4c1.9,5.8,5.9,9.8,10.5,9.8c4.4,0,8.3-3.7,10.3-9.2
		c2,5.5,5.8,9.2,10.3,9.2c4.9,0,9.2-4.6,10.9-11.2c1.8,6.4,5.9,10.9,10.8,10.9c4.2,0,7.8-3.3,9.9-8.3c2.2,6.2,6.5,10.3,11.4,10.3
		s9.2-4.1,11.4-10.2c2.2,6.1,6.5,10.2,11.4,10.2c5.5,0,10.2-5.1,12.1-12.4c2,7.1,6.6,12.1,12,12.1c4.5,0,8.5-3.5,10.8-8.8
		c2.4,5.9,6.6,9.9,11.6,9.9c5.1,0,9.6-4.3,11.9-10.6c2.3,6.3,6.7,10.6,11.9,10.6c5.7,0,10.6-5.4,12.5-12.9c2,7.4,6.8,12.6,12.5,12.6
		c4.3,0,8.2-3.1,10.7-7.9c2.5,4.9,6.4,8.1,10.7,8.1c5.1,0,9.6-4.3,11.9-10.6c2.3,6.3,6.7,10.6,11.9,10.6c5.7,0,10.6-5.4,12.5-12.9
		c2,7.4,6.8,12.6,12.5,12.6c4.1,0,7.7-2.8,10.2-7.1h18.6c2.7,8.5,7.7,14.2,13.6,14.2c7,0,12.9-8.2,14.9-19.6h29.4
		c1.6,6.3,5.1,10.7,9.2,10.7c4,0,7.4-4.2,9.1-10.3c1.7,6.1,5.1,10.3,9.1,10.3c4.1,0,7.5-4.4,9.2-10.7h18v-0.7l19.1,15.1
		c0.1-1.8,0.2-5.3,0.2-9.5c7,7.3,19.9,12.3,34.7,12.3c15.6,0,29.1-5.5,35.8-13.6c0.1,6.3,0.1,10.8,0.1,10.8l19.1-14.5h16.1
		c3.3,8.5,11.5,14.5,21.1,14.5c7.9,0,14.8-4,18.8-10.1h26.1c1.5,7.9,4.7,13.4,8.3,13.4c2.8,0,5.2-3.1,7-8.1c1.7,4.4,4,7.1,6.6,7.1
		c2.3,0,4.4-2.1,6-5.6c1.6,3.5,3.7,5.6,6,5.6c2.7,0,5.1-3,6.8-7.7c1.7,4.6,4.1,7.5,6.8,7.5c2.3,0,4.4-2.1,6-5.6
		c1.6,3.5,3.7,5.6,6,5.6c2.6,0,5-2.8,6.7-7.3c1.7,4.9,4.2,7.9,6.9,7.9c2.3,0,4.4-2.1,6-5.6c1.6,3.5,3.7,5.6,6,5.6
		c2.7,0,5.1-3,6.8-7.7c1.7,4.6,4.1,7.5,6.8,7.5c2.3,0,4.4-2.1,6-5.6c1.6,3.5,3.7,5.6,6,5.6c2.8,0,5.2-3.1,7-8.1
		c1.7,4.4,4,7.1,6.6,7.1c2.3,0,4.4-2.1,6-5.6c1.6,3.5,3.7,5.6,6,5.6c2.7,0,5.1-3,6.8-7.7c1.7,4.6,4.1,7.5,6.8,7.5
		c2.3,0,4.4-2.1,6-5.6c1.6,3.5,3.7,5.6,6,5.6c3.1,0,5.8-3.9,7.5-9.8h27.1C967.1,80.7,976.4,86.7,987.1,86.7z"/>
	<g>
		<g>
			<path class="st1" d="M1039.8,44.4c0,7.9,0,15.8,0,23.7c0,1.6,2.5,1.6,2.5,0c0-7.9,0-15.8,0-23.7
				C1042.3,42.8,1039.8,42.8,1039.8,44.4L1039.8,44.4z"/>
		</g>
	</g>
	<ellipse class="st2" cx="629.3" cy="57.4" rx="35.2" ry="25.2"/>
	<g>
		<g>
			<path class="st1" d="M1090.7,35.2c0,9.7,0,19.4,0,29.1c0,1.6,2.5,1.6,2.5,0c0-9.7,0-19.4,0-29.1
				C1093.2,33.6,1090.7,33.6,1090.7,35.2L1090.7,35.2z"/>
		</g>
	</g>
	<g>
		<g>
			<path class="st1" d="M1011.5,44.4c0,7.9,0,15.8,0,23.7c0,1.6,2.5,1.6,2.5,0c0-7.9,0-15.8,0-23.7
				C1014,42.8,1011.5,42.8,1011.5,44.4L1011.5,44.4z"/>
		</g>
	</g>
	<g>
		<g>
			<path class="st1" d="M961.3,46.5c0.5,8.3,0.3,16.6,0,24.8c-0.1,1.6,2.4,1.6,2.5,0c0.3-8.3,0.5-16.6,0-24.8
				C963.7,44.9,961.2,44.9,961.3,46.5L961.3,46.5z"/>
		</g>
	</g>
	<g>
		<g>
			<path class="st1" d="M934.8,45.6c0,8.8,0,17.5,0,26.3c0,1.6,2.5,1.6,2.5,0c0-8.8,0-17.5,0-26.3C937.3,44,934.8,44,934.8,45.6
				L934.8,45.6z"/>
		</g>
	</g>
	<g>
		<g>
			<path class="st1" d="M923.1,75.8c-4.3-11.4-8.5-22.9-12.8-34.3c-0.6-1.5-3-0.8-2.4,0.7c4.3,11.4,8.5,22.9,12.8,34.3
				C921.2,78,923.6,77.3,923.1,75.8L923.1,75.8z"/>
		</g>
	</g>
	<g>
		<g>
			<path class="st1" d="M897.6,76c-4.2-11.5-8.4-23-12.7-34.5c-0.5-1.5-3-0.9-2.4,0.7c4.2,11.5,8.4,23,12.7,34.5
				C895.7,78.1,898.1,77.5,897.6,76L897.6,76z"/>
		</g>
	</g>
	<g>
		<g>
			<path class="st1" d="M872.1,77c-4.4-11.8-8.8-23.7-13.2-35.5c-0.6-1.5-3-0.8-2.4,0.7c4.4,11.8,8.8,23.7,13.2,35.5
				C870.2,79.2,872.6,78.5,872.1,77L872.1,77z"/>
		</g>
	</g>
	<g>
		<g>
			<path class="st1" d="M846.6,77.2c-4.3-12.1-8.6-24.2-13-36.2c-0.5-1.5-3-0.9-2.4,0.7c4.3,12.1,8.6,24.2,13,36.2
				C844.7,79.3,847.1,78.7,846.6,77.2L846.6,77.2z"/>
		</g>
	</g>
	<g>
		<g>
			<path class="st1" d="M820.4,76.7c-4.3-11.4-8.5-22.8-12.8-34.2c-0.6-1.5-3-0.8-2.4,0.7c4.3,11.4,8.5,22.8,12.8,34.2
				C818.5,78.9,820.9,78.2,820.4,76.7L820.4,76.7z"/>
		</g>
	</g>
	<g>
		<g>
			<path class="st1" d="M795.6,76.6c-4.6-11.4-9.2-22.7-13.8-34.1c-0.6-1.5-3-0.8-2.4,0.7c4.6,11.4,9.2,22.7,13.8,34.1
				C793.7,78.8,796.2,78.1,795.6,76.6L795.6,76.6z"/>
		</g>
	</g>
	<g>
		<g>
			<path class="st1" d="M783.4,75.8c-5-10.4-10-20.9-15.1-31.3c-0.7-1.4-2.9-0.2-2.2,1.3c5,10.4,10,20.9,15.1,31.3
				C782,78.5,784.1,77.2,783.4,75.8L783.4,75.8z"/>
		</g>
	</g>
	<g>
		<g>
			<path class="st1" d="M740.2,45.1c0,7.7,0,15.3,0,23c0,1.6,2.5,1.6,2.5,0c0-7.7,0-15.3,0-23C742.7,43.5,740.2,43.5,740.2,45.1
				L740.2,45.1z"/>
		</g>
	</g>
	<g>
		<g>
			<path class="st1" d="M702,47.8c0,6.8,0,13.6,0,20.4c0,1.6,2.5,1.6,2.5,0c0-6.8,0-13.6,0-20.4C704.5,46.2,702,46.2,702,47.8
				L702,47.8z"/>
		</g>
	</g>
	<g>
		<g>
			<path class="st1" d="M684.3,50.2c0,5.2,0,10.4,0,15.6c0,1.6,2.5,1.6,2.5,0c0-5.2,0-10.4,0-15.6C686.8,48.6,684.3,48.6,684.3,50.2
				L684.3,50.2z"/>
		</g>
	</g>
	<g>
		<g>
			<path class="st1" d="M574.1,50.7c0,4.5,0,8.9,0,13.4c0,1.6,2.5,1.6,2.5,0c0-4.5,0-8.9,0-13.4C576.6,49.1,574.1,49.1,574.1,50.7
				L574.1,50.7z"/>
		</g>
	</g>
	<g>
		<g>
			<path class="st1" d="M509.1,58.9c-5.7,0-11.5,0-17.2,0c-1.6,0-1.6,2.5,0,2.5c5.7,0,11.5,0,17.2,0
				C510.7,61.4,510.7,58.9,509.1,58.9L509.1,58.9z"/>
		</g>
	</g>
	<g>
		<g>
			<path class="st1" d="M461.3,44.1c0,9.1,0,18.1,0,27.2c0,1.6,2.5,1.6,2.5,0c0-9.1,0-18.1,0-27.2C463.8,42.5,461.3,42.5,461.3,44.1
				L461.3,44.1z"/>
		</g>
	</g>
	<g>
		<g>
			<path class="st1" d="M398.8,68c0-6.5,0-13,0-19.5c0-1.6-2.5-1.6-2.5,0c0,6.5,0,13,0,19.5C396.3,69.6,398.8,69.6,398.8,68
				L398.8,68z"/>
		</g>
	</g>
	<g>
		<g>
			<path class="st1" d="M350.5,49.6c0,5.9,0,11.9,0,17.8c0,1.6,2.5,1.6,2.5,0c0-5.9,0-11.9,0-17.8C353,48,350.5,47.9,350.5,49.6
				L350.5,49.6z"/>
		</g>
	</g>
	<g>
		<g>
			<path class="st1" d="M326.2,49.6c0,5.9,0,11.9,0,17.8c0,1.6,2.5,1.6,2.5,0c0-5.9,0-11.9,0-17.8C328.7,48,326.2,47.9,326.2,49.6
				L326.2,49.6z"/>
		</g>
	</g>
	<g>
		<g>
			<path class="st1" d="M302.5,49.6c0,5.9,0,11.9,0,17.8c0,1.6,2.5,1.6,2.5,0c0-5.9,0-11.9,0-17.8C305,48,302.5,47.9,302.5,49.6
				L302.5,49.6z"/>
		</g>
	</g>
	<g>
		<g>
			<path class="st1" d="M83,52.3c0,3.3,0,6.5,0,9.8c0,1.6,2.5,1.6,2.5,0c0-3.3,0-6.5,0-9.8C85.5,50.7,83,50.7,83,52.3L83,52.3z"/>
		</g>
	</g>
	<g>
		<g>
			<path class="st1" d="M51.1,50.7c0,4.7,0,9.3,0,14c0,1.6,2.5,1.6,2.5,0c0-4.7,0-9.3,0-14C53.6,49.1,51.1,49.1,51.1,50.7L51.1,50.7
				z"/>
		</g>
	</g>
	<circle class="st3" cx="1105.5" cy="62.1" r="4.2"/>
	<circle class="st4" cx="1063.1" cy="43.5" r="6.5"/>
	<circle class="st5" cx="1072.9" cy="40.3" r="9.7"/>
	<circle class="st6" cx="1055.8" cy="75.3" r="4.6"/>
	<circle class="st7" cx="986" cy="46.7" r="8.2"/>
	<circle class="st8" cx="902.7" cy="45.1" r="3.2"/>
	<circle class="st9" cx="876.6" cy="46.5" r="3.6"/>
	<circle class="st10" cx="851.5" cy="46.5" r="3.2"/>
	<circle class="st11" cx="825.8" cy="46.4" r="3.2"/>
	<circle class="st12" cx="799.6" cy="46.4" r="3.7"/>
	<circle class="st13" cx="775.6" cy="46.4" r="2.7"/>
	<circle class="st14" cx="722.3" cy="47.8" r="6.5"/>
	<circle class="st15" cx="679.7" cy="61" r="2.7"/>
	<circle class="st16" cx="549.1" cy="51.4" r="2.9"/>
	
		<ellipse transform="matrix(0.2858 -0.9583 0.9583 0.2858 302.5812 484.4849)" class="st17" cx="476.3" cy="39.2" rx="3.9" ry="3.9"/>
	<circle class="st18" cx="433.9" cy="45.9" r="3"/>
	<circle class="st19" cx="386.1" cy="49" r="3.7"/>
	<circle class="st20" cx="40.8" cy="49.1" r="4.3"/>
	<circle class="st21" cx="99.6" cy="48.2" r="4.1"/>
	<circle class="st22" cx="147" cy="52.2" r="3.2"/>
	<circle class="st23" cx="182.4" cy="51.3" r="4.7"/>
	<circle class="st24" cx="204" cy="50" r="3.4"/>
	<circle class="st24" cx="267.4" cy="48.6" r="3.4"/>
	<circle class="st25" cx="292.2" cy="48.6" r="3.4"/>
	<circle class="st26" cx="318.6" cy="52" r="3.4"/>
	<circle class="st27" cx="337.9" cy="46.5" r="3.4"/>
	<circle class="st28" cx="363" cy="47.9" r="3.4"/>
	<circle class="st29" cx="647.7" cy="57.7" r="9.3"/>
	<circle class="st29" cx="614.3" cy="57.7" r="9.3"/>
	<circle class="st30" cx="631.3" cy="57.6" r="12.9"/>
	<circle class="st31" cx="624.8" cy="64.1" r="6.5"/>
	<g>
		<g>
			<path class="st32" d="M987.1,88.5c7.5-0.2,14.6-2.8,20.1-7.9c2.5-2.3,3.8-5.3,6-7.7c0.9-1-1.9,0.1-0.1-0.5c0.6-0.2,1.6,0,2.2,0
				c8.4,0,16.8,0,25.2,0c-0.6-0.5-1.2-0.9-1.8-1.4c5.5,13.3,17.9,23.3,32.9,21.5c7.6-0.9,13.5-4.7,18.9-9.9c2.7-2.6,6-1.9,9.6-2.8
				c3.8-0.9,7.4-2.6,10.5-4.9c10.3-7.6,12.8-21.8,4.4-31.9c-4.4-5.3-11-8.6-17.7-9.6c-1.8-0.3-4,0-5.6-0.7c-1.6-0.7-2.9-2.6-4.3-3.8
				c-2.9-2.5-6.3-4.4-9.9-5.7c-16.7-5.8-32.7,5-38.9,20.4c0.6-0.5,1.2-0.9,1.8-1.4c-8.1,0-16.2,0-24.3,0c-1.2,0-3.7,0.5-4.8,0
				c-1.5-0.7,2.1,1,0.3-0.4c-1.2-0.9-2.2-2.9-3.3-4c-4.8-5-11.2-8.1-18.1-8.9c-7.3-0.8-14.8,1.1-20.8,5.5c-2.4,1.7-4.5,3.8-6.2,6.1
				c-0.3,0.4-2.4,3.7-1.2,3c-0.4,0.2-1.3,0-1.7,0c-7.9,1-16.5,0-24.5,0c0.6,0.5,1.2,0.9,1.8,1.4c-1.1-4.4-2.8-11.1-7.5-13.2
				c-4.7-2.1-8.1,2.3-10,6c1.1,0,2.2,0,3.2,0c-1.7-3.3-4.4-7.2-8.6-6.4c-4.2,0.7-6.2,5.4-7.6,8.9c1.2,0,2.4,0,3.6,0
				c-1.4-3.5-3.4-8-7.6-8.8c-4.2-0.8-6.9,3.2-8.6,6.4c1.1,0,2.2,0,3.2,0c-1.7-3.3-4.4-7.2-8.6-6.4c-4.4,0.8-6.4,5.7-7.8,9.4
				c1.1-0.1,2.3-0.3,3.4-0.4c-1.4-3.3-3.7-7.8-8-8c-3.9-0.1-6.3,3.4-7.8,6.5c1.1,0,2.2,0,3.2,0c-1.7-3.3-4.4-7.2-8.6-6.4
				c-4.2,0.7-6.2,5.4-7.6,8.9c1.2,0,2.4,0,3.6,0c-1.4-3.5-3.4-8-7.6-8.8c-4.2-0.8-6.9,3.2-8.6,6.4c1.1,0,2.2,0,3.2,0
				c-1.7-3.4-4.5-7.3-8.8-6.4c-3.9,0.8-5.9,5.2-7.3,8.5c1.2,0,2.4,0,3.6,0c-1.4-3.6-3.4-8.4-7.7-9.2c-4.2-0.8-6.9,3.1-8.6,6.4
				c1.1,0,2.2,0,3.2,0c-1.7-3.3-4.4-7.2-8.6-6.4c-4.2,0.7-6.2,5.4-7.6,8.9c1.2,0,2.4,0,3.6,0c-1.4-3.5-3.4-8-7.6-8.8
				c-4.2-0.8-6.9,3.2-8.6,6.4c1.1,0,2.2,0,3.2,0c-1.7-3.3-4.4-7.2-8.6-6.4c-4.4,0.8-6.4,5.7-7.8,9.4c1.1-0.1,2.3-0.3,3.4-0.4
				c-1.6-3.8-4.6-9.1-9.6-7.8c-4.7,1.2-6.7,7.2-7.9,11.2c0.6-0.5,1.2-0.9,1.8-1.4c-4.8,0-9.7,0-14.5,0c-3,0-6.1,0-9.1,0
				c-0.7,0-2.1,0.3-2.7,0c-0.5-0.2-0.2-0.2-0.1-0.2c1.2,0.9-2.5-3.7-1-1.8c-11.8-15.2-35.3-7.6-41.4,8.4c0.6-0.5,1.2-0.9,1.8-1.4
				c-3.7,0-7.4,0-11,0c-1.5,0-3.1,0.2-4.6,0c1.8,0.2,0.8,0.2-0.6-0.9c-5.7-4.6-11.5-9.1-17.2-13.7c-1.3-1-3.1-0.4-3.2,1.3
				c-0.2,3.7-0.2,7.4-0.2,11.1c1.1-0.4,2.1-0.9,3.2-1.3c-17-19.2-55.3-19-73.1-1.1c1.1,0.4,2.1,0.9,3.2,1.3c0-3.3-0.1-6.7-0.1-10
				c0-1.3-1.6-2.5-2.8-1.6c-4,3.1-8.1,6.1-12.1,9.2c-2.2,1.7-7.9,4.4-7.9,7.6c0.6-0.6,1.2-1.2,1.9-1.9c-6,0-12,0-18,0
				c0.6,0.5,1.2,0.9,1.8,1.4c-1.5-5-4.4-11.5-10.4-12c-6.4-0.5-9.8,6.4-11.4,11.6c1.2,0,2.4,0,3.6,0c-1.6-5.1-5-12.1-11.4-11.6
				c-6,0.5-9,7-10.4,12c0.6-0.5,1.2-0.9,1.8-1.4c-9.7,0-19.4,0-29.2,0c0.6,0.5,1.2,0.9,1.8,1.4c-1.4-8.4-5.4-20.9-15.3-22.3
				c-9.8-1.5-15.3,9.6-17.5,17.3c0.6-0.5,1.2-0.9,1.8-1.4c-3.5,0-7,0-10.5,0c-1.7,0-4.5,0.5-6.1,0c-0.3-0.1-0.9,0.2-1.1,0
				c1.1,0.7-0.7-2.5-1.1-2.9c-9.5-10.7-20.7-1.1-23.9,9.5c1.2,0,2.4,0,3.6,0c-2-6.4-6.2-13.5-13.6-13.9c-7.3-0.4-11.9,5.9-14.3,12
				c1.2,0,2.4,0,3.6,0c-2.1-5.3-5.8-10.9-11.9-11.9c-6.4-1-11.1,3.6-14.1,8.7c1.1,0,2.2,0,3.2,0c-3-5.4-8.1-10.2-14.8-8.7
				c-6.6,1.5-10.1,8-11.9,14c1.2,0,2.4,0,3.6,0c-2-6.4-6.2-13.5-13.6-13.9c-7.3-0.4-11.9,5.9-14.3,12c1.2,0,2.4,0,3.6,0
				c-2.2-5.5-6-11.2-12.4-11.9c-6.9-0.8-11.7,4.7-14.3,10.4c1.1,0,2.2,0,3.2,0c-2.6-5.6-7.5-11-14.3-9.9
				c-6.7,1.1-10.4,7.7-12.1,13.6c1.2,0,2.4,0,3.6,0c-1.9-6-5.7-12.6-12.6-13.4c-7.3-0.9-12,5.5-14.4,11.5c1.2,0,2.4,0,3.6,0
				c-2.3-5.6-6.4-11.6-13.2-11.6s-10.9,6-13.2,11.6c1.1-0.1,2.3-0.3,3.4-0.4c-2.4-5.2-7-10.3-13.3-9.2c-6.1,1.1-9.3,7-11,12.4
				c1.2,0,2.4,0,3.6,0c-1.8-5.6-5.4-11.8-12-12.2c-6.5-0.4-10.5,5.2-12.7,10.5c1.2,0,2.4,0,3.6,0c-2-5-5.5-10.2-11.4-10.5
				c-6.1-0.4-10.2,4.7-12.4,9.8c1.1,0,2.2,0,3.2,0c-2.1-4.5-5.9-8.8-11.3-8c-4.9,0.7-7.6,5-9.3,9.1c1.2,0,2.4,0,3.6,0
				c-2-4.7-5.4-9.6-11.2-9.2c-5.8,0.4-8.9,5.9-10.5,10.8c0.6-0.5,1.2-0.9,1.8-1.4c-8.3,0-16.5,0-24.8,0c0.6,0.5,1.2,0.9,1.8,1.4
				c-1.7-7-6.3-15.2-14.5-15.2c-8,0-12.6,7.9-14.4,14.7c0.6-0.5,1.2-0.9,1.8-1.4c-11.4,0-22.9,0-34.3,0c0.6,0.5,1.2,0.9,1.8,1.4
				c-1.6-5.8-4.8-12.1-10.9-14.1c-6.3-2.1-11.6,1.8-15,6.8c0.7-0.3,1.4-0.6,2.1-0.9c-9.6-2-19.3,4.3-19.3,14.7
				c0,10.1,9.3,16.5,18.7,14.8c-0.7-0.3-1.4-0.6-2.1-0.9c3.2,5.3,8.5,9.8,15.1,8c6.8-1.9,10.2-9,11.6-15.3c-0.6,0.5-1.2,0.9-1.8,1.4
				c11.3,0,22.6,0,33.9,0c-0.6-0.5-1.2-0.9-1.8-1.4c1.6,7.1,6.2,15.7,14.6,15.7c8.2,0,12.8-8.3,14.5-15.2c-0.6,0.5-1.2,0.9-1.8,1.4
				c8.4,0,16.7,0,25.1,0c-0.6-0.5-1.2-0.9-1.8-1.4c1.8,4.7,5.1,9.8,10.8,9.8c5.4,0,8.7-4.7,10.6-9.2c-1.2,0-2.4,0-3.6,0
				c4.2,10.2,14.7,12.4,20.4,1.9c-1.1-0.1-2.3-0.3-3.4-0.4c1.9,5.2,5.5,10.8,11.7,11.2c6.5,0.4,10.5-5.2,12.7-10.6
				c-1.2,0-2.4,0-3.6,0c2.3,5.5,6.6,11.3,13.3,10.5c6.3-0.8,9.8-6.9,11.5-12.5c-1.2,0-2.4,0-3.6,0c1.7,5.3,5,11.2,11.1,12.1
				c6.2,1,10.6-3.9,13.1-9.1c-1.1-0.1-2.3-0.3-3.4-0.4c2.3,5.7,6.4,11.7,13.2,11.7s10.9-6,13.2-11.6c-1.2,0-2.4,0-3.6,0
				c2.4,6,7.2,12.4,14.5,11.5c7-0.8,10.8-7.6,12.6-13.7c-1.2,0-2.4,0-3.6,0c1.8,5.8,5.5,12.3,12.1,13.3c6.7,1.1,11.5-4.1,14.2-9.6
				c-1.1,0-2.2,0-3.2,0c2.6,5.8,7.4,11.6,14.4,10.8c6.4-0.7,10.2-6.4,12.4-11.9c-1.2,0-2.4,0-3.6,0c2.4,6.1,7,12.4,14.3,12
				c7.5-0.4,11.8-7.8,13.7-14.2c-1.2,0-2.4,0-3.6,0c1.8,5.9,5.4,12.2,11.9,13.7c6.6,1.5,11.7-3.3,14.7-8.6c-1.1,0-2.2,0-3.2,0
				c2.9,5.2,7.7,9.9,14.1,8.9c6.1-1,9.8-6.5,11.9-11.9c-1.2,0-2.4,0-3.6,0c2.4,6.1,7,12.4,14.3,12c7.5-0.4,11.8-7.8,13.7-14.2
				c-1.2,0-2.4,0-3.6,0c1.7,5.3,4.6,10.9,10,13.1c4.8,2,10.9,0.2,14-4.1c1.7-2.4-0.2-1.8,2.3-2.1c2.1-0.2,4.3,0,6.4,0
				c3.5,0,6.9,0,10.4,0c-0.6-0.5-1.2-0.9-1.8-1.4c2.5,7.4,8.1,17.2,17.5,15.3c9.1-1.8,13-12.8,14.6-20.8c-0.6,0.5-1.2,0.9-1.8,1.4
				c9.8,0,19.6,0,29.4,0c-0.6-0.5-1.2-0.9-1.8-1.4c1.5,5,4.4,11.5,10.4,12c6.4,0.5,9.8-6.4,11.4-11.6c-1.2,0-2.4,0-3.6,0
				c1.6,5.1,5,12.1,11.4,11.6c6-0.5,9-7,10.4-12c-0.6,0.5-1.2,0.9-1.8,1.4c6,0,12,0,18,0c1,0,1.9-0.9,1.9-1.9c0-0.2,0-0.5,0-0.7
				c-1.1,0.4-2.1,0.9-3.2,1.3c6.4,5,12.7,10.1,19.1,15.1c1.3,1,3.1,0.4,3.2-1.3c0.1-3.1,0.2-6.3,0.2-9.5c-1.1,0.4-2.1,0.9-3.2,1.3
				c17.9,17.7,56.2,18,73.1-1.3c-1.1-0.4-2.1-0.9-3.2-1.3c0,3.6,0.1,7.2,0.1,10.8c0,1.3,1.6,2.5,2.8,1.6c3-2.3,6.1-4.6,9.1-6.9
				c3-2.3,6.4-6,9.9-7.5c-1.4,0.6-0.3,0.2,0.5,0.2c1.1,0,2.3,0,3.4,0c2.8,0,5.5,0,8.3,0c0.5,0,2.1-0.3,2.6,0
				c-1.1-0.6,0.3,2.4,0.8,3.1c1.8,2.8,4.1,5.2,6.8,7.1c6,4.1,13.8,5.4,20.8,3.3c3.3-1,6.4-2.7,9.1-5c1.2-1,2.3-2.9,3.5-3.8
				c0.2-0.1-1.2,0,0.2-0.3c4.1-1.1,10.1,0,14.3,0c3.6,0,7.3,0,10.9,0c-0.6-0.5-1.2-0.9-1.8-1.4c1,4.8,3,13.2,8.8,14.6
				c5.6,1.4,8.6-5.2,10.2-9.3c-1.1,0.1-2.3,0.3-3.4,0.4c1.4,3.3,3.7,7.8,8,8c3.9,0.1,6.3-3.4,7.8-6.5c-1.1,0-2.2,0-3.2,0
				c1.7,3.3,4.4,7.2,8.6,6.4c4.2-0.7,6.2-5.4,7.6-8.9c-1.2,0-2.4,0-3.6,0c1.4,3.5,3.4,8,7.6,8.8c4.2,0.8,6.9-3.2,8.6-6.4
				c-1.1,0-2.2,0-3.2,0c1.7,3.4,4.5,7.3,8.8,6.4c3.9-0.8,5.9-5.2,7.3-8.5c-1.2,0-2.4,0-3.6,0c1.4,3.6,3.4,8.4,7.7,9.2
				c4.2,0.8,6.9-3.1,8.6-6.4c-1.1,0-2.2,0-3.2,0c1.7,3.3,4.4,7.2,8.6,6.4c4.2-0.7,6.2-5.4,7.6-8.9c-1.2,0-2.4,0-3.6,0
				c1.4,3.5,3.4,8,7.6,8.8c4.2,0.8,6.9-3.2,8.6-6.4c-1.1,0-2.2,0-3.2,0c1.7,3.3,4.4,7.2,8.6,6.4c4.4-0.8,6.4-5.7,7.8-9.4
				c-1.1,0.1-2.3,0.3-3.4,0.4c1.4,3.3,3.7,7.8,8,8c3.9,0.1,6.3-3.4,7.8-6.5c-1.1,0-2.2,0-3.2,0c1.7,3.3,4.4,7.2,8.6,6.4
				c4.2-0.7,6.2-5.4,7.6-8.9c-1.2,0-2.4,0-3.6,0c1.4,3.5,3.4,8,7.6,8.8c4.2,0.8,6.9-3.2,8.6-6.4c-1.1,0-2.2,0-3.2,0
				c1.8,3.6,4.9,7.7,9.4,6.2c4.4-1.4,6.2-6.9,7.5-10.9c-0.6,0.5-1.2,0.9-1.8,1.4c8.1,0,16.1,0,24.2,0c0.6,0,1.5-0.2,2,0
				c1.8,0.6-0.7-0.5,0,0.4c2.1,2.6,3.8,5.2,6.4,7.4C973.4,86.1,980.1,88.3,987.1,88.5c2.4,0.1,2.4-3.7,0-3.8
				c-9.9-0.3-18.1-5.3-23-13.8c-0.3-0.6-1-0.9-1.6-0.9c-9,0-18.1,0-27.1,0c-0.8,0-1.6,0.6-1.8,1.4c-0.7,2.1-1.3,4.8-2.9,6.4
				c-3.4,3.5-5.6,0.3-7.1-2.7c-0.6-1.2-2.6-1.2-3.2,0c-0.9,1.7-2.4,5-4.8,4.6c-2.1-0.3-3.9-4.7-4.5-6.1c-0.7-1.8-2.9-1.8-3.6,0
				c-0.6,1.5-2.4,6-4.5,6.2c-2.5,0.3-4-2.9-4.9-4.6c-0.6-1.2-2.6-1.2-3.2,0c-1,2-2.5,5.3-5.5,4.3c-1.8-0.6-3.1-4.3-3.8-5.8
				c-0.7-1.6-2.9-0.9-3.4,0.4c-0.6,1.5-2.2,5.8-4.1,6.4c-2.7,0.9-4.5-2.6-5.4-4.4c-0.6-1.2-2.6-1.2-3.2,0c-0.9,1.7-2.4,5-4.8,4.6
				c-2.1-0.3-3.9-4.7-4.5-6.1c-0.7-1.8-2.9-1.8-3.6,0c-0.6,1.5-2.4,6-4.5,6.2c-2.5,0.3-4-2.9-4.9-4.6c-0.6-1.2-2.6-1.2-3.2,0
				c-1,1.9-2.5,5.3-5.4,4.4c-1.9-0.6-3.5-4.8-4-6.3c-0.7-1.8-2.9-1.7-3.6,0c-1.1,2.5-1.6,4.5-4.6,4.7c-2.9,0.2-3.3-1-4.6-3.5
				c-0.6-1.2-2.6-1.2-3.2,0c-0.9,1.7-2.4,5-4.8,4.6c-2.1-0.3-3.9-4.7-4.5-6.1c-0.7-1.8-2.9-1.8-3.6,0c-0.6,1.5-2.4,6-4.5,6.2
				c-2.5,0.3-4-2.9-4.9-4.6c-0.6-1.2-2.6-1.2-3.2,0c-1,2-2.5,5.3-5.5,4.3c-1.8-0.6-3.1-4.3-3.8-5.8c-0.7-1.6-2.9-0.9-3.4,0.4
				c-1.6,4.1-4.6,9.1-8.5,3.9c-1.9-2.5-2.5-6.2-3.2-9.2c-0.2-0.8-1-1.4-1.8-1.4c-8.2,0-17-1-25.2,0c-1.2,0.1-1.5,0.2-2.5,0.9
				c-2.3,1.7-3.4,4.2-6,5.8c-2.1,1.3-4.4,2.3-6.8,2.8c-10.3,2.2-19.9-3.7-23.9-13.1c-0.2-0.6-1-0.9-1.6-0.9c-3.7,0-7.5,0-11.2,0
				c-2.6,0-4.6-0.4-6.7,1c-6.3,4-12.1,9.2-18.1,13.7c0.9,0.5,1.9,1.1,2.8,1.6c0-3.6-0.1-7.2-0.1-10.8c0-1.5-2.1-2.6-3.2-1.3
				c-15.6,17.7-51.3,17.7-67.8,1.3c-1.2-1.1-3.2-0.3-3.2,1.3c0,3.2,0,6.3-0.2,9.5c1.1-0.4,2.1-0.9,3.2-1.3
				c-6.4-5-12.7-10.1-19.1-15.1c-1.2-1-3.2-0.4-3.2,1.3c0,0.2,0,0.5,0,0.7c0.6-0.6,1.2-1.2,1.9-1.9c-6,0-12,0-18,0
				c-0.8,0-1.6,0.6-1.8,1.4c-0.9,3.2-2.5,8.1-6.2,8.9c-4.8,1.1-7.2-4.8-8.4-8.6c-0.6-1.8-3.1-1.8-3.6,0c-1.1,3.6-3.5,9.8-8.4,8.6
				c-3.7-0.9-5.3-5.7-6.2-8.9c-0.2-0.8-1-1.4-1.8-1.4c-9.8,0-19.6,0-29.4,0c-0.8,0-1.7,0.6-1.8,1.4c-1.2,6.1-3.4,13.9-9.3,17.2
				c-8,4.4-13.4-5.7-15.5-11.7c-0.3-0.8-0.9-1.4-1.8-1.4c-5.7,0-11.5-0.3-17.2,0c-3.4,0.2-3.1,1.8-5.7,4.3
				c-7.4,7.2-14.5-1.4-16.7-8.4c-0.5-1.8-3.1-1.8-3.6,0c-1.4,4.8-4.2,10.6-9.7,11.4c-5.7,0.8-9.2-4.5-11.1-9.1
				c-0.7-1.8-2.9-1.8-3.6,0c-1.5,3.7-3.9,7.8-8,9c-5.2,1.4-8.9-2.9-11.1-6.9c-0.7-1.2-2.6-1.2-3.2,0c-2.5,4.4-6.6,8.6-12,6.3
				c-4.2-1.8-6.4-6.4-7.7-10.5c-0.5-1.8-3.1-1.8-3.6,0c-1.4,4.8-4.2,10.6-9.7,11.4c-5.7,0.8-9.2-4.5-11.1-9.1
				c-0.7-1.8-2.9-1.8-3.6,0c-1.7,4.1-4.9,9.3-10,9.3c-5.1-0.1-8.1-4.8-9.9-9c-0.6-1.3-2.7-1.2-3.2,0c-2,4.2-5.8,9.1-11.1,7.6
				c-4.6-1.3-7-6.3-8.2-10.5c-0.5-1.8-3.1-1.8-3.6,0c-1.2,4.1-3.6,9.5-8.3,10.8c-5.8,1.5-9.7-3.9-11.6-8.6c-0.7-1.8-2.9-1.8-3.6,0
				c-1.6,4.1-4.7,8.8-9.6,8.9c-4.9,0.1-8-5-9.6-9c-0.5-1.3-2.7-2.1-3.4-0.4c-1.8,3.9-4.8,8.2-9.7,7c-4.3-1-6.3-5.3-7.6-9.2
				c-0.6-1.8-3.1-1.8-3.6,0c-1.1,3.7-3.1,8.2-7.2,9.5c-5.2,1.6-8.7-3.5-10.4-7.5c-0.7-1.8-2.9-1.8-3.6,0c-1.6,3.9-4.6,8.4-9.4,7.7
				c-4.1-0.6-6.4-4.8-7.7-8.3c-0.5-1.4-2.6-2-3.4-0.4c-4,7.5-10.5,6.2-13.5-1c-0.7-1.8-2.9-1.8-3.6,0c-1.2,2.9-3.3,6.5-7,6.5
				c-3.9,0-6-4-7.1-7.1c-0.3-0.8-0.9-1.4-1.8-1.4c-8.4,0-16.7,0-25.1,0c-0.8,0-1.6,0.6-1.8,1.4c-1.3,5.2-4.5,12.4-10.9,12.4
				c-6.6,0-9.8-7.7-11-13c-0.2-0.8-1-1.4-1.8-1.4c-11.3,0-22.6,0-33.9,0c-0.8,0-1.6,0.6-1.8,1.4c-1,4.4-2.9,9.5-7,11.9
				c-5.3,3-10-0.8-12.8-5.4c-0.5-0.8-1.3-1-2.1-0.9c-7.1,1.2-14-3.8-14-11.2c0-7.8,7.3-12.6,14.5-11.1c0.9,0.2,1.6-0.1,2.1-0.9
				c7.2-10.7,16.4-3.2,19,6.3c0.2,0.8,1,1.4,1.8,1.4c11.4,0,22.9,0,34.3,0c0.8,0,1.6-0.6,1.8-1.4c1.4-5,4.6-11.9,10.8-11.9
				c6.4,0,9.6,7.3,10.9,12.4c0.2,0.8,1,1.4,1.8,1.4c8.3,0,16.5,0,24.8,0c0.8,0,1.6-0.6,1.8-1.4c1-3.1,2.6-7,6.1-7.8
				c4.2-0.9,6.8,2.6,8.3,6.1c0.7,1.8,2.9,1.8,3.6,0c1.2-2.9,3.3-6.5,7-6.5c3.6,0,5.6,3.5,6.9,6.2c0.6,1.2,2.7,1.3,3.2,0
				c1.4-3.3,3.5-7.3,7.5-7.8c4.9-0.6,7.8,3.6,9.5,7.7c0.7,1.8,2.9,1.8,3.6,0c1.7-4.1,4.8-8.7,9.9-7.5c4.3,1,6.3,5.3,7.6,9.2
				c0.6,1.8,3.1,1.8,3.6,0c1.1-3.7,3.1-8.2,7.2-9.5c5.1-1.6,8.4,3.3,10.2,7.2c0.8,1.6,2.9,0.9,3.4-0.4c1.6-4.1,4.7-8.8,9.6-8.8
				c4.9-0.1,8,4.9,9.6,8.9c0.7,1.8,2.9,1.8,3.6,0c1.8-4.5,5.8-10.2,11.5-8.6c4.6,1.3,7,6.3,8.2,10.5c0.5,1.8,3.1,1.8,3.6,0
				c1.2-4.1,3.6-9.6,8.3-10.8c5.5-1.4,9.2,3.5,11.3,7.9c0.6,1.2,2.7,1.2,3.2,0c1.8-3.9,4.9-8.7,9.8-8.6c5.2,0.1,8.3,5,10,9.3
				c0.7,1.8,2.9,1.8,3.6,0c1.8-4.6,5.4-9.9,11.1-9.1c5.4,0.7,8.2,6.4,9.6,11.1c0.5,1.8,3.1,1.8,3.6,0c1.3-4.2,3.4-8.9,7.7-10.8
				c5.5-2.3,9.7,1.9,12.2,6.4c0.7,1.2,2.6,1.2,3.2,0c2.3-4,6-8,11-6.7c4.1,1,6.6,5.4,8,9c0.7,1.8,2.9,1.8,3.6,0
				c1.8-4.6,5.4-9.9,11.1-9.1c5.4,0.7,8.2,6.4,9.6,11.1c0.5,1.8,3.1,1.8,3.6,0c2.1-6.9,8.4-15.6,16.1-9.3c3,2.5,2.7,5.1,6.4,5.5
				c5.4,0.5,11.1,0,16.5,0c0.8,0,1.6-0.6,1.8-1.4c1.8-6.3,6.9-17.9,15.5-13.9c6.7,3.1,9,12.5,10,18.9c0.1,0.8,1,1.4,1.8,1.4
				c9.7,0,19.4,0,29.2,0c0.8,0,1.6-0.6,1.8-1.4c0.9-3.2,2.5-8.1,6.2-8.9c4.8-1.1,7.2,4.8,8.4,8.6c0.6,1.8,3.1,1.8,3.6,0
				c1.1-3.6,3.5-9.8,8.4-8.6c3.7,0.9,5.3,5.7,6.2,8.9c0.2,0.8,1,1.4,1.8,1.4c6,0,12,0,18,0c1,0,1.9-0.9,1.9-1.9
				c0-0.8-1.6,1.2-0.5,0.6c0.7-0.4,1.4-1.1,2.1-1.6c2.2-1.7,4.4-3.3,6.6-5c3.3-2.5,6.6-5,10-7.6c-0.9-0.5-1.9-1.1-2.8-1.6
				c0,3.3,0.1,6.7,0.1,10c0,1.6,2,2.5,3.2,1.3c16.4-16.5,52.2-16.5,67.8,1.1c1.1,1.2,3.2,0.2,3.2-1.3c0-3.7,0-7.4,0.2-11.1
				c-1.1,0.4-2.1,0.9-3.2,1.3c6,4.8,11.8,10,18.1,14.4c2.1,1.5,3.4,1.3,6,1.3c4,0,8,0,12,0c0.9,0,1.5-0.6,1.8-1.4
				c3.7-9.6,13.7-15.6,24-13.4c2.4,0.5,4.7,1.5,6.8,2.8c2.5,1.6,3.7,4.1,6,5.8c1.1,0.8,1.4,0.8,2.7,0.9c8.4,0.8,17.3,0,25.8,0
				c0.8,0,1.6-0.6,1.8-1.4c0.7-2.1,1.5-6,3.6-7.4c4.2-3,5.9,2,7.2,4.9c0.7,1.6,2.9,0.9,3.4-0.4c0.6-1.5,2.2-5.8,4.1-6.4
				c2.7-0.9,4.5,2.6,5.4,4.4c0.6,1.2,2.6,1.2,3.2,0c0.9-1.7,2.4-5,4.8-4.6c2.1,0.3,3.9,4.7,4.5,6.1c0.7,1.8,2.9,1.8,3.6,0
				c0.6-1.5,2.4-6,4.5-6.2c2.5-0.3,4,2.9,4.9,4.6c0.6,1.2,2.6,1.2,3.2,0c1-1.9,2.5-5.3,5.4-4.4c1.9,0.6,3.5,4.8,4,6.3
				c0.7,1.8,2.9,1.7,3.6,0c1.1-2.5,1.6-4.5,4.6-4.7c2.9-0.2,3.3,1,4.6,3.5c0.6,1.2,2.6,1.2,3.2,0c0.9-1.7,2.4-5,4.8-4.6
				c2.1,0.3,3.9,4.7,4.5,6.1c0.7,1.8,2.9,1.8,3.6,0c0.6-1.5,2.4-6,4.5-6.2c2.5-0.3,4,2.9,4.9,4.6c0.6,1.2,2.6,1.2,3.2,0
				c1-2,2.5-5.3,5.5-4.3c1.8,0.6,3.1,4.3,3.8,5.8c0.7,1.6,2.9,0.9,3.4-0.4c0.6-1.5,2.2-5.8,4.1-6.4c2.7-0.9,4.5,2.6,5.4,4.4
				c0.6,1.2,2.6,1.2,3.2,0c0.9-1.7,2.4-5,4.8-4.6c2.1,0.3,3.9,4.7,4.5,6.1c0.7,1.8,2.9,1.8,3.6,0c0.6-1.5,2.4-6,4.5-6.2
				c2.5-0.3,4,2.9,4.9,4.6c0.6,1.2,2.6,1.2,3.2,0c0.6-1.1,1.4-3.1,2.5-3.7c2.1-1.2,4.4,0.5,5.4,2.1c1.5,2.4,2.2,5.2,2.8,7.9
				c0.2,0.8,1,1.4,1.8,1.4c8.8,0,17.6,0,26.4,0c0.7,0,1.3-0.4,1.6-0.9c6-10.5,17.9-16.2,29.8-12.9c5.5,1.5,10.3,4.8,13.8,9.3
				c1.6,2.1,1.7,3,4.1,3.3c5,0.7,10.5,0,15.6,0c4.4,0,8.8,0,13.1,0c0.9,0,1.5-0.6,1.8-1.4c6.9-17,27.3-25.7,42.6-13
				c2,1.7,3.5,4.5,5.9,5.3c2,0.7,5.4,0.1,7.6,0.5c1.5,0.3,3,0.8,4.4,1.3c7.7,3.1,14,10.2,13.7,18.8c-0.3,8.4-6.8,14.9-14.4,17.7
				c-2,0.7-4.2,1.2-6.3,1.5c-1.3,0.1-3.6-0.3-4.7,0.2c-2.5,1-4.3,4.4-6.5,6.1c-15.2,12.3-35.3,3.8-42.2-13c-0.3-0.8-0.9-1.4-1.8-1.4
				c-9.4,0-18.8,0-28.2,0c-0.6,0-1.3,0.3-1.6,0.9c-4.7,9.2-13.2,14.8-23.6,15.1C984.7,84.8,984.6,88.6,987.1,88.5z"/>
		</g>
	</g>
	<circle class="st33" cx="992.1" cy="49.9" r="5.5"/>
</g>
</svg>
