<?xml version="1.0" encoding="utf-8"?>
<!-- Generator: Adobe Illustrator 21.0.2, SVG Export Plug-In . SVG Version: 6.00 Build 0)  -->
<svg version="1.1" id="Layer_1" xmlns="http://www.w3.org/2000/svg" xmlns:xlink="http://www.w3.org/1999/xlink" x="0px" y="0px"
	 viewBox="0 0 1133.9 323.4" style="enable-background:new 0 0 1133.9 323.4;" xml:space="preserve">
<style type="text/css">
	.st0{fill:#4C4346;}
	.st1{fill:#433E40;}
	.st2{fill:#322828;}
	.st3{fill:#281E20;}
	.st4{fill:#262220;}
	.st5{fill:#171515;}
	.st6{fill:#897D7F;}
	.st7{fill:#8C8382;}
	.st8{fill:#766E71;}
	.st9{fill:#8B8386;}
	.st10{fill:#6D6769;}
	.st11{fill:#1D191B;}
</style>
<g>
	<g>
		<path class="st0" d="M1096.6,304c0.2-6.9,0.4-13.7,0.6-20.6l-3-3l3.3-7.7c0-3,0-5.9,0.1-8.9c0-4,0-8.1-0.1-12.1l-7.4-4.5l2.7-10.4
			c0,0-10-18.1-15.9-19.7c-2.6,1.5-5.2,2.9-7.8,4.4c-8.4-2.1-16.9-4.1-25.3-6.2c-15.6,0.7-31.9,1.9-48.8,3.5
			c-23.2,2.3-45,5.3-65.5,8.9c-7.6-0.2-15.3-0.4-23-0.6c-19.1-0.4-38-0.6-56.7-0.6c-11.6-3-24.6-5.7-38.7-7.7
			c-8.9-1.3-17.5-2.1-25.5-2.7c-6.2-0.7-15.7-1.7-27.4-2.1c-20.1-0.7-22.7,1.1-34.8,0.3c-13.3-0.9-24.7-4.9-47.6-13
			c-8.7-3-20.6-7.5-34.6-13.5c-13.7-3.6-28.2-8-43.5-13.3c-12.8-4.5-24.8-9.2-35.9-14c0,0-13.8-8.9-39-9.5
			c-75.7-18-152.7-37.2-231.1-57.8c-82.3-21.6-162.6-43.8-241-66.4C42.8,25.4,36.6,26,36,28.1c-0.7,2.1,4.2,6.3,12,9.7
			c0,0,260.7,94.4,329.7,111.7c0,0-1.7,6.7,16.6,9.3l198.2,62.3c0,0,17.8,26.1,37.5,23.1c0,0,47.8,19,63.2,20
			c0.6,0.8,1.5,2.1,2.9,3.4c5.1,4.9,13.1,7.6,21,6c5.4-1.1,9.1-4.1,11.1-5.9c7.8,4.1,18.5,8.6,31.8,11.3c21.3,4.4,39.2,2.1,50.2-0.2
			c36.1,4.9,72.2,9.8,108.3,14.6c23.8,3.9,51.5,6.5,82.5,5.6c12.7-0.4,24.8-1.3,36.1-2.6c4.5,1.5,12.4,3.5,21.8,1.9
			c3.8-0.6,7-1.6,9.6-2.7C1077.5,298.6,1087,301.3,1096.6,304z"/>
	</g>
	<g>
		<path class="st1" d="M35.7,28.4c0.7-2.1,6.8-2.7,14.7-1.3c78.4,22.6,158.7,44.8,241,66.4c78.3,20.6,155.4,39.8,231.1,57.8
			c25.2,0.6,39,9.5,39,9.5c11.1,4.8,23.1,9.5,35.9,14c15.2,5.3,29.8,9.7,43.5,13.3c8.5,3.7,16.2,6.7,22.9,9.3
			c0,0-94.1-24.2-102-18.3c-7.9,6-28.4-7.3-28.4-7.3s-14.2-6.8-23.4-2.5c-9.1,4.4-27.1-1.4-27.1-1.4s-39.7-5.5-43.9-11.2
			c-4.2-5.7-0.7-12.9-15.2-17.7s-31.9-3.6-35.4,1.2s-32.1-8.3-32.1-8.3L35.7,28.4z"/>
	</g>
	<g>
		<path class="st2" d="M728.1,268c3,2.2,5.9,3.3,11.5,5.5c7.3,2.9,14,4.5,20.3,5.7c14.2,2.8,28.8,5.6,43.3,0.6
			c25.5-8.8,24.4-33,41.3-34.7c24.5-2.4,53.4,45.8,53.4,45.8c6.9,0.9,13.7,1.9,20.6,2.8c23.8,3.9,51.5,6.5,82.5,5.6
			c12.7-0.4,24.8-1.3,36.1-2.6c4.5,1.5,12.4,3.5,21.8,1.9c3.8-0.6,7-1.6,9.6-2.7c9.5,2.7,19.1,5.4,28.6,8c0.2-6.9,0.4-13.7,0.6-20.6
			l-3-3l3.3-7.7c0-3,0-5.9,0.1-8.9c0-4,0-8.1-0.1-12.1l-7.4-4.5l2.7-10.4c0,0-10-18.1-15.9-19.7c-2.6,1.5-5.2,2.9-7.8,4.4
			c-8.4-2.1-16.9-4.1-25.3-6.2c-15.6,0.7-31.9,1.9-48.8,3.5c-23.2,2.3-45,5.3-65.5,8.9c-7.6-0.2-15.3-0.4-23-0.6
			c-19.1-0.4-38-0.6-56.7-0.6c-11.6-3-24.6-5.7-38.7-7.7c-8.9-1.3-17.5-2.1-25.5-2.7c-6.2-0.7-15.7-1.7-27.4-2.1
			c-7.9-0.3-11.9-0.4-13.8-0.1c-11.5,1.9-28.8,11.3-30.2,27.3C713.3,253.3,721.7,263.4,728.1,268z"/>
	</g>
	<g>
		<path class="st3" d="M1097.6,263c0-4,0-8.1-0.1-12.1l-7.4-4.5l2.7-10.4c0,0-1.8-3.4-4.4-7.3c0,0-44.5,0.9-44.6-14.2
			c-13.5,0.6-27.6,1.6-42.1,2.9c0,0-26.9,16.3-29.5,36.3c0,0,25,40.9,62.7,4.2C1034.9,258,1060.1,247.9,1097.6,263z"/>
	</g>
	<g>
		<path class="st4" d="M898.2,292.8c2,13.5-35.4-50.6-53.4-45.8c-7,1.9-7.9,11.3-25.3,24.5c-4.8,3.7-9.1,6.2-12,7.9
			c1.6-1.9,12.5-15.3,9.4-34.2c-3.2-19-18-28.1-20.1-29.4c11.6,2.9,23.3,5.7,35.2,8.5c6.2,1.4,12.3,2.8,18.4,4.2
			c18.6,0,37.5,0.2,56.7,0.6C907.1,229.1,890.1,237.3,898.2,292.8z"/>
	</g>
	<g>
		<g>
			<path class="st5" d="M1081.2,295.7c6.9-23.2,7.5-55.1-11.9-72.5c-1.8-1.6-4.5,1-2.7,2.7c18.4,16.5,17.4,46.9,10.9,68.8
				C1076.9,297,1080.5,298,1081.2,295.7L1081.2,295.7z"/>
		</g>
	</g>
	
		<ellipse transform="matrix(1 -4.671727e-03 4.671727e-03 1 -1.2321 4.9723)" class="st6" cx="1063.7" cy="266.2" rx="4.6" ry="20.9"/>
	<g>
		<g>
			<path class="st5" d="M1011.5,241.6c-4.7,6.5-14.1,12-21.8,15.6c-25,11.6-54,12-80.8,9c-1.6-0.2-1.6,2.3,0,2.5
				c32.9,3.7,74.7,2.7,100.7-21.4c1.5-1.3,2.9-2.8,4.1-4.4C1014.6,241.6,1012.4,240.3,1011.5,241.6L1011.5,241.6z"/>
		</g>
	</g>
	<g>
		<g>
			<path class="st5" d="M1025.6,298.7c14.3,0.7,34.2-4.5,32.5-22.3c-0.1-1.6-2.6-1.6-2.5,0c1.5,16.4-17.1,20.5-30,19.8
				C1024,296.1,1024,298.6,1025.6,298.7L1025.6,298.7z"/>
		</g>
	</g>
	<g>
		<g>
			<path class="st5" d="M962.7,244.6c-11.8,4.2-24,7.7-36.1,10.8c-20,5-42.3,10.3-63,6.8c-1.6-0.3-2.2,2.1-0.7,2.4
				c20.4,3.5,42.2-1.4,62-6.2c13-3.2,25.9-6.9,38.5-11.4C964.9,246.5,964.2,244,962.7,244.6L962.7,244.6z"/>
		</g>
	</g>
	<g>
		<g>
			<path class="st5" d="M955.1,239.5c-13.9-0.1-27.8,0.6-41.6,1.7c-21.8,1.8-45,4.2-65.2,13.1c-1.5,0.6-0.2,2.8,1.3,2.2
				c20.5-9.1,44.2-11.3,66.3-13c13-1,26.1-1.6,39.1-1.5C956.8,242,956.8,239.5,955.1,239.5L955.1,239.5z"/>
		</g>
	</g>
	<g>
		<g>
			<path class="st5" d="M804,262.5c-10.7,10.6-27.5,11.9-40.8,6c-1.5-0.6-2.7,1.5-1.3,2.2c14.4,6.4,32.3,5.1,43.9-6.4
				C806.9,263.1,805.2,261.3,804,262.5L804,262.5z"/>
		</g>
	</g>
	<g>
		<g>
			<path class="st5" d="M790.2,224c-22.3,7.5-51.6,11.2-72.8-0.9c-2.1-1.2-4,2-1.9,3.2c22.1,12.6,52.4,9.1,75.7,1.3
				C793.4,226.8,792.5,223.2,790.2,224L790.2,224z"/>
		</g>
	</g>
	<g>
		<g>
			<path class="st5" d="M777.2,244.7c-14.4-10.6-34.5-10-49.9-2.2c-1.4,0.7-0.2,2.9,1.3,2.2c14.6-7.4,33.7-7.8,47.4,2.2
				C777.3,247.8,778.5,245.7,777.2,244.7L777.2,244.7z"/>
		</g>
	</g>
	<g>
		<g>
			<path class="st5" d="M653.7,223c-4.5,12.5-16.9,20.3-30.1,19.5c-2.4-0.2-2.4,3.6,0,3.8c14.9,0.9,28.6-8.3,33.7-22.2
				C658.2,221.7,654.6,220.7,653.7,223L653.7,223z"/>
		</g>
	</g>
	<g>
		<g>
			<path class="st5" d="M729.8,268.4c-0.1-17.9-14.3-33.1-29.4-40.6c-2.2-1.1-4.1,2.2-1.9,3.2c13.9,6.9,27.5,20.7,27.6,37.4
				C726,270.8,729.8,270.8,729.8,268.4L729.8,268.4z"/>
		</g>
	</g>
	<g>
		<g>
			<path class="st5" d="M623,188.8c-15.7-5.1-33.9-1.7-46.6,8.7c-1.2,1,0.5,2.8,1.8,1.8c12-9.8,29.4-12.8,44.2-8.1
				C623.9,191.7,624.5,189.3,623,188.8L623,188.8z"/>
		</g>
	</g>
	<g>
		<g>
			<path class="st5" d="M571.1,190c-5.9-4.2-12.9-7.2-19.7-9.7c-18.3-6.9-38-9.8-57.5-10.2c-1.6,0-1.6,2.5,0,2.5
				c19.3,0.4,38.7,3.2,56.8,10.1c6.5,2.5,13.4,5.3,19.1,9.4C571.1,193.1,572.4,190.9,571.1,190L571.1,190z"/>
		</g>
	</g>
	<g>
		<g>
			<path class="st5" d="M580.3,182.3c-7.1-5.1-15.5-8.8-23.6-11.9c-20.1-7.8-41.7-11.1-63.3-10.4c-1.6,0.1-1.6,2.6,0,2.5
				c21.3-0.7,42.7,2.6,62.6,10.3c7.9,3.1,16.1,6.7,23,11.7C580.4,185.4,581.6,183.3,580.3,182.3L580.3,182.3z"/>
		</g>
	</g>
	<g>
		<g>
			<path class="st5" d="M386.3,119.1c-8.9,7.8-19.7,12.8-31.3,14.7c-1.6,0.3-0.9,2.7,0.7,2.4c12.1-1.9,23.2-7.2,32.4-15.3
				C389.3,119.8,387.5,118.1,386.3,119.1L386.3,119.1z"/>
		</g>
	</g>
	<g>
		<g>
			<path class="st5" d="M385.6,131.8c-9.3,10.4-24,13.9-37.1,8.9c-1.5-0.6-2.2,1.8-0.7,2.4c13.8,5.3,29.6,1.5,39.5-9.5
				C388.4,132.4,386.6,130.6,385.6,131.8L385.6,131.8z"/>
		</g>
	</g>
	<g>
		<g>
			<path class="st5" d="M272.5,101.4c-51.4-16.9-102.8-33.7-154.2-50.6c-1.5-0.5-2.2,1.9-0.7,2.4c51.4,16.9,102.8,33.7,154.2,50.6
				C273.4,104.4,274,101.9,272.5,101.4L272.5,101.4z"/>
		</g>
	</g>
	<g>
		<g>
			<path class="st6" d="M1049.4,268.4c-35,4-71.3,6.5-106.4,3.2c-10.4-1-21.6-2.3-31-7c-1.4-0.7-2.7,1.4-1.3,2.2
				c7.6,3.8,16.3,5.4,24.7,6.5c11.6,1.5,23.3,2,34.9,2c21.8,0.1,43.6-1.1,65.3-3.1c4.6-0.4,9.2-0.8,13.8-1.4
				C1051,270.7,1051,268.2,1049.4,268.4L1049.4,268.4z"/>
		</g>
	</g>
	
		<ellipse transform="matrix(0.249 -0.9685 0.9685 0.249 348.5576 962.0728)" class="st7" cx="794.6" cy="256.3" rx="8.9" ry="11.4"/>
	<g>
		<g>
			<path class="st6" d="M1056.5,277.8c-5.3-7.3-6.4-16.7-2.6-24.9c0.7-1.4-1.5-2.7-2.2-1.3c-4.2,9-3.3,19.4,2.6,27.4
				C1055.3,280.4,1057.5,279.1,1056.5,277.8L1056.5,277.8z"/>
		</g>
	</g>
	<g>
		<g>
			<path class="st6" d="M758.1,265c-13.3,5.1-28.5,1.4-37.5-9.6c-1-1.2-2.8,0.5-1.8,1.8c9.6,11.7,25.9,15.7,40,10.3
				C760.3,266.9,759.6,264.5,758.1,265L758.1,265z"/>
		</g>
	</g>
	<g>
		<g>
			<path class="st8" d="M705.2,254.7c-9-3.3-18.4-5.9-27.9-7.8c-12.4-2.5-27.8-5.3-39.6,0.9c-1.4,0.8-0.2,2.9,1.3,2.2
				c12-6.3,28.5-2.7,41,0.1c8.3,1.9,16.5,4.2,24.5,7.1C706.1,257.6,706.7,255.2,705.2,254.7L705.2,254.7z"/>
		</g>
	</g>
	<g>
		<g>
			<path class="st9" d="M642.8,220.2c-7.6-10.4-20.1-19.9-33.4-20c-2.2,0-4.4,0.2-6.5,0.7c-1.3,0.3-2.6,0.6-3.8,1.2
				c-0.2,0.1,0.4,1.1,0.1,1.1c-0.2,0-0.8-0.9-1-1.1c-3.1-2.1-6.3-3.7-9.7-5.2c-11.4-4.9-23.4-8.5-35.2-12c-1.5-0.5-2.2,2-0.7,2.4
				c12.8,3.8,26,7.5,38.1,13.3c1.7,0.8,5.8,2.7,6.4,3.9c0.2,0.4,0.9,0.8,1.4,0.6c16-6.6,32.7,3.4,42.2,16.4
				C641.6,222.8,643.7,221.6,642.8,220.2L642.8,220.2z"/>
		</g>
	</g>
	<g>
		<g>
			<path class="st10" d="M564.5,205.5c-36.3-14-73.1-27.3-110.4-38c-11.3-3.2-22.7-6.4-34.3-8.1c-1.6-0.2-2.3,2.2-0.7,2.4
				c22.7,3.4,44.9,11,66.6,18.2c21.8,7.2,43.4,14.9,64.8,22.9c4.5,1.7,8.9,3.3,13.4,5.1C565.3,208.5,566,206.1,564.5,205.5
				L564.5,205.5z"/>
		</g>
	</g>
	<g>
		<g>
			<path class="st9" d="M397.4,127.4c-6.8,6.3-19.2,5.3-27.3,3.8c-1.6-0.3-2.2,2.1-0.7,2.4c9.2,1.6,22.2,2.5,29.8-4.5
				C400.4,128.1,398.6,126.3,397.4,127.4L397.4,127.4z"/>
		</g>
	</g>
	<g>
		<g>
			<path class="st9" d="M652.2,216.5c-4.7,17.3-24.1,24.2-39.2,15.2c-3.4-2-6.1-4.7-8.3-8c-1.7-2.7-3.1-5.2-5.7-7.2
				c-2.2-1.6-4.6-2.3-7.1-3.2c-4.9-1.6-9.7-3.4-14.3-5.7c-1.4-0.7-2.7,1.5-1.3,2.2c4.6,2.3,9.4,4.2,14.3,5.8c4.6,1.5,7.9,3,10.6,7.3
				c4.8,7.4,10.6,12.5,19.4,14.7c15,3.8,30-5.8,33.9-20.5C655,215.6,652.6,214.9,652.2,216.5L652.2,216.5z"/>
		</g>
	</g>
	<g>
		<g>
			<path class="st11" d="M1098.4,304c0.2-5.5,0.3-11,0.5-16.5c0.1-2.7,0.5-4.1-1-6c-0.6-0.8-1.6-1.4-2.3-2.2
				c1.4,1.6-0.1,1.6,1.2-0.3c0.9-1.4,2-3.9,2.4-5.6c0.6-2.9,0.2-6.5,0.2-9.5c0-2.7,0-5.4,0-8.1c0-1.4,0.5-3.7-0.3-5
				c-1.5-2.3-5.8-3.8-8.1-5.1c0.3,0.7,0.6,1.4,0.9,2.1c1.3-4.9,3.9-9.5,1.2-14.1c-2.2-3.8-4.6-7.5-7.3-11c-1.9-2.4-4.9-6.7-8.1-7.2
				c-2.1-0.4-3.9,1.3-5.6,2.3c-4.2,2.3-7.8,0.7-12.2-0.4c-4.2-1-8.4-2.1-12.6-3.1c-3.7-0.9-7.1-0.6-11-0.4
				c-17.2,0.9-34.3,2.3-51.4,4.2c-15.9,1.8-31.8,3.9-47.7,6.5c-17.3,2.8-35.7,0.6-53.2,0.4c-8.7-0.1-17.5-0.2-26.2-0.2
				s-16.6-2.3-25-4c-15.8-3.2-31.7-4.9-47.8-6.5c-13.9-1.4-27.9-2.6-41.9-2.1c-9.1,0.3-18,1-27.1-0.6c-12-2-23.6-6.4-35-10.4
				c-6.5-2.2-12.9-4.5-19.3-7c-7.5-2.9-15-6.8-22.7-8.9c-27.1-7.3-54.4-16-79.7-28.2c-9.3-4.5-19.7-6.7-29.9-7.6
				c-17.4-1.5-34.8-7.1-51.8-11.2c-69.5-16.8-138.8-34.4-207.9-52.7c-68.2-18.1-136.2-36.8-204-56.3c-7.5-2.2-15.1-5.1-23-5
				c-2.8,0-7.9,0.2-8.6,3.7c-1.2,5.7,9.9,10.4,13.6,11.8c5.2,2,10.5,3.8,15.7,5.6c28.4,10.2,56.8,20.3,85.2,30.3
				c38.4,13.5,76.9,26.9,115.4,40c32.4,11,64.8,21.9,97.7,31.4c5.1,1.5,10.2,2.9,15.4,4.2c-0.4-0.8-0.9-1.5-1.3-2.3
				c-2,9,13.9,10.6,19.1,12c7,1.9,13.9,4.4,20.8,6.6c28.4,8.9,56.7,17.8,85.1,26.8c26.2,8.2,52.3,16.5,78.5,24.7
				c3.1,1,6.2,2,9.3,2.9c0.7,0.2,1.7,0.7,2.5,0.8c1.4,0.1-0.2-0.3-0.2-0.3c3.3,5.4,8.4,10.3,13.2,14.3c7.6,6.3,14.8,8.9,24.4,9.6
				c5,0.3,10.6,3.6,15.3,5.4c10,3.7,20.1,7.3,30.3,10.3c4.3,1.3,8.6,2.5,13,3.4c1.2,0.2,4,0.1,5.1,0.8c0.6,0.4,3.1,3.9,4.5,4.9
				c9.9,7.4,23.3,6.3,32.4-1.9c-0.8,0.1-1.5,0.2-2.3,0.3c20.3,10.4,43,15.3,65.7,13.7c4.4-0.3,8.8-0.8,13.1-1.6
				c6.1-1,12,0.3,18.2,1.1c13.9,1.9,27.8,3.8,41.6,5.6c25.3,3.4,50.5,7.5,75.9,10.3c25.5,2.8,51.2,3.3,76.8,1.5
				c6.4-0.4,13.9-2.4,20.1-1.1c5.4,1.1,10.6,2.2,16.2,1.8c3.3-0.2,6.5-0.8,9.7-1.7c3.4-1,5.7-0.9,9.1,0.1c7.6,2.1,15.3,4.3,22.9,6.4
				c2.3,0.7,3.3-3,1-3.6c-6.4-1.8-12.7-3.6-19.1-5.4c-2.5-0.7-5.1-1.5-7.6-2.1c-3.1-0.8-4.2,0.1-7.3,1c-6,1.7-12.3,2.1-18.5,1.1
				c-2.2-0.4-4.3-1.1-6.5-1.6c-2.3-0.5-4.5-0.1-6.9,0.2c-25.4,2.6-51,2.8-76.4,0.8c-25-2-49.9-6.2-74.7-9.6
				c-13.5-1.8-27.1-3.7-40.6-5.5c-11.2-1.5-23.5-5-34.7-3.1c-25.9,4.4-52.6,0.2-76-11.8c-0.8-0.4-1.6-0.3-2.3,0.3
				c-5.3,4.7-12.2,6.9-19.2,5.3c-3.6-0.8-6.9-2.5-9.6-4.9c-1.7-1.5-2.6-3.8-4.8-4.5c-2.5-0.8-5.7-0.8-8.4-1.5
				c-4.3-1-8.6-2.3-12.8-3.6c-8.4-2.6-16.7-5.5-24.9-8.6c-5.1-1.9-10.6-4.8-15.9-6.1c-2-0.5-4,0-6.1-0.2c-5.5-0.5-10.6-3.1-15-6.2
				c-6.1-4.3-10.6-9.8-15.3-15.3c-2.4-2.8-6.9-3.3-10.3-4.4c-51.6-16.2-103.1-32.4-154.7-48.7c-9.9-3.1-19.7-6.2-29.6-9.3
				c-1.7-0.5-3.4-1.2-5.1-1.6c-4.2-1.1-8.8-1.2-12.6-3.7c-1-0.7-2.1-1.5-2.6-2.6c-0.2-0.4-0.1-1.2-0.2-0.7c0.2-1-0.3-2-1.3-2.3
				c-27.9-7-55.4-16.4-82.7-25.4c-37.6-12.5-75.1-25.4-112.5-38.5c-32.2-11.3-64.4-22.7-96.5-34.1c-9.7-3.5-19.5-7-29.2-10.5
				c-2.4-0.9-4.8-1.7-7.2-2.6c-0.5-0.2-1-0.3-1.4-0.5c-1.7-0.7-11.1-4.8-10.7-7.1c0.9-5.2,41.5,8.1,45.4,9.2
				c16.4,4.7,32.8,9.3,49.2,13.9c33.2,9.3,66.5,18.4,99.8,27.4c67.3,18.1,134.8,35.5,202.4,52.2c15.9,3.9,31.9,7.8,47.9,11.7
				c7.9,1.9,15.9,3.8,23.8,5.7c4,0.9,7.9,1.9,11.9,2.8c4.1,1,7.9,1.1,12,1.5c10.1,1,20.1,3.4,29.1,8c10.2,5.2,21.3,9,32.1,12.9
				c15.6,5.7,31.5,10,47.4,14.8c7.2,2.2,14.1,5.6,21.1,8.3c6.3,2.4,12.7,4.7,19.1,7c11.4,4,22.9,8.3,34.8,10.5
				c8.4,1.5,16.8,1.5,25.3,1.1c12.9-0.6,25.8-0.1,38.6,1.1c15.6,1.5,31.1,2.8,46.5,5.6c7.3,1.3,14.5,2.9,21.6,4.6
				c7.6,1.9,16.1,0.9,23.9,1c17.1,0.1,34.2,0.4,51.3,0.8c16,0.4,32-3.7,47.9-5.7c16.6-2.1,33.2-3.8,49.9-5c7.6-0.6,15.4-1.6,23-1.4
				c4.4,0.1,8.8,1.7,13.1,2.7c1.9,0.5,3.9,1,5.8,1.4c2.2,0.5,5.6,2.1,7.8,1.9c2.3-0.2,4.1-1.8,6.1-2.8c2.8-1.5,3.3-0.9,5.5,1.3
				c3.4,3.5,6.1,7.8,8.7,12c0.7,1.1,1.2,2.4,2,3.4c0.6,0.7-0.2,0.8,0.1-0.8c-0.1,0.5-0.2,1.1-0.4,1.5c-1.1,2.7-1.5,6-2.3,8.8
				c-0.2,0.8,0.1,1.7,0.9,2.1c1.8,1.1,3.6,2.1,5.4,3.2c1.1,0.7,1.4,0.9,1.5,1.4c0,0.1-0.4,2.7-0.4,3.3c0,1.7,0,3.4,0,5
				c0,3.7,0.5,8-0.5,11.6c-0.6,2.2-1.8,4.4-2.8,6.5c-0.2,0.6,0.1,1.4,0.5,1.8c2.4,2.3,2.7,2.4,2.4,5.8c-0.6,5.4-0.3,11-0.5,16.5
				C1094.6,306.4,1098.4,306.4,1098.4,304z"/>
		</g>
	</g>
</g>
</svg>
