<?xml version="1.0" encoding="utf-8"?>
<!-- Generator: Adobe Illustrator 21.0.2, SVG Export Plug-In . SVG Version: 6.00 Build 0)  -->
<svg version="1.1" id="Layer_1" xmlns="http://www.w3.org/2000/svg" xmlns:xlink="http://www.w3.org/1999/xlink" x="0px" y="0px"
	 viewBox="0 0 990.9 708.2" style="enable-background:new 0 0 990.9 708.2;" xml:space="preserve">
<style type="text/css">
	.st0{fill:#392D2A;}
	.st1{fill:#271F1A;}
	.st2{fill:#E6E7E8;}
	.st3{fill:#1D1715;}
	.st4{fill:#1D191B;}
</style>
<g>
	<path class="st0" d="M25.6,50.5l87.4,64.9l286.2,206.2l239.7,163.6c-1.9,6.7-1.6,11.9,1.2,13.7s7.5,0.1,12.8-4.2l26.2,17.8
		c-1.6,6.3-1.3,11.1,1.4,12.9c2.7,1.8,7.1,0.2,12.2-3.7l218.1,148c1.9,1.5,3.9,2.8,6,4c8,4.8,15.8,6.6,24.2,8.6
		c11.5,2.7,25.5,6,28.8,0.9c3.5-5.4-6.3-17.8-14.1-27.7c-5.8-7.4-9.9-12.6-16.4-17.3c-0.8-0.6-1.6-1.1-2.4-1.6L717.4,486
		c2.6-7.8,2.6-14-0.5-16s-8.6,0.3-14.6,5.7l-25-17.2c2.3-7.3,2.2-13-0.8-15c-3-1.9-8.1,0.2-13.9,5L421.4,286L129.2,88.9L51,33.3
		c0,0-13.7-9-21.1,0.5C22.6,43.3,25.6,50.5,25.6,50.5z"/>
	<path class="st1" d="M30,33.8c-7.3,9.5-4.4,16.7-4.4,16.7l87.4,64.9l286.2,206.2l239.7,163.6c-1.9,6.7-1.6,11.9,1.2,13.7
		s7.5,0.1,12.8-4.2l26.2,17.8c-1.6,6.3-1.3,11.1,1.4,12.9c2.7,1.8,7.1,0.2,12.2-3.7l218.1,148c1.9,1.5,3.9,2.8,6,4
		c8,4.8,15.8,6.6,24.2,8.6c4.4,1,9.1,1.9,13.5,2.9c13.5,2.9,15.3-2,15.3-2L30,33.8z"/>
	<g>
		<g>
			<path class="st2" d="M941.9,654.9c-8-5.5-16-10.9-24-16.4c-21.8-14.8-43.6-29.7-65.4-44.5c-32.1-21.9-64.2-43.7-96.3-65.6
				c-39.2-26.6-78.3-53.3-117.5-79.9c-43-29.3-86-58.6-129.1-87.8c-43.3-29.5-86.6-58.9-129.9-88.4c-40.4-27.5-80.7-54.9-121.1-82.4
				c-34.2-23.3-68.4-46.6-102.7-69.9c-24.6-16.7-49.2-33.5-73.8-50.2c-11.6-7.9-23-16-34.8-23.7c-0.5-0.3-1-0.7-1.5-1
				c-2-1.4-3.9,1.9-1.9,3.2c8,5.5,16,10.9,24,16.4c21.8,14.8,43.6,29.7,65.4,44.5c32.1,21.9,64.2,43.7,96.3,65.6
				c39.2,26.6,78.3,53.3,117.5,79.9c43,29.3,86,58.6,129.1,87.8c43.3,29.5,86.6,58.9,129.9,88.4c40.4,27.5,80.7,54.9,121.1,82.4
				c34.2,23.3,68.4,46.6,102.7,69.9c24.6,16.7,49.2,33.5,73.8,50.2c11.6,7.9,23,16,34.8,23.7c0.5,0.3,1,0.7,1.5,1
				C942,659.5,943.9,656.2,941.9,654.9L941.9,654.9z"/>
		</g>
	</g>
	<path class="st3" d="M702.5,473.9c4.9,5.3,1.1,17.2-3.5,24.3c-1,1.6-8.7,13.6-18.2,12.6c-1.5-0.2-2.7-0.6-3.6-1
		c-2.2,5.8-1.7,11.3,1.2,13.4c3.3,2.4,8.7-0.4,12.6-2.5c8.3-4.4,12.9-10.9,16.1-15.7c2.6-3.9,7.3-10.9,9.1-21.1
		c1-5.5,2.5-13.8-1.5-16.2c-3.1-1.9-8.8,0.4-13.7,5C701.4,473,702,473.4,702.5,473.9z"/>
	<path class="st3" d="M662.4,446.4c4.9,5.3,1.1,17.2-3.5,24.3c-1,1.6-8.7,13.6-18.2,12.6c-1.5-0.2-2.7-0.6-3.6-1
		c-2.2,5.8-1.7,11.3,1.2,13.4c3.3,2.4,8.7-0.4,12.6-2.5c8.3-4.4,12.9-10.9,16.1-15.7c2.6-3.9,7.3-10.9,9.1-21.1
		c1-5.5,2.5-13.8-1.5-16.2c-3.1-1.9-8.8,0.4-13.7,5C661.4,445.4,661.9,445.8,662.4,446.4z"/>
	<g>
		<g>
			<path class="st4" d="M31.9,56.4c44.7,33.8,89.5,67.3,134.8,100.1c50.7,36.7,101.3,73.4,152,110.1c26.5,19.2,52.7,38.9,79.5,57.5
				c38.1,26.4,76.6,52.3,114.8,78.5c40.6,27.8,81.2,55.5,121.8,83.3c0.7,0.5,1.4,1,2.1,1.4c-0.3-0.7-0.6-1.4-0.9-2.1
				c-1.3,4.7-3.4,12.8,1.6,16.2c5.1,3.5,11.8-1.8,15.6-4.8c-0.8,0.1-1.5,0.2-2.3,0.3c8.7,5.9,17.5,11.9,26.2,17.8
				c-0.3-0.7-0.6-1.4-0.9-2.1c-1.5,6-2.6,17.8,7.1,16.3c1.8-0.3,3.6-1.2,5.2-2c0.2-0.1,4.3-2.7,2.3-2.8c0.3,0,0.6,0.5,0.8,0.6
				c1.6,0.6,3.3,2.2,4.7,3.2c2.6,1.8,5.2,3.6,7.9,5.3c18.9,12.8,37.8,25.7,56.6,38.5c43.9,29.9,87.8,59.7,131.7,89.6
				c4.8,3.3,9.6,6.5,14.4,9.8c1.1,0.7,2.2,1.5,3.2,2.3c10.6,7.6,23.1,10.3,35.6,12.8c6.5,1.3,18.9,4.9,24.3-0.9
				c5.8-6.2-2.5-17.1-6-22.1c-7.9-11.3-16.1-22.2-27.5-30c-35.6-24.4-71.1-49-106.7-73.4c-36.5-25.1-72.9-50.2-109.4-75.3
				c-0.6-0.4-1.3-0.9-1.9-1.3c0.3,0.7,0.6,1.4,0.9,2.1c1.6-5,4.8-14.7-0.8-18.6c-5.7-3.9-13.5,2.9-17.4,6.4c0.8-0.1,1.5-0.2,2.3-0.3
				c-8.3-5.7-16.7-11.5-25-17.2c0.3,0.7,0.6,1.4,0.9,2.1c1.5-4.8,4.1-13.9-1.2-17.5c-5.4-3.7-12.8,2.4-16.7,5.7
				c0.8-0.1,1.5-0.2,2.3-0.3c-13.3-9-26.7-18-40-27c-29-19.6-58.1-39.2-87.1-58.8c-27.8-18.7-55.5-37.4-83.3-56.2
				c-10.5-7.1-20.9-14.1-31.4-21.2c-14.2-9.6-28.4-19.2-42.6-28.8c-28-18.9-56.1-37.9-84.1-56.8c-30.2-20.4-60.4-40.8-90.6-61.2
				c-21.1-14.2-42.2-28.5-63.3-42.7c-11.5-7.7-22.7-15.8-33.9-23.8C93.1,58.8,78.6,48.5,64.2,38.2c-3.7-2.6-7.5-5.1-11.1-7.9
				c-6.9-5.3-15.8-6.7-22.8-0.5c-8,7.1-7.2,20,1.1,26.4c1.9,1.5,4.6-1.2,2.7-2.7c-6-4.7-7.8-13.6-2.5-19.7
				c5.4-6.3,13.2-5.2,19.2-0.7c2.6,2,5.3,3.8,8,5.7C72.4,48.5,86,58.2,99.5,67.9c12.3,8.8,24.5,17.7,37,26.1
				c19.3,13,38.5,26,57.8,39c29.2,19.7,58.5,39.5,87.7,59.2c28.4,19.2,56.8,38.4,85.2,57.5c16.8,11.3,33.6,22.7,50.3,34
				c7.8,5.2,15.5,10.5,23.3,15.7c25.2,17,50.4,34,75.7,51c29.6,19.9,59.1,39.9,88.7,59.8c18.1,12.2,36.2,24.4,54.3,36.6
				c0.9,0.6,1.8,1.2,2.6,1.8c0.7,0.5,1.7,0.2,2.3-0.3c2.5-2.1,9.7-8.5,12.6-4.3c2.2,3.2,0,9.2-1,12.4c-0.3,0.8,0.2,1.7,0.9,2.1
				c8.3,5.7,16.7,11.5,25,17.2c0.7,0.5,1.7,0.2,2.3-0.3c2.4-2.1,10.3-9.3,13.3-5c2.4,3.4-0.2,10.1-1.4,13.6
				c-0.3,0.8,0.2,1.7,0.9,2.1c28.3,19.5,56.5,38.9,84.8,58.4c40.3,27.7,80.6,55.4,120.8,83.2c4.1,2.8,8.2,5.7,12.3,8.5
				c11.3,7.7,19.5,18.9,27.1,30.1c2.5,3.6,7,9.5,6.4,14.2c-0.7,5.2-9.1,3.9-12.6,3.5c-12-1.4-25.8-4-36.6-9.6c-4.8-2.5-9.2-6-13.7-9
				c-36.7-25-73.5-50-110.2-75c-33.5-22.8-67.1-45.6-100.6-68.4c-0.6-0.4-1.2-0.8-1.8-1.2c-0.5-0.3-1.4-0.4-1.9,0
				c-2.4,1.8-6.8,5.5-9.9,4.2c-3.7-1.6-1.7-8.4-0.9-11.3c0.2-0.9-0.2-1.6-0.9-2.1c-8.7-5.9-17.5-11.9-26.2-17.8
				c-0.7-0.5-1.6-0.2-2.3,0.3c-2.5,2-8.8,7.2-11.5,3.3c-1.9-2.8-0.1-8.2,0.6-11.1c0.2-0.8-0.2-1.6-0.9-2.1
				c-34.7-23.7-69.4-47.5-104.2-71.2c-43.3-29.6-86.7-59.3-130-88.9c-22.8-15.6-44.8-32.2-67.1-48.4
				c-50.9-36.8-101.7-73.6-152.6-110.5c-37.9-27.4-75.6-54.9-112.9-83.1c-12.8-9.6-25.5-19.3-38.3-28.9C31.9,51.7,30,54.9,31.9,56.4
				z"/>
		</g>
	</g>
</g>
</svg>
