<?xml version="1.0" encoding="utf-8"?>
<!-- Generator: Adobe Illustrator 21.0.2, SVG Export Plug-In . SVG Version: 6.00 Build 0)  -->
<svg version="1.1" id="Layer_1" xmlns="http://www.w3.org/2000/svg" xmlns:xlink="http://www.w3.org/1999/xlink" x="0px" y="0px"
	 viewBox="0 0 132.6 1133.9" style="enable-background:new 0 0 132.6 1133.9;" xml:space="preserve">
<style type="text/css">
	.st0{fill:#1D191B;}
	.st1{fill:#BCBBC3;}
	.st2{fill:#5C5555;}
	.st3{fill:#E6E4EA;}
	.st4{fill:#D0CECE;}
	.st5{fill:#E2E2E2;}
</style>
<g>
	<circle class="st0" cx="35.3" cy="906.8" r="2.1"/>
	<circle class="st0" cx="37.5" cy="918.1" r="2.1"/>
	<circle class="st0" cx="37.5" cy="929.8" r="2.1"/>
	<circle class="st0" cx="39.6" cy="940.5" r="2.1"/>
	<circle class="st0" cx="39.9" cy="1053.3" r="2.1"/>
	<path class="st1" d="M71.1,25.9l-2,101.2c-4,4.7-6.5,11.9-6.5,19.9c0,7.5,2.2,14.2,5.8,18.9l-3.1,155.9
		c-8.6,5.2-14.6,17.3-14.6,31.4c0,13.4,5.4,25,13.3,30.6l-1.5,74.5l-2.3,68.8c-8.5,5.1-14.4,16.1-14.4,28.9c0,11.8,5,22.1,12.5,27.6
		l-4.5,132.5c-9.2,6.3-15.4,18.8-15.4,33.2c0,13.2,5.3,24.8,13.2,31.5l-3.8,112.5c-8.3,3.5-14.2,11.7-14.2,21.3v18.9
		c0,8.8,5,16.4,12.2,20.3l0,0v69.7c-6.6,5.7-10.8,14.6-10.8,24.6c0,12,6.1,22.4,15.1,27.7l0,0l-9.3,27h0.1c-1.2,2-1.9,4.3-1.9,6.8
		c0,7.5,6.3,13.6,14,13.6c6,0,11-3.6,13-8.7c2,5.1,7.1,8.7,13.1,8.7c7.8,0,14.1-6.1,14.1-13.6c0-3.3-1.2-6.3-3.3-8.7l-12.9-25l0,0
		c9-5.3,15.1-15.7,15.1-27.7c0-10.3-4.5-19.5-11.5-25.2l0.7-67.1c9.9-2.5,17.4-11.6,17.4-22.3v-18.9c0-10.5-7.1-19.4-16.7-22.1
		L83.2,781c8-6.7,13.3-18.3,13.3-31.5c0-12.9-5-24.2-12.6-31l1.4-135.7c6.8-5.7,11.2-15.5,11.2-26.6c0-10.8-4.2-20.3-10.7-26.1
		l1.5-147.8c6.8-6,11.3-16.7,11.3-29c0-11.9-4.2-22.3-10.7-28.4l1.6-155.4c5.4-4.4,9-12.8,9-22.4c0-9.3-3.4-17.4-8.6-22L91,23.3
		c0,0-1.6-11.1-10.4-10.8C71.7,12.7,71.1,25.9,71.1,25.9z"/>
	<path class="st2" d="M76.1,13.9c-4.7,3.5-5.1,12-5.1,12l-2,101.2c-4,4.7-6.5,11.9-6.5,19.9c0,7.5,2.2,14.2,5.8,18.9l-3.1,155.9
		c-8.6,5.2-14.6,17.3-14.6,31.4c0,13.4,5.4,25,13.3,30.6l-1.5,74.5l-2.3,68.8c-8.5,5.1-14.4,16.1-14.4,28.9c0,11.8,5,22.1,12.5,27.6
		l-4.5,132.5c-9.2,6.3-15.4,18.8-15.4,33.2c0,13.2,5.3,24.8,13.2,31.5l-3.8,112.5c-8.3,3.5-14.2,11.7-14.2,21.3v18.9
		c0,8.8,5,16.4,12.2,20.3l0,0v69.7c-6.6,5.7-10.8,14.6-10.8,24.6c0,12,6.1,22.4,15.1,27.7l0,0l-9.3,27h0.1c-1.2,2-1.9,4.3-1.9,6.8
		c0,7.5,6.3,13.6,14,13.6c4.3-1.1,9.8-3.3,12.4-8.1c3.1-5.8-0.6-10.7-3.8-23.7c-3.9-15.6-3.7-29.2-3.6-41.2
		c0.1-6.4,0.4-5.4,0.9-16.1c0.9-18.9,0-23.2,0-49.6c0-29.1,1.2-28.4-0.1-37.6c-0.9-6.4-2.3-12.8-2-22.4c0.3-10.1,2.3-17.5,3-20.3
		c3.7-14.8,1.6-22,3.3-74.9c1.4-43,3-45.7,0.6-56.1c-0.7-3.2-3-11.9-2.4-23.6c0.5-10,2.8-17.3,3.5-19.7c4.6-15.8,2.4-29,3.7-79.4
		c1.1-45.8,3.7-63-0.1-77c-0.5-1.9-2.4-8.5-2.3-17.3c0.1-10.2,2.8-17.6,3-18.5C72.4,526.5,75.1,383.3,76.1,13.9z"/>
	<g>
		<g>
			<path class="st3" d="M77.9,108.6c0.5-24.6,0.9-49.2,1.4-73.8c0-1.6-2.5-1.6-2.5,0c-0.5,24.6-0.9,49.2-1.4,73.8
				C75.3,110.2,77.8,110.2,77.9,108.6L77.9,108.6z"/>
		</g>
	</g>
	<g>
		<g>
			<path class="st3" d="M78.6,319.1c0.5-43.9,0.9-87.7,1.4-131.6c0-1.6-2.5-1.6-2.5,0c-0.5,43.9-0.9,87.7-1.4,131.6
				C76.1,320.7,78.6,320.7,78.6,319.1L78.6,319.1z"/>
		</g>
	</g>
	<g>
		<g>
			<path class="st3" d="M77.2,472.7c0.5-24.6,0.9-49.2,1.4-73.8c0-1.6-2.5-1.6-2.5,0c-0.5,24.6-0.9,49.2-1.4,73.8
				C74.6,474.3,77.1,474.3,77.2,472.7L77.2,472.7z"/>
		</g>
	</g>
	<g>
		<g>
			<path class="st3" d="M62.7,711.2c0.5-24.6,0.9-49.2,1.4-73.8c0-1.6-2.5-1.6-2.5,0c-0.5,24.6-0.9,49.2-1.4,73.8
				C60.2,712.8,62.7,712.8,62.7,711.2L62.7,711.2z"/>
		</g>
	</g>
	<g>
		<g>
			<path class="st3" d="M70.6,674.2c0.5-24.6,0.9-49.2,1.4-73.8c0-1.6-2.5-1.6-2.5,0c-0.5,24.6-0.9,49.2-1.4,73.8
				C68.1,675.8,70.6,675.8,70.6,674.2L70.6,674.2z"/>
		</g>
	</g>
	<g>
		<g>
			<path class="st3" d="M68.5,847.3c0.5-16.4,0.9-32.9,1.4-49.3c0-1.6-2.5-1.6-2.5,0c-0.5,16.4-0.9,32.9-1.4,49.3
				C66,848.9,68.5,848.9,68.5,847.3L68.5,847.3z"/>
		</g>
	</g>
	<path class="st2" d="M69,122.1c-7.4,19.8-7.3,28.6-5.4,32.8c0.4,0.9,2.4,4.8,3,10.4c0.3,2.9,0.2,5.2,0,6.8
		c1.4-0.9,12.9-8.4,14.3-23C82.5,132.8,69.8,122.7,69,122.1z"/>
	<path class="st4" d="M85.5,180.2l4.4,0.1l0.1-11.5c1.7-1.8,9.2-10,9-22.4c-0.1-7.6-3.1-13.2-4.7-15.9c-2.2-1.7-4.3-3.5-6.5-5.2
		c0.6,6.8,0.9,14.2,0.7,22.1C88.3,159.7,87.1,170.7,85.5,180.2z"/>
	<path class="st2" d="M87.1,325.4c0,0-7.5-8-22.5-3c-15.1,5-14.6,31.4-14.6,31.4s-1.5,23.4,13.3,30.6c0,0,12.2-35,34.5-38.3
		C97.9,346,94.4,329.3,87.1,325.4z"/>
	<path class="st2" d="M85,531.4c0,0-7.5-8-22.5-3c-15.1,5-14.6,31.4-14.6,31.4c0.5-1.5,4.4-13.4,16.3-17.8
		c10.8-3.9,23.7,0,31.6,10.1C95.8,552.1,92.3,535.3,85,531.4z"/>
	<path class="st2" d="M75.5,1020.7c-3.7-1.9-9.1-3.8-15.2-2.9c-12.2,1.7-22.6,13.8-25.3,30.2c1.1-1.6,10.5-14.8,27.8-15.8
		c15.6-0.9,25.8,8.8,27.4,10.4c-0.6-2.8-1.8-6.8-4.5-11.1C82.4,1025.9,78.1,1022.5,75.5,1020.7z"/>
	<circle class="st5" cx="84.1" cy="152.4" r="10.4"/>
	<circle class="st5" cx="83" cy="363.2" r="6.1"/>
	<circle class="st5" cx="72.9" cy="561.6" r="14.3"/>
	<circle class="st5" cx="79" cy="740.1" r="8.2"/>
	<circle class="st5" cx="75" cy="918" r="14.1"/>
	<ellipse class="st5" cx="70.4" cy="1054.8" rx="11.6" ry="12.6"/>
	<circle class="st0" cx="76.6" cy="129" r="2.1"/>
	<circle class="st0" cx="74.4" cy="138" r="2.1"/>
	<circle class="st0" cx="66.6" cy="140.1" r="2.1"/>
	<circle class="st0" cx="79.6" cy="142.8" r="2.1"/>
	<circle class="st0" cx="76.6" cy="150.7" r="2.1"/>
	<circle class="st0" cx="71" cy="146.8" r="2.1"/>
	<circle class="st0" cx="66.6" cy="152.4" r="2.1"/>
	<circle class="st0" cx="75.8" cy="158.2" r="2.1"/>
	<circle class="st0" cx="68.8" cy="160" r="2.1"/>
	<circle class="st0" cx="73.7" cy="167.2" r="2.1"/>
	<circle class="st0" cx="82.8" cy="133.7" r="2.1"/>
	<circle class="st0" cx="73.7" cy="174.8" r="2.1"/>
	<circle class="st0" cx="91.7" cy="135.8" r="2.1"/>
	<circle class="st0" cx="54.3" cy="341.5" r="2.1"/>
	<circle class="st0" cx="58.5" cy="348.1" r="2.1"/>
	<circle class="st0" cx="63.3" cy="355.3" r="2.1"/>
	<circle class="st0" cx="64.9" cy="341.5" r="2.1"/>
	<circle class="st0" cx="65.5" cy="370.2" r="2.1"/>
	<circle class="st0" cx="80.4" cy="368.1" r="2.1"/>
	<circle class="st0" cx="82.5" cy="376.9" r="2.1"/>
	<circle class="st0" cx="74.1" cy="374.8" r="2.1"/>
	<circle class="st0" cx="69.8" cy="348.1" r="2.1"/>
	<circle class="st0" cx="71.9" cy="357.1" r="2.1"/>
	<circle class="st0" cx="69.8" cy="332.8" r="2.1"/>
	<circle class="st0" cx="74.7" cy="339.4" r="2.1"/>
	<circle class="st0" cx="78.2" cy="348.1" r="2.1"/>
	<circle class="st0" cx="80.8" cy="357.4" r="2.1"/>
	<circle class="st0" cx="88.4" cy="361.7" r="2.1"/>
	<circle class="st0" cx="87" cy="345.9" r="2.1"/>
	<circle class="st0" cx="91.9" cy="354.9" r="2.1"/>
	<circle class="st0" cx="67.1" cy="379" r="2.1"/>
	<circle class="st0" cx="74.1" cy="387.8" r="2.1"/>
	<circle class="st0" cx="54.1" cy="538.3" r="2.1"/>
	<circle class="st0" cx="60.8" cy="545.2" r="2.1"/>
	<circle class="st0" cx="52" cy="567" r="2.1"/>
	<circle class="st0" cx="58.6" cy="556" r="2.1"/>
	<circle class="st0" cx="60.8" cy="531.7" r="2.1"/>
	<circle class="st0" cx="67.4" cy="538.3" r="2.1"/>
	<circle class="st0" cx="78.5" cy="536.2" r="2.1"/>
	<circle class="st0" cx="76.4" cy="545.2" r="2.1"/>
	<circle class="st0" cx="66.7" cy="549.4" r="2.1"/>
	<circle class="st0" cx="67.4" cy="560.3" r="2.1"/>
	<circle class="st0" cx="65.3" cy="569.2" r="2.1"/>
	<circle class="st0" cx="58.4" cy="573.8" r="2.1"/>
	<circle class="st0" cx="52" cy="551.6" r="2.1"/>
	<circle class="st0" cx="78.5" cy="556" r="2.1"/>
	<circle class="st0" cx="76.4" cy="567" r="2.1"/>
	<circle class="st0" cx="67.4" cy="578.1" r="2.1"/>
	<circle class="st0" cx="75.1" cy="575.9" r="2.1"/>
	<circle class="st0" cx="87.2" cy="540.5" r="2.1"/>
	<circle class="st0" cx="85.1" cy="549.4" r="2.1"/>
	<circle class="st0" cx="85.1" cy="560.3" r="2.1"/>
	<circle class="st0" cx="85.1" cy="569.2" r="2.1"/>
	<circle class="st0" cx="91.5" cy="556" r="2.1"/>
	<circle class="st0" cx="91.5" cy="564.9" r="2.1"/>
	<circle class="st0" cx="46" cy="730.9" r="2.1"/>
	<circle class="st0" cx="54.8" cy="735.2" r="2.1"/>
	<circle class="st0" cx="46" cy="741.6" r="2.1"/>
	<circle class="st0" cx="72.2" cy="736" r="3.4"/>
	<circle class="st0" cx="61.5" cy="741.6" r="2.1"/>
	<circle class="st0" cx="54.8" cy="748.2" r="2.1"/>
	<circle class="st0" cx="48.1" cy="755.3" r="2.1"/>
	<circle class="st0" cx="43.9" cy="761.3" r="2.1"/>
	<circle class="st0" cx="46" cy="772.8" r="2.1"/>
	<circle class="st0" cx="52.7" cy="767.8" r="2.1"/>
	<circle class="st0" cx="56.9" cy="759.2" r="2.1"/>
	<circle class="st0" cx="65.8" cy="752.5" r="2.1"/>
	<circle class="st0" cx="73" cy="745.5" r="2.7"/>
	<circle class="st0" cx="80.1" cy="742.5" r="3.4"/>
	<circle class="st0" cx="87.6" cy="737.3" r="2.1"/>
	<circle class="st0" cx="54.8" cy="779.2" r="2.1"/>
	
		<ellipse transform="matrix(0.9977 -6.807513e-02 6.807513e-02 0.9977 -52.1263 5.9678)" class="st0" cx="61.5" cy="767.8" rx="2.1" ry="2.1"/>
	<circle class="st0" cx="63.6" cy="777.1" r="2.1"/>
	<circle class="st0" cx="70" cy="761.3" r="2.1"/>
	<circle class="st0" cx="79.3" cy="755.3" r="2.1"/>
	<circle class="st0" cx="86.4" cy="750.3" r="2.1"/>
	<circle class="st0" cx="74.6" cy="770.6" r="2.1"/>
	<circle class="st0" cx="74.6" cy="779.2" r="2.1"/>
	<circle class="st0" cx="81.4" cy="763.5" r="2.1"/>
	<circle class="st0" cx="89.8" cy="759.2" r="2.1"/>
	<circle class="st0" cx="87.6" cy="769.9" r="2.1"/>
	<circle class="st0" cx="81.4" cy="777.1" r="2.1"/>
	<circle class="st0" cx="81" cy="733" r="2.1"/>
	<circle class="st0" cx="75.1" cy="724.4" r="3.7"/>
	<circle class="st0" cx="61.5" cy="726" r="2.1"/>
	<circle class="st0" cx="67.9" cy="863.1" r="2.1"/>
	<circle class="st0" cx="59.4" cy="865.9" r="2.1"/>
	<circle class="st0" cx="50.9" cy="865.9" r="2.1"/>
	<circle class="st0" cx="54.1" cy="856.7" r="2.1"/>
	<circle class="st0" cx="76.8" cy="870.1" r="2.1"/>
	<circle class="st0" cx="65.8" cy="872.3" r="2.1"/>
	<circle class="st0" cx="54.8" cy="874.4" r="2.1"/>
	<circle class="st0" cx="50.9" cy="885.3" r="2.1"/>
	<circle class="st0" cx="58.4" cy="885.3" r="2.1"/>
	<circle class="st0" cx="74.7" cy="878.7" r="2.1"/>
	<circle class="st0" cx="67.1" cy="885.3" r="2.1"/>
	
		<ellipse transform="matrix(5.063187e-02 -0.9987 0.9987 5.063187e-02 -809.2544 919.2498)" class="st0" cx="78.9" cy="885.3" rx="2.1" ry="2.1"/>
	<circle class="st0" cx="48.2" cy="896.4" r="2.1"/>
	<circle class="st0" cx="45" cy="905.6" r="2.1"/>
	<circle class="st0" cx="54.8" cy="901.4" r="2.1"/>
	<circle class="st0" cx="61.6" cy="894.3" r="2.1"/>
	<circle class="st0" cx="70.4" cy="894.3" r="2.1"/>
	<circle class="st0" cx="79" cy="898.6" r="2.1"/>
	<circle class="st0" cx="81.1" cy="909.5" r="2.1"/>
	<circle class="st0" cx="88.2" cy="900.7" r="2.1"/>
	<circle class="st0" cx="72.6" cy="903.5" r="2.1"/>
	<circle class="st0" cx="61.6" cy="907.4" r="2.1"/>
	<circle class="st0" cx="39.1" cy="914.5" r="2.1"/>
	<circle class="st0" cx="54.1" cy="917.7" r="3.2"/>
	<circle class="st0" cx="70.4" cy="914.5" r="2.1"/>
	<circle class="st0" cx="45.7" cy="923.8" r="3.1"/>
	<circle class="st0" cx="47.4" cy="934.7" r="3.5"/>
	<circle class="st0" cx="57.5" cy="928.4" r="3.3"/>
	<circle class="st0" cx="90.9" cy="920.7" r="2.1"/>
	<circle class="st0" cx="80.3" cy="922.3" r="2.1"/>
	
		<ellipse transform="matrix(0.3292 -0.9443 0.9443 0.3292 -830.4697 687.382)" class="st0" cx="68.6" cy="928.2" rx="3.3" ry="3.3"/>
	<circle class="st0" cx="86.1" cy="929.6" r="2.1"/>
	<circle class="st0" cx="88.2" cy="941.1" r="2.1"/>
	<circle class="st0" cx="83.2" cy="950" r="2.1"/>
	<circle class="st0" cx="64" cy="937.2" r="3.2"/>
	<circle class="st0" cx="72.2" cy="947.5" r="2.1"/>
	<circle class="st0" cx="55.6" cy="942.1" r="3.2"/>
	<circle class="st0" cx="46" cy="949.6" r="2.1"/>
	<circle class="st0" cx="61.5" cy="953.8" r="2.1"/>
	<circle class="st0" cx="74.6" cy="1071.5" r="2.1"/>
	<circle class="st0" cx="48.4" cy="1071.5" r="2.1"/>
	<circle class="st0" cx="44.1" cy="1060.2" r="2.1"/>
	<circle class="st0" cx="41.5" cy="1047" r="2.1"/>
	<circle class="st0" cx="65.9" cy="1067.3" r="2.1"/>
	<circle class="st0" cx="54.9" cy="1064.5" r="2.1"/>
	<circle class="st0" cx="45.8" cy="1033.8" r="2.1"/>
	<circle class="st0" cx="39.4" cy="1038.1" r="2.1"/>
	<circle class="st0" cx="50.5" cy="1053.8" r="2.1"/>
	<circle class="st0" cx="50.5" cy="1042.3" r="2.1"/>
	<circle class="st0" cx="57.9" cy="1045.7" r="2.9"/>
	<circle class="st0" cx="62.8" cy="1055.3" r="3.2"/>
	<circle class="st0" cx="73.6" cy="1059.2" r="3.2"/>
	<circle class="st0" cx="83.6" cy="1060.2" r="2.1"/>
	<circle class="st0" cx="73.6" cy="1050.1" r="3.2"/>
	<circle class="st0" cx="83.6" cy="1049.1" r="2.1"/>
	<circle class="st0" cx="67" cy="1043.8" r="3.2"/>
	<circle class="st0" cx="76.7" cy="1040.2" r="2.1"/>
	<circle class="st0" cx="85.7" cy="1038.1" r="2.1"/>
	<circle class="st0" cx="52.6" cy="1028.9" r="2.1"/>
	<circle class="st0" cx="61.7" cy="1033.8" r="2.1"/>
	<circle class="st0" cx="70.2" cy="1033.8" r="2.1"/>
	<circle class="st0" cx="79.3" cy="1029.5" r="2.1"/>
	<circle class="st0" cx="68.1" cy="1024.7" r="2.1"/>
	<circle class="st0" cx="59.2" cy="1022.5" r="2.1"/>
	<circle class="st0" cx="52.6" cy="1018.3" r="2.1"/>
	<circle class="st0" cx="59.2" cy="1014" r="2.1"/>
	<circle class="st0" cx="70.2" cy="1009.7" r="2.1"/>
	<circle class="st0" cx="61.7" cy="1005.5" r="2.1"/>
	<circle class="st0" cx="54.8" cy="965.1" r="2.1"/>
	<circle class="st0" cx="50.5" cy="971.9" r="2.1"/>
	<circle class="st0" cx="72.6" cy="365.9" r="2.1"/>
	<circle class="st0" cx="90.5" cy="370.2" r="2.1"/>
	<circle class="st0" cx="83" cy="385.6" r="2.1"/>
	<circle class="st0" cx="75.9" cy="381.2" r="2.1"/>
	<circle class="st0" cx="57.8" cy="334.1" r="2.1"/>
	<circle class="st0" cx="63.3" cy="327.3" r="2.1"/>
	<circle class="st0" cx="76.8" cy="936.1" r="2.1"/>
	<path class="st0" d="M49.5,1076.3c-3.3,10.7-6.7,21.4-10,32c-0.2,1.4-0.6,5.1,1.5,8.9c3.7,6.8,11.8,7.3,12.3,7.3
		c6,0.2,11.7-3.3,14.5-9c-0.9-5.5-1.8-11.4-2.5-17.5c-0.7-6.5-1.2-12.7-1.5-18.6c-1.5-0.8-3.6-1.7-6-2.3
		C54.4,1076.3,51.5,1076.2,49.5,1076.3z M59.3,1084.7c0,6.9,0,13.8,0,20.7c-0.5,4.7-3.1,7.8-5.5,7.9c-1.6,0-3.2-1.3-4-2.5
		c-1.7-2.7-0.4-5.5,1.6-12.3c3-10.4,3.4-15.1,5.5-15.3C57.5,1083.1,58.3,1083.3,59.3,1084.7z"/>
	<circle class="st0" cx="59.2" cy="1073.7" r="2.1"/>
	<path class="st0" d="M73.7,1121.3c0.6,0.4,3.6,2.2,7.4,1.3c2.5-0.6,4.1-2,4.7-2.7c-0.3-1.7-0.9-3.7-2-6c-2.3-4.7-5.6-7.5-7.6-9
		c0.4,1.5,3.6,14.5-0.1,16.4C75.6,1121.6,74.8,1121.7,73.7,1121.3z"/>
	<path class="st0" d="M89.9,1114.2c0,0,6.2,2.2,4.4-6.6c-0.3-1.5-1-4.1-3.3-5.3c-2.2-1.1-5.2-0.5-7.4,1.4c1,0.5,2.8,1.6,4.2,3.7
		C89.8,1110.3,89.9,1113.2,89.9,1114.2z"/>
	<g>
		<g>
			<path class="st1" d="M57.5,1108.2c0.3-7,0.7-14.1,1-21.1c0-0.8-1.2-0.8-1.2,0c-0.3,7-0.7,14.1-1,21.1
				C56.2,1109,57.5,1109,57.5,1108.2L57.5,1108.2z"/>
		</g>
	</g>
	<g>
		<g>
			<path class="st5" d="M71.8,1112.7c-1-10.6-2-21.3-3-31.9c-0.1-1.6-2.6-1.6-2.5,0c1,10.6,2,21.3,3,31.9
				C69.5,1114.3,72,1114.3,71.8,1112.7L71.8,1112.7z"/>
		</g>
	</g>
	<g>
		<g>
			<path class="st5" d="M86.3,1114.1c1.9-5.2-5.4-10.5-8.8-12.8c-0.7-0.4-1.3,0.6-0.6,1.1c2.9,1.9,9.9,6.8,8.2,11.4
				C84.8,1114.5,86.1,1114.8,86.3,1114.1L86.3,1114.1z"/>
		</g>
	</g>
	<g>
		<g>
			<path class="st0" d="M68.5,26.5c-0.6,32.7-1.3,65.4-1.9,98.1c0,1.8-0.3,2.5-0.7,3.4c-3.5,7.2-6.3,13.2-5.8,21.5
				c0.2,3.9,1,7.8,2.4,11.5c0.8,1.9,2.7,4.1,3.3,5.7c0.3,0.9,0,2.5-0.1,3.4c-0.3,15.6-0.6,31.1-0.9,46.7c-0.4,22-0.9,44-1.3,66
				c-0.2,8.5-0.3,17.1-0.5,25.6c-0.1,3.9,0.8,9.5-0.3,13.3c-0.1,0.2,0.1,0.6,0,0.7c0.9-1.6-1.7,0.2-2.1,0.6c-1.6,1.4-3,2.9-4.3,4.6
				c-4.2,5.5-6.6,12.2-7.6,19.1c-1.2,8.4-0.3,17.3,2.9,25.2c1.2,2.9,2.7,5.6,4.6,8.1c1,1.3,2.1,2.6,3.3,3.7c0.4,0.3,2.7,2.4,2,0.9
				c0.6,1.3-0.1,4.2-0.1,5.5c-0.1,4.2-0.2,8.4-0.2,12.6c-0.2,10.9-0.4,21.7-0.6,32.6c-0.2,11.6-0.4,23.1-0.8,34.7
				c-0.4,10.6-0.7,21.1-1.1,31.7c-0.3,8,0.2,16.5-0.8,24.5c0,0.3,0.1,1.3-0.1,1.6c0.9-1.3-1.9,0.4-2.4,0.8c-1.7,1.4-3.2,3.1-4.6,4.9
				c-4.3,5.7-6.7,12.6-7.3,19.7c-0.7,8.1,0.9,16.5,5.1,23.6c1.9,3.2,4.4,5.3,6.7,8.1c0.6,0.7,0.2-0.9,0.6,0.4
				c0.4,1.4-0.1,3.8-0.2,5.2c-0.1,3.2-0.2,6.4-0.3,9.7c-0.3,9.3-0.6,18.6-0.9,27.9c-0.7,21.5-1.5,43-2.2,64.5
				c-0.2,6.8-0.5,13.6-0.7,20.4c0,1,0.3,3-0.1,3.9c0.5-1.2-2.6,1.3-3.3,2c-2.6,2.5-4.8,5.5-6.6,8.7c-7.6,13.7-7.5,31.8,0.1,45.5
				c1.7,3.1,3.9,5.9,6.4,8.5c1.4,1.4,0.7-0.5,1.1,1c0.5,1.7-0.1,4.3-0.2,6.1c-0.6,19.2-1.3,38.4-1.9,57.6c-0.3,10.2-0.7,20.4-1,30.6
				c-0.1,3.5-0.2,7-0.4,10.5c-0.1,1.7,0.4,4.5-0.2,6.1c-0.7,1.8,1-1-0.5-0.2c-3,1.6-5.7,3.6-7.9,6.3c-3.9,4.7-5.8,10.3-5.9,16.3
				c-0.2,8.6-1.5,19.4,1.7,27.6c1.2,2.9,2.8,5.6,5,7.9c1,1.1,2.3,2.4,3.6,3.2c0.4,0.2,2.4,1.2,1.9,0.3c0.7,1.1,0,4.5,0,5.8
				c0,9.8,0,19.7,0,29.5c0,9.6,0,19.2,0,28.7c0,1.5,0.5,4.2,0,5.6c0.1-0.3-2.9,2.2-3.2,2.6c-0.9,1.1-1.8,2.3-2.6,3.6
				c-2,3.4-3.5,7.2-4.3,11c-2.9,14.2,2.9,28.9,15.3,36.6c0.3-1.2,0.6-2.3,0.9-3.5l0,0c-0.9,0-1.5,0.6-1.8,1.4c-3.1,9-6.2,18-9.3,27
				c-0.4,1.2,0.7,2.4,1.8,2.4c0,0,0,0,0.1,0c-0.5-0.9-1.1-1.9-1.6-2.8c-4.1,8-1.5,17.8,7,21.7c8.2,3.7,17.7-0.1,21.4-8.2
				c-1.1,0-2.2,0-3.2,0c3.7,8.1,13.3,11.9,21.5,8.2c7.7-3.5,11.4-12.6,7.7-20.3c-4.5-9.6-10.2-18.9-15-28.3c-0.3-0.6-1-0.9-1.6-0.9
				l0,0c0.3,1.2,0.6,2.3,0.9,3.5c10.9-6.8,16.9-19.2,15.9-32c-0.5-6.6-2.7-12.9-6.7-18.2c-0.7-1-1.5-2-2.4-2.9
				c-0.3-0.4-2.5-1.8-2.4-1.5c-0.2-0.4,0.1-1.2,0-1.6c-1.1-6.4,0.1-14,0.2-20.5c0.1-9.3,0.2-18.6,0.3-27.9
				c0.1-5.7,0.1-11.4,0.2-17.1c-0.5,0.6-0.9,1.2-1.4,1.8c8-2.3,14.6-8,17.4-16c2-5.6,1.4-11.8,1.4-17.6c0-5.5,0.5-11.4-1.1-16.7
				c-2.5-8.2-9-14.1-17-16.7c0.5,0.6,0.9,1.2,1.4,1.8c0.3-29.6,0.6-59.1,0.9-88.7c0.1-6.3,0.1-12.7,0.2-19c0-0.8-0.4-3,0-3.7
				c0.1-0.2,2.9-2.2,3.7-3.2c2.1-2.6,3.9-5.5,5.3-8.6c5.7-12.5,5.7-27.7-0.1-40.2c-1.3-2.8-2.9-5.4-4.8-7.8
				c-0.7-0.9-3.4-3.1-3.5-3.2c-0.3-0.7,0-2.5,0-3.3c0.3-33,0.7-65.9,1-98.9c0.1-7.4,0.2-14.8,0.2-22.2c0-2.8-1-8.1,0.1-10.8
				c0.3-0.8,0.1,0.4,1.1-0.6c2.3-2.4,4.2-5,5.7-7.9c3.2-6.2,4.7-13.3,4.3-20.3c-0.3-7-2.3-14-6.3-19.8c-1.5-2.2-3.8-3.6-4.3-5.3
				c-1-3.1,0.1-8.3,0.1-11.4c0.1-7.3,0.2-14.6,0.2-22c0.2-19.1,0.4-38.1,0.6-57.2c0.2-15.7,0.3-31.4,0.5-47c0-2.4-0.8-6.9,0.1-9.1
				c-0.1,0.2,2.2-1.6,2.6-2.2c2.1-2.6,3.8-5.5,5.1-8.6c2.9-6.9,4-14.6,3.4-22c-0.5-6.7-2.3-13.5-5.8-19.3c-0.7-1.1-1.4-2.3-2.2-3.3
				c0,0-2.7-2.9-2.5-2.1c-0.1-0.2,0.1-0.5,0-0.6c-0.9-2.9,0.1-7.5,0.1-10.5c0.2-15.9,0.3-31.9,0.5-47.8c0.2-19.4,0.4-38.7,0.6-58.1
				c0.1-12-0.4-24.2,0.4-36.2c0-0.6-0.2-1.6,0-2.1c-0.3,0.6,2.2-1.5,2.5-1.8c0.7-0.9,1.4-1.9,2-2.9c1.8-3,3-6.4,3.7-9.8
				c1.5-7,1-14.5-1.6-21.1c-1-2.5-2.2-4.8-3.8-6.9c-0.8-1-2.2-1.8-2.3-2.2c-0.4-1.1,0-3.4,0-4.6c0-3,0.1-5.9,0.1-8.9
				c0.1-8.5,0.2-17,0.3-25.5c0.2-17.6,0.4-35.3,0.6-52.9c0-3.2,0.4-6.7,0-10c-0.9-6.7-6.6-13.5-13.9-12
				C71.5,12.6,68.9,20.5,68.5,26.5c-0.1,2.4,3.6,2.4,3.8,0c0.2-3.2,1.1-7.2,3.4-9.6c5.2-5.5,10.8,0.6,12.4,5.7
				c0.5,1.8,0.3,0.8,0.3,2.5c0,1.8,0,3.6-0.1,5.4c-0.2,16.4-0.3,32.8-0.5,49.2c-0.2,14.5-0.3,28.9-0.5,43.4c0,0.7-0.2,1.8,0,2.5
				c0.6,2.1,2.8,3.5,4,5.3c2.3,3.5,3.6,7.5,4.2,11.5c1.3,8.5-0.5,18.3-6.5,24.7c-1.3,1.4-1.8,1.9-2.1,3.5c-0.6,3.3-0.1,7.1-0.1,10.5
				c-0.1,6.5-0.1,13.1-0.2,19.6c-0.2,18.2-0.4,36.4-0.6,54.6c-0.2,16.8-0.4,33.6-0.5,50.4c-0.1,5.1-0.1,10.2-0.2,15.3
				c0,3.8-0.2,4.4,2.5,7.6c10.6,12.5,10.9,33.9,2,47.3c-1.6,2.4-4.5,4.2-5.1,7c-0.2,1,0,2.2,0,3.2c-0.1,12.9-0.3,25.7-0.4,38.6
				c-0.3,32.8-0.7,65.7-1,98.5c0,2.1-0.6,5.1-0.1,7.1c0.5,1.9,2.4,3.1,3.6,4.6c2.8,3.5,4.8,7.7,5.9,12c2.2,8.6,1.4,18.1-2.7,26
				c-1.7,3.2-4,5.5-6.2,8.2c-0.6,0.8-0.8,1-1.1,1.9c-0.2,0.8,0,2,0,2.8c-0.1,5-0.1,10.1-0.2,15.1c-0.4,34-0.7,68-1.1,102
				c0,4.6-0.2,9.2-0.1,13.8c0,0.6-0.2,1.4,0,1.9c0.5,1.9,2.4,3,3.6,4.5c2.9,3.4,5,7.4,6.5,11.5c2.8,7.8,3.2,16.4,1.5,24.5
				c-1.8,8.5-5.9,13.8-11.2,20.2c-1.8,2.3-1.2,5.6-1.2,8.5c-0.3,32.1-0.7,64.3-1,96.4c0,2.8-0.1,5.7-0.1,8.5c0,0.9,0.6,1.6,1.4,1.8
				c8.4,2.7,14.6,9.8,15.3,18.8c0.3,3.6,0.1,7.4,0.1,11c0,3.7,0.2,7.4-0.1,11c-0.7,9.2-7.3,16.4-15.9,18.9c-0.8,0.2-1.4,1-1.4,1.8
				c-0.2,17.2-0.4,34.3-0.5,51.5c0,4-0.1,7.9-0.1,11.9c0,1.6-0.3,3.4,0.4,4.9c0.6,1.2,2.7,2.5,3.6,3.5c1.7,1.9,3.1,4.1,4.3,6.4
				c2.4,4.9,3.5,10.4,3.2,15.8c-0.5,10-5.6,19.1-14.1,24.4c-1.6,1-1,3.5,0.9,3.5c-3.2,0-1.3-1.6-1.2-0.2c0,0.6,0.8,1.5,1,2
				c1,1.8,1.9,3.7,2.9,5.5c2.2,4.3,4.5,8.7,6.7,13c2.3,4.4,5.8,8.7,4.7,13.9c-2.6,12-18.8,11.6-23.5,1.5c-0.6-1.2-2.7-1.2-3.2,0
				c-6.8,14.8-29.6,5.3-21.9-9.7c0.6-1.2-0.1-2.8-1.6-2.8c0,0,0,0-0.1,0c0.6,0.8,1.2,1.6,1.8,2.4c3.1-9,6.2-18,9.3-27
				c-0.6,0.5-1.2,0.9-1.8,1.4l0,0c1.9,0,2.5-2.5,0.9-3.5c-13.9-8.7-18.1-27.7-10-41.8c1.8-3.1,5.9-5.8,6.7-9.2c0.3-1.6,0-3.6,0-5.2
				c0-16.5,0-33,0-49.5c0-4.9-0.1-9.7,0-14.6c0-0.7-0.4-1.3-0.9-1.6C34.8,945.8,35,934.8,35,923.3c0-3.3-0.2-6.6,0.1-9.9
				c0.6-8.2,5.9-14.7,13.3-18.1c0.6-0.3,0.9-1,0.9-1.6c0.9-27.3,1.8-54.6,2.8-81.9c0.2-7,0.5-14,0.7-21.1c0.1-2.8,1-6.8,0.3-9.5
				c-0.3-1.2-0.8-1.4-1.7-2.4c-2.6-2.8-5-5.6-6.8-9c-3.8-7.2-5.3-15.7-4.7-23.8c0.6-7.7,3.1-15.3,7.7-21.5c2.1-2.8,6.7-5.1,7.6-8.3
				c0.7-2.5,0.2-6,0.3-8.5c0.2-6.5,0.4-13,0.7-19.5c0.6-17.6,1.2-35.3,1.8-52.9c0.5-14.7,1-29.3,1.5-44c0.1-2.1,0.8-5.4,0.3-7.5
				c-0.4-1.6-1.6-2.1-2.8-3.2c-2.9-2.7-5.1-6.1-6.7-9.7c-3.3-7.6-3.9-16.5-1.7-24.5c0.9-3.5,2.4-6.8,4.4-9.8c1-1.5,2.2-3,3.6-4.3
				c1.2-1.2,3.4-2.1,4.4-3.4c0.8-1.2,0.8-2.1,0.8-3.5c0.3-6.5,0.4-12.9,0.7-19.4c0.5-15.3,1.1-30.5,1.5-45.8
				c0.8-24.7,1.8-49.7,1.5-74.5c0-1.6,0-2-0.9-3.3c-2-2.7-4.9-4.5-6.8-7.6c-2-3.3-3.4-6.9-4.3-10.6c-1.9-7.8-1.7-16.4,0.7-24.1
				c1-3.3,2.5-6.6,4.5-9.5c1-1.4,2.1-2.8,3.3-4c1.1-1.1,3.1-1.9,4-3.2c1.2-1.6,0.8-4,0.8-6c0.1-5.1,0.2-10.2,0.3-15.2
				c0.7-34.1,1.3-68.2,2-102.2c0.2-10.7,0.6-21.3,0.6-32c0-0.6,0.2-1.3,0-1.8c-0.4-1.8-1.8-3.2-2.6-4.8c-2-4-3-8.6-3.1-13.1
				c-0.1-3.9,0.4-7.9,1.7-11.6c1.1-3.1,4-6,4.8-9c0.2-0.8,0.1-1.7,0.1-2.4c0.8-30.2,1.2-60.3,1.8-90.5c0.1-2.9,0.1-5.7,0.2-8.6
				C72.3,24.1,68.6,24.1,68.5,26.5z"/>
		</g>
	</g>
</g>
</svg>
