<?xml version="1.0" encoding="utf-8"?>
<!-- Generator: Adobe Illustrator 21.0.2, SVG Export Plug-In . SVG Version: 6.00 Build 0)  -->
<svg version="1.1" id="Layer_1" xmlns="http://www.w3.org/2000/svg" xmlns:xlink="http://www.w3.org/1999/xlink" x="0px" y="0px"
	 viewBox="0 0 952.6 760.1" style="enable-background:new 0 0 952.6 760.1;" xml:space="preserve">
<style type="text/css">
	.st0{fill:#485827;}
	.st1{fill:#292F1C;}
	.st2{fill:#101615;}
	.st3{fill:#71703F;}
	.st4{fill:#8B9638;}
	.st5{fill:#CBD7A0;}
	.st6{fill:#6A7632;}
	.st7{fill:#73804F;}
	.st8{fill:#667030;}
	.st9{fill:#959F50;}
	.st10{fill:#757A32;}
	.st11{fill:#778436;}
	.st12{fill:#939A38;}
	.st13{fill:#747B5D;}
	.st14{fill:#80863D;}
	.st15{fill:#8C9240;}
	.st16{fill:#C7D0AE;}
	.st17{fill:#1D191B;}
</style>
<g>
	<g>
		<g>
			<path class="st0" d="M34.7,742l575.1-409.2c0,0,13.6-0.2,28.8-12.6c3.9-0.5,9.3-1.4,15.4-3.5c5.4-1.9,10.9-3.7,16.2-8.1
				c15-12.3,15.8-22.9,15.8-22.9s1.8-14.5,15.3-11.4c0,0,10.7,5.7,25.9-5.7c15.2-11.4,19.6-33.6,19.6-33.6c3.8-3.6,8-7.3,12.6-11
				c12.2-9.8,24.1-17.2,34.9-22.9c2.5,1.5,9.2,5,17.8,4.2c4.1-0.4,7.4-1.7,9.7-2.8c1.2-0.9,3.5-3,4.9-6.5c2.1-5.6,0.1-10.5-0.4-11.6
				c-0.8-1.4-0.3-3.3,1.1-4.2c1.4-0.9,3.2-0.6,4.3,0.7c0,0,6.4,7.8,15.8,1.4c3.2-2.2,4.8-4.7,5.6-7c1-3-1.3-4.6-0.3-8.5
				c0.5-1.9,1.4-3.1,1.5-3.4c2.5-3.5,6.8-4.1,8-4.3c0,0,14,7.5,32.8-6.4c0,0,62.6-46.9,14.9-99.1C862.3,1.4,801.5,64,801.5,64
				s-48.3,54.1-49.8,102.1c0,0-20.9,33.4-52.5,40.5c0,0-27.3,1.5-41.9,16.5c0,0-13,11.5-7.7,19.5c0,0-0.1,7.5-6.5,5.5
				c-2.2-0.3-10.5-1-18.5,4.5c-9.5,6.5-11.2,16.8-11.5,18.5c-5.4,3.9-11.1,8.6-17,14.2c-4.6,4.3-8.7,8.6-12.3,12.7l-564,430.2
				c-1.7,3.9-1,8.4,1.8,11.5C24.8,743.3,30.2,744.3,34.7,742z M819.6,72.5c0,0,44.5-40.4,78.9-4.3c0,0,19.2,28.9,1.6,42
				c0,0-23-35.2-46.3-16.9c-23.2,18.3-16.6,30.2-16.6,30.2s-3.1,8.9-9.2,4c-6-4.9-17.3,1.7-17.3,1.7s-8.7,8.4-7,13.7
				c0,0-1.7,4.4-5,3.9c0,0-6.2-5.7-19.2,7C779.6,153.8,776,99.6,819.6,72.5z"/>
		</g>
	</g>
	<path class="st1" d="M24.3,742.3c184.9-134.8,217.4-184.7,217.4-184.7L19.3,727.2c-1.7,3.9-1,8.4,1.8,11.5L24.3,742.3z"/>
	<path class="st1" d="M747.1,218.9c1.8,2.8-17.2,24.7-43.9,29.5c-11,2-19.4,0.4-23.8-0.5c-2.9-0.6-19.8-4.1-20.1-10
		c-0.1-2.7,3-5.7,6.2-6.3c4.9-0.8,7,4.9,14,5.4c3.5,0.2,7.7-0.9,8-2.7c0.7-3.8-16.4-7.8-15.9-12.3c0.3-2.7,6.8-5,12.6-4.4
		c6.4,0.6,8.2,4.4,15.2,7c5.3,1.9,9.6,1.7,16,1.3C735.3,224.7,745.8,217,747.1,218.9z"/>
	<g>
		<g>
			<path class="st2" d="M880.1,123.6c6.9-3.6,11.3-11,4.2-16.8c-7.4-6-18.1-3.9-23.7,3.3c-5.9,7.4-5.6,20.7,2.9,26.4
				c7.5,5,19.3,5.1,27.4,1.8c9.2-3.8,16.4-12.9,22-20.8c4.6-6.4,7.8-13.9,8.1-21.8c0.3-9.5-2.9-16.8-7.5-24.8
				c-2.8-4.9-5.5-9.6-9.4-13.8c-15-16.8-38.4-21.2-58.6-11c-1.4,0.7-0.2,2.9,1.3,2.2c14.9-7.5,32.8-7,46.6,2.6
				c8.2,5.7,13.4,13.3,18.1,21.8c4.1,7.2,7.1,13.7,7,22.2c-0.1,6.1-1.8,11.7-4.8,17c-3.7,6.5-9,12.7-14.3,17.9
				c-7.7,7.5-18,10.2-28.4,7.2c-5.4-1.5-9.4-4.4-11.1-10c-1.8-5.8-0.2-12.3,4.2-16.6c4.5-4.5,11.6-5.7,17.2-2.5
				c7.3,4.2,4,10.6-2.2,13.8C877.4,122.2,878.7,124.4,880.1,123.6L880.1,123.6z"/>
		</g>
	</g>
	<g>
		<g>
			<path class="st2" d="M794.7,84.1c-7.2,10-13.6,20.7-19.5,31.5c-8.5,15.7-18,34.4-17.1,52.8c0.1,1.6,2.6,1.6,2.5,0
				c-0.9-18.7,9.2-37.7,17.9-53.6c5.6-10.1,11.6-20,18.3-29.4C797.8,84,795.7,82.8,794.7,84.1L794.7,84.1z"/>
		</g>
	</g>
	<g>
		<g>
			<path class="st2" d="M835.8,128.5c4.2,11.9,12.4,23,22.7,30.3c1.3,0.9,2.6-1.2,1.3-2.2c-9.7-6.9-17.6-17.5-21.5-28.8
				C837.7,126.3,835.3,127,835.8,128.5L835.8,128.5z"/>
		</g>
	</g>
	<g>
		<g>
			<path class="st2" d="M802.7,145.8c6.8,12.8,15.2,27.1,27,35.9c1.3,1,2.5-1.2,1.3-2.2c-11.4-8.4-19.5-22.6-26.1-35
				C804.1,143.2,801.9,144.4,802.7,145.8L802.7,145.8z"/>
		</g>
	</g>
	<g>
		<g>
			<path class="st2" d="M795.4,200.4c-9-14-14-29.9-14.5-46.6c0-1.2-1.7-1.7-2.3-0.6c-15.1,25.6-40.6,43.4-69.8,48.9
				c-1.6,0.3-0.9,2.7,0.7,2.4c29.8-5.6,55.9-23.9,71.3-50c-0.8-0.2-1.6-0.4-2.3-0.6c0.6,17.1,5.6,33.5,14.9,47.9
				C794.1,203,796.3,201.8,795.4,200.4L795.4,200.4z"/>
		</g>
	</g>
	<g>
		<g>
			<path class="st2" d="M745.1,223.2C724.8,249,687.3,255,660,236.7c-1.3-0.9-2.6,1.3-1.3,2.2c28.2,18.9,67.2,12.7,88.1-13.9
				C747.8,223.7,746.1,221.9,745.1,223.2L745.1,223.2z"/>
		</g>
	</g>
	<g>
		<g>
			<path class="st2" d="M731.5,249.4c-13.6,13.5-33,19.8-51.8,14.8c-11.5-3.1-22.7-9.9-30.7-18.8c-1.1-1.2-2.8,0.6-1.8,1.8
				c8.9,9.8,21.5,17.3,34.4,20.1c18.9,4.1,38.1-2.6,51.6-16.1C734.4,250.1,732.6,248.3,731.5,249.4L731.5,249.4z"/>
		</g>
	</g>
	<g>
		<g>
			<path class="st2" d="M723.4,223.2c-13.3,3.2-27.1,0.9-38.7-6.3c-1.4-0.9-2.6,1.3-1.3,2.2c12.2,7.6,26.7,9.9,40.6,6.6
				C725.7,225.3,725,222.9,723.4,223.2L723.4,223.2z"/>
		</g>
	</g>
	<g>
		<g>
			<path class="st2" d="M743.5,203.2c-14.2,5.2-29.4,6-44,2.3c-1.6-0.4-2.2,2-0.7,2.4c15,3.9,30.8,3.1,45.3-2.3
				C745.6,205.1,745,202.6,743.5,203.2L743.5,203.2z"/>
		</g>
	</g>
	<g>
		<g>
			<path class="st2" d="M609.5,275.6c5.5,17.1,15.7,32,29.8,43.2c1.2,1,3-0.8,1.8-1.8c-13.7-10.9-23.8-25.4-29.1-42.1
				C611.4,273.4,609,274.1,609.5,275.6L609.5,275.6z"/>
		</g>
	</g>
	<g>
		<g>
			<path class="st2" d="M610,331.2c-12-8-20.7-19.8-25-33.5c-0.5-1.5-2.9-0.9-2.4,0.7c4.5,14.4,13.7,26.6,26.2,35
				C610.1,334.2,611.3,332.1,610,331.2L610,331.2z"/>
		</g>
	</g>
	<g>
		<g>
			<path class="st2" d="M514.6,350.8c0.8,10.3-0.4,24.2-9,31.2c-1.3,1,0.5,2.8,1.8,1.8c9.1-7.4,10.5-22,9.7-32.9
				C517,349.3,514.5,349.2,514.6,350.8L514.6,350.8z"/>
		</g>
	</g>
	<g>
		<g>
			<path class="st2" d="M453.6,396.2c-2.8,7.8-0.8,17,2.5,24.2c0.7,1.5,2.8,0.2,2.2-1.3c-3.1-6.7-4.8-15.1-2.3-22.3
				C456.6,395.3,454.2,394.7,453.6,396.2L453.6,396.2z"/>
		</g>
	</g>
	<g>
		<g>
			<path class="st2" d="M368.7,460.9c3.9,6.7,6.5,16.5,1,23c-1,1.2,0.7,3,1.8,1.8c6.4-7.4,3.9-18.2-0.6-26
				C370,458.2,367.9,459.5,368.7,460.9L368.7,460.9z"/>
		</g>
	</g>
	<g>
		<g>
			<path class="st2" d="M322.9,495.7c-4.6,8.6-0.1,18.8,9.8,19.9c1.6,0.2,1.6-2.3,0-2.5c-8-0.9-11.3-9.4-7.7-16.2
				C325.8,495.6,323.7,494.3,322.9,495.7L322.9,495.7z"/>
		</g>
	</g>
	<g>
		<g>
			<path class="st2" d="M235.7,563.6c2.2,7.9,4,19.9-2.6,26.1c-1.2,1.1,0.6,2.9,1.8,1.8c7.4-6.9,5.8-19.7,3.3-28.5
				C237.7,561.4,235.3,562,235.7,563.6L235.7,563.6z"/>
		</g>
	</g>
	<g>
		<g>
			<path class="st2" d="M218.2,578.1c-3.8,6.5-8.2,16.4-4.2,23.6c0.8,1.4,2.9,0.1,2.2-1.3c-3.5-6.3,0.9-15.5,4.2-21.1
				C221.2,578,219,576.7,218.2,578.1L218.2,578.1z"/>
		</g>
	</g>
	<g>
		<g>
			<path class="st2" d="M97.2,669.6c2.9,4.6,0.9,9.9-2.9,13.3c-1.2,1.1,0.6,2.8,1.8,1.8c4.6-4.1,6.8-10.8,3.3-16.4
				C98.5,666.9,96.3,668.2,97.2,669.6L97.2,669.6z"/>
		</g>
	</g>
	<g>
		<g>
			<path class="st2" d="M83.5,682.2c-5.2,5.1-6,12.8-2.2,18.9c0.8,1.4,3,0.1,2.2-1.3c-3.2-5.2-2.6-11.5,1.8-15.9
				C86.5,682.9,84.7,681.1,83.5,682.2L83.5,682.2z"/>
		</g>
	</g>
	<g>
		<g>
			<path class="st3" d="M919.5,109.1c-4.3,12.8-12.4,24.1-23.8,31.6c-12.7,8.3-29.9,6.7-38.7-6.4c-0.9-1.3-3.1-0.1-2.2,1.3
				c8.6,12.8,25.2,16.2,38.7,9.3c13.8-7,23.5-20.7,28.3-35.1C922.5,108.3,920,107.6,919.5,109.1L919.5,109.1z"/>
		</g>
	</g>
	<g>
		<g>
			<path class="st4" d="M873.5,96.2c-5-0.2-10.4,1.1-14.8,3.3c-9.5,4.8-13.4,14.5-13.7,24.8c0,1.6,2.5,1.6,2.5,0
				c0.3-10.1,4.3-19.3,14-23.4c3.7-1.6,7.9-2.5,12-2.3C875.1,98.8,875.1,96.3,873.5,96.2L873.5,96.2z"/>
		</g>
	</g>
	<g>
		<g>
			<path class="st5" d="M887.1,125.4c-3.4,3.2-9.1,4.5-13.3,2.1c-5.8-3.3-1.8-10.3,2.5-12.6c1.4-0.8,0.2-2.9-1.3-2.2
				c-5.4,2.9-9.5,10.8-4.1,15.8c5,4.6,13.5,2.9,18-1.4C890.1,126.1,888.3,124.3,887.1,125.4L887.1,125.4z"/>
		</g>
	</g>
	<g>
		<g>
			<path class="st6" d="M812.5,138.8c0.8,17.6,12.6,32.9,29.4,38.1c1.5,0.5,2.2-1.9,0.7-2.4c-15.7-4.8-26.9-19.2-27.6-35.6
				C814.9,137.2,812.4,137.2,812.5,138.8L812.5,138.8z"/>
		</g>
	</g>
	<g>
		<g>
			<path class="st7" d="M788.4,159.2c-2.7,16.4,3.3,33.5,19.3,40.5c1.5,0.6,2.7-1.5,1.3-2.2c-14.9-6.5-20.6-22.3-18.1-37.7
				C791,158.3,788.6,157.6,788.4,159.2L788.4,159.2z"/>
		</g>
	</g>
	<g>
		<g>
			<path class="st8" d="M728.5,217.4c-12.2,3.2-24.7,1.9-35.4-5.1c-1.4-0.9-2.6,1.3-1.3,2.2c11.3,7.3,24.5,8.7,37.4,5.3
				C730.7,219.4,730.1,217,728.5,217.4L728.5,217.4z"/>
		</g>
	</g>
	<g>
		<g>
			<path class="st9" d="M737.9,239c-23.9,17.1-57.3,24-80.8,2.7c-1.2-1.1-3,0.7-1.8,1.8c24.4,22,59,15.5,83.9-2.4
				C740.5,240.3,739.2,238.1,737.9,239L737.9,239z"/>
		</g>
	</g>
	<g>
		<g>
			<path class="st10" d="M671.4,292c-6.2,8.9-16.9,15.2-28,12.8c-7.6-1.7-13.5-7.5-16.7-14.5c-0.7-1.5-2.8-0.2-2.2,1.3
				c3.8,8.2,11.2,14.8,20.3,16c11.6,1.6,22.3-5,28.7-14.3C674.5,292,672.3,290.7,671.4,292L671.4,292z"/>
		</g>
	</g>
	<g>
		<g>
			<path class="st11" d="M605.5,286.2c2.8,13.4,10.5,24.9,21.7,32.7c1.3,0.9,2.6-1.2,1.3-2.2c-10.7-7.4-18-18.5-20.6-31.2
				C607.6,283.9,605.2,284.6,605.5,286.2L605.5,286.2z"/>
		</g>
	</g>
	<g>
		<g>
			<path class="st12" d="M505.4,356.9c2.4,9.2-0.8,18.7-8.1,24.7c-1.2,1,0.5,2.8,1.8,1.8c8.1-6.5,11.4-17.1,8.8-27.2
				C507.4,354.7,504.9,355.4,505.4,356.9L505.4,356.9z"/>
		</g>
	</g>
	<g>
		<g>
			<path class="st13" d="M459.5,388.8c-4.1,8.5-2.7,18.3,4.1,25c1.2,1.1,2.9-0.6,1.8-1.8c-6-5.9-7.3-14.5-3.7-22
				C462.4,388.6,460.2,387.4,459.5,388.8L459.5,388.8z"/>
		</g>
	</g>
	<g>
		<g>
			<path class="st14" d="M362.7,468.5c2.7,5.6,2.7,11.9-0.1,17.5c-0.7,1.4,1.4,2.7,2.2,1.3c3.2-6.4,3.2-13.6,0.1-20
				C364.1,465.8,362,467,362.7,468.5L362.7,468.5z"/>
		</g>
	</g>
	<g>
		<g>
			<path class="st15" d="M329.3,491c-4.1,7-2.5,15.8,5.6,18.7c1.5,0.5,2.2-1.9,0.7-2.4c-6.7-2.4-7.4-9.5-4.1-15
				C332.2,490.9,330.1,489.7,329.3,491L329.3,491z"/>
		</g>
	</g>
	<g>
		<g>
			<path class="st16" d="M607.1,309.5c-12.8,9.5-25.5,18.9-38.3,28.4c-30.3,22.5-60.7,45-91,67.5c-37,27.4-73.9,54.8-110.9,82.2
				c-31.7,23.5-63.5,47-95.2,70.6c-10.5,7.8-21.1,15.6-31.6,23.4c-4.9,3.6-10.6,6.9-15,11.1c-0.2,0.2-0.4,0.3-0.6,0.5
				c-1.3,0.9,0,3.1,1.3,2.2c12.8-9.5,25.5-18.9,38.3-28.4c30.3-22.5,60.7-45,91-67.5c37-27.4,73.9-54.8,110.9-82.2
				c31.7-23.5,63.5-47,95.2-70.6c10.5-7.8,21.1-15.6,31.6-23.4c4.9-3.6,10.6-6.9,15-11.1c0.2-0.2,0.4-0.3,0.6-0.5
				C609.6,310.7,608.3,308.5,607.1,309.5L607.1,309.5z"/>
		</g>
	</g>
	<g>
		<g>
			<path class="st17" d="M35.7,743.6c10.7-7.6,21.4-15.2,32.1-22.9c27.4-19.5,54.8-39,82.2-58.5c37.7-26.8,75.3-53.6,113-80.4
				c40.7-29,81.4-57.9,122.2-86.9c37.6-26.7,75.1-53.5,112.7-80.2c27.3-19.4,54.5-38.8,81.8-58.2c7.7-5.5,15.4-11,23.1-16.4
				c2-1.4,4.1-2.9,6.1-4.3c0.5-0.4,1-0.7,1.5-1.1c1.1-0.7-0.9,0.1-0.1-0.1c5.2-1.1,10.1-1.8,15.1-4.1c4.6-2,8.5-4.8,12.7-7.6
				c3.5-2.3,8.9-2.2,12.9-3.4c15.4-4.5,31.5-14.5,36.3-30.8c0.9-2.9,0.4-3.2,1.5-6.3c2.2-5.7,7-7.7,12.7-6.1
				c13.7,3.8,27.1-4.2,35.3-15c4.3-5.7,7.4-12.2,9.7-19c0.6-1.8,0.9-4.1,1.7-5.8c1.2-2.5,4.3-4.4,6.5-6.4c9.1-7.9,18.9-15,29.3-21.2
				c2.7-1.6,8.1-5.8,10.5-5.6c1.2,0.1,2.9,1.4,4.1,1.9c2.1,0.8,4.3,1.3,6.5,1.7c6.9,1,16.1-0.1,20.7-5.9c2.3-2.9,3.6-6.6,3.6-10.3
				c0-1.9-2.8-9.2,1-8.3c1.3,0.3,3.1,2.6,4.6,3.2c3.2,1.4,6.7,1.3,10,0c3.1-1.3,6.1-3.6,8-6.4c2.1-3.2,1.8-5.4,1.4-9
				c-0.4-3,0.4-5.4,2.8-7.3c0.6-0.5,4-2.3,4-2.3c1,0,2.5,1,3.5,1.3c5.8,1.6,12,1.2,17.7-0.6c8.3-2.6,15-7.8,21.1-13.7
				c17-16.5,30.3-39.9,24.9-64.3C921.6,52.1,890,27.2,858,31.5c-21.2,2.8-41.2,15.1-56.4,29.7c-3.1,3-5.8,6.5-8.4,9.9
				c-8.6,10.9-16.5,22.5-23.4,34.6c-8.4,14.9-15.7,31-18.7,48c-0.8,4.3,0.1,9.8-2.3,13.4c-2.7,3.9-5.7,7.6-8.8,11.1
				c-10.4,11.6-24.7,23.6-40.4,26.5c-10.9,2-21.3,3.3-31.4,8.4c-8.5,4.3-22.3,14.8-21.7,25.8c0.1,2,1.4,3.4,1.1,5.1
				c-0.7,3.8-5.7,2-8.5,2.1c-8.6,0.3-16.8,4.3-22,11.2c-1.8,2.4-3.3,5-4.3,7.9c-1,2.7-0.8,4.7-3.1,6.3c-8.7,6-16.7,13.8-23.9,21.6
				c-1.8,1.9-2.9,3.4-4.9,4.9c-5.1,3.9-10.3,7.8-15.4,11.7c-23,17.6-46,35.1-69,52.7c-34.7,26.5-69.4,53-104.1,79.4
				c-39.5,30.1-79,60.3-118.5,90.4c-38.3,29.2-76.6,58.4-114.8,87.6c-30.1,22.9-60.2,45.9-90.2,68.8c-15.7,12-31.5,24-47.2,36
				c-0.8,0.6-1.9,1.2-2.6,2c-2.6,2.8-2.3,7.9-0.8,11.1C21.2,744.7,29.1,746.4,35.7,743.6c2.2-0.9,0.3-4.2-1.9-3.2
				c-4,1.7-8.9,1.1-11.5-2.8c-1.1-1.6-2.4-6.3-1.5-7.7c0-0.1,0.1-0.1,0.2-0.1c0.2-0.3,0.8-0.5,1.1-0.8c1.4-1.5,3.4-2.6,5.1-3.9
				c6.9-5.3,13.8-10.6,20.8-15.8c25-19.1,50.1-38.2,75.1-57.3c35.3-26.9,70.5-53.8,105.8-80.7c39-29.8,78.1-59.6,117.1-89.4
				c36.8-28.1,73.6-56.1,110.4-84.2c28.4-21.7,56.8-43.3,85.2-65c13.9-10.6,27.8-21.2,41.7-31.8c2.4-1.9,4.3-4.2,6.4-6.4
				c3.8-4,7.7-7.8,11.8-11.4c2-1.7,3.9-3.4,6-5.1c2-1.6,5.4-3.3,7-5.4c0.9-1.2,0.9-3.2,1.4-4.7c1.1-3.7,3.1-7.1,5.7-10
				c3.8-4.1,8.9-6.8,14.4-7.7c3.5-0.6,6.7,0.5,10,0.1c3.5-0.4,6.2-4.4,5.6-7.9c-0.3-1.6-1.3-2.7-1.2-4.5c0.1-1.9,0.9-3.7,1.8-5.3
				c1.4-2.6,3.4-4.9,5.5-7.1c5-5.1,10.9-8.8,17.4-11.4c10.6-4.3,22.1-4,32.6-8c13.8-5.2,25.7-14.8,35.4-25.7c3.1-3.5,6-7.1,8.7-10.9
				c2.3-3.3,1.9-5.9,2.4-10c2-17.5,9.2-34.3,17.7-49.6c6.9-12.5,14.9-24.3,23.6-35.5c2.7-3.5,5.4-7.1,8.6-10.2
				c15.1-14.8,36-27.5,57.4-29.3c33.5-2.8,66.7,29.4,64.5,63.2c-1.4,20.6-15.4,39.9-31.2,52.5c-4.1,3.3-10.9,6.9-17,8.1
				c-5.3,1-9.3,0-14.3-1.2c-4-0.9-8.8,1.8-11,5.2c-1.7,2.7-1.8,5.4-1.5,8.5c0.3,2.4,0.4,4-1,6.1c-2.1,3-6,5.6-9.7,5.6
				c-4.9,0-8.4-7-13.2-4.5c-2,1-3,3.1-2.7,5.3c0.2,1.3,1,2.7,1.3,4c0.9,4-0.1,8.5-2.9,11.6c-6.5,6.9-18.5,4.2-26,0.9
				c-3.1-1.4-4.1-0.2-7.2,1.5c-4.9,2.7-9.7,5.6-14.3,8.6c-9.2,6.1-18,12.9-26.2,20.3c-1.6,1.4-3.1,2.6-3.9,4.5c-0.8,1.8-1,4-1.7,5.9
				c-5,15.1-17.1,33.4-35.1,32.9c-4.2-0.1-7.7-2.3-12.1-1.7c-4.9,0.6-8.5,4-10.4,8.4c-0.9,2.1-1.2,4.4-1.7,6.3
				c-1.6,6.5-6.2,12.3-10.9,16.8c-8.4,8.1-19.7,12.2-31,14.2c-1.5,0.3-3.1,0.3-4.5,0.9c-2.3,1-5,3.8-7.2,5.1
				c-4,2.4-8.3,4.4-12.8,5.7c-3.1,0.9-6.6,0.7-9.4,2.2c-4.4,2.5-8.5,6-12.6,9c-21.5,15.3-43,30.6-64.5,45.9
				c-33.7,24-67.3,47.9-101,71.9c-39.5,28.1-79,56.2-118.5,84.3c-39,27.7-78,55.5-117,83.2c-32.2,22.9-64.4,45.8-96.7,68.8
				c-18.8,13.4-37.7,26.8-56.5,40.2c-2.5,1.8-5.1,3.6-7.6,5.4C31.8,741.8,33.7,745,35.7,743.6z"/>
			<path class="st17" d="M820.9,73.9c9.4-8.5,21.9-15,34.2-17.7c11-2.3,22.3-0.9,32,5c7.2,4.4,11.1,9.1,14.4,16.6
				c4.5,10.2,7.2,23.2-2.8,31c1,0.1,2,0.3,2.9,0.4c-5.4-8.2-13.2-16-22.1-20.3c-16.2-7.6-31.2,3.2-40.3,16.6
				c-2.9,4.3-5.2,9.4-4.8,14.7c0.1,1.1,0.3,2.3,0.7,3.4c0.1,0.3,0.3,0.6,0.4,0.9c-0.3-2.6-0.8,0.2-1.8,1.3c-2.7,2.9-6.5-1.3-9.9-1.7
				c-3.6-0.5-7.4,0.6-10.7,2c-4.4,1.8-7.4,5.2-9.7,9.5c-0.8,1.4-1.5,2.9-1.7,4.5c-0.2,1.4,0.1,2.5,0.1,2.5c-0.1,0.3-1.8,3-1.8,3
				c-0.2,0-0.4-0.4-0.6-0.4c-0.4,0-1.4-0.7-1.8-0.9c-7.2-2.5-14.7,3.8-19.5,8.3c1.1,0.4,2.1,0.9,3.2,1.3
				c-1.9-30.7,13-63.1,39.1-79.7c2-1.3,0.2-4.5-1.9-3.2c-27.1,17.2-42.9,50.9-40.9,82.9c0.1,1.6,2,2.5,3.2,1.3
				c4.7-4.4,10-8.8,16.6-6.9c2.6,0.7,6.6-0.3,7.9-4.3c0.4-1.4,0-2.6,0.3-4.1c0.4-1.5,1.4-3,2.2-4.3c1-1.5,3.4-4.3,4.1-4.8
				c2.2-1.5,5.3-2.4,7.8-2.8c2.9-0.5,4.7-0.1,7.2,1.3c1.3,0.7,2.3,1.5,3.9,1.7c3.5,0.3,7.5-3.3,8-6.8c0.3-1.8-0.9-3.5-0.8-5.9
				c0.5-6.9,5.5-13,10.2-17.7c6.6-6.5,14.2-12.2,23.9-10.1c10.8,2.3,20.2,11.8,26.1,20.7c0.7,1.1,2,1.1,2.9,0.4
				c8.7-6.8,9.2-17.7,6.3-27.7c-2-6.7-5-14.3-10.2-19.2C879,47.6,854.5,49,833.7,60.4c-5.6,3-11,6.6-15.7,10.9
				C816.5,72.8,819.1,75.5,820.9,73.9z"/>
		</g>
	</g>
</g>
</svg>
