<?xml version="1.0" encoding="utf-8"?>
<!-- Generator: Adobe Illustrator 21.0.2, SVG Export Plug-In . SVG Version: 6.00 Build 0)  -->
<svg version="1.1" id="Layer_1" xmlns="http://www.w3.org/2000/svg" xmlns:xlink="http://www.w3.org/1999/xlink" x="0px" y="0px"
	 viewBox="0 0 62.9 16.3" style="enable-background:new 0 0 62.9 16.3;" xml:space="preserve">
<style type="text/css">
	.st0{fill:#DCB041;}
	.st1{fill:#3A296C;}
</style>
<title>font</title>
<path class="st0" d="M1.3,3.1c0,1.8,0,2.9,0,3.2h0.3c0.2,0,0.4-0.2,0.6-0.5c0.1-0.2,0.2-0.4,0.2-0.6c0.1,0.2,0.1,0.4,0.1,0.6
	C2.3,6,2.2,6.2,2.1,6.4c0,0.2,0,0.4,0.1,0.6c0.1,0.2,0.1,0.5,0.1,0.8c0,0.3-0.2,0.6-0.5,0.6c0,0,0,0,0,0C2,8.2,2.1,8,2.1,7.7
	C2.1,7.5,2.1,7.2,2,7C1.9,6.7,1.6,6.6,1.3,6.6v6.5c0.3,0.1,0.7,0.1,1,0.1c0.5,0,0.9-0.2,1.3-0.5c0.2-0.3,0.4-0.6,0.6-0.9
	c0,0,0,0.1,0,0.1c0,0.2-0.1,0.5-0.3,0.7c-0.3,0.5-0.5,0.8-0.5,0.9c-0.2,0.5-0.5,0.7-0.7,0.7C2.9,14.1,3,13.9,3,13.7
	c0-0.1-0.1-0.2-0.4-0.2H0.1c0-0.1,0.1-0.2,0.2-0.2c0.1,0,0.2-0.1,0.4-0.4V4.1c0.1-0.3,0-0.5-0.1-0.8C0.5,3.2,0.4,3.2,0.3,3.2
	c-0.1,0-0.1-0.1-0.2-0.1L0.1,3c0,0,0-0.1,0.1-0.1c1.9,0,3,0,3.2,0c0.1,0.5,0.1,0.9,0,1.4C3.2,4.2,3.2,4,3.2,3.7
	c0-0.4-0.1-0.6-0.3-0.6C2.4,3,1.8,3,1.3,3.1z"/>
<path class="st0" d="M5.1,3.8c0-0.1,0-0.2-0.1-0.3L4.8,3.3C4.7,3.2,4.6,3.2,4.6,3.1C4.5,3.1,4.4,3.1,4.4,3L4.3,2.9
	c0,0,0-0.1,0.1-0.1h1.7c0,0,0.1,0.1,0.1,0.1C6.1,3,6.1,3,6,3.1c-0.1,0-0.2,0.1-0.3,0.1L5.7,3.4l1,3.2l1-3.2c0-0.1-0.1-0.2-0.2-0.3
	C7.4,3,7.4,2.9,7.5,2.8h0.9c0,0.1,0,0.2,0,0.2c0,0-0.1,0.1-0.2,0.3L8,3.6c0,0.1-0.1,0.2-0.1,0.3l-1,3.4l1.8,5.7c0,0.1,0,0.1,0.1,0.1
	c0.1,0.1,0.2,0.2,0.3,0.2c0.1,0,0.1,0.1,0,0.2H7.3c0-0.1,0.1-0.2,0.2-0.2c0.1,0,0.2-0.1,0.4-0.4L6.5,8.4l-1.3,4.4
	c0,0.2,0.1,0.4,0.2,0.4c0,0,0.1,0.1,0.1,0.1c0,0.1,0,0.1,0,0.1H4.6c0-0.1,0-0.2,0-0.2s0.1-0.1,0.2-0.3l1.6-5.1L5.1,3.8z"/>
<path class="st0" d="M10,4.4V3.9c0-0.3-0.2-0.4-0.4-0.5c-0.2,0-0.3-0.1-0.2-0.2C9.6,3,9.5,3.2,9.7,3.1L10.4,3h1.1
	c1.5,0,2.2,1.2,2.2,3.6c0,0.5,0,1.1-0.1,1.6c-0.1,0.3-0.2,0.6-0.3,0.8c-0.3,0.2-0.6,0.4-0.9,0.5c-0.3,0-0.7,0.1-1,0.2
	c-0.1,0.1-0.2,0.3-0.1,0.4c0.1,0.2,0.3,0.3,0.6,0.3h-0.2h-0.2c-0.1,0-0.3-0.1-0.4-0.2c-0.1-0.1-0.1-0.2-0.1-0.3c0-0.2,0-0.4,0.1-0.5
	l0,0C11,9.5,11,9.5,11,9.5c0.1-0.1,0.3-0.2,0.4-0.3c0.2,0,0.5-0.1,0.7-0.1c0.3-0.2,0.5-0.4,0.6-0.7c0.1-0.7,0.1-1.3,0.1-2
	c0-2.1-0.6-3.2-1.7-3.1l-0.4,0.1v9.5c0,0.1,0,0.1,0.1,0.1c0.1,0.1,0.2,0.2,0.3,0.2c0.1,0,0.1,0.1,0,0.2H9.5c0-0.1,0.1-0.2,0.2-0.2
	c0.2,0,0.3-0.1,0.4-0.3V4.4z"/>
<path class="st0" d="M15.2,3.1c0,1.8,0,2.9,0,3.2h0.3c0.2,0,0.4-0.2,0.6-0.5c0.1-0.2,0.2-0.4,0.2-0.6c0.1,0.2,0.1,0.4,0.1,0.6
	C16.2,6,16.1,6.2,16,6.4c0,0.2,0,0.4,0.1,0.6c0.1,0.2,0.1,0.5,0.1,0.8c0,0.3-0.2,0.6-0.5,0.6c0,0,0,0,0,0C15.9,8.2,16,8,16,7.7
	C16,7.5,16,7.2,15.9,7c-0.1-0.3-0.4-0.4-0.7-0.3v6.5c0.3,0.1,0.7,0.1,1,0.1c0.5,0,0.9-0.2,1.2-0.5c0.2-0.3,0.4-0.6,0.6-0.9
	c0,0,0,0.1,0,0.1c0,0.2-0.1,0.5-0.3,0.7c-0.3,0.5-0.5,0.8-0.5,0.9c-0.2,0.5-0.5,0.7-0.7,0.7c0.1-0.1,0.2-0.3,0.3-0.5
	c0-0.1-0.1-0.2-0.4-0.2H14c0-0.1,0.1-0.2,0.2-0.2c0.1,0,0.2-0.1,0.3-0.4V4.1c0.1-0.3,0-0.5-0.1-0.8c-0.1-0.1-0.1-0.1-0.2-0.2
	c-0.1,0-0.1-0.1-0.2-0.1L14,3c0,0,0-0.1,0.1-0.1c1.9,0,3,0,3.2,0c0.1,0.5,0.1,0.9,0,1.4c-0.1,0-0.1-0.2-0.2-0.6
	c0-0.4-0.1-0.6-0.3-0.6C16.3,3,15.8,3,15.2,3.1z"/>
<path class="st0" d="M19.5,13.1c0.3,0.1,0.7,0.1,1,0.1c0.5,0,0.9-0.2,1.3-0.5c0.2-0.3,0.4-0.6,0.6-0.9c0,0,0,0.1,0,0.1
	c0,0.2-0.1,0.5-0.3,0.7c-0.3,0.5-0.5,0.8-0.5,0.9c-0.2,0.5-0.5,0.7-0.7,0.7c0.1-0.1,0.2-0.3,0.3-0.5c0-0.1-0.1-0.2-0.4-0.2h-2.5
	c0-0.1,0.1-0.2,0.2-0.2c0.1,0,0.2-0.1,0.3-0.4V4.1c0.1-0.3,0-0.5-0.1-0.8c-0.1-0.1-0.1-0.1-0.2-0.2c-0.1,0-0.1-0.1-0.2-0.1L18.2,3
	c0,0,0-0.1,0.1-0.1c0.8,0,1.4,0,1.6,0c0,0,0.1,0.1,0.1,0.2c0,0-0.1,0.1-0.2,0.2l-0.3,0.3V13.1z"/>
<path class="st0" d="M24,13.1c0.3,0.1,0.7,0.1,1,0.1c0.5,0,0.9-0.2,1.3-0.5c0.2-0.3,0.4-0.6,0.6-0.9c0,0,0,0.1,0,0.1
	c0,0.2-0.1,0.5-0.3,0.7c-0.3,0.5-0.5,0.8-0.5,0.9c-0.2,0.5-0.5,0.7-0.7,0.7c0.1-0.1,0.2-0.3,0.3-0.5c0-0.1-0.1-0.2-0.4-0.2h-2.5
	c0-0.1,0.1-0.2,0.2-0.2c0.1,0,0.2-0.1,0.3-0.4V4.1c0.1-0.3,0-0.5-0.1-0.8c-0.1-0.1-0.1-0.1-0.2-0.2c-0.1,0-0.1-0.1-0.2-0.1L22.7,3
	c0,0,0-0.1,0.1-0.1c0.8,0,1.4,0,1.6,0c0,0,0.1,0.1,0.1,0.2c0,0-0.1,0.1-0.2,0.2L24,3.4L24,13.1z"/>
<path class="st0" d="M29,12.9c0,0.2,0.2,0.3,0.3,0.3c0.1,0,0.1,0.1,0,0.2h-1.7c0-0.1,0.1-0.2,0.2-0.2c0.1,0,0.2-0.1,0.3-0.4V4.1
	c0-0.2,0-0.3-0.1-0.5c-0.1-0.1-0.1-0.1-0.2-0.2c-0.1,0-0.1-0.1-0.2-0.1l-0.1-0.1c0,0,0-0.1,0.1-0.1h1.7c0,0,0.1,0.1,0.1,0.1
	c0,0.1,0,0.1-0.1,0.2c-0.1,0-0.2,0.1-0.3,0.1L29,3.7V12.9z"/>
<path class="st0" d="M34.9,13.5c-0.4-0.1-0.9-0.1-1.3,0c-0.1,0-0.2,0-0.3,0c-0.1-0.1,0-0.1,0.1-0.2c0.2,0,0.2-0.1,0.2-0.1
	c0,0,0-0.1,0-0.1c0-0.1-0.2-1-0.5-2.7c-0.3-1.7-0.5-2.6-0.5-2.8h-0.9c-0.1,0.6-0.3,1.7-0.5,3.1c-0.2,0.8-0.3,1.6-0.3,2.4
	c0.1,0.1,0.2,0.1,0.3,0.1c0.1,0,0.1,0,0.2,0.1c0,0,0,0.1,0,0.1c0,0.1,0,0.1-0.1,0.1l-0.6-0.1l-0.6,0.1c0,0-0.1,0-0.1-0.1
	c0,0,0-0.1,0-0.1h0.2c0.1,0,0.2-0.1,0.2-0.2c0.1-0.3,0.4-2.2,1-5.5c0.2-1.6,0.6-3.1,1-4.6c0.1,0,0.1,0.1,0.2,0.2
	c0.2,1.6,0.5,3.3,0.9,5.2c0.3,1.6,0.6,3.1,0.9,4.7c0,0.1,0.2,0.2,0.4,0.2C35,13.4,35,13.4,34.9,13.5z M32.6,7.2
	c-0.1-0.5-0.2-1.2-0.4-2c-0.1,0.4-0.2,1.1-0.3,2H32.6z"/>
<path class="st0" d="M37.2,9.5c0.1-0.1,0.2-0.2,0.4-0.2c0.2,0,0.5-0.1,0.7-0.1c0.3-0.2,0.5-0.4,0.6-0.7C39,7.7,39,7,39,6.4
	c0-2.1-0.6-3.2-1.7-3.1l-0.4,0.1v9.5c0,0.1,0,0.1,0.1,0.1c0.1,0.1,0.2,0.2,0.3,0.2c0.1,0,0.1,0.1,0,0.2h-1.7c0-0.1,0.1-0.2,0.2-0.2
	c0.2,0,0.3-0.1,0.4-0.3V4.4V3.9c0-0.3-0.2-0.4-0.4-0.5c-0.2,0-0.3-0.1-0.2-0.2c0.1-0.2,0.1-0.1,0.3-0.1L36.5,3h1.1
	c1.5,0,2.2,1.2,2.2,3.5c0,0.5,0,1.1-0.1,1.6c-0.1,0.3-0.2,0.6-0.3,0.8c-0.3,0.2-0.6,0.4-0.9,0.5l-0.5,0.1c0.2,0.6,0.7,1.6,1.4,3.1
	c0.1,0.2,0.2,0.3,0.3,0.5c0.1,0.1,0.2,0.1,0.3,0.1c0,0,0,0.1,0,0.1v0.1h-2h-0.1c0-0.1,0.1-0.2,0.2-0.2c0.2,0,0.3-0.1,0.4-0.4
	c-0.1-0.5-0.3-0.9-0.5-1.3c-0.2-0.6-0.5-1.1-0.8-1.7L37.2,9.5z"/>
<path class="st0" d="M43,13.5l1.4-9.4c0.1-0.8,0.3-1.5,0.6-2.2c0.4-0.6,0.9-1.1,1.6-1.5c-0.5,0.6-0.9,1.3-1.1,2
	c-0.2,1.1-0.3,2.3-0.2,3.5v7.1c0.1,0.2,0.2,0.4,0.4,0.4c0.1,0,0.2,0.1,0.2,0.2l-0.7-0.1l-0.8,0.1c-0.1-0.1-0.1-0.2,0.1-0.2
	c0,0,0.1,0,0.1,0c0,0,0-0.1,0.1-0.1V6.3l-1.6,10l-1.8-9.7v6.4c0,0.1,0.1,0.2,0.2,0.3c0,0,0,0.1,0,0.2h-0.8c0,0,0,0,0-0.1
	c0-0.1,0-0.1,0.1-0.1c0.1,0,0.1-0.1,0.2-0.4V4.1c0-0.2,0-0.3,0-0.5c0-0.1-0.1-0.1-0.1-0.2c0,0-0.1-0.1-0.1-0.1c0-0.1,0-0.2,0-0.2
	h0.4l0.3,0.3L43,13.5z"/>
<path class="st0" d="M49.3,11.8V5.4c0-1.1-0.1-2.3-0.3-3.4c-0.3-0.7-0.7-1.4-1.2-2c0.6,0.4,1.2,1,1.6,1.6C49.8,2.3,50,3,50.1,3.9
	v6.1c0,0.8,0,1.6-0.1,2.3c-0.1,0.8-0.9,1.4-1.8,1.4c-0.7,0.1-1.4-0.3-1.7-1c-0.1-0.3-0.2-0.7-0.1-1.1V4.1c0-0.2,0-0.5-0.1-0.7
	c-0.1-0.1-0.1-0.2-0.2-0.3c0-0.1,0-0.2,0-0.2h0.9c0.1,0.1,0.1,0.2,0,0.3c-0.1,0-0.1,0.1-0.1,0.2v0.2v8.1c0,1.1,0.4,1.7,1.3,1.7
	c0.3,0,0.6-0.1,0.9-0.3C49.3,12.6,49.4,12.2,49.3,11.8z"/>
<path class="st0" d="M55.5,10.3c-0.1,0.7-0.3,1.3-0.8,1.9c-0.5,0.8-1.3,1.3-2.2,1.3c-0.5,0-1-0.1-1.4-0.4c-0.5-0.2-0.7-0.5-0.7-0.7
	c0.1-0.5,0.5-0.8,1-0.8l-0.2,0.3c-0.1,0.1-0.1,0.3-0.1,0.5c0,0.2,0.2,0.4,0.6,0.6c0.3,0.1,0.6,0.2,0.9,0.1c0.4,0,0.8-0.3,1.3-0.9
	c0.3-0.3,0.5-0.7,0.6-1.1v-1c-0.1-0.6-0.4-1.2-0.9-1.6l-1.7-1.3c-0.6-0.5-0.9-0.9-0.9-1.3c0-0.6,0.2-1.2,0.5-1.7
	C51.7,3.5,52.3,3,53,3c0.2,0,0.4,0.1,0.6,0.2c0,0.2-0.1,0.3-0.4,0.3h-0.2h-0.2c-0.4,0-0.7,0.3-0.9,0.9c-0.1,0.3-0.1,0.7-0.2,1
	c0,0.7,0.4,1.4,1,1.8l1.8,1C55.2,8.7,55.6,9.5,55.5,10.3z"/>
<path class="st1" d="M294.6,144.6C294.6,144.6,294.6,144.5,294.6,144.6c0-0.1,0-0.1,0.1-0.1c0,0,0.1,0,0.1,0c0,0,0.1,0,0.2,0
	c0,0,0.1,0,0.1,0c0,0,0.1,0,0.1,0c0,0,0,0,0.1,0c0,0,0.1,0,0.1,0c0,0,0.1,0,0.1,0c0,0,0.1,0,0.1,0c0,0,0.1,0,0.1,0c0,0,0.1,0,0.1,0
	c0.1,0,0.2,0,0.4,0c0.1,0,0.3,0,0.4,0c0.1,0,0.2,0,0.3,0c0.1,0,0.3,0,0.4,0c0,0,0-0.1,0.2,0c0,0,0.7,0,0.8,0c0,0,0.1,0,0.1,0
	c0,0,0.1,0,0.1,0c0,0,0.1,0,0.2,0c0.1,0,0.2,0,0.4,0c0.1,0,0.3,0,0.4,0c0,0,0,0,0.1,0c0.1,0,0.1,0,0.1,0s0,0,0.1,0c0,0,0,0,0,0
	c0,0,0-0.1,0.1-0.2c0,0,0.1,0,0.1-0.1c0,0,0.1-0.1,0.2,0c0,0,0.1,0,0.1,0.1c0,0,0,0,0,0c0,0,0,0,0-0.1c0.1-0.1,0.2-0.1,0.2-0.1
	c0,0,0.1,0,0.1,0c0.1,0,0.1,0.1,0.1,0.1c0,0,0,0.1,0,0.1h0.2c0.1,0,0.1,0,0.2,0c0.2,0,0.3,0,0.5,0c0.4,0,0.7,0,1.1,0
	c0.2,0,0.5,0,0.7,0c0,0,0.5,0,0.5,0c0,0,0.6,0,0.6,0c0,0,1.1,0,1.2,0c0,0,0.9,0,0.9,0s0.8-0.1,0.9-0.1s0.3,0,0.3,0
	c0.3,0,0.6,0,0.9,0.1c0.2,0,0.5,0,0.7,0l1.3,0c0.2,0,0.4,0,0.6,0c0.2,0,0.4,0,0.5,0c0.1,0,0.3,0,0.4,0c0.1,0,0.2,0,0.3,0
	c0,0,0,0,0,0c0,0,0,0,0,0c-0.1,0-0.1,0-0.1,0c-0.1,0-0.2,0-0.4,0c-0.4,0-0.7,0-1,0c-0.2,0-0.4,0-0.8,0c-0.2,0-0.4,0-0.5,0
	c-0.3,0-0.7,0-1.2,0c-0.3,0-0.6,0-0.9,0c-0.2,0-0.4,0-0.7,0c0,0-0.8,0.1-0.9,0.1c-0.1,0-0.5,0-0.6,0c-0.4,0-0.7,0-0.9,0
	c-0.2,0-0.2,0-0.6,0c-0.2,0-0.5,0-0.8,0c-0.6,0-0.8,0-0.9,0c-0.2,0-0.4,0-0.5,0c0,0-1,0-1.2,0c0,0,0,0.1-0.1,0.1
	c0,0-0.1,0.1-0.2,0.1c-0.1,0-0.2-0.1-0.2-0.1c0,0,0,0-0.1,0c-0.1,0.1-0.3,0-0.3,0c-0.1,0-0.1-0.1-0.2-0.1c-0.3,0-0.6,0-0.9,0
	c0,0-0.1,0-0.1,0c-0.1,0-0.1,0-0.2,0c0,0-0.4-0.1-0.9,0c-0.1,0-0.3,0-0.5,0c-0.3,0-0.5,0-0.7,0.1c-0.1,0-0.1,0-0.2,0
	c-0.1,0-0.2,0-0.3,0.1c-0.1,0-0.2,0-0.3,0c-0.4,0-0.7,0-1,0l-0.1-0.1c0,0,0-0.1,0-0.1c0,0,0-0.1,0-0.1c0,0,0-0.1,0-0.1
	C294.5,144.7,294.5,144.7,294.6,144.6C294.5,144.6,294.5,144.6,294.6,144.6z"/>
</svg>
