<?xml version="1.0" encoding="utf-8"?>
<!-- Generator: Adobe Illustrator 21.0.2, SVG Export Plug-In . SVG Version: 6.00 Build 0)  -->
<svg version="1.1" id="Layer_1" xmlns="http://www.w3.org/2000/svg" xmlns:xlink="http://www.w3.org/1999/xlink" x="0px" y="0px"
	 viewBox="0 0 89.4 14.9" style="enable-background:new 0 0 89.4 14.9;" xml:space="preserve">
<style type="text/css">
	.st0{fill:#3A296C;}
	.st1{fill:#DCB041;}
</style>
<title>font</title>
<path class="st0" d="M294.6,144.6C294.6,144.6,294.6,144.5,294.6,144.6c0-0.1,0-0.1,0.1-0.1h0.1c0,0,0.1,0,0.2,0h0.1h0.1
	c0,0,0,0,0.1,0h0.1h0.1h0.1h0.1h0.1c0.1,0,0.2,0,0.4,0c0.1,0,0.3,0,0.4,0s0.2,0,0.3,0c0.1,0,0.3,0,0.4,0c0,0,0-0.1,0.2,0
	c0,0,0.7,0,0.8,0h0.1h0.1c0,0,0.1,0,0.2,0s0.2,0,0.4,0c0.1,0,0.3,0,0.4,0c0,0,0,0,0.1,0s0.1,0,0.1,0s0,0,0.1,0l0,0
	c0,0,0-0.1,0.1-0.2c0,0,0.1,0,0.1-0.1c0,0,0.1-0.1,0.2,0c0,0,0.1,0,0.1,0.1l0,0c0,0,0,0,0-0.1c0.1-0.1,0.2-0.1,0.2-0.1h0.1
	c0.1,0,0.1,0.1,0.1,0.1v0.1h0.2c0.1,0,0.1,0,0.2,0c0.2,0,0.3,0,0.5,0c0.4,0,0.7,0,1.1,0c0.2,0,0.5,0,0.7,0h0.5h0.6c0,0,1.1,0,1.2,0
	h0.9c0,0,0.8-0.1,0.9-0.1s0.3,0,0.3,0c0.3,0,0.6,0,0.9,0.1c0.2,0,0.5,0,0.7,0h1.3c0.2,0,0.4,0,0.6,0s0.4,0,0.5,0s0.3,0,0.4,0
	s0.2,0,0.3,0l0,0l0,0c-0.1,0-0.1,0-0.1,0c-0.1,0-0.2,0-0.4,0c-0.4,0-0.7,0-1,0c-0.2,0-0.4,0-0.8,0c-0.2,0-0.4,0-0.5,0
	c-0.3,0-0.7,0-1.2,0c-0.3,0-0.6,0-0.9,0c-0.2,0-0.4,0-0.7,0c0,0-0.8,0.1-0.9,0.1s-0.5,0-0.6,0c-0.4,0-0.7,0-0.9,0
	c-0.2,0-0.2,0-0.6,0c-0.2,0-0.5,0-0.8,0c-0.6,0-0.8,0-0.9,0c-0.2,0-0.4,0-0.5,0c0,0-1,0-1.2,0c0,0,0,0.1-0.1,0.1
	c0,0-0.1,0.1-0.2,0.1s-0.2-0.1-0.2-0.1s0,0-0.1,0c-0.1,0.1-0.3,0-0.3,0c-0.1,0-0.1-0.1-0.2-0.1c-0.3,0-0.6,0-0.9,0h-0.1
	c-0.1,0-0.1,0-0.2,0c0,0-0.4-0.1-0.9,0c-0.1,0-0.3,0-0.5,0c-0.3,0-0.5,0-0.7,0.1c-0.1,0-0.1,0-0.2,0s-0.2,0-0.3,0.1
	c-0.1,0-0.2,0-0.3,0c-0.4,0-0.7,0-1,0l-0.1-0.1v-0.1v-0.1v-0.1C294.5,144.7,294.5,144.7,294.6,144.6
	C294.5,144.6,294.5,144.6,294.6,144.6z"/>
<g>
	<path class="st1" d="M2.6,7.2c0-1.5,0.1-2.6,0.3-3.3C3.1,3,3.6,2.6,4.2,2.5c0.6,0,1.1,0.4,1.3,1.3c0.2,0.7,0.3,1.8,0.3,3.3
		c0,1.7,0,2.8-0.1,3.3c-0.2,0.9-0.7,1.3-1.5,1.3c-0.6,0-1.1-0.5-1.3-1.4C2.7,9.7,2.6,8.6,2.6,7.2z M2.9,7.2c0,1.4,0.1,2.4,0.2,3.1
		c0.2,0.9,0.5,1.3,0.9,1.3c0.5,0,0.9-0.4,1-1.3c0.1-0.4,0.1-1.5,0.1-3.1c0-0.2,0-0.5,0-0.9c0-0.4,0-0.7,0-0.8c0-0.9-0.1-1.6-0.2-1.9
		C4.8,3,4.5,2.7,4,2.8c-0.4,0-0.7,0.5-0.9,1.3C3,4.7,2.9,5.7,2.9,7.2z"/>
	<path class="st1" d="M7.4,11.4c0.3,0.1,0.6,0.1,0.8,0.1c0.5,0,0.8-0.1,1.1-0.4c0.2-0.3,0.3-0.5,0.5-0.8c0,0,0,0.1,0,0.1
		c0,0.1-0.1,0.3-0.2,0.6c-0.3,0.5-0.2,0.6-0.4,0.7c-0.2,0.1-0.3,0-0.7,0c-0.7-0.1-2,0-2.1,0c0,0,0,0,0,0c0-0.1,0.1-0.2,0.2-0.2
		c0.1,0,0.2-0.1,0.3-0.3V3.7c0-0.3,0-0.5-0.1-0.7c0-0.1-0.1-0.1-0.2-0.1c-0.1,0-0.1-0.1-0.2-0.1s0-0.1-0.1-0.1c0,0,0-0.1,0.1-0.1
		c0.7,0,1.2,0,1.3,0c0,0.1,0.1,0.1,0.1,0.1c0,0-0.1,0.1-0.2,0.1L7.4,3.1V11.4z"/>
	<path class="st1" d="M11.3,11.4c0.3,0.1,0.6,0.1,0.8,0.1c0.5,0,0.8-0.1,1.1-0.4c0.2-0.3,0.3-0.5,0.5-0.8c0,0,0,0.1,0,0.1
		c0,0.1-0.1,0.3-0.2,0.6c-0.3,0.5-0.2,0.6-0.4,0.7c-0.2,0.1-0.3,0-0.7,0c-0.7-0.1-2,0-2.1,0c0,0,0,0,0,0c0-0.1,0.1-0.2,0.2-0.2
		c0.1,0,0.2-0.1,0.3-0.3V3.7c0-0.3,0-0.5-0.1-0.7c0-0.1-0.1-0.1-0.2-0.1c-0.1,0-0.1-0.1-0.2-0.1s0-0.1-0.1-0.1c0,0,0-0.1,0.1-0.1
		c0.7,0,1.2,0,1.3,0c0,0.1,0.1,0.1,0.1,0.1c0,0-0.1,0.1-0.2,0.1l-0.2,0.2V11.4z"/>
	<path class="st1" d="M15.6,11.2c0.1,0.2,0.2,0.3,0.3,0.3c0.1,0,0.1,0.1,0,0.2h-1.4c0,0,0,0,0,0c0-0.1,0.1-0.2,0.2-0.2
		c0.1,0,0.2-0.1,0.3-0.3V3.7c0-0.2,0-0.3-0.1-0.4c0-0.1-0.1-0.1-0.2-0.1c-0.1,0-0.1-0.1-0.1-0.1s0-0.1,0-0.1c0,0,0-0.1,0-0.1
		c0,0,0.1,0,0.3,0c0.2,0,0.3,0,0.4,0c0.4,0,0.7,0,0.7,0c0,0,0,0.1,0,0.1c0,0.1,0,0.1-0.1,0.2c-0.1,0-0.2,0.1-0.2,0.1
		c0,0,0,0.1-0.1,0.1V11.2z"/>
	<path class="st1" d="M18.3,11.7c0,0.2-0.4-2.4-1.4-8c0-0.2,0-0.4-0.1-0.6c0-0.1-0.1-0.1-0.1-0.1s-0.1,0-0.1,0c0-0.1,0-0.1,0-0.2
		c0,0,0.1,0,0.2,0c0.1,0,0.2,0,0.2,0c0.2,0,0.3,0,0.4,0c0,0.1,0,0.2,0,0.2c0,0-0.1,0-0.1,0c0,0,0,0,0,0.1c0,0.3,0.4,2.6,1.2,7
		l1.1-5.4c0.2-1,0.3-1.7,0.3-2.2c0-0.4-0.1-0.7-0.2-1.1c-0.2-0.4-0.4-0.8-0.5-1.2c0.5,0.6,0.9,1,1,1.3c0.2,0.4,0.4,1,0.4,1.6
		c0,0.2,0,0.3,0,0.5l-1.6,7.5c-0.1,0.4-0.2,0.7-0.4,0.7C18.4,11.8,18.4,11.8,18.3,11.7z"/>
	<path class="st1" d="M24.8,11.7c-0.1,0-0.3,0-0.6-0.1c-0.1,0-0.2,0-0.5,0.1c-0.1,0-0.2,0-0.3,0c-0.1-0.1,0-0.1,0.1-0.1
		c0.1,0,0.2,0,0.2-0.1c0,0,0-0.1,0-0.1c0-0.1-0.1-0.9-0.4-2.3c-0.3-1.4-0.4-2.2-0.5-2.4h-0.7c-0.1,0.5-0.3,1.4-0.4,2.7
		c-0.2,1.3-0.3,2-0.3,2.1c0.1,0.1,0.2,0.1,0.2,0.1c0.1,0,0.1,0,0.1,0c0,0,0,0,0,0.1c0,0,0,0.1,0,0.1c-0.4,0-0.6-0.1-0.5-0.1
		c0,0-0.1,0-0.5,0.1c0,0-0.1,0-0.1,0c0,0,0-0.1,0-0.1c0,0,0.1,0,0.1,0c0.1,0,0.1-0.1,0.2-0.1c0.1-0.3,0.4-1.8,0.9-4.7
		c0.5-2.6,0.7-3.9,0.8-3.9c0.1,0,0.1,0.1,0.2,0.2c0.2,1.4,0.4,2.8,0.7,4.4c0.3,1.3,0.5,2.7,0.8,4c0,0.1,0.1,0.1,0.3,0.2
		C24.8,11.6,24.8,11.7,24.8,11.7z M22.9,6.3c-0.1-0.5-0.2-1-0.3-1.7c-0.1,0.4-0.2,0.9-0.3,1.7H22.9z"/>
	<path class="st1" d="M28.1,4.2c0-0.6,0.1-1.2,0.4-1.8c0.3-0.9,0.8-1.5,1.5-1.9c-0.5,0.7-0.8,1.3-0.9,1.7c-0.1,0.5-0.2,1.5-0.2,3
		l0,5.5c0,0.9,0,1.4,0,1.6c0,0.5,0.1,1.2,0.3,1.9c-0.5-0.6-0.8-1.4-1-2.5c-0.1-0.8-0.5-2-1-3.5c-0.6-1.7-0.9-2.7-1-3.1v6.2
		c0,0.2,0.1,0.3,0.1,0.3c0,0,0,0.1,0,0.2h-0.7c0,0,0,0,0-0.1c0-0.1,0-0.1,0.1-0.1c0,0,0.1-0.1,0.1-0.3V3.7c0-0.2,0-0.3,0-0.4
		c-0.1-0.1-0.1-0.2-0.2-0.2c0-0.1,0-0.1,0-0.2c0,0,0.1,0,0.2,0c0.1,0,0.2,0,0.2,0l0.3,0.3l1.9,6.3V4.2z"/>
	<path class="st1" d="M29.4,11.7c-0.1,0-0.1-0.1,0-0.2c0-0.1,0.1-0.1,0.1-0.1c0-0.1,0-0.1,0-0.1V4c0-0.2,0-0.4,0-0.6
		c0-0.4,0.1-0.6,0.3-0.6c0.4,0,0.8,0,1.1,0.1c0.4,0.1,0.7,0.2,1,0.4c0.4,0.2,0.6,0.5,0.6,0.8c0.1,0.6,0.1,1.6,0.1,3
		c0,1.9-0.1,3.2-0.2,3.7c-0.1,0.4-0.4,0.7-0.9,0.8c-0.3,0.1-0.7,0.1-1.2,0.1L29.4,11.7z M30.1,3.1v8.3c0.2,0,0.3,0.1,0.5,0.1
		c0.7,0,1-0.3,1.2-1c0.1-0.6,0.2-1.8,0.2-3.6c0-1.6-0.1-2.6-0.2-3C31.6,3.3,31.1,3.1,30.1,3.1z"/>
	<path class="st1" d="M34,2.9c0,1.6,0,2.5,0,2.7c0.1,0,0.2,0,0.2,0c0.2,0,0.5-0.4,0.5-0.4C34.9,5,34.9,4.9,35,4.9c0,0,0,0.1,0,0.2
		c0,0-0.1,0.1-0.1,0.2c-0.1,0.3-0.1,0.5-0.1,0.9c0,0.4,0,0.6-0.1,0.6c0,0,0-0.3-0.2-0.7c-0.1-0.2-0.3-0.3-0.6-0.3v5.5
		c0.3,0.1,0.6,0.1,0.8,0.1c0.5,0,0.8-0.1,1.1-0.4c0.2-0.3,0.3-0.5,0.5-0.8c0,0,0,0.1,0,0.1c0,0.1-0.1,0.3-0.2,0.6
		c-0.3,0.5-0.2,0.6-0.4,0.7c-0.2,0.1-0.3,0-0.7,0c-0.7-0.1-2,0-2.1,0c0,0,0,0,0,0c0-0.1,0.1-0.2,0.2-0.2c0.1,0,0.2-0.1,0.3-0.3V3.7
		c0-0.3,0-0.5-0.1-0.7c0-0.1-0.1-0.1-0.2-0.1c-0.1,0-0.1-0.1-0.1-0.1c0,0,0-0.1-0.1-0.1c0,0,0-0.1,0.1-0.1c1.6,0,2.5,0,2.7,0
		c0.1,0.1,0.1,0.5,0,1.2c-0.1,0-0.1-0.2-0.1-0.5c0-0.3-0.1-0.5-0.2-0.5C34.7,2.8,34.3,2.8,34,2.9z"/>
	<path class="st1" d="M37.9,8.3c0-0.1,0.1-0.1,0.3-0.2C38.6,8,38.8,8,38.9,8c0.2-0.1,0.4-0.3,0.5-0.6c0.1-0.6,0.1-1.2,0.1-1.7
		C39.5,3.8,39,3,38.1,3c0,0-0.1,0-0.4,0.1v5c0,0,0,0.1,0,0.2c0,0.1,0,0.3,0,0.7c0-0.4,0,0.4,0,2.2c0,0,0,0.1,0.1,0.1
		c0.1,0.1,0.1,0.1,0.2,0.2c0.1,0,0.1,0.1,0,0.2h-1.4c0,0,0,0,0,0c0-0.1,0.1-0.2,0.2-0.2c0.1,0,0.2-0.1,0.3-0.3V4c0-0.1,0-0.3,0-0.4
		c0-0.2-0.1-0.4-0.3-0.4C36.6,3,36.6,3,36.6,3c0,0,0.1-0.1,0.2-0.1c0.1,0,0.3,0,0.5,0l0.9,0c1.2,0,1.9,1,1.9,3c0,0.4,0,0.8-0.1,1.4
		c-0.1,0.4-0.2,0.6-0.3,0.7C39.7,8,39.4,8.2,39,8.3c-0.1,0-0.2,0-0.5,0.1c0.2,0.5,0.6,1.4,1.2,2.7c0.1,0.2,0.2,0.4,0.3,0.4
		c0.1,0.1,0.2,0.1,0.3,0.1c0,0,0,0,0,0c0,0,0,0,0,0.1c0,0,0,0,0,0.1h-1.7c0,0,0,0,0,0c0-0.1,0.1-0.2,0.2-0.2c0.2,0,0.3-0.1,0.4-0.3
		c0-0.1-0.1-0.4-0.4-1.1c-0.3-0.7-0.5-1.2-0.6-1.4L37.9,8.3z"/>
	<path class="st1" d="M42.7,3.5c-0.3,1-0.8,2.3-1.1,2.8l-0.7,0.1c0.3-0.7,0.6-2,0.7-2.8L42.7,3.5z"/>
	<path class="st1" d="M47.3,9c0,0.4-0.2,1-0.7,1.6c-0.5,0.7-1.2,1.1-1.9,1.1c-0.4,0-0.8-0.1-1.2-0.3C43.2,11.2,43,11,43,10.8
		c0-0.1,0.1-0.3,0.3-0.5c0.2-0.2,0.4-0.3,0.6-0.2c-0.1,0.1-0.1,0.2-0.2,0.3c-0.1,0.1-0.1,0.2-0.1,0.4c0,0.2,0.2,0.4,0.5,0.5
		c0.2,0.1,0.5,0.1,0.7,0.1c0.3,0,0.7-0.3,1.1-0.8c0.3-0.5,0.5-0.8,0.5-1V8.7c0-0.5-0.3-0.9-0.8-1.4c-0.5-0.4-1-0.7-1.4-1.1
		c-0.5-0.4-0.8-0.8-0.8-1.1c0-0.4,0.1-0.9,0.4-1.4c0.4-0.6,0.9-0.9,1.4-0.9c0.2,0,0.4,0.1,0.5,0.2c0,0.2-0.1,0.3-0.3,0.3
		c0,0-0.1,0-0.2,0c-0.1,0-0.1,0-0.2,0c-0.4,0-0.6,0.3-0.8,0.8c-0.1,0.3-0.1,0.6-0.1,0.8c0,0.6,0.3,1.1,0.8,1.5
		c0.5,0.3,1,0.6,1.5,0.9C47.1,7.5,47.3,8.2,47.3,9z"/>
	<path class="st1" d="M52.4,3.9c0-0.1-0.1-0.3-0.2-0.3c-0.2-0.1-0.3-0.1-0.3-0.1c0-0.1,0.3-0.2,1.5-0.6c0.1,0.1,0.1,0.1,0,0.2
		c-0.1,0.1-0.2,0.1-0.2,0.2l1.1,7.1l1.6-9.7c1.4,6.8,2.1,10,2.1,9.7l1.1-7c-0.1-0.1-0.1-0.2-0.2-0.2c0,0,0-0.1,0-0.2l0.4,0
		c0.2,0,0.3,0,0.4,0c0,0,0,0,0,0.1c0,0,0,0.1-0.1,0.1c-0.1,0-0.1,0.1-0.2,0.3L58,11c-0.1,0.5-0.1,0.7-0.2,0.8c0,0,0,0-0.2,0
		c-0.1,0-0.2,0-0.2,0L55.6,3l-1.2,8c0,0.4-0.1,0.7-0.3,0.9c-0.3,0-0.4-0.2-0.5-0.5c-0.1-0.6-0.2-1.2-0.3-1.8L52.4,3.9z"/>
	<path class="st1" d="M63.7,11.8c-0.1,0-0.3,0-0.6-0.1c-0.1,0-0.2,0-0.5,0.1c-0.1,0-0.2,0-0.3,0c-0.1-0.1,0-0.1,0.1-0.1
		c0.1,0,0.2,0,0.2-0.1c0,0,0-0.1,0-0.1c0-0.1-0.1-0.9-0.4-2.3c-0.3-1.4-0.4-2.2-0.5-2.4h-0.7c-0.1,0.5-0.3,1.4-0.4,2.7
		c-0.2,1.3-0.3,2-0.3,2.1c0.1,0.1,0.2,0.1,0.2,0.1c0.1,0,0.1,0,0.1,0c0,0,0,0,0,0.1c0,0,0,0.1,0,0.1c-0.4,0-0.6-0.1-0.5-0.1
		c0,0-0.1,0-0.5,0.1c0,0-0.1,0-0.1,0c0,0,0-0.1,0-0.1c0,0,0.1,0,0.1,0c0.1,0,0.1-0.1,0.2-0.1c0.1-0.3,0.4-1.8,0.9-4.7
		c0.5-2.6,0.7-3.9,0.8-3.9c0.1,0,0.1,0.1,0.2,0.2c0.2,1.4,0.4,2.8,0.7,4.4c0.3,1.3,0.5,2.7,0.8,4c0,0.1,0.1,0.1,0.3,0.2
		C63.8,11.7,63.8,11.8,63.7,11.8z M61.8,6.4c-0.1-0.5-0.2-1-0.3-1.7c-0.1,0.4-0.2,0.9-0.3,1.7H61.8z"/>
	<path class="st1" d="M67.1,4.3c0-0.6,0.1-1.2,0.4-1.8c0.3-0.9,0.8-1.5,1.5-1.9C68.4,1.4,68.1,2,68,2.4c-0.1,0.5-0.2,1.5-0.2,3
		l0,5.5c0,0.9,0,1.4,0,1.6c0,0.5,0.1,1.2,0.3,1.9c-0.5-0.6-0.8-1.4-1-2.5c-0.1-0.8-0.5-2-1-3.5c-0.6-1.7-0.9-2.7-1-3.1v6.2
		c0,0.2,0.1,0.3,0.1,0.3c0,0,0,0.1,0,0.2h-0.7c0,0,0,0,0-0.1c0-0.1,0-0.1,0.1-0.1c0,0,0.1-0.1,0.1-0.3V3.8c0-0.2,0-0.3,0-0.4
		c-0.1-0.1-0.1-0.2-0.2-0.2c0-0.1,0-0.1,0-0.2c0,0,0.1,0,0.2,0c0.1,0,0.2,0,0.2,0l0.3,0.3l1.9,6.3V4.3z"/>
	<path class="st1" d="M68.3,11.8c-0.1,0-0.1-0.1,0-0.2c0-0.1,0.1-0.1,0.1-0.1c0-0.1,0-0.1,0-0.1V4.1c0-0.2,0-0.4,0-0.6
		c0-0.4,0.1-0.6,0.3-0.6c0.4,0,0.8,0,1.1,0.1c0.4,0.1,0.7,0.2,1,0.4c0.4,0.2,0.6,0.5,0.6,0.8c0.1,0.6,0.1,1.6,0.1,3
		c0,1.9-0.1,3.2-0.2,3.7c-0.1,0.4-0.4,0.7-0.9,0.8c-0.3,0.1-0.7,0.1-1.2,0.1L68.3,11.8z M69,3.2v8.3c0.2,0,0.3,0.1,0.5,0.1
		c0.7,0,1-0.3,1.2-1s0.2-1.8,0.2-3.6c0-1.6-0.1-2.6-0.2-3C70.6,3.4,70,3.2,69,3.2z"/>
	<path class="st1" d="M76.1,9.1c0,0.4-0.2,1-0.7,1.6c-0.5,0.7-1.2,1.1-1.9,1.1c-0.4,0-0.8-0.1-1.2-0.3c-0.4-0.2-0.6-0.4-0.6-0.6
		c0-0.1,0.1-0.3,0.3-0.5c0.2-0.2,0.4-0.3,0.6-0.2c-0.1,0.1-0.1,0.2-0.2,0.3c-0.1,0.1-0.1,0.2-0.1,0.4c0,0.2,0.2,0.4,0.5,0.5
		c0.2,0.1,0.5,0.1,0.7,0.1c0.3,0,0.7-0.3,1.1-0.8c0.3-0.5,0.5-0.8,0.5-1V8.8c0-0.5-0.3-0.9-0.8-1.4c-0.5-0.4-1-0.7-1.4-1.1
		c-0.5-0.4-0.8-0.8-0.8-1.1c0-0.4,0.1-0.9,0.4-1.4C73,3.2,73.4,2.9,74,2.9c0.2,0,0.4,0.1,0.5,0.2c0,0.2-0.1,0.3-0.3,0.3
		c0,0-0.1,0-0.2,0c-0.1,0-0.1,0-0.2,0c-0.4,0-0.6,0.3-0.8,0.8c-0.1,0.3-0.1,0.6-0.1,0.8c0,0.6,0.3,1.1,0.8,1.5
		c0.5,0.3,1,0.6,1.5,0.9C75.8,7.7,76.1,8.3,76.1,9.1z"/>
</g>
</svg>
