<?xml version="1.0" encoding="utf-8"?>
<!-- Generator: Adobe Illustrator 21.0.2, SVG Export Plug-In . SVG Version: 6.00 Build 0)  -->
<svg version="1.1" id="Layer_1" xmlns="http://www.w3.org/2000/svg" xmlns:xlink="http://www.w3.org/1999/xlink" x="0px" y="0px"
	 viewBox="0 0 1091.3 424.4" style="enable-background:new 0 0 1091.3 424.4;" xml:space="preserve">
<style type="text/css">
	.st0{fill:#593425;}
	.st1{fill:#444135;}
	.st2{fill:#4F4F49;}
	.st3{fill:#392115;}
	.st4{fill:#947C79;}
	.st5{fill:#9A8580;}
	.st6{fill:#A2A1A1;}
	.st7{fill:#92918F;}
	.st8{fill:#333028;}
	.st9{fill:#32322C;}
	.st10{fill:#1E1E1A;}
	.st11{fill:#5F5E58;}
	.st12{fill:#838F89;}
	.st13{fill:#1D191B;}
</style>
<g>
	<g>
		<path class="st0" d="M1067.5,371.4L397.9,157c-0.8-3.4-3.2-6.3-6.8-7.4c-3.5-1.1-7.2-0.2-9.7,2.1l-65-20.8
			c-2.8-0.9-5.5-1.8-8.2-2.7c0.5-7.5-0.8-12.9-4-14c-3.2-1-7.4,2.6-11.2,8.9c-5.9-2-11.7-3.9-17.4-5.9c0.3-8.1-1.7-14.2-5.8-15.5
			c-4-1.3-9.1,2.4-13.4,9c-4.9-1.7-9.7-3.3-14.4-5c0.6-8.9-1.3-15.6-5.4-16.9c-4-1.3-9.3,2.8-13.8,10.1c-4.8-1.7-9.4-3.4-14-5
			c0.7-8.6-0.9-15-4.6-16.1c-3.6-1.1-8.3,2.9-12.6,9.9c-4.9-1.8-9.7-3.6-14.4-5.3c0.5-8.6-1.3-14.9-5.3-16.2
			c-3.7-1.2-8.6,2.6-13,9.3c-5.1-1.9-10-3.8-14.7-5.6c0.3-8.3-1.4-14.3-5.1-15.5c-3.5-1.1-8.1,2.3-12.4,8.6
			c-4.6-1.8-9.1-3.6-13.4-5.3c-0.1-7.1-1.8-12-5.2-13.1c-3.1-1-7,1.6-10.9,6.6c-5.6-2.3-10.8-4.5-15.6-6.5c0-7.3-1.6-12.5-4.9-13.5
			c-3-0.9-6.9,1.7-10.7,6.9c-7.5-3.2-13.3-5.8-17.3-7.6c-0.5-5.2-2-8.8-4.7-9.6c-6.3-2-16.4,12-22.5,31.3s-5.9,36.6,0.4,38.6
			c2.6,0.8,5.9-1.1,9.3-5.1c4.9,0.8,11.2,2.2,18.6,3.8c0.2,6.3,1.9,10.6,4.8,11.5c3.2,1,7.3-2,11.3-7.7c5.3,1.3,11,2.8,17,4.3
			c0.4,5.6,2.1,9.5,5.1,10.4c3.1,1,6.9-1.5,10.7-6.3c4.9,1.3,10,2.7,15.1,4c0.2,6.5,2,11,5.2,12c3.3,1,7.5-1.9,11.6-7.5
			c5.5,1.5,11.2,3.1,16.8,4.6c0.3,6.5,2,11,5.3,12c3.4,1.1,7.6-1.8,11.6-7.3c5.6,1.6,11.2,3.2,16.8,4.7c0.1,6.2,1.7,10.6,4.7,11.6
			c3.1,1,7-1.9,10.8-7.1c5.6,1.6,11.1,3.2,16.6,4.7c0.3,6.3,2.2,10.9,5.5,11.9c3.4,1.1,7.7-1.7,11.7-7c6,1.7,11.7,3.4,17.2,5
			c0.5,5.5,2.5,9.5,5.7,10.5c3.3,1,7.2-1.2,10.9-5.6c7.4,2.2,14,4.1,19.8,5.8c0,5.8,1.4,10,4.1,10.8c2.8,0.9,6.4-1.8,9.8-6.7
			c5.8,1.7,9,2.7,9,2.7l753.9,231.9c6,1.9,12.4-1.4,14.3-7.4C1076.8,379.7,1073.5,373.3,1067.5,371.4z"/>
	</g>
	<g>
		<path class="st1" d="M426.8,166.4l-29.2-9.3c-0.8-3.4-3.3-6.3-6.9-7.4s-7.3-0.2-9.8,2.1l-65.7-21.1c-2.8-0.9-5.5-1.8-8.3-2.7
			c-0.1,18.2-10.4,30.4-10.4,30.4c5.8,1.7,9.1,2.7,9.1,2.7l113,34.8l9.7-29L426.8,166.4z"/>
	</g>
	<g>
		<path class="st2" d="M307.5,128c0.5-7.5-0.8-12.9-4-14c-3.2-1-7.4,2.6-11.2,8.9c-5.9-2-11.7-3.9-17.4-5.9
			c0.3-8.1-1.7-14.2-5.8-15.5c-4-1.3-9.1,2.4-13.4,9c-4.9-1.7-9.7-3.3-14.4-5c0.6-8.9-1.3-15.6-5.4-16.9c-4-1.3-9.3,2.8-13.8,10.1
			c-4.8-1.7-9.4-3.4-14-5c0.7-8.6-0.9-15-4.6-16.1c-3.6-1.1-8.3,2.9-12.6,9.9c-4.9-1.8-9.7-3.6-14.4-5.3c0.5-8.6-1.3-14.9-5.3-16.2
			c-3.7-1.2-8.6,2.6-13,9.3c-5.1-1.9-10-3.8-14.7-5.6c0.3-8.3-1.4-14.3-5.1-15.5c-3.5-1.1-8.1,2.3-12.4,8.6
			c-4.6-1.8-9.1-3.6-13.4-5.3c-0.1-7.1-1.8-12-5.2-13.1c-3.1-1-7,1.6-10.9,6.6c-5.6-2.3-10.8-4.5-15.6-6.5c0-7.3-1.6-12.5-4.9-13.5
			c-3-0.9-6.9,1.7-10.7,6.9C57.8,34.7,52,32.1,48,30.3c-0.5-5.2-2-8.8-4.7-9.6c-6.3-2-16.4,12-22.5,31.3s-5.9,36.6,0.4,38.6
			c2.6,0.8,5.9-1.1,9.3-5.1c4.9,0.8,11.2,2.2,18.6,3.8c0.2,6.3,1.9,10.6,4.8,11.5c3.2,1,7.3-2,11.3-7.7c5.3,1.3,11,2.8,17,4.3
			c0.4,5.6,2.1,9.5,5.1,10.4c3.1,1,6.9-1.5,10.7-6.3c4.9,1.3,10,2.7,15.1,4c0.2,6.5,2,11,5.2,12c3.3,1,7.5-1.9,11.6-7.5
			c5.5,1.5,11.2,3.1,16.8,4.6c0.3,6.5,2,11,5.3,12c3.4,1.1,7.6-1.8,11.6-7.3c5.6,1.6,11.2,3.2,16.8,4.7c0.1,6.2,1.7,10.6,4.7,11.6
			c3.1,1,7-1.9,10.8-7.1c5.6,1.6,11.1,3.2,16.6,4.7c0.3,6.3,2.2,10.9,5.5,11.9c3.4,1.1,7.7-1.7,11.7-7c6,1.7,11.7,3.4,17.2,5
			c0.5,5.5,2.5,9.5,5.7,10.5c3.3,1,7.2-1.2,10.9-5.6c7.4,2.2,14,4.1,19.8,5.8c0,5.8,1.4,10,4.1,10.8c2.8,0.9,6.4-1.8,9.8-6.7
			C297.1,158.4,309.9,145.1,307.5,128z"/>
	</g>
	<g>
		<path class="st3" d="M1060.5,394L418.4,196.4c0,0,27.5-5.4,86,16c0,0,22.3,9.9,28,8.4c5.7-1.4,10.7-3.8,15.8-2.2s2.7,5.5,5.8,6.8
			s31.7,8,37.7,12.2c5.9,4.2,17,11.9,22.5,11.2s14.3-0.2,20.7,1.4c6.4,1.7,20.1,4.4,29.2,7.9c9.1,3.5,34.6,9.6,44,14.2
			c9.4,4.6,60.4,17.7,78.9,25.9s76,21.7,84,27.5c8.1,5.8,75.3,20.8,83.1,26.2S1053.6,378.6,1060.5,394z"/>
	</g>
	<g>
		<g>
			<path class="st4" d="M960.4,346.9c25.2,7.9,50.3,15.9,75.5,23.8c1.5,0.5,2.2-1.9,0.7-2.4c-25.2-7.9-50.3-15.9-75.5-23.8
				C959.6,344,958.9,346.4,960.4,346.9L960.4,346.9z"/>
		</g>
	</g>
	<g>
		<g>
			<path class="st5" d="M439.4,180.2c36.6,11.6,73.3,23.1,109.9,34.7c5.3,1.7,10.6,3.3,15.9,5c1.5,0.5,2.2-1.9,0.7-2.4
				c-36.6-11.6-73.3-23.1-109.9-34.7c-5.3-1.7-10.6-3.3-15.9-5C438.6,177.3,437.9,179.7,439.4,180.2L439.4,180.2z"/>
		</g>
	</g>
	<g>
		<g>
			<path class="st6" d="M317.1,139.2c16.7,5.3,33.4,10.5,50.1,15.8c1.5,0.5,2.2-1.9,0.7-2.4c-16.7-5.3-33.4-10.5-50.1-15.8
				C316.2,136.3,315.6,138.7,317.1,139.2L317.1,139.2z"/>
		</g>
	</g>
	<g>
		<g>
			<path class="st7" d="M388.2,171.4c7.2,2.3,14.4,4.5,21.5,6.8c1.5,0.5,2.2-1.9,0.7-2.4c-7.2-2.3-14.4-4.5-21.5-6.8
				C387.4,168.5,386.7,171,388.2,171.4L388.2,171.4z"/>
		</g>
	</g>
	<g>
		<g>
			<path class="st8" d="M311.7,156.2c30.8,9.7,61.7,19.5,92.5,29.2c4.4,1.4,8.9,2.8,13.3,4.2c1.5,0.5,2.2-1.9,0.7-2.4
				c-30.8-9.7-61.7-19.5-92.5-29.2c-4.4-1.4-8.9-2.8-13.3-4.2C310.9,153.3,310.2,155.7,311.7,156.2L311.7,156.2z"/>
		</g>
	</g>
	<path class="st9" d="M30.9,84.9c-3.4,3.9-6.6,5.9-9.3,5.1c-6.3-2-6.5-19.3-0.4-38.6c6.1-19.3,16.2-33.3,22.5-31.3
		c2.7,0.8,4.2,4.4,4.7,9.6c-4,3.9-11.5,12.5-15.6,25.8C28.7,68.3,29.9,79.4,30.9,84.9z"/>
	<path class="st9" d="M81.2,43.8c0-7.3-1.6-12.5-4.9-13.5c-3-0.9-6.9,1.7-10.7,6.9c-4,3.8-10.4,10.9-14.3,21.7
		c-4.5,12.7-2.9,23.1-1.9,29.9c1.6,10.3,4.1,11.3,4.8,11.5c3.2,1,7.3-2,11.3-7.7c-1.1-2.5-6.5-16-0.2-30.7
		C69.9,51.1,78.1,45.7,81.2,43.8z"/>
	<path class="st9" d="M112.9,56.8c-0.1-7.1-1.8-12-5.2-13.1c-3.1-1-7,1.6-10.9,6.6c-3.9,4-9.4,10.9-12.7,20.8
		c-0.6,2-4,12.7-1.6,25.7c0.9,4.8,1.8,9.4,5.1,10.4c3.1,1,6.9-1.5,10.7-6.3c-1.1-2.7-4.7-12.8-0.7-24.9
		C101.6,64.3,110.4,58.3,112.9,56.8z"/>
	<path class="st9" d="M143.8,68.9c0.3-8.3-1.4-14.3-5.1-15.5c-3.5-1.1-8.1,2.3-12.4,8.6c-3.4,3.6-8.8,10.4-11.7,20.3
		c-3,10.3-1.8,18.6-1.1,22.6c0.9,5.7,1.8,11,5.2,12c3.3,1,7.5-1.9,11.6-7.5c-1-2-5.2-11.4-1.5-22.7
		C132.4,75.1,141.9,69.9,143.8,68.9z"/>
	<path class="st9" d="M176.7,81.4c0.5-8.6-1.3-14.9-5.3-16.2c-3.7-1.2-8.6,2.6-13,9.3c-5.6,6.9-8.3,13.6-9.7,17.7
		c-3.3,10.5-2.4,18.8-1.9,22c0.8,5.3,1.7,10.9,5.3,12c3.4,1.1,7.6-1.8,11.6-7.3c-0.9-2.5-3.7-11.7,0.4-22.2
		C167.7,87.7,174.3,83,176.7,81.4z"/>
	<path class="st9" d="M209.7,93.4c0.7-8.6-0.9-15-4.6-16.1c-3.6-1.1-8.3,2.9-12.6,9.9c-2.8,3.1-6.9,8.5-9.3,16.2
		c-2.9,9.3-1.9,16.9-1.3,20.8c0.9,5.6,1.6,10.6,4.7,11.6c3.1,1,7-1.9,10.8-7.1c-0.8-1.8-4.3-10-1-19.8
		C199.9,98.7,208.1,94.3,209.7,93.4z"/>
	<path class="st9" d="M231.2,138.3c-4,5.3-8.2,8.1-11.7,7s-4.4-6.2-5.5-11.9c-0.6-3.2-1.8-10.2,0.6-18.8c2.3-8,6.5-13.3,9.1-16
		c1.6-7.7,8.9-11.6,13.8-10.1c4.2,1.3,6,8,5.4,16.9c-1.4,0.5-9.5,3.7-13.2,12.6C225.5,128.1,230.6,137.2,231.2,138.3z"/>
	<path class="st9" d="M275.4,117.2c3.6-6.8,0.2-14.3-4.7-16c-4.7-1.6-11.7,1.9-13.4,9c-3.8,6.1-5.8,11.5-6.9,15.3
		c-1.6,5.3-3.2,10.9-1.9,17.7c0.7,3.8,1.8,9.3,5.7,10.5c3.3,1,7.2-1.2,10.9-5.6c-0.6-1.1-5.2-10.2-0.8-19.9
		C267.5,121.1,273.7,118,275.4,117.2z"/>
	<path class="st9" d="M283.5,153.5c0.9,5.8,1.5,10,4.1,10.8c2.8,0.9,6.4-1.8,9.8-6.7c-0.7-2.8-2.3-10.4,1-19.1
		c2.7-7.3,7.4-11.7,9.7-13.6c0.2-1.4,0.4-4.1-0.9-7.1c-0.6-1.4-1.6-4-3.4-4.6c-3.2-1-7.4,2.6-11.2,8.9c-2.3,2.3-6.3,6.7-8.5,13.5
		C281.8,142.6,282.7,148.2,283.5,153.5z"/>
	<g>
		<g>
			<path class="st10" d="M32.4,85.4c-2.1-12.9-2.3-29.9,6.1-40.6c1-1.3-0.8-3-1.8-1.8c-9,11.5-9,29.2-6.7,43.1
				C30.2,87.7,32.7,87,32.4,85.4L32.4,85.4z"/>
		</g>
	</g>
	<g>
		<g>
			<path class="st10" d="M67,92.8c-7.7-11.4-2.3-27.6,3.9-38.1c0.8-1.4-1.3-2.6-2.2-1.3C62,64.7,56.5,81.9,64.8,94
				C65.7,95.4,67.9,94.2,67,92.8L67,92.8z"/>
		</g>
	</g>
	<g>
		<g>
			<path class="st10" d="M99.8,101.6c-4.4-11.8-3.5-26.2,4.9-35.8c1.1-1.2-0.7-3-1.8-1.8c-9,10.3-10.3,25.6-5.6,38.3
				C98,103.7,100.4,103.1,99.8,101.6L99.8,101.6z"/>
		</g>
	</g>
	<g>
		<g>
			<path class="st10" d="M131.6,110.2c-2.7-7.2-3.6-15.5-1.8-23c0.4-1.6-2-2.2-2.4-0.7c-1.9,7.9-1,16.7,1.8,24.3
				C129.8,112.3,132.2,111.7,131.6,110.2L131.6,110.2z"/>
		</g>
	</g>
	<g>
		<g>
			<path class="st10" d="M165.2,119.2c-4.4-9.8-1.4-21.4,4.6-29.8c0.9-1.3-1.2-2.6-2.2-1.3c-6.6,9.1-9.3,21.7-4.6,32.3
				C163.7,122,165.8,120.7,165.2,119.2L165.2,119.2z"/>
		</g>
	</g>
	<g>
		<g>
			<path class="st10" d="M197.6,128.7c-2.7-10.6-1.6-24.1,7.9-30.9c1.3-0.9,0-3.1-1.3-2.2c-10.4,7.5-12,22-9,33.7
				C195.6,130.9,198,130.3,197.6,128.7L197.6,128.7z"/>
		</g>
	</g>
	<g>
		<g>
			<path class="st10" d="M231.3,138.4c-2-7.5-4-20.3,3.1-25.7c1.3-1,0-3.1-1.3-2.2c-8.2,6.3-6.5,19.7-4.2,28.6
				C229.3,140.6,231.7,140,231.3,138.4L231.3,138.4z"/>
		</g>
	</g>
	<g>
		<g>
			<path class="st10" d="M265.2,148.3c-4-11.4-1.5-24.8,10.6-29.8c1.5-0.6,0.8-3-0.7-2.4c-13.4,5.5-16.8,20-12.3,32.9
				C263.3,150.4,265.7,149.8,265.2,148.3L265.2,148.3z"/>
		</g>
	</g>
	<g>
		<g>
			<path class="st10" d="M298.9,158.2c-3.3-11.8,1-24.5,10-32.4c1.2-1.1-0.6-2.8-1.8-1.8c-9.7,8.5-14.3,22.3-10.7,34.9
				C296.9,160.4,299.4,159.8,298.9,158.2L298.9,158.2z"/>
		</g>
	</g>
	<g>
		<g>
			<path class="st11" d="M65.3,37c-8.8,5.6-14.1,16.3-16.5,26c-0.4,1.6,2,2.2,2.4,0.7c2.3-9,7.2-19.3,15.4-24.5
				C67.9,38.3,66.7,36.2,65.3,37L65.3,37z"/>
		</g>
	</g>
	<g>
		<g>
			<path class="st11" d="M96.5,50.1C87.2,57,81.1,68.4,80.9,79.9c0,1.6,2.5,1.6,2.5,0c0.2-10.6,5.8-21.3,14.3-27.7
				C99.1,51.3,97.8,49.1,96.5,50.1L96.5,50.1z"/>
		</g>
	</g>
	<g>
		<g>
			<path class="st11" d="M118.9,69.7c-5.1,6.7-7.9,15.4-7.5,23.8c0.1,1.6,2.6,1.6,2.5,0c-0.4-8,2.3-16.2,7.1-22.5
				C122.1,69.7,119.9,68.4,118.9,69.7L118.9,69.7z"/>
		</g>
	</g>
	<g>
		<g>
			<path class="st11" d="M157.9,74.6c-7.3,8-11.9,18.8-12.6,29.5c-0.1,1.6,2.4,1.6,2.5,0c0.7-10,5-20.3,11.9-27.7
				C160.7,75.2,159,73.4,157.9,74.6L157.9,74.6z"/>
		</g>
	</g>
	<g>
		<g>
			<path class="st11" d="M186,94c-2.3,3.9-3.7,8.4-5.1,12.7c-0.5,1.5,1.9,2.2,2.4,0.7c1.4-4.1,2.7-8.3,4.9-12.1
				C189,93.9,186.8,92.6,186,94L186,94z"/>
		</g>
	</g>
	<g>
		<g>
			<path class="st11" d="M221.8,98c-4,4.5-7.1,10.2-8.3,16.1c-0.3,1.6,2.1,2.2,2.4,0.7c1.1-5.5,4-10.8,7.7-15
				C224.6,98.6,222.8,96.8,221.8,98L221.8,98z"/>
		</g>
	</g>
	<g>
		<g>
			<path class="st11" d="M252.3,117.1c-2.8,5.5-4.6,11.6-5.3,17.7c-0.2,1.6,2.3,1.6,2.5,0c0.6-5.6,2.3-11.4,5-16.4
				C255.2,117,253,115.7,252.3,117.1L252.3,117.1z"/>
		</g>
	</g>
	<g>
		<g>
			<path class="st11" d="M292.2,122c-6.8,3.8-10.8,11.5-10.6,19.2c0,1.6,2.5,1.6,2.5,0c-0.2-6.8,3.3-13.6,9.4-17.1
				C294.9,123.4,293.6,121.2,292.2,122L292.2,122z"/>
		</g>
	</g>
	<ellipse transform="matrix(0.3011 -0.9536 0.9536 0.3011 -7.4318 66.7266)" class="st12" cx="41.8" cy="38.4" rx="3.8" ry="3.8"/>
	<ellipse transform="matrix(0.3011 -0.9536 0.9536 0.3011 -6.4362 111.695)" class="st12" cx="73" cy="60.2" rx="3.8" ry="3.8"/>
	<ellipse transform="matrix(0.3011 -0.9536 0.9536 0.3011 21.613 160.6304)" class="st12" cx="120.4" cy="65.6" rx="3.8" ry="3.8"/>
	
		<ellipse transform="matrix(0.3011 -0.9536 0.9536 0.3011 43.5528 242.3336)" class="st12" cx="187.1" cy="91.5" rx="3.8" ry="3.8"/>
	<ellipse transform="matrix(0.3011 -0.9536 0.9536 0.3011 47.8222 325.2062)" class="st12" cx="245.8" cy="130" rx="3.8" ry="3.8"/>
	<g>
		<g>
			<path class="st13" d="M1068,369.6c-102.8-32.9-205.7-65.8-308.5-98.7c-102.5-32.8-205-65.6-307.4-98.4
				c-14.4-4.6-28.7-9.2-43.1-13.8c-2.3-0.8-7.2-1.3-9-2.8c-1.4-1.2-2.1-4-3.7-5.4c-2.5-2.2-6.1-3.6-9.5-3.6c-2.3,0-3.8,1-5.9,1.5
				c-2.6,0.7-5.4-0.8-8.1-1.7c-7.3-2.3-14.7-4.6-22-7c-14.1-4.5-28.2-8.8-42.2-13.5c0.5,0.6,0.9,1.2,1.4,1.8
				c0.3-4.7,0.6-13.7-5.2-15.7c-6-2.1-11,5.6-13.5,9.7c0.7-0.3,1.4-0.6,2.1-0.9c-5.8-1.9-11.6-3.9-17.4-5.9c0.5,0.6,0.9,1.2,1.4,1.8
				c0.1-5.7-0.3-14.7-6.7-17.1c-6.8-2.6-12.7,4.9-16,9.6c0.7-0.3,1.4-0.6,2.1-0.9c-4.8-1.7-9.6-3.3-14.4-5c0.5,0.6,0.9,1.2,1.4,1.8
				c0.3-5.8,0.3-16.2-6.6-18.6c-7-2.4-12.9,6-16.1,10.9c0.7-0.3,1.4-0.6,2.1-0.9c-4.7-1.7-9.3-3.3-14-5c0.5,0.6,0.9,1.2,1.4,1.8
				c0.3-5.3,0.7-15.6-5.8-17.8c-6.5-2.3-12.1,6.2-14.9,10.6c0.7-0.3,1.4-0.6,2.1-0.9c-4.8-1.8-9.6-3.5-14.4-5.3
				c0.5,0.6,0.9,1.2,1.4,1.8c0.2-5.5,0.2-15.3-6.2-17.8c-6.6-2.5-12.4,5.4-15.6,10c0.7-0.3,1.4-0.6,2.1-0.9
				c-4.9-1.9-9.8-3.7-14.7-5.6c0.5,0.6,0.9,1.2,1.4,1.8c0.1-5.3,0.1-15-6.3-17.2c-6.2-2.1-11.7,5.1-14.7,9.4
				c0.7-0.3,1.4-0.6,2.1-0.9c-4.5-1.8-8.9-3.5-13.4-5.3c0.5,0.6,0.9,1.2,1.4,1.8c-0.2-5.4-1.1-15.2-8.5-15.1c-3.7,0-5.8,2.6-8.4,4.6
				c-1.5,1.1-1.3,1.5-3.3,1.1c-1.5-0.3-3.1-1.3-4.5-1.8c-2.8-1.2-5.6-2.3-8.4-3.5c0.5,0.6,0.9,1.2,1.4,1.8
				c-0.1-4.8-0.3-12.5-5.4-14.9c-5.4-2.5-10.5,3.3-13.4,7c0.8-0.1,1.5-0.2,2.3-0.3c-4.2-1.8-8.5-3.7-12.7-5.5
				c-4-1.8-3.4-1.7-4.6-5.6c-1.2-3.7-3.8-7.1-8-6.4c-4.1,0.6-7.4,4.6-9.8,7.7c-4.5,5.9-7.7,12.9-10.3,19.9
				c-3.1,8.4-5.4,17.2-6.1,26.2c-0.4,5.3-0.8,12.1,2.2,16.8c2.2,3.5,6,4.2,9.6,2.3c1-0.5,1.9-1.3,2.8-2c2.2-1.8,2.1-1.9,5-1.3
				c4.8,0.9,9.5,2,14.3,3.1c-0.5-0.6-0.9-1.2-1.4-1.8c0.3,4.5,0.9,11.7,6.2,13.3c5.7,1.7,10.6-4.7,13.4-8.5
				c-0.7,0.3-1.4,0.6-2.1,0.9c5.7,1.4,11.3,2.8,17,4.3c-0.5-0.6-0.9-1.2-1.4-1.8c0.5,5,2.1,12.6,8.5,12.5c3.2-0.1,5.6-2.2,7.9-4.2
				c2.4-2.1,3.2-1.7,6.3-0.9c3.2,0.8,6.3,1.7,9.5,2.6c-0.5-0.6-0.9-1.2-1.4-1.8c0.3,4.7,1,11.9,6.3,13.7c5.8,2,10.9-4.3,13.9-8.2
				c-0.7,0.3-1.4,0.6-2.1,0.9c5.6,1.5,11.2,3.1,16.8,4.6c-0.5-0.6-0.9-1.2-1.4-1.8c0.3,5.5,1.9,14.7,9.3,14.1c3.5-0.3,6-2.8,8.4-5.1
				c2.8-2.6,4.4-1.4,8.1-0.4c3.1,0.9,6.2,1.8,9.3,2.6c-0.5-0.6-0.9-1.2-1.4-1.8c0.2,4.5,0.8,11.7,6.1,13.4c5.4,1.7,10.1-4.3,12.9-8
				c-0.7,0.3-1.4,0.6-2.1,0.9c5.5,1.6,11,3.2,16.6,4.7c-0.5-0.6-0.9-1.2-1.4-1.8c0.4,5.6,2.1,14.5,9.5,14c3.5-0.2,6-2.7,8.4-4.9
				c2.9-2.6,4.8-1.1,8.4-0.1c3.1,0.9,6.3,1.8,9.4,2.7c-0.5-0.6-0.9-1.2-1.4-1.8c0.7,5.7,3.1,13.5,10.3,12.5c3.9-0.5,6.2-4.9,9.7-5.3
				c2.4-0.3,7.1,2.1,9.4,2.8c2.8,0.8,5.6,1.6,8.4,2.5c-0.5-0.6-0.9-1.2-1.4-1.8c0.1,4.2,0.5,10.9,5.3,12.5c5.2,1.8,9.5-4,12.1-7.5
				c-0.7,0.3-1.4,0.6-2.1,0.9c9.2,2.7,18.5,5.6,27.7,8.4c18.8,5.8,37.6,11.6,56.3,17.3c28.4,8.7,56.7,17.5,85.1,26.2
				c34.6,10.6,69.1,21.3,103.7,31.9c37.9,11.7,75.8,23.3,113.6,35c37.9,11.6,75.7,23.3,113.6,34.9c34.5,10.6,69,21.2,103.6,31.9
				c28.3,8.7,56.6,17.4,84.9,26.1c18.7,5.8,37.5,11.5,56.2,17.3c7.8,2.4,21.1,9,28.9,4.3C1080.9,387.6,1078.2,373.6,1068,369.6
				c-2.3-0.9-3.2,2.8-1,3.6c11.8,4.6,5.6,21.1-6.2,18c-0.9-0.2-1.8-0.6-2.7-0.8c-4.4-1.3-8.7-2.7-13.1-4
				c-17.6-5.4-35.3-10.9-52.9-16.3c-27-8.3-54-16.6-81.1-24.9c-33.4-10.3-66.8-20.6-100.2-30.8c-36.8-11.3-73.6-22.7-110.5-34
				c-37.2-11.5-74.5-22.9-111.7-34.4c-34.7-10.7-69.4-21.3-104.1-32c-29-8.9-58.1-17.9-87.1-26.8c-20.7-6.4-41.3-12.7-62-19.1
				c-9.2-2.8-18.3-5.7-27.5-8.5c-3.2-1-6.4-1.9-9.6-2.9c-0.9-0.3-1.6,0.2-2.1,0.9c-1.6,2.2-5.6,7.9-8.8,4.8c-1.7-1.7-1.6-5.8-1.7-8
				c0-0.8-0.6-1.6-1.4-1.8c-6.6-1.9-13.2-3.9-19.8-5.8c-0.6-0.2-1.4,0-1.8,0.5c-2,2.3-5.9,6.7-9.6,5c-2.8-1.4-3.5-5.8-3.8-8.5
				c-0.1-0.8-0.5-1.6-1.4-1.8c-5.7-1.7-11.5-3.3-17.2-5c-0.6-0.2-1.4,0-1.8,0.5c-2.1,2.7-6.2,8.1-10.3,6.3c-3.2-1.4-3.5-7.1-3.7-9.9
				c-0.1-0.8-0.5-1.6-1.4-1.8c-5.5-1.6-11-3.2-16.6-4.7c-0.9-0.3-1.6,0.2-2.1,0.9c-1.5,2-5.7,7.8-9.1,6.1c-2.8-1.4-2.8-7-2.9-9.6
				c0-0.8-0.6-1.6-1.4-1.8c-5.6-1.6-11.2-3.2-16.8-4.7c-0.6-0.2-1.4,0-1.8,0.5c-2,2.6-6.2,8.4-10.2,6.6c-3.1-1.4-3.3-7.3-3.5-10
				c-0.1-0.8-0.5-1.6-1.4-1.8c-5.6-1.6-11.2-3.1-16.8-4.6c-0.9-0.2-1.6,0.2-2.1,0.9c-2.1,2.7-6.7,8.8-10.5,5.7
				c-2.4-1.9-2.5-6.7-2.7-9.4c0-0.8-0.5-1.6-1.4-1.8c-5-1.4-10.1-2.7-15.1-4c-0.6-0.2-1.4,0-1.8,0.5c-1.8,2.1-5.7,7.3-9.2,5.7
				c-2.6-1.2-3-6.1-3.3-8.4c-0.1-0.8-0.5-1.6-1.4-1.8c-5.7-1.5-11.3-2.9-17-4.3c-0.9-0.2-1.6,0.2-2.1,0.9c-1.5,2-6,8.4-9.6,6.6
				c-2.8-1.4-2.9-7-3-9.5c-0.1-0.8-0.5-1.6-1.4-1.8c-3.4-0.8-6.8-1.5-10.2-2.2c-2.3-0.5-6-1.9-8.4-1.6c-3.8,0.4-8,8.9-11.3,2.8
				c-2.4-4.4-1.6-11.1-1.1-15.8c0.8-7.4,2.7-14.7,5.2-21.8c2.1-6.1,4.8-12,8.3-17.4c1.8-2.8,5.4-8.6,9.2-9.1
				c5.3-0.7,3.3,7.5,6.3,9.7c1.8,1.4,4.7,2.1,6.8,3c3.3,1.5,6.6,2.9,9.9,4.3c0.7,0.3,1.7,0.4,2.3-0.3c2-2.6,6.3-8.5,9.9-5.6
				c2.7,2.2,2.5,7.9,2.5,10.9c0,0.9,0.6,1.5,1.4,1.8c5.2,2.2,10.4,4.3,15.6,6.5c0.6,0.2,1.5,0,1.8-0.5c2.2-2.7,6.3-8,10.1-5.3
				c2.7,2,2.7,7.6,2.8,10.5c0,0.9,0.6,1.5,1.4,1.8c4.5,1.8,8.9,3.6,13.4,5.3c0.8,0.3,1.7-0.2,2.1-0.9c2.2-3,7-10.1,11.3-6.9
				c3.3,2.4,2.8,9.3,2.7,12.8c0,0.9,0.6,1.5,1.4,1.8c4.9,1.9,9.8,3.8,14.7,5.6c0.8,0.3,1.7-0.2,2.1-0.9c2.1-3.1,7.7-11.4,12.3-7.5
				c3.2,2.7,2.6,9.7,2.5,13.4c0,0.9,0.6,1.5,1.4,1.8c4.8,1.8,9.6,3.6,14.4,5.3c0.8,0.3,1.7-0.2,2.1-0.9c1.8-2.8,7.2-11.6,11.4-8.3
				c3.3,2.6,2.5,9.9,2.3,13.6c-0.1,0.9,0.6,1.5,1.4,1.8c4.7,1.7,9.3,3.4,14,5c0.8,0.3,1.7-0.2,2.1-0.9c2.1-3.2,7.8-12,12.6-8.6
				c3.9,2.7,3.3,10.4,3.1,14.4c0,0.9,0.6,1.5,1.4,1.8c4.8,1.7,9.6,3.3,14.4,5c0.8,0.3,1.7-0.2,2.1-0.9c2.3-3.3,7.3-10.5,12.1-7.5
				c3.9,2.4,3.6,9.2,3.6,13.1c0,0.9,0.6,1.5,1.4,1.8c5.8,2,11.6,3.9,17.4,5.9c0.8,0.3,1.7-0.2,2.1-0.9c1.5-2.4,6.3-10.4,10-7.2
				c2.6,2.2,1.9,8.4,1.8,11.3c0,0.8,0.6,1.6,1.4,1.8c12,4,24.1,7.7,36.2,11.6c6,1.9,12,3.8,18,5.7c3.3,1.1,6.7,2.1,10,3.2
				c2.3,0.7,6.2,2.8,8.5,2.6c1.6-0.1,3-1.8,4.6-2.1c2.3-0.5,4.9,0,6.9,1.1c3.4,1.8,3.1,3.9,5,6.3c1.1,1.4,3.6,1.6,5.1,2.1
				c12.7,4.1,25.4,8.1,38.1,12.2c50.7,16.2,101.5,32.5,152.2,48.7c101.1,32.4,202.3,64.8,303.4,97.1
				c57.1,18.3,114.2,36.5,171.2,54.8C1069.3,374,1070.3,370.3,1068,369.6z"/>
		</g>
	</g>
</g>
</svg>
