<?xml version="1.0" encoding="utf-8"?>
<!-- Generator: Adobe Illustrator 21.0.2, SVG Export Plug-In . SVG Version: 6.00 Build 0)  -->
<svg version="1.1" id="Layer_1" xmlns="http://www.w3.org/2000/svg" xmlns:xlink="http://www.w3.org/1999/xlink" x="0px" y="0px"
	 viewBox="0 0 946.5 713.4" style="enable-background:new 0 0 946.5 713.4;" xml:space="preserve">
<style type="text/css">
	.st0{fill:#6C3923;}
	.st1{fill:#321A0E;}
	.st2{fill:#846357;}
	.st3{fill:#342315;}
	.st4{fill:#53331F;}
	.st5{fill:#AB8374;}
	.st6{fill:#322B1D;}
	.st7{fill:#EED1CC;}
	.st8{fill:#9E806A;}
	.st9{fill:#A16A5B;}
	.st10{fill:#442211;}
	.st11{fill:#98918C;}
	.st12{fill:#A48579;}
	.st13{fill:#201710;}
	.st14{fill:#A68679;}
	.st15{fill:#886F6B;}
	.st16{fill:#8B8070;}
	.st17{fill:#987466;}
	.st18{fill:#9F7D70;}
	.st19{fill:#1D191B;}
</style>
<g>
	<path class="st0" d="M13.8,39.2c4.7-4.5,14.3-12.4,28.8-16.7c11.7-3.5,21.9-3.1,27.9-2.4c0,0,28.6,13,41.2,42.1
		c0,0,12.1,17.9,22.6,17.4c0,0,18.4,0.4,26.6,19.2c0,0,7.7,12.8,17.4,18c0,0,21.2,6.9,25.2,19.4c0,0,15.7,14.9,20.7,14.1
		c0,0,32.1,11.8,33.6,19.9c75.5,58.4,151,116.7,226.5,175.1l441,327.9c0,0,11.8,9.8,5.9,17.7c-5.8,7.8-17,1.5-17,1.5L469,369.8
		c-74.3-53.6-148.6-107.3-222.9-160.9c0,0-10.3,1.9-28.3-11.5s-54-40.2-54-40.2c-4.5-2.4-9.7-5.5-15.1-9.6c-4.6-3.5-8.4-7-11.5-10.2
		l-44-34c-2.9-1.1-6.6-2.8-10.5-5.6c-4.5-3.2-7.6-6.7-9.6-9.3C73.2,88.3,4.3,46,13.8,39.2z"/>
	<path class="st1" d="M20,49.2c11.5,14,57.7,42.4,57.7,42.4c2,2.6,5.1,6.1,9.6,9.3c3.9,2.8,7.6,4.5,10.5,5.6l44,34
		c3.1,3.2,6.9,6.7,11.5,10.2c5.4,4.1,10.6,7.3,15.1,9.6c0,0,36,26.8,54,40.2c0.2-0.8,0.5-1.9,1-3.1c3.7-11.6,7-15.8,5.2-18.3
		c-0.7-1-2-1.2-4.4-1.5c-4.8-0.7-6.6,1.4-9.9,1.2c-4.2-0.3-4.1-4.2-10.9-8.1c-6.8-4-8.2-2.8-12.9-6.1c-6.1-4.2-5.3-7.3-10.2-11.1
		c-6.9-5.4-11.6-1.7-20.2-5.1c-11.4-4.5-8.7-13.5-22.4-24.2c-9.8-7.6-12.5-4-24.1-12.5C102,103.3,105,100,93.4,91.4
		c-12.5-9.1-17.9-6.7-26-16.2c-4.1-4.8-5-8.1-10.2-11.1c-5.7-3.3-9.8-2.3-16.3-3.6C35.5,59.6,28.1,56.9,20,49.2z"/>
	<path class="st2" d="M250.5,162.8c-9.6-5.2-21.5-9.6-21.5-9.6c-5,0.7-20.7-14.1-20.7-14.1c-4-12.5-25.2-19.4-25.2-19.4
		c-9.7-5.3-17.4-18-17.4-18c-8.1-18.8-26.6-19.2-26.6-19.2c-10.5,0.4-22.6-17.4-22.6-17.4C103.9,36,75.3,23,75.3,23
		c6.2,10.4,8.7,19.3,9.9,25.6c1.7,9.2,0.6,13.9,4.8,21.1c1.6,2.7,5.4,9.4,13,12.7c5.8,2.5,8.6,0.8,12.5,3.9c4.2,3.4,2.8,7,6.1,11.9
		c4.9,7.3,11.2,4.2,21.8,11.3c10.2,6.9,7.4,12,17.3,17.3c7.5,4,10.5,1.8,18.4,6.8c4.5,2.9,7.2,5.9,11.7,11.1
		c9.1,10.5,10.3,16.4,16.9,18.1c2.3,0.6,3.4,0.2,7.6,1.3c5.3,1.4,8.7,3.3,9.9,3.9C229.4,169.9,236.6,170.2,250.5,162.8z"/>
	<g>
		<g>
			<path class="st3" d="M24.2,53.6c21.3-1.3,43.8-9.3,52.4-30.4c-0.8,0.1-1.5,0.2-2.3,0.3C83.6,44,82.7,67.8,72,87.6
				c-0.3,0.6-0.1,1.7,0.7,1.8c14.9,2.4,29.9-0.6,42.1-9.8c1.6-1.2,3.2-2.6,4.9-3.9c2.7-2,2.9,0.5,2.7,3c-0.3,4.9-2,9.1-3.2,13.8
				c-0.9,3.7-0.9,7.2-1,11c-0.1,5.5-2.3,10.8-5,15.4c-0.5,0.8,0.1,1.9,1.1,1.9c16.5,0.2,33.5-1.5,49.1-6.9c2.4-0.8,7.3-3.9,8.2-0.4
				c0.5,1.7-0.2,4.1-0.5,5.7c-0.7,4.2-1.9,8.3-3,12.3c-1.9,6.5-4.7,12.8-6.2,19.4c-0.6,2.5-0.8,5.4,1.2,7.4
				c2.6,2.6,7.6,1.9,10.9,1.8c6.9-0.1,13.7-0.1,20.6,0.4c13.4,1,26.8-0.9,39.9-4c1.6-0.4,0.9-2.8-0.7-2.4c-12.2,2.9-24.9,5-37.5,4.1
				c-6.1-0.5-12.2-0.6-18.3-0.6c-3.3,0-12.7,1.9-13.9-2.7c-1.4-5.3,19.8-48.7,4.2-45.3c-3.5,0.8-6.9,2.4-10.3,3.4
				c-4.7,1.4-9.6,2.5-14.4,3.2c-9.7,1.5-19.5,2.2-29.3,2.1c0.4,0.6,0.7,1.3,1.1,1.9c2.6-4.3,4.5-9,5.2-14c0.6-4.6,0.1-9,1.3-13.6
				s2.8-8.9,3.1-13.8c0.1-1.9,0.5-5.6-1.7-6.6c-2.4-1.2-5.1,1.7-6.7,3c-3.1,2.5-6.1,4.7-9.7,6.5c-10.7,5.6-21.5,7.3-33.4,5.4
				c0.2,0.6,0.5,1.2,0.7,1.8c11.1-20.7,11.9-45.3,2.3-66.7c-0.5-1.1-1.9-0.6-2.3,0.3c-8.2,19.9-30,27.4-50,28.6
				C22.6,51.2,22.6,53.7,24.2,53.6L24.2,53.6z"/>
		</g>
	</g>
	<path class="st4" d="M914.2,692.6L469.1,369.9c15.3,5.1,34.6,13.5,54.2,27.8c7.9,5.7,14.8,11.6,20.6,17.3c2.6,3.1,7.3,8.3,14,13.7
		c14.5,11.7,22.2,11.4,38,23.8c8.1,6.4,7.1,7.3,16.6,14.9c10.4,8.4,19.9,13.9,26.4,17.4c7.5,5.1,19.1,12.7,33.6,21.7
		c23.9,14.8,28.2,16,40.9,25.4c10,7.4,21.3,15.8,33.8,29.2c8.1,8.7,12,14.5,21.6,21.4c8.8,6.4,17.3,9.9,23,11.9
		c4.1,2,10.2,5.1,17.1,9.9c10.9,7.6,17.5,14.8,21.4,18.8c12.5,12.9,18.6,14.5,39,30C880.6,661.6,896.3,674.5,914.2,692.6z"/>
	<path class="st5" d="M72.8,21c-6.1-0.7-16.2-1.1-27.9,2.4c-14.5,4.3-24.1,12.2-28.8,16.7c-1.7,1.2-0.9,3.6,1.6,6.7
		C17.8,46.7,60.8,43.6,72.8,21z"/>
	<path class="st6" d="M246.6,160.8c6.2,3.4,11.5,7.1,12.1,10.3c36.5,28.2,73.1,56.5,109.6,84.7l-20.8,26.3
		c-33.5-24.2-66.9-48.3-100.4-72.5c0,0-10.3,1.9-28.3-11.5c0,0-2.2-9.8,8.3-23.3S246.6,160.8,246.6,160.8z"/>
	<g>
		<g>
			<path class="st7" d="M18.2,48.8c16.9-1.1,34.7-7.5,47.4-18.7c1.2-1.1-0.6-2.8-1.8-1.8c-12.2,10.8-29.5,16.9-45.7,18
				C16.6,46.4,16.6,48.9,18.2,48.8L18.2,48.8z"/>
		</g>
	</g>
	<g>
		<g>
			<path class="st8" d="M414.4,308.3c20.6,15.3,41.2,30.7,61.8,46c3,2.2,5.9,4.4,8.9,6.6c1.3,1,2.5-1.2,1.3-2.2
				c-20.6-15.3-41.2-30.7-61.8-46c-3-2.2-5.9-4.4-8.9-6.6C414.4,305.2,413.2,307.4,414.4,308.3L414.4,308.3z"/>
		</g>
	</g>
	<g>
		<g>
			<path class="st9" d="M751.8,557.3c17.4,13,34.9,26,52.3,39c27.6,20.6,55.3,41.2,82.9,61.7c6.4,4.7,12.7,9.5,19.1,14.2
				c1.3,1,2.5-1.2,1.3-2.2c-17.4-13-34.9-26-52.3-39c-27.6-20.6-55.3-41.2-82.9-61.7c-6.4-4.7-12.7-9.5-19.1-14.2
				C751.8,554.2,750.5,556.4,751.8,557.3L751.8,557.3z"/>
		</g>
	</g>
	<g>
		<g>
			<path class="st10" d="M359.4,281.1c22.7,16.9,45.4,33.8,68.2,50.8c1.3,1,2.5-1.2,1.3-2.2c-22.7-16.9-45.4-33.8-68.2-50.8
				C359.4,278,358.1,280.2,359.4,281.1L359.4,281.1z"/>
		</g>
	</g>
	<g>
		<g>
			<path class="st11" d="M246.7,174.1c12.9,9.6,25.9,19.3,38.8,28.9c1.3,1,2.5-1.2,1.3-2.2c-12.9-9.6-25.9-19.3-38.8-28.9
				C246.6,171,245.4,173.2,246.7,174.1L246.7,174.1z"/>
		</g>
	</g>
	
		<ellipse transform="matrix(0.5974 -0.8019 0.8019 0.5974 -65.4507 396.8045)" class="st12" cx="362.5" cy="263.6" rx="5.5" ry="5.5"/>
	<g>
		<g>
			<path class="st13" d="M243.3,197.6c28.2,21,56.3,42,84.5,62.9c4,3,8,6,12.1,9c1.3,1,2.5-1.2,1.3-2.2c-28.2-21-56.3-42-84.5-62.9
				c-4-3-8-6-12.1-9C243.3,194.5,242.1,196.7,243.3,197.6L243.3,197.6z"/>
		</g>
	</g>
	<g>
		<g>
			<path class="st14" d="M73.4,35.1c2.2,7,2.9,14.2,2.3,21.6c-0.1,1.6,2.4,1.6,2.5,0c0.7-7.5-0.1-15-2.4-22.2
				C75.4,32.9,73,33.5,73.4,35.1L73.4,35.1z"/>
		</g>
	</g>
	<g>
		<g>
			<path class="st15" d="M80,85.5c7.5-0.6,14.7-2.3,21.7-5.1c1.5-0.6,0.8-3-0.7-2.4c-6.7,2.8-13.7,4.4-21,5
				C78.4,83.1,78.4,85.6,80,85.5L80,85.5z"/>
		</g>
	</g>
	<g>
		<g>
			<path class="st16" d="M118.2,83c-4.7,6.7-6.5,14.7-5.3,22.8c0.2,1.6,2.6,0.9,2.4-0.7c-1-7.4,0.8-14.7,5.1-20.9
				C121.3,82.9,119.2,81.7,118.2,83L118.2,83z"/>
		</g>
	</g>
	<g>
		<g>
			<path class="st17" d="M167.8,117.3c-3.1,9-6.3,17.9-9.4,26.9c-0.5,1.5,1.9,2.2,2.4,0.7c3.1-9,6.3-17.9,9.4-26.9
				C170.7,116.4,168.3,115.8,167.8,117.3L167.8,117.3z"/>
		</g>
	</g>
	<g>
		<g>
			<path class="st18" d="M174.8,155.8c14.2-0.3,28.4-0.7,42.6-1c1.6,0,1.6-2.5,0-2.5c-14.2,0.3-28.4,0.7-42.6,1
				C173.2,153.3,173.2,155.8,174.8,155.8L174.8,155.8z"/>
		</g>
	</g>
	<path class="st13" d="M245.9,209.3c-1.1,1.6-6.3-0.5-15-4c-8.6-3.5-11-4.7-12.1-7.3c-0.5-1.4-0.4-3-0.2-6.3
		c0.4-4.8,1.7-8.3,3.1-10.8c0.9-1.7,1.4-2.5,2.1-2.8c3.4-1.4,9.8,5.1,13.3,10.7c3.3,5.3,1.9,6.2,6.5,14.7
		C245.5,207,246.6,208.4,245.9,209.3z"/>
	<g>
		<g>
			<path class="st19" d="M15.3,40.6c12-11.3,27.7-18.2,44.3-18.9c3.7-0.2,8.1-0.6,11.5,0.8c3.1,1.3,6.2,3.5,8.9,5.4
				c11.1,7.6,20.8,17.5,27.3,29.4c4.8,8.7,10,17,19,22.1c3.1,1.7,5.9,2.1,9.3,2.5c4.1,0.4,8.1,1.9,11.6,4c6,3.5,8.9,8.6,12.4,14.4
				c2.6,4.4,6.1,8.6,9.7,12.1c7.1,7,16.6,8.7,24.5,14.7c2.6,1.9,5,4.2,6.7,7c0.9,1.5,1.3,3,2.4,4.3c2.8,3.2,6.7,5.9,10,8.5
				c12.9,9.8,33.5,10.1,43.3,24.3c2.2,3.2,6.8,5.7,9.9,8.1c4.2,3.2,8.4,6.5,12.6,9.7c8.4,6.5,16.8,13,25.2,19.5
				c16.8,13,33.6,25.9,50.3,38.9c44.3,34.2,88.1,69.3,133,102.7c15.1,11.2,30.2,22.5,45.4,33.7c27.5,20.4,55,40.9,82.4,61.3
				c33.2,24.7,66.3,49.3,99.5,74c32.6,24.3,65.3,48.5,97.9,72.8c25.4,18.9,50.8,37.7,76.1,56.6c11.8,8.8,23.6,17.6,35.5,26.4
				c0.2,0.2,0.4,0.3,0.6,0.5c3,2.2,5.1,5.1,4.9,9c-0.3,5.9-6.4,9.4-11.8,7.9c-1.7-0.5-2.7-1.3-4.1-2.3c-4.8-3.5-9.6-6.9-14.3-10.4
				c-21.1-15.3-42.1-30.5-63.2-45.8c-30.7-22.3-61.5-44.6-92.2-66.9c-34-24.6-68-49.3-102-73.9c-30.9-22.4-61.7-44.7-92.6-67.1
				c-20.9-15.2-41.9-30.4-62.8-45.6c-23.1-16.8-46.3-33.5-69.5-50.2c-34.2-24.7-68.4-49.4-102.5-74.1c-17-12.2-33.9-24.5-50.9-36.7
				c-4.3-3.1-8.6-6.2-12.9-9.3c-1.2-0.9-2.4-2.1-3.9-2.6c-0.7-0.2-0.8,0-0.7,0c-3.6-0.4-6.8-0.6-10.3-1.9
				c-13.3-4.8-24.7-15.4-35.9-23.7c-9.7-7.3-19.5-14.5-29.2-21.8c-9.2-6.8-19.3-12-27.8-19.8c-4.9-4.6-10.1-8.6-15.4-12.7
				c-8-6.2-15.9-12.3-23.9-18.5c-2.5-2-5-4-7.6-5.9c-3.2-2.4-7.1-3.5-10.5-5.8c-4.5-3-7.4-7.4-11.5-10.6c-1.6-1.2-3.5-2.2-5.1-3.2
				c-7.3-4.6-14.6-9.4-21.7-14.3C44.2,67,11.5,43.6,15.3,40.6c1.9-1.5-0.8-4.1-2.7-2.7C4.1,44.6,33,63.5,36.7,66.2
				c8,5.8,16.1,11.2,24.4,16.6c4.1,2.6,9.3,4.9,12.4,8.7c6.3,7.8,15.4,10.6,23,16.5c7.7,5.9,15.3,11.9,23,17.8
				c5.4,4.2,11.2,8.2,16.4,12.7c5.7,4.9,10.8,10,17.1,14.3c3.8,2.6,7.9,4.5,11.6,7.2c8.7,6.3,17.2,12.8,25.8,19.3
				c11.3,8.4,22.5,18.1,34.7,25.2c5,2.9,10.5,5.4,16.3,6.2c1.3,0.2,2.5,0.2,3.8,0.3c2.2,0.2,1.1,0,3.4,2c8,6.8,17.3,12.5,25.8,18.7
				c8.9,6.4,17.8,12.8,26.6,19.2c56.1,40.5,112.4,81,168.4,121.6c13.5,9.8,27,19.5,40.4,29.3c27.1,19.6,54.2,39.3,81.3,58.9
				c34,24.6,68,49.3,102,73.9c33.7,24.4,67.4,48.9,101.1,73.3c26.7,19.4,53.5,38.8,80.2,58.2c12.6,9.2,25,19,38,27.6
				c4,2.6,9.1,3.3,13.5,1.1c10.2-4.9,7.8-17.2,0.1-23c-3-2.2-6-4.5-9.1-6.7c-18.7-13.9-37.4-27.8-56.1-41.7
				c-30-22.3-60-44.6-90.1-67c-34.4-25.6-68.8-51.2-103.2-76.7c-31.8-23.6-63.5-47.2-95.3-70.9c-22.4-16.7-44.9-33.4-67.3-50.1
				c-19.8-14.7-39.4-29.8-58.9-45c-34.1-26.3-68.1-52.7-102.2-79c-16.8-13-33.6-25.9-50.3-38.9c-8.6-6.7-17.3-13.4-25.9-20.1
				c-2.9-2.3-6.5-4.4-8.7-7.3c-1.2-1.6-2.2-3.1-3.8-4.4c-7.5-6.3-17.3-10.1-26.3-13.7c-2.4-1-4.7-1.4-7.1-2.3
				c-4.9-1.8-9.3-6.2-13.2-9.5c-1.1-1-2.8-2-3.6-3.3c-1.1-1.6-1.8-3.8-3.1-5.5c-3.4-4.4-8.2-7.6-13-10.2c-3.2-1.7-6.7-2.8-10-4.4
				c-6-3-11.1-9.4-14.8-14.8c-3-4.3-4.8-9.1-8.6-12.9c-3.6-3.6-8.1-6.3-12.9-8c-2.7-0.9-5.4-1.4-8.1-1.6c-6.1-0.6-10.7-4.4-14.8-8.8
				c-8.1-8.5-11.9-19.6-19.6-28.5c-7-8-15.4-14.8-24.7-20c-7.5-4.3-16.9-3.1-25.2-1.7C36,21.2,22.9,28,12.5,37.8
				C10.9,39.6,13.5,42.3,15.3,40.6z"/>
		</g>
	</g>
	<g>
		<g>
			<path class="st15" d="M127.4,114.9c11.7-0.4,24.5-1.4,35.3-6.1c1.5-0.6,0.2-2.8-1.3-2.2c-10.4,4.5-22.8,5.4-34,5.7
				C125.8,112.5,125.8,115,127.4,114.9L127.4,114.9z"/>
		</g>
	</g>
</g>
</svg>
