<?xml version="1.0" encoding="utf-8"?>
<!-- Generator: Adobe Illustrator 21.0.2, SVG Export Plug-In . SVG Version: 6.00 Build 0)  -->
<svg version="1.1" id="Layer_1" xmlns="http://www.w3.org/2000/svg" xmlns:xlink="http://www.w3.org/1999/xlink" x="0px" y="0px"
	 viewBox="0 0 748.2 969.5" style="enable-background:new 0 0 748.2 969.5;" xml:space="preserve">
<style type="text/css">
	.st0{fill:#545250;}
	.st1{fill:#252420;}
	.st2{fill:#B5B2B1;}
	.st3{fill:#797574;}
	.st4{fill:#D1CFCD;}
	.st5{fill:#1B1A17;}
	.st6{fill:none;stroke:#252420;stroke-width:0.25;stroke-miterlimit:10;}
	.st7{fill:#1D191B;}
</style>
<g>
	<path class="st0" d="M719,926.2L279.8,323.3l0.4-9l-65.5-86.6l-0.1,0.1c-0.8-2.2-1.9-4.3-3.4-6.3c-4-5.3-9.8-8.3-15-8.3l-0.9-1.2
		c2.5-6.3,1.2-14.6-4-21.5c-3-3.9-6.7-6.7-10.7-8.3c0-5.9-3.2-13.9-8.9-21.4c-7.7-10.2-17.6-16-23.7-14.7l-0.7-1
		c3.1-5.3,0.8-15.5-6.1-24.7c-6.3-8.3-14.4-13.1-20.4-12.8c1.8-5.9,0.3-13.6-4.6-20.1c-4.7-6.2-11.3-9.7-17.3-9.9l0,0
		C92.8,71.9,86,59.2,82.8,52.7c-0.6-1.3-1.2-2.7-1.9-4l0,0l0,0c-1.6-3-3.5-6-5.7-9C61.6,21.8,42,14,31.2,22.1
		c-10.7,8.1-8.4,29.2,5.1,47.1c1.1,1.5,2.3,2.9,3.5,4.3l0,0l0,0c1.8,2,3.7,3.9,5.6,5.5c4.7,5.1,8.5,10.5,10.3,13.1
		c-0.5,4.6,1.1,10,4.7,14.8c3.4,4.5,8,7.4,12.4,8.3l1.5,2c0,4.8,2,10.4,5.8,15.5c3.6,4.8,8.2,8,12.5,9.5c-0.3,5.5,2.2,12.5,7,18.9
		c4.7,6.2,10.6,10.4,15.9,11.7l1.4,1.9c0.3,5.9,3.4,13.6,8.8,20.7c5.2,6.8,11.3,11.7,16.7,13.8l0.5,0.7c-1.1,5.1-0.1,10.5,3.3,15
		c3.3,4.3,8.1,6.7,13.1,7.1l1.2,1.6c-0.6,5.3,1.2,11.7,5.4,17.2c4,5.3,9.4,8.7,14.5,9.7l59.8,80.8l8.2,3.9l446.2,599.7
		c5.9,7.7,16.2,9.8,23,4.7C724.2,944.4,724.9,933.9,719,926.2z"/>
	<path class="st1" d="M31,22.1c1.2-3.7,10-4.4,15.8-3.6c13.8,1.9,23,14.2,28.2,21.2c2.7,3.6,4.5,6.8,5.7,9l0,0l0,0
		c0.7,1.3,1.3,2.7,1.9,4c3.3,6.5,10.1,19.2,16.1,24.9l0,0c6,0.1,12.6,3.7,17.3,9.9c4.9,6.5,6.5,14.2,4.6,20.1
		c5.9-0.4,14.1,4.5,20.4,12.8c6.9,9.1,9.3,19.3,6.1,24.7l0.7,1c6.2-1.4,16,4.5,23.7,14.7c5.7,7.5,8.8,15.5,8.9,21.4
		c3.9,1.6,7.7,4.4,10.7,8.3c5.2,6.9,6.5,15.2,4,21.5l0.9,1.2c5.2,0.1,11,3,15,8.3c1.5,2,2.7,4.2,3.4,6.3l0.1-0.1l65.5,86.6l-0.4,9
		L719,926.1c5.9,7.7,5.1,18.2-1.7,23.4c0,0-367.2-509.6-457.5-622.4c-3.6-3.2-7.2-6.3-10.8-9.5c-0.8-6-1.5-12.1-2.3-18.1
		c-2.7-0.5-5.3-1.1-8-1.6c-4.1-1-8.2-2-12.3-3c-0.5-5.3-1.1-10.7-1.6-16c-0.9-6.6-1.7-13.3-2.6-19.9c-7.1-1.6-14.1-3.1-21.2-4.7
		c0-4.3-0.1-8.6-0.1-13l-13-2.4l6.5-13l-15.5,7.9c0,0,4.3-42.9-16.5-26.7c3-16.8-4-30.9-14.1-34.4c-1.7-0.6-7.1-2.1-14.8,1.3
		c3.4-20.8-3.6-36.5-13.1-39c-1.6-0.4-6.3-1.3-13.5,3.5c0,0-3.5-48.1-17.4-33c0,0-10.5-33.6-20-26.8c-2.2-10-6.6-22.6-16.4-33.8
		C42.3,32.2,29.4,26.9,31,22.1z"/>
	<g>
		<g>
			<path class="st2" d="M710,941.3c-58.3-78.8-116.5-157.6-174.7-236.4c-58-78.5-116.1-157.1-174.1-235.6
				c-32.7-44.2-65.4-88.4-98.1-132.7c-1.9-2.6-6.2-0.1-4.3,2.5c58.2,78.8,116.5,157.6,174.7,236.4c58,78.5,116.1,157.1,174.1,235.6
				c32.7,44.2,65.4,88.4,98.1,132.7C707.6,946.4,711.9,943.9,710,941.3L710,941.3z"/>
		</g>
	</g>
	<path class="st3" d="M48.7,66.7C37.3,51.7,31,37.3,34.6,34.5c3.6-2.7,15.8,7.2,27.2,22.2"/>
	<ellipse transform="matrix(0.6645 -0.7473 0.7473 0.6645 -34.3492 68.6267)" class="st3" cx="59.3" cy="72.6" rx="11.7" ry="5"/>
	
		<ellipse transform="matrix(0.3418 -0.9398 0.9398 0.3418 -40.4315 129.4069)" class="st3" cx="72.2" cy="93.6" rx="11.7" ry="6.1"/>
	<ellipse transform="matrix(0.1739 -0.9848 0.9848 0.1739 -38.3649 175.052)" class="st3" cx="85.2" cy="110.4" rx="15.2" ry="5"/>
	
		<ellipse transform="matrix(3.307134e-02 -0.9995 0.9995 3.307134e-02 -30.1959 226.9669)" class="st3" cx="102.2" cy="129.1" rx="18.5" ry="6"/>
	
		<ellipse transform="matrix(0.9989 -4.646827e-02 4.646827e-02 0.9989 -7.377 5.9837)" class="st3" cx="125" cy="161.7" rx="6" ry="19.4"/>
	
		<ellipse transform="matrix(3.307134e-02 -0.9995 0.9995 3.307134e-02 -48.1021 336.5934)" class="st3" cx="149.9" cy="193.2" rx="19.3" ry="5"/>
	
		<ellipse transform="matrix(9.674124e-02 -0.9953 0.9953 9.674124e-02 -64.2907 369.1532)" class="st3" cx="171.2" cy="220" rx="17.6" ry="5"/>
	
		<ellipse transform="matrix(0.7964 -0.6048 0.6048 0.7964 -103.2503 159.8815)" class="st3" cx="185.8" cy="233.3" rx="15.2" ry="3.5"/>
	<ellipse transform="matrix(0.7964 -0.6048 0.6048 0.7964 -22.6435 45.0951)" class="st4" cx="55.7" cy="56.2" rx="4.6" ry="4.6"/>
	<ellipse transform="matrix(0.7964 -0.6048 0.6048 0.7964 -55.1536 74.745)" class="st4" cx="83.4" cy="119.3" rx="4.6" ry="4.6"/>
	<ellipse transform="matrix(0.7964 -0.6048 0.6048 0.7964 -43.7471 64.4504)" class="st4" cx="73.8" cy="97.2" rx="4.6" ry="4.6"/>
	<ellipse transform="matrix(0.8234 -0.5674 0.5674 0.8234 -32.6293 45.7548)" class="st4" cx="57.2" cy="75.3" rx="4.6" ry="4.6"/>
	
		<ellipse transform="matrix(0.7964 -0.6048 0.6048 0.7964 -70.9803 98.0999)" class="st4" cx="110.2" cy="154.5" rx="4.6" ry="4.6"/>
	
		<ellipse transform="matrix(0.7964 -0.6048 0.6048 0.7964 -52.5065 85.3423)" class="st4" cx="100.5" cy="120.7" rx="4.6" ry="4.6"/>
	
		<ellipse transform="matrix(0.7964 -0.6048 0.6048 0.7964 -85.4296 119.0316)" class="st4" cx="134.1" cy="186.4" rx="4.6" ry="4.6"/>
	
		<ellipse transform="matrix(0.7964 -0.6048 0.6048 0.7964 -98.8483 138.8005)" class="st4" cx="156.7" cy="216.2" rx="4.6" ry="4.6"/>
	
		<ellipse transform="matrix(0.7964 -0.6048 0.6048 0.7964 -108.6552 155.3871)" class="st4" cx="176.4" cy="239.1" rx="4.6" ry="4.6"/>
	<g>
		<g>
			<path class="st5" d="M205.4,238.5c0.9,17.6,1.8,35.1,2.6,52.7c0,0.8,1.3,0.8,1.2,0c-0.9-17.6-1.8-35.1-2.6-52.7
				C206.6,237.7,205.3,237.7,205.4,238.5L205.4,238.5z"/>
		</g>
	</g>
	<g>
		<g>
			<path class="st5" d="M220.8,242.3c2.4,26.6,4.9,53.2,7.3,79.8c0.1,0.8,1.3,0.8,1.2,0c-2.4-26.6-4.9-53.2-7.3-79.8
				C221.9,241.5,220.7,241.5,220.8,242.3L220.8,242.3z"/>
		</g>
	</g>
	<g>
		<g>
			<path class="st5" d="M241.2,267.3c2.9,19.1,5.7,38.3,8.6,57.4c0.1,0.8,1.3,0.5,1.2-0.3c-2.9-19.1-5.7-38.3-8.6-57.4
				C242.3,266.2,241.1,266.5,241.2,267.3L241.2,267.3z"/>
		</g>
	</g>
	<g>
		<g>
			<path class="st5" d="M177.1,250.4c19.6,3.9,39.2,7.9,58.8,11.8c0.8,0.2,1.1-1,0.3-1.2c-19.6-3.9-39.2-7.9-58.8-11.8
				C176.6,249.1,176.3,250.3,177.1,250.4L177.1,250.4z"/>
		</g>
	</g>
	<path class="st6" d="M253.4,284.5"/>
	<g>
		<g>
			<path class="st5" d="M192.2,272.9c20.7,4.1,41.5,8.2,62.2,12.4c0.8,0.2,1.1-1,0.3-1.2c-20.7-4.1-41.5-8.2-62.2-12.4
				C191.8,271.5,191.5,272.8,192.2,272.9L192.2,272.9z"/>
		</g>
	</g>
	<g>
		<g>
			<path class="st5" d="M206.8,292.1c21.3,4.4,42.7,8.8,64,13.1c0.8,0.2,1.1-1,0.3-1.2c-21.3-4.4-42.7-8.8-64-13.1
				C206.4,290.7,206,291.9,206.8,292.1L206.8,292.1z"/>
		</g>
	</g>
	<g>
		<g>
			<path class="st5" d="M240.2,315.9c8,1.6,16,3.2,23.9,4.8c0.8,0.2,1.1-1,0.3-1.2c-8-1.6-16-3.2-23.9-4.8
				C239.7,314.6,239.4,315.8,240.2,315.9L240.2,315.9z"/>
		</g>
	</g>
	<g>
		<g>
			<path class="st3" d="M210.3,253.9c2.9,0.6,5.7,1.3,8.6,1.9c1.1,0.2,1.6-1.4,0.5-1.7c-2.9-0.6-5.7-1.3-8.6-1.9
				C209.7,251.9,209.2,253.6,210.3,253.9L210.3,253.9z"/>
		</g>
	</g>
	<g>
		<g>
			<path class="st3" d="M201,242.3c0.2,3,0.5,5.9,0.7,8.9c0.4-0.3,0.7-0.6,1.1-0.8c-2.7-0.7-5.5-1.4-8.2-2.1
				c-1.1-0.3-1.6,1.4-0.5,1.7c2.7,0.7,5.5,1.4,8.2,2.1c0.5,0.1,1.2-0.3,1.1-0.8c-0.2-3-0.5-5.9-0.7-8.9
				C202.6,241.2,200.9,241.2,201,242.3L201,242.3z"/>
		</g>
	</g>
	<g>
		<g>
			<path class="st3" d="M228.2,276.9c3.3,0.7,6.7,1.5,10,2.2c1.1,0.2,1.6-1.4,0.5-1.7c-3.3-0.7-6.7-1.5-10-2.2
				C227.6,275,227.1,276.7,228.2,276.9L228.2,276.9z"/>
		</g>
	</g>
	<g>
		<g>
			<path class="st3" d="M228.4,293c4.3,0.7,8.6,1.5,13,2.2c1.1,0.2,1.6-1.5,0.5-1.7c-4.3-0.7-8.6-1.5-13-2.2
				C227.8,291.2,227.3,292.8,228.4,293L228.4,293z"/>
		</g>
	</g>
	<g>
		<g>
			<path class="st3" d="M251.5,315.3c4.2,0.7,8.5,1.4,12.7,2.2c1.1,0.2,1.6-1.5,0.5-1.7c-4.2-0.7-8.5-1.4-12.7-2.2
				C250.8,313.4,250.4,315.1,251.5,315.3L251.5,315.3z"/>
		</g>
	</g>
	<g>
		<g>
			<path class="st3" d="M251.8,321.4c0.5,3.1,0.9,6.1,1.4,9.2c0.2,1.1,1.9,0.6,1.7-0.5c-0.5-3.1-0.9-6.1-1.4-9.2
				C253.3,319.9,251.6,320.3,251.8,321.4L251.8,321.4z"/>
		</g>
	</g>
	<g>
		<g>
			<path class="st3" d="M209.6,261.5c0.1,3.7,0.2,7.3,0.3,11c0,0.3,0.3,0.8,0.6,0.8c3.3,0.5,6.6,1,9.9,1.5c1.1,0.2,1.6-1.5,0.5-1.7
				c-3.3-0.5-6.6-1-9.9-1.5c0.2,0.3,0.4,0.6,0.6,0.8c-0.1-3.7-0.2-7.3-0.3-11C211.3,260.3,209.6,260.3,209.6,261.5L209.6,261.5z"/>
		</g>
	</g>
	<g>
		<g>
			<path class="st3" d="M210.9,280.1c3.6,0.9,7.2,1.8,10.8,2.7c1.1,0.3,1.6-1.4,0.5-1.7c-3.6-0.9-7.2-1.8-10.8-2.7
				C210.3,278.2,209.8,279.9,210.9,280.1L210.9,280.1z"/>
		</g>
	</g>
	<g>
		<g>
			<path class="st3" d="M202.4,258.4c0.1,4.2,0.3,8.4,0.4,12.6c0,1.1,1.8,1.1,1.8,0c-0.1-4.2-0.3-8.4-0.4-12.6
				C204.1,257.2,202.4,257.2,202.4,258.4L202.4,258.4z"/>
		</g>
	</g>
	<g>
		<g>
			<path class="st3" d="M203.6,277.5c0.1,3.7,0.2,7.5,0.4,11.2c0,1.1,1.8,1.1,1.8,0c-0.1-3.7-0.2-7.5-0.4-11.2
				C205.3,276.4,203.6,276.4,203.6,277.5L203.6,277.5z"/>
		</g>
	</g>
	<g>
		<g>
			<path class="st3" d="M222.1,297.9c0.8,6.4,1.6,12.8,2.4,19.3c0.1,1.1,1.9,1.1,1.8,0c-0.8-6.4-1.6-12.8-2.4-19.3
				C223.7,296.8,221.9,296.8,222.1,297.9L222.1,297.9z"/>
		</g>
	</g>
	<g>
		<g>
			<path class="st3" d="M237.1,319.7c3.3,0.4,6.6,0.8,10,1.2c1.1,0.1,1.1-1.6,0-1.8c-3.3-0.4-6.6-0.8-10-1.2
				C236,317.8,236,319.5,237.1,319.7L237.1,319.7z"/>
		</g>
	</g>
	<g>
		<g>
			<path class="st7" d="M720.7,925.2c-5.2-7.2-10.5-14.4-15.7-21.5c-13.9-19.1-27.8-38.2-41.7-57.3c-20-27.5-40.1-55-60.1-82.6
				c-23.7-32.5-47.3-64.9-71-97.4c-24.7-33.9-49.4-67.8-74.1-101.8c-23.3-32-46.6-64-70-96c-19.2-26.4-38.4-52.7-57.6-79.1
				c-12.6-17.4-25.3-34.7-37.9-52.1c-3.1-4.2-6.1-8.4-9.2-12.6c-0.6-0.8-1.4-1.6-1.8-2.4c0-0.1-0.1-0.1-0.1-0.2
				c0.7,1.6,0.4-1.6,0.4-2.6c0.1-2.2,0.7-4.7-0.2-6.7c-1.8-3.9-5.8-7.7-8.4-11.1c-5.6-7.3-11.1-14.7-16.7-22c-11.3-15-22.7-30-34-45
				c-2.1-2.7-4.1-5.5-6.2-8.2c-0.6-0.7-1.7-1.3-2.6-0.7l-0.1,0.1c0.9,0.4,1.8,0.7,2.8,1.1c-2.1-5.2-5.3-9.8-10.1-12.8
				c-2-1.3-4.6-2.6-7-2.9c-2.2-0.3-1.9,0.7-1.6-1.1c2.1-10.4-2.4-21-11.1-27.1c-1-0.7-3.1-1.4-3.8-2.2c-0.4-0.5-0.4-1.1-0.6-1.9
				c-0.7-2.6-1.1-5.1-2.1-7.6c-2.2-5.4-5.4-10.4-9.2-14.8c-5.5-6.4-14.2-14-23.4-12.5c0.7,0.3,1.4,0.6,2.1,0.9
				c-0.6-0.8-0.5,0.3-0.1-0.4c0.5-0.8,0.7-2.2,0.8-3.1c0.3-1.9,0.2-3.8-0.1-5.7c-0.8-5.4-3.3-10.6-6.4-15
				c-5.1-7.4-13.5-15.3-23-15.2c0.6,0.8,1.2,1.6,1.8,2.4c3.5-13.1-5.9-27.9-18.7-31.6c-1.2-0.4-2.6-0.4-3.8-0.7
				c0.4,0.9,0.5,1.1,0,0.4c-0.6-0.6-1.1-1.1-1.7-1.7c-2.6-2.9-4.7-6.2-6.8-9.4c-3.5-5.6-6.6-11.4-9.4-17.4c-0.4-0.9-1.8-1.2-2.6-0.7
				l0,0c0.9,0.2,1.7,0.4,2.6,0.7C75,34.5,62.9,21.4,47.7,17.8C36.9,15.2,26.2,19.7,23.3,31C19.6,45.2,27.2,61.2,36,72
				c2.5,3,5.3,5.6,8,8.4c3.1,3.2,7.3,7.4,9.1,11.5c1.3,2.9,0.8,6.7,2.1,9.9c1.5,3.9,4,7.4,7.1,10.2c1.4,1.3,3.1,2.4,4.8,3.3
				c0.8,0.4,3.7,1,4.2,1.3c2,1.4,1.9,7.4,2.8,9.6c3.2,8.1,9.7,14.9,17.9,17.9c-0.5-0.6-0.9-1.2-1.4-1.8c-0.1,8.6,4.2,16.7,9.9,23
				c2.7,3,6,5.7,9.7,7.6c3.3,1.7,4.5,1.1,5.1,4.9c1.5,8.7,6.6,16.8,12.5,23.2c2.6,2.8,5.6,5.4,8.9,7.5c0.6,0.3,3.9,1.6,4.2,2.1
				c0.3,0.5-0.3,3.8-0.2,4.8c0.6,7.8,5.7,14.6,13,17.3c3.7,1.4,4.9-0.3,4.9,3.7c0,3.8,1.3,7.8,3,11.1c2,4,5,7.5,8.6,10.2
				c1.3,1,2.7,1.9,4.1,2.6c0.6,0.3,1.1,0.5,1.7,0.8c0.1,0,3.6,1,2.8,0.3c1,0.7,1.9,2.5,2.6,3.5c12,16.2,24.1,32.5,36.1,48.7
				c5.6,7.5,11.2,15.1,16.7,22.6c1.3,1.8,2.5,3.8,4,5.4c1.8,2,4.4,2.8,6.8,3.9c0.6,0.3,3.1,1.8,1.7,0.5c0.1,0.1,0.1,0.2,0.2,0.2
				c0.3,0.3,0.6,0.8,0.8,1.1c1.2,1.6,2.4,3.2,3.5,4.8c4.7,6.3,9.4,12.7,14.1,19c17.1,23,34.3,46.1,51.4,69.1
				c24.3,32.6,48.6,65.3,72.8,97.9c27.9,37.5,55.8,75,83.7,112.5c27.7,37.3,55.5,74.6,83.2,111.8c23.8,32,47.6,64,71.4,96
				c16.4,22,32.8,44,49.1,66c4.2,5.7,8.4,11.3,12.6,17c4.7,6.3,9.7,12.2,18.4,12.6C724.1,954.9,728.6,936.5,720.7,925.2
				c-1.4-2-4.6-0.1-3.2,1.9c5.7,8.1,4.8,21.9-7.2,23.3c-5.6,0.7-10.8-2.3-14.3-6.5c-0.6-0.8-1.2-1.6-1.8-2.4
				c-3.5-4.7-7.1-9.5-10.6-14.2c-14.9-20-29.7-39.9-44.6-59.9c-22.3-30-44.7-60-67-90c-26.6-35.7-53.2-71.5-79.8-107.2
				c-27.3-36.7-54.6-73.3-81.8-110c-24.8-33.3-49.6-66.6-74.4-100c-18.8-25.3-37.6-50.6-56.4-75.8c-9.4-12.7-18.8-25.3-28.3-38
				c-0.5-0.7-0.9-1.5-1.5-2c-2.1-2-5.5-3-8.1-4.2c-1.3-0.6,0.6,0.9-0.4-0.2c-0.6-0.6-1-1.4-1.5-2c-11.3-15.3-22.6-30.6-34-45.8
				c-5.8-7.9-11.7-15.7-17.5-23.6c-2.5-3.4-4.9-8.5-8.9-10c-10.4-3.9-16.6-12.3-17.3-23.4c-0.1-1.8-0.2-3.3-1.9-4.5
				c-1.2-0.9-3-0.6-4.3-1c-3.4-1-6.3-3-8.4-5.8c-1.8-2.3-2.8-4.9-3.2-7.8c-0.2-2,0.9-4.6,0.2-6.4c-0.9-2.4-4.1-3-6.1-4.2
				c-8.6-5.4-15.7-14.8-18.7-24.5c-0.8-2.7-0.5-5.8-2.3-8.1c-1.8-2.2-4.9-2.5-7.4-4c-8.6-5.3-15.9-15.9-15.8-26.3
				c0-0.9-0.6-1.5-1.4-1.8c-7.8-2.9-14.1-10.2-16.3-18.2c-1.1-4.3-0.3-7.4-4.8-9.1c-8.4-3.1-13.9-10.7-14.4-19.6
				c-0.3-4.8-5.2-9.4-8.3-13c-4.8-5.7-10.2-10.2-14.3-16.5c-3.9-6-6.8-12.7-8.1-19.7C24.5,33,29.4,20.1,43.2,21.3
				C59,22.3,72,36.7,79.1,49.7c0.5,0.9,1.7,1.2,2.6,0.7l0,0c-0.9-0.2-1.7-0.4-2.6-0.7c4.4,9.6,9.7,21.2,17.5,28.5
				c1.5,1.4,2.2,1.3,4.3,1.6c4,0.7,7.7,2.8,10.6,5.5c6,5.5,9.6,13.9,7.4,21.9c-0.3,1.2,0.6,2.4,1.8,2.4c7.7-0.1,14.5,6.3,18.9,12.1
				c4.3,5.6,9.6,15.3,6,22.5c-0.3,0.5-0.4,1.4,0,1.9c0.2,0.3,0.5,0.6,0.7,1c0.6,0.7,1.2,1,2.1,0.9c7-1.2,14.3,5.6,18.6,10.3
				c5.9,6.4,11.2,15.1,11.6,24c0,0.6,0.3,1.4,0.9,1.6c5.5,2.4,10,6.5,12.7,11.9c1.4,2.9,2.3,6.2,2.3,9.5c0,2.2-1.5,4.8-1.2,6.8
				c0.3,2.2,2,2.8,3.8,3.1c7.4,1.3,12.8,6.2,15.5,13.2c0.4,1,1.7,1.9,2.8,1.1l0.1-0.1c-0.9-0.2-1.7-0.4-2.6-0.7
				c19.1,25.3,38.2,50.5,57.3,75.8c2.6,3.4,6,6.9,8,10.6c0,0.1,0.1,0.1,0.1,0.2c-0.7-1.5-0.2,0-0.3,0.8c-0.2,2-0.5,4.7-0.3,6.7
				c0.1,0.6,0.1,1.1,0.4,1.7c1.2,2.7,3.9,5.3,5.6,7.7c10.7,14.7,21.4,29.3,32,44c17.9,24.5,35.7,49,53.6,73.5
				c22.5,30.9,45,61.7,67.5,92.6c24.7,33.9,49.4,67.8,74.1,101.6c24.1,33.1,48.3,66.3,72.4,99.4c21.1,29,42.3,58.1,63.4,87.1
				c15.6,21.4,31.2,42.9,46.9,64.3c7.6,10.4,15.1,20.8,22.7,31.1c0.3,0.5,0.7,0.9,1,1.4C718.8,929,722.1,927.2,720.7,925.2z"/>
		</g>
	</g>
</g>
</svg>
