<?xml version="1.0" encoding="utf-8"?>
<!-- Generator: Adobe Illustrator 21.0.2, SVG Export Plug-In . SVG Version: 6.00 Build 0)  -->
<svg version="1.1" id="Layer_1" xmlns="http://www.w3.org/2000/svg" xmlns:xlink="http://www.w3.org/1999/xlink" x="0px" y="0px"
	 viewBox="0 0 127.6 1133.9" style="enable-background:new 0 0 127.6 1133.9;" xml:space="preserve">
<style type="text/css">
	.st0{fill:#49323A;}
	.st1{fill:#28181D;}
	.st2{fill:#261D22;}
	.st3{fill:#231218;}
	.st4{fill:#1E0F12;}
	.st5{fill:#2C242D;}
	.st6{fill:#211A22;}
	.st7{fill:#2E2536;}
	.st8{fill:#352939;}
	.st9{fill:#2C1E28;}
	.st10{fill:#251822;}
	.st11{fill:#201418;}
	.st12{fill:#291C20;}
	.st13{fill:#1A1416;}
	.st14{fill:#745F6C;}
	.st15{fill:#837F85;}
	.st16{fill:#746168;}
	.st17{fill:#81797C;}
	.st18{fill:#908083;}
	.st19{fill:#815A6D;}
	.st20{fill:#654E5B;}
	.st21{fill:#927B82;}
	.st22{fill:#C4A9B6;}
	.st23{fill:#725962;}
	.st24{fill:#836A78;}
	.st25{fill:#908C93;}
	.st26{fill:#978B91;}
	.st27{fill:#907B88;}
	.st28{fill:#9A8B90;}
	.st29{fill:#8E7E83;}
	.st30{fill:#928896;}
	.st31{fill:#877C84;}
	.st32{fill:#1D191B;}
</style>
<g>
	<path class="st0" d="M27.3,14.8c0,0,40.2-24.3,65.5,5.8c2,2.7,4,5.4,6.1,8.1c0,0,6.6,9.7-12.7,28.8c0,0-2.2,1.3-2.8,15.7l2.2,174.7
		c2,2.9,4.1,6.4,6,10.4c4.2,8.9,5.7,17.2,6.3,23.3c0.4,2.9,0.7,7.4-0.9,12.5c-3.3,11-12.3,16.3-14.7,17.5l-2.2,187.1
		c0,0-5,55.2-2.8,74.9c0,0,3.9,18.7-1.1,32.4L74,888.9c0,0,2.8,50.6-3.9,68.3l-4.4,159.1c0,0,0.6,11.6-13.8,11.6
		c0,0-12.1,0.6-12.1-9.9c0.8-40.5,1.6-81.1,2.4-121.6c1-4.9,1.8-10.2,2.4-15.7c1.7-15.5,1.4-29.6,0.1-41.6l-0.6-213
		c-0.9-3-1.9-7.9-1.5-13.9c0.4-5.4,1.9-9.7,3.1-12.5l0.6-98.5c-1.2-3.1-2.7-8.3-2.5-14.8c0.1-5.6,1.4-10.1,2.5-13.1l1.7-40.7
		c0,0-6.1-42.6-5.5-84.2l1.7-135.1c0,0-12.1-6.1-6.1-24.2c0.7-1.8,1.5-4.2,1.7-7.1c0.5-5.4-1-9.7-1.9-11.9
		c-1.4-3.3-2.8-7.8-3.4-13.1c-1.2-11.4,2.1-20.5,4.1-25.1l5-159.1c0,0-11.6-10.2-8.8-22.2c0.2-1.2,0.6-3.9-0.5-7
		c-1.4-3.8-4.1-5.7-5-6.4c-7.2-5.1-10-12.7-7.6-17.7C22.3,18.7,23.6,16.4,27.3,14.8z"/>
	<path class="st1" d="M47.6,5.9C52,4.9,65,2.4,77.4,8.7c7.3,3.7,12.8,9.4,14,11.1c2,2.7,4,5.4,6.1,8.1c0.5,1.8,1,4.6,0.8,8
		c-0.4,5-2.3,8.5-3.4,10.4c-3.1,5.5-7.4,8.8-10,10.4c-3.4,0.9-4.6,0.4-5.2-0.3c-0.8-0.9-0.1-2,0.4-6.7c0.4-3,0.4-4.6,0.2-6.1
		c-0.2-2.2-0.4-3.9-1.4-4.4c-1.5-0.7-3.1,1.8-5.3,1.1c-1.3-0.4-1.9-1.5-2.1-1.9c-1-2,0.4-3.3-0.3-5c-0.9-2-4.6-3.2-6.5-2.1
		c-1.6,0.9-0.9,2.6-3,5.9c-0.9,1.5-2.9,3.9-3.9,3.5c-0.2-0.1-0.8-0.5-0.7-4.9c0.1-3,0.3-4.2,0.6-6.8c0.3-3.2,0.2-5.5,0.1-9.1
		c-0.1-3-0.1-4.5-0.6-5.4c-0.7-1.5-1.6-2.2-5.2-5.2C49.9,7.8,48.3,6.5,47.6,5.9z"/>
	<path class="st1" d="M38.8,65c-0.9,0.1-3.7-7.3-3.4-15.6c0.1-2.5,0.4-4.4-0.5-7c-1.4-3.8-4.1-5.7-5-6.4c-4.4-2.9-9.4-11.6-7.6-17.7
		c0.4-1.3,1.5-3.6,5.2-5.8c4.7-4,9.4-5,11.1-3.3c1.4,1.4,1.1,4.9-0.4,7.2c-2.3,3.3-6.4,2.9-6.7,4.8s3.7,2.3,6.2,6.8
		c0.6,1,2,3.5,1.9,6.8c-0.1,2.6-1.2,3.5-0.6,5.5c0.6,2.2,2.5,3.4,2.9,3.7c2.7,1.7,4.9,0.4,6.1,2c0.9,1.2,0.8,3.4-0.2,4.4
		c-1.6,1.6-4.3-0.3-6.1,1.2c-0.9,0.8-0.8,1.9-1.1,4.7C40.5,57.1,39.7,64.9,38.8,65z"/>
	<path class="st2" d="M39.8,213.9c0.2-6.8,0.4-13.6,0.6-20.4c0.2-6.3,0.4-12.6,0.6-19c0.5-15.7,0.5-15.7,0.5-15.7
		c0-12.6-1.3-18.1,0.6-18.7c1.5-0.5,4.3,2.6,5.7,5.3c2.4,4.8,0.6,8,1.4,14.3c0.7,6.2,3.4,10.6,5.1,13.4c1.7,2.8,5.5,9.1,12.7,13.2
		c4.6,2.6,7,2.2,10.6,5.8c3.6,3.5,4.4,7.1,4.6,7.9c0.4,1.6,1,4.6-0.5,7.4c-1.7,3.1-5,4.2-8.6,5.3c-4.2,1.3-7.7,1.4-10.9,1.4
		c-5.8,0-7.3-0.9-13-0.9C45.3,213.2,41.9,213.6,39.8,213.9z"/>
	<path class="st3" d="M40.4,277c-0.5-1.9-1.1-4.7-2-8.1c-2.1-8.6-3.1-10.9-3.4-13.1c-0.9-8.4,0.6-15.6,2.4-20.6
		c0.6,2.4,1.9,6,4.5,9.7c1.3,1.9,3.2,4.5,6.5,6.7c3.5,2.4,6.8,2.9,10.9,3.7c5.6,1,8.5,1.5,11.3,0c2.1-1.1,1.8-2.1,5.6-4.9
		c3-2.2,4.7-3.5,6.5-3c0.8,0.2,1.5,0.8,3.9,5.6c1.5,3,2.4,4.8,3.7,8.1c1.8,4.6,2.7,7,2.3,9.3c-0.1,0.9-0.6,4.2-3.2,5.8
		c-4,2.5-9.5-1-10.2-1.4c-3.1-2-2.5-3.5-5.3-4.9c-3.3-1.7-4.8,0.1-9.5-1.2c-2.8-0.8-2.5-1.5-7.4-3.7s-7.6-3.4-9.5-2.3
		c-1.6,1-1.3,2.8-2.8,6.7C43.5,272.8,41.7,275.4,40.4,277z"/>
	<path class="st4" d="M44.7,315.7c0-1.2,0-2.4,0-3.6c0,0-10.4-5.2-7.1-20.5c4.3-0.8,7.6-0.3,9.9,0.3c3.2,0.8,4.2,1.9,6.9,1.9
		c4.1-0.1,7.2-2.6,7.6-3c3.7-3.1,2.8-6.2,5.8-7.4c2.5-1,3.4,1,7.4,0.5c3.9-0.6,4.6-2.8,7.2-2.3c2.6,0.5,2.5,3.3,5.3,4.2
		c3.1,0.9,5.1-1.7,6.7-0.7c1.8,1.1,1.6,6-0.1,10c-2.3,5.2-6,15.6-11.7,15.5c-0.8,0-2-0.6-4.4-1.7c-4.8-2.2-5.1-3.6-7.9-4.4
		c-1.9-0.6-6.4-1.9-11.1,0c-3.6,1.5-5.7,4.3-6.7,5.6c-2.9,3.8-3.4,7.3-5.3,7.4C46.2,317.4,45.3,316.4,44.7,315.7z"/>
	<path class="st5" d="M43.8,388.8c-0.6-0.2,0-1.4,0.2-17.2c0.1-5.1,0.1-10.1,0.2-15.2c0.1-5.4,0.1-10.9,0.2-16.3
		c0.1-6.7-0.9-11.3,0.1-11.6c0.8-0.2,1.5,2.2,3.9,4.5c3.6,3.4,7.1,3.2,8.9,4.4C65.9,343,47.4,389.9,43.8,388.8z"/>
	<path class="st6" d="M45.3,579c0.3-1.3,0.7-2.7,1.2-4.2c0.2-0.4,0.3-0.9,0.5-1.3l1.2-29.1c1.5,1.3,10.4,8.8,11.3,17.5
		c0.2,1.5,0.5,4.1-0.9,6.8c-0.5,1-1.4,2.3-5,5C51.6,575.3,48.8,577.2,45.3,579z"/>
	<path class="st7" d="M46.4,699.9c-2.5-1-0.6-7.6,0.1-23.3c0,0,0,0,0.1-25.8c0.1-22.9,0.1-22.9,0.1-22.9
		c-0.3-15.1-1.3-19.5,0.1-19.9c2.2-0.7,9.1,8.1,8.4,16.6c-0.2,2.6-1.3,6.9-2.4,10.4c-1.3,4.2-2.5,6.3-1.5,8.6
		c0.9,2.1,2.4,1.6,4.2,4.2c2.6,3.7,1.9,8.3,1.8,8.9c-0.5,2.9-1.7,3-2.7,6.2c-1.1,3.9-0.4,7.3,0,9.2c1.4,6.4,4.4,7,4.5,11.6
		c0,3.3-1.5,5.7-3,8C53.9,695.4,48.9,701,46.4,699.9z"/>
	<path class="st8" d="M45.3,939.4c0-10-0.1-19.9-0.1-29.9c0-6.9,0-13.9-0.1-20.8c0-15-0.1-22.6-0.1-22.6c-0.6-15.7-2.2-22-0.1-22.9
		c1.9-0.7,5.8,3,7,7.1c1,3.7-0.9,4.6-1.2,11.3c-0.1,3.2-0.2,7.7,2.1,12.2c1.6,3,2.5,2.6,3.3,5c1.3,4.2-0.6,8.6-1.8,11.6
		c-1.7,4.1-3,4.8-2.7,6.8c0.5,2.9,3.4,3,4.2,5.9c0.7,3-2,4.1-3.3,9.2c-0.8,3.3,0.2,3.4,0,10.4c-0.2,5.2-0.3,7.8-1.8,10.7
		C49.3,936.5,46.9,938.3,45.3,939.4z"/>
	<path class="st9" d="M72.6,913.8c1.6,1,1.5,3.4,1.4,9.9c-0.1,13.3,0.4,10.7,0.1,14.7c-0.4,5-1.3,11.6-3.5,19.1
		c-0.2,8.8-0.5,17.6-0.7,26.5c-0.3,12.2-0.7,24.4-1,36.5c0,1.3-0.4,15.4-1.2,43.6c-0.6,21.7-1,32.6-3.9,33.3
		c-2.8,0.7-7-5.2-8.8-10.3c-1.4-4.1-1-6.3,0.3-16.9c0,0,0.7-8.6,1.2-20.5c0.3-8.3,0.5-12.5,0-15.4c-1.1-6.8-2.8-8.5-2.4-14
		c0.3-4.3,1.5-3.9,2.7-10.7c0.9-5.1,1.5-8.8,0-12.8c-1.3-3.6-2.8-3.2-3.6-6.2c-1.2-4.4,1.4-6.8,3-13.1c0.4-1.5,0.3-1.6,0.6-14.6
		c0.2-9.9,0.4-14.9,0.6-16.3c1.2-7.8,3.1-9.4,2.1-14.3c-0.9-4.1-2.7-5.2-2.1-8.3c0.7-3.7,4.1-6,6.2-7.4
		C65.5,915.3,70.1,912.2,72.6,913.8z"/>
	<path class="st10" d="M78.4,467c2.8,1.5,2.5,7,2.4,10.7c-0.2,4.9-0.4,12-0.3,21.4c-1,15.1-2,30.3-3,45.4c-2.5-0.7-7.2-2.4-11.6-6.5
		c-1.8-1.7-4.8-4.6-6.2-9.2c-1.5-4.8-0.4-9,1.8-17.5c1.8-7,2.9-8,3-12.5c0-4.3-1-4.6-0.9-9.5c0.1-4.7,1.2-9,1.8-11.3
		c1.1-4.3,1.8-5,1.8-7.7c0-3.7-1.2-5.9-0.3-6.5c1.1-0.7,3,2.3,7.4,3C76.7,467,77.3,466.4,78.4,467z"/>
	<path class="st11" d="M85.6,215.5c0,0,0.1,6.4,0.1,6.5c0.1,7.2,0.1,7.2,0.1,7.2c0.1,6.4,0,6.2,0.1,7.4c0.3,3.2,0.8,4.2,0.3,4.6
		c-1,0.7-3-1.6-8.3-3.9c-2.7-1.2-2.8-0.9-6-2.3c-4.5-2-6.7-3-7.4-4.9c-0.8-2.3,0.4-5.4,2.3-6.9c2.4-1.9,4.2-0.3,6.9-2.1
		c2.8-1.8,2.2-4.3,4.6-5.8C79.5,214.6,81.7,214,85.6,215.5z"/>
	<path class="st12" d="M84,87.9c0.1,5.2,0.1,10.3,0.2,15.5c0.3,21.5,0.3,21.5,0.3,21.5c0.1,7.3,0,14.7,0.3,22
		c0.3,7.9,0.7,12.7-1,13.3c-1.3,0.4-2.7-2.4-8.8-7.5c-4.9-4.1-6.7-4.4-7.9-4.4c-3.6,0-5.4,2.9-6.7,2.1c-1.3-0.8,0.2-3.9,0.5-10.4
		c0.1-3.9-0.4-3.9-0.2-8.3c0.1-4.1,0.4-9.3,2.8-10.2c1.3-0.5,2.3,0.7,3.2,0c1.4-1.1-0.3-4.4,1.2-5.6c1.2-1,2.9,0.7,4.2,0
		c2.2-1.2-0.9-6.8,0.7-13.9c1.2-5.2,4.2-8.5,5.1-9.5C80.1,90.1,82.4,88.7,84,87.9z"/>
	<g>
		<g>
			<path class="st13" d="M54.3,33.6c4.4-1.2,9.3-1.5,13.8-0.9c11,1.7,16,10.2,16.5,20.8c0.1,1.6,2.6,1.6,2.5,0
				c-0.6-10.6-5.3-20.1-16.2-22.7c-5.5-1.3-11.8-1.1-17.2,0.4C52.1,31.7,52.8,34.1,54.3,33.6L54.3,33.6z"/>
		</g>
	</g>
	<g>
		<g>
			<path class="st13" d="M48.4,314.9c2.9-3.2,6.4-6,10.2-8c9.5-5,17.5-1.4,22.6,7.7c0.8,1.4,2.9,0.1,2.2-1.3
				c-4.8-8.6-12.5-13.8-22.4-10.3c-5.4,1.9-10.5,5.7-14.4,10C45.6,314.3,47.3,316.1,48.4,314.9L48.4,314.9z"/>
		</g>
	</g>
	<g>
		<g>
			<path class="st13" d="M40.4,248.2c4.8,13.6,24.4,15.1,36,14.2c1.6-0.1,1.6-2.6,0-2.5c-10.3,0.7-29.3-0.2-33.6-12.4
				C42.3,246,39.9,246.7,40.4,248.2L40.4,248.2z"/>
		</g>
	</g>
	<g>
		<g>
			<path class="st13" d="M83.6,157.1c-1.4-11.8-9.1-22.6-17.8-30.2c-1.2-1-3,0.7-1.8,1.8c8.1,7,15.7,17.4,17,28.4
				C81.3,158.7,83.8,158.7,83.6,157.1L83.6,157.1z"/>
		</g>
	</g>
	<g>
		<g>
			<path class="st13" d="M46.4,160.1c3.3,6.4,7.4,12.6,11.8,18.3c6,7.7,13.7,16.3,23.8,18.1c1.6,0.3,2.2-2.1,0.7-2.4
				c-10.4-1.9-18.4-11.6-24.3-19.7c-3.6-4.9-7-10.1-9.8-15.5C47.9,157.4,45.7,158.6,46.4,160.1L46.4,160.1z"/>
		</g>
	</g>
	<g>
		<g>
			<path class="st13" d="M75.8,393.6c-8.7,5.1-17.3,10.2-26,15.3c-1.4,0.8-0.1,3,1.3,2.2c8.7-5.1,17.3-10.2,26-15.3
				C78.5,394.9,77.2,392.7,75.8,393.6L75.8,393.6z"/>
		</g>
	</g>
	<g>
		<g>
			<path class="st13" d="M75.6,411.9c-8.7,8.7-17.3,17.5-26,26.2c-1.1,1.1,0.6,2.9,1.8,1.8c8.7-8.7,17.3-17.5,26-26.2
				C78.5,412.5,76.7,410.7,75.6,411.9L75.6,411.9z"/>
		</g>
	</g>
	<g>
		<g>
			<path class="st13" d="M73.2,443.9c-7.9,7-15.7,13.9-23.6,20.9c-1.2,1.1,0.6,2.8,1.8,1.8c7.9-7,15.7-13.9,23.6-20.9
				C76.2,444.6,74.4,442.8,73.2,443.9L73.2,443.9z"/>
		</g>
	</g>
	<g>
		<g>
			<path class="st13" d="M75.8,467.9c-9.6,6.3-19.3,12.6-28.9,18.9c-1.3,0.9-0.1,3,1.3,2.2c9.6-6.3,19.3-12.6,28.9-18.9
				C78.4,469.2,77.2,467,75.8,467.9L75.8,467.9z"/>
		</g>
	</g>
	<g>
		<g>
			<path class="st13" d="M52.8,604.4c0,26,0,52.1,0,78.1c0,3.8,0,7.5,0,11.3c0,1.6,2.5,1.6,2.5,0c0-26,0-52.1,0-78.1
				c0-3.8,0-7.5,0-11.3C55.3,602.8,52.8,602.8,52.8,604.4L52.8,604.4z"/>
		</g>
	</g>
	<g>
		<g>
			<path class="st13" d="M49.2,729.9c0,22.7,0,45.5,0,68.2c0,36,0,72.1,0,108.1c0,8.3,0,16.7,0,25c0,1.6,2.5,1.6,2.5,0
				c0-22.7,0-45.5,0-68.2c0-36,0-72.1,0-108.1c0-8.3,0-16.7,0-25C51.7,728.3,49.2,728.3,49.2,729.9L49.2,729.9z"/>
		</g>
	</g>
	<g>
		<g>
			<path class="st13" d="M61,1019.9c-1.2,26.7-2.4,53.4-3.5,80.2c-0.1,1.6,2.4,1.6,2.5,0c1.2-26.7,2.4-53.4,3.5-80.2
				C63.6,1018.3,61.1,1018.3,61,1019.9L61,1019.9z"/>
		</g>
	</g>
	<circle class="st14" cx="56" cy="18.4" r="3.8"/>
	<circle class="st15" cx="52.2" cy="9.5" r="3.8"/>
	<circle class="st16" cx="86.9" cy="34" r="3.8"/>
	<circle class="st17" cx="68.2" cy="16" r="3.8"/>
	<circle class="st18" cx="78.4" cy="65.6" r="3.8"/>
	<circle class="st19" cx="48.5" cy="27.8" r="3.8"/>
	<circle class="st20" cx="30.3" cy="22.1" r="3.8"/>
	<g>
		<g>
			<path class="st21" d="M61,40.6c-0.8,38.9-2,77.9-2.4,116.8c-0.1,10,4.4,19.4,13.8,23.7c1.5,0.7,2.7-1.5,1.3-2.2
				c-17-7.6-12.4-30.1-12.1-45c0.5-24.8,1-49.7,1.5-74.5c0.1-6.3,0.3-12.6,0.4-18.8C63.5,38.9,61,38.9,61,40.6L61,40.6z"/>
		</g>
	</g>
	<circle class="st22" cx="64.4" cy="62.7" r="6.1"/>
	<circle class="st22" cx="62.6" cy="54.4" r="3.8"/>
	<circle class="st22" cx="61.7" cy="48.8" r="2.9"/>
	<circle class="st22" cx="56.9" cy="120.1" r="2.9"/>
	<circle class="st23" cx="79.1" cy="162.8" r="2.9"/>
	<circle class="st24" cx="70.1" cy="167.1" r="2.9"/>
	<circle class="st25" cx="57.8" cy="194.3" r="2.9"/>
	<circle class="st26" cx="46.1" cy="228.2" r="2.9"/>
	<circle class="st27" cx="54.9" cy="239.5" r="2.9"/>
	<g>
		<g>
			<path class="st28" d="M50.8,246.3c3.2,7.9,15.5,8.3,22.3,8.1c1.6-0.1,1.6-2.6,0-2.5c-5.5,0.2-11.6,0.1-16.4-2.9
				c-1.1-0.7-2-1.4-2.9-2.4c-0.2-0.2-0.9-1.4-0.7-1C52.6,244.2,50.2,244.8,50.8,246.3L50.8,246.3z"/>
		</g>
	</g>
	<circle class="st29" cx="54.9" cy="266.3" r="2.1"/>
	<circle class="st29" cx="87" cy="295.8" r="2.1"/>
	<circle class="st29" cx="84.9" cy="280.6" r="2.1"/>
	<circle class="st29" cx="52.8" cy="284.7" r="2.1"/>
	<circle class="st29" cx="69.1" cy="273.5" r="2.1"/>
	<circle class="st29" cx="75.2" cy="269.3" r="2.1"/>
	<circle class="st29" cx="62.6" cy="279.9" r="2.1"/>
	<circle class="st29" cx="71.2" cy="295.8" r="2.1"/>
	<g>
		<g>
			<path class="st21" d="M63.4,307.8c0,27.3,0,54.6,0,82c0,18.9,0,37.9,0,56.8c0,9.2,1,18.9,0,28c-0.7,6.1-3.5,15.5-4.5,22.7
				c-1.9,13.9-2.7,29.1,2.4,42.5c0.6,1.5,3,0.8,2.4-0.7c-4.9-12.7-4.2-27-2.5-40.2c1-8,3.5-15.8,4.6-23.7c1.1-7.6,0.1-16.1,0.1-23.7
				c0-37.6,0-75.1,0-112.7c0-10.3,0-20.6,0-30.9C65.9,306.2,63.4,306.2,63.4,307.8L63.4,307.8z"/>
		</g>
	</g>
	<circle class="st29" cx="60.9" cy="381.1" r="3.8"/>
	<circle class="st29" cx="74.8" cy="418.6" r="3.8"/>
	<circle class="st29" cx="74.8" cy="455.4" r="3.8"/>
	<g>
		<g>
			<path class="st21" d="M68.7,399.1c-5.4,3.9-10.9,7.9-16.3,11.8c-1.3,0.9,0,3.1,1.3,2.2c5.4-3.9,10.9-7.9,16.3-11.8
				C71.3,400.3,70,398.1,68.7,399.1L68.7,399.1z"/>
		</g>
	</g>
	<g>
		<g>
			<path class="st21" d="M63.8,415.6c-4.5,3.6-9,7.3-13.5,10.9c-1.3,1,0.5,2.8,1.8,1.8c4.5-3.6,9-7.3,13.5-10.9
				C66.8,416.4,65,414.6,63.8,415.6L63.8,415.6z"/>
		</g>
	</g>
	<g>
		<g>
			<path class="st21" d="M64.1,432.8c-3.9,2.6-7.8,5.2-11.7,7.8c-1.3,0.9-0.1,3.1,1.3,2.2c3.9-2.6,7.8-5.2,11.7-7.8
				C66.6,434.1,65.4,431.9,64.1,432.8L64.1,432.8z"/>
		</g>
	</g>
	<g>
		<g>
			<path class="st21" d="M64.1,448.1c-4.9,2.7-9.8,5.3-14.8,8c-1.4,0.8-0.2,2.9,1.3,2.2c4.9-2.7,9.8-5.3,14.8-8
				C66.7,449.5,65.5,447.3,64.1,448.1L64.1,448.1z"/>
		</g>
	</g>
	<g>
		<g>
			<path class="st21" d="M64.1,458.1c-3.3,2.3-6.7,4.6-10,6.9c-1.3,0.9-0.1,3.1,1.3,2.2c3.3-2.3,6.7-4.6,10-6.9
				C66.6,459.3,65.4,457.1,64.1,458.1L64.1,458.1z"/>
		</g>
	</g>
	<circle class="st29" cx="58.8" cy="487.7" r="3.8"/>
	<circle class="st29" cx="55.1" cy="514.3" r="3.8"/>
	<circle class="st22" cx="62.6" cy="540.5" r="3.8"/>
	
		<ellipse transform="matrix(0.9988 -4.810511e-02 4.810511e-02 0.9988 -25.8205 3.2703)" class="st29" cx="55" cy="538.1" rx="3.8" ry="3.8"/>
	<circle class="st29" cx="59.7" cy="551.2" r="2.1"/>
	<circle class="st29" cx="64.3" cy="567.3" r="2.1"/>
	
		<ellipse transform="matrix(0.9988 -4.810511e-02 4.810511e-02 0.9988 -27.6628 3.3146)" class="st22" cx="55" cy="576.4" rx="2.7" ry="2.7"/>
	<g>
		<g>
			<path class="st21" d="M76.8,574.7c-1.8-1.5-4.4-1.3-6.5-0.7c-7.8,2.4-13.3,11.1-17.4,17.4c-0.8,1.2,1,2.5,2,1.5
				c4.9-5,12.2-7.6,18.4-3.5c1.3,0.9,2.6-1.3,1.3-2.2c-7.2-4.7-15.7-1.9-21.4,3.9c0.7,0.5,1.3,1,2,1.5c3.7-5.7,8.6-13.6,15.4-16.1
				c1.1-0.4,2.3-0.7,3.5-0.5c0.4,0.1,1.4,0.7,1,0.3C76.3,577.5,78,575.7,76.8,574.7L76.8,574.7z"/>
		</g>
	</g>
	<circle class="st22" cx="60.5" cy="590.4" r="3.8"/>
	
		<ellipse transform="matrix(0.9988 -4.810511e-02 4.810511e-02 0.9988 -28.7023 3.922)" class="st29" cx="67.1" cy="598.3" rx="2.7" ry="2.7"/>
	<g>
		<g>
			<path class="st21" d="M51.3,611c10.9,1.3,8,22.2,8,30c0,15.6,0,31.3,0,46.9c0,8.5-1.4,16.3-9.5,21.3c-1.4,0.8-0.1,3,1.3,2.2
				c14.2-8.7,10.7-27.2,10.7-41.3c0-15.5,0.4-31.1,0-46.7c-0.2-6.4-3.2-14.1-10.5-14.9C49.7,608.3,49.7,610.8,51.3,611L51.3,611z"/>
		</g>
	</g>
	<g>
		<g>
			<path class="st21" d="M57.8,726.4c-0.7,12.7-1.3,25.5-2,38.2c-0.1,1.6,2.4,1.6,2.5,0c0.7-12.7,1.3-25.5,2-38.2
				C60.4,724.8,57.9,724.8,57.8,726.4L57.8,726.4z"/>
		</g>
	</g>
	<g>
		<g>
			<path class="st21" d="M61.5,764.6c-0.8,11-1.6,22.1-2.4,33.1c-0.4,5.7-0.8,11.5-1.2,17.2c-0.4,5.5-1.4,8.4-7.9,10
				c-1.6,0.4-0.9,2.8,0.7,2.4c6.1-1.5,9.4-5.1,9.5-10.2c0.2-4.9,0.7-9.8,1-14.7c0.9-12.6,1.8-25.2,2.7-37.8
				C64.1,763,61.6,763,61.5,764.6L61.5,764.6z"/>
		</g>
	</g>
	<g>
		<g>
			<path class="st30" d="M56.8,844.1c-0.5,6.6-1,13.2-1.4,19.8c-0.1,1.6,2.4,1.6,2.5,0c0.5-6.6,1-13.2,1.4-19.8
				C59.4,842.5,56.9,842.5,56.8,844.1L56.8,844.1z"/>
		</g>
	</g>
	<g>
		<g>
			<path class="st31" d="M56.1,917.4c-1.5,20.4-2.8,40.9-4,61.3c-2,33.2-4.1,66.4-4.6,99.6c-0.1,5.8-0.2,11.6,0.1,17.4
				c0.1,2.6-0.1,6.1,1.2,8.5c0.8,1.4,2.9,0.1,2.2-1.3c-1-1.8-0.8-5.2-0.9-7.3c-0.2-4.9-0.2-9.9-0.1-14.9c0.2-15.1,0.8-30.2,1.5-45.2
				c1.5-32.1,3.5-64.2,5.6-96.3c0.5-7.3,1-14.6,1.5-21.9C58.7,915.8,56.2,915.8,56.1,917.4L56.1,917.4z"/>
		</g>
	</g>
	<g>
		<g>
			<path class="st21" d="M57.5,870.6c0,3.1,0,6.1,0,9.2c0,0.4,0.2,0.9,0.6,1.1c4.4,2,8.3,6.2,8.7,11.1c0.5,5.5-2.8,11-8.8,10.7
				c-0.7,0-1.2,0.6-1.2,1.2c0,2.1,0,4.3,0,6.4c0,1.6,2.5,1.6,2.5,0c0-2.1,0-4.3,0-6.4c-0.4,0.4-0.8,0.8-1.2,1.2
				c9,0.5,13.3-9.5,10.4-17.1c-1.2-3.1-4.7-8-8.2-8.9c-1.1-0.3-0.5-0.7-0.3,0.5c-0.2-0.9,0-2.1,0-3c0-2,0-4,0-6
				C60,869,57.5,869,57.5,870.6L57.5,870.6z"/>
		</g>
	</g>
	
		<ellipse transform="matrix(0.9988 -4.810511e-02 4.810511e-02 0.9988 -42.3069 3.8067)" class="st22" cx="57.9" cy="880.9" rx="2.7" ry="2.7"/>
	
		<ellipse transform="matrix(0.9988 -4.810511e-02 4.810511e-02 0.9988 -43.3951 4.189)" class="st22" cx="65.3" cy="903.7" rx="2.7" ry="2.7"/>
	
		<ellipse transform="matrix(0.9988 -4.810511e-02 4.810511e-02 0.9988 -43.2505 3.7957)" class="st22" cx="57.2" cy="900.5" rx="2.7" ry="2.7"/>
	<g>
		<g>
			<path class="st32" d="M28.3,16.4c9.2-5.5,20.7-8.9,31.4-9c10-0.1,19.6,3.1,27.2,9.8c3.8,3.3,8.3,8,10.4,12.6c0.5,1,0.7,2,0.8,3.1
				c0.6,8.6-7,16.6-12.3,22.4c-2.8,3.1-3.3,6.7-3.7,10.8c-0.7,6-0.4,11.9-0.4,17.8c0.6,49.5,1.2,98.9,1.9,148.4
				c0.1,4.8-1,11.2,0.2,15.9c0.6,2.1,2.6,4.3,3.7,6.2c2,3.5,3.6,7.2,5,11c2,5.8,3.3,11.9,3.8,18c0.8,11.3-5.1,21.2-14.8,26.7
				c-0.6,0.3-0.9,1-0.9,1.6C80,363,79.4,414.3,78.8,465.6c-0.2,16.2-0.4,32.2-1.6,48.3c-1.4,18.7-3.1,37.7-1.8,56.4
				c0.5,7.7,2.1,15.1,1.6,23c-0.3,4.9-2.1,9.4-2.4,14.2c-1.2,17.8-0.3,36-0.4,53.8c-0.3,32.1-0.5,64.3-0.8,96.4
				c-0.2,30.7-0.5,61.4-0.7,92.2c-0.1,13.2-0.6,26.4-0.3,39.6c0.3,15.5,1,30.9-0.2,46.4c-0.7,9.6-3.6,18.5-3.9,28
				c-0.8,28.6-1.6,57.2-2.4,85.8c-0.6,22.2-0.3,44.5-1.8,66.7c-0.5,6.6-5.4,9.8-11.9,9.8c-2.3,0-4.8-0.3-6.7-1.6
				c-6.2-3.7-3.3-15.9-3.2-22c0.4-17.7,0.7-35.4,1.1-53.1c0.3-16.9,0-34,1-50.8c0.4-7.4,2.2-14.7,2.8-22.2
				c0.7-7.8,0.9-15.7,0.7-23.5c-0.2-5.2-0.8-10.3-0.9-15.5c-0.2-7.6,0-15.3-0.1-22.9c-0.1-30.8-0.2-61.6-0.2-92.4
				c-0.1-27.9-0.1-55.8-0.2-83.7c0-5.7,0.1-10.9-1-16.4c-1.4-7.3,0.1-13.7,2.1-20.7c0.4-1.4,0.5-1.9,0.5-3.2
				c0.3-4.5,0.1-9.1,0.1-13.6c0.1-16.3,0.2-32.6,0.3-48.9c0.1-11.1,1.1-22.6,0.2-33.7c-0.1-1.6-0.7-3-1.2-4.6
				c-2.1-7.7-1.3-14.8,0.7-22.4c1.2-4.7,0.8-10.1,1-15c0.4-10.7,1.8-21.7,0.5-32.4c-8-64.1-4.2-129.4-3.5-193.8
				c0.1-6.8,0.2-13.7,0.3-20.5c0-0.6-0.4-1.3-0.9-1.6c-12.5-6.5-3.4-21.8-3.3-31.7c0.1-9.1-5.2-17-5.6-26.2
				c-0.2-4.9,0.4-9.8,1.7-14.5c0.7-2.5,2.1-5,2.6-7.5c0.6-3.3,0.2-7,0.3-10.4c0.3-8.5,0.5-16.9,0.8-25.4
				c1.2-39.7,2.5-79.5,3.7-119.2c0-1.2,0.4-2.8,0.1-4c-0.3-1.1-0.6-1.2-1.3-2.1c-2-2.6-4.2-4.8-5.7-7.8c-4.1-8.1,1.1-17.1-5-24.4
				c-2.7-3.2-6.5-5-8.7-8.6C21.7,24.6,22.4,19.4,28.3,16.4c2.1-1.1,0.2-4.4-1.9-3.2c-5.2,2.7-8.1,7.3-6.8,13.3
				c0.7,3.1,2.3,5.9,4.3,8.3c2.6,3,6.6,4.8,8.4,8.4c2.3,4.5,0.1,8.9,0.6,13.6c0.4,3.3,1.6,6.5,3.3,9.4c1.3,2.3,2.9,4.5,4.7,6.4
				c0.5,0.5,0.9,1,1.4,1.4c0.6,0.6-0.4-1.5-0.3-0.9c0.4,4-0.3,8.3-0.4,12.3c-0.3,8.9-0.6,17.7-0.8,26.6c-0.7,23.6-1.5,47.2-2.2,70.8
				c-0.5,15.7-0.2,31.6-1.5,47.2c-0.2,1.9-0.2,2.1-1,3.9c-3.3,7.9-4.1,17.2-2.8,25.6c1.5,9.7,6.9,17.3,4,27.4
				c-2,6.7-3.7,13.3-0.7,20c0.9,2.1,3.7,7.2,6.4,7.7c1.2,0.2-0.2-1.1-0.4-1c-0.2,0.3,0,1.6,0,2c-0.1,6.5-0.2,13-0.2,19.5
				c-0.5,37.7-0.9,75.4-1.4,113.1c-0.2,18.5,0.7,37,2.3,55.5c0.6,7.2,1.4,14.3,2.2,21.4c0.2,1.9,0.5,3.9,0.7,5.8
				c0.1,0.6,0.2,2.6,0.2,1.9c0.3,9.2-0.8,18.6-1.1,27.8c-0.2,4,0.1,8.2-0.5,12.1c-0.4,2.4-1.5,4.8-1.9,7.4
				c-0.8,4.3-0.8,8.8-0.2,13.1c0.5,3.5,1.9,6.5,2.1,9.9c0.2,3,0,6-0.1,9c-0.1,10.4-0.1,20.8-0.2,31.2c-0.1,11.7-0.1,23.4-0.2,35.1
				c0,6.7,0.8,14-0.1,20.6c-0.1,1.1-0.5,1.5-0.9,2.7c-1.6,4.3-2.3,8.9-2.3,13.5c0,4,1.1,7.7,1.6,11.7c0.4,3.7,0,7.7,0,11.4
				c0,18.3,0.1,36.6,0.1,54.9c0.1,43.2,0.2,86.5,0.3,129.7c0,15.5,1.6,31.1,0.8,46.6c-0.6,11.3-3.2,22.4-3.4,33.7
				c-0.2,12.2-0.5,24.3-0.7,36.5c-0.5,24-1,47.9-1.4,71.9c-0.1,6.6-0.8,13.4,6,16.8c3.3,1.7,7.3,1.9,11,1.4c7.4-1,12.1-6,12.5-13.4
				c0.7-13.1,0.7-26.3,1.1-39.4c0.6-23.4,1.3-46.9,1.9-70.3c0.4-15.7,0.2-31.6,1.3-47.2c0.1-1.8,0.5-2.9,1-4.8
				c1.5-5.7,2.1-11.6,2.6-17.4c1.1-13.3,1-26.7,0.6-40c-0.2-6.9-0.3-13.8-0.2-20.7c0.3-38.8,0.6-77.7,0.9-116.5
				c0.3-42.8,0.7-85.5,1-128.3c0.1-8.1-1-17.2,0.2-25.2c0.3-2,1.2-4,1.6-6c0.8-4.4,1-8.9,0.9-13.3c-0.1-4.8-0.9-9.3-1.5-14
				c-1.5-12.9-0.3-26.5,0.4-39.4c0.7-13.3,2.4-26.5,2.5-39.8c0.2-16.5,0.4-33.1,0.6-49.6c0.5-41.6,1-83.1,1.5-124.7c0-2,0.2-4,0.1-6
				c0-0.5,0-0.9,0-1.4c0-0.1,0-0.2,0-0.3c-0.5,2.1-0.8,1.1,0.5,0.7c4.9-1.5,9.9-8.6,12-12.8c3.7-7.2,3.6-14.9,2.4-22.7
				c-1.4-9.1-4.6-18-9.3-25.9c-1.6-2.7-2.1-2.5-2.4-5c-0.7-5.3-0.1-11.1-0.2-16.5c-0.5-43.5-1.1-87.1-1.6-130.6
				c-0.1-11.8-2.2-26.5,1.1-38.1c0.2-0.9,0.9-2.3,0.6-1.8c2.6-3.7,6.3-6.6,8.9-10.4c2.9-4.3,5.6-9.5,5.6-14.8c0-2.1-0.3-4.2-1.3-6
				c-3.7-6.9-10.2-13.6-16.8-17.7C66.7-0.3,43.2,3.6,26.5,13.6C24.3,14.4,26.2,17.6,28.3,16.4z"/>
		</g>
	</g>
</g>
</svg>
