<?xml version="1.0" encoding="utf-8"?>
<!-- Generator: Adobe Illustrator 21.0.2, SVG Export Plug-In . SVG Version: 6.00 Build 0)  -->
<svg version="1.1" id="Layer_1" xmlns="http://www.w3.org/2000/svg" xmlns:xlink="http://www.w3.org/1999/xlink" x="0px" y="0px"
	 viewBox="0 0 428.6 1133.9" style="enable-background:new 0 0 428.6 1133.9;" xml:space="preserve">
<style type="text/css">
	.st0{fill:#DEBD63;}
	.st1{fill:#A78538;}
	.st2{fill:#F4D58C;}
	.st3{fill:#FDE8A9;}
	.st4{fill:#68471B;}
	.st5{fill:#C5AB64;}
	.st6{fill:#F0CC8C;}
	.st7{fill:#CFB670;}
	.st8{fill:#D6BC84;}
	.st9{fill:#FFEABA;}
	.st10{fill:#CFAB60;}
	.st11{fill:#A69040;}
	.st12{fill:#FCE1A6;}
	.st13{fill:#F8DFA6;}
	.st14{fill:#E9CC83;}
	.st15{fill:#EFD79A;}
	.st16{fill:#C4AF76;}
	.st17{fill:#FFE198;}
	.st18{fill:#1D191B;}
</style>
<g>
	<g>
		<path class="st0" d="M345.7,16.9c0,0,8.9-15.8,33.1-6.7c24.1,9.1,19.1,20,19.1,20s-0.9,10.4-6.4,13.1l-2.2,6.2
			c0,0,1.8,8.4-5.9,17.3l-17.6,53c0,0,1.2,24.9-9.8,29.7l-4.6,15.4c0,0,3,10.9-5,15.4l-4,13.4c0,0,5.1,20.8-7.8,26.1l-19.7,68.4
			c0,0,5.3,28.8-9.1,31.6l-6.6,22c0,0,4.9,24.1-9.3,32.3l-21.8,71.5c0,0,2.2,15.9-7,22.3l-4.2,12.7c0,0,1.3,40.9-15.9,43.5
			l-26.6,86.5c0,0,4.7,22.2-8.5,28.5l-2.1,4.7L55.2,1101c0,0-2.5,15.1-15.1,11.3s-6-17.7-6-17.7L150.3,679c0,0-1.1-18.1,6.6-24.7
			l23.7-75c0,0-5.8-21,6.6-24.7l35-119.6c0,0-3.4-18.5,6.7-22.2l24.9-85.9c0,0-4.3-16.7,5.6-18.6l14.3-50.4c0,0-4.9-17.4,7.1-19.6
			l47.7-152.5c0,0-3-10.1,4.3-15.8l11-34.2C343.6,35.8,337.6,34.5,345.7,16.9z"/>
	</g>
	<path class="st1" d="M385.5,14.3c-2-1-4.3-2.1-7-3.1L39.7,1113.5c12.6,3.8,15.1-11.3,15.1-11.3L203.4,645l2.1-4.7
		c13.2-6.3,8.5-28.5,8.5-28.5l26.6-86.5c17.2-2.5,15.9-43.5,15.9-43.5l4.3-12.8c9.2-6.4,7-22.3,7-22.3l21.8-71.5
		c14.2-8.2,9.3-32.3,9.3-32.3l6.6-22c14.4-2.8,9.1-31.6,9.1-31.6l19.7-68.4c12.9-5.3,7.8-26.1,7.8-26.1l4-13.4c8-4.6,5-15.4,5-15.4
		l4.6-15.4c11-4.8,9.8-29.7,9.8-29.7l17.6-53.1c7.7-8.9,5.9-17.3,5.9-17.3l2.2-6.2c5.5-2.7,6.4-13.1,6.4-13.1S401.5,22.6,385.5,14.3
		"/>
	<g>
		<g>
			<path class="st2" d="M50.9,1079.6c23-77.1,46-154.3,69.1-231.4c0.5-1.5-2-2.2-2.4-0.7c-23,77.1-46,154.3-69.1,231.4
				C48,1080.5,50.4,1081.2,50.9,1079.6L50.9,1079.6z"/>
		</g>
	</g>
	<path class="st1" d="M379.1,10.8l-7.9,26.4c0,0-21.7-9.9-27.6,0.2c0,0-5.6-6.6,4.6-21.9C348.2,15.5,366.6,3,379.1,10.8z"/>
	<g>
		<g>
			<path class="st3" d="M367,38.2c-2.1,6.8-4.2,13.5-6.2,20.3c-5.7,18.4-11.3,36.8-17,55.2c-8.4,27.4-16.8,54.7-25.3,82.1
				c-10.2,33.1-20.4,66.2-30.6,99.3c-11.3,36.6-22.5,73.2-33.8,109.7c-11.3,36.8-22.6,73.5-33.9,110.3
				c-10.5,34.3-21.1,68.6-31.6,102.8c-8.9,29-17.8,57.9-26.7,86.9c-6.4,20.8-12.8,41.7-19.2,62.5c-3,9.8-6.5,19.7-9.1,29.6
				c-0.1,0.4-0.3,0.9-0.4,1.3c-0.7,2.3,2.9,3.3,3.6,1c2.1-6.8,4.2-13.5,6.2-20.3c5.7-18.4,11.3-36.8,17-55.2
				c8.4-27.4,16.8-54.7,25.3-82.1c10.2-33.1,20.4-66.2,30.6-99.3c11.3-36.6,22.5-73.2,33.8-109.7c11.3-36.8,22.6-73.5,33.9-110.3
				c10.5-34.3,21.1-68.6,31.6-102.8c8.9-29,17.8-57.9,26.7-86.9c6.4-20.8,12.8-41.7,19.2-62.5c3-9.8,6.5-19.7,9.1-29.6
				c0.1-0.4,0.3-0.9,0.4-1.3C371.3,36.9,367.7,35.9,367,38.2L367,38.2z"/>
		</g>
	</g>
	<g>
		<g>
			<path class="st4" d="M345.4,24.3c6-7.7,21.4-3.8,28.7-1.5c7,2.3,21,8.8,17.9,18.8c-0.5,1.5,1.9,2.2,2.4,0.7
				c3.2-10.1-8.7-17.7-16.4-20.7c-8.5-3.3-27.1-8.4-34.4,1C342.7,23.8,344.4,25.6,345.4,24.3L345.4,24.3z"/>
		</g>
	</g>
	<g>
		<g>
			<path class="st4" d="M341.2,37.7c18.8-11.9,42.6,0.9,42.9,23.1c0,1.6,2.5,1.6,2.5,0c-0.3-24.1-26.3-38.2-46.7-25.2
				C338.6,36.4,339.8,38.6,341.2,37.7L341.2,37.7z"/>
		</g>
	</g>
	<g>
		<g>
			<path class="st4" d="M331,75.4c14.3,12.9,25.7,28.5,33.5,46.1c0.7,1.5,2.8,0.2,2.2-1.3c-7.9-17.8-19.4-33.6-33.9-46.6
				C331.5,72.5,329.8,74.3,331,75.4L331,75.4z"/>
		</g>
	</g>
	<g>
		<g>
			<path class="st4" d="M326.9,82.8c16,14.9,28,33.4,34.9,54.2c0.5,1.5,2.9,0.9,2.4-0.7c-7-21.2-19.2-40.1-35.5-55.3
				C327.5,80,325.7,81.7,326.9,82.8L326.9,82.8z"/>
		</g>
	</g>
	<g>
		<g>
			<path class="st4" d="M331.4,98.7c4.3,5.4,8.2,11.1,11.9,16.9c5.8,9.1,12,19.3,13.7,30.1c0.2,1.6,2.6,0.9,2.4-0.7
				c-1.6-11.1-8-21.5-13.9-30.7c-3.8-6-7.9-11.8-12.3-17.4C332.2,95.7,330.5,97.4,331.4,98.7L331.4,98.7z"/>
		</g>
	</g>
	<g>
		<g>
			<path class="st4" d="M349.1,175.7c-5.7,6.3-9-8.5-9.6-12c-0.3-1.6-2.7-0.9-2.4,0.7c1,5.4,6,21.8,13.8,13.1
				C352,176.3,350.2,174.5,349.1,175.7L349.1,175.7z"/>
		</g>
	</g>
	<g>
		<g>
			<path class="st4" d="M307.8,179.9c9.8,3.3,19.9,10,25.2,19c2.1,3.6,3.3,7.6,3.4,11.8c0.1,2.4,0,5.2-1.2,7.4
				c-1,1.8-2.4,3.2-3.2,5.2c-0.9,2.1-1.2,4.2-1.4,6.4c-0.5,4-2.7,7.3-6.1,9.4c-7.1,4.3-15.1,1.6-20.2-4.3c-1.1-1.2-2.8,0.6-1.8,1.8
				c7.8,9,23.8,10.3,29.5-2c1.1-2.4,0.9-4.9,1.5-7.5c0.8-3.6,3.4-5.4,4.7-8.5c1.7-4.3,1.1-10.4-0.2-14.8
				c-3.9-12.9-17.1-22.1-29.3-26.3C307,177,306.3,179.4,307.8,179.9L307.8,179.9z"/>
		</g>
	</g>
	<g>
		<g>
			<path class="st4" d="M277.9,241.7c25.7,12.3,39,38.9,35.8,66.9c-0.2,1.6,2.3,1.6,2.5,0c3.3-28.8-10.6-56.5-37-69.1
				C277.7,238.9,276.4,241,277.9,241.7L277.9,241.7z"/>
		</g>
	</g>
	<g>
		<g>
			<path class="st4" d="M273.2,262.7c11.3,5.5,19.9,15.1,23.9,27c0.5,1.5,2.9,0.9,2.4-0.7c-4.3-12.5-13.2-22.7-25.1-28.5
				C273,259.8,271.7,262,273.2,262.7L273.2,262.7z"/>
		</g>
	</g>
	<g>
		<g>
			<path class="st4" d="M276,292.2c11.3,7.7,20.5,17.9,27.1,29.9c0.8,1.4,2.9,0.2,2.2-1.3c-6.8-12.4-16.3-22.8-28-30.8
				C275.9,289.2,274.7,291.3,276,292.2L276,292.2z"/>
		</g>
	</g>
	<g>
		<g>
			<path class="st4" d="M260.5,318c20.6,6.6,34.8,25.3,35.1,47c0,1.6,2.5,1.6,2.5,0c-0.3-22.8-15.3-42.4-36.9-49.4
				C259.6,315.1,259,317.5,260.5,318L260.5,318z"/>
		</g>
	</g>
	<g>
		<g>
			<path class="st4" d="M247.3,353.9c8.8-4.7,19.7,0.4,22,10c0.4,1.6,2.8,0.9,2.4-0.7c-2.7-11.3-15.4-16.9-25.6-11.5
				C244.6,352.5,245.8,354.6,247.3,353.9L247.3,353.9z"/>
		</g>
	</g>
	<g>
		<g>
			<path class="st4" d="M242.9,365.7c4.2,10.3,17.6,17,24.1,4.7c0.8-1.4-1.4-2.7-2.2-1.3c-5.4,10.2-16.1,4.3-19.6-4.1
				C244.8,363.6,242.3,364.2,242.9,365.7L242.9,365.7z"/>
		</g>
	</g>
	<g>
		<g>
			<path class="st4" d="M283.6,357.9c5.2,8.5,2.9,22,0.9,30.9c-2.1,9.3-4.8,18.9-7.7,28c-3.3,10.4-9.6,17.7-20.4,20.6
				c-1.6,0.4-0.9,2.8,0.7,2.4c9.2-2.5,16.3-8.1,20.1-16.9c2-4.5,3.1-9.3,4.3-14c1.5-6,3.5-11.8,5-17.8c2.5-10.1,5.1-24.9-0.7-34.5
				C285,355.3,282.8,356.5,283.6,357.9L283.6,357.9z"/>
		</g>
	</g>
	<g>
		<g>
			<path class="st4" d="M227.8,412.8c-0.4,5.5,0.7,11.4,2,16.8c3.6,14.8,11.1,28.3,20.3,40.3c1,1.3,3.1,0,2.2-1.3
				c-9-11.9-16.4-25.2-20-39.7c-1.3-5.2-2.4-10.8-1.9-16.1C230.4,411.2,227.9,411.2,227.8,412.8L227.8,412.8z"/>
		</g>
	</g>
	<g>
		<g>
			<path class="st4" d="M220.7,434.4c2.8,12,7.9,23.2,14.9,33.3c7.6,10.9,13.2,22.3,16.9,35.1c0.4,1.5,2.9,0.9,2.4-0.7
				c-3.4-11.9-8.5-23.2-15.6-33.4c-7.5-10.8-13.3-22.1-16.3-35C222.7,432.1,220.3,432.8,220.7,434.4L220.7,434.4z"/>
		</g>
	</g>
	<g>
		<g>
			<path class="st4" d="M267.6,442.4c-0.5,11.7-13.6,13.5-20.3,5.3c-1-1.2-2.8,0.5-1.8,1.8c8.2,10.1,24,6.8,24.6-7
				C270.2,440.8,267.7,440.8,267.6,442.4L267.6,442.4z"/>
		</g>
	</g>
	<g>
		<g>
			<path class="st4" d="M153.8,659.5c2.6,11.8,7.7,24.4,16.2,33.1c1.1,1.2,2.9-0.6,1.8-1.8c-8.3-8.4-13.1-20.6-15.6-32
				C155.8,657.3,153.4,658,153.8,659.5L153.8,659.5z"/>
		</g>
	</g>
	<g>
		<g>
			<path class="st4" d="M169.9,620.4c2.2-11.1,9.7-20.2,20.3-24.1c0.9-0.3,1.2-1.4,0.6-2.1c-3.9-4-7-8.4-9.3-13.5
				c-0.7-1.5-2.8-0.2-2.2,1.3c2.5,5.2,5.7,9.8,9.7,14c0.2-0.7,0.4-1.4,0.6-2.1c-11.4,4.2-19.7,13.8-22.1,25.8
				C167.2,621.3,169.6,622,169.9,620.4L169.9,620.4z"/>
		</g>
	</g>
	<g>
		<g>
			<path class="st4" d="M185.9,556.6c14.5,17.1,23.7,37.9,26.8,60.1c0.2,1.6,2.6,0.9,2.4-0.7c-3.1-22.6-12.6-43.8-27.4-61.2
				C186.7,553.6,184.9,555.3,185.9,556.6L185.9,556.6z"/>
		</g>
	</g>
	<g>
		<g>
			<path class="st4" d="M215.4,456.9c6.6,9.7,12.7,19.8,17.9,30.3c4.4,9.1,6.5,17.7,4.2,27.8c-0.4,1.6,2,2.2,2.4,0.7
				c2.1-9,1.1-17.3-2.6-25.8c-5.2-12-12.3-23.4-19.7-34.3C216.7,454.3,214.5,455.5,215.4,456.9L215.4,456.9z"/>
		</g>
	</g>
	<g>
		<g>
			<path class="st4" d="M222,494.3c1.8,16.4-6.4,32.3-20.8,40.2c-1.4,0.8-0.2,2.9,1.3,2.2c15.2-8.3,24-25.1,22.1-42.4
				C224.4,492.7,221.9,492.7,222,494.3L222,494.3z"/>
		</g>
	</g>
	<g>
		<g>
			<path class="st4" d="M230.7,546.9c-6.2-1.3-11.9-5.8-11.4-12.6c0.1-1.6-2.4-1.6-2.5,0c-0.5,7.9,6,13.5,13.3,15
				C231.6,549.6,232.3,547.2,230.7,546.9L230.7,546.9z"/>
		</g>
	</g>
	<g>
		<g>
			<path class="st4" d="M214.6,480.3c4.7,12.2,0.8,25.9-9.9,33.4c-1.3,0.9-0.1,3.1,1.3,2.2c11.5-8.2,16.1-22.9,11-36.3
				C216.5,478.1,214.1,478.8,214.6,480.3L214.6,480.3z"/>
		</g>
	</g>
	<g>
		<g>
			<path class="st5" d="M358.6,16c10.3-0.4,20,2.6,28.4,8.6c1.3,0.9,2.6-1.2,1.3-2.2c-8.7-6.2-19-9.3-29.6-9
				C357,13.5,356.9,16,358.6,16L358.6,16z"/>
		</g>
	</g>
	<g>
		<g>
			<path class="st6" d="M350.6,30.3c17-3.2,33.1,8.1,36.6,24.8c0.3,1.6,2.7,0.9,2.4-0.7c-3.7-18.2-21.4-30-39.6-26.6
				C348.4,28.2,349,30.6,350.6,30.3L350.6,30.3z"/>
		</g>
	</g>
	<g>
		<g>
			<path class="st7" d="M337.3,86.6c11.6,11.7,20.5,25.6,26,41.1c0.5,1.5,3,0.9,2.4-0.7c-5.7-15.9-14.7-30.2-26.6-42.2
				C338,83.7,336.2,85.4,337.3,86.6L337.3,86.6z"/>
		</g>
	</g>
	<g>
		<g>
			<path class="st2" d="M307.2,175.2c18.4,2.9,32.6,18.4,33.8,37.1c0.1,1.6,2.6,1.6,2.5,0c-1.2-19.7-16-36.3-35.6-39.5
				C306.3,172.6,305.6,175,307.2,175.2L307.2,175.2z"/>
		</g>
	</g>
	<g>
		<g>
			<path class="st8" d="M353,170c-2.1-9.3-10.8-15.7-20.3-15.1c-1.6,0.1-1.6,2.6,0,2.5c8.4-0.6,16,5,17.9,13.2
				C350.9,172.2,353.3,171.5,353,170L353,170z"/>
		</g>
	</g>
	<g>
		<g>
			<path class="st2" d="M336.6,98.3c8.6,9.4,15.4,20.1,20.4,31.9c0.6,1.5,2.8,0.2,2.2-1.3c-5.1-11.9-12.1-22.8-20.8-32.4
				C337.3,95.4,335.5,97.1,336.6,98.3L336.6,98.3z"/>
		</g>
	</g>
	<g>
		<g>
			<path class="st9" d="M324.2,233.9c-8.6,3.8-17.7-0.4-22-8.4c-0.8-1.4-2.9-0.2-2.2,1.3c5.1,9.3,15.6,13.5,25.5,9.3
				C326.9,235.4,325.7,233.3,324.2,233.9L324.2,233.9z"/>
		</g>
	</g>
	<g>
		<g>
			<path class="st10" d="M289.9,253.9c10.3,7.3,17.1,18.3,18.8,30.9c0.2,1.6,2.7,1.6,2.5,0c-1.7-13.6-8.9-25.1-20-33
				C289.9,250.8,288.6,253,289.9,253.9L289.9,253.9z"/>
		</g>
	</g>
	<g>
		<g>
			<path class="st2" d="M274.5,257.9c17.7,9.4,29.3,27.1,30.4,47.2c0.1,1.6,2.6,1.6,2.5,0c-1.2-21-13.2-39.5-31.7-49.4
				C274.4,255,273.1,257.2,274.5,257.9L274.5,257.9z"/>
		</g>
	</g>
	<g>
		<g>
			<path class="st11" d="M257.7,313.7c20.6,5.5,37,21.2,39.7,43c0.2,1.6,2.7,1.6,2.5,0c-2.8-22.9-19.7-39.6-41.5-45.4
				C256.8,310.9,256.2,313.3,257.7,313.7L257.7,313.7z"/>
		</g>
	</g>
	<g>
		<g>
			<path class="st12" d="M245.9,361.3c1.9,4.1,6.1,9.9,11,10.6c4.2,0.6,7-3.4,8.2-6.9c0.5-1.5-1.9-2.2-2.4-0.7c-1.6,4.5-5,6.5-9,3
				c-2.3-2.1-4.2-4.5-5.6-7.3C247.3,358.6,245.2,359.9,245.9,361.3L245.9,361.3z"/>
		</g>
	</g>
	<g>
		<g>
			<path class="st13" d="M245,435.8c0.3,9.7,8.4,18.5,18.3,13c1.4-0.8,0.1-2.9-1.3-2.2c-8.2,4.6-14.3-3.1-14.6-10.9
				C247.4,434.2,244.9,434.2,245,435.8L245,435.8z"/>
		</g>
	</g>
	<g>
		<g>
			<path class="st14" d="M222.6,423.2c2.3,12.5,6.6,24.1,13.6,34.6s13,21.9,17.4,33.8c0.6,1.5,3,0.9,2.4-0.7
				c-4.2-11.4-9.9-22.3-16.4-32.5c-7.2-11.3-12.2-22.6-14.6-35.9C224.8,421,222.4,421.6,222.6,423.2L222.6,423.2z"/>
		</g>
	</g>
	<g>
		<g>
			<path class="st15" d="M227.1,492.6c1.4,12.5-2,25-9.8,34.9c-1,1.3,0.8,3,1.8,1.8c8.2-10.5,12-23.5,10.6-36.7
				C229.4,491,226.9,491,227.1,492.6L227.1,492.6z"/>
		</g>
	</g>
	<g>
		<g>
			<path class="st16" d="M189.2,569.3c13.2,19.8,21.7,41.7,19.8,65.7c-0.1,1.6,2.4,1.6,2.5,0c1.9-24.4-6.8-46.9-20.2-67
				C190.4,566.7,188.3,568,189.2,569.3L189.2,569.3z"/>
		</g>
	</g>
	<g>
		<g>
			<path class="st17" d="M149.6,673.1c1.8,5.1,3.9,10,6.3,14.8c2.7,5.4,6.3,12.9,12.3,15.1c1.5,0.6,2.2-1.9,0.7-2.4
				c-5.8-2.1-9.3-10.7-11.8-15.9c-1.9-4-3.7-8.1-5.1-12.3C151.5,670.9,149.1,671.5,149.6,673.1L149.6,673.1z"/>
		</g>
	</g>
	<g>
		<g>
			<path class="st18" d="M347,18.9c6.9-11.9,23.9-9,34.2-4.5c5.4,2.4,14,6.6,14.9,13.4c0.3,2.6-0.2,3.4-0.8,6.1c-1.3,6.1-6,9-7.6,15
				c-0.4,1.5-0.3,2.4-0.3,3.9c0.1,6.1-3.5,9.3-5.9,14.4c-3.4,7.2-5.2,15.6-7.7,23.1c-3.2,9.6-7.4,19.4-9.7,29.2
				c-2,8.8,0.7,19.2-5.8,26.8c-1.3,1.6-3.3,2.2-4.3,3.9c-1.2,1.9-1.5,5-2.1,7.1c-1.1,3.8-2.6,7.1-2.1,11c0.4,3.6,0,7.6-2.7,10.2
				c-2.2,2.2-2.5,2.1-3.4,5c-1.1,3.7-3.3,8.1-3.3,12c0.1,4.9,1.5,9.2,0.4,14.2c-0.9,4.3-2.9,6.6-6.3,9.2c-1.1,0.9-1.5,1-2.1,2.2
				c-1.3,2.7-1.8,6.3-2.7,9.2c-1.6,5.5-3.2,11.1-4.8,16.6c-3.3,11.4-6.6,22.8-9.9,34.2c-0.7,2.4-2,5.2-2.2,7.7
				c-0.3,2.4,0.5,5.2,0.7,7.6c0.4,5.9,0.5,13-2.6,18.4c-0.8,1.4-1.9,2.7-3.3,3.5c-0.9,0.5-2.7,0.6-3.4,1.4c-0.8,0.9-1,2.5-1.3,3.5
				c-1.7,5.5-3.3,11-5,16.6c-0.9,2.8-0.6,4.3-0.3,7.3c0.6,6.5,0.4,13.6-2.6,19.6c-1.9,3.9-6.1,5.5-7.6,9.3c-3.4,8.4-5.4,17.7-8,26.3
				c-3.5,11.6-7.1,23.2-10.6,34.8c-0.9,2.8-2.2,5.8-2.7,8.8c-0.5,2.8,0.1,5.8-0.2,8.7c-0.4,3.9-1.4,7.9-4,10.9
				c-2,2.3-2.9,2.6-3.8,5.4c-1.2,3.6-3.1,7.5-3.5,11.3c-1.1,9.7-0.4,19.2-3.5,28.7c-1.8,5.5-4.8,11.5-11,12.7
				c-0.6,0.1-1.1,0.7-1.3,1.3c-4,12.8-7.9,25.7-11.9,38.5c-4.8,15.4-10.5,30.9-14.3,46.6c-1.1,4.7,0.7,9.9,0.1,14.8
				c-0.3,2.7-0.9,5.5-2.2,8c-1.6,3.2-4.2,3.9-6.4,6.3c-1.3,1.4-2,3.9-2.6,5.6c-1.4,3.7-2.5,7.6-3.7,11.4
				c-7.6,23.5-15.3,47.1-22.9,70.6c-11.9,36.5-23.7,73-35.6,109.5c-12.8,39.5-25.7,79.1-38.5,118.6c-10.6,32.7-21.3,65.4-31.9,98.1
				c-5.2,15.9-10.8,31.8-15.6,47.9c-0.6,2.1-1.1,4.2-2.1,6.2c-3.2,6.1-12.6,7.8-16.5,1c-1.9-3.5-0.7-7.5,0.5-11
				c1.2-3.6,2.1-7.4,3.2-11.1c6.9-24.8,13.9-49.6,20.8-74.4c10.6-37.9,21.2-75.9,31.9-113.8c10.9-39,21.8-78,32.7-117
				c7.7-27.5,15.4-55,23.1-82.5c1.5-5.5,3.5-11,4.6-16.6c0.7-3.4,0.2-7.1,0.6-10.6c0.4-3.3,1.1-6.8,2.6-9.8c0.9-1.9,2.7-3.3,3.6-5.1
				c0.6-1.2,0.9-2.9,1.3-4.2c5.5-17.4,11-34.9,16.5-52.3c1.8-5.8,4.6-11.9,5.6-17.9c0.2-1.3,0.1-2.1-0.2-3.4
				c-0.9-4.4-1.5-9.3-0.3-13.7c0.9-3.3,2.4-4.8,5.2-6.6c1.1-0.7,1.5-0.7,2.1-1.7c0.5-0.9,0.7-2.3,0.9-3.2c1.8-6.1,3.5-12.1,5.3-18.2
				c5.6-19.2,11.2-38.3,16.8-57.5c2.5-8.4,4.9-16.9,7.4-25.3c1.4-4.7,3.2-9.5,4.2-14.3c1.1-5.4-1.1-10.9,1-16.5
				c1.3-3.5,4.6-4.3,6.1-7.2c0.8-1.6,1.1-3.8,1.6-5.5c5.2-17.9,10.3-35.7,15.5-53.6c2.1-7.4,4.3-14.8,6.4-22.1
				c0.4-1.3,1.1-2.9,1.2-4.2c0.2-2.3-0.7-4.8-0.8-7.2c-0.1-2.4,0-5.3,1.3-7.5c1.3-2.1,3.9-2,5.1-4c0.8-1.3,1-3.5,1.4-5
				c2.6-9.2,5.2-18.3,7.8-27.5c1.6-5.6,4.6-12.1,5.1-17.9c0.2-2.6-0.9-5.4-0.9-8.1c0-2.4,0.3-5.2,1.8-7.3c1.6-2.3,4.6-2,6.1-4
				c1.3-1.7,1.6-5.1,2.3-7.1c2-6.3,3.9-12.6,5.9-18.9c5.9-18.7,11.7-37.5,17.6-56.2c5.5-17.7,11-35.3,16.6-53
				c1.5-4.9,3.1-9.8,4.6-14.7c1.2-3.9-0.3-7.3,0.7-11.4c0.9-3.7,4-5.6,5.2-9.1c1.3-3.8,2.5-7.7,3.7-11.6c2.2-6.9,4.5-13.8,6.7-20.7
				c0.3-0.9-0.4-2.1-1.3-2.3C340.4,34.2,346.3,20.4,347,18.9c1-2.2-2.3-4.1-3.2-1.9c-1.6,3.5-9.1,19.6-0.9,21.7
				c-0.4-0.8-0.9-1.5-1.3-2.3c-3.3,10.2-6.6,20.3-9.9,30.5c-1.5,4.8-5.4,7.5-6.1,12.9c-0.3,2.6,0.3,4.8,0.4,7.3
				c0,0.2,0.2-1.2-0.1,0.1c-4.8,17.7-11,35.2-16.5,52.7c-7.9,25.2-15.7,50.4-23.6,75.6c-2.2,7.1-4.3,14.3-6.7,21.4
				c-0.2,0.5-0.2,1.4-0.6,1.8c-0.1,0.1,0,0.2-0.1,0.3c1.6-1.5-3.1,0.5-3.6,0.9c-4.5,3.5-4.9,9.9-4.3,15.2c0.2,1.5,0.8,3,0.8,4.5
				c-0.1-2.1-0.6,1.3-0.8,2c-1.5,5.4-3,10.7-4.5,16.1c-1.8,6.4-3.6,12.9-5.5,19.3c-0.7,2.6-1.5,5.2-2.2,7.8
				c-0.3,1.1-0.5,3.2-1.2,4.1c0.2-0.3,0.5-0.7-1-0.3c-1,0.2-2.1,1.4-2.8,2.1c-1.8,2.1-2.5,4.8-2.8,7.5s0,5.4,0.4,8.1
				c0.1,0.7,0.4,1.5,0.4,2.2c0.1,0.8,0.2-1.4,0-0.4c-1.6,8.3-4.8,16.5-7.1,24.6c-3.8,13.1-7.6,26.2-11.4,39.3
				c-1.5,5.2-3,10.3-4.5,15.5c-0.4,1.5-0.7,5-1.8,6.1c0.7-0.8-2.5,1-2.9,1.5c-0.9,1-1.7,2.2-2.2,3.4c-1.4,2.9-1.9,6.1-2,9.2
				c-0.1,2.5-0.1,5.2,0.3,7.7c0,0.3,0.1,2,0.2,0.9c0.1-0.9-0.1-0.3-0.1,0c-1.6,6.8-4,13.5-5.9,20.3c-7.4,25.4-14.8,50.7-22.3,76.1
				c-2.1,7.1-3.4,15.1-6.4,21.8c-0.8,1.8,0.5-0.3-0.5,0.2c-2.7,1.5-4.7,3.2-6.1,6.1c-2.4,5.1-2,11.2-1.1,16.6
				c0.2,0.9,0.5,4.8,0.8,2.8c-0.1,0.8-0.5,1.6-0.7,2.3c-1.3,4.2-2.7,8.4-4,12.6c-4.1,12.9-8.1,25.8-12.2,38.7
				c-2.2,6.9-3.7,16.5-7.8,22.2c-4.1,5.7-5.3,12.6-5.6,19.5c-0.1,1.3,0,2.6,0,3.8c0,0.3,0,1.6,0.1,0.6c0,0.2-0.1,0.3-0.1,0.5
				c-1.5,8.5-4.7,17-7.1,25.2c-5.2,18.6-10.4,37.2-15.6,55.9c-14.5,52-29.1,103.9-43.6,155.9c-13.1,46.7-26.1,93.4-39.2,140.1
				c-3.2,11.5-6.4,23-9.7,34.5c-0.7,2.6-1.2,3.8-1.8,5.6c-1.7,5.2-1.6,11.3,2.7,15.2c4.4,4,11.9,4.9,16.7,1.1
				c5.4-4.3,7.2-14.5,9.4-21c4.4-13.5,8.8-27,13.2-40.5c15.2-46.6,30.3-93.3,45.5-139.9c17-52.2,33.9-104.5,50.9-156.7
				c11-33.8,22-67.6,33-101.5c0.8-2.6,1.6-5.3,2.5-7.8c0.5-1.3,0.6-2.7,1.8-4.2c1.4-1.8,4-2.9,5.6-5c2-2.8,3.2-6.2,3.8-9.6
				c1-5.4,0-10.3-0.2-15.7c0-0.8-0.3,1.3,0.2-0.2c0.3-1.2,0.7-2.4,1.1-3.6c3.3-10.8,6.7-21.7,10-32.5c3.8-12.5,7.7-25,11.5-37.5
				c1.1-3.5,2.2-6.9,3.2-10.4c0.3-1.2,0.8-1.4,0.2-1c-1.1,0.6,2-0.2,2.5-0.4c1.4-0.7,2.6-1.6,3.7-2.7c8.3-8.2,9.4-23,9.9-34
				c0.1-3,0-6.6,0.5-8.4c0.8-2.8,1.8-5.5,2.7-8.3c1-3.1,1.9-2.8,3.9-5.6c3.9-5.3,4.6-12.3,4.3-18.6c-0.1-1.6,0.3-2.7,1.1-5.3
				c3.5-11.6,7-23.2,10.6-34.7c1.9-6.3,3.9-12.7,5.8-19c1.2-3.9,2-8.4,3.7-12.1c0.4-0.9,0.8-1.3,0.7-1.1c2.5-2.6,5-4.4,6.7-7.7
				c3-6,3.6-13.2,3.2-19.9c-0.1-1.8-0.5-3.6-0.6-5.5c-0.1-1.5-0.2,0.5-0.1,0c0.2-0.8,0.5-1.6,0.7-2.4c1.8-5.9,3.6-11.9,5.3-17.8
				c0.1-0.3,0.2-1.1,0.4-1.4c-1.9,1.8,2.4-0.1,2.6-0.3c2.3-1.5,4-3.8,5.1-6.3c2.5-5.6,2.6-12.1,2.3-18.1c-0.1-2.1-0.3-4.3-0.7-6.5
				c-0.5-2.3-0.3-0.1-0.1-1c0.8-3.4,1.9-6.7,2.9-10c3.7-12.9,7.4-25.7,11.1-38.6c1.5-5.1,2.9-10.1,4.4-15.2c0.3-0.9,0.4-2.8,1-3.6
				c0.2-0.3,0.4-0.4,0.3-0.2c0.4-0.5,3-1.6,4-2.7c4.2-4.6,5-11.6,4.7-17.6c-0.1-2.1-0.6-4.2-0.8-6.3c-0.1-1.2-0.1-0.2-0.1,0
				c0.2-1.2,0.7-2.4,1.1-3.5c0.8-2.6,1.2-5.9,2.5-8.3c1-1.9,3.2-3,4.5-5.6c1.3-2.7,1.7-5.7,1.5-8.6c-0.1-1-0.3-1.9-0.4-2.9
				c-0.1-1.2-0.5,1,0.2-1.1c0.9-2.8,1.7-5.6,2.5-8.4c0.4-1.4,0.7-3,1.3-4.3c0.9-1.8-0.2-0.1,1.2-1.2c5.2-3.9,7.2-10.6,8.2-16.8
				c0.5-3,0.7-6,0.8-9c0-0.9,0-4.6-0.1-4.1c0.5-3,2-6,2.9-8.9c4.1-12.3,8.1-24.6,12.2-36.8c0.6-1.8,1.1-3.8,1.8-5.5
				c0.8-1.9,1.7-2.8,2.9-4.6c2-3.2,3.4-7,3.8-10.8c0.1-1.3-0.1-2.5,0-3.8c0-0.3-0.1-0.5-0.1-0.8c-0.2,1.8,0.5-0.6,0.5-0.7
				c0.5-1.2,0.8-3.3,1.5-4.4c-0.3,0.5,1.9-1.3,2.2-1.6c2.1-2.5,3.2-5.9,3.8-9c0.2-0.9,0.3-1.8,0.4-2.8c0.1-0.8-0.2,1.3,0.1-0.1
				c0.2-1.1,0.5-2.1,0.4-3.3C399,15.4,378.6,8.4,368.3,7.2c-9-1.1-20,1.8-24.8,10.2C342.5,19.1,345.8,21,347,18.9z"/>
		</g>
	</g>
</g>
</svg>
