<?xml version="1.0" encoding="utf-8"?>
<!-- Generator: Adobe Illustrator 21.0.2, SVG Export Plug-In . SVG Version: 6.00 Build 0)  -->
<svg version="1.1" id="Layer_1" xmlns="http://www.w3.org/2000/svg" xmlns:xlink="http://www.w3.org/1999/xlink" x="0px" y="0px"
	 viewBox="0 0 694.1 963.6" style="enable-background:new 0 0 694.1 963.6;" xml:space="preserve">
<style type="text/css">
	.st0{fill:#D88B49;}
	.st1{fill:#B37340;}
	.st2{fill:#985A33;}
	.st3{fill:#764D2B;}
	.st4{fill:#5C3917;}
	.st5{fill:#E1A579;}
	.st6{fill:#1D191B;}
	.st7{fill:#734626;}
	.st8{fill:#C57C2D;}
	.st9{fill:#6F3B1E;}
	.st10{fill:#C37748;}
	.st11{fill:#BA712C;}
</style>
<g>
	<path class="st0" d="M669.2,42.2c-4.6,1.2-11.1,3.2-18.3,6.8c-16.9,8.6-28.1,21.4-32.3,28.4c-12.8,21.1,16,38.6,13,79.2
		c0,0-0.8,10.6-6,26.7C606.5,242.7,495.4,357,487,365.6c0,0-368.5,472.7-424.8,562.7c0,0-14,22.3-25.7,13.5
		c-11.7-8.8,5.4-26.5,5.4-26.5s394-561,413.9-575.6c0,0,80.2-92.2,86-98.9c5.1-4.3,12.5-11.2,19.9-20.8c9.2-11.8,29.6-38,26.8-68.2
		c-0.7-7.3,2.7-5.7-8.8-34.2c-2.7-6.7-6-17.5-5.9-30.9c0.2-21.1,8.7-36.5,13-43.3C587,43.4,622.1-4.8,669.2,42.2z"/>
	<path class="st1" d="M587.7,42.6c0,0,35-48.2,82.2-1.2c-4.6,1.2-11.1,3.2-18.3,6.8c-16.9,8.6-28.1,21.4-32.3,28.4
		c-12.8,21.1,16,38.6,13,79.2c0,0.6-0.4,3.6-1,7.3c-2.8,16-11.8,43.5-45.3,72.6c13-14.9,19.4-29.4,22.6-38.6c0,0,10-28.6,4.4-64.8
		c-1-6.5-1.6-9.7-2.9-14.4c-3.2-11.3-6.7-14.7-5.7-27.6c1.4-16.7,8.4-25.1,3.5-34.7C603.8,47.6,594.5,44.2,587.7,42.6z"/>
	<path class="st2" d="M632.5,149c-3,16.6-9.4,42-24.2,69.6c-10.2,19-20.6,31.9-55.8,71.4c-17.6,19.8-39.6,44.3-65.3,72.1
		C422.5,444,358.8,526.5,295.9,609.7C219.1,711.4,143.6,814.1,69.5,917.8c-3.5,8-7.9,13.3-11,16.4c-3.6,3.6-6.9,6.7-11.9,7.1
		c-3.5,0.3-6.4-0.9-8.2-1.9c21.1-28.4,53.7-72.5,93.3-127.1c77.6-106.8,96.2-135.3,165.9-230.6c49.4-67.4,80.3-109.6,125.9-167.4
		c58.2-73.7,87.3-110.6,103.4-126.3c18.8-18.4,47.5-44.1,76.4-87.9C617.1,179.6,626.5,161.4,632.5,149z"/>
	<path class="st3" d="M623.5,42.3c10.2-10.1,28.9-11.2,44.9-1.2c-4.6,1.2-11.1,3.2-18.3,6.8c-21.9,11.2-27.7,30.1-32.3,28.4
		C613.3,74.6,611.9,53.8,623.5,42.3z"/>
	<g>
		<g>
			<path class="st4" d="M477,354.7c2.6,1.6,5.2,3.3,7.9,4.9c-0.1-0.7-0.2-1.3-0.3-2c-60.1,76.5-120.1,153.1-179.8,230
				c-50.5,65.1-100.4,130.7-149.3,197.1c-34.8,47.3-69.1,95-102.9,143.1c-0.9,1.3,1.2,2.6,2.2,1.3c54.4-77.2,110-153.6,167-229
				c54.6-72.3,110.5-143.7,166.3-215.1c32.7-41.9,65.5-83.7,98.4-125.5c0.5-0.6,0.5-1.5-0.3-2c-2.6-1.6-5.2-3.3-7.9-4.9
				C476.9,351.7,475.7,353.9,477,354.7L477,354.7z"/>
		</g>
	</g>
	<g>
		<g>
			<path class="st5" d="M45.4,927.2C98.1,853.8,151.2,780.7,204.8,708c53.4-72.5,107.3-144.7,161.7-216.5
				c30.8-40.7,61.8-81.3,92.9-121.8c1-1.3-1.2-2.5-2.2-1.3c-55.1,71.8-109.8,143.9-164,216.4c-53.9,72.1-107.4,144.5-160.4,217.3
				c-30,41.2-59.8,82.4-89.5,123.8C42.3,927.2,44.5,928.5,45.4,927.2L45.4,927.2z"/>
		</g>
	</g>
	<g>
		<g>
			<path class="st5" d="M605.8,43.4c-10.3,13.5-16.7,32.8-9.8,49c0.6,1.5,2.8,0.2,2.2-1.3c-6.5-15.4,0.2-33.8,9.8-46.5
				C608.9,43.4,606.7,42.1,605.8,43.4L605.8,43.4z"/>
		</g>
	</g>
	<g>
		<g>
			<path class="st5" d="M603.8,116.3c10.2,17.6,12.3,38.8,5.7,58.1c-0.5,1.5,1.9,2.2,2.4,0.7c6.7-19.9,4.5-41.8-6-60
				C605.1,113.6,603,114.9,603.8,116.3L603.8,116.3z"/>
		</g>
	</g>
	<g>
		<g>
			<path class="st5" d="M472.6,350.8c19.1-21.2,38.1-42.4,57.2-63.7c1.1-1.2-0.7-3-1.8-1.8c-19.1,21.2-38.1,42.4-57.2,63.7
				C469.8,350.3,471.5,352,472.6,350.8L472.6,350.8z"/>
		</g>
	</g>
	<g>
		<g>
			<path class="st6" d="M669.1,39.5c-16.7,4.3-32,13.3-43.8,25.9c-7.1,7.6-12.8,16.1-11.1,27c1.8,11.7,8.7,22.2,12.2,33.4
				c4.1,12.8,4.8,25.9,2.2,39c-5,25.2-17.8,47-32.2,68c-16.1,23.4-34,45.6-52.5,67.1c-14.8,17.2-30,34.1-45.6,50.6
				c-4.4,4.7-9.4,9.1-13.4,14.2c-11,13.8-21.7,27.8-32.5,41.8c-22.3,28.7-44.5,57.4-66.7,86.1c-29,37.5-57.9,75.1-86.8,112.7
				c-30.4,39.7-60.7,79.4-90.9,119.3c-27.3,36.1-54.5,72.3-81.4,108.8c-19,25.8-38.1,51.7-56.1,78.3c-6.3,9.4-14.2,27.1-26.2,29.3
				c-8.9,1.6-11-7.9-8.2-14.3c1.8-4.1,4.6-7.4,7.4-10.8c0.5-0.7,1-1.4,1.5-2.1c9.4-13.3,18.7-26.5,28-39.8
				c18.9-26.8,37.8-53.6,56.7-80.4c24.9-35.3,49.9-70.6,74.9-105.9c27-38.1,54-76.1,81.1-114.1c25.4-35.5,50.8-71,76.3-106.4
				c20-27.6,40-55.3,60.3-82.6c10.6-14.2,20.8-29.3,32.9-42.3c18.7-20,38.5-43.8,57.2-65.3c10.2-11.8,20-24.3,30.9-35.5
				c5.3-5.4,11.1-10.2,16-16c4.4-5.1,8.5-10.5,12.3-16c9.1-13.1,16.6-27.9,18.7-43.8c0.8-6,0.2-11.9,0.3-17.9c0-2.3,0-4.5-0.4-6.8
				c-2.4-13.8-10.2-26.1-12.8-40c-4.3-22.7,1.5-50.1,19.1-65.5c7.7-6.7,17.2-11.7,27.5-12.7c17.2-1.6,32.3,8.3,44.1,19.9
				c1.7,1.7,4.4-1,2.7-2.7c-11.2-11-25.2-20.5-41.4-21.1c-10.9-0.4-21.5,3.5-30.3,9.8c-15.6,11.2-23.6,28.6-26,47.5
				c-1.2,9.6-0.7,19.3,1.4,28.8c1.9,8.2,5.4,15.8,8.2,23.7c2.6,7.1,4,13.2,4.2,20.7c0.2,8.5,0.2,16.3-2,24.6
				c-2.3,8.6-6,16.7-10.5,24.3c-7.9,13.5-18,26.2-29.5,36.7c-11.5,10.6-21.2,23.4-31.5,35.2c-15,17.2-29.9,34.4-44.9,51.6
				c-9.8,11.2-18.2,20.1-27.4,31.9c-16.4,21-32.1,42.6-47.8,64.1c-23.6,32.2-46.9,64.6-70.1,97.1c-27.1,37.7-54,75.6-80.9,113.4
				c-26.8,37.8-53.6,75.6-80.4,113.4c-22.6,31.9-45.1,63.8-67.6,95.8c-14.6,20.7-29.1,41.3-43.7,62c-3,4.3-6,8.6-9.1,12.9
				c-0.2,0.3-0.4,0.7-0.7,1c0,0.1-0.1,0.1-0.1,0.2c0.5-0.6-1.6,1.8-2.1,2.4c-5.8,7.2-12.4,19.7-2.7,26.7
				c14,10.2,26.9-12.4,33.4-22.2c7.1-10.7,14.5-21.3,21.9-31.8c22.3-31.3,45.2-62.2,68.2-93c29.1-38.9,58.4-77.7,87.8-116.3
				c30.7-40.3,61.5-80.5,92.4-120.7c27-35.1,54-70.1,81.1-105.1c18.1-23.3,36.1-46.6,54.2-69.9c4.1-5.2,8.1-10.4,12.2-15.6
				c3.5-4.5,7.7-8.3,11.6-12.4c34.5-36.3,68-74.1,96.9-115.1c14-19.9,27.7-40.9,34.2-64.6c3.4-12.3,5.2-24.4,3.4-37.1
				c-1.9-13.7-8.1-25.5-12.9-38.3c-1.7-4.7-3.3-9.7-2.7-14.8c0.7-5.7,4.2-10.6,7.8-14.9C637,57.3,652.7,47.6,670,43.2
				C672.5,42.6,671.5,38.9,669.1,39.5z"/>
		</g>
	</g>
	<g>
		<g>
			<path class="st7" d="M653.1,39.4c-6.7-0.2-13.8,1.9-19.7,5c-14.1,7.4-21.3,21.8-23.8,37.1c-0.3,1.6,2.2,2.3,2.4,0.7
				c2.4-14.9,9.4-29,23.4-35.9c5.3-2.6,11.7-4.5,17.7-4.3C654.7,41.9,654.7,39.4,653.1,39.4L653.1,39.4z"/>
		</g>
	</g>
	<g>
		<g>
			<path class="st8" d="M589.1,112c10.7,18,13.3,39.6,7.3,59.7c-0.5,1.5,2,2.2,2.4,0.7c6.2-20.7,3.4-43-7.6-61.6
				C590.4,109.4,588.3,110.6,589.1,112L589.1,112z"/>
		</g>
	</g>
	<g>
		<g>
			<path class="st9" d="M587.2,237.6c-28.8,37.7-59.6,73.7-92.3,108c-1.1,1.2,0.7,2.9,1.8,1.8c32.8-34.5,63.7-70.7,92.6-108.5
				C590.4,237.6,588.2,236.3,587.2,237.6L587.2,237.6z"/>
		</g>
	</g>
	<g>
		<g>
			<path class="st10" d="M585.3,203.3c-11.1,19.4-25.8,36.4-43.5,50.1c-1.3,1,0.5,2.7,1.8,1.8c17.8-13.8,32.7-31,43.9-50.6
				C588.2,203.1,586.1,201.9,585.3,203.3L585.3,203.3z"/>
		</g>
	</g>
	<g>
		<g>
			<path class="st11" d="M475.5,326.1c-19.7,24.7-39,49.7-58.1,74.9c-1,1.3,1.2,2.5,2.2,1.3c18.9-25,38.1-49.8,57.7-74.4
				C478.3,326.6,476.5,324.9,475.5,326.1L475.5,326.1z"/>
		</g>
	</g>
</g>
</svg>
