<?xml version="1.0" encoding="utf-8"?>
<!-- Generator: Adobe Illustrator 21.0.2, SVG Export Plug-In . SVG Version: 6.00 Build 0)  -->
<svg version="1.1" id="Layer_1" xmlns="http://www.w3.org/2000/svg" xmlns:xlink="http://www.w3.org/1999/xlink" x="0px" y="0px"
	 viewBox="0 0 1133.9 419.1" style="enable-background:new 0 0 1133.9 419.1;" xml:space="preserve">
<style type="text/css">
	.st0{fill:#83432F;}
	.st1{fill:none;stroke:#BCBBC3;stroke-miterlimit:10;}
	.st2{fill:#4C2A22;}
	.st3{fill:#CA927F;}
	.st4{fill:#1D191B;}
</style>
<g>
	<path class="st0" d="M1100.5,24.9L467.1,219.2c-5.9-3.6-13.1-4.8-20-2.6c-7.4,2.3-13,8-15.5,14.9l-129.8,40.7
		c-4-1.3-8.5-1.5-12.9-0.1c-2.4,0.7-4.5,1.9-6.4,3.3l0,0c-8.1,1.2-16.1,2.3-24.2,3.5l0,0c-9.9-4.9-22.8-5.9-35.6-1.9l0,0
		c-5.8,1.6-15.5,4.4-27.4,8.2c-50.1,15.9-70.3,27.6-111.2,40.9c-12.4,4-31.8,9.9-56.4,15.2l-0.4,7c0,0-7.9,6.7-10.7,15
		c0,0,9.8,5.3,16.3,5.4c0,0-9.4,9.2-10.4,13.7c0,0,8.9,3,15.1,1.3l2.9,4.2c11.7-5.5,30.2-13.3,54-19c28.3-6.8,44.3-5.9,76.2-10.3
		c16.6-2.3,40.6-6.5,69.8-14.7c0.9-0.2,1.8-0.5,2.8-0.8l0,0l0,0l0,0c12.1-3.8,21.7-11.3,27.3-20.3l0,0l23.8-9.2l0,0
		c2.4,0.1,4.8-0.2,7.2-0.9c5.2-1.6,9.4-5.1,11.9-9.5L442.8,263c5.8,3.4,12.8,4.4,19.5,2.3c6.2-2,11.1-6.3,14-11.7L1108.1,49
		c6.6-2.1,10.3-9.1,8.2-15.7C1114.2,26.5,1107.2,22.8,1100.5,24.9z"/>
	<path class="st1" d="M27.1,399.3"/>
	<path class="st2" d="M1114.6,29.6c-0.7-1-1.9-2.5-3.9-3.7c-4.3-2.4-8.7-1.1-9.6-0.9L467.6,219.5c-1.8-1.1-5.1-2.9-9.6-3.5
		c-1.7-0.2-7-0.8-12.8,1.8c-9,3.9-12.4,12.2-13.1,14l-129.8,40.7c-4-1.3-8.5-1.5-12.9-0.1c-2.4,0.7-4.5,1.9-6.4,3.3l0,0
		c-8.1,1.2-16.1,2.3-24.2,3.5l0,0c-9.9-4.9-22.8-5.9-35.6-1.9c-5.8,1.6-15.5,4.4-27.4,8.2c-50.2,15.8-70.4,27.5-111.3,40.8
		c-12.4,4-31.8,9.9-56.4,15.2l-0.4,7c-1.4,1.3-2.8,2.7-4.3,4.4c-1.9,2.2-3.5,4.3-4.8,6.3c6-1.5,14.4-3.6,24.5-6.4
		c16-4.4,27.6-8.2,46.1-14.2c18.9-6.1,28.3-9.2,35.5-12c16.8-6.5,17.1-8.1,36.3-15.8c20.6-8.3,34.7-12.6,39.6-14
		c17.4-5.1,26.1-7.7,34.1-7.5c7.1,0.2,14.1,1.5,29.2,1.5c8.6,0,11.6-0.4,14.9-1.6c5.3-2,7.4-4.5,13.6-5.5c3.9-0.6,4.1,0.2,8.8-0.2
		c5.7-0.5,8.9-2,15.6-4.3c5.3-1.8,10.7-3.2,16-4.9c12.5-4,11.2-3.4,31.8-9.8c34-10.6,42.3-13.7,51.4-16.1c0.3-0.1,3.5-1,7.8-2.4
		c5.5-1.9,8.2-2.8,10.9-4.5c4.1-2.7,3.5-3.9,8.1-6.9c3.8-2.4,7.1-3.6,8.4-4c3.9-1.2,7.1-1.4,9.1-1.4c4.4-0.2,5.5,0.5,10.6,0.2
		c2.7-0.1,4.7-0.4,6.1-0.7c4.6-0.7,10.1-2.2,21.3-6c13.9-4.7,28.2-8.2,42-13c41.4-14.4,83.6-26.7,125.3-40.2
		c45.8-14.9,68.8-22.3,73.1-23.7C781,132.4,800.6,126.7,849,112c34.2-10.4,68.4-21.1,136.9-42.3
		C1016.2,60.5,1060.4,46.7,1114.6,29.6z"/>
	<g>
		<g>
			<path class="st2" d="M44.8,378.6c29.4-12.2,59.9-19.8,91.3-25c25.1-4.1,50.4-6.9,75.5-10.9c17-2.7,32.9-9.3,46.8-19.6
				c1.3-0.9,0-3.1-1.3-2.2c-12.9,9.6-27.6,16-43.3,18.9c-8.3,1.5-16.7,2.3-25,3.5c-31.9,4.3-64.2,8.3-95.4,16.3
				c-16.8,4.3-33.2,9.9-49.2,16.5C42.7,376.8,43.3,379.2,44.8,378.6L44.8,378.6z"/>
		</g>
	</g>
	<g>
		<g>
			<path class="st2" d="M267.5,327.5c-1.4-17.7-5.7-37.5-16.3-52.1c-0.9-1.3-3.1,0-2.2,1.3c10.3,14.2,14.6,33.5,15.9,50.8
				C265.1,329.1,267.6,329.1,267.5,327.5L267.5,327.5z"/>
		</g>
	</g>
	<g>
		<g>
			<path class="st2" d="M285.8,315.9c-9.4-10.2-16.1-25.3-12.3-39.1c0.4-1.6-2-2.2-2.4-0.7c-4,14.7,2.9,30.7,12.9,41.5
				C285.2,318.8,286.9,317.1,285.8,315.9L285.8,315.9z"/>
		</g>
	</g>
	<g>
		<g>
			<path class="st2" d="M312.9,303.3c4.2-10.5-2.2-22.3-9.2-29.7c-1.1-1.2-2.9,0.6-1.8,1.8c6.4,6.8,12.5,17.6,8.6,27.2
				C309.9,304.2,312.3,304.8,312.9,303.3L312.9,303.3z"/>
		</g>
	</g>
	<g>
		<g>
			<path class="st2" d="M441.2,259.7c-6-7.1-11-17.4-8.5-26.8c0.4-1.6-2-2.2-2.4-0.7c-2.8,10.3,2.6,21.4,9.1,29.3
				C440.5,262.7,442.2,261,441.2,259.7L441.2,259.7z"/>
		</g>
	</g>
	<g>
		<g>
			<path class="st3" d="M1104.7,39.4c-89.3,28.7-178.6,57.3-267.9,86c-89.6,28.8-179.2,57.5-268.9,86.3c-25,8-50,16.1-75.1,24.1
				c-6.3,2-12.7,4-19,6.1c-2.9,1-2.9,2-4.8,4.2c-6.5,7.7-17.4,9.2-25.9,3.7c-1.3-0.9-2.6,1.3-1.3,2.2c5.4,3.6,12.4,4.8,18.6,2.8
				c3-1,5.8-2.6,8.1-4.7c1.6-1.4,2.7-3.9,4.3-5.2c1.4-1.1,4.5-1.5,6.2-2.1c2.9-0.9,5.7-1.8,8.6-2.7c5.7-1.8,11.4-3.7,17.1-5.5
				c11.4-3.7,22.8-7.3,34.2-11c45.9-14.7,91.8-29.5,137.8-44.2c91.5-29.4,183-58.8,274.6-88.1c51.3-16.5,102.6-32.9,153.9-49.4
				C1106.9,41.3,1106.2,38.9,1104.7,39.4L1104.7,39.4z"/>
		</g>
	</g>
	<g>
		<g>
			<path class="st3" d="M424.1,256.6c-31.5,9.9-62.9,19.7-94.4,29.6c-5.7,1.8-13.8,2.8-18.4,6.5c-5.4,4.4-10.1,8.2-17.1,10
				c-3.4,0.9-6.9,1.2-10.5,1.1c-2-0.1-4.3-0.9-6.2-0.7c-2.7,0.3-6.1,2.9-8.5,4.1c-3.8,1.9-7.4,4-11.1,6.1
				c-20,11.2-41.1,17-63.6,20.4c-20.6,3.1-41.5,4.6-62.1,8.3c-27.6,4.9-54.6,13-80.6,23.3c-1.5,0.6-0.8,3,0.7,2.4
				c24.7-9.8,50.3-17.5,76.5-22.5c19.4-3.7,39.2-5.2,58.7-8c21.1-3,41.4-7.1,60.8-16.2c6.9-3.3,13.3-7.4,20.1-10.8
				c3.2-1.5,7-4.3,10.5-4.4c2.2-0.1,4.5,0.5,6.8,0.5c6.1-0.1,12.1-1.7,17.5-4.5c4.6-2.4,8.1-7.1,12.9-8.8
				c17.7-6.3,35.9-11.2,53.8-16.8c18.2-5.7,36.5-11.4,54.7-17.1C426.3,258.5,425.6,256.1,424.1,256.6L424.1,256.6z"/>
		</g>
	</g>
	<g>
		<g>
			<path class="st4" d="M1099.6,22.7c-8.8,2.7-17.5,5.4-26.3,8.1c-23,7.1-46.1,14.1-69.1,21.2c-32.7,10-65.4,20.1-98.1,30.1
				c-37.9,11.6-75.8,23.3-113.7,34.9c-38.1,11.7-76.2,23.4-114.4,35.1c-33.9,10.4-67.7,20.8-101.6,31.2
				c-25.1,7.7-50.1,15.4-75.2,23.1c-7.7,2.4-15.3,4.7-23,7.1c-3.2,1-7.9,3.5-11.3,3.5c-0.2,0-0.5,0.3-0.7,0.2c0.1,0-1.5-1.3-2.1-1.6
				c-3.3-1.4-6.9-2.2-10.5-2.2c-6.6,0-13.1,2.7-17.9,7.4c-2,1.9-4.4,4.7-5.3,7.4c-0.5,1.5,0.4,1-0.2,1.4c-2.3,1.9-8,2.5-10.7,3.4
				c-7.2,2.3-14.4,4.5-21.6,6.8c-18.8,5.9-37.5,11.7-56.3,17.6c-12.7,4-25.7,9.2-38.7,12.1c-0.7,0.1-1.4,0.6-2.1,0.7
				c-1,0-2.8-0.9-4-1c-1.7-0.2-3.4-0.1-5.2,0.1c-3.9,0.5-7.4,2.1-10.6,4.3c0.9,0.4,1.8,0.7,2.8,1.1l0,0c-0.3-1.1-1.3-1.5-2.3-1.3
				c-8.1,1.2-16.1,2.3-24.2,3.5c-1,0.1-1.5,1.4-1.3,2.3l0,0c0.9-0.7,1.8-1.4,2.8-2.1c-15-7-29.5-4.3-44.8,0.1
				c-17.1,5-34.1,10.5-50.8,16.6C135.5,304,108.5,316,80.4,325c-17.6,5.6-35.5,10.3-53.6,14.3c-0.8,0.2-1.3,1-1.4,1.8
				c-0.1,1.8-0.5,3.8-0.3,5.5c0.1,1.3-0.6,1.6,0.4,0.3c-0.4,0.5-1,1-1.5,1.4c-4.3,3.7-7.6,9.1-9.6,14.3c-0.3,0.7,0.2,1.8,0.9,2.1
				c5.3,2.8,11.2,5.3,17.3,5.6c-0.4-1.1-0.9-2.1-1.3-3.2c-4.1,4-9.2,8.9-10.8,14.5c-0.3,1,0.4,2,1.3,2.3c5.1,1.7,10.8,2.5,16.1,1.3
				c-0.7-0.3-1.4-0.6-2.1-0.9c1,1.4,2,2.8,2.9,4.2c0.6,0.9,1.6,1.1,2.6,0.7c29.4-13.8,60.6-22,92.9-25.1
				c31.9-3.1,63.3-7.5,94.5-15.5c17.2-4.4,33.2-9.5,43.3-25.2c-1.1-0.1-2.3-0.3-3.4-0.4l0,0c0.3,0.9,1.3,1.7,2.3,1.3
				c7.9-3.1,15.9-6.2,23.8-9.2c0.9-0.4,1.6-1.3,1.3-2.3l0,0c-0.6,0.8-1.2,1.6-1.8,2.4c7,0,13.6-2.5,18.2-7.9c1.7-1.9,1-2.1,3-3.1
				c4.3-2.1,9.7-3,14.3-4.4c18.2-5.6,36.4-11.3,54.5-16.9c16.6-5.2,33.2-10.3,49.8-15.5c2.2-0.7,6.8-3.2,9.1-2.8
				c0.1,0,1.7,1.4,2.3,1.6c1.8,0.7,3.6,1.2,5.5,1.5c3.9,0.6,8,0.4,11.8-0.8c2.8-0.9,5.5-2.3,7.9-4.1c1.4-1.1,2.8-2.3,3.9-3.7
				c0.8-1,1.8-3.2,2.4-3.7c1.3-1.1,5.1-1.9,7.3-2.6c6.8-2.2,13.7-4.4,20.5-6.6c24.5-7.9,49-15.9,73.5-23.8
				c34.4-11.1,68.7-22.3,103.1-33.4c39.2-12.7,78.4-25.4,117.6-38.1c39.1-12.7,78.2-25.3,117.3-38c33.5-10.9,67.1-21.7,100.6-32.6
				c23-7.5,46.1-14.9,69.1-22.4c6-1.9,12-3.9,18-5.8c5.8-1.9,11.4-3.7,13.9-10.2C1121.7,30.1,1110.7,19.9,1099.6,22.7
				c-2.3,0.6-1.3,4.2,1,3.6c13.6-3.4,19.3,15.6,6.2,20.5c-1.1,0.4-2.2,0.7-3.3,1.1c-5.3,1.7-10.7,3.5-16,5.2
				c-21.4,6.9-42.9,13.9-64.3,20.8c-32,10.4-64,20.7-95.9,31.1c-37.5,12.2-75,24.3-112.6,36.5c-38.5,12.5-76.9,24.9-115.4,37.4
				c-34.7,11.2-69.4,22.5-104.1,33.7c-26.2,8.5-52.5,17-78.7,25.5c-13.1,4.2-26.1,8.4-39.2,12.7c-0.6,0.2-1.4,0.3-2,0.6
				c-1.4,0.8-1.8,2.2-2.7,3.5c-3,4.1-7.3,7.1-12.2,8.4c-5.2,1.4-10.7,0.7-15.6-1.5c-1.3-0.6-1.9-1.1-3.2-1c-3,0.2-6.7,2.1-9.5,3
				c-7.1,2.2-14.3,4.4-21.4,6.6c-32,10-64.1,19.9-96.1,29.9c-0.6,0.2-1.5,0.3-2.1,0.7c-2,1.2-2.9,3.7-4.6,5.3
				c-3.8,3.6-8.8,5.1-14,5.1c-1.2,0-2.2,1.2-1.8,2.4l0,0c0.4-0.8,0.9-1.5,1.3-2.3c-7.9,3.1-15.9,6.2-23.8,9.2
				c0.8,0.4,1.5,0.9,2.3,1.3l0,0c-0.5-1.6-2.5-1.8-3.4-0.4c-9.9,15.4-26.3,19.8-43,24c-15.4,3.9-31,7.1-46.7,9.6
				c-31.1,4.9-62.6,5.4-93.1,13.7c-16,4.3-31.5,10.1-46.5,17.2c0.9,0.2,1.7,0.4,2.6,0.7c-1-1.4-2-2.8-2.9-4.2
				c-0.5-0.7-1.2-1-2.1-0.9c-4.7,1-9.6,0.2-14.1-1.3c0.4,0.8,0.9,1.5,1.3,2.3c1.4-5,6.3-9.3,9.9-12.9c1.2-1.2,0.3-3.1-1.3-3.2
				c-5.4-0.3-10.7-2.6-15.4-5.1c0.3,0.7,0.6,1.4,0.9,2.1c1.5-4,3.9-7.6,6.7-10.7c1-1.1,2.7-2.2,3.4-3.4c1.4-2.2,0.9-5.8,1-8.4
				c-0.5,0.6-0.9,1.2-1.4,1.8c29.6-6.5,58.5-15.1,86.8-26c28.7-11.1,57.1-22.7,86.6-31.9c18.1-5.6,37.4-13.3,55.8-4.7
				c1.4,0.7,3.2-0.4,2.8-2.1l0,0c-0.4,0.8-0.9,1.5-1.3,2.3c8.1-1.2,16.1-2.3,24.2-3.5c-0.8-0.4-1.5-0.9-2.3-1.3l0,0
				c0.3,1.1,1.7,1.8,2.8,1.1c4.4-3,9.2-4.5,14.6-3.8c1.6,0.2,3,0.8,4.5,0.7c1-0.1,2.1-0.7,3.1-1c5.3-1.7,10.6-3.3,15.9-5
				c17.7-5.5,35.4-11.1,53.1-16.6c16-5,32-10,48-15c2.9-0.9,6.9-1.4,9.5-3c0.5-0.3,0.8-0.5,1.3-0.9c1.1-1.1,1.6-3.6,2.5-4.9
				c1.2-1.8,2.7-3.5,4.3-4.9c3.7-3.1,8.4-4.9,13.2-5.2c2.4-0.1,4.9,0.2,7.2,0.8c2.1,0.6,4.2,2.4,6.2,2.8c2.2,0.4,5.3-1.3,7.3-1.9
				c6.2-1.9,12.5-3.8,18.7-5.7c22.5-6.9,44.9-13.8,67.4-20.7c32.3-9.9,64.5-19.8,96.8-29.7c37.4-11.5,74.9-23,112.3-34.5
				c38-11.7,76.1-23.3,114.1-35c34.1-10.5,68.2-20.9,102.2-31.4c25.5-7.8,50.9-15.6,76.4-23.4c12.5-3.8,25.1-7.5,37.6-11.5
				c0.6-0.2,1.1-0.3,1.7-0.5C1102.9,25.6,1101.9,22,1099.6,22.7z"/>
		</g>
	</g>
</g>
</svg>
