<?xml version="1.0" encoding="utf-8"?>
<!-- Generator: Adobe Illustrator 21.0.2, SVG Export Plug-In . SVG Version: 6.00 Build 0)  -->
<svg version="1.1" id="Layer_1" xmlns="http://www.w3.org/2000/svg" xmlns:xlink="http://www.w3.org/1999/xlink" x="0px" y="0px"
	 viewBox="0 0 758.5 985.2" style="enable-background:new 0 0 758.5 985.2;" xml:space="preserve">
<style type="text/css">
	.st0{fill:#A8673C;}
	.st1{fill:#895231;}
	.st2{fill:#5C3528;}
	.st3{fill:#DFB590;}
	.st4{fill:#F7E7CF;}
	.st5{fill:#70412A;}
	.st6{fill:#1D191B;}
</style>
<g>
	<g>
		<path class="st0" d="M63.3,953.3c0,0-18.2,2-27.6-6.7c-9.3-8.7-9.7-24.5-9.7-24.5c-0.8-6.5-1.2-14.9,0.2-24.6
			c2.2-15.4,7.8-27.2,12-34.4c3.1-4.2,7.4-9.1,13.5-13.8c12.9-9.8,26.2-12.6,33.4-13.6l30.7-23c0,0,5.1-1.9,5.4-7.8l132.5-176.1
			l11.4-17l257.5-338.2c20.5-25.6,41-51.2,61.5-76.7L717.5,29.8c0,0,13.3-15.8,21.6-8.6c8.3,7.2-4.4,21.6-4.4,21.6L602,215.5
			l-61.4,82.6l-244.2,335l-12.5,17.5c0,0-22.8,25.5-26.8,30.8c-4,5.3-18.5,30.1-18.5,30.1s-10.4,9.4-11.9,10.7s-26.9,34.1-32.1,54.6
			l-26.4,22.8l-6.6,25.3l-10.2,10.5l-16.9,35.2c0.6,4.9,3.6,31.3-14.9,54.8C98.6,951.9,67.5,953.2,63.3,953.3z"/>
	</g>
	<path class="st1" d="M739.1,21.4c0.6,2.2,1.7,7,0.1,12.7c-1.1,4.2-3.2,7.2-4.5,8.9c-44.2,57.5-88.5,115-132.7,172.5l-61.4,82.6
		l-244.2,335l-12.5,17.5c0,0-22.8,25.5-26.8,30.8c-4,5.3-18.5,30.1-18.5,30.1s-10.4,9.4-11.9,10.7s-26.9,34.1-32.1,54.6l-26.4,22.8
		l-6.6,25.3l-10.2,10.5l-16.9,35.2c0.6,4.9,3.6,31.3-14.9,54.8c-20.8,26.5-51.9,27.8-56.1,27.9c-5.1,0.5-17.2,1-27.6-6.7
		c-6.9-5.1-12.4-13.4-10.5-16c1.7-2.3,7.9,2.3,19.3,1c2.3-0.3,7.7-0.9,13.3-4c9.3-5.1,9.5-11.3,15.6-12c4.4-0.5,5.3,2.6,12.8,4
		c2.2,0.4,7.9,1.5,13.5-0.2c7.6-2.4,11.6-8.8,16-15.9c3.6-5.7,7.9-12.7,8.2-21.8c0.1-2.9-0.2-6.3,1.2-11.2c1.3-4.4,3.2-7.3,4.1-8.7
		c10.5-16,15.7-24.1,16.5-26.2c4.4-13-4.6-16.7,0.4-30.7c1-2.7,4.3-11.1,12.5-16.8c6.1-4.3,8.8-2.9,16.8-6.7
		c9.9-4.8,15.8-11.9,19.2-15.9c7.7-9.3,5-11.2,14.4-25.9c8-12.5,10.5-12,14.9-21.6c3.5-7.9,3-10.8,7.1-18.9
		c3.8-7.4,8-12.2,11.2-15.9c10.8-12.3,16.3-18.5,30-33.1c11.8-12.5,14.9-20,29.7-43.6c12.3-19.7,24.6-37,49.3-71.7
		c15.5-21.7,28.9-39.5,55.8-75.1c20.8-27.5,23.8-31,39.6-52.2c14.7-19.9,16.9-23.2,37.6-51.4c15.9-21.6,28.7-38.7,36-48.4
		c16.4-21.8,20.3-26.7,39.3-51.8c24-31.7,43.1-57.2,55.2-73.4c36.9-49.4,36.5-49.7,49.6-66.2c15.3-19.3,22-26.7,41.2-51
		C719.9,46.9,731.5,31.5,739.1,21.4z"/>
	<g>
		<g>
			<path class="st1" d="M25.2,913.6c18.4-3.3,38.6-10.5,47.2-28.5c4.4-9.2,6.1-19.6,7-29.7c0.5-5.6,0-11.2,0.5-16.7
				c0.1-1.6-2.4-1.6-2.5,0c-0.3,4.6,0.1,9.2-0.2,13.8c-0.7,10.2-2.2,20.7-6.3,30.1c-8.1,18.2-28,25.2-46.3,28.5
				C23,911.4,23.7,913.9,25.2,913.6L25.2,913.6z"/>
		</g>
	</g>
	<g>
		<g>
			<path class="st1" d="M26.6,894.5c8,1.6,16.4,0.7,23.3-3.8c5.8-3.7,9.7-9.3,13.5-14.9c6.9-10.4,14-26.9-1.5-33.1
				c-1.5-0.6-2.1,1.8-0.7,2.4c14.5,5.8,5,22.1-1,30.9c-7.9,11.5-18.2,19.2-33,16.1C25.7,891.8,25,894.2,26.6,894.5L26.6,894.5z"/>
		</g>
	</g>
	<g>
		<g>
			<path class="st1" d="M25.3,928.6c17.7-2.2,35.8-8.3,48.8-20.9c12.8-12.5,18.2-31.1,20.6-48.4c1.3-9.9,2.2-20,3.2-29.9
				c0.2-1.6-2.3-1.6-2.5,0c-1.8,18.9-2.8,38.4-9.9,56.3C75.5,911,51,923,25.4,926.2C23.7,926.3,23.7,928.8,25.3,928.6L25.3,928.6z"
				/>
		</g>
	</g>
	<g>
		<g>
			<path class="st1" d="M30.4,940.8c21.7-1.7,41.9-11.7,55.8-28.5c16.3-19.8,21.2-46.1,20.5-71.1c-0.1-4.5-0.4-9-0.9-13.5
				c-0.1-1.3-0.3-2.6-0.5-3.9c0-0.3-0.2-2-0.2-1.3c0-1.6-2.5-1.6-2.5,0c-0.1,1.8,0.5,3.7,0.7,5.5c0.5,4.8,0.8,9.5,0.9,14.3
				c0.3,15.1-1.5,30.6-6.6,44.9C87.1,916.1,61,936,30.4,938.3C28.8,938.4,28.8,940.9,30.4,940.8L30.4,940.8z"/>
		</g>
	</g>
	<g>
		<g>
			<path class="st2" d="M251.4,631.3c11.7,3.1,23.7,11.2,28,22.8c0.6,1.5,3,0.8,2.4-0.7c-4.7-12.5-17.1-21.2-29.8-24.6
				C250.5,628.5,249.8,630.9,251.4,631.3L251.4,631.3z"/>
		</g>
	</g>
	<g>
		<g>
			<path class="st2" d="M263.3,615.3c11.7,3.1,23.7,11.2,28,22.8c0.6,1.5,3,0.8,2.4-0.7c-4.7-12.5-17.1-21.2-29.8-24.6
				C262.4,612.5,261.7,614.9,263.3,615.3L263.3,615.3z"/>
		</g>
	</g>
	<g>
		<g>
			<path class="st3" d="M205.8,719.7c2.3-3.2,4.6-6.4,7-9.5c1.1-1.4-0.1-0.4,1.6-1.3c2.1-1.1,4.2-2.5,6.1-4
				c6.9-5.3,12.3-13.2,18-19.8c3.2-3.7,6.4-7.4,9.7-11.1c1.3-1.5,3.1-3.1,4.1-4.9c1.5-2.7,2.2-6,3.3-8.9c1.6-4.4,3.3-8.8,4.9-13.3
				c0.7-2,2.2-3.8,3.9-6c3.6-4.7,7.2-9.4,10.8-14.2c13.5-17.7,27-35.3,40.4-53c20-26.2,39.9-52.3,59.9-78.5
				c23.9-31.3,47.7-62.6,71.6-93.9c25.4-33.3,50.8-66.7,76.3-100c24.7-32.3,49.3-64.7,74-97c21.4-28,42.8-56.1,64.1-84.1
				c15.6-20.5,31.2-40.9,46.8-61.4c7.5-9.8,15.4-19.4,22.5-29.5c0.3-0.4,0.7-0.9,1-1.3c1-1.3-1.2-2.5-2.2-1.3
				c-5.2,6.8-10.4,13.6-15.6,20.4c-13.9,18.2-27.7,36.4-41.6,54.5c-20.1,26.4-40.3,52.8-60.4,79.2c-24.1,31.6-48.2,63.2-72.3,94.8
				c-25.4,33.4-50.9,66.7-76.3,100.1c-24.5,32.1-48.9,64.2-73.4,96.3c-21.2,27.7-42.3,55.5-63.5,83.2
				c-15.3,20.1-30.6,40.2-45.9,60.2c-7,9.1-14.8,18-21.1,27.6c-4.9,7.4-5.4,17.5-9.7,25.3c0.6-1.2-0.7,0.7-1,0.9
				c-1.2,1.3-2.3,2.7-3.5,4c-3.3,3.8-6.6,7.6-9.9,11.4c-6,6.9-11.6,15.1-19.3,20.1c-2.1,1.4-4,2-5.6,4c-2.4,3.1-4.7,6.3-7,9.5
				C202.6,719.7,204.8,721,205.8,719.7L205.8,719.7z"/>
		</g>
	</g>
	<ellipse transform="matrix(0.5968 -0.8024 0.8024 0.5968 -667.6426 415.2836)" class="st3" cx="79.4" cy="872" rx="9.7" ry="9.7"/>
	<ellipse transform="matrix(0.5968 -0.8024 0.8024 0.5968 -667.6426 415.2836)" class="st4" cx="79.4" cy="872" rx="6.6" ry="6.6"/>
	<g>
		<g>
			<path class="st4" d="M120,840.9c6.9-10.8,14.5-21.1,22.9-30.8c1-1.2-0.7-3-1.8-1.8c-8.5,9.9-16.3,20.3-23.3,31.3
				C117,841,119.2,842.3,120,840.9L120,840.9z"/>
		</g>
	</g>
	<g>
		<g>
			<path class="st4" d="M163,777.7c1.6-3.9,3.1-7.8,4.7-11.7c0.6-1.5-1.8-2.1-2.4-0.7c-1.6,3.9-3.1,7.8-4.7,11.7
				C159.9,778.6,162.4,779.2,163,777.7L163,777.7z"/>
		</g>
	</g>
	<path class="st5" d="M27.3,931.5c0,0,1.1,9.8,9,15.7s25.8,5.6,25.8,5.6s40.1-7.3,52.6-21.6c12.4-14.3,19.6-29.6,19.6-29.6
		s-28.3,32.5-40.9,28.8c-12.5-3.7-35.1-1.1-35.1-1.1l-15.5,9.1C42.8,938.5,33.6,941.3,27.3,931.5z"/>
	<path class="st5" d="M85.1,835.8c0,0,19,4.7,27.6,13c0.5,0.4,1.5,1.5,2.1,1.2c1.9-1-3.8-16.1-9.2-29.6
		C98.7,825.6,91.9,830.7,85.1,835.8z"/>
	<path class="st5" d="M134.3,870.7c0,0,0.3-5.4-9.6-13s14.4,3,14.4,3L134.3,870.7z"/>
	<path class="st5" d="M202.7,696.7c0,0,2.8,10.3-0.3,18c0,0-5.6-9.8-8.4-6.3C191.2,712,202.7,696.7,202.7,696.7z"/>
	<path class="st5" d="M170.7,739.2c0,0,0.7,6.4-1.8,16.5c0,0-8.5-2.8-15.4,6.3C146.6,771.2,170.7,739.2,170.7,739.2z"/>
	<path class="st5" d="M123.8,801.5l13.9-18.7c0,0,1,9.3,8.2,7.8L123.8,801.5z"/>
	<path class="st5" d="M182.3,786c0,0-18,0.9-17.9-7.2c0,0-7.8,23.7,0.8,31.3l2.8-10.4L182.3,786z"/>
	<path class="st5" d="M238.5,711.5c0,0,4.9-25.4,11.1-34.7s24.8-15.7,24.8-15.7L257,681.3L238.5,711.5z"/>
	<path class="st5" d="M216,734.8c0,0,3.4-16.6-2.2-20.3s18.5,2.5,18.5,2.5l-5.8,5.2L216,734.8z"/>
	<g>
		<g>
			<path class="st3" d="M117.2,838.8c11.5-17.6,23.8-35.3,38.3-50.4c1.9-1.9,3.8-3.8,5.8-5.6c1.4-1.2,3.4-2.2,4.4-3.7
				c1.6-2.5,2.3-6.4,3.3-9.2c1.9-5.2,3.7-10.5,5.6-15.7c0.7-1.9,1.4-3.8,2-5.7c0.2-0.6,0.4-1.2,0.6-1.7c0.4-1-0.3,0.2-0.2,0.1
				c3.5-3.1,8.5-5.3,12.5-7.7c3.7-2.3,7.3-4.5,11-6.8c1.4-0.8,0.1-3-1.3-2.2c-7.4,4.6-15.4,8.8-22.5,14c-1.7,1.3-1.9,2.2-2.7,4.2
				c-1.7,4.9-3.5,9.7-5.2,14.6c-1.6,4.6-2.9,9.6-5,14c-1.2,2.6-4.7,4.4-7.3,6.9c-9.5,9.2-17.6,20-25.4,30.6
				c-5.6,7.6-11,15.3-16.1,23.1C114.1,838.9,116.3,840.1,117.2,838.8L117.2,838.8z"/>
		</g>
	</g>
	<g>
		<g>
			<path class="st6" d="M63.3,951.4c-5.3,0.6-11,0.2-16.2-1.1c-9.7-2.5-15.3-9.6-17.8-19.1c-4.5-17-2.4-36.5,3.7-52.7
				c3.4-9.2,7.9-17,15.2-23.7c8.5-7.8,18.9-13.2,30.1-15.9c2.4-0.6,5.6-0.5,7.8-1.6c1.2-0.5,2.3-1.7,3.3-2.5
				c4.5-3.4,9-6.8,13.5-10.1c4.2-3.1,8.3-6.3,12.5-9.4c2.2-1.6,5.9-3.3,7-7.2c1-3.3,2.7-5.3,4.9-8.3c10.8-14.4,21.7-28.8,32.5-43.3
				c28.1-37.4,56.3-74.8,84.4-112.2c10.5-13.9,20-28.4,30.5-42.2c21.8-28.6,43.5-57.2,65.3-85.8c31-40.7,61.9-81.3,92.9-122
				c24.8-32.6,49.6-65.2,74.4-97.8c25.4-33.4,52-65.9,78.2-98.6c23.3-29.1,46.6-58.3,69.8-87.4c14.8-18.5,29.6-37.1,44.4-55.6
				c6.3-7.9,12.4-16.2,19.1-23.8c3.5-4.1,9.2-9.7,14.9-9.7c10.8-0.1,4.5,13.6,1.2,18.1c-1.8,2.4-3.7,4.8-5.5,7.2
				c-10.3,13.6-20.8,27.2-31.3,40.8c-28.7,37.3-57.3,74.5-86,111.8c-18.3,23.8-36.2,48.1-54.1,72.2c-12,16.2-24,32.4-35.8,48.6
				c-24.6,33.8-49.3,67.6-73.9,101.3c-30,41.1-60,82.2-89.9,123.3c-19.7,27-39.3,54-59,80.9c-5.4,7.4-10.8,14.9-16.1,22.4
				c-1.3,1.8-3.3,4-5.5,6.4c-4.6,5.1-9.1,10.3-13.6,15.4c-7.3,8.4-13.2,17-19,26.6c-2.7,4.4-5,9.4-8.1,13.6
				c-0.5,0.7,0.1-0.1-0.2,0.3c-0.7,0.8-1.7,1.5-2.5,2.2c-2.5,2.2-5,4.5-7.4,6.7c-7.6,6.8-13.3,16.7-18.7,25.2
				c-4.5,7-8.7,14.3-12.1,21.9c-1.2,2.7-1.8,6.6-3.2,9c-0.5,0.8-2,1.9-2.8,2.6c-4.3,3.7-8.6,7.4-12.9,11.1
				c-3.2,2.8-7.7,5.6-10.4,8.9c-1.8,2.3-2.1,6.3-2.8,9c-1.4,5.2-3.2,10.5-4.1,15.8c-0.1,0.5-0.2,1.1-0.4,1.5
				c0.7-1.6-0.3,0.1-0.9,0.6c-2.2,2.1-4.3,4.4-6.4,6.6c-2.1,2.2-3.1,3.7-4.4,6.4c-4.8,10-9.6,20-14.4,30c-1.3,2.7-0.8,4.8-0.6,7.8
				c0.4,7.4-0.3,14.8-2.1,22C123.2,928.6,94.8,950.6,63.3,951.4c-2.4,0.1-2.4,3.8,0,3.8c30-0.8,58-19.9,68.6-48.1
				c2.9-7.8,4.5-16.2,4.8-24.6c0.1-2.7,0.1-5.4-0.1-8.2c-0.1-0.9-0.2-1.7-0.2-2.5c-0.1-1.6-0.5,0.5-0.2-0.7
				c1.1-4.1,4.1-8.4,5.9-12.3c2.7-5.6,5.4-11.2,8.1-16.8c1.6-3.3,2.3-5.2,4.3-7.2c2.7-2.8,7.2-5.9,8.9-9.5c1.9-4.1,2.5-9.6,3.7-14
				c0.7-2.7,1.4-5.3,2.1-8c0.2-0.8,0.4-1.7,0.7-2.6c0.3-1.1,0-0.2-0.2,0c2.6-3.2,6.7-5.8,9.8-8.4c4.5-3.9,9.1-7.8,13.6-11.7
				c0.9-0.7,2.2-1.6,2.9-2.5c1.5-2.1,1.9-5.6,2.9-8.1c3.3-8.1,7.8-15.7,12.4-23.1c5.8-9.1,11.7-18.9,19.8-26.2c3.1-2.8,7-5.5,9.5-9
				c3.2-4.5,5.7-9.7,8.6-14.4c6.2-10.2,12.7-19.1,20.6-28.1c5.8-6.7,12.3-13,17.5-20.2c13.2-18.5,26.6-36.8,40-55.1
				c27.5-37.7,54.9-75.3,82.4-113c29.5-40.4,58.9-80.8,88.4-121.3c14.7-20.2,29.3-40.4,44.1-60.5c20.3-27.6,40.7-55.1,61.4-82.5
				c20-26.6,40.6-52.8,60.8-79.1c23.8-31,47.4-62.1,71.4-92.9c1-1.3,0.7-0.8,2-2.6c3.3-4.4,6.9-10.4,6-16.2
				c-0.9-5.9-6.5-9.4-12.2-8.1c-5.6,1.2-10.6,5.5-14.4,9.6c-6.9,7.5-12.9,16-19.2,23.9c-30.4,38-60.7,76.1-91.1,114.1
				c-28.9,36.1-58.6,71.7-86.7,108.3c-16.6,21.6-33.1,43.4-49.6,65.1c-30.3,39.9-60.7,79.7-91,119.6
				c-28.3,37.2-56.6,74.4-84.9,111.5c-13.5,17.7-27.3,35.2-39.7,53.7c-5.6,8.3-11.8,16.2-17.9,24.2c-13.8,18.3-27.5,36.6-41.3,54.9
				c-24.8,33-49.6,66-74.4,98.9c-0.5,0.7-1.2,1.4-1.7,2.2c-0.2,0.4-0.1,0.6-0.3,1c-1.2,2.8-1.3,4-3.7,5.7c-0.6,0.4-1.5,0.9-2.2,1.4
				c-8.9,6.5-17.6,13.2-26.4,19.8c-0.8,0.6-1.9,1.8-2.9,2.1c-3.1,1.2-7.4,1.2-10.7,2.2c-10.1,3-19.5,8.2-27.3,15.2
				c-14.4,12.9-20.9,32.8-22.4,51.7c-1,12.7-0.5,29.3,6.9,40.3c7,10.4,20.9,12.9,32.7,11.7C65.6,954.9,65.7,951.2,63.3,951.4z"/>
		</g>
	</g>
</g>
</svg>
