<?xml version="1.0" encoding="utf-8"?>
<!-- Generator: Adobe Illustrator 21.0.2, SVG Export Plug-In . SVG Version: 6.00 Build 0)  -->
<svg version="1.1" id="Layer_1" xmlns="http://www.w3.org/2000/svg" xmlns:xlink="http://www.w3.org/1999/xlink" x="0px" y="0px"
	 viewBox="0 0 423.1 1133.9" style="enable-background:new 0 0 423.1 1133.9;" xml:space="preserve">
<style type="text/css">
	.st0{fill:#6E5D5D;}
	.st1{fill:#351F18;}
	.st2{fill:none;stroke:#404041;stroke-width:0.5;stroke-miterlimit:10;}
	.st3{fill:#201D1A;}
	.st4{fill:#171514;}
	.st5{fill:#A6A8AB;}
	.st6{fill:#231410;}
	.st7{fill:#918686;}
	.st8{fill:#1D191B;}
</style>
<g>
</g>
<g>
</g>
<g>
</g>
<g>
	<g>
		<g>
			
				<ellipse transform="matrix(0.9451 -0.3268 0.3268 0.9451 -265.9418 146.653)" class="st0" cx="303.5" cy="864.8" rx="3.3" ry="3.3"/>
		</g>
	</g>
	<path class="st1" d="M229.1,694.4l58,179.2l0,0c-5,4.7-7.4,10.6-5.6,15.8c1.8,5.1,7.3,8.3,14.1,9c-4.9,5-7.1,11.4-5.1,17.1
		c2.2,6.4,9.1,10.2,17.2,10.5l4,11.6c-11.8,16.9-14.7,31.5-15.1,40.9c-0.6,3.7-0.3,7.5,0.9,11.1c0,0.1,0,0.2,0,0.2l0,0
		c1.3,3.7,3.4,6.9,6.2,9.6c6.1,7.2,17.4,16.8,37.1,22.8l4.1,11.9l-0.8,0.3c-3.1,1.1-4.8,4.5-3.7,7.6l5,14.3c0,0,0,0.1,0.1,0.1
		c0,0.1,0,0.1,0,0.2c1.2,3.4,4.7,5.5,9.3,6l2.3,6.8l3-1c-4.7,1.6-7.4,6.2-6.1,10.2l2.5,7.2c3.7,1.4,7.4,2.8,11,4.2
		c-1.9,3.8-3.7,7.7-5.6,11.5l3,8.6c1.6,4.7,6.8,7.2,11.5,5.6l15.4-5.3c4.7-1.6,7.2-6.8,5.6-11.5l-3-8.6c-3.8-1.9-7.7-3.7-11.5-5.6
		c2-3.4,4-6.8,6.1-10.2l-2.5-7.2c-1.4-4-6.3-5.9-11-4.2l2.3-0.8l-2.8-8.2c1.9-2.7,2.6-5.5,1.7-8.1c0-0.1-0.1-0.1-0.1-0.2v-0.1
		l-5-14.3c-1.1-3.1-4.5-4.8-7.6-3.7l0.3-0.1l-4.1-11.9c0,0,15.3-33.5,8.8-50.4c0-0.1-0.1-0.2-0.1-0.2c-5.5-17.2-37.9-33.9-37.9-33.9
		l0,0l-3.9-11.2c7-5.3,10.5-13,8.2-19.8c-2-5.7-7.6-9.4-14.6-10.3c5-4.7,7.4-10.6,5.6-15.8c-1.9-5.6-8.2-8.8-15.9-9.1l-55.1-178.7
		L229.1,694.4z"/>
	<path class="st2" d="M423.1,1106.2"/>
	<path class="st3" d="M227.5,687.7c-5.7,2.9-9.1,5.7-8.6,7.4c0.9,2.6,11.8,1.2,24.4-3.1c0.2-0.1,0.4-0.1,0.6-0.2
		c0.1,0,0.2-0.1,0.3-0.1c0.3-0.1,0.7-0.2,1-0.4c11.6-4.2,20-9.4,19.2-11.9c-0.5-1.4-3.8-1.6-8.8-0.9c-0.8-0.1-1.7-0.1-2.7-0.1
		C178.1,457.2,103.4,236,28.7,14.9l-11.2,3.9C87.5,241.7,157.5,464.7,227.5,687.7z"/>
	<g>
		<g>
			<path class="st4" d="M248.3,679.1c-5.3,1.8-10.7,3.7-16,5.5c-1.5,0.5-0.9,2.9,0.7,2.4c5.3-1.8,10.7-3.7,16-5.5
				C250.5,681,249.8,678.6,248.3,679.1L248.3,679.1z"/>
		</g>
	</g>
	<g>
		<g>
			<path class="st5" d="M27.8,34.3c2.1,6.2,4.1,12.3,6.2,18.5c5.6,16.7,11.1,33.4,16.7,50.1c8.2,24.5,16.4,49,24.6,73.6
				c9.9,29.6,19.8,59.3,29.7,88.9c10.7,32.1,21.4,64.1,32.1,96.2c10.6,31.8,21.2,63.6,31.8,95.4c9.6,28.8,19.2,57.6,28.9,86.5
				c7.7,23.1,15.4,46.3,23.2,69.4c4.9,14.8,9.8,29.5,14.8,44.3c1.1,3.4,2.2,6.8,3.4,10.1c1.8,5.2,6,9.2,8.6,14
				c0.9,1.6,2.4,4.9,2.6,7c0-0.5-0.9,2.6-1.2,3.4c-0.4,1.3-0.8,2.6-1.2,3.9c-0.5,1.5,1.9,2.2,2.4,0.7c0.7-2.3,2.4-5.4,2.5-7.8
				c0-2.2-1.4-5.4-2.3-7.4c-2-4.4-6.6-9.1-8.3-12.7c-0.8-1.6-1.2-3.6-1.8-5.3c-4-12-8-24.1-12.1-36.1c-7.1-21.3-14.2-42.6-21.3-63.8
				c-9.2-27.6-18.4-55.2-27.6-82.8c-10.5-31.4-21-62.9-31.5-94.3c-10.8-32.3-21.5-64.5-32.3-96.8c-10.2-30.7-20.5-61.3-30.7-92
				c-8.7-26.2-17.5-52.4-26.2-78.6C52.3,99.8,45.9,80.9,39.6,62c-3-9-5.5-18.4-9.1-27.2c-0.2-0.4-0.3-0.8-0.4-1.2
				C29.7,32.1,27.3,32.8,27.8,34.3L27.8,34.3z"/>
		</g>
	</g>
	<g>
		<g>
			<path class="st0" d="M250,702.8c14.2,44.4,28.3,88.8,42.5,133.3c2,6.3,4,12.7,6.1,19c0.5,1.5,2.9,0.9,2.4-0.7
				c-14.2-44.4-28.3-88.8-42.5-133.3c-2-6.3-4-12.7-6.1-19C251.9,700.6,249.5,701.3,250,702.8L250,702.8z"/>
		</g>
	</g>
	<g>
		<g>
			<path class="st6" d="M305.3,866.3c-4,1.4-8,2.8-12,4.2c-1.5,0.5-0.9,2.9,0.7,2.4c4-1.4,8-2.8,12-4.2
				C307.5,868.2,306.8,865.7,305.3,866.3L305.3,866.3z"/>
		</g>
	</g>
	<g>
		<g>
			<path class="st6" d="M315.9,891.5c-4.6,1.6-9.2,3.2-13.8,4.8c-1.5,0.5-0.9,2.9,0.7,2.4c4.6-1.6,9.2-3.2,13.8-4.8
				C318.1,893.4,317.5,890.9,315.9,891.5L315.9,891.5z"/>
		</g>
	</g>
	<g>
		<g>
			<path class="st6" d="M321.9,920.2c-3.3,1.2-6.7,2.3-10,3.5c-1.5,0.5-0.9,2.9,0.7,2.4c3.3-1.2,6.7-2.3,10-3.5
				C324.1,922.1,323.5,919.7,321.9,920.2L321.9,920.2z"/>
		</g>
	</g>
	<g>
		<g>
			<path class="st6" d="M327.3,935.8c-3.3,1.2-6.7,2.3-10,3.5c-1.5,0.5-0.9,2.9,0.7,2.4c3.3-1.2,6.7-2.3,10-3.5
				C329.5,937.7,328.8,935.2,327.3,935.8L327.3,935.8z"/>
		</g>
	</g>
	<g>
		<g>
			<path class="st6" d="M373.5,1064.9c-3.4,1.2-6.7,2.3-10.1,3.5c-1.5,0.5-0.9,2.9,0.7,2.4c3.4-1.2,6.7-2.3,10.1-3.5
				C375.7,1066.8,375,1064.4,373.5,1064.9L373.5,1064.9z"/>
		</g>
	</g>
	<g>
		<g>
			<path class="st6" d="M370.6,1056.7c-3.3,1.2-6.7,2.3-10,3.5c-1.5,0.5-0.9,2.9,0.7,2.4c3.3-1.2,6.7-2.3,10-3.5
				C372.7,1058.6,372.1,1056.2,370.6,1056.7L370.6,1056.7z"/>
		</g>
	</g>
	<g>
		<g>
			<path class="st6" d="M355.7,1016.6c-3.3,1.2-6.7,2.3-10,3.5c-1.5,0.5-0.9,2.9,0.7,2.4c3.3-1.2,6.7-2.3,10-3.5
				C357.8,1018.5,357.2,1016.1,355.7,1016.6L355.7,1016.6z"/>
		</g>
	</g>
	<g>
		<g>
			<path class="st6" d="M357.9,1002.9c-8.8,3-17.6,6.1-26.4,9.1c-1.5,0.5-0.9,2.9,0.7,2.4c8.8-3,17.6-6.1,26.4-9.1
				C360,1004.8,359.4,1002.4,357.9,1002.9L357.9,1002.9z"/>
		</g>
	</g>
	<g>
		<g>
			<path class="st6" d="M378,1086.1c-1.7,0.6-3.4,1.2-5.1,1.8c-1.5,0.5-0.9,2.9,0.7,2.4c1.7-0.6,3.4-1.2,5.1-1.8
				C380.2,1088,379.6,1085.6,378,1086.1L378,1086.1z"/>
		</g>
	</g>
	
		<ellipse transform="matrix(0.9451 -0.3268 0.3268 0.9451 -297.2087 167.795)" class="st7" cx="350.8" cy="968.4" rx="6.6" ry="6.6"/>
	
		<ellipse transform="matrix(0.9451 -0.3268 0.3268 0.9451 -292.1793 162.9232)" class="st0" cx="338.8" cy="951" rx="4.5" ry="4.5"/>
	
		<ellipse transform="matrix(0.9451 -0.3268 0.3268 0.9451 -265.9418 146.653)" class="st0" cx="303.5" cy="864.8" rx="3.3" ry="3.3"/>
	
		<ellipse transform="matrix(0.9451 -0.3268 0.3268 0.9451 -271.2061 151.1327)" class="st7" cx="314.2" cy="882.7" rx="4.1" ry="4.1"/>
	
		<ellipse transform="matrix(0.9451 -0.3268 0.3268 0.9451 -277.7657 155.0829)" class="st0" cx="322.6" cy="904.2" rx="3.3" ry="3.3"/>
	
		<ellipse transform="matrix(0.9451 -0.3268 0.3268 0.9451 -280.5326 154.6119)" class="st0" cx="319.9" cy="912.2" rx="3.3" ry="3.3"/>
	
		<ellipse transform="matrix(0.9451 -0.3268 0.3268 0.9451 -304.7219 168.0817)" class="st0" cx="347.8" cy="990.9" rx="4.5" ry="4.5"/>
	
		<ellipse transform="matrix(0.9451 -0.3268 0.3268 0.9451 -328.5529 182.6114)" class="st0" cx="379.2" cy="1069.1" rx="3.1" ry="3.1"/>
	
		<ellipse transform="matrix(0.9451 -0.3268 0.3268 0.9451 -336.4971 186.6944)" class="st7" cx="387.4" cy="1094.8" rx="3.3" ry="3.3"/>
	
		<ellipse transform="matrix(0.9451 -0.3268 0.3268 0.9451 -322.6126 179.1242)" class="st0" cx="371.8" cy="1049.7" rx="3.3" ry="3.3"/>
	<g>
		<g>
			<g>
				
					<ellipse transform="matrix(0.9451 -0.3268 0.3268 0.9451 -318.6031 176.2365)" class="st7" cx="365.2" cy="1036.3" rx="4.3" ry="4.3"/>
			</g>
		</g>
	</g>
	
		<ellipse transform="matrix(0.9451 -0.3268 0.3268 0.9451 -315.1333 172.4585)" class="st0" cx="355.7" cy="1024.1" rx="2.4" ry="2.4"/>
	<g>
		<g>
			<path class="st8" d="M227,686c-3.2,1.3-11,4.5-10,9.3c1.1,5.1,9.9,3.7,13.3,3.2c-0.8-0.4-1.5-0.9-2.3-1.3
				c19.2,59.4,38.4,118.8,57.6,178.1c0.3,0.9,1.3,1.7,2.3,1.3l0,0c-0.6-1-1.2-2.1-1.8-3.1c-4.9,4.9-8.8,11.9-5.6,18.9
				c2.8,6,9.2,8.3,15.4,9.1c-0.4-1.1-0.9-2.1-1.3-3.2c-5.2,5.8-8.6,13.8-4.6,21.2c3.6,6.6,11,9.1,18,9.6c-0.6-0.5-1.2-0.9-1.8-1.4
				c1.1,3.2,3.6,7.4,3.7,10.7c0.1,1.9-3.6,5.8-4.8,8c-1.7,3-3.2,6.1-4.5,9.2c-4.5,10.8-7.6,24.3-4.5,35.9c0.3,0.9,1.3,1.6,2.3,1.3
				l0,0c-0.8-0.4-1.5-0.9-2.3-1.3c4.3,11.2,15.6,20,25.7,25.7c3.1,1.8,6.4,3.3,9.7,4.7c2.2,0.9,7.4,1.9,8.2,2.9
				c2,2.7,2.7,7.9,3.8,11.1c0.4-0.8,0.9-1.5,1.3-2.3c-11.2,3-3.4,18.5-0.7,24.9c1.1,2.6,3.1,4.7,5.9,6c2.4,1.1,4.7,1.2,4.7,4.5
				c0,2.1-1.5,4.6-2.1,6.6c-0.4,1.4-1,3-0.9,4.4c0.2,1.9,2,6.8,3.1,8.2c2.4,3,8.9,3.6,12.6,4.7c-0.4-0.9-0.7-1.8-1.1-2.8
				c-2.1,4.3-6.6,9.6-5.3,14.5c0.9,3.1,2,7.3,4,10c5.3,7.2,13.3,3.6,20,1.3c6.7-2.3,15.3-4.3,15.2-13.1c0-3.4-1.8-6.9-2.9-10
				c-1.8-5.1-8.4-6.4-13-8.7c0.2,0.9,0.4,1.7,0.7,2.6c2.1-3,7-7.8,7.1-11.6c0-1.8-1.9-6.6-2.9-8.1c-0.6-1-1.4-1.6-2.4-2.3
				c-3.7-2.7-9.3-3.4-8.9-9.2c0.2-3.5,1.8-5.9,0.8-9.3c-1.9-6.6-4.5-21.7-14.5-19.4c0.8,0.4,1.5,0.9,2.3,1.3
				c-1.3-3.8-2.3-7.9-4-11.5c-0.5-1.1-0.5,1.8-0.2,0.7c0.1-0.5,0.4-1,0.6-1.4c0.8-1.7,1.4-3.5,2.1-5.2c4.4-11.4,8.5-24.2,7.7-36.6
				c-1.3-20.8-23.8-34.9-40.5-43.5c-0.1,1.1-0.3,2.3-0.4,3.4l0,0c0.9-0.3,1.7-1.3,1.3-2.3c-1.1-3.1-2.9-6.5-3.3-9.6
				c0-0.3-0.6-1.1-0.5-1.5c-0.5,1.6,3.5-2,3.8-2.3c1.7-2,3.1-4.3,4.1-6.8c4.2-11.6-4.7-20.5-15.6-22.3c0.3,1,0.6,2.1,0.8,3.1
				c4.9-5,8.8-12.1,5.4-19.1c-3.1-6.4-10.5-8.6-17.1-9c0.6,0.5,1.2,0.9,1.8,1.4c-18.3-59.4-36.6-118.8-54.9-178.1
				c-0.3,0.7-0.6,1.4-0.9,2.1c3-1.4,10.8-5.4,9.3-10.1c-1.6-4.9-10.4-3-13.8-2.2c0.8,0.4,1.5,0.9,2.3,1.3
				c-29.1-86.2-58.2-172.3-87.3-258.5c-29.1-86.2-58.2-172.3-87.3-258.5C63.5,113,47,64.3,30.6,15.7c-0.3-0.9-1.3-1.7-2.3-1.3
				c-3.7,1.3-7.5,2.6-11.2,3.9c-0.9,0.3-1.6,1.3-1.3,2.3C43,107.4,70.3,194.2,97.5,281.1s54.5,173.6,81.7,260.5
				c15.4,49,30.8,98,46.1,147c0.7,2.3,4.3,1.3,3.6-1c-27.2-86.8-54.5-173.6-81.7-260.5S92.7,253.5,65.5,166.6
				c-15.4-49-30.8-98-46.1-147c-0.4,0.8-0.9,1.5-1.3,2.3c3.7-1.3,7.5-2.6,11.2-3.9c-0.8-0.4-1.5-0.9-2.3-1.3
				c29.1,86.2,58.2,172.3,87.3,258.5s58.2,172.3,87.3,258.5c16.4,48.6,32.9,97.3,49.3,145.9c0.3,1,1.3,1.5,2.3,1.3
				c1.1-0.2,8.5-2,8.9,0.2c0.3,1.8-6.1,4.7-7.3,5.3c-0.7,0.3-1.1,1.4-0.9,2.1c18.3,59.4,36.6,118.8,54.9,178.1
				c0.3,0.8,1,1.3,1.8,1.4c5.1,0.3,11.1,1.7,13.6,6.7c2.8,5.5-0.8,11-4.6,14.9c-0.9,0.9-0.6,2.9,0.8,3.1c6,1,12.2,3.9,13.7,10.3
				c1.6,6.7-3.2,12.7-8.1,16.6c-0.5,0.4-0.7,1.3-0.5,1.8c1.3,3.7,2.6,7.5,3.9,11.2c0.4-0.8,0.9-1.5,1.3-2.3l0,0
				c-1.4,0.5-2,2.6-0.4,3.4c17.4,9.1,39.8,23.2,38.6,45.3c-0.6,11.5-4.4,23-8.8,33.6c-0.9,2.1-1.6,3.2-1.2,5.4
				c0.7,3.7,2.6,7.5,3.8,11.1c0.3,1,1.3,1.5,2.3,1.3c5.3-1.2,6.5,6.9,7.7,10.2c1,2.9,2.6,6,2.5,9.1c-0.1,2.1-1.7,3.4-1.7,5.3
				c0,1.4,0.8,2.9,1.2,4.3c0.7,2,0.9,3.6,2.5,4.8c3.9,3,7.9,2.3,9.7,8c1.6,5.1-2.5,8.6-5.3,12.8c-0.5,0.8-0.2,2.1,0.7,2.6
				c2.5,1.2,5.1,2.6,7.7,3.7c2.1,0.9,2.5,0.7,3.5,2.3c1.1,1.8,1.7,4.6,2.3,6.7c2.4,8.6-5.9,10.2-11.9,12.2c-5.8,2-13.4,5.9-17-1.8
				c-0.9-2-1.7-4.4-2.2-6.5c-0.5-2-0.5-1.5,0.5-3.4c1.5-2.8,2.8-5.8,4.2-8.6c0.5-1.1,0.1-2.4-1.1-2.8c-2.7-0.8-7-1.2-9.4-2.8
				c-2.2-1.5-3.5-6-3.2-8.5c0.3-2.8,2.7-5.2,3-7.8c0.3-2.3-1.1-4.7-1.8-6.8c-0.2-0.6-0.7-1.2-1.3-1.3c-7.4-1.2-8.2-5.2-10.2-11.1
				c-1.2-3.5-5.9-12.1,0.3-13.7c0.9-0.2,1.6-1.4,1.3-2.3c-1.2-3.5-2.3-7-3.6-10.4c-1.9-4.8-8.6-5-13-7c-11.5-5.2-26-14.5-30.8-26.9
				c-0.3-0.9-1.3-1.7-2.3-1.3l0,0c0.8,0.4,1.5,0.9,2.3,1.3c-3.5-12.9,1.3-28.3,7.2-39.8c2.1-4,7.6-9.2,6.4-13.7
				c-0.9-3.5-2.4-6.9-3.6-10.3c-0.3-0.8-0.9-1.3-1.8-1.4c-5.2-0.3-10.7-1.9-13.9-6.3c-4.4-6-1.4-13.1,3.1-18.1
				c1.2-1.3,0.3-3-1.3-3.2c-4.8-0.6-10.5-2.5-12.3-7.6c-1.9-5.3,1.6-10.4,5.1-14c1.3-1.3,0-3.8-1.8-3.1l0,0c0.8,0.4,1.5,0.9,2.3,1.3
				c-19.2-59.4-38.4-118.8-57.6-178.1c-0.3-1-1.3-1.5-2.3-1.3s-8.2,1.7-8-1.2c0.1-1.5,5.7-3.7,6.7-4.1
				C230.2,688.8,229.3,685.1,227,686z"/>
		</g>
	</g>
</g>
</svg>
