<?xml version="1.0" encoding="utf-8"?>
<!-- Generator: Adobe Illustrator 21.0.2, SVG Export Plug-In . SVG Version: 6.00 Build 0)  -->
<svg version="1.1" id="Layer_1" xmlns="http://www.w3.org/2000/svg" xmlns:xlink="http://www.w3.org/1999/xlink" x="0px" y="0px"
	 viewBox="0 0 1133.9 103.9" style="enable-background:new 0 0 1133.9 103.9;" xml:space="preserve">
<style type="text/css">
	.st0{fill:#464530;}
	.st1{fill:#2D2C1F;}
	.st2{fill:#DA7847;}
	.st3{fill:#312D27;}
	.st4{fill:#7F3E24;}
	.st5{fill:none;stroke:#FCCCA7;stroke-miterlimit:10;}
	.st6{fill:#9F9590;}
	.st7{fill:#E6ACA5;}
	.st8{fill:#FCCCA7;}
	.st9{fill:#80745C;}
	.st10{fill:#3F3C1F;}
	.st11{fill:#212114;}
	.st12{fill:#1D191B;}
</style>
<g>
	<g>
		<path class="st0" d="M362.5,77.2V39.6h-3.3l-107.5-3.1c0,0-15.8-8.5-38.9-6.2c0,0-16.4-5.3-34.7-0.4c0,0-31.3-7.2-48.3,0.9
			c0,0-27.7-7.1-40.6,5.4c0,0-4,2.5-8.5-0.3c0,0-10.4-14.4-23.1-11.9c0,0-17.1-11.6-37.2-0.3c0,0-9.9,1.7-9.9,9.9
			s10.4,17.5,10.4,17.5s-8,30,39.5,29.2c0,0,9.2,3.2,22,0c0,0,24.8,0.4,35.2-5.6c0,0,21.6,6,37.5-1.2c0,0,16,5.6,32,0.8
			c0,0,8.4-2.4,29.6-0.4c0,0,24.8,4.4,35.2,0.4l106.6,2.8L362.5,77.2"/>
	</g>
	<g>
		<path class="st1" d="M133.1,30.6c12-5.8,31.4-3.8,41.5-2.2c0,0-28.6,38.2-43.7,42.4c0,0,25.5-27.2,20-35.3S133.1,30.6,133.1,30.6z
			"/>
	</g>
	<g>
		<path class="st1" d="M83.5,35.9c0,0-10.4-14.4-23.1-11.9c0,0-17.1-11.6-37.2-0.3c0,0-9.9,1.7-9.9,9.9s10.4,17.5,10.4,17.5
			S56,48.3,83.5,35.9z"/>
	</g>
	<g>
		<path class="st2" d="M400.9,40.1l696.8,13.8c0,0,17.1-1.7,17.1,17.1s-15.5,19.3-15.5,19.3L399.7,78L400.9,40.1z"/>
	</g>
	<polyline class="st3" points="362.5,40.1 400.9,40.1 399.8,78 362.5,78 362.5,40.1 	"/>
	<rect x="399.8" y="39.7" class="st4" width="13.8" height="38.4"/>
	<path class="st5" d="M393.4,62.6"/>
	<g>
		<g>
			<path class="st6" d="M367.9,64.1c8.9,0.3,17.9,0.7,26.8,1c3.2,0.1,3.2-4.9,0-5c-8.9-0.3-17.9-0.7-26.8-1
				C364.7,59,364.7,64,367.9,64.1L367.9,64.1z"/>
		</g>
	</g>
	<g>
		<g>
			<path class="st7" d="M409.5,60.1c-1.8,0-3.7,0-5.5,0c-3.2,0-3.2,5,0,5c1.8,0,3.7,0,5.5,0C412.7,65.1,412.7,60.1,409.5,60.1
				L409.5,60.1z"/>
		</g>
	</g>
	<g>
		<g>
			<path class="st8" d="M418.4,65.1c22.4,0.6,44.8,1.1,67.2,1.7c53.8,1.3,107.6,2.7,161.4,4c64.7,1.6,129.5,3.2,194.2,4.8
				c56.3,1.4,112.5,2.8,168.8,4.2c18.5,0.5,37.1,0.9,55.6,1.4c8.7,0.2,17.6,0.9,26.3,0.7c0.4,0,0.7,0,1.1,0c3.2,0.1,3.2-4.9,0-5
				c-22.4-0.6-44.8-1.1-67.2-1.7c-53.8-1.3-107.6-2.7-161.4-4c-64.7-1.6-129.5-3.2-194.2-4.8c-56.3-1.4-112.5-2.8-168.8-4.2
				c-18.5-0.5-37.1-0.9-55.6-1.4c-8.7-0.2-17.6-0.9-26.3-0.7c-0.4,0-0.7,0-1.1,0C415.2,60,415.2,65,418.4,65.1L418.4,65.1z"/>
		</g>
	</g>
	<g>
		<g>
			<path class="st9" d="M140,72.5c19.2-3.3,35.4-16.1,43.1-34c0.6-1.5-1.5-2.7-2.2-1.3c-7.4,17.3-23,29.7-41.6,32.8
				C137.7,70.4,138.4,72.8,140,72.5L140,72.5z"/>
		</g>
	</g>
	<g>
		<g>
			<path class="st9" d="M113.1,71.1c12.6-8.4,22.6-19.9,29-33.6c0.7-1.4-1.5-2.7-2.2-1.3c-6.2,13.3-15.8,24.6-28.1,32.7
				C110.5,69.8,111.8,72,113.1,71.1L113.1,71.1z"/>
		</g>
	</g>
	<g>
		<g>
			<path class="st9" d="M21.1,40.3C32.9,43,45,42.2,56.3,37.9c1.5-0.6,0.8-3-0.7-2.4c-10.9,4.1-22.5,5-33.9,2.4
				C20.2,37.6,19.5,40,21.1,40.3L21.1,40.3z"/>
		</g>
	</g>
	<polygon class="st1" points="363.4,75.9 363.4,42 327.5,37.9 327.3,75.9 	"/>
	<g>
		<g>
			<path class="st9" d="M184.9,69.5C240.6,48,301.3,45,359.3,58.3c1.6,0.4,2.2-2,0.7-2.4c-58.5-13.4-119.6-10.4-175.8,11.2
				C182.8,67.7,183.4,70.1,184.9,69.5L184.9,69.5z"/>
		</g>
	</g>
	<g>
		<g>
			<path class="st9" d="M359.6,69.5c-39.1-1.4-78.3-2.8-117.4-4.2c-5.5-0.2-11-0.4-16.4-0.6c-1.6-0.1-1.6,2.4,0,2.5
				c39.1,1.4,78.3,2.8,117.4,4.2c5.5,0.2,11,0.4,16.4,0.6C361.2,72.1,361.2,69.6,359.6,69.5L359.6,69.5z"/>
		</g>
	</g>
	<g>
		<path class="st10" d="M131,31.4c0,0-21.2-5.4-35.2,1.6c0,0,17.6,7.5-18.8,36.9C77,69.9,105.7,64.6,131,31.4z"/>
	</g>
	<g>
		<path class="st1" d="M362.1,51.5c-16.4-3-34.9-5.6-55.2-7c-19-1.3-36.5-1.3-52.2-0.7c-38-3.2-74,17.6-74,17.6
			C188.5,46,218.3,31,218.3,31c23.1-2.3,38.9,6.2,38.9,6.2c35.1,0.9,70.3,1.9,105.4,2.8C362.4,43.9,362.2,47.7,362.1,51.5z"/>
	</g>
	<g>
		<g>
			<path class="st1" d="M340.9,62.6c-32.1-1.4-64.3-3.2-96.4-3.8c-2.4,0-2.4,3.7,0,3.8c32.2,0.6,64.3,2.4,96.4,3.8
				C343.3,66.5,343.3,62.7,340.9,62.6L340.9,62.6z"/>
		</g>
	</g>
	<g>
		<g>
			<path class="st9" d="M37.1,67.4c21.3,6.7,41.3-5.6,54-22.1c1-1.3-0.8-3-1.8-1.8C77.1,59.3,58.2,71.4,37.7,65
				C36.2,64.5,35.6,66.9,37.1,67.4L37.1,67.4z"/>
		</g>
	</g>
	<path class="st1" d="M23.6,51.2"/>
	<path class="st1" d="M23,51.2"/>
	<g>
		<g>
			<path class="st11" d="M28.6,51.5c11.6-1,23.8-2.8,34.7-7.1c2.2-0.9,1.3-4.5-1-3.6c-10.6,4.2-22.4,5.9-33.7,7
				C26.2,48,26.2,51.7,28.6,51.5L28.6,51.5z"/>
		</g>
	</g>
	<g>
		<g>
			<path class="st11" d="M66.3,75.4c11.4-3.9,21.4-10.6,29.4-19.6c1.6-1.8-1.1-4.5-2.7-2.7C85.5,61.7,76,68,65.2,71.8
				C63.1,72.6,64,76.2,66.3,75.4L66.3,75.4z"/>
		</g>
	</g>
	<g>
		<g>
			<path class="st11" d="M124.2,76c13-9,22.7-21.6,28.2-36.5c0.8-2.3-2.8-3.2-3.6-1c-5.1,13.9-14.3,25.8-26.4,34.2
				C120.3,74.1,122.2,77.3,124.2,76L124.2,76z"/>
		</g>
	</g>
	<g>
		<g>
			<path class="st11" d="M177.8,74.5c1.1-13.1,9.9-24.1,22.3-28.1c2.3-0.7,1.3-4.4-1-3.6C185,47.4,175.2,59.7,174,74.5
				C173.9,76.9,177.6,76.9,177.8,74.5L177.8,74.5z"/>
		</g>
	</g>
	<g>
		<g>
			<path class="st12" d="M21.8,50.7c-4,15.3,8.7,26.7,22.4,29.8c7.1,1.6,14.3,1,21.3,2.4c7.3,1.5,13.9-0.1,21-0.6
				c6.2-0.4,12.3-0.4,18.5-1.3c3.6-0.5,7.1-1.1,10.5-2.2c2.4-0.8,3.9-1.9,5.2-1.9c2.4,0,5.2,1.1,7.6,1.4c4.3,0.6,8.7,0.9,13.1,0.7
				c4.3-0.2,8.7-0.8,12.8-2.1c1.4-0.4,2.4-1.3,3.7-1.3c1.2,0,2.8,0.8,4,1c9.1,2,18.2,1.9,27.2-0.2c3.7-0.9,7.3-1.2,11.1-1.3
				c13.9-0.4,27.4,2.8,41.3,2.8c4.7,0,9-1.2,13.5-1.7c2.3-0.2,4.9,0.1,7.3,0.2c37.4,1,74.8,2.3,112.2,2.7
				c16.3,0.2,32.6,0.4,48.9,0.7c32.3,0.6,64.6,1.1,97,1.7c46.6,0.8,93.1,1.6,139.7,2.4c51.7,0.9,103.5,1.8,155.2,2.7
				c47.7,0.8,95.5,1.7,143.2,2.5c34.6,0.6,69.1,1.2,103.7,1.8c9.5,0.2,19,0.3,28.4,0.5c3.6,0.1,7.5,0.6,11.1-0.2
				c12-2.7,16.8-15.8,14.1-27c-2.2-8.9-9.8-12.7-18.4-12.8c-3.6,0-7.2-0.1-10.8-0.2c-26-0.5-51.9-1-77.9-1.5
				c-43.1-0.9-86.2-1.7-129.3-2.6c-51.3-1-102.5-2-153.8-3c-49.8-1-99.7-2-149.5-3c-39.3-0.8-78.7-1.6-118-2.3
				c-19.7-0.4-39.3-0.8-59-1.2c-26.2-0.5-52.4-0.5-78.6-1.2c-21.2-0.6-42.4-1.2-63.5-1.8c-0.8,0-1.6,0-2.4-0.1
				c-0.7-0.1,1.2,0.6-0.4-0.2c-5.3-2.6-11.2-4.1-17-5.1c-4-0.7-8.1-1.1-12.2-1.2c-3.8-0.1-7.6,0.6-11.3-0.1
				c-8.3-1.7-16.4-2.5-24.9-1.5c-3,0.4-6,1.5-8.9,1.4c-2.2-0.1-4.5-0.9-6.6-1.2c-7.4-1.1-14.9-1.8-22.4-1.5
				c-3.5,0.1-6.9,0.5-10.3,1.1c-2.3,0.4-6.9,2.6-8.1,2.7c-1.3,0.1-3.3-0.7-4.6-0.9c-2.9-0.5-5.7-0.8-8.6-1c-7-0.4-14.4,0.1-21,2.8
				c-3,1.2-5.3,3.7-8.1,5c-4.1,1.8-5.4-0.2-7.5-2.6c-4.2-4.6-9.7-8.7-15.9-10c-1.9-0.4-5,0.1-6.1-0.1c-1.8-0.4-3.7-2-5.5-2.6
				c-6.9-2.6-14.6-3.3-21.8-1.8c-4.2,0.9-7.7,2.8-11.6,4.3c-2.1,0.8-4,1.4-5.9,2.7C5.4,32.5,15.2,46,22.2,52.4
				c1.8,1.6,4.4-1,2.7-2.7c-4.4-4-10.7-10.8-9.7-17.2c0.6-3.9,3.8-5.5,7.1-6.8c3.5-1.3,6.8-3.1,10.4-4.1c8-2.1,16.9-1.2,24.3,2.6
				c1,0.5,2,1.3,3,1.5c2.1,0.4,4.3-0.4,6.5,0.1s4.2,1.4,6.1,2.6c2.8,1.7,5.3,3.9,7.5,6.3c1.4,1.5,2,2.7,4,3.5
				c6.8,2.8,10.3-2.9,16-5.1c7.1-2.8,15.2-2.9,22.7-2.1c3.1,0.3,7.1,1.9,10.2,1.5c1.6-0.2,3.3-1.4,4.8-1.8c2.1-0.6,4.3-1,6.5-1.4
				c4.4-0.6,8.8-0.7,13.2-0.6c6.7,0.2,13.4,1,20,2.3c6.4,1.2,12.6-1.4,19.2-1.5c4.5,0,9.1,0.4,13.5,1.2c1.6,0.3,3.4,1,5,1.2
				c5,0.4,10.2-0.5,15.3,0c4.7,0.4,9.3,1.3,13.8,2.6c3.4,1,6.7,3,10.1,3.7c4.8,1,10.5,0.3,15.4,0.4c37.6,1.1,75.3,2.7,112.9,2.7
				c14.6,0,29.1,0.3,43.7,0.6c31.7,0.6,63.3,1.3,95,1.9c45.5,0.9,91,1.8,136.5,2.7c50.6,1,101.2,2,151.8,3
				c46.9,0.9,93.8,1.9,140.7,2.8c34.9,0.7,69.8,1.4,104.8,2.1c14.1,0.3,28.3,0.7,42.4,0.8c10.8,0.1,16.4,7.4,15.2,18.4
				c-0.8,7.5-6,13.8-13.7,14.3c-4.3,0.3-8.8-0.2-13.1-0.2c-26.2-0.5-52.5-0.9-78.7-1.4c-42.4-0.7-84.9-1.5-127.3-2.2
				c-49.8-0.9-99.7-1.7-149.5-2.6c-49.1-0.9-98.1-1.7-147.2-2.6c-39.4-0.7-78.8-1.4-118.2-2.1c-21.4-0.4-42.9-0.8-64.3-1.1
				c-21-0.4-41.9-0.5-62.9-1.1c-23.3-0.6-46.6-1.2-69.9-1.8c-4.9-0.1-10.1-0.8-14.9,0c-12.9,2.4-25-0.2-37.8-1.1
				c-7.3-0.5-14.7-0.8-21.9,0.1c-5.8,0.7-11.2,2.5-17.2,2.6c-4.4,0-8.8-0.4-13.1-1.4c-1.6-0.4-3.6-1.3-5.2-1.3
				c-1.7,0-3.7,1.3-5.3,1.8c-2.8,0.8-5.7,1.3-8.6,1.5c-4.5,0.4-9.1,0.2-13.7-0.3c-2.9-0.3-5.7-1.2-8.5-1.5c-2.1-0.2-2.8,0.2-5,1.1
				c-6.9,2.8-14.9,3.5-22.3,3.9c-5.4,0.3-10.3,0.7-15.7,1.4c-7.1,0.8-14-0.9-21-1.2C46.7,78,31.9,75.6,26.7,64.2
				c-1.7-3.8-2.4-8.5-1.3-12.6C26,49.3,22.4,48.3,21.8,50.7z"/>
		</g>
	</g>
</g>
</svg>
