<?xml version="1.0" encoding="utf-8"?>
<!-- Generator: Adobe Illustrator 21.0.2, SVG Export Plug-In . SVG Version: 6.00 Build 0)  -->
<svg version="1.1" id="Layer_1" xmlns="http://www.w3.org/2000/svg" xmlns:xlink="http://www.w3.org/1999/xlink" x="0px" y="0px"
	 viewBox="0 0 411.7 1133.9" style="enable-background:new 0 0 411.7 1133.9;" xml:space="preserve">
<style type="text/css">
	.st0{fill:#55505D;}
	.st1{fill:#27262D;}
	.st2{fill:#727373;}
	.st3{fill:#706E7C;}
	.st4{fill:#AAAAB2;}
	.st5{fill:#585858;}
	.st6{fill:#53514C;}
	.st7{fill:#63625A;}
	.st8{fill:#5A5854;}
	.st9{fill:#9E9E9E;}
	.st10{fill:#26251D;}
	.st11{fill:#636060;}
	.st12{fill:#7C7A77;}
	.st13{fill:#1D191B;}
</style>
<g>
	<g>
		<path class="st0" d="M392.6,1096.5c0,0-41.5-136.9-44.3-161.7c-0.6-5.3-4-17.6-8.6-34.6c-9.5-35.4-19.1-63.2-25.6-80.7
			c-7.7-22.9-15.3-46.1-22.7-69.5c-2-6.3-4-12.7-6-19c-0.6-3.7-1.6-9.5-3.4-16.3c-4.8-18.6-10.6-27.8-15.5-40.5
			c-6.2-15.9-3.8-18.8-9.5-43.3c-2.9-12.7-7.9-30.8-16.7-52.3c-1.1-5.4-3-13.6-6.1-23.4c-7.4-23.4-12.6-26.5-18.7-46.8
			c-4.2-13.9-2.6-15-8.4-36.5c-2.9-10.6-5.7-19.2-7.7-24.9c0,0-12.6-50.6-17.8-57.5s-32.2-93.1-31.5-101.3
			c-22.5-102.6-33.7-141.1-39.7-156.9c-1.6-4.1-7.3-18.4-10.3-38.5c-1.8-12.3-2-22.4-1.9-27.9c0-5.3-0.7-10.7-2.5-16.1
			C88,25.1,65,11.3,44.3,17.9S13,49.2,20.7,73c2.1,6.6,5.4,12.4,9.5,17.2c6.1,8.7,18.4,29,22.5,56.1c0,0,19.4,61.8,35.5,85.2
			c0,0,8.1,16.2,16.5,42.1s25.2,76.5,32.2,101.6c7,25.2,18.5,62.6,29.6,88.2s13.2,39.2,13.2,39.2s13.9,57.2,22.9,74.4
			c9,17.1,22.9,65.8,22.9,65.8c8.9,24.2,17.9,48.3,26.8,72.5c12.1,36.9,24.2,73.7,36.3,110.6c7.3,21.5,14.5,43.6,21.4,66.3
			c2.4,7.9,4.7,15.7,7,23.5c7.5,19.7,13,36.3,16.7,48.3c5,16.1,9.2,31.3,14.2,49.7c4.1,15,2.8,12.8,5.5,20.5
			c6.9,19.5,21.9,67.7,21.9,67.7c3.7,11.5,10.6,19.6,15.4,18.1C395.4,1118.6,396.3,1108.1,392.6,1096.5z"/>
	</g>
	<path class="st1" d="M137.3,236.9c1.9,8.8,3.1,13.3,5.4,23.8c1.9,8.4,3.9,17.4,6,26.9c-0.6,8.2,26.3,94.4,31.5,101.3
		c5.2,6.9,17.8,57.5,17.8,57.5c2,5.7,4.8,14.3,7.7,24.9c5.9,21.5,4.2,22.6,8.4,36.5c6.1,20.3,11.3,23.4,18.7,46.8
		c3.1,9.8,5,18,6.1,23.4c8.9,21.6,13.8,39.7,16.7,52.3c5.6,24.4,3.3,27.3,9.5,43.3c4.9,12.7,10.6,21.8,15.5,40.5
		c1.8,6.9,2.8,12.6,3.4,16.3c2,6.3,4,12.7,6,19c7.5,23.4,15,46.6,22.7,69.5c6.4,17.5,16.1,45.3,25.6,80.7c4.6,17,8,29.3,8.6,34.6
		c2.9,24.8,44.3,161.7,44.3,161.7c1.1,2.2,3.6,8.1,2.2,15.6c-0.8,4.7-2.9,8.2-4.2,10.1c-2.6-4.1-5.3-9.1-7.5-15
		c-5.4-14.2-5.9-27-5.4-35.4c-1.2-10.1-3.5-17.9-5.5-23.2c-3-8.3-6.1-13.3-9.8-24.7c-1.6-5-2.7-9.2-3.3-12c-0.8-6.3-2.1-13.3-4-20.7
		c-3.5-13.2-8.1-24.3-12.6-33.2c-4.4-8.3-9.1-19.1-12.5-32.2c-5-19.2-5.3-36-4.5-47.9c-0.3-4-0.9-8.5-2-13.3
		c-2.6-11.3-6.9-20.3-10.8-26.8c-3.9-5.6-7.9-11.7-11.8-18.2c-6.4-10.6-11.7-20.9-16-30.4c-0.9-2.1-1.8-4.8-2.3-8
		c-1.3-8.6,1.2-15.6,2.8-19c0.5-1.5,1-3.7,0.9-6.4c-0.1-5.1-2.3-8.8-3.4-10.5c-2.6-1.6-5.4-3.8-8.3-6.7
		c-6.7-6.8-10.1-14.1-11.7-18.9c-1.5-3.4-3.1-7.8-4.1-13.1c-1.4-7.2-1.3-13.4-0.9-17.9c-0.2-3.3-0.6-7.3-1.7-11.7
		c-1.6-6.7-4.2-12-6.4-15.8c-2.8-4.4-5.6-9.3-8.3-14.7c-4.2-8.5-7.3-16.6-9.6-23.8c-1.3-4.5-2.7-10.7-3.4-18.3
		c-1.1-12.5,0.8-18-0.9-29c-0.7-4.7-2.2-10.9-5.4-18c-2.4-4.6-4.9-10.4-6.9-17.5c-2-6.9-2.9-13.2-3.3-18.3
		c-0.9-5.9-2.2-12.5-4.3-19.7c-2.2-7.7-4.8-14.4-7.4-20.2c0,0-18.8-30.1-20.6-44.5c-0.7-4.8-1.8-10.4-3.8-16.6
		c-2.6-8.1-6-14.7-9-19.7c-2.9-4.8-2.7-4.2-8.6-13.8c-4.5-7.5-6.9-11.4-8.8-15.7c-3.5-7.8-5.3-11.7-5.2-16.5c0.2-5.9,2.1-8,1.7-13.4
		c-0.2-2.4-1.2-5.9-5-9.9c-1.3-2.8-3-6.6-4.8-11.2c-2.6-6.9-5-13.3-6.1-20.9c-1.6-11.1,1.7-10.8,0-21.3c-1.3-8-3.4-9.8-5.2-19.6
		c-1.1-6.1-1.3-11.2-1.4-14.5c-4-11.7-2.5-22.8,3.9-27.9c1.3-1,3.3-2.2,6.2-2.7C133.4,218.6,135.1,226.9,137.3,236.9z"/>
	<path class="st2" d="M138.6,238c-15-65.2-23.4-93.1-28.3-105.9c-1.6-4.1-7.3-18.4-10.3-38.5c-1.8-12.3-2-22.4-1.9-27.9
		c0-5.3-0.7-10.7-2.5-16.1c-7.7-23.7-30.7-37.5-51.4-30.9C23.5,25.4,12.9,50,20.6,73.8c2.1,6.6,5.4,12.4,9.5,17.2
		c6.1,8.7,18.4,29,22.5,56.1c0,0,19.4,61.8,35.5,85.2c0,0,3.5,7.1,8.3,19.3c0,0,7.9-18.1,14.6-25.9C111,225.7,120.2,222.2,138.6,238
		z"/>
	<g>
		<g>
			<path class="st3" d="M117.2,228.8c2.7,8,5.1,16.3,5.2,24.7c0.1,5.1-0.9,10.2-1.2,15.3c-0.8,14.3,2,28.5,8,41.5
				c1.6,3.5,3.7,6.7,5.1,10.3c2.1,5.1,2.1,10,1,15.3c-1.2,6.1-2,12.5-1.1,18.7c1,6.7,4.3,12.8,8.5,18c1.8,2.2,3.8,4.3,6,6.2
				c2.7,2.2,5.6,3.7,7.4,7c2.8,5.2,4.1,11.2,6.7,16.5c2.8,5.7,7.7,9.9,9.9,16c1.7,4.8,1.9,10.1,3,15c1.5,6.9,3.6,13.5,6,20
				c4.9,12.8-6.5,23.3-5.8,36.2c0.4,7.9,3.2,15.8,7.6,22.4c3.7,5.7,8.6,9.5,14,13.5c8,5.9,16.1,13.2,19.4,22.8
				c3,8.4,3.5,18.1,3.2,26.9c-0.2,7.5-0.9,15-2.3,22.4c-0.7,3.8-0.8,7.6-0.7,11.4c0.6,13.1,5.1,25.9,15.9,33.9
				c11.7,8.7,18,22.4,19.9,36.5c1,8,1.8,16.1,2.4,24.2c0.3,4,0.6,7.9,1.7,11.8c3.3,11.5,10.4,22.4,16.2,32.8
				c2.8,4.9,4.5,10.4,4.6,16c0.1,6.8,0,13,2.2,19.7c4.5,13.7,13.8,26.1,21.2,38.4c7.2,11.9,15.2,24.3,19.1,37.8
				c3.9,13.2,0.1,26,1.6,39.4c0.9,7.4,2.7,14.6,4.5,21.8c2.2,8.4,4.2,16.8,7,25c4.6,13.5,13.7,24.7,18.3,38.2
				c3,8.7,4.3,17.8,4.6,26.9c0.1,1.6,2.6,1.6,2.5,0c-0.6-15.3-4.1-30.3-12.1-43.5c-8.6-14.2-13-28.9-17.2-44.9
				c-3.9-14.8-6.7-28.8-4.8-44.1c1.7-13.1-3.7-26-9.6-37.2c-7.1-13.4-15.2-26.2-23-39.3c-3.5-5.9-7.2-12-9.5-18.5
				c-2.5-7-2-13.6-2.4-20.8c-0.5-10.8-7-19.4-11.7-28.7c-3.1-6.1-6.8-12.3-8.9-18.9c-1.3-4.2-1.6-8.5-1.9-12.8
				c-0.9-12.6-0.9-27.1-6-38.9c-3-6.9-7.3-13.3-12.5-18.7c-4.8-5-10.2-7.8-13.8-14.1c-6-10.7-6.8-23.3-4.7-35.1
				c2.6-14.8,3.5-32.1-1-46.7c-2.5-8.2-7.8-14.4-14.1-20c-5.7-5.1-12.7-9-17.6-15c-6-7.4-9.9-17.2-9.7-26.8
				c0.1-7.8,4.8-13.4,6.5-20.7c1.1-4.5,1-9.3-0.7-13.6c-2.5-6.7-4.7-13.3-6.2-20.3c-1-4.8-1.3-10-2.8-14.6c-2-6-6.3-10-9.4-15.3
				c-3.1-5.3-4.4-11.3-6.9-16.8c-2.6-5.8-8.2-8.1-12.3-12.6c-5.5-5.9-9.6-13.2-10.2-21.4c-0.5-7,1.4-13.3,2.1-20.1
				c0.8-8-3-14.3-6.4-21.1c-2.7-5.4-4.6-11.2-6.1-17c-2.4-9.2-2.9-18.3-2.2-27.7c0.4-5,1.3-9.9,0.9-15c-0.5-7.8-2.6-15.4-5.1-22.8
				C119.1,226.6,116.7,227.2,117.2,228.8L117.2,228.8z"/>
		</g>
	</g>
	<g>
		<g>
			<path class="st4" d="M117.5,237.6c1.8,6.2,2.7,12.7,2.3,19.2c-0.4,6-1.5,11.7-1.3,17.7c0.4,11.8,3.2,23.6,7.7,34.5
				c0.6,1.5,3,0.8,2.4-0.7c-4.8-11.8-7.8-24.6-7.6-37.3c0.1-5.5,1.3-10.9,1.4-16.3c0.1-6-0.8-12-2.5-17.7
				C119.4,235.4,117,236.1,117.5,237.6L117.5,237.6z"/>
		</g>
	</g>
	<g>
		<g>
			<path class="st4" d="M136.8,337.5c-1.1,9.6-0.2,20.6,4.1,29.4c2.2,4.4,5.4,7.4,9.7,9.7c6.1,3.3,9.2,8.6,10.6,15.2
				c0.3,1.6,2.7,0.9,2.4-0.7c-0.9-4.2-2.4-8.1-5.1-11.5c-3.4-4.2-8.7-5.4-12.3-9.3c-7.4-7.9-8.2-22.8-7-32.9
				C139.5,335.9,137,335.9,136.8,337.5L136.8,337.5z"/>
		</g>
	</g>
	<g>
		<g>
			<path class="st4" d="M176.6,446c4.7,8.4,4.8,17.7,0.8,26.5c-0.7,1.5,1.5,2.7,2.2,1.3c4.4-9.6,4.4-19.8-0.8-29
				C177.9,443.3,175.8,444.6,176.6,446L176.6,446z"/>
		</g>
	</g>
	<g>
		<g>
			<path class="st4" d="M183,505.6c6.4,13.6,20.5,19.3,30,30.2c1.1,1.2,2.8-0.6,1.8-1.8c-9.4-10.7-23.5-16.5-29.7-29.7
				C184.4,502.9,182.3,504.2,183,505.6L183,505.6z"/>
		</g>
	</g>
	<g>
		<g>
			<path class="st4" d="M218,557.2c3.6,13.2-0.8,27-1.4,40.4c-0.1,1.6,2.4,1.6,2.5,0c0.6-13.7,5-27.5,1.3-41.1
				C220,554.9,217.6,555.6,218,557.2L218,557.2z"/>
		</g>
	</g>
	<g>
		<g>
			<path class="st4" d="M230.4,643.3c8,4.3,13.9,11.4,16.4,20.2c0.5,1.5,2.9,0.9,2.4-0.7c-2.7-9.3-9-17.1-17.6-21.6
				C230.2,640.4,229,642.5,230.4,643.3L230.4,643.3z"/>
		</g>
	</g>
	<path class="st5" d="M112.7,144.7c5.1,16.4,12.6,44.2,23.6,92.3c-2.3-2.5-6.5-6.4-12.9-9c-4.1-1.7-7.7-2.3-10.5-2.6
		c-8.9-24.9-17.8-49.8-26.7-74.7C95.1,148.7,103.9,146.7,112.7,144.7z"/>
	<g>
		<path class="st6" d="M53.1,142.8c1,3.9,1.8,7.9,2.4,12.1c0,0,4.7,14.8,11.3,32.7c0,0,10.1-31.9,17.3-33.1c0,0,4.5-4,37.2,10.8
			c-3.5-12.2-6.1-20.2-8.2-25.5c-0.6-1.5-1.8-4.5-3.2-8.7"/>
	</g>
	<path class="st7" d="M118.6,156.9c-3.5-12.2-6.1-20.2-8.2-25.5c-1.6-4.1-7.3-18.4-10.3-38.5c-1.8-12.3-2-22.4-1.9-27.9
		c0-5.3-0.7-10.7-2.5-16.1c-7.6-23.6-30.6-37.5-51.3-30.8S13.1,49.5,20.7,73.2c2.1,6.6,5.4,12.4,9.5,17.2c6.1,8.7,18.4,29,22.5,56.1
		c0,0,4.7,14.8,11.3,32.7c0,0,10.1-31.9,17.3-33.1C81.4,146.1,85.8,142.1,118.6,156.9z"/>
	<path class="st8" d="M66.1,83.6c-5.4,1.6-5.8,3.8-15.8,7.6c-8,3-12,4.4-15.9,3.5c-9.5-2.3-14.2-17.4-15.2-26.4
		C17.4,53.4,21.9,26,44.6,18.6C66.7,11.5,88.3,29.2,94.3,44c1.5,3.7,2.2,9.5,3.8,21.1c1.8,13.4,2.6,20.1-0.2,22.4
		C92.1,92.4,81.1,79.2,66.1,83.6z"/>
	<g>
		<g>
			<path class="st9" d="M85.5,156.8c7.8,21.6,15.5,43.3,23.3,64.9c0.5,1.5,3,0.9,2.4-0.7c-7.8-21.6-15.5-43.3-23.3-64.9
				C87.4,154.7,85,155.3,85.5,156.8L85.5,156.8z"/>
		</g>
	</g>
	<g>
		<g>
			<path class="st5" d="M91,193.2c3.7,10.2,7.4,20.5,11,30.7c0.5,1.5,3,0.9,2.4-0.7c-3.7-10.2-7.4-20.5-11-30.7
				C92.9,191,90.5,191.7,91,193.2L91,193.2z"/>
		</g>
	</g>
	<ellipse transform="matrix(0.9517 -0.3071 0.3071 0.9517 -39.7062 39.7263)" class="st10" cx="106.4" cy="146" rx="2.2" ry="2.2"/>
	<ellipse transform="matrix(0.9517 -0.3071 0.3071 0.9517 -4.828 21.7416)" class="st10" cx="66.7" cy="26.2" rx="2.2" ry="2.2"/>
	<ellipse transform="matrix(0.9517 -0.3071 0.3071 0.9517 -10.5142 26.6415)" class="st10" cx="79.4" cy="46.7" rx="2.2" ry="2.2"/>
	
		<ellipse transform="matrix(0.9517 -0.3071 0.3071 0.9517 -10.5502 14.5926)" class="st11" cx="41.1" cy="40.8" rx="15.5" ry="11.4"/>
	
		<ellipse transform="matrix(0.9517 -0.3071 0.3071 0.9517 -17.0329 16.8082)" class="st12" cx="44.9" cy="62.5" rx="14.1" ry="14.1"/>
	<path class="st12" d="M83.5,130.2c-1-3.2-3.2-5.7-6-7.2c0.4-2,0.3-4.1-0.4-6.2c-0.6-1.9-1.7-3.6-3-4.9c4.5-3,6.7-8.8,4.9-14.2
		c-2.1-6.6-9.1-10.2-15.7-8c-6.6,2.1-10.2,9.1-8,15.7c0.6,1.9,1.7,3.6,3,4.9c-4.5,3-6.7,8.8-4.9,14.2c1,3.2,3.2,5.7,6,7.2
		c-0.4,2-0.3,4.1,0.4,6.2c2.1,6.6,9.1,10.2,15.7,8C82,143.7,85.6,136.7,83.5,130.2z"/>
	
		<ellipse transform="matrix(0.9517 -0.3071 0.3071 0.9517 -39.1653 34.1287)" class="st10" cx="88.9" cy="141.5" rx="2.2" ry="2.2"/>
	<ellipse transform="matrix(0.9517 -0.3071 0.3071 0.9517 -5.3108 19.3086)" class="st10" cx="58.7" cy="26.5" rx="2.2" ry="2.2"/>
	<ellipse transform="matrix(0.9517 -0.3071 0.3071 0.9517 -43.113 27.2296)" class="st10" cx="65" cy="150.6" rx="2.2" ry="2.2"/>
	
		<ellipse transform="matrix(0.9517 -0.3071 0.3071 0.9517 -37.4072 36.5004)" class="st10" cx="97.3" cy="137.1" rx="2.2" ry="2.2"/>
	
		<ellipse transform="matrix(0.9517 -0.3071 0.3071 0.9517 -34.453 37.4875)" class="st10" cx="101.9" cy="128.2" rx="2.2" ry="2.2"/>
	<ellipse transform="matrix(0.9517 -0.3071 0.3071 0.9517 -3.2943 19.8702)" class="st10" cx="61.5" cy="20.4" rx="2.2" ry="2.2"/>
	<ellipse transform="matrix(0.9517 -0.3071 0.3071 0.9517 -36.9064 39.5032)" class="st10" cx="107.1" cy="137" rx="2.2" ry="2.2"/>
	<ellipse transform="matrix(0.9517 -0.3071 0.3071 0.9517 -32.0942 35.8852)" class="st10" cx="98" cy="119.9" rx="2.2" ry="2.2"/>
	
		<ellipse transform="matrix(0.9517 -0.3071 0.3071 0.9517 -33.3138 33.4993)" class="st10" cx="89.8" cy="122.6" rx="2.2" ry="2.2"/>
	<ellipse transform="matrix(0.9517 -0.3071 0.3071 0.9517 -36.4064 32.6972)" class="st10" cx="85.7" cy="132" rx="2.2" ry="2.2"/>
	
		<ellipse transform="matrix(0.9517 -0.3071 0.3071 0.9517 -33.5575 29.9747)" class="st10" cx="78.5" cy="121.6" rx="2.2" ry="2.2"/>
	<ellipse transform="matrix(0.9517 -0.3071 0.3071 0.9517 -38.9102 30.7908)" class="st10" cx="78.4" cy="139" rx="2.2" ry="2.2"/>
	
		<ellipse transform="matrix(0.9517 -0.3071 0.3071 0.9517 -29.8143 34.3662)" class="st10" cx="94.3" cy="111.9" rx="2.2" ry="2.2"/>
	
		<ellipse transform="matrix(0.9517 -0.3071 0.3071 0.9517 -27.2579 34.6211)" class="st10" cx="96.4" cy="103.9" rx="2.2" ry="2.2"/>
	
		<ellipse transform="matrix(0.9517 -0.3071 0.3071 0.9517 -31.8608 23.9843)" class="st10" cx="60.3" cy="113.2" rx="2.2" ry="2.2"/>
	<ellipse transform="matrix(0.9517 -0.3071 0.3071 0.9517 -25.1036 18.1055)" class="st10" cx="45" cy="88.8" rx="2.2" ry="2.2"/>
	<ellipse transform="matrix(0.9517 -0.3071 0.3071 0.9517 -23.2787 33.1096)" class="st10" cx="93.6" cy="90.5" rx="2.2" ry="2.2"/>
	<ellipse transform="matrix(0.9517 -0.3071 0.3071 0.9517 -25.3576 28.6877)" class="st10" cx="78.5" cy="94.9" rx="2.2" ry="2.2"/>
	<ellipse transform="matrix(0.9517 -0.3071 0.3071 0.9517 -22.147 25.5061)" class="st10" cx="70" cy="83.1" rx="2.2" ry="2.2"/>
	<ellipse transform="matrix(0.9517 -0.3071 0.3071 0.9517 -21.5187 28.4661)" class="st10" cx="79.7" cy="82.6" rx="2.2" ry="2.2"/>
	<ellipse transform="matrix(0.9517 -0.3071 0.3071 0.9517 -19.572 32.278)" class="st10" cx="92.8" cy="78.3" rx="2.2" ry="2.2"/>
	<ellipse transform="matrix(0.9517 -0.3071 0.3071 0.9517 -18.4092 29.8636)" class="st10" cx="85.7" cy="73.4" rx="2.2" ry="2.2"/>
	<ellipse transform="matrix(0.9517 -0.3071 0.3071 0.9517 -15.4019 30.9578)" class="st10" cx="90.7" cy="64.4" rx="2.2" ry="2.2"/>
	<ellipse transform="matrix(0.9517 -0.3071 0.3071 0.9517 -13.787 27.8149)" class="st10" cx="81.5" cy="57.7" rx="2.2" ry="2.2"/>
	<ellipse transform="matrix(0.9517 -0.3071 0.3071 0.9517 -16.0724 26.3109)" class="st10" cx="75.6" cy="64.2" rx="2.2" ry="2.2"/>
	<ellipse transform="matrix(0.9517 -0.3071 0.3071 0.9517 -15.4809 24.4621)" class="st10" cx="70" cy="61.4" rx="2.2" ry="2.2"/>
	<ellipse transform="matrix(0.9517 -0.3071 0.3071 0.9517 -19.6505 22.5639)" class="st10" cx="61.9" cy="73.7" rx="2.2" ry="2.2"/>
	<ellipse transform="matrix(0.9517 -0.3071 0.3071 0.9517 -12.3631 26.05)" class="st10" cx="76.6" cy="52.3" rx="2.2" ry="2.2"/>
	<ellipse transform="matrix(0.9517 -0.3071 0.3071 0.9517 -12.5157 30.283)" class="st10" cx="90" cy="54.9" rx="2.2" ry="2.2"/>
	<ellipse transform="matrix(0.9517 -0.3071 0.3071 0.9517 -8.4323 25.6193)" class="st10" cx="77.2" cy="39.6" rx="2.2" ry="2.2"/>
	<ellipse transform="matrix(0.9517 -0.3071 0.3071 0.9517 -9.4658 28.7105)" class="st10" cx="86.5" cy="44.4" rx="2.2" ry="2.2"/>
	<ellipse transform="matrix(0.9517 -0.3071 0.3071 0.9517 -15.3723 21.1671)" class="st10" cx="59.6" cy="59.4" rx="2.2" ry="2.2"/>
	<ellipse transform="matrix(0.9517 -0.3071 0.3071 0.9517 -19.2257 20.0717)" class="st10" cx="54.2" cy="71.1" rx="2.2" ry="2.2"/>
	<ellipse transform="matrix(0.9517 -0.3071 0.3071 0.9517 -8.7515 23.4329)" class="st10" cx="70.1" cy="39.5" rx="2.2" ry="2.2"/>
	<ellipse transform="matrix(0.9517 -0.3071 0.3071 0.9517 -11.8741 23.5785)" class="st10" cx="69" cy="49.5" rx="2.2" ry="2.2"/>
	<ellipse transform="matrix(0.9517 -0.3071 0.3071 0.9517 -7.0603 26.7499)" class="st10" cx="81.5" cy="35.8" rx="2.2" ry="2.2"/>
	<ellipse transform="matrix(0.9517 -0.3071 0.3071 0.9517 -5.4473 23.6044)" class="st10" cx="72.3" cy="29.1" rx="2.2" ry="2.2"/>
	<ellipse transform="matrix(0.9517 -0.3071 0.3071 0.9517 -7.4368 21.176)" class="st10" cx="63.6" cy="34.2" rx="2.2" ry="2.2"/>
	<ellipse transform="matrix(0.9517 -0.3071 0.3071 0.9517 -10.9499 20.6331)" class="st10" cx="60.1" cy="45.1" rx="2.2" ry="2.2"/>
	<ellipse transform="matrix(0.9517 -0.3071 0.3071 0.9517 -10.3845 18.6517)" class="st10" cx="54.1" cy="42.3" rx="2.2" ry="2.2"/>
	<ellipse transform="matrix(0.9517 -0.3071 0.3071 0.9517 -8.0981 18.3935)" class="st10" cx="54.4" cy="34.9" rx="2.2" ry="2.2"/>
	<ellipse transform="matrix(0.9517 -0.3071 0.3071 0.9517 -5.2204 16.0493)" class="st10" cx="48.4" cy="24.6" rx="2.2" ry="2.2"/>
	<ellipse transform="matrix(0.9517 -0.3071 0.3071 0.9517 -4.2421 16.4636)" class="st10" cx="50.2" cy="21.7" rx="2.2" ry="2.2"/>
	<ellipse transform="matrix(0.9517 -0.3071 0.3071 0.9517 -10.4151 12.2367)" class="st10" cx="33.7" cy="39.2" rx="2.2" ry="2.2"/>
	<ellipse transform="matrix(0.9517 -0.3071 0.3071 0.9517 -15.8382 14.1924)" class="st10" cx="37.2" cy="57.4" rx="2.2" ry="2.2"/>
	<ellipse transform="matrix(0.9517 -0.3071 0.3071 0.9517 -20.2462 13.3422)" class="st10" cx="32.3" cy="71" rx="2.2" ry="2.2"/>
	<ellipse transform="matrix(0.9517 -0.3071 0.3071 0.9517 -25.1487 15.0255)" class="st10" cx="35.2" cy="87.4" rx="2.2" ry="2.2"/>
	<g>
		<g>
			<path class="st13" d="M394.4,1096c-6.3-20.8-12.4-41.6-18.5-62.4c-8.7-30.1-18-60.3-24.4-91c-3.6-17.2-7.6-34.2-12.3-51.2
				c-6.7-24.1-14.5-47.8-22.9-71.3c-10.3-28.8-20.1-58.2-28.5-87.6c-1.7-5.9-2.4-12.2-4-18.2c-1.8-6.9-4.1-13.7-6.8-20.4
				c-3.9-9.4-8.7-18.5-11.5-28.4c-2.2-7.9-2.9-16.1-4.4-24.1c-2.1-11.4-5-22.6-8.4-33.7c-2-6.6-4.3-13.2-6.7-19.7
				c-2.5-6.7-4.4-13-6.2-19.9c-3-12-7-23.8-12.3-35c-4.4-9.4-8.6-18.8-11.3-28.9c-2.1-7.6-3.1-15.4-4.9-23.1
				c-3.8-16-9.3-31.5-13.5-47.3c-2.1-8.1-4.4-16.2-6.8-24.2c-1.9-6.4-3.7-13.5-6.9-19.4c-4.9-9.1-8.1-18.8-11.4-28.6
				c-5.5-16.4-10.7-32.9-15.3-49.5c-3.6-12.9-5.9-25.8-8.8-38.9c-8.8-39.4-17.5-79-28.7-117.9c-2.3-8-4.7-16-7.6-23.7
				c-7.8-20.7-12.3-42.1-12.4-64.4c-0.1-21.8-11.3-43.6-33-50.7C47.1,10,26.8,21.1,19.4,40.2c-3.9,10.1-4.1,21.5-1.1,31.9
				c2.9,10.2,9.7,17.7,15,26.7c6.1,10.1,10.8,21,14.1,32.4c1.9,6.7,2.7,13.5,4.8,20.1c5.1,15.8,10.7,31.4,17.1,46.8
				c3.7,9,7.6,17.9,12.3,26.5c2.5,4.6,5.3,8.8,7.5,13.6c9.1,20.3,15.5,41.7,22.4,62.8c7.2,21.9,14.4,43.8,21,66
				c7,23.6,13.5,47.2,21.8,70.4c7.4,20.9,18,41,23,62.7c2,8.9,4.3,17.7,6.7,26.4c4.4,16.4,8.7,33.4,15.7,48.9
				c7.5,16.5,13.4,33.3,18.8,50.6c5.5,17.5,11.6,34.6,18,51.8c22.4,60.5,42.2,122.2,61.9,183.6c4.8,15,9.5,30.1,14,45.3
				c4.1,13.8,9.5,27.2,14.1,40.9c8.5,25.2,16.2,50.9,22.4,76.8c3.6,15.1,9.5,29.8,14.2,44.7c2.7,8.4,5.3,16.8,8,25.2
				c1.7,5.3,3.1,10.7,5.6,15.7c2.4,4.8,8.3,14.8,15.2,12C400.3,1118.3,396.2,1102.2,394.4,1096c-0.7-2.3-4.3-1.3-3.6,1
				c1,3.5,5.4,18.7-0.2,21.2c-5.1,2.2-10.1-8.4-11.6-11.9c-2.1-4.8-3.4-10-5-15c-5.4-17.3-10.9-34.6-16.7-51.8
				c-6.3-18.5-10.6-37.7-16-56.6c-3.4-11.7-6.9-23.4-10.8-34.9c-4.5-13.6-9.9-26.8-14-40.6c-17.7-59.8-38.2-118.7-57.6-177.9
				c-9.6-29.4-22.2-57.7-31.6-87.1c-4.1-12.6-7.6-25.4-11.9-37.9c-5.1-15-12.4-29.1-17.5-44.1c-5.5-16.1-9.9-32.6-14.1-49.1
				c-2.1-8.3-3.8-16.7-6.5-24.9c-3.8-11.5-8.8-22.5-13.3-33.8c-4.8-12.2-9.1-24.7-13.2-37.2c-6.7-20.9-12.3-42-18.8-63
				c-6.8-22-14.1-44-21.2-65.9c-6-18.2-11.5-37-20.2-54.2c-2.8-5.5-6.3-10.7-9.1-16.2c-4.4-8.9-8.3-18.2-11.9-27.4
				C64.3,175.2,59,161.4,55,147.5c-2.6-8.8-3.7-17.9-6.9-26.6c-3.3-9-7.5-17.7-12.6-25.9c-6.2-10-13.1-18.2-14.9-30.3
				c-1.8-12.3,1.2-25.6,9.6-35C47.4,10.4,76,18.4,88.7,38.4c3.7,5.8,6,12.3,7.1,19c0.9,6,0.5,12.2,0.8,18.3
				c0.6,13.1,2.7,26.1,6.2,38.7c2.7,9.8,6.7,19.1,9.7,28.7c9.4,29.3,16.2,59.4,23.2,89.3c7.9,34,14.1,68,24.3,101.3
				c4.6,15.2,9.4,30.4,15,45.3c3.2,8.6,7.7,16.5,10.6,25.3c4.5,13.8,7.9,28,11.7,42c2.1,7.5,4.8,14.9,7,22.4
				c2.7,9.6,4.8,19.2,6.7,28.9c3.8,19.4,14,35.9,20.3,54.3c2.3,6.7,4.3,13.6,5.9,20.5c1.5,6.4,3.8,12.3,6.1,18.6
				c4.3,11.6,8,23.5,11,35.6c4.4,17.7,5.4,35.9,12.5,52.8c4.7,11.2,9.9,22.1,13.1,33.9c1.6,5.7,2.5,11.4,3.8,17.2
				c1.5,7.1,4.3,14.2,6.5,21.2c16.5,51.8,35.5,102.8,49.6,155.3c3.7,13.8,6.3,27.6,9.4,41.5c3.1,13.8,6.8,27.4,10.6,41
				c8.4,30.5,17.3,60.8,26.3,91.1c1.6,5.5,3.3,11,5,16.6C391.5,1099.3,395.1,1098.4,394.4,1096z"/>
		</g>
	</g>
</g>
</svg>
