<?xml version="1.0" encoding="utf-8"?>
<!-- Generator: Adobe Illustrator 21.0.2, SVG Export Plug-In . SVG Version: 6.00 Build 0)  -->
<svg version="1.1" id="Layer_1" xmlns="http://www.w3.org/2000/svg" xmlns:xlink="http://www.w3.org/1999/xlink" x="0px" y="0px"
	 viewBox="0 0 977.8 759.3" style="enable-background:new 0 0 977.8 759.3;" xml:space="preserve">
<style type="text/css">
	.st0{fill:#403539;}
	.st1{fill:#6C6266;}
	.st2{fill:#231E20;}
	.st3{fill:#1D191B;}
</style>
<g>
	<g>
		<path class="st0" d="M937.3,28.3l-652.7,466c-87.2,66-174.3,132-261.5,198C14.5,699,13,711.5,19.6,720l8.4,10.8
			c6.7,8.6,19.2,10.1,27.7,3.5l257.8-200.6L953.5,48c0,0,6.6-3.1-1.3-13.6C944.4,24,937.3,28.3,937.3,28.3z"/>
	</g>
	<g>
		<g>
			<path class="st1" d="M33.7,715.7c70.6-53,141.3-106,211.9-159c20-15,40-30,60-45c2.5-1.9,0.1-6.3-2.5-4.3
				c-70.6,53-141.3,106-211.9,159c-20,15-40,30-60,45C28.6,713.3,31.1,717.6,33.7,715.7L33.7,715.7z"/>
		</g>
	</g>
	<g>
		<g>
			<path class="st1" d="M913.9,53.2c-75.6,55.3-151.1,110.6-226.7,165.9s-151,110.6-226.6,165.8c-42.5,31.1-84.9,62.2-127.4,93.3
				c-2.6,1.9-0.1,6.2,2.5,4.3c75.5-55.3,151.1-110.6,226.6-165.9S713.4,206.1,789,150.8c42.5-31.1,84.9-62.2,127.4-93.3
				C919,55.6,916.5,51.3,913.9,53.2L913.9,53.2z"/>
		</g>
	</g>
	<g>
		<g>
			<path class="st2" d="M31.9,728.8c8-6,16.1-12,24.1-18c22-16.4,43.9-32.8,65.9-49.2c32.4-24.2,64.8-48.3,97.2-72.5
				c39.5-29.5,79-58.9,118.6-88.4c43.4-32.4,86.8-64.8,130.2-97.1c43.7-32.6,87.4-65.2,131.1-97.7c40.7-30.4,81.5-60.7,122.2-91.1
				c34.4-25.7,68.8-51.3,103.2-77c24.7-18.4,49.5-36.9,74.2-55.3c11.7-8.7,23.4-17.4,35.1-26.2c0.5-0.4,1-0.7,1.5-1.1
				c2.5-1.9,0.1-6.2-2.5-4.3c-8,6-16.1,12-24.1,18c-22,16.4-43.9,32.8-65.9,49.2c-32.4,24.2-64.8,48.3-97.2,72.5
				c-39.5,29.5-79,58.9-118.6,88.4c-43.4,32.4-86.8,64.8-130.2,97.1c-43.7,32.6-87.4,65.2-131.1,97.7
				c-40.7,30.4-81.5,60.7-122.2,91.1c-34.4,25.7-68.8,51.3-103.2,77c-24.7,18.4-49.5,36.9-74.2,55.3c-11.7,8.7-23.4,17.4-35.1,26.2
				c-0.5,0.4-1,0.7-1.5,1.1C26.9,726.4,29.4,730.7,31.9,728.8L31.9,728.8z"/>
		</g>
	</g>
	<g>
		<g>
			<g>
				<path class="st3" d="M44.4,696.9c2.4,3.3,3.6,8.3,0.3,11.5c-3.7,3.6-9.4,1.3-12.1-2.2c-2.6-3.4-3.5-8.9,0.3-11.9
					c3.9-3,8.9-0.6,11.6,2.7c0.5,0.6,1.4-0.3,0.9-0.9c-3.2-3.8-9-6.2-13.4-2.8c-4.2,3.4-3.4,9.7-0.4,13.6c3,3.9,9,6.2,13.3,2.9
					c4.4-3.4,3.5-9.6,0.6-13.6C45,695.6,43.9,696.3,44.4,696.9z"/>
			</g>
		</g>
		<g>
			
				<ellipse transform="matrix(0.7892 -0.6141 0.6141 0.7892 -414.5247 176.4291)" class="st3" cx="49.8" cy="692.1" rx="1.5" ry="1.5"/>
			<g>
				<path class="st3" d="M50.4,691.5c0.3,0.4,0.3,0.9-0.1,1.3c-0.4,0.3-1,0.3-1.3-0.1c-0.3-0.4-0.2-0.9,0.1-1.2
					c0.4-0.3,1-0.2,1.3,0.2c0.5,0.6,1.4-0.3,0.9-0.9c-0.8-0.9-2.1-1-3-0.3c-0.9,0.7-1,2-0.3,2.9s2,1.1,2.9,0.4c0.9-0.7,1.2-2,0.5-3
					C51.1,690.3,50,690.9,50.4,691.5z"/>
			</g>
		</g>
		<g>
			<g>
				<path class="st3" d="M70.6,684.3c-0.6,7.7-9.1,8.2-13.5,3.4c-4.7-5.1-3.5-15.2,5.4-13.8c0.8,0.1,1.1-1.1,0.3-1.2
					c-9.2-1.4-12.4,8.6-7.3,15.1c5.1,6.4,15.6,5.7,16.3-3.5C72,683.5,70.7,683.5,70.6,684.3L70.6,684.3z"/>
			</g>
		</g>
		<g>
			
				<ellipse transform="matrix(0.7892 -0.6141 0.6141 0.7892 -399.3069 186.3813)" class="st3" cx="71.9" cy="674.9" rx="1.5" ry="1.5"/>
			<g>
				<path class="st3" d="M72.6,674.3c0.3,0.4,0.3,0.9-0.1,1.3c-0.4,0.3-1,0.3-1.3-0.1c-0.3-0.4-0.2-0.9,0.1-1.2
					c0.4-0.3,1-0.2,1.3,0.2c0.5,0.6,1.4-0.3,0.9-0.9c-0.8-0.9-2.1-1-3-0.3s-1,2-0.3,2.9s2,1.1,2.9,0.4c0.9-0.7,1.2-2,0.5-3
					C73.2,673,72.1,673.7,72.6,674.3z"/>
			</g>
		</g>
		<g>
			<g>
				<path class="st3" d="M89.1,663.3c2.4,3.3,3.6,8.3,0.3,11.5c-3.7,3.6-9.4,1.3-12.1-2.2c-2.6-3.4-3.5-8.9,0.3-11.9
					c3.9-3,8.9-0.6,11.6,2.7c0.5,0.6,1.4-0.3,0.9-0.9c-3.2-3.8-9-6.2-13.4-2.8c-4.2,3.4-3.4,9.7-0.4,13.6c3,3.9,9,6.2,13.3,2.9
					c4.4-3.4,3.5-9.6,0.6-13.6C89.7,662.1,88.7,662.7,89.1,663.3z"/>
			</g>
		</g>
		<g>
			<g>
				<path class="st3" d="M101,665.6c-3.6-5.1-7.3-10.2-10.9-15.2c-0.5-0.6-1.5,0-1.1,0.6c3.6,5.1,7.3,10.2,10.9,15.2
					C100.4,666.8,101.5,666.2,101,665.6L101,665.6z"/>
			</g>
		</g>
		<g>
			<g>
				<path class="st3" d="M109.5,659.6c-3.6-5.1-7.3-10.2-10.9-15.2c-0.5-0.6-1.5,0-1.1,0.6c3.6,5.1,7.3,10.2,10.9,15.2
					C108.9,660.8,110,660.2,109.5,659.6L109.5,659.6z"/>
			</g>
		</g>
		<g>
			<g>
				<path class="st3" d="M95.8,659.1c2.8-2.2,5.7-4.4,8.5-6.6c0.6-0.5-0.3-1.4-0.9-0.9c-2.8,2.2-5.7,4.4-8.5,6.6
					C94.2,658.7,95.1,659.6,95.8,659.1L95.8,659.1z"/>
			</g>
		</g>
		<g>
			<g>
				<path class="st3" d="M114.3,635.2c-5.2-0.8-9.7,2.2-9.9,7.7c-0.2,5.3,3.9,10.5,9,11.6c4.5,1,9.3-1.8,9.8-6.6
					c0.3-2.7-3.1-5.4-4.7-7.4c-0.5-0.6-1.4,0.3-0.9,0.9c1,1.3,2.1,2.6,3.1,4c0.3,0.4,1.3,1.2,1.4,1.8c0.6,2.4-2.6,5.4-4.6,6.1
					c-11.7,3.7-17.4-18.9-3.6-16.8C114.8,636.5,115.1,635.3,114.3,635.2L114.3,635.2z"/>
			</g>
		</g>
		<g>
			
				<ellipse transform="matrix(0.7892 -0.6141 0.6141 0.7892 -365.4011 210.0895)" class="st3" cx="123.3" cy="637.3" rx="1.5" ry="1.5"/>
			<g>
				<path class="st3" d="M124,636.8c0.3,0.4,0.3,0.9-0.1,1.3c-0.4,0.3-1,0.3-1.3-0.1c-0.3-0.4-0.2-0.9,0.1-1.2
					c0.4-0.3,1-0.2,1.3,0.2c0.5,0.6,1.4-0.3,0.9-0.9c-0.8-0.9-2.1-1-3-0.3s-1,2-0.3,2.9s2,1.1,2.9,0.4c0.9-0.7,1.2-2,0.5-3
					C124.6,635.5,123.5,636.2,124,636.8z"/>
			</g>
		</g>
		<g>
			<g>
				<path class="st3" d="M139.1,625.8c0.8,0,0.8-1.2,0-1.2C138.3,624.5,138.3,625.8,139.1,625.8L139.1,625.8z"/>
			</g>
		</g>
		<g>
			<g>
				<path class="st3" d="M126.2,621.9c-6.5,5.7-1.2,16.6,6.5,18c3.3,0.6,6.7-0.7,8.4-3.7c2.1-3.7,1-8.1-1.4-11.4
					c-0.3-0.4-0.6-0.4-1-0.1c-2.5,1.9-5,3.9-7.5,5.8c-0.3,0.2-0.2,0.6,0,0.9c0.9,1.2,1.9,2.4,2.8,3.6c0.5,0.6,1.4-0.3,0.9-0.9
					c-0.9-1.2-1.9-2.4-2.8-3.6c0,0.3,0,0.6,0,0.9c2.5-1.9,5-3.9,7.5-5.8c-0.3,0-0.7-0.1-1-0.1c1.9,2.7,3,5.9,1.8,9.1
					c-1.2,3.4-4.9,4.8-8.2,3.9c-6.3-1.7-10.7-10.8-5.1-15.7C127.7,622.3,126.8,621.4,126.2,621.9L126.2,621.9z"/>
			</g>
		</g>
		<g>
			<g>
				<path class="st3" d="M149.6,628.7c-3.6-5.1-7.3-10.2-10.9-15.2c-0.5-0.6-1.5,0-1.1,0.6c3.6,5.1,7.3,10.2,10.9,15.2
					C149,630,150.1,629.4,149.6,628.7L149.6,628.7z"/>
			</g>
		</g>
		<g>
			<g>
				<path class="st3" d="M158.1,622.7c-3.6-5.1-7.3-10.2-10.9-15.2c-0.5-0.6-1.5,0-1.1,0.6c3.6,5.1,7.3,10.2,10.9,15.2
					C157.5,624,158.6,623.3,158.1,622.7L158.1,622.7z"/>
			</g>
		</g>
		<g>
			<g>
				<path class="st3" d="M144.3,622.2c2.8-2.2,5.7-4.4,8.5-6.6c0.6-0.5-0.3-1.4-0.9-0.9c-2.8,2.2-5.7,4.4-8.5,6.6
					C142.8,621.8,143.7,622.7,144.3,622.2L144.3,622.2z"/>
			</g>
		</g>
		<g>
			<g>
				<path class="st3" d="M162.9,617.2c-2.3-3-4.6-6-7-8.9c-0.8-1-1.5-2.2-2.4-3.1c-0.9-0.9-0.6,0.1-0.2-0.2c1.9-1.5,3.8-3,5.7-4.5
					c1.2-0.9,3.2-3.3,4.7-3.7c0.1,0-1-0.3-0.5,0.3c0.4,0.4,0.8,1.1,1.2,1.5c0.8,1,1.6,2.1,2.4,3.1c0.8,1.1,3,2.9,3.2,4.1
					c-0.1-0.7-1.2,1.5-1.5,1.9c-1.7,2.2-3.8,4-6.1,5.7c-0.6,0.5,0,1.6,0.6,1.1c3.1-2.3,6.6-5.1,8.1-8.8c0.1-0.2,0-0.4-0.2-0.6
					c-2.4-3.1-4.8-6.2-7.2-9.3c-0.2-0.3-0.6-0.2-0.9,0c-3.7,2.9-7.3,5.7-11,8.6c-0.3,0.2-0.2,0.6,0,0.9c3.3,4.3,6.6,8.5,10,12.8
					C162.5,618.7,163.4,617.8,162.9,617.2L162.9,617.2z"/>
			</g>
		</g>
		<g>
			<g>
				<path class="st3" d="M176.1,583.7c-0.3,5.8-0.5,11.7-0.8,17.5c0,0.3,0.3,0.7,0.6,0.6c3.8-0.3,7.5-0.7,11.3-1
					c0.8-0.1,0.8-1.3,0-1.2c-2.7,0.2-5.3,0.5-8,0.7c-1,0.1-2.1,0.1-3.1,0.3c-0.3,0.1,0.3,1,0.4,0.3c0.1-0.4,0-0.9,0.1-1.3
					c0.2-5.3,0.5-10.6,0.7-15.9C177.4,582.9,176.1,582.9,176.1,583.7L176.1,583.7z"/>
			</g>
		</g>
		<g>
			<g>
				<path class="st3" d="M198.1,568.6c-2.3,1.8-4.5,3.5-6.8,5.3c-0.2,0.1-0.2,0.4-0.2,0.6c0.4,1.7,0.9,3.5,1.3,5.2
					c0.2,0.8,0.8,2.1,0.7,2.9c-0.1,0.9,0.4-0.7-0.2,0.3c-1.8,2.6-6.2,4.9-8.8,6.8c-0.3,0.2-0.2,0.6,0,0.9c0.7,1,1.5,1.9,2.2,2.9
					c0.2,0.3,0.6,0.2,0.9,0c2.6-2.1,5.4-4,7.9-6.2c1.6-1.3,0.6-1.1,2-0.4c1.6,0.8,3.1,1.5,4.7,2.2c0.3,0.1,0.5,0.1,0.8-0.1
					c2.2-1.7,5.6-3.5,7.3-5.7c1.4-1.7,1.2-5,1.6-7.1c0.3-2.1,0.8-3.2,0-4.9c-1.3-2.8-4.2-5.4-6-7.8c-0.5-0.6-1.4,0.3-0.9,0.9
					c1.8,2.3,5.3,5.3,6.2,8c0.3,0.8-0.1-0.8,0,0.2c0.1,0.6-0.2,1.4-0.3,1.9c-0.3,2.1-0.4,4.3-1,6.3c-0.7,2.6-3.4,3.9-5.8,5.8
					c-0.4,0.3-1.2,1.2-1.8,1.4c0.3-0.1,0.2-0.1-0.8-0.5c-1.6-0.7-3.1-1.5-4.7-2.2c-0.3-0.1-0.5-0.1-0.8,0.1
					c-1.8,1.4-3.7,2.9-5.5,4.3c-1,0.8-2.1,1.9-3.2,2.5c-0.8,0.4,0.2,0.7-0.9-0.9c-1.1-1.5-1.3-0.3-0.4-1.1c0.8-0.8,1.9-1.5,2.8-2.2
					c1.9-1.5,3.9-3,5.8-4.5c0.2-0.1,0.2-0.4,0.2-0.6c-0.5-2-2.7-6.6-2.1-8.5c-0.2,0.7,2.3-1.4,2.8-1.8c1.3-1,2.5-2,3.8-2.9
					C199.6,568.9,198.7,568.1,198.1,568.6L198.1,568.6z"/>
			</g>
		</g>
		<g>
			<g>
				<path class="st3" d="M210.8,559.5c3.6,4.6,7.1,9.2,10.7,13.8c0.5,0.6,1.4-0.3,0.9-0.9c-3.6-4.6-7.1-9.2-10.7-13.8
					C211.2,558,210.3,558.9,210.8,559.5L210.8,559.5z"/>
			</g>
		</g>
		<g>
			<g>
				<path class="st3" d="M222.9,549.6c-0.3,4.5-0.7,9.1-1,13.6c0,0.3,0.2,0.5,0.5,0.6c3.1,0.8,6.2,1.5,9.3,2.3
					c0.8,0.2,1.1-1,0.3-1.2c-2.1-0.5-4.1-1-6.2-1.5c-1-0.2-2-0.4-3-0.7c0.5,0.2,0,0.8,0.3-0.5c0.6-2.3,0.4-5,0.5-7.3
					c0.1-1.8,0.3-3.5,0.4-5.3C224.2,548.8,223,548.8,222.9,549.6L222.9,549.6z"/>
			</g>
		</g>
		<g>
			<g>
				<path class="st3" d="M228,546.9c8.3-5.7,18.9,7.9,11.4,14.6c-0.6,0.5,0.3,1.4,0.9,0.9c8.6-7.5-3.4-23.1-12.9-16.5
					C226.7,546.3,227.3,547.4,228,546.9L228,546.9z"/>
			</g>
		</g>
		<g>
			<g>
				<path class="st3" d="M237.7,538.6c4,5.2,8.1,10.4,12.1,15.6c0.5,0.6,1.4-0.3,0.9-0.9c-4-5.2-8.1-10.4-12.1-15.6
					C238.1,537.1,237.2,538,237.7,538.6L237.7,538.6z"/>
			</g>
		</g>
		<g>
			<g>
				<path class="st3" d="M246,532.1c4.2,5.4,8.5,10.9,12.7,16.3c0.5,0.6,1.4-0.3,0.9-0.9c-4.2-5.4-8.5-10.9-12.7-16.3
					C246.4,530.6,245.6,531.5,246,532.1L246,532.1z"/>
			</g>
		</g>
		<g>
			<g>
				<path class="st3" d="M246.5,548.8c2.8-2.2,5.6-4.3,8.3-6.5c0.6-0.5-0.3-1.4-0.9-0.9c-2.8,2.2-5.6,4.3-8.3,6.5
					C245,548.4,245.9,549.3,246.5,548.8L246.5,548.8z"/>
			</g>
		</g>
		<g>
			<g>
				<path class="st3" d="M258.6,526.6c-0.1,1.8-0.2,3.6-0.3,5.3c-0.1,1.3-0.6,3.5-0.2,4.8s2.1,2.7,2.9,3.8c1,1.3,2,2.6,3,3.9
					c0.5,0.6,1.4-0.3,0.9-0.9c-0.9-1.2-1.9-2.4-2.8-3.6c-0.5-0.6-1-1.3-1.5-1.9c-0.3-0.3-1.5-2.2-1.3-1.5c-0.3-1.4,0.2-3.5,0.3-4.9
					c0.1-1.7,0.2-3.3,0.3-5C259.9,525.8,258.6,525.8,258.6,526.6L258.6,526.6z"/>
			</g>
		</g>
		<g>
			<g>
				<path class="st3" d="M273,532.2c-0.5-4.3-1.1-8.5-1.6-12.8c-0.1-0.6-0.6-0.8-1.1-0.4c-1.7,1.3-3.5,2.7-5.2,4
					c-0.6,0.5,0.3,1.4,0.9,0.9c1.7-1.3,3.5-2.7,5.2-4c-0.4-0.1-0.7-0.3-1.1-0.4c0.5,4.3,1.1,8.5,1.6,12.8
					C271.8,532.9,273.1,533,273,532.2L273,532.2z"/>
			</g>
		</g>
	</g>
	<g>
		<g>
			<path class="st3" d="M362.8,456.4c9.9,14.3-17.4,35.9-28.2,22.2c-10.8-13.7,16.9-35.1,28.4-21.9c1.1,1.2,2.8-0.6,1.8-1.8
				c-13.5-15.4-44.8,9-32.2,25.2c12.6,16.2,44-8.2,32.4-25C364,453.9,361.8,455.1,362.8,456.4z"/>
		</g>
	</g>
	<g>
		<g>
			<path class="st3" d="M354.2,503.6c-4.9-14.1,15.2-29.7,27.7-21.9c1.4,0.9,2.6-1.3,1.3-2.2c-14.3-9-37,8.5-31.4,24.7
				C352.4,505.7,354.8,505.1,354.2,503.6L354.2,503.6z"/>
		</g>
	</g>
	<g>
		<g>
			<path class="st3" d="M412.5,424.5c9.9,14.3-17.4,35.9-28.2,22.2c-10.8-13.7,16.9-35.1,28.4-21.9c1.1,1.2,2.8-0.6,1.8-1.8
				c-13.5-15.4-44.8,9-32.2,25.2c12.6,16.2,44-8.2,32.4-25C413.7,422,411.5,423.2,412.5,424.5z"/>
		</g>
	</g>
	<g>
		<g>
			<path class="st3" d="M400.2,467.4c-10-14.5,16.8-35.3,28.4-22.1c1.1,1.2,2.8-0.6,1.8-1.8c-13.4-15.4-43.9,8.3-32.3,25.1
				C399,470,401.1,468.7,400.2,467.4L400.2,467.4z"/>
		</g>
	</g>
	<g>
		<g>
			<path class="st3" d="M382.8,479.8c-12-14.1,17.9-37.2,28.5-21.8c0.9,1.3,3.1,0.1,2.2-1.3c-12.6-18.4-46.8,7.9-32.4,24.8
				C382.1,482.8,383.8,481,382.8,479.8L382.8,479.8z"/>
		</g>
	</g>
	<g>
		<g>
			<path class="st3" d="M442.8,382.2c10,14.5-16.8,35.3-28.4,22.1c-1.1-1.2-2.8,0.6-1.8,1.8c13.4,15.4,43.9-8.3,32.3-25.1
				C444.1,379.6,441.9,380.8,442.8,382.2L442.8,382.2z"/>
		</g>
	</g>
	<g>
		<g>
			<path class="st3" d="M448.2,432.5c-15.5-0.3-13-16.8-4.5-24.3c4.2-3.7,9.8-6.1,15.4-5.6c7.5,0.7,10.9,7.1,9.3,14.1
				c-0.4,1.6,2,2.2,2.4,0.7c1.6-6.7-0.4-13.7-7.3-16.4c-6.9-2.7-14.9,0.1-20.4,4.4c-5.5,4.3-10,11.4-9,18.6c1,7.3,7.2,10.8,14,11
				C449.8,435.1,449.8,432.6,448.2,432.5L448.2,432.5z"/>
		</g>
	</g>
	<g>
		<g>
			<path class="st3" d="M471.8,415.1c-5.7-14.4,15.8-30.9,28.2-21.7c1.3,1,2.5-1.2,1.3-2.2c-14.1-10.5-38.3,8.2-31.9,24.5
				C470,417.2,472.4,416.6,471.8,415.1L471.8,415.1z"/>
		</g>
	</g>
	<g>
		<g>
			<path class="st3" d="M498.7,358c9.9,14.3-17.4,35.9-28.2,22.2s16.9-35.1,28.4-21.9c1.1,1.2,2.8-0.6,1.8-1.8
				c-13.5-15.4-44.8,9-32.2,25.2s44-8.2,32.4-25C500,355.4,497.8,356.7,498.7,358z"/>
		</g>
	</g>
	<g>
		<g>
			<path class="st3" d="M485.9,355.6c5-7.8,21.4-17.6,28.4-6.3c6.4,10.4-6.2,21.9-15.1,24.6c-1.5,0.5-0.9,2.9,0.7,2.4
				c10.7-3.2,24.8-17.6,16-29.2c-8.8-11.5-26-2-32,7.3C482.9,355.6,485.1,356.9,485.9,355.6L485.9,355.6z"/>
		</g>
	</g>
	<g>
		<g>
			<path class="st3" d="M517,342c4.2-8.4,12.5-14.1,21.5-16.1c11.2-2.6,22.3-5.3,33.5-8.2c11.8-3,28.5-8.5,30.8-22.3
				c0.3-1.6-2.1-2.3-2.4-0.7c-2.6,15.6-24,19.3-36.7,22.5c-17.2,4.3-39.9,5.6-48.8,23.5C514.1,342.2,516.3,343.4,517,342L517,342z"
				/>
		</g>
	</g>
	<g>
		<g>
			<path class="st3" d="M531.3,368c-5.7-14.4,15.8-30.9,28.2-21.7c1.3,1,2.5-1.2,1.3-2.2c-14.1-10.5-38.3,8.2-31.9,24.5
				C529.5,370.1,531.9,369.5,531.3,368L531.3,368z"/>
		</g>
	</g>
	<g>
		<g>
			<path class="st3" d="M552.6,307.7c14.2,10.2,38.4-8.5,31.6-24.8c-0.6-1.5-3-0.8-2.4,0.7c5.9,14.3-15.5,31-28,22
				C552.6,304.6,551.3,306.7,552.6,307.7L552.6,307.7z"/>
		</g>
	</g>
	<g>
		<g>
			<path class="st3" d="M605.8,312.1c0.6-3.1,0.4-6.1-0.9-9c-0.7-1.5-2.8-0.2-2.2,1.3c1,2.3,1.1,4.7,0.7,7.1
				C603.1,313,605.5,313.7,605.8,312.1L605.8,312.1z"/>
		</g>
	</g>
	<g>
		<g>
			<path class="st3" d="M573.3,328.2c2.2,1.7,4.8,2.5,7.6,2.8c1.6,0.2,1.6-2.3,0-2.5c-2.3-0.2-4.4-1-6.3-2.5
				C573.3,325.1,572.1,327.2,573.3,328.2L573.3,328.2z"/>
		</g>
	</g>
	<g>
		<g>
			<path class="st3" d="M619.8,274.4c2.6,3.7,2.6,8.6-0.9,11.8c-3.7,3.4-9.6,2.9-12.6-1.1c-2.9-3.7-2.2-9.2,1.5-12.1
				c3.9-3.1,9.1-2,12.2,1.6c1,1.2,2.8-0.5,1.8-1.8c-3.9-4.6-10.8-5.6-15.6-1.7c-4.7,3.7-5.5,10.8-1.8,15.5s10.7,5.7,15.5,2.1
				c5-3.7,5.7-10.6,2.2-15.6C621.1,271.8,618.9,273.1,619.8,274.4z"/>
		</g>
	</g>
	<g>
		<g>
			<path class="st3" d="M625.8,266.1c1.7-7.8,11.6-6.9,17.8-7.9c8.6-1.3,17.1-3,25.6-4.7c9.2-1.9,21.6-5.7,16.8-17.9
				c-0.6-1.5-3-0.8-2.4,0.7c5.4,13.8-16.2,15.1-24.7,16.7c-7.8,1.5-15.6,3.1-23.5,3.8c-5.4,0.5-10.7,2.8-12,8.7
				C623,267,625.4,267.7,625.8,266.1L625.8,266.1z"/>
		</g>
	</g>
	<g>
		<g>
			<path class="st3" d="M639.6,285c-3.2-8.5,9.2-18.1,16.6-12.8c1.3,0.9,2.6-1.2,1.3-2.2c-9.1-6.6-24.3,5.1-20.3,15.6
				C637.8,287.2,640.2,286.5,639.6,285L639.6,285z"/>
		</g>
	</g>
	<g>
		<g>
			<path class="st3" d="M659.7,231.8c10,7,26.7-5.8,22.1-17.3c-0.6-1.5-3-0.8-2.4,0.7c3.8,9.5-10.1,20.3-18.4,14.5
				C659.7,228.7,658.4,230.9,659.7,231.8L659.7,231.8z"/>
		</g>
	</g>
	<g>
		<g>
			<path class="st3" d="M708.1,214.2c3,4.2,2.9,9.8-1,13.4c-4.2,3.9-10.9,3.3-14.4-1.2c-3.3-4.3-2.6-10.5,1.7-13.8
				c4.5-3.5,10.4-2.3,13.9,1.8c1,1.2,2.8-0.5,1.8-1.8c-4.4-5.1-12-6.2-17.3-1.9c-5.2,4.1-6.1,12-2,17.2c4.1,5.3,11.9,6.3,17.2,2.3
				c5.5-4.1,6.3-11.8,2.4-17.3C709.4,211.6,707.2,212.9,708.1,214.2z"/>
		</g>
	</g>
	<g>
		
			<ellipse transform="matrix(0.7892 -0.6141 0.6141 0.7892 -213.3296 310.8023)" class="st3" cx="346.1" cy="466.2" rx="4.2" ry="4.2"/>
	</g>
	<g>
		
			<ellipse transform="matrix(0.7892 -0.6141 0.6141 0.7892 -160.5277 365.295)" class="st3" cx="451.9" cy="416.5" rx="4.2" ry="4.2"/>
	</g>
	<g>
		
			<ellipse transform="matrix(0.7892 -0.6141 0.6141 0.7892 -96.6312 398.4143)" class="st3" cx="532.1" cy="340" rx="4.2" ry="4.2"/>
	</g>
	<g>
		
			<ellipse transform="matrix(0.7892 -0.6141 0.6141 0.7892 -42.6018 435.4563)" class="st3" cx="613" cy="279.8" rx="3.2" ry="3.2"/>
	</g>
	<g>
		
			<ellipse transform="matrix(0.7892 -0.6141 0.6141 0.7892 12.2783 476.5715)" class="st3" cx="700.4" cy="220.4" rx="3.2" ry="3.2"/>
	</g>
	<g>
		<g>
			<path class="st3" d="M695.8,206.1c14.2-1.8,28.4-3.5,42.5-5.3c8.7-1.1,26.3-3.2,20.9-16c-0.6-1.5-2.8-0.2-2.2,1.3
				c5,11.7-18.6,12.2-25.2,13c-12,1.5-24.1,3-36.1,4.5C694.2,203.8,694.2,206.3,695.8,206.1L695.8,206.1z"/>
		</g>
	</g>
	<g>
		
			<ellipse transform="matrix(0.7892 -0.6141 0.6141 0.7892 24.2987 490.3703)" class="st3" cx="726.5" cy="209.8" rx="3.2" ry="3.2"/>
	</g>
	<g>
		<g>
			<path class="st3" d="M738.6,177.3c13.8,9.9,37.3-8.3,30.8-24.1c-0.6-1.5-3-0.8-2.4,0.7c5.7,13.9-15,30-27.1,21.3
				C738.5,174.2,737.3,176.4,738.6,177.3L738.6,177.3z"/>
		</g>
	</g>
	<g>
		<g>
			<path class="st3" d="M774.1,184c-1.2-6.5,6.9-13.5,11.4-16.9c4.5-3.5,13.3-9.7,19.3-6.8c1.4,0.7,2.7-1.5,1.3-2.2
				c-7.2-3.5-16.7,2.8-22.1,7c-5.4,4.2-13.6,11.8-12.2,19.6C772,186.3,774.4,185.6,774.1,184L774.1,184z"/>
		</g>
	</g>
	<g>
		<g>
			<path class="st3" d="M779.6,146.8c15.7-0.6,29.5-10.5,35.2-25.1c0.6-1.5-1.8-2.1-2.4-0.7c-5.3,13.5-18.3,22.7-32.8,23.3
				C778,144.4,778,146.9,779.6,146.8L779.6,146.8z"/>
		</g>
	</g>
	<g>
		<g>
			<path class="st3" d="M802.1,150.5c9.3-6,18.6-12.1,27.8-18.1c5.6-3.7,21.2-10.4,12.2-18.6c-1.2-1.1-3,0.7-1.8,1.8
				c4.9,4.5-0.3,7.2-3.6,9.4c-4.6,3-9.2,6-13.7,8.9c-7.4,4.8-14.8,9.6-22.2,14.4C799.5,149.2,800.7,151.3,802.1,150.5L802.1,150.5z"
				/>
		</g>
	</g>
	<g>
		<g>
			<path class="st3" d="M874.5,91.6c2.7,3.9,2.7,9.1-0.9,12.4c-3.9,3.6-10.1,3-13.3-1.1c-3.1-3.9-2.4-9.6,1.6-12.7
				c4.1-3.2,9.6-2.2,12.8,1.7c1,1.2,2.8-0.5,1.8-1.8c-4.1-4.8-11.2-5.8-16.3-1.8c-4.9,3.9-5.7,11.2-1.9,16.1s11.1,5.9,16.1,2.1
				c5.1-3.9,5.9-11.1,2.3-16.2C875.8,89,873.6,90.2,874.5,91.6z"/>
		</g>
	</g>
	<g>
		<g>
			<path class="st3" d="M900,75.4c1.6,2.3,1.7,5.4-0.5,7.4c-2.3,2.1-5.9,1.8-7.8-0.7c-1.8-2.3-1.4-5.7,0.9-7.5
				c2.5-1.9,5.7-1.2,7.6,1c1,1.2,2.8-0.5,1.8-1.8c-2.8-3.3-7.7-3.9-11-1.2c-3.3,2.7-3.9,7.6-1.3,10.9c2.6,3.3,7.5,4,10.9,1.5
				c3.5-2.6,4.1-7.5,1.6-11C901.2,72.9,899.1,74.1,900,75.4z"/>
		</g>
	</g>
	<g>
		<g>
			<path class="st3" d="M911.9,81.3c-7-10.4,12.9-25.8,21.3-16.5c1.1,1.2,2.8-0.6,1.8-1.8c-10.3-11.4-33.8,6.8-25.2,19.6
				C910.6,83.8,912.8,82.6,911.9,81.3L911.9,81.3z"/>
		</g>
	</g>
	<g>
		
			<ellipse transform="matrix(0.7892 -0.6141 0.6141 0.7892 123.1212 553.2195)" class="st3" cx="867.5" cy="97.3" rx="3.2" ry="3.2"/>
	</g>
	<g>
		
			<ellipse transform="matrix(0.7892 -0.6141 0.6141 0.7892 109.4132 549.5578)" class="st3" cx="855.3" cy="115.4" rx="3.2" ry="3.2"/>
	</g>
	<g>
		
			<ellipse transform="matrix(0.8296 -0.5583 0.5583 0.8296 128.1351 523.5673)" class="st3" cx="921.9" cy="51.8" rx="3.2" ry="3.2"/>
	</g>
	<g>
		<g>
			<path class="st3" d="M937.2,27.7c-10,7.2-20.1,14.3-30.1,21.5c-26.3,18.8-52.6,37.5-78.9,56.3c-36.9,26.3-73.7,52.6-110.6,78.9
				c-41.7,29.8-83.4,59.6-125.2,89.4c-40.9,29.2-81.8,58.4-122.7,87.6c-34.4,24.6-68.8,49.1-103.2,73.7
				c-22.2,15.8-44.4,31.7-66.5,47.5c-29.6,21.2-58.4,43.5-87.4,65.5c-41.5,31.4-82.9,62.8-124.4,94.2C67.5,658,46.7,673.7,26,689.4
				c-6.7,5.1-11.8,10.9-11.7,19.8c0.1,6.4,3.1,11.2,6.9,16.1c3.4,4.3,6.5,9.4,11.1,12.5c6.3,4.2,14.7,4.8,21.6,1.4
				c2.8-1.4,5.2-3.5,7.7-5.4c10.3-8,20.6-16,30.9-24.1c37.6-29.2,75.1-58.5,112.7-87.7c32.6-25.3,65.2-50.7,97.7-76
				c8.6-6.7,14.2-11,22.7-17.5c19.7-15,39.4-29.9,59.2-44.9c32.4-24.6,64.7-49.1,97.1-73.7c39.5-30,78.9-59.9,118.4-89.9
				c41-31.1,82.1-62.3,123.1-93.4c37.1-28.1,74.1-56.2,111.2-84.4c27.5-20.9,55.1-41.8,82.6-62.7c12.5-9.5,24.8-19.1,37.4-28.4
				c1.9-1.4,3.5-2.7,4-5.2C960.8,36.6,946.8,22.2,937.2,27.7c-2.1,1.2-0.2,4.4,1.9,3.2c7.3-4.2,20.6,10.8,14.2,16.6
				c-0.9,0.8-2,1.5-2.9,2.2c-5.5,4.2-10.9,8.3-16.4,12.5c-22.6,17.1-45.1,34.2-67.7,51.4c-33.7,25.6-67.4,51.1-101.1,76.7
				c-39.7,30.1-79.3,60.2-119,90.3c-40.1,30.4-80.2,60.9-120.3,91.3c-35.4,26.8-70.7,53.7-106.1,80.5
				c-25.4,19.3-50.8,38.6-76.3,57.9c-10,7.6-20.1,15.1-30,22.8c-18.9,14.5-37.7,29.3-56.6,44c-38.7,30.1-77.4,60.2-116.1,90.3
				c-27.2,21.2-54.4,42.3-81.6,63.5c-2.6,2-5,4.2-8.1,5.4c-8.7,3.4-16.7-0.4-22.1-7.3c-3.4-4.4-8.2-9.1-9.9-14.5
				c-1.5-4.6-1.1-9.7,1.2-14c3-5.6,9.2-9.1,14.2-12.8c10.1-7.6,20.2-15.3,30.3-22.9c20.7-15.7,41.5-31.4,62.2-47.1
				c40.7-30.8,81.3-61.6,122-92.3c13.7-10.4,27.2-21.1,41.2-31.1c15.9-11.3,31.7-22.6,47.6-34c29.9-21.4,59.8-42.7,89.7-64.1
				c38.2-27.3,76.4-54.5,114.6-81.8c41.5-29.7,83.1-59.3,124.6-89c39.1-27.9,78.1-55.8,117.2-83.7c31.3-22.3,62.6-44.7,93.8-67
				c18.1-12.9,36.2-25.9,54.3-38.8c2.4-1.7,4.7-3.4,7.1-5.1C941,29.6,939.1,26.3,937.2,27.7z"/>
		</g>
	</g>
</g>
</svg>
