<?xml version="1.0" encoding="utf-8"?>
<!-- Generator: Adobe Illustrator 21.0.2, SVG Export Plug-In . SVG Version: 6.00 Build 0)  -->
<svg version="1.1" id="Layer_1" xmlns="http://www.w3.org/2000/svg" xmlns:xlink="http://www.w3.org/1999/xlink" x="0px" y="0px"
	 viewBox="0 0 748.7 979.4" style="enable-background:new 0 0 748.7 979.4;" xml:space="preserve">
<style type="text/css">
	.st0{fill:#383838;}
	.st1{fill:#353032;}
	.st2{fill:#2E2E2E;}
	.st3{fill:#292929;}
	.st4{fill:#252525;}
	.st5{fill:#231D1E;}
	.st6{fill:#D1D1D1;}
	.st7{fill:none;}
	.st8{fill:#888888;}
	.st9{fill:#757071;}
	.st10{fill:#BAB3B5;}
	.st11{fill:#1D181B;}
	.st12{fill:#1D191B;}
</style>
<g>
	<g>
		<path class="st0" d="M692.8,936.5l24.1,23.3c5.1-4,10.2-7.9,15.4-11.9c-4.2-8.7-8.4-17.5-12.6-26.2l-3.1-7.1c0,0,9-9-1.9-13.3
			c0,0-31.4-52.4-70.4-91.8c0,0,3.3-9.6-6.4-8.3c0,0-75.3-105-97.3-119.3L48.3,33.6c0,0-7.3-6.3-16.2,0.3
			c-8.9,6.5-2.9,18.5-2.9,18.5l483.5,647.1c0,0-9.1,6,86.1,127.3c0,0-5.2,8.8,6.2,9.2c0,0,32.9,59.3,72.6,92.2
			c0,0-5.6,13.2,11.3,6.3L692.8,936.5z"/>
	</g>
	<g>
		<path class="st1" d="M565,783c0.5-0.6,1-1.2,1.7-1.8c3.8-2.9,9.2-2.3,12.2,1.5c2.9,3.8,2.3,9.2-1.5,12.2c-0.7,0.6-1.5,1-2.4,1.3"
			/>
	</g>
	<path class="st2" d="M719.7,921.7c4.2,8.7,8.4,17.5,12.6,26.2c-5.1,4-10.2,7.9-15.4,11.9l-20.8-20.1L719.7,921.7z"/>
	<path class="st3" d="M40.5,29.8c4.4,0.2,7.3,2.7,7.3,2.7L540,680.8c1.2,0.8,2.5,1.8,4,3.1l-5.9,4.7L40.5,29.8z"/>
	<path class="st4" d="M30.2,35.6c-6.2,6.7-1,16.8-1,16.8l483.5,647.1c0,0-1.3,0.8,2.1,8.3l6.9-5.4l6.9-6"/>
	<path class="st5" d="M512.7,699.5c0,0-2,1.2,3.5,11c0,0,21.4-10.1,30.1-23.8c-0.6-0.6-1.2-1.1-1.7-1.7c-2.1-2-4.1-3.9-6.2-5.8
		c-0.4,2.2-1.8,8.4-7.2,13.6C523.8,699.9,514.4,699.6,512.7,699.5z"/>
	<g>
		<g>
			<path class="st6" d="M527.5,690.5c-9.2-12.2-18.3-24.5-27.5-36.7c-21.9-29.3-43.8-58.5-65.7-87.8
				c-26.5-35.4-52.9-70.8-79.4-106.2c-23-30.7-45.9-61.4-68.9-92.1c-7.5-10-15-20.1-22.5-30.1c-3.5-4.7-6.7-10.2-10.8-14.4
				c-0.2-0.2-0.3-0.4-0.5-0.6c-1-1.3-3.1,0-2.2,1.3c9.2,12.2,18.3,24.5,27.5,36.7c21.9,29.3,43.8,58.5,65.7,87.8
				c26.5,35.4,52.9,70.8,79.4,106.2c23,30.7,45.9,61.4,68.9,92.1c7.5,10,15,20.1,22.5,30.1c3.5,4.7,6.7,10.2,10.8,14.4
				c0.2,0.2,0.3,0.4,0.5,0.6C526.3,693.1,528.5,691.8,527.5,690.5L527.5,690.5z"/>
		</g>
	</g>
	<g>
		<line class="st7" x1="38.6" y1="38.1" x2="115.5" y2="143.7"/>
		<g>
			<path class="st8" d="M37.6,38.7c22.5,30.9,44.9,61.7,67.4,92.6c3.2,4.3,6.3,8.7,9.5,13c0.9,1.3,3.1,0,2.2-1.3
				c-22.5-30.9-44.9-61.7-67.4-92.6c-3.2-4.3-6.3-8.7-9.5-13C38.8,36.2,36.6,37.4,37.6,38.7L37.6,38.7z"/>
		</g>
	</g>
	<g>
		
			<ellipse transform="matrix(0.7878 -0.6159 0.6159 0.7878 -418.009 632.4725)" class="st9" cx="708.9" cy="922.9" rx="1.8" ry="1.8"/>
	</g>
	<g>
		
			<ellipse transform="matrix(0.7878 -0.6159 0.6159 0.7878 -414.843 602.7386)" class="st9" cx="667.4" cy="903.5" rx="2.4" ry="2.4"/>
	</g>
	<g>
		
			<ellipse transform="matrix(0.7878 -0.6159 0.6159 0.7878 -420.5319 618.3603)" class="st9" cx="687.2" cy="919.5" rx="2.4" ry="2.4"/>
	</g>
	<g>
		
			<ellipse transform="matrix(0.7878 -0.6159 0.6159 0.7878 -411.5934 624.0903)" class="st9" cx="700" cy="909.4" rx="2.4" ry="2.4"/>
	</g>
	<g>
		<path class="st9" d="M710,894.3c-0.3,0.7-0.8,1.4-1.4,1.9c-2,1.6-4.9,1.2-6.5-0.8s-1.2-4.9,0.8-6.5c0.9-0.7,1.9-1,3-1"/>
	</g>
	<g>
		
			<ellipse transform="matrix(0.7878 -0.6159 0.6159 0.7878 -410.418 591.3067)" class="st9" cx="653" cy="891.3" rx="2.4" ry="2.4"/>
	</g>
	<g>
		
			<ellipse transform="matrix(0.7878 -0.6159 0.6159 0.7878 -396.7536 574.6083)" class="st9" cx="635.6" cy="863.1" rx="2.4" ry="2.4"/>
	</g>
	<g>
		
			<ellipse transform="matrix(0.7878 -0.6159 0.6159 0.7878 -389.6448 563.5986)" class="st9" cx="623.2" cy="847.3" rx="2.4" ry="2.4"/>
	</g>
	<g>
		
			<ellipse transform="matrix(0.7878 -0.6159 0.6159 0.7878 -371.7218 582.0109)" class="st9" cx="658.8" cy="830.5" rx="2.4" ry="2.4"/>
	</g>
	<g>
		<ellipse transform="matrix(0.7878 -0.6159 0.6159 0.7878 -375.7056 566.2988)" class="st9" cx="634" cy="828.4" rx="4" ry="4"/>
	</g>
	<g>
		
			<ellipse transform="matrix(0.7878 -0.6159 0.6159 0.7878 -372.9008 574.3717)" class="st9" cx="647.2" cy="828.4" rx="2.4" ry="2.4"/>
	</g>
	<g>
		
			<ellipse transform="matrix(0.7878 -0.6159 0.6159 0.7878 -381.4619 597.1528)" class="st9" cx="676" cy="852.2" rx="2.8" ry="2.8"/>
	</g>
	<g>
		
			<ellipse transform="matrix(0.7878 -0.6159 0.6159 0.7878 -412.6032 613.7465)" class="st9" cx="684.5" cy="905.7" rx="3.7" ry="3.7"/>
	</g>
	<g>
		
			<ellipse transform="matrix(0.7878 -0.6159 0.6159 0.7878 -399.8191 606.3221)" class="st9" cx="680.1" cy="883.4" rx="4.9" ry="4.9"/>
	</g>
	<g>
		
			<ellipse transform="matrix(0.7878 -0.6159 0.6159 0.7878 -404.8804 597.3517)" class="st9" cx="664.5" cy="886.3" rx="4.9" ry="4.9"/>
	</g>
	<g>
		
			<ellipse transform="matrix(0.7878 -0.6159 0.6159 0.7878 -393.0018 596.8071)" class="st9" cx="669.7" cy="868.8" rx="4.9" ry="4.9"/>
	</g>
	<g>
		
			<ellipse transform="matrix(0.7878 -0.6159 0.6159 0.7878 -398.9759 588.1141)" class="st9" cx="654.1" cy="873.1" rx="4.9" ry="4.9"/>
	</g>
	<g>
		
			<ellipse transform="matrix(0.7878 -0.6159 0.6159 0.7878 -390.9017 585.1252)" class="st9" cx="653.8" cy="859.9" rx="4.9" ry="4.9"/>
	</g>
	<g>
		
			<ellipse transform="matrix(0.7878 -0.6159 0.6159 0.7878 -385.2086 575.4982)" class="st9" cx="642.6" cy="846.8" rx="5.9" ry="5.9"/>
	</g>
	<g>
		
			<ellipse transform="matrix(0.7878 -0.6159 0.6159 0.7878 -410.1187 613.4481)" class="st10" cx="685.3" cy="902" rx="2.4" ry="2.4"/>
	</g>
	<g>
		
			<ellipse transform="matrix(0.7878 -0.6159 0.6159 0.7878 -403.0391 609.5559)" class="st10" cx="683.2" cy="889.7" rx="3.4" ry="3.4"/>
	</g>
	<g>
		
			<ellipse transform="matrix(0.7878 -0.6159 0.6159 0.7878 -381.6611 572.1651)" class="st10" cx="639.6" cy="840" rx="4.9" ry="4.9"/>
	</g>
	<g>
		
			<ellipse transform="matrix(0.7878 -0.6159 0.6159 0.7878 -387.8974 585.9305)" class="st10" cx="656.4" cy="855.9" rx="2.4" ry="2.4"/>
	</g>
	<g>
		
			<ellipse transform="matrix(0.7878 -0.6159 0.6159 0.7878 -400.4287 597.7091)" class="st10" cx="667.3" cy="880" rx="2.4" ry="2.4"/>
	</g>
	<g>
		
			<ellipse transform="matrix(0.7878 -0.6159 0.6159 0.7878 -396.1238 591.0016)" class="st10" cx="659.7" cy="870.4" rx="2.4" ry="2.4"/>
	</g>
	<g>
		
			<ellipse transform="matrix(0.7878 -0.6159 0.6159 0.7878 -389.4495 575.8234)" class="st10" cx="641" cy="853.1" rx="2.4" ry="2.4"/>
	</g>
	<g>
		
			<ellipse transform="matrix(0.7878 -0.6159 0.6159 0.7878 -420.019 602.8486)" class="st11" cx="664.9" cy="911" rx="2.8" ry="2.8"/>
	</g>
	<g>
		
			<ellipse transform="matrix(0.7878 -0.6159 0.6159 0.7878 -400.9032 619.9085)" class="st11" cx="699.3" cy="891.8" rx="2.8" ry="2.8"/>
	</g>
	<g>
		
			<ellipse transform="matrix(0.7878 -0.6159 0.6159 0.7878 -405.4638 616.3334)" class="st11" cx="691.8" cy="896.6" rx="2.8" ry="2.8"/>
	</g>
	<g>
		
			<ellipse transform="matrix(0.7878 -0.6159 0.6159 0.7878 -407.8508 627.2159)" class="st11" cx="706.4" cy="905.5" rx="2.8" ry="2.8"/>
	</g>
	<path class="st5" d="M688.9,934.6c0,0-16.1,7.4-11.3-6.3c0,0,32.1-25.4,37-26.9c0,0,10.7,3.5,1.9,13.3
		C716.5,914.6,689.8,935.4,688.9,934.6z"/>
	<g>
		
			<ellipse transform="matrix(0.7878 -0.6159 0.6159 0.7878 -388.4325 597.0876)" class="st11" cx="672.4" cy="862.3" rx="2.8" ry="2.8"/>
	</g>
	<g>
		
			<ellipse transform="matrix(0.7878 -0.6159 0.6159 0.7878 -378.2956 592.1703)" class="st11" cx="670.3" cy="845.1" rx="2.8" ry="2.8"/>
	</g>
	<g>
		
			<ellipse transform="matrix(0.7878 -0.6159 0.6159 0.7878 -384.6379 590.7699)" class="st11" cx="665.1" cy="853.6" rx="2.8" ry="2.8"/>
	</g>
	<g>
		
			<ellipse transform="matrix(0.7878 -0.6159 0.6159 0.7878 -384.2307 585.567)" class="st11" cx="657.8" cy="850.4" rx="2.8" ry="2.8"/>
	</g>
	<g>
		
			<ellipse transform="matrix(0.7878 -0.6159 0.6159 0.7878 -394.2119 572.4077)" class="st11" cx="633.7" cy="858.3" rx="2.8" ry="2.8"/>
	</g>
	<g>
		
			<ellipse transform="matrix(0.7878 -0.6159 0.6159 0.7878 -412.514 598.6516)" class="st11" cx="662.6" cy="898" rx="2.8" ry="2.8"/>
	</g>
	<g>
		
			<ellipse transform="matrix(0.7878 -0.6159 0.6159 0.7878 -414.321 607.1753)" class="st11" cx="674.1" cy="904.9" rx="2.8" ry="2.8"/>
	</g>
	<g>
		
			<ellipse transform="matrix(0.7878 -0.6159 0.6159 0.7878 -387.3681 566.2577)" class="st11" cx="628.2" cy="845.3" rx="2.8" ry="2.8"/>
	</g>
	<g>
		
			<ellipse transform="matrix(0.7878 -0.6159 0.6159 0.7878 -370.3137 570.7424)" class="st11" cx="643.2" cy="822.8" rx="2.8" ry="2.8"/>
	</g>
	<g>
		
			<ellipse transform="matrix(0.7878 -0.6159 0.6159 0.7878 -381.0072 561.6844)" class="st11" cx="624.7" cy="833.8" rx="2.8" ry="2.8"/>
	</g>
	<g>
		
			<ellipse transform="matrix(0.7878 -0.6159 0.6159 0.7878 -387.3368 555.3584)" class="st11" cx="612.4" cy="839.8" rx="2.8" ry="2.8"/>
	</g>
	<g>
		
			<ellipse transform="matrix(0.7878 -0.6159 0.6159 0.7878 -427.9135 627.5767)" class="st11" cx="696.9" cy="934.8" rx="2.8" ry="2.8"/>
	</g>
	<g>
		<g>
			<path class="st5" d="M711.3,926.5c-4.3,3.4-8.7,6.8-13,10.2c-1.3,1,0.5,2.8,1.8,1.8c4.3-3.4,8.7-6.8,13-10.2
				C714.3,927.3,712.6,925.6,711.3,926.5L711.3,926.5z"/>
		</g>
	</g>
	<g>
		<path class="st1" d="M630.7,876c0.5-0.9,1.2-1.7,2-2.4c3.4-2.7,8.4-2.1,11.1,1.4c2.7,3.4,2.1,8.4-1.4,11.1c-1,0.7-2,1.2-3.1,1.5"
			/>
	</g>
	<g>
		
			<ellipse transform="matrix(0.7878 -0.6159 0.6159 0.7878 -421.4941 611.9747)" class="st1" cx="677.4" cy="917.7" rx="4.9" ry="4.9"/>
	</g>
	<g>
		
			<ellipse transform="matrix(0.7878 -0.6159 0.6159 0.7878 -389.5204 605.3813)" class="st1" cx="683.9" cy="868" rx="6.4" ry="6.4"/>
	</g>
	<g>
		
			<ellipse transform="matrix(0.7878 -0.6159 0.6159 0.7878 -394.996 613.7473)" class="st1" cx="693.3" cy="880.2" rx="4.9" ry="4.9"/>
	</g>
	<g>
		<ellipse transform="matrix(0.7878 -0.6159 0.6159 0.7878 -378.2387 583.8663)" class="st1" cx="658.3" cy="840.9" rx="4" ry="4"/>
	</g>
	<g>
		
			<ellipse transform="matrix(0.7878 -0.6159 0.6159 0.7878 -395.7383 566.884)" class="st1" cx="624.9" cy="857.8" rx="4.2" ry="4.2"/>
	</g>
	<g>
		
			<ellipse transform="matrix(0.7878 -0.6159 0.6159 0.7878 -370.7607 538.5704)" class="st11" cx="596.3" cy="807.4" rx="2.8" ry="2.8"/>
	</g>
	<g>
		
			<ellipse transform="matrix(0.7878 -0.6159 0.6159 0.7878 -372.9234 535.7919)" class="st11" cx="591.2" cy="809.1" rx="2.8" ry="2.8"/>
	</g>
	<g>
		
			<ellipse transform="matrix(0.7878 -0.6159 0.6159 0.7878 -367.7711 534.6863)" class="st11" cx="592.1" cy="801.1" rx="2.8" ry="2.8"/>
	</g>
	<g>
		
			<ellipse transform="matrix(0.7878 -0.6159 0.6159 0.7878 -362.3814 528.0945)" class="st11" cx="585.3" cy="790" rx="2.8" ry="2.8"/>
	</g>
	<g>
		
			<ellipse transform="matrix(0.7878 -0.6159 0.6159 0.7878 -362.7937 523.4203)" class="st11" cx="578.3" cy="788.3" rx="2.8" ry="2.8"/>
	</g>
	<g>
		
			<ellipse transform="matrix(0.7878 -0.6159 0.6159 0.7878 -358.5656 520.265)" class="st11" cx="575.8" cy="780.5" rx="2.8" ry="2.8"/>
	</g>
	<g>
		
			<ellipse transform="matrix(0.7878 -0.6159 0.6159 0.7878 -361.2995 516.9211)" class="st11" cx="569.6" cy="782.8" rx="2.8" ry="2.8"/>
	</g>
	<g>
		
			<ellipse transform="matrix(0.7878 -0.6159 0.6159 0.7878 -354.2231 507.6532)" class="st11" cx="559.7" cy="767.9" rx="2.8" ry="2.8"/>
	</g>
	<g>
		
			<ellipse transform="matrix(0.7878 -0.6159 0.6159 0.7878 -346.0835 503.4912)" class="st11" cx="557.7" cy="754" rx="2.8" ry="2.8"/>
	</g>
	<g>
		
			<ellipse transform="matrix(0.7878 -0.6159 0.6159 0.7878 -347.9135 497.8975)" class="st11" cx="548.7" cy="753.9" rx="2.8" ry="2.8"/>
	</g>
	<g>
		
			<ellipse transform="matrix(0.7878 -0.6159 0.6159 0.7878 -343.5891 493.5374)" class="st11" cx="544.5" cy="745.4" rx="2.8" ry="2.8"/>
	</g>
	<g>
		
			<ellipse transform="matrix(0.7878 -0.6159 0.6159 0.7878 -334.2012 491.9225)" class="st11" cx="546.9" cy="731" rx="2.8" ry="2.8"/>
	</g>
	<g>
		
			<ellipse transform="matrix(0.7878 -0.6159 0.6159 0.7878 -334.3915 482.7513)" class="st11" cx="533.4" cy="726.7" rx="2.8" ry="2.8"/>
	</g>
	<g>
		
			<ellipse transform="matrix(0.7878 -0.6159 0.6159 0.7878 -328.9644 477.6073)" class="st11" cx="528.7" cy="716.2" rx="2.8" ry="2.8"/>
	</g>
	<g>
		
			<ellipse transform="matrix(0.7878 -0.6159 0.6159 0.7878 -337.1284 518.6492)" class="st11" cx="584.2" cy="748.6" rx="2.8" ry="2.8"/>
	</g>
	<g>
		
			<ellipse transform="matrix(0.7878 -0.6159 0.6159 0.7878 -353.2573 541.8094)" class="st11" cx="609.7" cy="783.6" rx="2.8" ry="2.8"/>
	</g>
	<g>
		
			<ellipse transform="matrix(0.7878 -0.6159 0.6159 0.7878 -323.7405 497.7689)" class="st11" cx="560.6" cy="718.7" rx="2.8" ry="2.8"/>
	</g>
	<g>
		
			<ellipse transform="matrix(0.7878 -0.6159 0.6159 0.7878 -347.8793 536.6259)" class="st11" cx="604.9" cy="773.2" rx="2.8" ry="2.8"/>
	</g>
	<g>
		
			<ellipse transform="matrix(0.7878 -0.6159 0.6159 0.7878 -376.576 543.1132)" class="st1" cx="600" cy="818.1" rx="5.3" ry="5.3"/>
	</g>
	<g>
		
			<ellipse transform="matrix(0.7878 -0.6159 0.6159 0.7878 -359.2295 552.2844)" class="st1" cx="621.9" cy="797.5" rx="7.1" ry="7.1"/>
	</g>
	<g>
		
			<ellipse transform="matrix(0.7878 -0.6159 0.6159 0.7878 -343.7465 534.5048)" class="st1" cx="603.9" cy="766.2" rx="5.3" ry="5.3"/>
	</g>
	<g>
		
			<ellipse transform="matrix(0.7878 -0.6159 0.6159 0.7878 -334.0637 515.3237)" class="st1" cx="580.9" cy="742.5" rx="5.3" ry="5.3"/>
	</g>
	<g>
		
			<ellipse transform="matrix(0.7878 -0.6159 0.6159 0.7878 -335.4496 523.8606)" class="st1" cx="592.6" cy="748.8" rx="5.3" ry="5.3"/>
	</g>
	<g>
		
			<ellipse transform="matrix(0.7878 -0.6159 0.6159 0.7878 -333.0931 507.3867)" class="st1" cx="569.9" cy="737.1" rx="5.3" ry="5.3"/>
	</g>
	<g>
		
			<ellipse transform="matrix(0.7878 -0.6159 0.6159 0.7878 -324.5368 504.6452)" class="st1" cx="570.2" cy="723.3" rx="5.3" ry="5.3"/>
	</g>
	<g>
		
			<ellipse transform="matrix(0.7878 -0.6159 0.6159 0.7878 -318.292 494.7903)" class="st1" cx="559" cy="709.4" rx="5.3" ry="5.3"/>
	</g>
	<g>
		
			<ellipse transform="matrix(0.7878 -0.6159 0.6159 0.7878 -315.8537 487.065)" class="st1" cx="549" cy="701.9" rx="8.1" ry="8.1"/>
	</g>
	<g>
		<ellipse transform="matrix(0.7878 -0.6159 0.6159 0.7878 -334.856 487.403)" class="st1" cx="540" cy="729.7" rx="5.3" ry="5.3"/>
	</g>
	<g>
		
			<ellipse transform="matrix(0.7878 -0.6159 0.6159 0.7878 -340.4152 490.3694)" class="st1" cx="541.5" cy="739.2" rx="5.3" ry="5.3"/>
	</g>
	<g>
		<ellipse transform="matrix(0.7878 -0.6159 0.6159 0.7878 -351 504.379)" class="st1" cx="556.5" cy="761.6" rx="5.3" ry="5.3"/>
	</g>
	<g>
		
			<ellipse transform="matrix(0.7878 -0.6159 0.6159 0.7878 -350.9204 530.5707)" class="st9" cx="594.6" cy="774.6" rx="5.3" ry="5.3"/>
	</g>
	<g>
		
			<ellipse transform="matrix(0.7878 -0.6159 0.6159 0.7878 -324.1706 491.017)" class="st9" cx="550.6" cy="716" rx="5.9" ry="5.9"/>
	</g>
	<g>
		
			<ellipse transform="matrix(0.7878 -0.6159 0.6159 0.7878 -329.7304 498.2934)" class="st9" cx="558.3" cy="727.7" rx="4.5" ry="4.5"/>
	</g>
	<g>
		
			<ellipse transform="matrix(0.7878 -0.6159 0.6159 0.7878 -341.2769 497.9998)" class="st9" cx="552.1" cy="744.3" rx="4.7" ry="4.7"/>
	</g>
	<g>
		
			<ellipse transform="matrix(0.7878 -0.6159 0.6159 0.7878 -336.2103 510.2737)" class="st9" cx="572.5" cy="743.1" rx="3.5" ry="3.5"/>
	</g>
	<g>
		
			<ellipse transform="matrix(0.7878 -0.6159 0.6159 0.7878 -345.9604 514.6721)" class="st9" cx="574" cy="759.4" rx="4.6" ry="4.6"/>
	</g>
	<g>
		
			<ellipse transform="matrix(0.7878 -0.6159 0.6159 0.7878 -341.9961 524.5805)" class="st9" cx="590.4" cy="758.6" rx="5.9" ry="5.9"/>
	</g>
	<g>
		
			<ellipse transform="matrix(0.7878 -0.6159 0.6159 0.7878 -355.1159 518.0245)" class="st9" cx="574.3" cy="774.4" rx="4.5" ry="4.5"/>
	</g>
	<g>
		
			<ellipse transform="matrix(0.7878 -0.6159 0.6159 0.7878 -361.5198 533.2344)" class="st9" cx="593.2" cy="791.3" rx="5.9" ry="5.9"/>
	</g>
	<g>
		<ellipse transform="matrix(0.7878 -0.6159 0.6159 0.7878 -356.905 543.9119)" class="st9" cx="611" cy="790" rx="4.2" ry="4.2"/>
	</g>
	<g>
		
			<ellipse transform="matrix(0.7878 -0.6159 0.6159 0.7878 -369.1155 547.2392)" class="st9" cx="609.7" cy="809.3" rx="5.1" ry="5.1"/>
	</g>
	<g>
		
			<ellipse transform="matrix(0.7878 -0.6159 0.6159 0.7878 -365.5786 544.1011)" class="st10" cx="606.9" cy="802.6" rx="4.9" ry="4.9"/>
	</g>
	<g>
		
			<ellipse transform="matrix(0.7878 -0.6159 0.6159 0.7878 -365.9409 554.676)" class="st10" cx="622.1" cy="808.4" rx="4.9" ry="4.9"/>
	</g>
	<path class="st5" d="M605,836c0,0-10.9,0.4-6.2-9.2c0,0,20.2-20.4,39-25.5c0,0,9.2-1.7,6.4,8.3C644.2,809.6,626.5,830,605,836z"/>
	<g>
		
			<ellipse transform="matrix(0.7878 -0.6159 0.6159 0.7878 -352.4435 536.5759)" class="st10" cx="602.5" cy="779.8" rx="3" ry="3"/>
	</g>
	<g>
		
			<ellipse transform="matrix(0.7878 -0.6159 0.6159 0.7878 -351.0953 521.0936)" class="st10" cx="580.7" cy="770.1" rx="3.8" ry="3.8"/>
	</g>
	<g>
		
			<ellipse transform="matrix(0.7878 -0.6159 0.6159 0.7878 -341.3636 514.7117)" class="st10" cx="576.3" cy="752.8" rx="3.3" ry="3.3"/>
	</g>
	<g>
		
			<ellipse transform="matrix(0.7878 -0.6159 0.6159 0.7878 -358.7583 538.8286)" class="st10" cx="602.7" cy="790.1" rx="3.3" ry="3.3"/>
	</g>
	<g>
		
			<ellipse transform="matrix(0.7878 -0.6159 0.6159 0.7878 -340.6856 505.7214)" class="st10" cx="563.6" cy="747.3" rx="3.3" ry="3.3"/>
	</g>
	<g>
		
			<ellipse transform="matrix(0.7878 -0.6159 0.6159 0.7878 -332.3127 502.9167)" class="st10" cx="563.8" cy="733.8" rx="3.3" ry="3.3"/>
	</g>
	<g>
		
			<ellipse transform="matrix(0.7878 -0.6159 0.6159 0.7878 -331.632 490.3665)" class="st10" cx="545.9" cy="726.5" rx="3.3" ry="3.3"/>
	</g>
	<g>
		
			<ellipse transform="matrix(0.6378 -0.7702 0.7702 0.6378 -361.4391 676.5966)" class="st10" cx="538.7" cy="722.6" rx="3.3" ry="3.3"/>
	</g>
	<g>
		<g>
			<path class="st6" d="M545.4,720.3c-4-5.7-8-11.3-12-17c-0.9-1.3-3.1-0.1-2.2,1.3c4,5.7,8,11.3,12,17
				C544.1,722.9,546.3,721.6,545.4,720.3L545.4,720.3z"/>
		</g>
	</g>
	<g>
		<g>
			<path class="st12" d="M691.5,937.9c8,7.8,16.1,15.5,24.1,23.3c0.8,0.8,1.8,0.6,2.7,0c5.1-4,10.2-7.9,15.4-11.9
				c0.7-0.5,0.6-1.6,0.3-2.3c-5.3-11.1-10.8-22.1-15.7-33.3c-0.1,0.8-0.2,1.5-0.3,2.3c2.3-2.3,4.3-5.7,4-9.1
				c-0.4-4.3-3.8-4.8-6.1-7.2c-1.9-2.1-3.3-5.3-4.8-7.7c-3.1-4.8-6.2-9.5-9.4-14.2c-9.5-13.9-19.5-27.4-30.1-40.4
				c-6-7.4-12.3-14.7-18.8-21.7c-1.7-1.8-3.4-4-5.3-5.6c-1.5-1.1-0.8,0.6-1.1-0.7c-0.3-1.5,0.6-3.3,0.2-4.9
				c-0.4-1.7-1.3-3.2-2.8-4.1c-0.8-0.5-2-1-3-0.9c-0.6,0-3,0.2-1.4,0.9c-0.8-0.3-1.7-2.4-2.2-3.1c-4.2-5.8-8.5-11.6-12.7-17.4
				c-14.1-19.1-28.5-38.1-43.4-56.6c-11.7-14.6-23.6-30.7-38.6-42.1c-1.1-0.9,0.1,0.3-0.6-0.3c-0.3-0.3-0.5-0.7-0.8-1.1
				c-1.1-1.4-2.2-2.9-3.3-4.3c-10.9-14.4-21.9-28.8-32.8-43.3c-19.4-25.5-38.7-51-58.1-76.5c-24.8-32.6-49.6-65.3-74.4-97.9
				c-27.4-36.1-54.9-72.3-82.3-108.4c-27.3-36-54.7-72-82-108c-24.3-32-48.5-63.9-72.8-95.9c-18.3-24.1-36.5-48.1-54.8-72.2
				C71.1,60.7,61.5,48.2,52,35.6c-4.5-5.9-11.2-8.5-18.7-4.7c-9.4,4.8-10.2,16.6-4.4,24.4c8.8,11.8,17.6,23.6,26.5,35.4
				c17.7,23.7,35.4,47.4,53.1,71c23.8,31.9,47.6,63.7,71.4,95.6c27,36.1,54,72.2,81,108.3c27.2,36.4,54.4,72.8,81.5,109.1
				c24.7,33.1,49.4,66.1,74.1,99.2c19.2,25.7,38.5,51.5,57.7,77.2c10.9,14.5,21.7,29,32.6,43.6c1.4,1.9,2.8,3.8,4.3,5.7
				c0.2-0.9,0.4-1.7,0.7-2.6c-3.1,2.2,0.4,8.6,1.5,10.9c8.8,19.1,22.2,36.6,34.4,53.6c16.1,22.3,32.9,44.2,49.8,65.8
				c-0.1-0.8-0.2-1.5-0.3-2.3c-1.3,2.4-2.1,5.6-0.7,8.1c1,1.9,3.2,3.2,5.3,3.5c0.4,0.1,2.8,0.1,1.6-0.5c0.2,0.1,0.2,0.5,0.4,0.7
				c1.9,1.9,3.2,5.5,4.6,7.7c2.9,4.8,5.9,9.6,9,14.3c8.5,13,17.6,25.6,27.5,37.5c5.7,6.9,11.6,13.6,17.9,19.9c2.9,3,6,5.8,9.1,8.6
				c0.3,0.3,4.4,4.1,3.9,2c0.1,0.3-0.4,0.9-0.4,1.2c-0.4,3.1-1.2,6.4,1.9,8.4c1.9,1.2,4.3,1.1,6.4,0.7c1.3-0.2,4.2-1.7,4.8-1.7
				c0.9,0.1,2.6,1.3,3.4,1.7c2.1,1.1,4-2.1,1.9-3.2c-1.3-0.7-3.1-2-4.6-2.2c-2.8-0.3-6.5,3.4-9.4,1.7c-2-1.1-1-4-0.3-5.7
				c0.2-0.6,0-1.4-0.5-1.8c-22.7-19-41.1-43-57.4-67.6c-4.7-7.1-9.2-14.3-13.4-21.6c-0.6-1-1.2-2.6-2.2-3.3
				c-2.2-1.6-6.3,0.4-6.4-3.7c0-1,0.4-2.1,0.9-2.9c0.5-0.8,0.2-1.6-0.3-2.3c-24.1-30.7-48.3-61.7-69.6-94.5c-5.9-9-13.3-19-16-29.6
				c-0.4-1.5,0.4-1.2-0.8-0.3c0.8-0.5,1.3-1.7,0.7-2.6c-5.2-7-10.4-13.9-15.6-20.9c-14-18.7-28-37.5-42-56.2
				c-20.4-27.3-40.8-54.6-61.2-81.8c-24.4-32.6-48.7-65.2-73.1-97.8c-25.9-34.7-51.8-69.3-77.7-104c-25-33.5-50.1-67-75.1-100.6
				c-21.8-29.1-43.5-58.3-65.3-87.4c-16.1-21.5-32.2-43-48.2-64.6c-8-10.7-16-21.4-23.9-32c-0.4-0.6-1-1.2-1.3-1.8
				c-1.3-2.3-1.8-5.4-1.8-7.9c0.2-8.6,11.2-14,18-8.5c-1-0.8,0.4,0.5,0.6,0.9c1,1.3,2,2.6,3,4c9.9,13.1,19.9,26.2,29.8,39.2
				c17.6,23.1,35.1,46.3,52.7,69.4c22.8,30,45.6,60.1,68.4,90.1c25.6,33.8,51.3,67.6,76.9,101.3c26.1,34.4,52.2,68.7,78.2,103.1
				c24.1,31.8,48.2,63.5,72.3,95.3c19.7,26,39.5,52,59.2,78c13,17.1,25.9,34.1,38.9,51.2c3.2,4.2,6.4,8.4,9.5,12.6
				c2.8,3.6,6.2,5.9,9.6,9.1c14.8,14,27.4,30.5,39.9,46.4c13.4,17.1,26.5,34.5,39.4,52c3.2,4.3,6.3,8.6,9.4,12.9
				c0.5,0.6,1.1,1.9,1.8,2.2c2.3,1.2,5.2-0.9,6,2.6c0.2,1.1-0.1,2.5-0.4,3.6c-0.2,0.6,0,1.4,0.5,1.8c20.9,21.3,39.3,45,56,69.7
				c4.4,6.4,8.6,12.9,12.7,19.5c0.6,1,1.1,2.1,2,2.9c1.7,1.5,4.1,1.4,4.4,4.3c0.1,1-0.3,2-0.7,2.9c-0.5,1.2-1.4,2.3-2.2,3.2
				c-0.6,0.7-0.6,1.5-0.3,2.3c5,11.2,10.4,22.2,15.7,33.3c0.1-0.8,0.2-1.5,0.3-2.3c-5.1,4-10.2,7.9-15.4,11.9c0.9,0,1.8,0,2.7,0
				c-8-7.8-16.1-15.5-24.1-23.3C692.5,933.6,689.8,936.2,691.5,937.9z"/>
		</g>
	</g>
</g>
</svg>
