<?xml version="1.0" encoding="utf-8"?>
<!-- Generator: Adobe Illustrator 21.0.2, SVG Export Plug-In . SVG Version: 6.00 Build 0)  -->
<svg version="1.1" id="Layer_1" xmlns="http://www.w3.org/2000/svg" xmlns:xlink="http://www.w3.org/1999/xlink" x="0px" y="0px"
	 viewBox="0 0 400.8 1117.4" style="enable-background:new 0 0 400.8 1117.4;" xml:space="preserve">
<style type="text/css">
	.st0{fill:#D17628;}
	.st1{fill:#AC5A30;}
	.st2{fill:#89361D;}
	.st3{fill:#994722;}
	.st4{fill:#85321B;}
	.st5{fill:#87291B;}
	.st6{fill:#B16031;}
	.st7{fill:#9B3320;}
	.st8{fill:#B25C2D;}
	.st9{fill:#9A3920;}
	.st10{fill:#B96C30;}
	.st11{fill:#B04725;}
	.st12{fill:#B26A3B;}
	.st13{fill:#B84B26;}
	.st14{fill:#B5713F;}
	.st15{fill:#AB4525;}
	.st16{fill:#A64724;}
	.st17{fill:#B86F3D;}
	.st18{fill:#B45527;}
	.st19{fill:#CD5E27;}
	.st20{fill:#D76927;}
	.st21{fill:#C86028;}
	.st22{fill:#CA6828;}
	.st23{fill:#D86D27;}
	.st24{fill:#D16B28;}
	.st25{fill:#BD5C27;}
	.st26{fill:#C75F28;}
	.st27{fill:#BC5B27;}
	.st28{fill:#B05F2E;}
	.st29{fill:#BB5727;}
	.st30{fill:#C7732C;}
	.st31{fill:#BC5827;}
	.st32{fill:#B67147;}
	.st33{fill:#F4AF72;}
	.st34{fill:#B85F28;}
	.st35{fill:#8F3B1E;}
	.st36{fill:#934F2C;}
	.st37{fill:#AD5E32;}
	.st38{fill:#B2693F;}
	.st39{fill:#853D1D;}
	.st40{fill:#7D3119;}
	.st41{fill:#5E200B;}
	.st42{fill:#501B0A;}
	.st43{fill:#3E160B;}
	.st44{fill:#43190D;}
	.st45{fill:#772D16;}
	.st46{fill:#9C4B23;}
	.st47{fill:#6C2411;}
	.st48{fill:#87321B;}
	.st49{fill:#DBA384;}
	.st50{fill:#FAB684;}
	.st51{fill:#1D191B;}
</style>
<g>
	<g>
		<path class="st0" d="M369.1,18.9l6,1.7c0,0,3.1,0.3,1.4,7.4c-1.8,7.2-107.8,355.8-107.8,355.8C251,442,233.6,501.6,216.5,562.5
			c-18.1,64.6-35,128.2-50.9,190.7c-0.6,2.3-7.2,34.1-20.5,97.5c0,0-1.9,8.9-6.4,32.4c-4.2,21.5-5.6,29.9-6.9,40.6
			c-1.6,13.7-1.9,22.5-1.2,31.7c0.4,6.1,1.2,11.2,1.9,14.8c-0.2,1.7-0.7,4.3-2.4,6.9c-1.5,2.3-3.3,3.7-4.6,4.6
			c-1.7,1.3-3.7,2.4-6.2,3.2c-3.3,3.3-7.9,8.6-11.5,16.2c-3,6.1-6.8,14-5.5,23.2c2.1,14.9,15.8,23.1,18.3,24.5
			c0,0,19.1,6.5,2.9,38.7c0,0-55.9,28.6-72.5,14.8c0,0-13.8-0.9-25.3-46.8c-0.5-1.4-0.9-3.1-1-5c-0.6-7.1,3-12.6,4.6-14.7
			c0,0,7.5-5.8,18.5-8.9c0,0,18-6.3,20.4-30l0.4-17.7c0,0-14.4-4.4-15.5-21.8c0,0-0.3-6.2,13.7-18.3c0,0,48.8-133.9,67.1-185.6
			l115.2-378.4l49-156.9l51.1-151.6l16.2-45C365.2,21.7,366.2,18.1,369.1,18.9z"/>
	</g>
	<g>
		<path class="st1" d="M119.8,985c2.5-0.8,4.5-1.9,6.2-3.2c1.3-0.9,3.1-2.3,4.6-4.6c1.7-2.6,2.2-5.2,2.4-6.9
			c-0.7-3.6-1.4-8.7-1.9-14.8c-0.7-9.2-0.4-18,1.2-31.7c0.6-5.1,1.2-9.7,2.2-15.4l-26.9-11.7l-25,77.5
			C82.6,974.3,91.8,992.5,119.8,985z"/>
	</g>
	<g>
		<path class="st2" d="M68.7,977.9c0,0-14.8-3-15.9-20.4c0,0-0.3-6.2,13.7-18.3c0,0,6.4-17.7,15.5-42.6c8.5,0.1,17,0.2,25.5,0.3
			c-8.3,25.8-16.6,51.7-25,77.5C78,975.5,73.3,976.7,68.7,977.9z"/>
	</g>
	<g>
		<path class="st3" d="M123.3,1087.5c0,0-55.9,28.6-72.5,14.8c0,0-13.8-0.9-25.3-46.8c-0.5-1.4-0.9-3.1-1-5
			c-0.6-7.1,3-12.6,4.6-14.7c0,0,7.5-5.8,18.5-8.9c0,0,18-6.3,20.4-30c0.3-6.4,0.6-12.7,0.8-19.1c4.6-1.2,9.3-2.4,13.9-3.5
			c0.4,5.7,0.6,13.1-0.1,21.6c-1.4,16.6-5,21.4-5.4,37.5c-0.3,11,1.2,18.6,1.7,21.6c0.9,4.9,2.9,10.5,7.8,20.9
			c2.2,4.6,4.9,7.9,8.9,10.6C106.1,1093.8,120.4,1088.7,123.3,1087.5z"/>
	</g>
	<g>
		<path class="st4" d="M36.6,1087c-3.6-6.9-7.5-16.9-11.1-31.5c-0.5-1.4-0.9-3.1-1-5c-0.6-7.1,3-12.6,4.6-14.7c0,0,7.5-5.8,18.5-8.9
			c0,0,18-6.3,20.4-30C67.9,996.9,73,1057,36.6,1087z"/>
	</g>
	<polygon class="st5" points="82,897.5 104.8,897 110.1,878.6 89.3,877.5 	"/>
	<polygon class="st6" points="133.8,909.3 104.8,897 110.1,878.6 136.9,892.3 	"/>
	<polygon class="st7" points="97,856.2 113.1,862.4 120,844.4 103.7,837.7 	"/>
	<polygon class="st8" points="144.9,851.7 118.2,849.1 113.1,862.4 141.7,868 	"/>
	<polygon class="st9" points="110.6,818.5 123.2,822.1 126.7,809.7 115,806.3 	"/>
	<polygon class="st10" points="152.9,813.9 131,813.2 124.6,828.4 149.3,831 	"/>
	<polygon class="st11" points="121.2,789.1 131.8,792.2 136.7,780.8 126.8,773.7 	"/>
	<polygon class="st6" points="158.8,785.8 139.5,785.9 135.6,799.5 155.7,800.7 	"/>
	<polygon class="st12" points="162,770.4 146.1,763.2 151.6,744.1 166.6,749.8 	"/>
	<path class="st13" d="M132.6,757.4l9.6,4.4l5.4-18.7c-3-1.6-6.1-3.1-9.1-4.7c-1.6,5.4-3.3,10.8-4.9,16.2L132.6,757.4z"/>
	<polygon class="st14" points="175.7,714.4 161.7,713.7 157.3,729.2 170.4,735.2 	"/>
	<polygon class="st15" points="147.3,709.5 156.3,712.9 152.7,725.4 142,727 	"/>
	<path class="st16" d="M151.7,695.3c2.5,1.2,4.9,2.3,7.4,3.5l5-17.2l-7.3-2.9C155,684.1,153.3,689.7,151.7,695.3z"/>
	<polygon class="st17" points="178.9,701.7 164.1,700.9 168.1,686.9 182.6,687.5 	"/>
	<g>
		<g>
			<path class="st18" d="M363.6,45.1c-12.5,39.7-25,79.5-37.6,119.2c-1.8,5.6-3.5,11.2-5.3,16.8c-0.5,1.5,1.9,2.2,2.4,0.7
				c12.5-39.7,25-79.5,37.6-119.2c1.8-5.6,3.5-11.2,5.3-16.8C366.5,44.2,364.1,43.5,363.6,45.1L363.6,45.1z"/>
		</g>
	</g>
	<polygon class="st19" points="319.2,218.2 302.5,205.4 295.5,226.5 314.4,234.2 	"/>
	<path class="st20" d="M306.4,260.4c-3.1-4.1-6.2-8.3-9.2-12.4l-7.7-2.2l-6.4,20.5l6.8-1.9l11.4,12.7
		C303,271.5,304.7,266,306.4,260.4z"/>
	<polygon class="st21" points="288.8,318.5 280.8,311.7 279.5,299.2 272.8,299.3 267.1,317.6 275.1,318.4 283.6,335.4 	"/>
	<path class="st22" d="M253.2,437.5c0,0-11.6-9.2-21.4-5.4l-5.9,19.4c0,0,16.8-0.6,21,6.1L253.2,437.5z"/>
	<path class="st23" d="M277,356.8c0,0-11-9-20.5-5.1l-5.9,19.4c0,0,16.1-0.8,20.1,5.8L277,356.8z"/>
	<path class="st24" d="M264.2,399.9c0,0-11.4-9.1-21-5.2l-5.9,19.4c0,0,16.5-0.7,20.6,6L264.2,399.9z"/>
	<path class="st25" d="M214.5,488.9l4.3-15c0,0,15.2-0.6,21.9,4.6l-5.4,18.6C235.3,497.1,221.9,486.5,214.5,488.9z"/>
	<path class="st26" d="M231.2,511.3c0,0-19.2-8.9-21.7-6.3l-4.7,15.5c0,0,16.2,7.3,21.6,7.4L231.2,511.3z"/>
	<path class="st27" d="M220.5,549c0,0-15.6-10-22.4-6.5l-5,16.3c0,0,17.3,7.9,22.7,6.6L220.5,549z"/>
	<path class="st28" d="M209.2,588.8c0,0-15.5-10.8-23.5-5.2l-5.1,16.8c0,0,18.8,8.5,23.8,6.9L209.2,588.8z"/>
	<polygon class="st29" points="176.7,613.6 184.4,614.8 179.5,631.6 171.5,630.1 	"/>
	<polygon class="st30" points="199.7,623.2 191.7,619.4 187.3,634.7 195.8,636.6 	"/>
	<polygon class="st31" points="168.2,641 176.4,642.4 171.8,659.4 162.5,659.8 	"/>
	<polygon class="st32" points="192.2,652.1 183.6,647.3 176.9,664.7 187.8,667.1 	"/>
	<g>
		<g>
			<path class="st33" d="M198.8,574.6c4.9-17.1,9.8-34.2,14.7-51.2c11.8-41.2,23.8-82.4,35.8-123.5c14.6-49.9,29.3-99.7,44.2-149.4
				c13.3-44.2,26.7-88.3,40.9-132.1c4.9-15,9.8-30,15.2-44.8c2.8-7.8,5.4-16.4,9.8-23.6c0.4-0.6,0.9-1.3,1-1.4
				c1.3-0.9,0.1-3.1-1.3-2.2c-4.3,3.1-6.4,11.7-8.1,16.3c-5,12.9-9.4,26.1-13.8,39.3c-13.9,41.9-26.8,84.1-39.6,126.3
				c-15.3,50.4-30.2,100.9-45,151.5c-12.7,43.4-25.3,86.9-37.9,130.4c-4.1,14.3-8.2,28.6-12.3,42.8c-1.9,6.5-4.8,13.5-5.8,20.2
				c0,0.3-0.2,0.6-0.3,0.9C195.9,575.5,198.3,576.1,198.8,574.6L198.8,574.6z"/>
		</g>
	</g>
	<g>
		<g>
			<path class="st34" d="M187.8,603.4c-11,39.2-22,78.4-33.1,117.7c-1.6,5.7-3.2,11.4-4.8,17.1c-0.4,1.5,2,2.2,2.4,0.7
				c11.2-39.3,22.1-78.8,33.2-118.2c1.6-5.5,3.1-11.1,4.7-16.6C190.7,602.5,188.3,601.8,187.8,603.4L187.8,603.4z"/>
		</g>
	</g>
	<g>
		<g>
			<path class="st35" d="M92.1,914c2.7-6.1,5.5-12.3,8.2-18.4c0.7-1.5-1.5-2.7-2.2-1.3c-2.7,6.1-5.5,12.3-8.2,18.4
				C89.3,914.2,91.4,915.5,92.1,914L92.1,914z"/>
		</g>
	</g>
	<g>
		<g>
			<path class="st36" d="M124.6,947.2c-5.3-14.6-10.7-29.3-16-43.9c-0.5-1.5-3-0.9-2.4,0.7c5.3,14.6,10.7,29.3,16,43.9
				C122.7,949.4,125.1,948.7,124.6,947.2L124.6,947.2z"/>
		</g>
	</g>
	<g>
		<g>
			<path class="st37" d="M120.7,957.4c-5.4-14.4-10.8-28.9-16.2-43.3c-0.6-1.5-3-0.8-2.4,0.7c5.4,14.4,10.8,28.9,16.2,43.3
				C118.8,959.6,121.2,958.9,120.7,957.4L120.7,957.4z"/>
		</g>
	</g>
	<g>
		<g>
			<path class="st38" d="M126.8,925.4c-2.6-3.3-5.2-6.7-7.9-10c-1-1.3-2.8,0.5-1.8,1.8c2.6,3.3,5.2,6.7,7.9,10
				C126,928.5,127.7,926.7,126.8,925.4L126.8,925.4z"/>
		</g>
	</g>
	<g>
		<g>
			<path class="st39" d="M114,970.7c-4.4-9.2-8.9-18.3-13.3-27.5c-0.7-1.4-2.9-0.2-2.2,1.3c4.4,9.2,8.9,18.3,13.3,27.5
				C112.5,973.4,114.7,972.1,114,970.7L114,970.7z"/>
		</g>
	</g>
	<g>
		<g>
			<path class="st40" d="M103.8,976.4c-2.2-1.7-4.4-3.3-6.6-5c-2.3-1.7-5.3-5.1-8-6c-1.7-0.6-3.7,0.2-5.5,0.5c-3,0.5-5.9,1-8.9,1.6
				c-1.6,0.3-0.9,2.7,0.7,2.4c2.7-0.5,5.3-0.9,8-1.4c1.5-0.3,3-0.7,4.5-0.8c1.2-0.1-0.6-0.7,0.6,0.4c4.2,3.9,9.4,7.1,14,10.6
				C103.8,979.5,105,977.3,103.8,976.4L103.8,976.4z"/>
		</g>
	</g>
	<g>
		<g>
			<path class="st41" d="M77,976.7c-7.8,33.6-15.7,67.3-25.6,100.3c-1.8,5.8-3.2,13.7-7,18.7c-1,1.3,1.2,2.5,2.2,1.3
				c3.1-4,4.4-10.1,5.9-14.9c3-9.5,5.6-19.2,8.2-28.9c5.5-20.5,10.5-41.2,15.5-61.8c1.1-4.7,2.2-9.4,3.3-14
				C79.8,975.8,77.3,975.1,77,976.7L77,976.7z"/>
		</g>
	</g>
	<g>
		<g>
			<path class="st42" d="M53.7,1020.3c-2,7.7-4.2,15.4-6.6,23c-3.5,11.4-7,23.8-13.4,34.1c-0.9,1.4,1.3,2.6,2.2,1.3
				c6.3-10.1,9.8-22.3,13.3-33.6c2.5-8,4.8-16,6.9-24.1C56.5,1019.4,54.1,1018.8,53.7,1020.3L53.7,1020.3z"/>
		</g>
	</g>
	<g>
		<g>
			<path class="st43" d="M43.3,1025.5c-1.4,5.8-3,11.6-4.7,17.4c-1.3,4.4-2.7,8.7-4.4,12.9c-1.2,3-2.7,7.7-5.5,9.7
				c-1.3,0.9-0.1,3.1,1.3,2.2c5.9-4.1,8.1-14.7,10.1-21.1c2.1-6.7,4-13.6,5.6-20.4C46.1,1024.6,43.7,1024,43.3,1025.5L43.3,1025.5z"
				/>
		</g>
	</g>
	<g>
		<g>
			<path class="st44" d="M33.4,1030.8c-1.9,4.5-4.5,10.5-8.6,13.3c-1.3,0.9-0.1,3.1,1.3,2.2c4.6-3.2,7.4-9.2,9.5-14.2
				C36.2,1030.6,34,1029.4,33.4,1030.8L33.4,1030.8z"/>
		</g>
	</g>
	<g>
		<g>
			<path class="st45" d="M54.8,1103.2c9.1-17.7,16.2-37.6,18.9-57.3c0.9-6.6,1.2-13,2.4-19.5c1.6-8.8,3.3-17.5,5.2-26.2
				c1-4.6,2-9.1,3.3-13.6c0.4-1.4,1.6-7.3,2.9-7.9c1.5-0.6,0.8-3-0.7-2.4c-3.8,1.5-4.8,10.3-5.7,13.6c-2.4,9.3-4.2,18.7-6,28.1
				c-1,5.3-2.3,10.6-2.9,15.9c-0.9,7.1-1.2,14.2-2.7,21.2c-1.6,7-3.6,14-6,20.8c-3.1,8.9-6.6,17.7-10.9,26.1
				C51.9,1103.4,54.1,1104.7,54.8,1103.2L54.8,1103.2z"/>
		</g>
	</g>
	<g>
		<g>
			<path class="st46" d="M100,1095.3c-2.1-17.5-0.6-41.1,13.5-53.5c1.2-1.1-0.6-2.8-1.8-1.8c-14.6,12.8-16.4,37.1-14.2,55.2
				C97.7,1096.9,100.2,1096.9,100,1095.3L100,1095.3z"/>
		</g>
	</g>
	<g>
		<g>
			<path class="st47" d="M100.6,1023.8c-8.3,2.7-16.6,5.2-25,7.7c-10.1,3-21.1,7.4-31.7,8.1c-1.6,0.1-1.6,2.6,0,2.5
				c10.2-0.7,20.7-4.8,30.5-7.7c9-2.7,17.9-5.4,26.8-8.3C102.8,1025.8,102.2,1023.3,100.6,1023.8L100.6,1023.8z"/>
		</g>
	</g>
	<g>
		<g>
			<path class="st48" d="M62.2,1013.7c0.6,7.5,3.8,15.9,10.8,19.6c1.4,0.7,2.7-1.4,1.3-2.2c-6.1-3.2-9.1-10.8-9.6-17.4
				C64.6,1012.1,62.1,1012.1,62.2,1013.7L62.2,1013.7z"/>
		</g>
	</g>
	<g>
		<g>
			<path class="st49" d="M83.4,1004.3c0.2-7.2,0.4-17.9,5.5-23.6c1.1-1.2-0.7-3-1.8-1.8c-5.6,6.2-6,17.3-6.2,25.3
				C80.8,1005.9,83.3,1005.9,83.4,1004.3L83.4,1004.3z"/>
		</g>
	</g>
	<g>
		<g>
			<path class="st50" d="M67.7,978.4c4.4-0.6,11.8-0.7,15.2-3.9c-0.6,0-1.2,0-1.8,0c4.3,3.4,8.9,7.7,14.1,9.6
				c1.5,0.5,2.2-1.9,0.7-2.4c-4.7-1.7-9.1-5.8-13-8.9c-0.5-0.4-1.2-0.5-1.8,0c-2.9,2.7-10.3,2.8-14.1,3.3
				C65.5,976.2,66.2,978.6,67.7,978.4L67.7,978.4z"/>
		</g>
	</g>
	<g>
		<g>
			<path class="st51" d="M368.6,20.7c4.9,1.4,7.4,0.8,6,6.9c-0.1,0.6-0.3,1.1-0.5,1.7c-0.8,2.9-1.7,5.7-2.5,8.5
				c-3.5,11.6-7,23.2-10.5,34.7c-11.3,37.5-22.7,75-34.1,112.5c-12.4,40.8-24.7,81.5-37.1,122.3c-7.3,24.1-14.7,48.3-22,72.4
				c-19.2,63.3-37.8,126.8-55.6,190.6c-11.6,41.8-23,83.7-34,125.6c-6.2,23.8-12.8,47.6-17.8,71.7c-5.8,27.7-11.7,55.4-17.4,83
				c-5,24-10.3,48.1-13.2,72.5c-1,8.4-1.7,16.9-1.6,25.3c0.1,3.6,0.3,7.2,0.7,10.8c0.4,3.6,1.8,7.9,1.4,11.5
				c-0.4,4.6-4.2,8.5-8.1,10.6c-3.7,2-5.6,3-8.3,6.3c-4.8,5.7-8.4,12.3-11.1,19.3c-5.5,13.9-2.2,28,9,37.9c4,3.5,8.9,5.1,12.2,8.8
				c2.9,3.3,3.9,7.6,3.9,11.9c-0.1,3.6-0.9,7.1-1.9,10.5c-0.9,2.8-2,8-3.9,9.9c-1.4,1.4-4.6,2.3-6.4,3.1c-4.5,2.1-9.2,4.1-13.8,5.9
				c-10.8,4.2-22.4,8.2-34,9.1c-4.6,0.3-9.7,0.3-13.9-1.9c-2-1.1-2.7-1.5-3.7-1.9c-5.2-2.3-8.8-8.1-11.4-13
				c-3.6-6.6-6.2-13.8-8.4-21c-2.8-9.2-6.3-18.4-1.2-27.3c3.9-6.8,15.2-8,22.1-11.8c8.8-4.9,14.9-13.7,17.3-23.4
				c2-7.9,1.4-16.4,1.6-24.5c0-0.8-0.6-1.6-1.4-1.8C61.1,975,53.4,965,54.7,957c1.4-8.3,11.3-11.7,14.2-18.9
				c6.1-15.3,11.3-31,16.9-46.5c9.4-25.9,18.8-51.7,28.1-77.6c7.2-20,15-39.9,21.6-60.2c6.3-19.3,11.8-38.8,17.7-58.1
				c12.3-40.5,24.7-81,37-121.5c12.7-41.7,25.4-83.5,38.1-125.2c7.2-23.6,14.4-47.2,21.6-70.8c7.1-23.2,14.5-46.4,21.7-69.6
				c9.4-29.9,18.4-60,28.1-89.9c10.5-32.4,21.8-64.6,32.7-96.9c9.2-27.4,18.5-54.8,28.3-82c1.6-4.4,3.1-8.7,4.7-13.1
				c0.6-1.7,1.4-6.1,3.7-5.9c2.4,0.2,2.4-3.5,0-3.8c-6.2-0.6-8,10.5-9.5,14.7c-3.6,9.9-7.2,19.8-10.7,29.7
				c-3.1,8.5-5.9,17.2-8.8,25.8c-13.3,39.4-26.5,78.8-39.8,118.2c-7.6,22.5-14.4,45.2-21.5,67.9c-10.5,33.7-21.1,67.3-31.6,101.1
				c-5.2,16.8-10.2,33.6-15.3,50.4c-12.2,40.2-24.5,80.3-36.7,120.5c-13.1,43-26.2,86-39.3,129c-7.7,25.1-15.3,50.3-23,75.4
				c-3.8,12.6-8.7,24.9-13.2,37.3c-9.5,26.5-19.1,53-28.7,79.5c-7.6,20.9-15.2,41.7-22.8,62.6c-1.4,3.9-2.1,8.3-5.3,10.8
				c-7.7,6.1-13.7,14.2-11,24c2.1,7.6,8.1,14.7,15.8,17.2c-0.5-0.6-0.9-1.2-1.4-1.8c-0.2,9.6,0.6,19.6-3.1,28.7
				c-3.3,8.2-9.7,14.9-18.1,17.7c-5.6,1.9-12.1,4.4-16.7,8.3c-3.5,2.9-5.3,8.3-5.8,12.7c-1,8.3,3.1,17.8,5.7,25.6
				c2.1,6.1,4.5,12.2,7.7,17.9c2.8,5,6.6,10.9,12.1,13.3c0.5,0.2,3.3,1.5,1.9,0.7c3.6,2,6.7,3.4,11,3.7c11.2,1,22.9-2.5,33.3-6.1
				c9-3.1,17.9-6.8,26.5-10.9c2.6-1.2,3.7-1.5,5-4.2c3.1-6.4,5.6-13.4,5.9-20.5c0.3-7-2.3-14.4-8.6-18.1
				c-6.9-4.1-13.8-9.3-17.2-17.4c-4.2-9.8-1.1-19.6,3.4-28.7c2.1-4.1,4.5-8.1,7.4-11.6c2.8-3.4,6.1-4.5,9.6-7.1
				c4.6-3.3,8.1-8.5,7.8-14.3c-0.5-8.3-2.1-16.4-2-24.8c0.2-14.3,2.4-28.6,4.9-42.7c5.1-28.3,11.1-56.5,17-84.6
				c4.3-20.5,8.3-41.2,13-61.6c8.5-37.4,19.2-74.5,29.1-111.5c23-85.5,47.4-170.7,73.2-255.5c5.8-18.9,11.5-37.9,17.3-56.8
				c12.1-39.7,24.1-79.5,36.2-119.2c12.3-40.7,24.7-81.4,37-122.1c6.2-20.4,13.3-40.7,18.4-61.4c0.7-2.7,1.5-6.7-0.8-8.9
				c-1.8-1.9-5.4-2.1-7.8-2.8C367.3,16.4,366.3,20,368.6,20.7z"/>
		</g>
	</g>
</g>
</svg>
