<?xml version="1.0" encoding="utf-8"?>
<!-- Generator: Adobe Illustrator 21.0.2, SVG Export Plug-In . SVG Version: 6.00 Build 0)  -->
<svg version="1.1" id="Layer_1" xmlns="http://www.w3.org/2000/svg" xmlns:xlink="http://www.w3.org/1999/xlink" x="0px" y="0px"
	 viewBox="0 0 994 382.3" style="enable-background:new 0 0 994 382.3;" xml:space="preserve">
<style type="text/css">
	.st0{fill:#35140E;}
	.st1{fill:#1B110A;}
	.st2{fill:#AD314C;}
	.st3{fill:#855C4C;}
	.st4{fill:#85655D;}
	.st5{fill:#865E61;}
	.st6{fill:#6D5657;}
	.st7{fill:#A27B7E;}
	.st8{fill:#B59894;}
	.st9{fill:#8C6A65;}
	.st10{fill:#8F675D;}
	.st11{fill:#9E7975;}
	.st12{fill:#725857;}
	.st13{fill:#928885;}
	.st14{fill:#96786B;}
	.st15{fill:#7A797D;}
	.st16{fill:#C2BCBC;}
	.st17{fill:#9E8E8B;}
	.st18{fill:#A69191;}
	.st19{fill:#96858B;}
	.st20{fill:#989591;}
	.st21{fill:#655349;}
	.st22{fill:#786C6E;}
	.st23{fill:#6A5F60;}
	.st24{fill:#7F5E55;}
	.st25{fill:#806656;}
	.st26{fill:#7C5147;}
	.st27{fill:#6D5848;}
	.st28{fill:#756663;}
	.st29{fill:#C2A19D;}
	.st30{fill:#C09FAF;}
	.st31{fill:#D2D2D2;}
	.st32{fill:#1D191B;}
	.st33{fill:#C2A8B2;}
</style>
<g>
	<path class="st0" d="M866.3,102.3c9.6-3.1,15.9-11.4,17.1-20.8l24.2-7.9c7.3,9,18.7,13.2,29.4,9.7c7.9-2.6,13.7-8.9,16.4-16.8
		c0.4-0.1,0.7-0.2,1.1-0.3c12.2-4,19.4-15.6,16-26s-16-15.5-28.3-11.5c-0.5,0.2-1,0.4-1.5,0.6c-6.7-4.5-14.8-6-22.5-3.5
		c-10.7,3.5-17.5,13.7-18,25.4l-25.3,8.2c-6.4-5.6-15.5-7.7-24.2-4.9c-9.1,3-15.4,10.7-17,19.5l-22.6,7.4c-3.4-5.9-7.4-9.3-10.4-8.3
		c-1.9,0.6-3.1,3-3.5,6.5c-2.4-2.6-4.7-3.8-6.7-3.1c-2.3,0.8-3.5,4-3.7,8.5c-2.7-3.5-5.6-5.3-7.9-4.6c-1.9,0.6-3.1,3-3.5,6.5
		c-2.4-2.6-4.7-3.8-6.7-3.1c-2.4,0.8-3.6,4.2-3.7,8.9c-2.7-3.3-5.4-4.9-7.6-4.2c-1.9,0.6-3.1,3-3.5,6.5c-2.4-2.6-4.7-3.8-6.7-3.1
		c-2.3,0.8-3.5,4-3.7,8.5c-2.7-3.5-5.6-5.3-7.9-4.6c-1.9,0.6-3.1,3-3.5,6.5c-2.4-2.6-4.7-3.8-6.7-3.1c-2.2,0.7-3.5,3.8-3.7,8.1
		c-2.8-3.7-5.8-5.6-8.1-4.9c-1.9,0.6-3.1,3-3.5,6.5c-2.4-2.6-4.7-3.8-6.7-3.1c-2.3,0.8-3.5,4-3.7,8.5c-2.7-3.5-5.6-5.3-7.9-4.6
		c-1.9,0.6-3.1,3-3.5,6.5c-2.4-2.6-4.7-3.8-6.7-3.1c-2.4,0.8-3.6,4.2-3.7,8.9c-2.7-3.3-5.4-4.9-7.6-4.2c-2.7,0.9-3.9,5-3.7,10.7
		l-23,7.5c-5.2-4.1-12.2-5.6-18.9-3.4c-8.5,2.8-13.9,10.6-14,19l-13.5,4.4l-20.5-7.6c0.5,1.8,1.6,5.3,2.9,9.5
		c-8-5-21.1-5.9-34.4-1.6c-12.7,4.1-22.3,12-26.3,20.3c-1.7-5-2.9-8.5-2.9-8.5l-12.3,17.7l0.2,0.6l-15.4,5
		c-3.1-4.9-7.3-7.7-10.8-6.6c-3.4,1.1-5.2,5.7-4.9,11.3c-3.1-4.7-7.2-7.4-10.6-6.3c-3.5,1.1-5.2,5.8-4.9,11.7l-25,8.2
		c-4.9-9.9-12.6-15.9-18.8-13.8c-5.3,1.7-8.1,8.9-7.6,17.7l-15.2,5c-3.4-3.3-7.5-4.8-11.2-3.7c-4.9,1.6-7.6,7.5-7.1,14.6
		c-3.8-5.8-9.4-8.9-14.2-7.3c-4.4,1.4-7,6.4-7.2,12.4c-3.7-4.8-8.7-7.2-13.1-5.8c-3.7,1.2-6.2,5-6.9,9.8c-3.5-3.5-7.7-5.2-11.5-3.9
		c-4.9,1.6-7.6,7.5-7.1,14.6c-3.8-5.8-9.4-8.9-14.2-7.3c-4.4,1.4-7,6.4-7.2,12.4c-3.7-4.8-8.7-7.2-13.1-5.8
		c-4.1,1.3-6.7,5.8-7.1,11.4c-3.5-4.1-8-6-11.9-4.8c-4.7,1.5-7.3,7.2-6.9,14c-3.7-5.5-9-8.5-13.7-7c-4.2,1.4-6.7,6.1-6.9,12
		c-3.6-4.6-8.4-7-12.6-5.6s-6.7,6.1-6.9,11.9c-3.2-3.7-7.3-5.6-10.9-4.4c-4.2,1.4-6.5,6.5-6.2,12.6c-3.3-5-8.1-7.7-12.3-6.3
		c-3.8,1.2-6.1,5.5-6.2,10.8c-3.2-4.2-7.6-6.3-11.4-5c-3.7,1.2-6,5.4-6.2,10.5c-2.7-3.2-6.2-4.8-9.3-3.8c-3.2,1.1-5.2,4.7-5.3,9.2
		c-2.8-3.5-6.5-5.3-9.7-4.3c-3.6,1.2-5.6,5.6-5.3,10.7l-21.2,6.9c-3.7-6.4-9.7-9.9-14.8-8.3c-5,1.6-7.6,7.8-7.1,14.9l-29.4,9.6
		c-3.7-6.1-9.5-9.5-14.5-7.9c-3.3,1.1-5.6,4.2-6.6,8.3c-1,0.1-2.1,0.2-3.1,0.6c-6.3,2.1-9.8,8.9-7.7,15.2s8.9,9.8,15.2,7.7
		c0.9-0.3,1.7-0.7,2.4-1.1c3.4,3.2,7.4,4.7,11,3.5c5.2-1.7,7.9-8.3,7-15.9l29-9.5c3.7,6.7,9.8,10.4,15,8.7c5.1-1.7,7.8-8,7-15.4
		l21.5-7c2.8,3.8,6.7,5.8,10,4.7c3.2-1.1,5.2-4.7,5.3-9.2c2.8,3.5,6.5,5.3,9.7,4.3c2.9-0.9,4.7-4,5.2-7.8c3.3,4.5,7.8,6.8,11.7,5.5
		c3.8-1.2,6.1-5.5,6.2-10.8c3.2,4.2,7.6,6.3,11.4,5c4.2-1.4,6.5-6.5,6.2-12.6c3.3,5,8.1,7.7,12.3,6.3c3.6-1.2,5.8-5,6.2-9.8
		c3.6,4.7,8.5,7,12.7,5.7c4.2-1.4,6.7-6.1,6.9-12c3.6,4.6,8.4,7,12.6,5.6c4.7-1.5,7.3-7.2,6.9-14c3.7,5.5,9,8.5,13.7,7
		c3.9-1.3,6.3-5.4,6.8-10.6c3.7,4.4,8.5,6.6,12.7,5.3c4.4-1.4,7-6.4,7.2-12.4c3.7,4.8,8.7,7.2,13.1,5.8c4.9-1.6,7.6-7.5,7.1-14.6
		c3.8,5.8,9.4,8.9,14.2,7.3c3.7-1.2,6.2-5,6.9-9.8c3.5,3.5,7.7,5.2,11.5,3.9c4.4-1.4,7-6.4,7.2-12.4c3.7,4.8,8.7,7.2,13.1,5.8
		c4.9-1.6,7.6-7.5,7.1-14.6c3.8,5.8,9.4,8.9,14.2,7.3c3.5-1.1,5.9-4.5,6.8-8.9l16-5.2c4.7,6.5,10.6,10,15.6,8.4
		c6-1.9,8.7-10.7,7.3-21l25.2-8.2c3.1,4.9,7.3,7.7,10.8,6.6c3.4-1.1,5.2-5.7,4.9-11.3c3.1,4.7,7.2,7.4,10.6,6.3
		c3.5-1.1,5.2-5.8,4.9-11.7l15.4-5l-0.2-0.6l20.5,7.6c-0.4-1.6-1.3-4.6-2.5-8.1c8.1,4.3,20.5,4.9,33.1,0.8
		c13.4-4.4,23.4-12.9,26.9-21.7c1.8,5.3,3.1,9.2,3.1,9.2l12.3-17.7l13.8-4.5c5.2,6.3,13.9,9.2,22.1,6.5c6.7-2.2,11.5-7.6,13.3-13.9
		l22.3-7.3c3.5,6.4,7.8,10.2,10.9,9.1c2.4-0.8,3.6-4.2,3.7-8.9c2.7,3.3,5.4,4.9,7.6,4.2c1.9-0.6,3.1-3,3.5-6.5
		c2.4,2.6,4.7,3.8,6.7,3.1c2.3-0.8,3.5-4,3.7-8.5c2.7,3.5,5.6,5.3,7.9,4.6c1.9-0.6,3.1-3,3.5-6.5c2.4,2.6,4.7,3.8,6.7,3.1
		c2.2-0.7,3.5-3.8,3.7-8.1c2.8,3.7,5.8,5.6,8.1,4.9c1.9-0.6,3.1-3,3.5-6.5c2.4,2.6,4.7,3.8,6.7,3.1c2.3-0.8,3.5-4,3.7-8.5
		c2.7,3.5,5.6,5.3,7.9,4.6c1.9-0.6,3.1-3,3.5-6.5c2.4,2.6,4.7,3.8,6.7,3.1c2.4-0.8,3.6-4.2,3.7-8.9c2.7,3.3,5.4,4.9,7.6,4.2
		c1.9-0.6,3.1-3,3.5-6.5c2.4,2.6,4.7,3.8,6.7,3.1c2.3-0.8,3.5-4,3.7-8.5c2.7,3.5,5.6,5.3,7.9,4.6c1.9-0.6,3.1-3,3.5-6.5
		c2.4,2.6,4.7,3.8,6.7,3.1c2.6-0.9,3.9-4.9,3.7-10.5l23.2-7.6C847.5,102.8,857.1,105.3,866.3,102.3z"/>
	<g>
		<g>
			<path class="st1" d="M899.5,51.3c2.2,6.8,4.4,13.5,6.6,20.3c0.5,1.5,2.9,0.9,2.4-0.7c-2.2-6.8-4.4-13.5-6.6-20.3
				C901.4,49.1,899,49.8,899.5,51.3L899.5,51.3z"/>
		</g>
	</g>
	
		<ellipse transform="matrix(0.9506 -0.3103 0.3103 0.9506 -27.7582 179.9259)" class="st2" cx="551.6" cy="177.2" rx="31.7" ry="22.7"/>
	<g>
		<g>
			<path class="st1" d="M940.5,29.2c2.7,8.3,5.4,16.6,8.1,24.9c0.5,1.5,2.9,0.9,2.4-0.7c-2.7-8.3-5.4-16.6-8.1-24.9
				C942.4,27,940,27.7,940.5,29.2L940.5,29.2z"/>
		</g>
	</g>
	<g>
		<g>
			<path class="st1" d="M875.2,59.2c2.2,6.8,4.4,13.5,6.6,20.3c0.5,1.5,2.9,0.9,2.4-0.7c-2.2-6.8-4.4-13.5-6.6-20.3
				C877.1,57,874.7,57.7,875.2,59.2L875.2,59.2z"/>
		</g>
	</g>
	<g>
		<g>
			<path class="st1" d="M832.8,75c2.7,6.9,4.9,14.1,6.9,21.2c0.4,1.5,2.8,0.9,2.4-0.7c-2-7.2-4.2-14.3-6.9-21.2
				C834.7,72.9,832.2,73.5,832.8,75L832.8,75z"/>
		</g>
	</g>
	<g>
		<g>
			<path class="st1" d="M809.9,81.7c2.5,7.5,4.9,15,7.4,22.5c0.5,1.5,2.9,0.9,2.4-0.7c-2.5-7.5-4.9-15-7.4-22.5
				C811.8,79.5,809.4,80.2,809.9,81.7L809.9,81.7z"/>
		</g>
	</g>
	<g>
		<g>
			<path class="st1" d="M808.4,110.6c-6.9-8.6-13.7-17.2-20.6-25.8c-1-1.3-2.8,0.5-1.8,1.8c6.9,8.6,13.7,17.2,20.6,25.8
				C807.6,113.6,809.4,111.9,808.4,110.6L808.4,110.6z"/>
		</g>
	</g>
	<g>
		<g>
			<path class="st1" d="M786.6,117.9c-6.8-8.7-13.6-17.3-20.5-26c-1-1.3-2.8,0.5-1.8,1.8c6.8,8.7,13.6,17.3,20.5,26
				C785.8,120.9,787.6,119.1,786.6,117.9L786.6,117.9z"/>
		</g>
	</g>
	<g>
		<g>
			<path class="st1" d="M765,125.9c-7.1-8.9-14.1-17.8-21.2-26.7c-1-1.3-2.8,0.5-1.8,1.8c7.1,8.9,14.1,17.8,21.2,26.7
				C764.3,128.9,766,127.1,765,125.9L765,125.9z"/>
		</g>
	</g>
	<g>
		<g>
			<path class="st1" d="M743.2,133.1c-7.1-9.1-14.2-18.3-21.2-27.4c-1-1.3-2.7,0.5-1.8,1.8c7.1,9.1,14.2,18.3,21.2,27.4
				C742.4,136.2,744.2,134.4,743.2,133.1L743.2,133.1z"/>
		</g>
	</g>
	<g>
		<g>
			<path class="st1" d="M720.7,140.1c-6.8-8.6-13.7-17.2-20.5-25.7c-1-1.3-2.8,0.5-1.8,1.8c6.8,8.6,13.7,17.2,20.5,25.7
				C719.9,143.1,721.7,141.3,720.7,140.1L720.7,140.1z"/>
		</g>
	</g>
	<g>
		<g>
			<path class="st1" d="M699.4,147c-7.1-8.4-14.2-16.9-21.4-25.3c-1-1.2-2.8,0.5-1.8,1.8c7.1,8.4,14.2,16.9,21.4,25.3
				C698.7,150,700.4,148.2,699.4,147L699.4,147z"/>
		</g>
	</g>
	<g>
		<g>
			<path class="st1" d="M689,149.8c-7.2-7.5-14.4-15.1-21.7-22.6c-1.1-1.2-2.9,0.6-1.8,1.8c7.2,7.5,14.4,15.1,21.7,22.6
				C688.3,152.8,690.1,151,689,149.8L689,149.8z"/>
		</g>
	</g>
	<g>
		<g>
			<path class="st1" d="M643.1,135.7c2.1,6.6,4.3,13.1,6.4,19.7c0.5,1.5,2.9,0.9,2.4-0.7c-2.1-6.6-4.3-13.1-6.4-19.7
				C645,133.5,642.6,134.2,643.1,135.7L643.1,135.7z"/>
		</g>
	</g>
	<g>
		<g>
			<path class="st1" d="M611.1,148.6c1.9,5.8,3.8,11.6,5.7,17.4c0.5,1.5,2.9,0.9,2.4-0.7c-1.9-5.8-3.8-11.6-5.7-17.4
				C613.1,146.4,610.6,147.1,611.1,148.6L611.1,148.6z"/>
		</g>
	</g>
	<g>
		<g>
			<path class="st1" d="M596.6,155.7c1.4,4.4,2.9,8.9,4.3,13.3c0.5,1.5,2.9,0.9,2.4-0.7c-1.4-4.4-2.9-8.9-4.3-13.3
				C598.5,153.5,596.1,154.2,596.6,155.7L596.6,155.7z"/>
		</g>
	</g>
	<g>
		<g>
			<path class="st1" d="M502.4,186.9c1.2,3.8,2.5,7.6,3.7,11.4c0.5,1.5,2.9,0.9,2.4-0.7c-1.2-3.8-2.5-7.6-3.7-11.4
				C504.3,184.7,501.9,185.3,502.4,186.9L502.4,186.9z"/>
		</g>
	</g>
	<g>
		<g>
			<path class="st1" d="M449.2,211.9c-4.9,1.6-9.8,3.2-14.7,4.8c-1.5,0.5-0.9,2.9,0.7,2.4c4.9-1.6,9.8-3.2,14.7-4.8
				C451.4,213.8,450.8,211.4,449.2,211.9L449.2,211.9z"/>
		</g>
	</g>
	<g>
		<g>
			<path class="st1" d="M404,212.8c2.5,7.8,5.1,15.5,7.6,23.3c0.5,1.5,2.9,0.9,2.4-0.7c-2.5-7.8-5.1-15.5-7.6-23.3
				C405.9,210.6,403.5,211.2,404,212.8L404,212.8z"/>
		</g>
	</g>
	<g>
		<g>
			<path class="st1" d="M357.5,250.8c-1.8-5.6-3.6-11.2-5.5-16.7c-0.5-1.5-2.9-0.9-2.4,0.7c1.8,5.6,3.6,11.2,5.5,16.7
				C355.6,253,358,252.3,357.5,250.8L357.5,250.8z"/>
		</g>
	</g>
	<g>
		<g>
			<path class="st1" d="M310.6,248.4c1.7,5.1,3.3,10.2,5,15.3c0.5,1.5,2.9,0.9,2.4-0.7c-1.7-5.1-3.3-10.2-5-15.3
				C312.5,246.2,310.1,246.9,310.6,248.4L310.6,248.4z"/>
		</g>
	</g>
	<g>
		<g>
			<path class="st1" d="M289.8,255.2c1.7,5.1,3.3,10.2,5,15.3c0.5,1.5,2.9,0.9,2.4-0.7c-1.7-5.1-3.3-10.2-5-15.3
				C291.7,253,289.3,253.7,289.8,255.2L289.8,255.2z"/>
		</g>
	</g>
	<g>
		<g>
			<path class="st1" d="M269.5,261.9c1.7,5.1,3.3,10.2,5,15.3c0.5,1.5,2.9,0.9,2.4-0.7c-1.7-5.1-3.3-10.2-5-15.3
				C271.4,259.7,269,260.3,269.5,261.9L269.5,261.9z"/>
		</g>
	</g>
	<g>
		<g>
			<path class="st1" d="M82.4,325.5c0.9,2.8,1.8,5.6,2.7,8.4c0.5,1.5,2.9,0.9,2.4-0.7c-0.9-2.8-1.8-5.6-2.7-8.4
				C84.3,323.3,81.9,324,82.4,325.5L82.4,325.5z"/>
		</g>
	</g>
	<g>
		<g>
			<path class="st1" d="M54.6,333.1c1.3,4,2.6,8,3.9,12c0.5,1.5,2.9,0.9,2.4-0.7c-1.3-4-2.6-8-3.9-12
				C56.5,330.9,54.1,331.6,54.6,333.1L54.6,333.1z"/>
		</g>
	</g>
	<ellipse transform="matrix(0.9506 -0.3103 0.3103 0.9506 32.4892 300.499)" class="st3" cx="960.7" cy="48.1" rx="3.8" ry="3.8"/>
	<ellipse transform="matrix(0.9506 -0.3103 0.3103 0.9506 31.7119 287.4149)" class="st4" cx="919.2" cy="44" rx="5.8" ry="5.8"/>
	<ellipse transform="matrix(0.9506 -0.3103 0.3103 0.9506 33.7964 289.4672)" class="st5" cx="926.7" cy="38.5" rx="8.8" ry="8.8"/>
	<ellipse transform="matrix(0.9506 -0.3103 0.3103 0.9506 22.7505 289.6671)" class="st6" cx="921.8" cy="73.3" rx="4.1" ry="4.1"/>
	<ellipse transform="matrix(0.9506 -0.3103 0.3103 0.9506 20.9247 268.3944)" class="st7" cx="854" cy="68.4" rx="7.4" ry="7.4"/>
	<ellipse transform="matrix(0.9506 -0.3103 0.3103 0.9506 10.623 247.2135)" class="st8" cx="782.3" cy="90.2" rx="2.9" ry="2.9"/>
	<ellipse transform="matrix(0.9506 -0.3103 0.3103 0.9506 6.8713 240.8186)" class="st9" cx="760.3" cy="98.8" rx="3.2" ry="3.2"/>
	
		<ellipse transform="matrix(0.9506 -0.3103 0.3103 0.9506 3.6472 234.5221)" class="st10" cx="738.9" cy="105.8" rx="2.9" ry="2.9"/>
	
		<ellipse transform="matrix(0.9506 -0.3103 0.3103 0.9506 0.3808 228.0029)" class="st11" cx="716.8" cy="112.8" rx="2.9" ry="2.9"/>
	
		<ellipse transform="matrix(0.9506 -0.3103 0.3103 0.9506 -2.9912 221.4118)" class="st12" cx="694.4" cy="120.1" rx="3.4" ry="3.4"/>
	
		<ellipse transform="matrix(0.9506 -0.3103 0.3103 0.9506 -6.1157 215.3622)" class="st13" cx="673.8" cy="126.9" rx="2.5" ry="2.5"/>
	
		<ellipse transform="matrix(0.9506 -0.3103 0.3103 0.9506 -13.3425 202.1318)" class="st14" cx="628.6" cy="143" rx="5.8" ry="5.8"/>
	
		<ellipse transform="matrix(0.9506 -0.3103 0.3103 0.9506 -22.1605 193.0948)" class="st15" cx="595.8" cy="166.2" rx="2.4" ry="2.4"/>
	
		<ellipse transform="matrix(0.9506 -0.3103 0.3103 0.9506 -36.6023 158.9349)" class="st16" cx="481.2" cy="194.5" rx="2.6" ry="2.6"/>
	
		<ellipse transform="matrix(0.9997 -2.575428e-02 2.575428e-02 0.9997 -5.1292 10.7707)" class="st17" cx="415.6" cy="204.5" rx="3.5" ry="3.5"/>
	
		<ellipse transform="matrix(0.9506 -0.3103 0.3103 0.9506 -50.0739 129.2246)" class="st18" cx="381.1" cy="222" rx="2.7" ry="2.7"/>
	<ellipse transform="matrix(0.9506 -0.3103 0.3103 0.9506 -57.0154 117.5729)" class="st19" cx="341" cy="238" rx="3.3" ry="3.3"/>
	
		<ellipse transform="matrix(0.9506 -0.3103 0.3103 0.9506 -101.5853 30.5823)" class="st20" cx="45.3" cy="334.6" rx="3.9" ry="3.9"/>
	
		<ellipse transform="matrix(0.9506 -0.3103 0.3103 0.9506 -93.7803 45.2804)" class="st21" cx="95.4" cy="317.4" rx="3.7" ry="3.7"/>
	
		<ellipse transform="matrix(0.9506 -0.3103 0.3103 0.9506 -88.6695 57.7632)" class="st22" cx="137.2" cy="307.6" rx="2.9" ry="2.9"/>
	
		<ellipse transform="matrix(0.9506 -0.3103 0.3103 0.9506 -83.8718 66.551)" class="st23" cx="167.2" cy="296.9" rx="4.2" ry="4.2"/>
	
		<ellipse transform="matrix(0.9506 -0.3103 0.3103 0.9506 -80.7759 71.8165)" class="st24" cx="185.3" cy="289.8" rx="3.1" ry="3.1"/>
	
		<ellipse transform="matrix(0.9506 -0.3103 0.3103 0.9506 -72.2502 87.6104)" class="st24" cx="239.2" cy="270.9" rx="3.1" ry="3.1"/>
	
		<ellipse transform="matrix(0.9506 -0.3103 0.3103 0.9506 -69.0253 93.868)" class="st25" cx="260.5" cy="263.9" rx="3.1" ry="3.1"/>
	
		<ellipse transform="matrix(0.9506 -0.3103 0.3103 0.9506 -66.4949 100.9803)" class="st26" cx="284.1" cy="259.5" rx="3.1" ry="3.1"/>
	
		<ellipse transform="matrix(0.9506 -0.3103 0.3103 0.9506 -62.6251 105.1067)" class="st27" cx="299" cy="249.4" rx="3.1" ry="3.1"/>
	
		<ellipse transform="matrix(0.9506 -0.3103 0.3103 0.9506 -59.7213 111.6037)" class="st28" cx="320.9" cy="243.5" rx="3.1" ry="3.1"/>
	
		<ellipse transform="matrix(0.9506 -0.3103 0.3103 0.9506 -25.4609 184.5796)" class="st29" cx="567.4" cy="172.3" rx="8.4" ry="8.4"/>
	
		<ellipse transform="matrix(0.9506 -0.3103 0.3103 0.9506 -29.7763 176.2051)" class="st29" cx="538.9" cy="181.7" rx="8.4" ry="8.4"/>
	
		<ellipse transform="matrix(0.9506 -0.3103 0.3103 0.9506 -27.543 180.4577)" class="st30" cx="553.4" cy="176.8" rx="11.6" ry="11.6"/>
	
		<ellipse transform="matrix(0.9506 -0.3103 0.3103 0.9506 -30.0319 179.6522)" class="st31" cx="549.6" cy="184.2" rx="5.8" ry="5.8"/>
	<g>
		<g>
			<path class="st32" d="M866.8,104c8.3-3,14.7-9.1,17.4-17.5c0.3-1.1,0.5-2.2,0.8-3.2c0.7-2.5-1.8,0.9-0.7-0.2
				c0.4-0.4,1.7-0.5,2.2-0.7c3-1,6-2,9-2.9c2.9-0.9,5.7-1.9,8.6-2.8c0.9-0.3,2-0.8,2.9-0.9c0.2,0,0.6-0.3,0.8-0.3
				c-0.7-0.1,0.1,1,0.6,1.7c1.8,3.2,7.6,5.9,10.8,7.2c4.4,1.7,9.2,2.4,13.9,1.7c9.4-1.3,16.7-7.6,20.8-15.9c1.7-3.4,6.1-4.1,9.3-6.4
				c3.7-2.7,6.7-6.4,8.4-10.6c7.1-17.5-10.9-30.5-27-27.1c-3.8,0.8-4.3,0.4-7.9-1.1c-2.7-1.2-5.6-1.9-8.6-2.2
				c-5.5-0.5-11.2,0.8-16,3.6c-8.7,5.3-13.2,14.8-13.9,24.7c0.5-0.6,0.9-1.2,1.4-1.8c-7.1,2.3-14.2,4.6-21.3,7
				c-1,0.3-2.5,1.2-3.5,1.2c0.6,0-3.1-2.6-4.2-3.2c-6.3-3.1-13.7-3.7-20.4-1.6c-5.7,1.8-10.7,5.6-14.1,10.6
				c-1.3,1.9-3.6,5.3-3.6,7.7c-0.8,1.2-0.5,1.6,0.6,1.3c-0.1,0-0.3,0.1-0.4,0.1c-0.3,0.2-0.9,0.3-1.2,0.4c-6.6,2.9-14.1,4.6-21,6.8
				c0.7,0.3,1.4,0.6,2.1,0.9c-2.2-3.6-5.6-8.9-10.3-9.3s-6.4,4.1-7.1,8c1-0.3,2.1-0.6,3.1-0.8c-2.4-2.4-5.8-5.1-9.4-3.2
				c-3.5,1.8-4,6.4-4.2,9.9c1.1-0.4,2.1-0.9,3.2-1.3c-2.2-2.6-5.4-5.9-9.2-5.1c-3.7,0.7-4.8,4.7-5.4,7.9c1-0.3,2.1-0.6,3.1-0.8
				c-2.4-2.4-5.8-5.1-9.4-3.2c-3.6,1.9-4,6.8-4.2,10.3c1.1-0.4,2.1-0.9,3.2-1.3c-2.2-2.5-5.3-5.5-9-4.8s-4.8,4.7-5.3,7.9
				c1-0.3,2.1-0.6,3.1-0.8c-2.4-2.4-5.8-5.1-9.4-3.2c-3.5,1.8-4,6.4-4.2,9.9c1.1-0.4,2.1-0.9,3.2-1.3c-2.2-2.6-5.4-5.9-9.2-5.1
				c-3.7,0.7-4.8,4.7-5.4,7.9c1-0.3,2.1-0.6,3.1-0.8c-2.4-2.4-5.8-5-9.4-3.2c-3.4,1.7-3.9,6.1-4.2,9.5c1.1-0.4,2.1-0.9,3.2-1.3
				c-2.2-2.6-5.2-6-9-5.5c-3.9,0.5-5.2,4.6-5.8,8c1-0.3,2.1-0.6,3.1-0.8c-2.4-2.4-5.8-5.1-9.4-3.2c-3.5,1.8-4,6.4-4.2,9.9
				c1.1-0.4,2.1-0.9,3.2-1.3c-2.2-2.6-5.4-5.9-9.2-5.1c-3.7,0.7-4.8,4.7-5.4,7.9c1-0.3,2.1-0.6,3.1-0.8c-2.4-2.4-5.8-5.1-9.4-3.2
				c-3.6,1.9-4,6.8-4.2,10.3c1.1-0.4,2.1-0.9,3.2-1.3c-2.5-2.8-6.6-6.6-10.6-4.2c-3.8,2.3-3.9,8.1-3.8,11.9c0.5-0.6,0.9-1.2,1.4-1.8
				c-3.8,1.3-7.7,2.5-11.5,3.8c-2.7,0.9-5.4,1.8-8.1,2.6c-0.7,0.2-1.7,0.8-2.5,0.8c-1.7,0,0.3,0.3-1.4-0.8
				c-14.8-9.1-33,1.8-33.9,18.5c0.5-0.6,0.9-1.2,1.4-1.8c-3.2,1-6.3,2.1-9.5,3.1c-1.2,0.4-2.5,1-3.7,1.2c-0.9,0.1,1.4,0.2,0.2-0.1
				c-0.4-0.1-0.9-0.3-1.3-0.5c-6.1-2.6-12.5-4.6-18.8-7c-1.4-0.5-2.7,1-2.3,2.3c0.9,3.2,1.9,6.4,2.9,9.5c0.9-0.7,1.8-1.4,2.8-2.1
				c-20-11.6-52.9-1-63.3,19.4c1.1,0.1,2.3,0.3,3.4,0.4c-1-2.8-1.9-5.7-2.9-8.5c-0.5-1.6-2.5-1.8-3.4-0.4c-2.5,3.6-5,7.2-7.5,10.9
				c-1.5,2.1-5.7,6-4.7,8.9c0.4-0.8,0.9-1.5,1.3-2.3c-5.1,1.7-10.2,3.3-15.4,5c0.7,0.3,1.4,0.6,2.1,0.9c-2.8-4-7.4-9.2-12.9-7.4
				c-5.4,1.7-6.3,8.3-6.3,13.1c1.2-0.3,2.3-0.6,3.5-0.9c-2.8-4-7.5-9-13-7c-5.3,1.9-6.2,8.5-6,13.4c0.5-0.6,0.9-1.2,1.4-1.8
				c-8.3,2.7-16.6,5.4-25,8.2c0.7,0.3,1.4,0.6,2.1,0.9c-3.6-6.9-10.6-16.7-19.7-15c-8.8,1.6-10.4,12.5-10.2,19.8
				c0.5-0.6,0.9-1.2,1.4-1.8c-3,1-6,2-9,2.9c-1.5,0.5-3.1,1.2-4.7,1.5c-2.5,0.5-0.2,0.2-2.8-1.4c-11.3-7-18.7,4.3-18.5,14.7
				c1.2-0.3,2.3-0.6,3.5-0.9c-3.5-5-9.2-10-15.8-8.3c-6.4,1.6-8.7,8.4-9.1,14.4c1.1-0.4,2.1-0.9,3.2-1.3c-3.5-4.2-8.6-7.9-14.3-6.4
				c-5.3,1.3-7.9,6.3-8.8,11.2c1-0.3,2.1-0.6,3.1-0.8c-4.1-3.8-9.9-6.6-15.3-3.5c-5.3,3.1-6.6,9.8-6.5,15.4c1.2-0.3,2.3-0.6,3.5-0.9
				c-3.5-5-9.2-10-15.8-8.3c-6.4,1.6-8.7,8.4-9.1,14.4c1.1-0.4,2.1-0.9,3.2-1.3c-3.8-4.5-9.5-8.3-15.5-6.1c-5.4,2-7.3,7.7-7.9,13
				c1.1-0.4,2.1-0.9,3.2-1.3c-3.9-4.1-9.6-7.5-15.3-4.6c-5.5,2.8-6.9,9.6-6.7,15.2c1.2-0.3,2.3-0.6,3.5-0.9c-3.4-4.8-8.8-9.6-15.2-8
				c-6.3,1.6-8.5,8.1-8.9,13.9c1.1-0.4,2.1-0.9,3.2-1.3c-3.6-4.3-9.2-8.1-15-5.8c-5.5,2.1-7.3,8.1-7.7,13.5c1.1-0.4,2.1-0.9,3.2-1.3
				c-3.6-3.8-8.9-7-14.1-4.3c-5,2.6-6.2,8.7-6.1,13.8c1.2-0.3,2.3-0.6,3.5-0.9c-3.1-4.4-8-8.8-13.8-7.3c-5.8,1.4-7.8,7.4-8.2,12.7
				c1.1-0.4,2.1-0.9,3.2-1.3c-3.3-4-8.4-7.4-13.7-5.3c-5,1.9-6.6,7.2-7,12.1c1.1-0.4,2.1-0.9,3.2-1.3c-7.6-8.1-17-3.9-17.8,6.8
				c1.1-0.4,2.1-0.9,3.2-1.3c-3.1-3.6-7.7-6.6-12.5-4.4c-4.6,2.1-5.8,7.5-5.7,12.1c0.5-0.6,0.9-1.2,1.4-1.8
				c-7.1,2.3-14.1,4.6-21.2,6.9c0.7,0.3,1.4,0.6,2.1,0.9c-3.5-5.6-9.7-11.4-16.9-9.1c-6.9,2.2-8.8,10.3-8.4,16.7
				c0.5-0.6,0.9-1.2,1.4-1.8c-9.8,3.2-19.6,6.4-29.4,9.6c0.7,0.3,1.4,0.6,2.1,0.9c-3.1-4.6-7.7-9.3-13.8-9.2
				c-5.9,0.2-9.3,4.9-10.8,10.1c0.6-0.5,1.2-0.9,1.8-1.4c-8.9,1-15.5,9.1-12.7,18.1c2.7,8.7,12.7,11.8,20.4,7.7
				c-0.8-0.1-1.5-0.2-2.3-0.3c4.4,3.8,10.3,6.2,15.5,2.6c5.2-3.6,6.2-10.5,5.6-16.3c-0.5,0.6-0.9,1.2-1.4,1.8
				c9.7-3.2,19.3-6.3,29-9.5c-0.7-0.3-1.4-0.6-2.1-0.9c3.4,5.7,9.8,11.9,17.1,9.6c7.1-2.2,8.9-10.7,8.4-17.2
				c-0.5,0.6-0.9,1.2-1.4,1.8c3-1,5.9-1.9,8.9-2.9c3.3-1.1,8.3-3.8,11.8-3.9c1.9,0-1-0.5,0,0.5c0.8,0.8,1.6,1.6,2.5,2.3
				c2.1,1.5,4.6,2.4,7.2,2c5.4-0.9,7.4-6.4,7.8-11.3c-1.1,0.4-2.1,0.9-3.2,1.3c6.5,7.6,16.3,6.1,18-4.3c-1,0.3-2.1,0.6-3.1,0.8
				c3.3,4.2,8.5,7.9,14.1,5.8c5.1-2,6.7-7.4,7-12.3c-1.1,0.4-2.1,0.9-3.2,1.3c3.5,4.1,9,7.7,14.4,5c5.1-2.5,6.4-8.7,6.3-13.9
				c-1.2,0.3-2.3,0.6-3.5,0.9c3.1,4.4,8,8.8,13.8,7.3c5.4-1.3,7.5-6.8,8.1-11.8c-1.1,0.4-2.1,0.9-3.2,1.3c3.6,4.4,9.2,8.2,15.1,5.9
				c5.5-2.1,7.4-8.2,7.7-13.5c-1.1,0.4-2.1,0.9-3.2,1.3c3.8,4.5,9.8,8.4,15.7,5.5c5.7-2.7,7.1-9.6,7-15.3c-1.2,0.3-2.3,0.6-3.5,0.9
				c3.3,4.6,8.2,9.2,14.4,8.2c6-1,8.8-6.7,9.5-12.2c-1,0.3-2.1,0.6-3.1,0.8c3.9,4.3,9.9,8.1,15.8,5.2c5.2-2.5,6.9-8.4,7.3-13.7
				c-1.1,0.4-2.1,0.9-3.2,1.3c3.9,4.6,10.1,8.7,16.3,5.7c5.9-2.8,7.4-9.9,7.2-15.8c-1.2,0.3-2.3,0.6-3.5,0.9
				c3.3,4.7,8.4,9.4,14.7,8.5c5.8-0.9,8.8-6.1,9.8-11.4c-1,0.3-2.1,0.6-3.1,0.8c4,3.7,9.5,6.5,14.8,3.8c5-2.6,6.7-8.4,7-13.6
				c-1.1,0.4-2.1,0.9-3.2,1.3c3.9,4.6,10.1,8.7,16.3,5.7c5.9-2.8,7.4-9.9,7.2-15.8c-1.2,0.3-2.3,0.6-3.5,0.9c2.9,4.1,7,8.2,12.4,8.6
				c4.7,0.3,9.6-2.8,11-7.5c0.1-0.4,0.6-3-0.2-1.9c0.2-0.3,1.2-0.4,1.5-0.5c1.8-0.7,3.7-1.2,5.5-1.8c3-1,5.9-1.9,8.9-2.9
				c-0.7-0.3-1.4-0.6-2.1-0.9c4.2,5.6,11.6,12.4,19.1,8.7c7.7-3.9,8.1-14.8,7.2-22.2c-0.5,0.6-0.9,1.2-1.4,1.8
				c8.4-2.7,16.8-5.5,25.2-8.2c-0.7-0.3-1.4-0.6-2.1-0.9c2.8,4,7.4,9.2,12.9,7.4c5.4-1.7,6.3-8.3,6.3-13.1c-1.2,0.3-2.3,0.6-3.5,0.9
				c2.8,4,7.5,9,13,7c5.3-1.9,6.2-8.5,6-13.4c-0.5,0.6-0.9,1.2-1.4,1.8c5.1-1.7,10.2-3.3,15.4-5c0.9-0.3,1.6-1.3,1.3-2.3
				c-0.1-0.2-0.1-0.4-0.2-0.6c-0.8,0.8-1.5,1.5-2.3,2.3c6.8,2.5,13.7,5.1,20.5,7.6c1.4,0.5,2.7-1,2.3-2.3c-0.8-2.7-1.6-5.4-2.5-8.1
				c-0.9,0.7-1.8,1.4-2.8,2.1c20.3,10.2,53.4-0.1,62.6-21.5c-1.1-0.1-2.3-0.3-3.4-0.4c1,3.1,2.1,6.2,3.1,9.2
				c0.5,1.6,2.5,1.8,3.4,0.4c3.9-5.7,7.5-12.6,12.2-17.7c-1.4,1.5-1,0.6,0.1,0.4c1-0.2,2-0.7,2.9-1c2.4-0.8,4.7-1.5,7.1-2.3
				c0.5-0.2,1.7-0.8,2.2-0.7c-1.3-0.2,0.9,1.9,1.5,2.4c2.3,1.9,4.9,3.2,7.7,4.1c6.4,1.9,13.4,0.8,18.9-2.9c2.6-1.8,4.8-4.1,6.5-6.8
				c0.8-1.3,1.2-3,2-4.2c0.3-0.5-1.5,0.6-0.1-0.3c3.2-2.1,8.6-2.8,12.3-4c3.1-1,6.2-2,9.3-3c-0.7-0.3-1.4-0.6-2.1-0.9
				c2.3,3.9,6.3,10.5,11.7,10.2c5.3-0.3,6.2-6.8,6.4-10.9c-1.1,0.4-2.1,0.9-3.2,1.3c2.2,2.5,5.3,5.5,9,4.8s4.8-4.7,5.3-7.9
				c-1,0.3-2.1,0.6-3.1,0.8c2.4,2.4,5.8,5.1,9.4,3.2c3.5-1.8,4-6.4,4.2-9.9c-1.1,0.4-2.1,0.9-3.2,1.3c2.2,2.6,5.4,5.9,9.2,5.1
				c3.7-0.7,4.8-4.7,5.4-7.9c-1,0.3-2.1,0.6-3.1,0.8c2.4,2.4,5.8,5,9.4,3.2c3.4-1.7,3.9-6.1,4.2-9.5c-1.1,0.4-2.1,0.9-3.2,1.3
				c2.2,2.6,5.2,6,9,5.5c3.9-0.5,5.2-4.6,5.8-8c-1,0.3-2.1,0.6-3.1,0.8c2.4,2.4,5.8,5.1,9.4,3.2c3.5-1.8,4-6.4,4.2-9.9
				c-1.1,0.4-2.1,0.9-3.2,1.3c2.2,2.6,5.4,5.9,9.2,5.1c3.7-0.7,4.8-4.7,5.4-7.9c-1,0.3-2.1,0.6-3.1,0.8c2.4,2.4,5.8,5.1,9.4,3.2
				c3.6-1.9,4-6.8,4.2-10.3c-1.1,0.4-2.1,0.9-3.2,1.3c2.2,2.5,5.3,5.5,9,4.8s4.8-4.7,5.3-7.9c-1,0.3-2.1,0.6-3.1,0.8
				c2.4,2.4,5.8,5.1,9.4,3.2c3.5-1.8,4-6.4,4.2-9.9c-1.1,0.4-2.1,0.9-3.2,1.3c2.2,2.6,5.4,5.9,9.2,5.1c3.7-0.7,4.8-4.7,5.4-7.9
				c-1,0.3-2.1,0.6-3.1,0.8c2.6,2.5,6.3,5.3,9.9,2.9c3.6-2.4,3.7-7.9,3.7-11.6c-0.5,0.6-0.9,1.2-1.4,1.8c6.8-2.2,13.6-4.4,20.4-6.7
				c0.5-0.2,2.2-1,2.7-0.9c-2.1-0.5,2.1,2.6,2.1,2.6c1.2,0.8,2.5,1.5,3.9,2.1C853.7,105.8,860.3,105.9,866.8,104
				c2.3-0.7,1.3-4.3-1-3.6c-8.5,2.5-16.8,0.6-23.4-5.3c-0.5-0.4-1.2-0.7-1.8-0.5c-7.7,2.5-15.5,5-23.2,7.6c-0.8,0.3-1.4,1-1.4,1.8
				c0.1,4.6-0.8,12.3-7.2,6c-0.9-0.9-2.9-0.6-3.1,0.8c-0.5,2.8-0.1,3.9-3.5,3.8c-3-0.1-3-0.5-4.8-2.7c-1.1-1.3-3.1-0.2-3.2,1.3
				c-0.1,1.4,0,3.7-0.9,4.8c-1.3,1.7-4.7,0.7-6.3-0.8c-0.9-0.9-2.9-0.6-3.1,0.8c-0.4,2.4-0.2,3.7-3,4.1c-2.7,0.4-3.3-0.7-5-2.7
				c-1.1-1.3-3.1-0.2-3.2,1.3c-0.1,1.5,0.2,3.9-0.9,5.1c-0.2,1.4-1.1,1.6-2.7,0.7c-1.6,0.4-2.8-0.1-3.6-1.4
				c-0.9-0.9-2.9-0.6-3.1,0.8c-0.5,2.8-0.1,3.9-3.5,3.8c-3-0.1-3-0.5-4.8-2.7c-1.1-1.3-3.1-0.2-3.2,1.3c-0.1,1.4,0,3.7-0.9,4.8
				c-1.3,1.7-4.7,0.7-6.3-0.8c-0.9-0.9-2.9-0.6-3.1,0.8c-0.4,2.3-0.7,6-4.7,4.6c-1.5-0.5-2.9-2.7-3.9-3.8c-1.1-1.4-3.1-0.1-3.2,1.3
				c-0.1,1.5-0.1,3.6-1.1,4.8c-0.3,1.4-1.2,1.6-2.7,0.5c-1.5,0.1-2.6-0.5-3.4-1.7c-0.9-0.9-2.9-0.6-3.1,0.8
				c-0.5,2.8-0.1,3.9-3.5,3.8c-3-0.1-3-0.5-4.8-2.7c-1.1-1.3-3.1-0.2-3.2,1.3c-0.1,1.4,0,3.7-0.9,4.8c-1.3,1.7-4.7,0.7-6.3-0.8
				c-0.9-0.9-2.9-0.6-3.1,0.8c-0.4,2.4-0.2,3.7-3,4.1c-2.7,0.4-3.3-0.7-5-2.7c-1.1-1.3-3.1-0.2-3.2,1.3c-0.2,3.8-1.1,8.6-5.8,5.8
				c-2.4-1.5-3.9-4.6-5.3-7c-0.4-0.7-1.3-1.1-2.1-0.9c-7,2.3-14.6,4-21.4,7c-0.9,0.4-1.4,0.5-2.1,1.2c-1.1,1.1-1.4,3.7-2.2,5.1
				c-1.3,2.1-3.1,4-5.1,5.5c-8.2,5.7-18.7,3.7-25.1-3.6c-0.4-0.5-1.2-0.7-1.8-0.5c-3.5,1.1-7,2.3-10.5,3.4c-2.1,0.7-3.5,1-4.9,2.7
				c-4.4,5.2-7.9,11.4-11.8,17c1.1,0.1,2.3,0.3,3.4,0.4c-1-3.1-2.1-6.2-3.1-9.2c-0.5-1.4-2.7-2-3.4-0.4
				c-8.4,19.5-38.8,29.5-57.4,20.2c-1.4-0.7-3.3,0.5-2.8,2.1c0.9,2.7,1.7,5.4,2.5,8.1c0.8-0.8,1.5-1.5,2.3-2.3
				c-6.8-2.5-13.7-5.1-20.5-7.6c-1.3-0.5-2.7,1-2.3,2.3c0.1,0.2,0.1,0.4,0.2,0.6c0.4-0.8,0.9-1.5,1.3-2.3c-5.1,1.7-10.2,3.3-15.4,5
				c-0.8,0.3-1.4,1-1.4,1.8c0.1,2.8,0.2,7-2.3,8.9c-3.7,2.9-7.6-1.5-9.7-4.5c-1-1.4-3.5-1-3.5,0.9c0,2.7,0,7.7-3,9.3
				c-3.7,1.9-7.5-2.9-9.2-5.5c-0.5-0.7-1.3-1.1-2.1-0.9c-8.4,2.7-16.8,5.5-25.2,8.2c-0.7,0.2-1.5,1-1.4,1.8c0.7,5.5,1,13.1-3.2,17.4
				c-5.5,5.6-12.7-1.3-16.1-5.7c-0.5-0.6-1.3-1.1-2.1-0.9c-4.9,1.6-9.9,3-14.7,4.8c-3,1.1-2.3,2.4-3.8,5.3c-4.2,8.2-12.5,3-16.3-2.4
				c-1-1.4-3.5-1.1-3.5,0.9c0.1,4.4-0.5,9.7-4.7,12.1c-4.8,2.7-9.4-1.1-12.4-4.7c-1.1-1.3-3.1-0.2-3.2,1.3c-0.2,3.5-1.1,7.7-4.2,9.8
				c-3.9,2.7-8.3,0.1-11.2-2.6c-1-0.9-2.8-0.6-3.1,0.8c-0.8,4-2.7,8.6-7.4,8.8c-4.4,0.2-8-3.5-10.3-6.8c-1-1.4-3.5-1.1-3.5,0.9
				c0.1,4.4-0.5,9.7-4.7,12.1c-4.8,2.7-9.4-1.1-12.4-4.7c-1.1-1.3-3.1-0.2-3.2,1.3c-0.2,3.8-1.2,8.3-5,10.2
				c-4.5,2.2-8.8-1.2-11.6-4.4c-0.9-1-2.9-0.6-3.1,0.8c-0.5,3.9-1.9,8.6-6.4,9.4c-4.5,0.8-8.2-3-10.6-6.3c-1-1.4-3.5-1.1-3.5,0.9
				c0.1,4.2-0.4,9.3-4.4,11.6c-4.6,2.6-9-1.1-11.8-4.5c-1.1-1.3-3.1-0.2-3.2,1.3c-0.3,4.2-1.6,9.4-6.5,10.3
				c-4.1,0.8-7.5-2.4-9.9-5.3c-1.2-1.4-3-0.1-3.2,1.3c-0.4,3.5-1.8,7.5-5.7,8.2c-3.9,0.7-7.2-2.7-9.3-5.6c-1-1.4-3.5-1.1-3.5,0.9
				c0.1,3.6-0.3,8.1-3.8,10.2c-4.1,2.4-8-0.9-10.5-3.9c-1.1-1.3-3.1-0.2-3.2,1.3c-0.3,3.7-1.5,8.4-5.8,9.1c-3.8,0.6-6.8-2.5-8.9-5.2
				c-0.8-1.1-2.9-0.5-3.1,0.8c-0.4,2.3-1,5-3.3,6.2c-3.4,1.8-6.5-1.3-8.5-3.5c-1.2-1.3-3.1-0.2-3.2,1.3c-0.2,3.2-1.2,6.8-4.9,7.3
				c-3.2,0.4-5.4-1.8-7.2-4.2c-0.4-0.5-1.2-0.7-1.8-0.5c-7.2,2.3-14.3,4.7-21.5,7c-0.7,0.2-1.4,1-1.4,1.8c0.3,4.7-0.3,11.8-5.6,13.6
				c-5.5,1.9-10.4-3.7-12.9-7.9c-0.4-0.7-1.3-1.1-2.1-0.9c-9.7,3.2-19.3,6.3-29,9.5c-0.7,0.2-1.5,1-1.4,1.8c0.3,3.8,0.2,7.9-2,11.2
				c-3.4,4.9-8.8,3.3-12.7-0.1c-0.7-0.6-1.5-0.7-2.3-0.3c-5.5,2.9-12.8,0.9-14.9-5.5c-2.1-6.5,2.5-12.7,9.1-13.4
				c0.8-0.1,1.6-0.5,1.8-1.4c3.2-11,12.8-7.4,17.7,0c0.4,0.7,1.3,1.1,2.1,0.9c9.8-3.2,19.6-6.4,29.4-9.6c0.8-0.2,1.4-1,1.4-1.8
				c-0.2-4.6,0.5-11.3,5.7-13.1c5.4-1.8,10.1,3.4,12.6,7.4c0.4,0.7,1.3,1.1,2.1,0.9c7.1-2.3,14.1-4.6,21.2-6.9
				c0.8-0.3,1.4-1,1.4-1.8c0-2.7,0.1-6.1,2.4-7.8c3.5-2.7,6.9-0.1,9.4,2.7c1.2,1.3,3.1,0.2,3.2-1.3c0.2-2.5,0.8-5.8,3.3-7.1
				c3.2-1.6,6.1,0.9,8,3c1.2,1.3,3.1,0.2,3.2-1.3c0.3-3.6,1.6-8.1,5.7-8.8c3.6-0.6,6.5,2.2,8.6,4.7c1.1,1.3,3.1,0.2,3.2-1.3
				c0.3-3.7,1.5-8.4,5.8-9.1c3.9-0.7,7.2,2.7,9.3,5.6c1,1.4,3.5,1.1,3.5-0.9c-0.1-3.3,0.2-7.2,2.8-9.6c3.7-3.4,8.3-0.2,11,2.7
				c1.2,1.3,3.1,0.2,3.2-1.3c0.3-4.2,1.6-9.4,6.4-10.3c4.1-0.8,7.5,2.4,9.9,5.3c1.1,1.3,3.1,0.2,3.2-1.3c0.3-4.2,1.6-9.4,6.5-10.3
				c4.5-0.8,8.2,3,10.6,6.3c1,1.4,3.5,1.1,3.5-0.9c-0.1-3.7,0.3-8.4,3.4-11c4.2-3.5,9.1-0.2,12.2,3.1c1.2,1.3,3,0.2,3.2-1.3
				c0.5-4.1,2.1-8.9,6.7-9.7c4.3-0.8,7.8,2.5,10.3,5.5c1.1,1.3,3.1,0.2,3.2-1.3c0.3-4.3,1.7-9.8,6.7-10.8c4.8-0.9,8.7,3.1,11.2,6.6
				c1,1.4,3.5,1.1,3.5-0.9c-0.1-3.7,0.3-7.9,2.9-10.8c3.9-4.2,8.9-1.8,12.5,1.4c1,0.9,2.8,0.6,3.1-0.8c0.7-3.8,2.3-7.9,6.6-8.6
				c4.3-0.8,7.8,2.5,10.3,5.5c1.1,1.3,3.1,0.2,3.2-1.3c0.3-4.3,1.7-9.8,6.7-10.8c4.8-0.9,8.7,3.1,11.2,6.6c1,1.4,3.5,1.1,3.5-0.9
				c-0.2-6,2.4-15.3,10.4-12.6c3.6,1.2,4.2,4.1,7.8,3.1c4.7-1.3,9.3-3,13.9-4.5c0.8-0.2,1.4-1,1.4-1.8c-0.2-5.5,0.6-16.1,8.2-16.2
				c6.9-0.1,11.9,8,14.7,13.3c0.4,0.7,1.4,1.1,2.1,0.9c8.3-2.7,16.6-5.4,25-8.2c0.8-0.3,1.4-1,1.4-1.8c-0.1-2.8-0.2-7,2.3-8.9
				c3.7-2.9,7.6,1.5,9.7,4.5c1,1.4,3.5,1,3.5-0.9c0-2.7,0-7.7,3-9.3c3.7-1.9,7.5,2.9,9.2,5.5c0.5,0.7,1.3,1.1,2.1,0.9
				c5.1-1.7,10.2-3.3,15.4-5c0.9-0.3,1.6-1.3,1.3-2.3c-0.3-0.8-0.7,1.4-0.1,0.4c0.4-0.7,0.9-1.3,1.3-1.9c1.4-2,2.8-4.1,4.2-6.1
				c2.1-3.1,4.3-6.2,6.4-9.3c-1.1-0.1-2.3-0.3-3.4-0.4c1,2.8,1.9,5.7,2.9,8.5c0.5,1.4,2.7,2,3.4,0.4c9.5-18.6,39.8-28.7,58.1-18.1
				c1.4,0.8,3.3-0.5,2.8-2.1c-1-3.2-2.1-6.3-2.9-9.5c-0.8,0.8-1.5,1.5-2.3,2.3c6.4,2.4,12.9,5.4,19.5,7.2c2.2,0.6,3.5-0.1,5.7-0.8
				c3.3-1.1,6.6-2.1,9.9-3.2c0.8-0.3,1.3-0.9,1.4-1.8c0.5-9.9,8.2-18.1,18.4-18.1c2.7,0,5.4,0.6,7.9,1.7c1.4,0.6,2.9,2.3,4.3,2.6
				c0.9,0.2,1.6-0.2,2.4-0.5c7.3-1.9,14.5-4.7,21.6-7.1c0.8-0.3,1.4-1,1.4-1.8c0-2.2-0.1-4.6,0.7-6.6c1.8-4.4,5.5-0.6,7.4,1.5
				c1.1,1.3,3.1,0.2,3.2-1.3c0.1-1.5-0.2-3.9,0.9-5.1c0.2-1.4,1.1-1.6,2.7-0.7c1.6-0.4,2.8,0.1,3.6,1.4c0.9,0.9,2.9,0.6,3.1-0.8
				c0.5-2.8,0.1-3.9,3.5-3.8c3,0.1,3,0.5,4.8,2.7c1.1,1.3,3.1,0.2,3.2-1.3c0.1-1.4,0-3.7,0.9-4.8c1.3-1.7,4.7-0.7,6.3,0.8
				c0.9,0.9,2.9,0.6,3.1-0.8c0.4-2.3,0.7-6,4.7-4.6c1.5,0.5,2.9,2.7,3.9,3.8c1.1,1.4,3.1,0.1,3.2-1.3c0.1-1.5,0.1-3.6,1.1-4.8
				c0.3-1.4,1.2-1.6,2.7-0.5c1.5-0.1,2.6,0.5,3.4,1.7c0.9,0.9,2.9,0.6,3.1-0.8c0.5-2.8,0.1-3.9,3.5-3.8c3,0.1,3,0.5,4.8,2.7
				c1.1,1.3,3.1,0.2,3.2-1.3c0.1-1.4,0-3.7,0.9-4.8c1.3-1.7,4.7-0.7,6.3,0.8c0.9,0.9,2.9,0.6,3.1-0.8c0.4-2.4,0.2-3.7,3-4.1
				c2.7-0.4,3.3,0.7,5,2.7c1.1,1.3,3.1,0.2,3.2-1.3c0.1-1.5-0.2-3.9,0.9-5.1c0.2-1.4,1.1-1.6,2.7-0.7c1.6-0.4,2.8,0.1,3.6,1.4
				c0.9,0.9,2.9,0.6,3.1-0.8c0.5-2.8,0.1-3.9,3.5-3.8c3,0.1,3,0.5,4.8,2.7c1.1,1.3,3.1,0.2,3.2-1.3c0.1-1.4,0-3.7,0.9-4.8
				c1.3-1.7,4.7-0.7,6.3,0.8c0.9,0.9,2.9,0.6,3.1-0.8c0.6-3.6,2.2-6.2,5.9-3.7c2,1.3,3.4,3.9,4.6,5.9c0.4,0.7,1.3,1.1,2.1,0.9
				c7.5-2.5,15.1-4.9,22.6-7.4c0.6-0.2,1.2-0.7,1.3-1.3c2-9.6,9.1-17.3,18.9-19.1c5.9-1,12,0.3,17,3.6c2,1.4,2.5,2.3,4.7,1.9
				c4.5-0.8,9-2.9,13.3-4.4c3.7-1.2,7.5-2.4,11.2-3.7c0.8-0.3,1.3-0.9,1.4-1.8c1.1-16.2,15.6-29.3,32.1-23.1c3.5,1.3,5,3.6,8.5,2.5
				c3.9-1.1,7.9-1.7,11.9-0.9c7,1.3,13.3,6.1,14.6,13.3c1.2,6.7-2.3,13.2-7.4,17.3c-1.3,1.1-2.8,2-4.3,2.7c-1.3,0.7-3.9,1.1-5.1,2
				c-1.8,1.4-2.2,4.6-3.4,6.5c-9.5,15.3-29.3,13.4-40,0.8c-0.4-0.5-1.2-0.7-1.8-0.5c-8.1,2.6-16.1,5.3-24.2,7.9
				c-0.6,0.2-1.2,0.7-1.3,1.3c-1.4,9.1-7.1,16.4-15.8,19.5C863.5,101.2,864.5,104.9,866.8,104z"/>
		</g>
	</g>
	<ellipse transform="matrix(0.9506 -0.3103 0.3103 0.9506 20.9201 270.3657)" class="st33" cx="860.2" cy="69.4" rx="5" ry="5"/>
</g>
</svg>
