<?xml version="1.0" encoding="utf-8"?>
<!-- Generator: Adobe Illustrator 21.0.2, SVG Export Plug-In . SVG Version: 6.00 Build 0)  -->
<svg version="1.1" id="Layer_1" xmlns="http://www.w3.org/2000/svg" xmlns:xlink="http://www.w3.org/1999/xlink" x="0px" y="0px"
	 viewBox="0 0 1133.9 171" style="enable-background:new 0 0 1133.9 171;" xml:space="preserve">
<style type="text/css">
	.st0{fill:#DAD5CE;}
	.st1{fill:#C5C1BD;}
	.st2{fill:#D6CFCE;}
	.st3{fill:#F1F1F2;}
	.st4{fill:#444545;}
	.st5{fill:#404041;}
	.st6{fill:#A6A8AB;}
	.st7{fill:#929497;}
	.st8{fill:#58595B;}
	.st9{fill:#6D6E70;}
	.st10{fill:#1D191B;}
</style>
<g>
	<path class="st0" d="M13.6,72.2c0,4.3,6.6,7.8,15.1,8.2l0,0l573.5,6.8l3.8-26.3L28.7,64l0,0C20.3,64.3,13.6,67.9,13.6,72.2z"/>
	<path class="st1" d="M798.9,99.6l-204-10.9l4.2-5.6l-4.2-3.5l4.2-5.6l-2-5.2l3.6-3.3l-3-6.9L798.9,57c0.3,3.4,0.5,6.8,0.8,10.1
		L793.2,80l5.7,10.9V99.6z"/>
	<path class="st2" d="M801.8,119.6c0,0,8.3-10.1,6.7-28.7c-1.5-0.9-3.6-2.5-5.6-5.1c-1.8-2.4-2.7-4.7-3.2-6.2c0,0,3.5-6.5,11.2-9.8
		c0,0-3.9-26.7-31.3-38.8c0,0-5.3-8.7,3.8-6.2s34.5,19.3,54.7,21.5c0,0,129.3,14.9,166.3-5.2c4.9-1.9,10.4-4.5,16.1-7.9
		c11.4-6.8,19.7-14.7,25.5-21.1c2.5-1.7,11.2-7.1,23.1-6c15.1,1.5,23.6,12.5,24.9,14.3c0.5,3.6,0.9,7.4,1.3,11.2
		c0.5,4.8,0.9,9.5,1.1,14.1c0,0,30.1-4.4,29.3,24.6c-0.8,29-19.9,28.4-19.9,28.4c-0.2,2.5-0.3,5.4,0,8.6c0.7,6.6,2.7,11.8,4.5,15.4
		c3.3,13.5-1,27.2-11.1,34.9c-9.9,7.7-21.5,6.3-24.1,6c0,0-7.5-1.7-1.9-6.6c0,0,7.9-5,8-12.8c0.1-4.7-2.5-8.7-7.5-13.4
		c-5.5-5.3-17-14.7-38.1-21.8c-20.6-2.4-42.5-4.2-65.5-5.2c-43.4-1.9-83.5-0.5-119.3,2.7C850.8,106.5,807.3,121.6,801.8,119.6z"/>
	<g>
		<g>
			<path class="st3" d="M551.6,76.8c-33.4-0.2-66.8-0.4-100.2-0.6c-1.6,0-1.6,2.5,0,2.5c33.4,0.2,66.8,0.4,100.2,0.6
				C553.2,79.3,553.2,76.8,551.6,76.8L551.6,76.8z"/>
		</g>
	</g>
	<g>
		<g>
			<path class="st3" d="M108.7,70.6c-12.2-0.2-24.3-0.4-36.5-0.6c-1.6,0-1.6,2.5,0,2.5c12.2,0.2,24.3,0.4,36.5,0.6
				C110.3,73.1,110.3,70.6,108.7,70.6L108.7,70.6z"/>
		</g>
	</g>
	<path class="st4" d="M796.8,87c-1,0.6-2.5,1-4.2,1c-3.1,0-5.7-1.3-5.7-3s2.5-3,5.7-3c0.6,0,1.1,0,1.7,0.1"/>
	<ellipse class="st4" cx="780" cy="95.7" rx="5.7" ry="3"/>
	<ellipse class="st4" cx="762.6" cy="83.6" rx="5.7" ry="3"/>
	<ellipse class="st4" cx="739.5" cy="86.6" rx="5.7" ry="3"/>
	<path class="st4" d="M796.3,73.8c-3.1-0.5-5.4-1.8-5.4-3c0-1.4,3.1-2.9,5.7-3c1.1,0,2,0.2,2.6,0.3"/>
	<ellipse class="st4" cx="776.3" cy="72.2" rx="5.7" ry="3"/>
	<ellipse class="st4" cx="751.3" cy="72.2" rx="5.7" ry="3"/>
	<ellipse class="st4" cx="728.2" cy="70.8" rx="5.7" ry="3"/>
	<ellipse class="st4" cx="716.8" cy="79.8" rx="5.7" ry="3"/>
	<ellipse class="st4" cx="708.9" cy="89.7" rx="5.7" ry="3"/>
	<ellipse class="st4" cx="707.5" cy="69.2" rx="5.7" ry="3"/>
	<ellipse class="st4" cx="669.8" cy="67.8" rx="5.7" ry="3"/>
	<ellipse class="st4" cx="681.2" cy="83.6" rx="5.7" ry="3"/>
	<ellipse class="st4" cx="658.5" cy="75.2" rx="5.7" ry="3"/>
	<ellipse class="st4" cx="637.6" cy="73.8" rx="5.7" ry="3"/>
	<ellipse class="st4" cx="643.3" cy="85" rx="5.7" ry="3"/>
	<ellipse class="st5" cx="651.6" cy="91" rx="5.7" ry="3"/>
	<ellipse class="st4" cx="619.3" cy="70.8" rx="5.7" ry="3"/>
	<ellipse class="st4" cx="612.9" cy="79.8" rx="5.7" ry="3"/>
	<ellipse class="st5" cx="618.5" cy="89.7" rx="5.7" ry="3"/>
	<ellipse class="st5" cx="594" cy="88" rx="5.7" ry="3"/>
	<g>
		<g>
			<path class="st6" d="M1081.9,58.4c1.1-4,1.1-8.7-0.2-12.6c-2.6-8.1-10.1-11.4-18-12.3c0.4,0.6,0.7,1.3,1.1,1.9
				c4.2-6.4,4.7-14.7,0-20.9c-1-1.3-3.1,0-2.2,1.3c4.2,5.6,3.7,12.7,0,18.4c-0.6,0.9,0.2,1.8,1.1,1.9c7.7,0.8,14.6,4.4,16.1,12.5
				c0.5,3,0.5,6.3-0.3,9.2C1079.1,59.3,1081.5,59.9,1081.9,58.4L1081.9,58.4z"/>
		</g>
	</g>
	<path class="st7" d="M1078.3,157.3c2.3-2.3,18-18.4,14.1-32.8c-4.4-16.1-32.6-28.9-67.6-18.1c13.4,1.4,23.3,5.5,29.2,8.6
		c9.9,5.1,22,11.4,25.4,24.1C1081.5,146.6,1079.7,153.5,1078.3,157.3z"/>
	<g>
		<g>
			<path class="st3" d="M1109.4,85.4c-3.9-4.1-7.9-8.2-11.8-12.4c0,0.6,0,1.2,0,1.8c3.9-4.5,7.9-9,11.8-13.5c1.1-1.2-0.7-3-1.8-1.8
				c-3.9,4.5-7.9,9-11.8,13.5c-0.5,0.5-0.5,1.3,0,1.8c3.9,4.1,7.9,8.2,11.8,12.4C1108.8,88.3,1110.5,86.6,1109.4,85.4L1109.4,85.4z"
				/>
		</g>
	</g>
	<g>
		<g>
			<path class="st3" d="M1085.8,157.1c5.8-5.6,11-13.2,11.6-21.4c0.1-1.6-2.4-1.6-2.5,0c-0.5,7.5-5.5,14.6-10.9,19.7
				C1082.8,156.5,1084.6,158.2,1085.8,157.1L1085.8,157.1z"/>
		</g>
	</g>
	<g>
		<g>
			<path class="st3" d="M1017.2,51.8c-13.2,3.2-26.7,5.2-40.1,6.9c-31.1,4-62.6,5.3-93.8,3.2c-22-1.5-43.8-4.7-65.2-10.2
				c-1.6-0.4-2.2,2-0.7,2.4c60.4,15.4,125.3,14.2,186.3,2.9c4.7-0.9,9.5-1.8,14.2-2.9C1019.4,53.8,1018.8,51.4,1017.2,51.8
				L1017.2,51.8z"/>
		</g>
	</g>
	<path class="st8" d="M798.9,99.6V91c-1.1-1.3-2.4-3-3.5-5.2c-1.1-2.1-1.8-4.1-2.2-5.7c0.5-1.7,1.1-3.6,2.1-5.6c1.4-3,3-5.4,4.4-7.3
		c-1.1-3-2.2-5.9-3.3-8.9c-1.1-0.4-2.1-0.8-3.2-1.2c0,0-13.6-19.5-13.6-26c4.7,2,15.7,7.4,23.6,19.5c4.9,7.5,6.8,14.7,7.7,19.3
		c-1.4,0.7-3.3,1.8-5.1,3.5c-2.7,2.4-4.2,4.9-5.1,6.6c1.6,2.2,3.1,4.3,4.7,6.5c1.6,2.1,3.1,4.3,4.7,6.4c0,3.2-0.2,7.3-1.4,12
		c-1.7,6.7-4.6,11.7-6.8,14.8c-1.2-1-2-2-2.6-2.9C794.8,109.8,798.3,101,798.9,99.6z"/>
	<g>
		<g>
			<path class="st6" d="M1107.9,87.8c-4.7-4.9-9.3-9.8-14-14.7c0,0.6,0,1.2,0,1.8c4.7-5.3,9.3-10.7,14-16c1.1-1.2-0.7-3-1.8-1.8
				c-4.7,5.3-9.3,10.7-14,16c-0.5,0.5-0.5,1.3,0,1.8c4.7,4.9,9.3,9.8,14,14.7C1107.3,90.7,1109,89,1107.9,87.8L1107.9,87.8z"/>
		</g>
	</g>
	<g>
		<g>
			<path class="st3" d="M1067.6,15.5c2.6,5.1,2.8,10.8,0.7,16.2c-0.6,1.5,1.8,2.1,2.4,0.7c2.3-6,1.9-12.4-1-18.1
				C1069.1,12.8,1066.9,14.1,1067.6,15.5L1067.6,15.5z"/>
		</g>
	</g>
	<path class="st9" d="M1078.3,157.3c9.6-11.4,9-19.8,8.6-22.6c-2.4-16.6-27.7-31.6-63.4-29.6c13.9,1.9,24.2,6.4,30.5,9.8
		c10.7,5.7,22.1,11.8,25.4,24.1C1081.5,146.6,1079.7,153.5,1078.3,157.3z"/>
	<g>
		<g>
			<path class="st10" d="M26.9,80.3C26.9,80.3,26.9,80.4,26.9,80.3c0,1.1,0.9,1.9,1.9,1.9c18.9,0.2,37.8,0.4,56.7,0.7
				c45,0.5,90.1,1.1,135.1,1.6c54.8,0.6,109.6,1.3,164.4,1.9c47.1,0.6,94.1,1.1,141.2,1.7c15.6,0.2,31.2,0.4,46.8,0.6
				c4.8,0.1,9.6,0.1,14.4,0.2c2.1,0,5.6,0.7,7.7,0.1c0.3-0.1,0.7,0,1,0c-0.5-0.9-1.1-1.9-1.6-2.8c-0.4,0.5-0.8,1.1-1.2,1.6
				c-0.9,1.2,0.4,2.8,1.6,2.8c22.9,1.2,45.8,2.4,68.8,3.7c36.6,1.9,73.2,3.9,109.8,5.8c8.5,0.5,17,0.9,25.5,1.4
				c-0.6-0.8-1.2-1.6-1.8-2.4c-3,7.5-2.7,16,3.4,21.8c1,0.9,2.2,0.6,2.9-0.4c0.1-0.2,0.2-0.3,0.4-0.5c1.4-1.9-1.8-3.8-3.2-1.9
				c-0.1,0.2-0.2,0.3-0.4,0.5c-0.7,1,0.1,2.5,1.1,2.8c6.2,1.8,15.6-2.3,21.5-4c8.8-2.5,17.4-5.3,26.1-8.2c4.2-1.4,8.6-1.3,13-1.7
				c8.9-0.7,17.9-1.2,26.8-1.7c19.5-0.9,39.1-1.2,58.6-0.9c19.9,0.4,39.7,1.4,59.6,3c9.3,0.8,19.4,0.9,28.5,3.1
				c8.2,2,16.4,6.3,23.6,10.8c10,6.2,28,18.8,16,31.2c-2.2,2.2-6.3,4.2-5.7,7.9c0.4,2.6,3.2,4,5.5,4.5c13.4,3,28.1-5.1,34.3-16.9
				c3.7-7,4.8-15.1,3.6-22.9c-0.6-3.9-2.5-7.1-3.6-10.8c-1.6-5.3-2-10.7-1.6-16.2c-0.6,0.6-1.2,1.2-1.9,1.9
				c17.9,0.3,23.6-23.3,21.3-37.1c-2.4-15.1-17.2-21.6-31.2-19.6c0.8,0.6,1.6,1.2,2.4,1.8c-0.1-4.9-0.5-9.8-1.2-14.6
				c-0.6-4.1-1.1-9.2-3.3-12.8c-3.1-5-9.2-9.1-14.5-11.4c-8-3.5-17.1-3.9-25.4-1c-6.9,2.4-10.4,6.3-15.5,11.2
				c-13,12.4-30,22.3-47.5,26.9c-13.1,3.5-26.9,4.5-40.4,5.2c-28.9,1.3-58-0.1-86.8-2.5c-7.8-0.6-15.7-1.3-23.5-2.2
				c-13.8-1.5-26.5-7.5-38.8-13.7c-5.7-2.9-13.7-8.7-20.5-8.5c-5.7,0.1-4.6,4.8-3.4,8.6c1.5,4.5,4,10.8,7,15.8
				c1.8,3,3.6,5.9,5.5,8.8c0.7,1,1.6,3,2.9,3.2c0.2-1.2,0.3-2.5,0.5-3.7c-22.1,0.2-44.2,0.4-66.3,0.5c-35,0.3-70.1,0.6-105.1,0.9
				c-8.1,0.1-16.3,0.1-24.4,0.2c-1.5,0-2.2,1.6-1.6,2.8c0.3,0.7,0.6,1.5,1,2.2c0.5-0.9,1.1-1.9,1.6-2.8c-18.9,0.1-37.7,0.2-56.6,0.3
				c-45.3,0.2-90.6,0.5-135.9,0.7c-55,0.3-110.1,0.6-165.1,0.9c-47.4,0.3-94.8,0.5-142.2,0.8c-15.6,0.1-31.2,0.2-46.9,0.3
				c-7.3,0-15-0.7-22.3,0.1c-0.3,0-0.7,0-1,0c-1,0-1.9,0.9-1.9,1.9l0,0c0.6-0.6,1.2-1.2,1.9-1.9c-5.7,0.4-17,2.3-17,10.1
				c0,7.7,11.3,9.6,17,10.1c2.4,0.2,2.4-3.6,0-3.8c-3-0.2-13.2-1.3-13.2-6.3c0-5.1,10.2-6.1,13.2-6.3c1-0.1,1.9-0.8,1.9-1.9l0,0
				c-0.6,0.6-1.2,1.2-1.9,1.9c18.9-0.1,37.7-0.2,56.6-0.3c45.3-0.2,90.6-0.5,135.9-0.7c55-0.3,110.1-0.6,165.1-0.9
				c47.4-0.3,94.8-0.5,142.2-0.8c15.6-0.1,31.2-0.2,46.9-0.3c7.3,0,15,0.7,22.3-0.1c0.3,0,0.7,0,1,0c1.5,0,2.2-1.6,1.6-2.8
				c-0.3-0.7-0.6-1.5-1-2.2c-0.5,0.9-1.1,1.9-1.6,2.8c22.1-0.2,44.2-0.4,66.3-0.5c35-0.3,70.1-0.6,105.1-0.9
				c8.1-0.1,16.3-0.1,24.4-0.2c2,0,2.6-3.3,0.5-3.7c0.8,0.2,1.1,1.2,0.3,0c-0.5-0.7-1-1.4-1.5-2.2c-1.8-2.7-3.5-5.4-5.1-8.1
				c-2.9-4.9-4.8-9.6-6.5-14.9c-0.6-1.8-2.4-3.5,0.7-3.6c2.7-0.1,6.1,2.2,8.5,3.3c7.6,3.6,15,7.6,22.7,11
				c16.4,7.1,32.2,8.5,49.6,9.9c26,2.1,52.2,3.5,78.4,2.8c12.9-0.3,25.9-1.1,38.7-3.1c11-1.8,20.6-5.2,30.7-9.7
				c10.5-4.7,20.3-11.2,28.8-19c3.1-2.8,5.7-6.5,9.2-8.8c3.2-2.2,7.1-3.5,10.8-4.3c10.6-2.2,21.4,1.6,28.9,9.2
				c6.5,6.6,6.2,19.3,6.4,28.1c0,1.3,1.2,2,2.4,1.8c2-0.3,8-0.1,11.2,0.6c7.9,1.8,13.6,7.1,15.2,15.1c2.3,11.5-1.9,33.8-17.5,33.6
				c-1.1,0-1.8,0.9-1.9,1.9c-0.6,7.4,0.4,14.7,3.2,21.5c3.2,8,3.1,17.1-0.5,25s-10.6,13.8-19,15.9c-2.3,0.6-11,2.5-13.3,0.2
				c-2-2,5.9-8.5,7.1-10.6c2.4-4.6,2.2-9.7-0.4-14.2c-5-8.9-15.8-15.8-24.5-20.6c-6.2-3.4-13.4-7.3-20.3-8.8
				c-8.1-1.8-17-1.9-25.2-2.6c-19-1.7-38.1-2.8-57.2-3.2c-18.4-0.5-36.8-0.4-55.1,0.3c-8.8,0.3-17.6,0.8-26.3,1.3
				c-7.1,0.5-15,0.2-22,1.7c-7.2,1.6-14.3,4.8-21.3,6.9c-5.3,1.6-10.6,3.2-16,4.5c-2.9,0.7-7.6,2.5-10.6,1.6
				c0.4,0.9,0.7,1.8,1.1,2.8c0.1-0.2,0.2-0.3,0.4-0.5c1.4-1.9-1.8-3.8-3.2-1.9c-0.1,0.2-0.2,0.3-0.4,0.5c1-0.1,2-0.3,2.9-0.4
				c-5.2-4.9-4.9-12-2.4-18.2c0.5-1.2-0.7-2.3-1.8-2.4c-22.9-1.2-45.8-2.4-68.8-3.7c-36.6-1.9-73.2-3.9-109.8-5.8
				c-8.5-0.5-17-0.9-25.5-1.4c0.5,0.9,1.1,1.9,1.6,2.8c0.4-0.5,0.8-1.1,1.2-1.6c0.9-1.2-0.3-2.8-1.6-2.8
				c-18.9-0.2-37.8-0.4-56.7-0.7c-45-0.5-90.1-1.1-135.1-1.6c-54.8-0.6-109.6-1.3-164.4-1.9c-47.1-0.6-94.1-1.1-141.2-1.7
				c-15.6-0.2-31.2-0.4-46.8-0.6c-4.8-0.1-9.6-0.1-14.4-0.2c-2.1,0-5.6-0.7-7.7-0.1c-0.3,0.1-0.7,0-1,0c0.6,0.6,1.2,1.2,1.9,1.9l0,0
				C30.6,77.9,26.9,77.9,26.9,80.3z"/>
		</g>
	</g>
</g>
</svg>
